<?xml version="1.0" encoding="UTF-8"?>
<svg xmlns="http://www.w3.org/2000/svg" xmlns:xlink="http://www.w3.org/1999/xlink" version="1.2" >
<font id="Paze Sans Medium It">
<font-face  font-family="Paze Sans" units-per-em="1000" ascent="1040" descent="-345" font-style="normal" font-weight="500" font-stretch="normal" slope="-11" cap-height="695" x-height="527" underline-position="-100" underline-thickness="50" />
<missing-glyph  horiz-adv-x="563" d="M71 0 L490 0 L632 730 L213 730 L71 0 Z M124 72 L238 658 L330 365 L124 72 Z M141 35 L343 322 L434 35 L141 35 Z M269 695 L562 695 L360 408 L269 695 Z M374 365 L578 656 L466 74 L374 365 Z " />
<glyph glyph-name="NULL" d="" />
<glyph glyph-name="CR" unicode="&#xd;" horiz-adv-x="250" d="" />
<glyph glyph-name="space" unicode="&#x20;" horiz-adv-x="211" d="" />
<glyph glyph-name="exclam" unicode="&#x21;" horiz-adv-x="246" d="M123 217 L200 217 L322 731 L206 731 L123 217 Z M68 47 C68 13 92 -9 125 -9 C167 -9 198 24 198 63 C198 95 176 119 140 119 C99 119 68 85 68 47 L68 47 Z " />
<glyph glyph-name="quotedbl" unicode="&#x22;" horiz-adv-x="334" d="M296 489 L370 489 L422 715 L333 715 L296 489 Z M150 489 L225 489 L277 715 L187 715 L150 489 Z " />
<glyph glyph-name="numbersign" unicode="&#x23;" horiz-adv-x="673" d="M322 0 L407 0 L492 185 L614 185 L629 263 L528 263 L610 443 L730 443 L745 521 L646 521 L726 695 L642 695 L562 521 L403 521 L483 695 L400 695 L320 521 L195 521 L179 443 L284 443 L201 263 L77 263 L62 185 L165 185 L80 0 L164 0 L249 185 L407 185 L322 0 Z M285 263 L367 443 L526 443 L443 263 L285 263 Z " />
<glyph glyph-name="dollar" unicode="&#x24;" horiz-adv-x="612" d="M252 -99 L335 -99 L352 -11 C487 -2 573 79 573 201 C573 418 296 381 296 518 C296 579 345 619 418 619 C483 619 535 589 566 544 L635 615 C607 652 557 686 492 700 L510 794 L428 794 L411 707 C279 701 191 620 191 505 C191 302 469 343 469 188 C469 120 420 77 342 77 C261 77 203 113 162 172 L84 102 C121 46 183 5 270 -8 L252 -99 Z " />
<glyph glyph-name="percent" unicode="&#x25;" horiz-adv-x="739" d="M134 0 L213 0 L740 695 L660 695 L134 0 Z M128 520 C128 441 184 382 264 382 C367 382 441 475 441 567 C441 645 385 702 306 702 C206 702 128 614 128 520 L128 520 Z M197 526 C197 581 240 637 298 637 C342 637 373 605 373 559 C373 505 330 448 271 448 C228 448 197 480 197 526 L197 526 Z M431 130 C431 51 486 -7 567 -7 C669 -7 744 85 744 178 C744 255 688 313 608 313 C508 313 431 224 431 130 L431 130 Z M499 137 C499 192 543 247 601 247 C644 247 675 215 675 169 C675 115 633 58 574 58 C530 58 499 90 499 137 L499 137 Z " />
<glyph glyph-name="ampersand" unicode="&#x26;" horiz-adv-x="678" d="M70 153 C70 69 139 -12 267 -12 C366 -12 434 28 490 77 L547 0 L660 0 L561 137 C608 181 650 234 678 283 L617 345 C588 296 562 254 513 204 L403 356 C513 400 615 467 615 570 C615 659 544 707 445 707 C317 707 220 618 220 512 C220 463 238 426 267 384 C153 338 70 267 70 153 L70 153 Z M179 174 C179 247 234 289 313 320 L438 149 C396 109 345 82 287 82 C212 82 179 126 179 174 L179 174 Z M317 518 C317 575 365 624 431 624 C483 624 518 598 518 553 C518 478 430 440 361 415 C337 449 317 481 317 518 L317 518 Z " />
<glyph glyph-name="quotesingle" unicode="&#x27;" horiz-adv-x="189" d="M150 489 L225 489 L277 715 L187 715 L150 489 Z " />
<glyph glyph-name="parenleft" unicode="&#x28;" horiz-adv-x="318" d="M231 -113 L299 -45 C233 20 188 122 188 246 C188 434 285 603 450 721 L388 782 C205 662 89 459 89 237 C89 87 149 -41 231 -113 L231 -113 Z " />
<glyph glyph-name="parenright" unicode="&#x29;" horiz-adv-x="318" d="M-7 -47 L55 -109 C243 12 357 217 357 438 C357 588 296 717 218 785 L150 718 C215 651 258 550 258 429 C258 239 160 68 -7 -47 L-7 -47 Z " />
<glyph glyph-name="asterisk" unicode="&#x2a;" horiz-adv-x="400" d="M237 390 L312 390 L326 502 L405 438 L456 507 L363 558 L476 609 L451 678 L348 614 L378 731 L303 731 L288 614 L210 678 L159 610 L251 558 L139 507 L163 438 L267 502 L237 390 Z " />
<glyph glyph-name="plus" unicode="&#x2b;" horiz-adv-x="476" d="M208 86 L298 86 L335 274 L499 274 L516 359 L352 359 L388 544 L298 544 L262 359 L98 359 L81 274 L245 274 L208 86 Z " />
<glyph glyph-name="comma" unicode="&#x2c;" horiz-adv-x="205" d="M17 -108 L77 -108 L143 -17 C167 16 177 36 177 64 C177 95 154 120 119 120 C82 120 47 90 47 50 C47 21 65 1 88 -4 L17 -108 Z " />
<glyph glyph-name="hyphen" unicode="&#x2d;" horiz-adv-x="370" d="M109 276 L367 276 L383 359 L125 359 L109 276 Z " />
<glyph glyph-name="period" unicode="&#x2e;" horiz-adv-x="209" d="M106 -9 C147 -9 178 24 178 63 C178 95 156 119 120 119 C80 119 48 85 48 47 C48 13 72 -9 106 -9 L106 -9 Z " />
<glyph glyph-name="slash" unicode="&#x2f;" horiz-adv-x="341" d="M20 -50 L110 -50 L444 711 L355 711 L20 -50 Z " />
<glyph glyph-name="zero" unicode="0" horiz-adv-x="612" d="M327 -12 C532 -12 651 211 651 420 C651 609 558 706 422 706 C213 706 96 488 96 277 C96 89 187 -12 327 -12 L327 -12 Z M200 281 C200 438 280 609 412 609 C496 609 545 537 545 416 C545 251 464 85 337 85 C253 85 200 155 200 281 L200 281 Z " />
<glyph glyph-name="one" unicode="1" horiz-adv-x="612" d="M87 0 L543 0 L559 85 L386 85 L504 695 L403 695 L392 639 C387 613 368 599 342 599 L207 599 L190 515 L368 515 L285 85 L104 85 L87 0 Z " />
<glyph glyph-name="two" unicode="2" horiz-adv-x="612" d="M65 0 L539 0 L556 85 L229 85 L448 273 C564 369 622 444 622 543 C622 640 544 706 424 706 C331 706 241 666 168 587 L233 522 C296 590 353 617 411 617 C475 617 516 581 516 525 C516 455 466 401 374 322 L79 67 L65 0 Z " />
<glyph glyph-name="three" unicode="3" horiz-adv-x="612" d="M308 -12 C466 -12 582 90 582 220 C582 326 511 401 404 409 L634 614 L649 695 L214 695 L198 614 L517 614 L286 410 L272 342 L346 342 C425 342 476 294 476 217 C476 138 408 76 316 76 C240 76 181 111 140 172 L72 104 C109 48 187 -12 308 -12 L308 -12 Z " />
<glyph glyph-name="four" unicode="4" horiz-adv-x="612" d="M59 161 L416 161 L383 0 L484 0 L515 161 L601 161 L617 242 L531 242 L619 695 L519 695 L73 234 L59 161 Z M186 242 L493 559 L432 242 L186 242 Z " />
<glyph glyph-name="five" unicode="5" horiz-adv-x="612" d="M310 -12 C475 -12 585 90 585 233 C585 354 497 431 359 431 L296 431 L342 614 L616 614 L633 695 L271 695 L185 350 L345 350 C429 350 480 299 480 222 C480 140 412 76 318 76 C241 76 186 117 150 177 L77 105 C127 37 200 -12 310 -12 L310 -12 Z " />
<glyph glyph-name="six" unicode="6" horiz-adv-x="612" d="M318 -12 C482 -12 602 109 602 257 C602 386 510 462 388 462 C381 462 374 462 368 461 L594 695 L474 695 L191 404 C146 358 96 283 96 191 C96 68 185 -12 318 -12 L318 -12 Z M201 203 C201 289 269 379 371 379 C447 379 497 325 497 249 C497 159 426 76 329 76 C251 76 201 130 201 203 L201 203 Z " />
<glyph glyph-name="seven" unicode="7" horiz-adv-x="612" d="M164 0 L280 0 L653 617 L668 695 L203 695 L186 609 L541 609 L164 0 Z " />
<glyph glyph-name="eight" unicode="8" horiz-adv-x="612" d="M320 -12 C474 -12 585 89 585 209 C585 285 543 344 476 368 C562 394 620 464 620 548 C620 640 550 706 434 706 C300 706 197 621 197 505 C197 441 231 395 282 372 C178 348 103 263 103 162 C103 58 191 -12 320 -12 L320 -12 Z M206 180 C206 263 281 329 368 329 C441 329 484 285 484 218 C484 137 416 72 326 72 C253 72 206 112 206 180 L206 180 Z M293 499 C293 567 353 622 424 622 C482 622 523 588 523 530 C523 462 460 406 390 406 C331 406 293 443 293 499 L293 499 Z " />
<glyph glyph-name="nine" unicode="9" horiz-adv-x="612" d="M151 0 L270 0 L554 291 C615 355 648 424 648 504 C648 626 559 706 427 706 C263 706 142 585 142 438 C142 309 234 233 357 233 C364 233 371 233 377 234 L151 0 Z M247 446 C247 536 319 618 416 618 C493 618 544 564 544 492 C544 406 476 316 373 316 C297 316 247 370 247 446 L247 446 Z " />
<glyph glyph-name="colon" unicode="&#x3a;" horiz-adv-x="232" d="M184 331 C225 331 256 365 256 403 C256 437 233 460 199 460 C158 460 127 426 127 387 C127 353 151 331 184 331 L184 331 Z M60 47 C60 13 85 -9 118 -9 C159 -9 190 24 190 63 C190 97 166 119 133 119 C92 119 60 85 60 47 L60 47 Z " />
<glyph glyph-name="semicolon" unicode="&#x3b;" horiz-adv-x="234" d="M31 -108 L91 -108 L158 -17 C181 16 191 36 191 64 C191 95 168 120 133 120 C96 120 61 90 61 50 C61 21 79 1 102 -4 L31 -108 Z M127 387 C127 353 152 331 185 331 C226 331 257 365 257 403 C257 437 233 460 200 460 C158 460 127 426 127 387 L127 387 Z " />
<glyph glyph-name="less" unicode="&#x3c;" horiz-adv-x="403" d="M371 69 L388 154 L179 294 L442 434 L461 534 L89 333 L77 268 L371 69 Z " />
<glyph glyph-name="equal" unicode="&#x3d;" horiz-adv-x="485" d="M110 373 L518 373 L535 459 L127 459 L110 373 Z M65 140 L473 140 L489 225 L82 225 L65 140 Z " />
<glyph glyph-name="greater" unicode="&#x3e;" horiz-adv-x="403" d="M57 69 L429 270 L442 335 L148 534 L131 449 L339 309 L77 168 L57 69 Z " />
<glyph glyph-name="question" unicode="&#x3f;" horiz-adv-x="448" d="M197 263 L188 217 L278 217 L285 251 C313 407 529 429 529 594 C529 688 456 741 359 741 C266 741 193 694 145 641 L211 575 C245 613 288 645 339 645 C386 645 420 620 420 571 C420 458 233 439 197 263 L197 263 Z M143 47 C143 13 167 -9 201 -9 C242 -9 273 24 273 63 C273 97 250 119 216 119 C175 119 143 85 143 47 L143 47 Z " />
<glyph glyph-name="at" unicode="&#x40;" horiz-adv-x="964" d="M464 -129 C583 -129 674 -94 745 -24 L687 34 C638 -14 571 -46 472 -46 C295 -46 176 71 176 255 C176 473 356 672 597 672 C794 672 906 557 906 390 C906 266 858 176 784 176 C748 176 732 192 732 224 C732 232 733 239 736 258 L785 513 L712 513 L697 436 C673 492 620 527 543 527 C414 527 309 411 309 279 C309 167 381 88 485 88 C554 88 614 123 654 177 C662 128 709 94 776 94 C899 94 994 223 994 397 C994 613 836 753 608 753 C318 753 87 522 87 240 C87 21 245 -129 464 -129 L464 -129 Z M399 287 C399 372 467 447 550 447 C617 447 661 402 661 334 C661 247 593 167 512 167 C445 167 399 215 399 287 L399 287 Z " />
<glyph glyph-name="A" unicode="A" horiz-adv-x="618" d="M6 0 L112 0 L211 186 L486 186 L514 0 L610 0 L504 695 L381 695 L6 0 Z M255 269 L426 591 L474 269 L255 269 Z " />
<glyph glyph-name="B" unicode="B" horiz-adv-x="607" d="M73 0 L352 0 C506 0 608 87 608 212 C608 283 573 337 509 365 C590 394 646 457 646 546 C646 634 589 695 477 695 L208 695 L73 0 Z M189 82 L235 318 L391 318 C465 318 507 276 507 210 C507 132 448 82 350 82 L189 82 Z M251 401 L293 613 L437 613 C497 613 540 583 540 522 C540 451 481 401 403 401 L251 401 Z " />
<glyph glyph-name="C" unicode="C" horiz-adv-x="684" d="M682 106 L611 178 C564 120 497 84 411 84 C285 84 202 173 202 301 C202 466 316 611 480 611 C571 611 631 571 665 521 L740 595 C694 663 602 707 491 707 C262 707 97 515 97 292 C97 113 220 -12 401 -12 C521 -12 614 30 682 106 L682 106 Z " />
<glyph glyph-name="D" unicode="D" horiz-adv-x="702" d="M73 0 L334 0 C566 0 736 175 736 395 C736 576 619 695 441 695 L208 695 L73 0 Z M192 90 L292 605 L428 605 C553 605 630 525 630 393 C630 226 504 90 343 90 L192 90 Z " />
<glyph glyph-name="E" unicode="E" horiz-adv-x="549" d="M73 0 L511 0 L529 89 L193 89 L236 314 L532 314 L550 403 L253 403 L293 606 L623 606 L640 695 L208 695 L73 0 Z " />
<glyph glyph-name="F" unicode="F" horiz-adv-x="528" d="M73 0 L175 0 L235 310 L528 310 L546 398 L252 398 L293 606 L620 606 L637 695 L208 695 L73 0 Z " />
<glyph glyph-name="G" unicode="G" horiz-adv-x="752" d="M676 509 L757 590 C707 663 608 707 490 707 C266 707 97 524 97 298 C97 111 221 -12 404 -12 C608 -12 749 118 787 364 L447 364 L432 285 L670 285 C625 152 536 80 418 80 C287 80 201 169 201 305 C201 474 326 611 481 611 C578 611 645 569 676 509 L676 509 Z " />
<glyph glyph-name="H" unicode="H" horiz-adv-x="670" d="M493 0 L594 0 L729 695 L628 695 L571 404 L253 404 L310 695 L208 695 L73 0 L175 0 L236 313 L554 313 L493 0 Z " />
<glyph glyph-name="I" unicode="I" horiz-adv-x="250" d="M73 0 L175 0 L310 695 L208 695 L73 0 Z " />
<glyph glyph-name="J" unicode="J" horiz-adv-x="327" d="M17 0 L76 0 C192 0 269 62 292 179 L391 695 L290 695 L193 194 C181 130 138 90 76 90 L34 90 L17 0 Z " />
<glyph glyph-name="K" unicode="K" horiz-adv-x="607" d="M500 0 L612 0 L346 359 L724 695 L596 695 L251 391 L310 695 L208 695 L73 0 L175 0 L241 341 L500 0 Z " />
<glyph glyph-name="L" unicode="L" horiz-adv-x="520" d="M73 0 L506 0 L524 91 L193 91 L310 695 L208 695 L73 0 Z " />
<glyph glyph-name="M" unicode="M" horiz-adv-x="820" d="M371 27 L456 27 L741 548 L670 0 L764 0 L852 695 L734 695 L435 151 L348 695 L235 695 L53 0 L150 0 L291 544 L371 27 Z " />
<glyph glyph-name="N" unicode="N" horiz-adv-x="671" d="M511 0 L595 0 L730 695 L629 695 L528 175 L293 695 L208 695 L73 0 L174 0 L275 516 L511 0 Z " />
<glyph glyph-name="O" unicode="O" horiz-adv-x="769" d="M407 -12 C626 -12 803 168 803 393 C803 581 678 707 493 707 C272 707 97 523 97 303 C97 118 222 -12 407 -12 L407 -12 Z M202 310 C202 473 327 611 485 611 C614 611 698 521 698 387 C698 223 573 84 414 84 C286 84 202 174 202 310 L202 310 Z " />
<glyph glyph-name="P" unicode="P" horiz-adv-x="583" d="M73 0 L175 0 L230 282 L393 282 C548 282 657 378 657 513 C657 625 582 695 456 695 L208 695 L73 0 Z M247 372 L293 606 L437 606 C511 606 552 568 552 502 C552 426 492 372 403 372 L247 372 Z " />
<glyph glyph-name="Q" unicode="Q" horiz-adv-x="789" d="M656 -159 L730 -85 L600 39 C721 108 803 240 803 393 C803 581 678 707 493 707 C272 707 97 523 97 303 C97 118 222 -12 407 -12 C436 -12 465 -9 493 -3 L656 -159 Z M202 310 C202 473 327 611 485 611 C614 611 698 521 698 387 C698 223 573 84 414 84 C286 84 202 174 202 310 L202 310 Z " />
<glyph glyph-name="R" unicode="R" horiz-adv-x="596" d="M73 0 L175 0 L234 304 L292 304 L457 0 L564 0 L392 304 L394 304 C558 304 657 400 657 520 C657 626 587 695 456 695 L208 695 L73 0 Z M248 377 L293 606 L441 606 C515 606 556 568 556 505 C556 432 496 377 402 377 L248 377 Z " />
<glyph glyph-name="S" unicode="S" horiz-adv-x="553" d="M297 -12 C453 -12 553 72 553 201 C553 418 262 381 262 518 C262 579 314 619 392 619 C460 619 515 589 547 544 L618 614 C579 663 502 707 401 707 C255 707 157 624 157 505 C157 302 448 341 448 188 C448 120 397 77 313 77 C228 77 168 113 124 172 L45 103 C91 35 175 -12 297 -12 L297 -12 Z " />
<glyph glyph-name="T" unicode="T" horiz-adv-x="546" d="M221 0 L322 0 L439 604 L649 604 L667 695 L147 695 L129 604 L338 604 L221 0 Z " />
<glyph glyph-name="U" unicode="U" horiz-adv-x="655" d="M338 -12 C495 -12 604 83 636 251 L722 695 L621 695 L535 251 C514 143 447 84 352 84 C251 84 198 154 221 271 L303 695 L201 695 L119 271 C88 108 170 -12 338 -12 L338 -12 Z " />
<glyph glyph-name="V" unicode="V" horiz-adv-x="624" d="M244 0 L368 0 L747 695 L636 695 L326 116 L235 695 L134 695 L244 0 Z " />
<glyph glyph-name="W" unicode="W" horiz-adv-x="868" d="M175 0 L291 0 L542 554 L575 0 L691 0 L986 695 L883 695 L652 122 L620 695 L511 695 L256 122 L248 695 L149 695 L175 0 Z " />
<glyph glyph-name="X" unicode="X" horiz-adv-x="622" d="M510 0 L620 0 L438 350 L743 695 L619 695 L395 434 L259 695 L149 695 L321 363 L-2 0 L122 0 L365 279 L510 0 Z " />
<glyph glyph-name="Y" unicode="Y" horiz-adv-x="609" d="M252 0 L354 0 L409 284 L739 695 L618 695 L372 373 L240 695 L137 695 L308 287 L252 0 Z " />
<glyph glyph-name="Z" unicode="Z" horiz-adv-x="544" d="M24 0 L519 0 L535 91 L205 91 L648 695 L168 695 L151 606 L468 606 L24 0 Z " />
<glyph glyph-name="bracketleft" unicode="&#x5b;" horiz-adv-x="298" d="M50 -111 L251 -111 L268 -26 L162 -26 L303 698 L408 698 L425 783 L224 783 L50 -111 Z " />
<glyph glyph-name="backslash" unicode="&#x5c;" horiz-adv-x="343" d="M210 -50 L300 -50 L258 711 L169 711 L210 -50 Z " />
<glyph glyph-name="bracketright" unicode="&#x5d;" horiz-adv-x="297" d="M1 -111 L202 -111 L376 783 L175 783 L158 698 L264 698 L123 -26 L18 -26 L1 -111 Z " />
<glyph glyph-name="asciicircum" unicode="&#x5e;" horiz-adv-x="477" d="M106 371 L213 371 L352 557 L421 371 L513 371 L395 666 L332 666 L106 371 Z " />
<glyph glyph-name="underscore" unicode="&#x5f;" horiz-adv-x="507" d="M2 -106 L460 -106 L476 -23 L18 -23 L2 -106 Z " />
<glyph glyph-name="grave" unicode="&#x60;" horiz-adv-x="298" d="M375 588 L416 648 L197 791 L153 722 L375 588 Z " />
<glyph glyph-name="a" unicode="a" horiz-adv-x="629" d="M289 -12 C369 -12 436 26 485 82 L469 0 L563 0 L665 527 L571 527 L553 433 C525 499 466 538 379 538 C209 538 78 389 78 219 C78 81 163 -12 289 -12 L289 -12 Z M181 233 C181 348 268 449 380 449 C466 449 521 389 521 298 C521 181 435 78 324 78 C237 78 181 143 181 233 L181 233 Z " />
<glyph glyph-name="b" unicode="b" horiz-adv-x="629" d="M347 -12 C524 -12 650 142 650 309 C650 444 567 538 441 538 C366 538 302 506 253 457 L305 731 L204 731 L63 0 L157 0 L174 89 C205 24 266 -12 347 -12 L347 -12 Z M207 229 C207 342 290 449 404 449 C488 449 547 386 547 294 C547 185 466 78 348 78 C263 78 207 138 207 229 L207 229 Z " />
<glyph glyph-name="c" unicode="c" horiz-adv-x="546" d="M320 -12 C417 -12 490 23 540 85 L475 150 C441 109 394 79 332 79 C238 79 181 148 181 235 C181 347 265 448 378 448 C440 448 487 413 512 377 L583 448 C546 495 477 538 384 538 C215 538 79 393 79 223 C79 85 173 -12 320 -12 L320 -12 Z " />
<glyph glyph-name="d" unicode="d" horiz-adv-x="629" d="M289 -12 C369 -12 436 25 485 81 L469 0 L563 0 L705 731 L604 731 L549 444 C518 504 461 538 379 538 C209 538 78 389 78 219 C78 81 163 -12 289 -12 L289 -12 Z M181 233 C181 348 268 449 380 449 C466 449 521 389 521 298 C521 181 435 78 324 78 C237 78 181 143 181 233 L181 233 Z " />
<glyph glyph-name="e" unicode="e" horiz-adv-x="579" d="M313 -12 C419 -12 485 23 546 86 L479 153 C434 99 390 77 326 77 C241 77 179 135 179 228 L179 229 L586 229 C595 254 603 299 603 328 C603 445 519 538 386 538 C215 538 78 394 78 220 C78 86 174 -12 313 -12 L313 -12 Z M192 308 C219 392 290 456 381 456 C459 456 506 406 506 326 C506 321 506 315 505 308 L192 308 Z " />
<glyph glyph-name="f" unicode="f" horiz-adv-x="343" d="M209 548 L205 527 L116 527 L99 440 L188 440 L103 0 L204 0 L290 440 L417 440 L434 527 L307 527 L312 553 C325 623 367 656 426 656 L461 656 L477 737 L434 737 C306 737 232 669 209 548 L209 548 Z " />
<glyph glyph-name="g" unicode="g" horiz-adv-x="627" d="M288 -12 C369 -12 436 27 485 84 L481 63 C459 -46 387 -103 278 -103 C201 -103 144 -76 105 -19 L39 -85 C81 -151 169 -191 272 -191 C442 -191 542 -103 577 71 L665 527 L571 527 L553 432 C524 499 465 538 378 538 C208 538 77 389 77 219 C77 81 161 -12 288 -12 L288 -12 Z M179 233 C179 348 267 449 379 449 C465 449 519 389 519 298 C519 181 433 78 323 78 C236 78 179 143 179 233 L179 233 Z " />
<glyph glyph-name="h" unicode="h" horiz-adv-x="595" d="M63 0 L164 0 L224 310 L224 309 C238 391 305 448 385 448 C465 448 511 398 493 303 L435 0 L536 0 L598 320 C624 455 552 539 430 539 C359 539 297 509 254 465 L306 731 L205 731 L63 0 Z " />
<glyph glyph-name="i" unicode="i" horiz-adv-x="235" d="M63 0 L164 0 L266 527 L165 527 L63 0 Z M171 683 C171 646 199 620 239 620 C285 620 323 658 323 702 C323 739 295 766 256 766 C209 766 171 727 171 683 L171 683 Z " />
<glyph glyph-name="j" unicode="j" horiz-adv-x="237" d="M-80 -183 L-57 -183 C55 -183 143 -115 168 13 L268 527 L167 527 L67 11 C54 -55 8 -95 -47 -95 L-63 -95 L-80 -183 Z M175 682 C175 645 203 619 243 619 C289 619 327 657 327 701 C327 738 299 765 260 765 C213 765 175 726 175 682 L175 682 Z " />
<glyph glyph-name="k" unicode="k" horiz-adv-x="506" d="M63 0 L164 0 L215 264 L400 0 L509 0 L321 279 L605 527 L480 527 L225 312 L306 731 L205 731 L63 0 Z " />
<glyph glyph-name="l" unicode="l" horiz-adv-x="229" d="M63 0 L164 0 L306 731 L205 731 L63 0 Z " />
<glyph glyph-name="m" unicode="m" horiz-adv-x="929" d="M828 308 L769 0 L870 0 L933 325 C959 458 886 538 773 538 C692 538 619 491 577 428 C560 498 505 538 422 538 C353 538 290 505 247 457 L261 527 L165 527 L63 0 L164 0 L224 309 L224 308 C238 390 305 448 376 448 C446 448 493 402 475 308 L416 0 L517 0 L576 308 L577 307 C592 390 658 448 728 448 C799 448 846 402 828 308 L828 308 Z " />
<glyph glyph-name="n" unicode="n" horiz-adv-x="595" d="M493 302 L435 0 L536 0 L598 320 C624 454 552 538 430 538 C356 538 291 504 247 457 L261 527 L165 527 L63 0 L164 0 L224 309 L224 308 C238 390 305 448 385 448 C465 448 511 398 493 302 L493 302 Z " />
<glyph glyph-name="o" unicode="o" horiz-adv-x="610" d="M318 -12 C499 -12 631 138 631 304 C631 451 528 538 392 538 C215 538 78 392 78 222 C78 78 178 -12 318 -12 L318 -12 Z M182 234 C182 344 266 448 381 448 C470 448 528 386 528 295 C528 185 446 79 330 79 C240 79 182 142 182 234 L182 234 Z " />
<glyph glyph-name="p" unicode="p" horiz-adv-x="629" d="M348 -12 C515 -12 650 133 650 309 C650 443 567 538 440 538 C362 538 294 503 244 447 L259 527 L165 527 L28 -179 L129 -179 L179 79 C212 21 272 -12 348 -12 L348 -12 Z M207 229 C207 348 295 449 402 449 C489 449 547 386 547 294 C547 177 458 78 349 78 C264 78 207 138 207 229 L207 229 Z " />
<glyph glyph-name="q" unicode="q" horiz-adv-x="629" d="M289 -12 C365 -12 428 21 476 72 L427 -179 L528 -179 L665 527 L571 527 L554 433 C525 499 466 538 379 538 C209 538 78 389 78 219 C78 81 163 -12 289 -12 L289 -12 Z M181 233 C181 348 268 449 380 449 C466 449 521 389 521 298 C521 181 435 78 324 78 C237 78 181 143 181 233 L181 233 Z " />
<glyph glyph-name="r" unicode="r" horiz-adv-x="334" d="M63 0 L164 0 L223 308 C243 388 309 443 404 444 L422 539 C352 539 289 502 246 451 L261 527 L165 527 L63 0 Z " />
<glyph glyph-name="s" unicode="s" horiz-adv-x="471" d="M256 -12 C379 -12 476 53 476 158 C476 327 221 289 221 388 C221 429 267 456 323 456 C369 456 410 439 443 403 L510 469 C474 510 410 538 326 538 C202 538 117 473 117 378 C117 214 372 255 372 148 C372 101 316 73 265 73 C210 73 159 91 111 146 L37 72 C81 25 152 -12 256 -12 L256 -12 Z " />
<glyph glyph-name="t" unicode="t" horiz-adv-x="369" d="M290 0 L357 0 L375 89 L327 89 C260 89 227 128 242 204 L288 440 L436 440 L453 527 L308 527 L335 663 L237 663 L221 578 C214 544 196 527 163 527 L112 527 L95 440 L187 440 L139 192 C117 74 172 0 290 0 L290 0 Z " />
<glyph glyph-name="u" unicode="u" horiz-adv-x="586" d="M258 -12 C332 -12 396 23 439 73 L425 0 L521 0 L623 527 L522 527 L460 210 C443 132 379 79 304 79 C229 79 182 128 201 224 L259 527 L158 527 L96 207 C70 72 142 -12 258 -12 L258 -12 Z " />
<glyph glyph-name="v" unicode="v" horiz-adv-x="535" d="M208 0 L324 0 L629 527 L517 527 L283 94 L208 527 L107 527 L208 0 Z " />
<glyph glyph-name="w" unicode="w" horiz-adv-x="766" d="M148 0 L266 0 L462 416 L498 0 L615 0 L855 527 L750 527 L569 98 L533 527 L425 527 L229 97 L207 527 L111 527 L148 0 Z " />
<glyph glyph-name="x" unicode="x" horiz-adv-x="517" d="M411 0 L516 0 L366 264 L612 527 L494 527 L324 338 L217 527 L111 527 L254 275 L-5 0 L113 0 L298 199 L411 0 Z " />
<glyph glyph-name="y" unicode="y" horiz-adv-x="536" d="M208 0 L226 0 L119 -179 L220 -179 L629 527 L517 527 L283 94 L208 527 L107 527 L208 0 Z " />
<glyph glyph-name="z" unicode="z" horiz-adv-x="512" d="M23 0 L486 0 L502 82 L212 82 L585 527 L141 527 L125 445 L399 445 L23 0 Z " />
<glyph glyph-name="braceleft" unicode="&#x7b;" horiz-adv-x="311" d="M235 -111 L262 -111 L278 -26 L265 -26 C220 -26 198 7 209 63 L239 215 C253 291 219 320 187 335 C229 353 270 381 285 455 L316 614 C327 669 360 697 405 697 L419 697 L435 783 L409 783 C304 783 241 720 221 615 L189 454 C178 399 142 379 105 379 L86 379 L69 292 L88 292 C122 292 155 278 143 217 L113 62 C92 -48 142 -111 235 -111 L235 -111 Z " />
<glyph glyph-name="bar" unicode="&#x7c;" horiz-adv-x="223" d="M54 -89 L131 -89 L288 717 L211 717 L54 -89 Z " />
<glyph glyph-name="braceright" unicode="&#x7d;" horiz-adv-x="310" d="M3 -111 L30 -111 C134 -111 198 -49 218 57 L249 217 C261 274 299 292 334 292 L353 292 L370 379 L351 379 C320 379 283 391 296 454 L326 609 C347 718 296 783 204 783 L177 783 L160 697 L174 697 C219 697 241 664 230 608 L201 455 C187 379 220 353 251 335 C212 320 169 294 154 215 L123 58 C112 0 78 -26 34 -26 L20 -26 L3 -111 Z " />
<glyph glyph-name="asciitilde" unicode="&#x7e;" horiz-adv-x="511" d="M403 242 C454 242 494 267 524 306 L482 365 C462 339 433 325 405 325 C335 325 312 379 225 379 C174 379 135 354 105 316 L147 256 C167 282 195 296 223 296 C293 296 316 242 403 242 L403 242 Z " />
<glyph glyph-name="uni00A0" unicode="&#xa0;" horiz-adv-x="211" d="" />
<glyph glyph-name="exclamdown" unicode="&#xa1;" horiz-adv-x="236" d="M23 -179 L139 -179 L219 308 L142 308 L23 -179 Z M143 462 C143 429 165 406 201 406 C242 406 273 439 273 478 C273 512 249 534 216 534 C174 534 143 500 143 462 L143 462 Z " />
<glyph glyph-name="cent" unicode="&#xa2;" horiz-adv-x="612" d="M280 0 L363 0 L380 90 C463 101 532 152 572 234 L491 268 C463 208 414 178 356 178 C283 178 237 231 237 306 C237 400 308 484 403 484 C464 484 504 448 510 393 L602 426 C595 499 539 553 461 569 L478 661 L396 661 L378 571 C242 552 140 433 140 295 C140 189 201 111 298 92 L280 0 Z " />
<glyph glyph-name="sterling" unicode="&#xa3;" horiz-adv-x="612" d="M127 0 L536 0 L555 93 L252 93 L292 297 L502 297 L520 390 L310 390 L329 486 C344 564 397 614 474 614 C533 614 567 586 588 555 L665 633 C632 673 569 707 483 707 C342 707 250 626 223 488 L204 390 L125 390 L107 297 L185 297 L127 0 Z " />
<glyph glyph-name="currency" unicode="&#xa4;" horiz-adv-x="612" d="M336 112 C385 112 430 127 468 151 L513 95 L571 145 L527 202 C566 248 590 307 590 366 C590 398 583 427 571 453 L635 507 L587 567 L522 512 C491 536 451 549 403 549 C354 549 309 534 271 510 L226 567 L167 517 L212 460 C173 414 149 354 149 295 C149 264 156 235 168 209 L104 155 L151 95 L217 149 C247 126 288 112 336 112 L336 112 Z M239 307 C239 385 302 467 390 467 C456 467 499 421 499 355 C499 277 437 195 348 195 C283 195 239 241 239 307 L239 307 Z " />
<glyph glyph-name="yen" unicode="&#xa5;" horiz-adv-x="612" d="M140 101 L272 101 L253 0 L354 0 L374 101 L505 101 L519 171 L387 171 L401 243 L533 243 L547 314 L428 314 L716 695 L594 695 L377 386 L271 695 L163 695 L302 314 L182 314 L168 243 L300 243 L286 171 L153 171 L140 101 Z " />
<glyph glyph-name="brokenbar" unicode="&#xa6;" horiz-adv-x="223" d="M148 396 L225 396 L288 717 L211 717 L148 396 Z M54 -89 L131 -89 L194 232 L117 232 L54 -89 Z " />
<glyph glyph-name="section" unicode="&#xa7;" horiz-adv-x="483" d="M224 -118 C347 -118 442 -54 442 51 C442 98 423 130 396 153 C462 179 503 230 503 300 C503 472 261 432 261 547 C261 595 303 626 361 626 C408 626 451 608 482 566 L547 631 C512 673 456 700 366 700 C244 700 162 636 162 541 C162 492 183 461 213 438 C145 413 101 359 101 290 C101 127 340 159 340 43 C340 -11 290 -42 230 -42 C171 -42 119 -11 84 39 L19 -26 C61 -83 128 -118 224 -118 L224 -118 Z M195 304 C195 356 242 391 301 392 C355 368 404 345 404 289 C404 242 370 209 321 197 C258 225 195 245 195 304 L195 304 Z " />
<glyph glyph-name="dieresis" unicode="&#xa8;" horiz-adv-x="389" d="M428 621 C472 621 510 658 510 698 C510 738 484 762 447 762 C403 762 365 726 365 686 C365 646 391 621 428 621 L428 621 Z M161 686 C161 646 187 621 224 621 C268 621 305 658 305 698 C305 738 280 762 243 762 C199 762 161 726 161 686 L161 686 Z " />
<glyph glyph-name="copyright" unicode="&#xa9;" horiz-adv-x="745" d="M394 -12 C602 -12 775 164 775 376 C775 551 653 674 478 674 C266 674 96 495 96 287 C96 114 217 -12 394 -12 L394 -12 Z M166 293 C166 460 304 607 472 607 C609 607 705 508 705 370 C705 199 564 54 399 54 C261 54 166 155 166 293 L166 293 Z M251 303 C251 207 315 139 413 139 C482 139 539 167 574 208 L523 258 C499 232 467 212 425 212 C365 212 331 252 331 311 C331 385 385 449 460 449 C503 449 533 428 548 405 L602 459 C576 494 523 522 464 522 C346 522 251 420 251 303 L251 303 Z " />
<glyph glyph-name="ordfeminine" unicode="&#xaa;" horiz-adv-x="385" d="M278 518 C322 518 360 539 388 572 L379 526 L434 526 L491 818 L436 818 L425 762 C409 800 372 824 321 824 C227 824 155 736 155 646 C155 568 208 518 278 518 L278 518 Z M229 658 C229 714 274 759 322 759 C367 759 393 728 393 687 C393 636 354 585 299 585 C256 585 229 615 229 658 L229 658 Z " />
<glyph glyph-name="guillemotleft" unicode="&#xab;" horiz-adv-x="462" d="M331 80 L420 80 L346 241 L494 416 L396 416 L255 248 L331 80 Z M79 248 L155 80 L244 80 L170 242 L318 416 L221 416 L79 248 Z " />
<glyph glyph-name="logicalnot" unicode="&#xac;" horiz-adv-x="509" d="M103 296 L416 296 L385 134 L480 134 L528 382 L120 382 L103 296 Z " />
<glyph glyph-name="registered" unicode="&#xae;" horiz-adv-x="492" d="M316 286 C445 286 551 393 551 524 C551 632 476 707 366 707 C235 707 131 598 131 470 C131 364 206 286 316 286 L316 286 Z M177 473 C177 575 261 663 362 663 C446 663 505 603 505 520 C505 418 422 329 320 329 C235 329 177 392 177 473 L177 473 Z M254 392 L294 392 L312 485 L325 485 L366 392 L409 392 L363 485 C404 488 437 515 437 555 C437 590 410 612 371 612 L296 612 L254 392 Z M319 518 L331 579 L363 579 C386 579 396 569 396 551 C396 531 380 518 355 518 L319 518 Z " />
<glyph glyph-name="macron" unicode="&#xaf;" horiz-adv-x="326" d="M155 652 L452 652 L467 728 L170 728 L155 652 Z " />
<glyph glyph-name="degree" unicode="&#xb0;" horiz-adv-x="365" d="M271 403 C366 403 441 479 441 569 C441 649 381 699 305 699 C213 699 136 626 136 534 C136 455 193 403 271 403 L271 403 Z M205 540 C205 594 249 636 300 636 C340 636 372 607 372 562 C372 509 329 466 277 466 C236 466 205 496 205 540 L205 540 Z " />
<glyph glyph-name="plusminus" unicode="&#xb1;" horiz-adv-x="469" d="M220 167 L310 167 L344 343 L504 343 L521 429 L361 429 L395 603 L305 603 L271 429 L111 429 L94 343 L254 343 L220 167 Z M34 32 L444 32 L461 117 L51 117 L34 32 Z " />
<glyph glyph-name="uni00B2" unicode="&#xb2;" horiz-adv-x="333" d="M114 347 L350 347 L360 402 L219 402 L305 477 C363 526 395 563 395 615 C395 667 354 700 292 700 C231 700 188 672 160 643 L203 600 C225 624 251 643 281 643 C308 643 326 627 326 603 C326 571 298 543 254 505 L122 390 L114 347 Z " />
<glyph glyph-name="uni00B3" unicode="&#xb3;" horiz-adv-x="316" d="M230 341 C306 341 366 392 366 459 C366 509 335 544 286 552 L388 642 L398 695 L182 695 L172 642 L315 642 L213 554 L205 510 L244 510 C279 510 299 491 299 461 C299 426 271 398 231 398 C193 398 169 413 150 432 L105 388 C128 361 166 341 230 341 L230 341 Z " />
<glyph glyph-name="acute" unicode="&#xb4;" horiz-adv-x="284" d="M187 595 L428 723 L390 792 L151 655 L187 595 Z " />
<glyph glyph-name="uni00B5" unicode="&#xb5;" horiz-adv-x="3093" d="M457 540 C379 540 323 512 286 464 L286 527 L151 527 L151 -175 L286 -175 L286 62 C323 14 379 -17 457 -17 C598 -17 715 105 715 263 C715 419 598 540 457 540 L457 540 Z M286 263 C286 352 349 412 431 412 C515 412 577 352 577 263 C577 175 515 115 431 115 C349 115 286 175 286 263 L286 263 Z M745 263 C745 419 861 540 999 540 C1075 540 1133 512 1171 464 L1171 527 L1306 527 L1306 81 L1222 -1 L1171 -1 L1171 62 C1133 15 1075 -17 999 -17 C861 -17 745 105 745 263 L745 263 Z M880 263 C880 175 942 115 1024 115 C1109 115 1171 175 1171 263 C1171 352 1109 412 1024 412 C942 412 880 352 880 263 L880 263 Z M1293 -1 L1687 396 L1385 396 L1385 527 L2001 527 L1611 127 L1913 127 C1932 75 1965 30 2007 -1 L1293 -1 Z M1943 263 C1943 105 2056 -17 2230 -17 C2332 -17 2411 26 2460 97 L2351 162 C2327 130 2286 108 2233 108 C2163 108 2105 138 2086 206 L2480 206 C2484 224 2485 243 2485 263 C2485 419 2377 540 2221 540 C2057 540 1943 419 1943 263 L1943 263 Z M2084 311 C2099 381 2149 419 2221 419 C2277 419 2334 388 2351 311 L2084 311 Z M2533 330 C2550 304 2581 286 2623 286 C2676 286 2711 313 2711 353 C2711 444 2587 419 2587 468 C2587 484 2602 495 2626 495 C2646 495 2663 484 2676 465 L2706 497 C2692 518 2662 532 2628 532 C2576 532 2543 505 2543 465 C2543 381 2667 407 2667 352 C2667 335 2651 322 2625 322 C2598 322 2578 338 2563 361 L2533 330 Z M2745 291 L2787 291 L2799 463 L2854 300 L2891 300 L2947 463 L2959 291 L2999 291 L2983 525 L2933 525 L2873 350 L2812 525 L2763 525 L2745 291 Z " />
<glyph glyph-name="paragraph" unicode="&#xb6;" horiz-adv-x="607" d="M314 282 L378 282 L441 609 L485 609 L348 -100 L404 -100 L542 609 L587 609 L449 -100 L505 -100 L660 695 L374 695 C220 695 114 588 114 459 C114 350 191 282 314 282 L314 282 Z " />
<glyph glyph-name="periodcentered" unicode="&#xb7;" horiz-adv-x="224" d="M167 262 C208 262 240 297 240 335 C240 368 216 391 182 391 C141 391 109 357 109 319 C109 286 133 262 167 262 L167 262 Z " />
<glyph glyph-name="cedilla" unicode="&#xb8;" horiz-adv-x="258" d="M101 -241 C176 -241 230 -194 230 -135 C230 -95 203 -61 164 -52 L200 12 L137 12 L88 -70 L95 -81 L105 -81 C120 -81 131 -86 140 -93 L140 -94 L140 -93 C150 -103 156 -116 156 -131 C156 -161 131 -184 93 -184 C61 -184 43 -168 34 -151 L-8 -192 C9 -218 48 -241 101 -241 L101 -241 Z " />
<glyph glyph-name="uni00B9" unicode="&#xb9;" horiz-adv-x="275" d="M115 347 L304 347 L315 406 L264 406 L320 695 L251 695 L244 663 C242 651 234 645 223 645 L175 645 L164 587 L229 587 L194 406 L127 406 L115 347 Z " />
<glyph glyph-name="ordmasculine" unicode="&#xba;" horiz-adv-x="362" d="M291 518 C390 518 465 599 465 691 C465 774 409 826 329 826 C231 826 155 744 155 652 C155 570 211 518 291 518 L291 518 Z M226 660 C226 712 267 759 321 759 C365 759 394 728 394 683 C394 631 354 584 300 584 C255 584 226 615 226 660 L226 660 Z " />
<glyph glyph-name="guillemotright" unicode="&#xbb;" horiz-adv-x="462" d="M238 80 L335 80 L477 248 L401 416 L312 416 L386 256 L238 80 Z M62 80 L160 80 L302 248 L226 416 L136 416 L210 255 L62 80 Z " />
<glyph glyph-name="onequarter" unicode="&#xbc;" horiz-adv-x="644" d="M102 347 L291 347 L302 406 L251 406 L307 695 L238 695 L231 663 C229 651 221 645 210 645 L162 645 L151 587 L216 587 L181 406 L114 406 L102 347 Z M117 0 L192 0 L685 695 L609 695 L117 0 Z M383 75 L541 75 L526 0 L591 0 L606 75 L643 75 L652 124 L615 124 L659 348 L594 348 L392 124 L383 75 Z M448 124 L579 269 L551 124 L448 124 Z " />
<glyph glyph-name="onehalf" unicode="&#xbd;" horiz-adv-x="679" d="M102 347 L291 347 L302 406 L251 406 L307 695 L238 695 L231 663 C229 651 221 645 210 645 L162 645 L151 587 L216 587 L181 406 L114 406 L102 347 Z M114 0 L189 0 L682 695 L606 695 L114 0 Z M433 0 L669 0 L679 55 L538 55 L624 130 C682 179 714 216 714 268 C714 320 673 353 611 353 C550 353 507 325 479 296 L522 253 C544 277 570 296 600 296 C627 296 645 280 645 256 C645 224 617 196 573 158 L441 43 L433 0 Z " />
<glyph glyph-name="threequarters" unicode="&#xbe;" horiz-adv-x="658" d="M223 341 C299 341 359 392 359 459 C359 509 328 544 279 552 L381 642 L391 695 L175 695 L165 642 L308 642 L206 554 L198 510 L237 510 C272 510 292 491 292 461 C292 426 264 398 224 398 C186 398 162 413 143 432 L98 388 C121 361 159 341 223 341 L223 341 Z M134 0 L209 0 L702 695 L626 695 L134 0 Z M393 75 L551 75 L536 0 L601 0 L616 75 L653 75 L662 124 L625 124 L669 348 L604 348 L402 124 L393 75 Z M458 124 L589 269 L561 124 L458 124 Z " />
<glyph glyph-name="questiondown" unicode="&#xbf;" horiz-adv-x="446" d="M185 -190 C290 -190 356 -136 396 -92 L331 -27 C301 -61 261 -95 203 -95 C154 -95 122 -69 122 -20 C122 93 311 112 347 273 L354 307 L263 307 L259 286 C230 144 13 122 13 -43 C13 -137 85 -190 185 -190 L185 -190 Z M269 461 C269 428 292 405 326 405 C367 405 398 439 398 478 C398 511 375 534 341 534 C300 534 269 500 269 461 L269 461 Z " />
<glyph glyph-name="Agrave" unicode="&#xc0;" horiz-adv-x="634" d="M6 0 L112 0 L211 186 L486 186 L514 0 L610 0 L504 695 L381 695 L6 0 Z M255 269 L426 591 L474 269 L255 269 Z M318 851 L587 760 L613 829 L346 930 L318 851 Z " />
<glyph glyph-name="Aacute" unicode="&#xc1;" horiz-adv-x="634" d="M6 0 L112 0 L211 186 L486 186 L514 0 L610 0 L504 695 L381 695 L6 0 Z M255 269 L426 591 L474 269 L255 269 Z M334 831 L356 762 L632 849 L608 928 L334 831 Z " />
<glyph glyph-name="Acircumflex" unicode="&#xc2;" horiz-adv-x="634" d="M6 0 L112 0 L211 186 L486 186 L514 0 L610 0 L504 695 L381 695 L6 0 Z M255 269 L426 591 L474 269 L255 269 Z M285 766 L384 766 L483 853 L546 766 L632 766 L531 918 L449 918 L285 766 Z " />
<glyph glyph-name="Atilde" unicode="&#xc3;" horiz-adv-x="634" d="M6 0 L112 0 L211 186 L486 186 L514 0 L610 0 L504 695 L381 695 L6 0 Z M255 269 L426 591 L474 269 L255 269 Z M291 803 L356 773 C367 803 384 820 412 820 C462 820 478 770 544 770 C606 770 646 815 665 870 L600 900 C589 870 572 854 543 854 C492 854 476 904 412 904 C350 904 310 857 291 803 L291 803 Z " />
<glyph glyph-name="Adieresis" unicode="&#xc4;" horiz-adv-x="634" d="M6 0 L112 0 L211 186 L486 186 L514 0 L610 0 L504 695 L381 695 L6 0 Z M255 269 L426 591 L474 269 L255 269 Z M294 834 C294 794 321 770 358 770 C402 770 440 806 440 850 C440 888 415 914 376 914 C331 914 294 879 294 834 L294 834 Z M504 834 C504 794 531 770 568 770 C612 770 650 806 650 850 C650 888 626 914 587 914 C541 914 504 879 504 834 L504 834 Z " />
<glyph glyph-name="Aring" unicode="&#xc5;" horiz-adv-x="634" d="M6 0 L112 0 L211 186 L486 186 L514 0 L610 0 L504 695 L381 695 L6 0 Z M255 269 L426 591 L474 269 L255 269 Z M358 807 C358 752 397 711 457 711 C526 711 583 765 583 831 C583 886 544 927 484 927 C415 927 358 873 358 807 L358 807 Z M420 813 C420 844 446 868 477 868 C503 868 520 850 520 825 C520 793 493 770 463 770 C436 770 420 788 420 813 L420 813 Z " />
<glyph glyph-name="AE" unicode="&#xc6;" horiz-adv-x="908" d="M-14 0 L97 0 L226 182 L468 182 L433 0 L871 0 L888 89 L553 89 L596 314 L891 314 L909 403 L613 403 L652 606 L982 606 L999 695 L474 695 L-14 0 Z M288 269 L528 606 L551 606 L485 269 L288 269 Z " />
<glyph glyph-name="Ccedilla" unicode="&#xc7;" horiz-adv-x="685" d="M683 106 L612 178 C565 120 498 84 412 84 C286 84 203 173 203 301 C203 466 317 611 481 611 C572 611 632 571 666 521 L741 595 C695 663 603 707 492 707 C263 707 98 515 98 292 C98 130 199 12 353 -9 L316 -70 L323 -81 L333 -81 C348 -81 359 -86 368 -93 L368 -94 L368 -93 C378 -103 384 -116 384 -131 C384 -161 359 -184 321 -184 C289 -184 271 -168 262 -151 L220 -192 C237 -218 276 -241 329 -241 C404 -241 458 -194 458 -135 C458 -95 431 -61 392 -52 L415 -12 C528 -9 617 33 683 106 L683 106 Z " />
<glyph glyph-name="Egrave" unicode="&#xc8;" horiz-adv-x="564" d="M73 0 L511 0 L529 89 L193 89 L236 314 L532 314 L550 403 L253 403 L293 606 L623 606 L640 695 L208 695 L73 0 Z M299 851 L568 760 L594 829 L327 930 L299 851 Z " />
<glyph glyph-name="Eacute" unicode="&#xc9;" horiz-adv-x="564" d="M73 0 L511 0 L529 89 L193 89 L236 314 L532 314 L550 403 L253 403 L293 606 L623 606 L640 695 L208 695 L73 0 Z M301 831 L323 762 L599 849 L575 928 L301 831 Z " />
<glyph glyph-name="Ecircumflex" unicode="&#xca;" horiz-adv-x="564" d="M73 0 L511 0 L529 89 L193 89 L236 314 L532 314 L550 403 L253 403 L293 606 L623 606 L640 695 L208 695 L73 0 Z M261 766 L360 766 L459 853 L522 766 L608 766 L507 918 L425 918 L261 766 Z " />
<glyph glyph-name="Edieresis" unicode="&#xcb;" horiz-adv-x="564" d="M73 0 L511 0 L529 89 L193 89 L236 314 L532 314 L550 403 L253 403 L293 606 L623 606 L640 695 L208 695 L73 0 Z M268 834 C268 794 295 770 332 770 C376 770 414 806 414 850 C414 888 389 914 350 914 C305 914 268 879 268 834 L268 834 Z M478 834 C478 794 505 770 542 770 C586 770 624 806 624 850 C624 888 600 914 561 914 C515 914 478 879 478 834 L478 834 Z " />
<glyph glyph-name="Igrave" unicode="&#xcc;" horiz-adv-x="258" d="M73 0 L175 0 L310 695 L208 695 L73 0 Z M130 851 L399 760 L425 829 L158 930 L130 851 Z " />
<glyph glyph-name="Iacute" unicode="&#xcd;" horiz-adv-x="258" d="M73 0 L175 0 L310 695 L208 695 L73 0 Z M146 831 L168 762 L444 849 L420 928 L146 831 Z " />
<glyph glyph-name="Icircumflex" unicode="&#xce;" horiz-adv-x="258" d="M73 0 L175 0 L310 695 L208 695 L73 0 Z M97 766 L196 766 L295 853 L358 766 L444 766 L343 918 L261 918 L97 766 Z " />
<glyph glyph-name="Idieresis" unicode="&#xcf;" horiz-adv-x="258" d="M73 0 L175 0 L310 695 L208 695 L73 0 Z M106 834 C106 794 133 770 170 770 C214 770 252 806 252 850 C252 888 227 914 188 914 C143 914 106 879 106 834 L106 834 Z M316 834 C316 794 343 770 380 770 C424 770 462 806 462 850 C462 888 438 914 399 914 C353 914 316 879 316 834 L316 834 Z " />
<glyph glyph-name="Eth" unicode="&#xd0;" horiz-adv-x="729" d="M82 0 L343 0 C575 0 745 175 745 395 C745 576 628 695 450 695 L217 695 L159 394 L80 394 L66 322 L145 322 L82 0 Z M201 90 L246 322 L386 322 L399 394 L260 394 L301 605 L437 605 C562 605 639 525 639 393 C639 226 513 90 352 90 L201 90 Z " />
<glyph glyph-name="Ntilde" unicode="&#xd1;" horiz-adv-x="688" d="M511 0 L595 0 L730 695 L629 695 L528 175 L293 695 L208 695 L73 0 L174 0 L275 516 L511 0 Z M304 803 L369 773 C380 803 397 820 425 820 C475 820 491 770 557 770 C619 770 659 815 678 870 L613 900 C602 870 585 854 556 854 C505 854 489 904 425 904 C363 904 323 857 304 803 L304 803 Z " />
<glyph glyph-name="Ograve" unicode="&#xd2;" horiz-adv-x="789" d="M407 -12 C626 -12 803 168 803 393 C803 581 678 707 493 707 C272 707 97 523 97 303 C97 118 222 -12 407 -12 L407 -12 Z M202 310 C202 473 327 611 485 611 C614 611 698 521 698 387 C698 223 573 84 414 84 C286 84 202 174 202 310 L202 310 Z M395 851 L664 760 L690 829 L423 930 L395 851 Z " />
<glyph glyph-name="Oacute" unicode="&#xd3;" horiz-adv-x="789" d="M407 -12 C626 -12 803 168 803 393 C803 581 678 707 493 707 C272 707 97 523 97 303 C97 118 222 -12 407 -12 L407 -12 Z M202 310 C202 473 327 611 485 611 C614 611 698 521 698 387 C698 223 573 84 414 84 C286 84 202 174 202 310 L202 310 Z M393 831 L415 762 L691 849 L667 928 L393 831 Z " />
<glyph glyph-name="Ocircumflex" unicode="&#xd4;" horiz-adv-x="789" d="M407 -12 C626 -12 803 168 803 393 C803 581 678 707 493 707 C272 707 97 523 97 303 C97 118 222 -12 407 -12 L407 -12 Z M202 310 C202 473 327 611 485 611 C614 611 698 521 698 387 C698 223 573 84 414 84 C286 84 202 174 202 310 L202 310 Z M341 766 L440 766 L539 853 L602 766 L688 766 L587 918 L505 918 L341 766 Z " />
<glyph glyph-name="Otilde" unicode="&#xd5;" horiz-adv-x="789" d="M407 -12 C626 -12 803 168 803 393 C803 581 678 707 493 707 C272 707 97 523 97 303 C97 118 222 -12 407 -12 L407 -12 Z M202 310 C202 473 327 611 485 611 C614 611 698 521 698 387 C698 223 573 84 414 84 C286 84 202 174 202 310 L202 310 Z M344 803 L409 773 C420 803 437 820 465 820 C515 820 531 770 597 770 C659 770 699 815 718 870 L653 900 C642 870 625 854 596 854 C545 854 529 904 465 904 C403 904 363 857 344 803 L344 803 Z " />
<glyph glyph-name="Odieresis" unicode="&#xd6;" horiz-adv-x="789" d="M407 -12 C626 -12 803 168 803 393 C803 581 678 707 493 707 C272 707 97 523 97 303 C97 118 222 -12 407 -12 L407 -12 Z M202 310 C202 473 327 611 485 611 C614 611 698 521 698 387 C698 223 573 84 414 84 C286 84 202 174 202 310 L202 310 Z M357 834 C357 794 384 770 421 770 C465 770 503 806 503 850 C503 888 478 914 439 914 C394 914 357 879 357 834 L357 834 Z M567 834 C567 794 594 770 631 770 C675 770 713 806 713 850 C713 888 689 914 650 914 C604 914 567 879 567 834 L567 834 Z " />
<glyph glyph-name="multiply" unicode="&#xd7;" horiz-adv-x="475" d="M125 114 L290 255 L396 118 L462 173 L355 310 L521 452 L470 517 L304 375 L198 512 L132 457 L239 319 L73 177 L125 114 Z " />
<glyph glyph-name="Oslash" unicode="&#xd8;" horiz-adv-x="790" d="M408 -12 C627 -12 804 168 804 393 C804 463 787 524 756 574 L846 656 L798 713 L708 631 C654 679 581 707 494 707 C273 707 98 523 98 303 C98 234 116 172 147 122 L55 38 L104 -19 L196 64 C249 16 322 -12 408 -12 L408 -12 Z M203 310 C203 473 328 611 486 611 C544 611 593 593 630 560 L228 195 C212 228 203 266 203 310 L203 310 Z M273 135 L675 500 C690 468 699 430 699 387 C699 223 574 84 415 84 C357 84 309 102 273 135 L273 135 Z " />
<glyph glyph-name="Ugrave" unicode="&#xd9;" horiz-adv-x="672" d="M338 -12 C495 -12 604 83 636 251 L722 695 L621 695 L535 251 C514 143 447 84 352 84 C251 84 198 154 221 271 L303 695 L201 695 L119 271 C88 108 170 -12 338 -12 L338 -12 Z M333 851 L602 760 L628 829 L361 930 L333 851 Z " />
<glyph glyph-name="Uacute" unicode="&#xda;" horiz-adv-x="672" d="M338 -12 C495 -12 604 83 636 251 L722 695 L621 695 L535 251 C514 143 447 84 352 84 C251 84 198 154 221 271 L303 695 L201 695 L119 271 C88 108 170 -12 338 -12 L338 -12 Z M338 831 L360 762 L636 849 L612 928 L338 831 Z " />
<glyph glyph-name="Ucircumflex" unicode="&#xdb;" horiz-adv-x="672" d="M338 -12 C495 -12 604 83 636 251 L722 695 L621 695 L535 251 C514 143 447 84 352 84 C251 84 198 154 221 271 L303 695 L201 695 L119 271 C88 108 170 -12 338 -12 L338 -12 Z M290 766 L389 766 L488 853 L551 766 L637 766 L536 918 L454 918 L290 766 Z " />
<glyph glyph-name="Udieresis" unicode="&#xdc;" horiz-adv-x="672" d="M338 -12 C495 -12 604 83 636 251 L722 695 L621 695 L535 251 C514 143 447 84 352 84 C251 84 198 154 221 271 L303 695 L201 695 L119 271 C88 108 170 -12 338 -12 L338 -12 Z M306 834 C306 794 333 770 370 770 C414 770 452 806 452 850 C452 888 427 914 388 914 C343 914 306 879 306 834 L306 834 Z M516 834 C516 794 543 770 580 770 C624 770 662 806 662 850 C662 888 638 914 599 914 C553 914 516 879 516 834 L516 834 Z " />
<glyph glyph-name="Yacute" unicode="&#xdd;" horiz-adv-x="626" d="M252 0 L354 0 L409 284 L739 695 L618 695 L372 373 L240 695 L137 695 L308 287 L252 0 Z M302 831 L324 762 L600 849 L576 928 L302 831 Z " />
<glyph glyph-name="Thorn" unicode="&#xde;" horiz-adv-x="594" d="M73 0 L175 0 L203 146 L365 146 C506 146 617 230 629 367 C640 479 568 559 437 559 L284 559 L310 695 L208 695 L73 0 Z M221 236 L266 471 L418 471 C498 471 533 421 523 355 C513 285 459 236 373 236 L221 236 Z " />
<glyph glyph-name="germandbls" unicode="&#xdf;" horiz-adv-x="602" d="M356 -12 C492 -12 593 70 605 202 C613 296 565 368 497 390 C576 413 639 480 645 563 C655 663 588 742 452 742 C297 742 189 652 159 497 L63 0 L164 0 L261 502 C280 603 342 658 429 658 C500 658 544 615 540 553 C537 489 484 426 384 426 L368 344 C465 344 509 290 505 212 C501 131 444 73 358 73 C317 73 286 87 262 110 L232 27 C263 2 306 -12 356 -12 L356 -12 Z " />
<glyph glyph-name="agrave" unicode="&#xe0;" horiz-adv-x="645" d="M289 -12 C369 -12 436 26 485 82 L469 0 L563 0 L665 527 L571 527 L553 433 C525 499 466 538 379 538 C209 538 78 389 78 219 C78 81 163 -12 289 -12 L289 -12 Z M181 233 C181 348 268 449 380 449 C466 449 521 389 521 298 C521 181 435 78 324 78 C237 78 181 143 181 233 L181 233 Z M302 722 L524 588 L565 648 L346 791 L302 722 Z " />
<glyph glyph-name="aacute" unicode="&#xe1;" horiz-adv-x="645" d="M289 -12 C369 -12 436 26 485 82 L469 0 L563 0 L665 527 L571 527 L553 433 C525 499 466 538 379 538 C209 538 78 389 78 219 C78 81 163 -12 289 -12 L289 -12 Z M181 233 C181 348 268 449 380 449 C466 449 521 389 521 298 C521 181 435 78 324 78 C237 78 181 143 181 233 L181 233 Z M302 655 L338 595 L579 723 L541 792 L302 655 Z " />
<glyph glyph-name="acircumflex" unicode="&#xe2;" horiz-adv-x="645" d="M289 -12 C369 -12 436 26 485 82 L469 0 L563 0 L665 527 L571 527 L553 433 C525 499 466 538 379 538 C209 538 78 389 78 219 C78 81 163 -12 289 -12 L289 -12 Z M181 233 C181 348 268 449 380 449 C466 449 521 389 521 298 C521 181 435 78 324 78 C237 78 181 143 181 233 L181 233 Z M261 608 L355 608 L459 714 L524 608 L605 608 L508 776 L426 776 L261 608 Z " />
<glyph glyph-name="atilde" unicode="&#xe3;" horiz-adv-x="645" d="M289 -12 C369 -12 436 26 485 82 L469 0 L563 0 L665 527 L571 527 L553 433 C525 499 466 538 379 538 C209 538 78 389 78 219 C78 81 163 -12 289 -12 L289 -12 Z M181 233 C181 348 268 449 380 449 C466 449 521 389 521 298 C521 181 435 78 324 78 C237 78 181 143 181 233 L181 233 Z M262 658 L328 629 C338 659 355 675 381 675 C428 675 442 625 505 625 C565 625 606 671 624 726 L560 755 C549 726 531 709 505 709 C456 709 443 759 381 759 C321 759 281 713 262 658 L262 658 Z " />
<glyph glyph-name="adieresis" unicode="&#xe4;" horiz-adv-x="645" d="M289 -12 C369 -12 436 26 485 82 L469 0 L563 0 L665 527 L571 527 L553 433 C525 499 466 538 379 538 C209 538 78 389 78 219 C78 81 163 -12 289 -12 L289 -12 Z M181 233 C181 348 268 449 380 449 C466 449 521 389 521 298 C521 181 435 78 324 78 C237 78 181 143 181 233 L181 233 Z M270 686 C270 646 296 621 333 621 C377 621 414 658 414 698 C414 738 389 762 352 762 C308 762 270 726 270 686 L270 686 Z M474 686 C474 646 500 621 537 621 C581 621 619 658 619 698 C619 738 593 762 556 762 C512 762 474 726 474 686 L474 686 Z " />
<glyph glyph-name="aring" unicode="&#xe5;" horiz-adv-x="645" d="M289 -12 C369 -12 436 26 485 82 L469 0 L563 0 L665 527 L571 527 L553 433 C525 499 466 538 379 538 C209 538 78 389 78 219 C78 81 163 -12 289 -12 L289 -12 Z M181 233 C181 348 268 449 380 449 C466 449 521 389 521 298 C521 181 435 78 324 78 C237 78 181 143 181 233 L181 233 Z M323 674 C323 618 362 578 422 578 C491 578 548 632 548 697 C548 753 509 793 449 793 C380 793 323 739 323 674 L323 674 Z M385 679 C385 711 411 735 442 735 C468 735 485 716 485 691 C485 659 458 636 428 636 C401 636 385 654 385 679 L385 679 Z " />
<glyph glyph-name="ae" unicode="&#xe6;" horiz-adv-x="1028" d="M289 -12 C369 -12 436 25 485 81 L469 0 L563 0 L584 106 C612 31 683 -12 772 -12 C867 -12 937 24 994 84 L932 145 C890 92 840 70 779 70 C686 70 623 130 623 228 L623 235 L1037 235 C1044 254 1053 299 1053 328 C1053 445 970 538 843 538 C766 538 697 501 648 438 L665 527 L571 527 L554 434 C525 500 465 538 379 538 C209 538 78 389 78 219 C78 81 163 -12 289 -12 L289 -12 Z M181 233 C181 348 268 449 380 449 C466 449 521 389 521 298 C521 181 435 78 324 78 C237 78 181 143 181 233 L181 233 Z M632 297 C657 390 731 463 830 463 C914 463 962 410 962 326 C962 318 961 308 960 297 L632 297 Z " />
<glyph glyph-name="ccedilla" unicode="&#xe7;" horiz-adv-x="546" d="M251 -241 C326 -241 380 -194 380 -135 C380 -95 353 -61 314 -52 L337 -12 C425 -8 493 27 540 85 L475 150 C441 109 394 79 332 79 C238 79 181 148 181 235 C181 347 265 448 378 448 C440 448 487 413 512 377 L583 448 C546 495 477 538 384 538 C215 538 79 393 79 223 C79 100 154 9 275 -9 L238 -70 L245 -81 L255 -81 C270 -81 281 -86 290 -93 L290 -94 L290 -93 C300 -103 306 -116 306 -131 C306 -161 281 -184 243 -184 C211 -184 193 -168 184 -151 L142 -192 C159 -218 198 -241 251 -241 L251 -241 Z " />
<glyph glyph-name="egrave" unicode="&#xe8;" horiz-adv-x="579" d="M313 -12 C419 -12 485 23 546 86 L479 153 C434 99 390 77 326 77 C241 77 179 135 179 228 L179 229 L586 229 C595 254 603 299 603 328 C603 445 519 538 386 538 C215 538 78 394 78 220 C78 86 174 -12 313 -12 L313 -12 Z M192 308 C219 392 290 456 381 456 C459 456 506 406 506 326 C506 321 506 315 505 308 L192 308 Z M274 721 L496 587 L537 647 L318 790 L274 721 Z " />
<glyph glyph-name="eacute" unicode="&#xe9;" horiz-adv-x="579" d="M313 -12 C419 -12 485 23 546 86 L479 153 C434 99 390 77 326 77 C241 77 179 135 179 228 L179 229 L586 229 C595 254 603 299 603 328 C603 445 519 538 386 538 C215 538 78 394 78 220 C78 86 174 -12 313 -12 L313 -12 Z M192 308 C219 392 290 456 381 456 C459 456 506 406 506 326 C506 321 506 315 505 308 L192 308 Z M279 654 L315 594 L556 722 L518 791 L279 654 Z " />
<glyph glyph-name="ecircumflex" unicode="&#xea;" horiz-adv-x="579" d="M313 -12 C419 -12 485 23 546 86 L479 153 C434 99 390 77 326 77 C241 77 179 135 179 228 L179 229 L586 229 C595 254 603 299 603 328 C603 445 519 538 386 538 C215 538 78 394 78 220 C78 86 174 -12 313 -12 L313 -12 Z M192 308 C219 392 290 456 381 456 C459 456 506 406 506 326 C506 321 506 315 505 308 L192 308 Z M226 607 L320 607 L424 713 L489 607 L570 607 L473 775 L391 775 L226 607 Z " />
<glyph glyph-name="edieresis" unicode="&#xeb;" horiz-adv-x="579" d="M313 -12 C419 -12 485 23 546 86 L479 153 C434 99 390 77 326 77 C241 77 179 135 179 228 L179 229 L586 229 C595 254 603 299 603 328 C603 445 519 538 386 538 C215 538 78 394 78 220 C78 86 174 -12 313 -12 L313 -12 Z M192 308 C219 392 290 456 381 456 C459 456 506 406 506 326 C506 321 506 315 505 308 L192 308 Z M234 685 C234 645 260 620 297 620 C341 620 378 657 378 697 C378 737 353 761 316 761 C272 761 234 725 234 685 L234 685 Z M438 685 C438 645 464 620 501 620 C545 620 583 657 583 697 C583 737 557 761 520 761 C476 761 438 725 438 685 L438 685 Z " />
<glyph glyph-name="igrave" unicode="&#xec;" horiz-adv-x="235" d="M63 0 L164 0 L266 527 L165 527 L63 0 Z M97 722 L319 588 L360 648 L141 791 L97 722 Z " />
<glyph glyph-name="iacute" unicode="&#xed;" horiz-adv-x="235" d="M63 0 L164 0 L266 527 L165 527 L63 0 Z M108 655 L144 595 L385 723 L347 792 L108 655 Z " />
<glyph glyph-name="icircumflex" unicode="&#xee;" horiz-adv-x="235" d="M63 0 L164 0 L266 527 L165 527 L63 0 Z M54 608 L148 608 L252 714 L317 608 L398 608 L301 776 L219 776 L54 608 Z " />
<glyph glyph-name="idieresis" unicode="&#xef;" horiz-adv-x="235" d="M63 0 L164 0 L266 527 L165 527 L63 0 Z M71 686 C71 646 97 621 134 621 C178 621 215 658 215 698 C215 738 190 762 153 762 C109 762 71 726 71 686 L71 686 Z M275 686 C275 646 301 621 338 621 C382 621 420 658 420 698 C420 738 394 762 357 762 C313 762 275 726 275 686 L275 686 Z " />
<glyph glyph-name="eth" unicode="&#xf0;" horiz-adv-x="613" d="M315 -12 C513 -12 639 147 639 367 C639 519 574 643 467 716 L547 784 L502 830 L407 749 C354 773 293 786 226 786 L175 708 C230 708 283 699 329 682 L227 595 L272 549 L393 652 C464 610 514 546 534 464 C498 504 443 523 385 523 C218 523 77 386 77 217 C77 85 173 -12 315 -12 L315 -12 Z M181 230 C181 343 267 432 376 432 C463 432 527 372 527 291 C527 182 441 79 329 79 C235 79 181 146 181 230 L181 230 Z " />
<glyph glyph-name="ntilde" unicode="&#xf1;" horiz-adv-x="610" d="M493 302 L435 0 L536 0 L598 320 C624 454 552 538 430 538 C356 538 291 504 247 457 L261 527 L165 527 L63 0 L164 0 L224 309 L224 308 C238 390 305 448 385 448 C465 448 511 398 493 302 L493 302 Z M240 657 L306 628 C316 658 333 674 359 674 C406 674 420 624 483 624 C543 624 584 670 602 725 L538 754 C527 725 509 708 483 708 C434 708 421 758 359 758 C299 758 259 712 240 657 L240 657 Z " />
<glyph glyph-name="ograve" unicode="&#xf2;" horiz-adv-x="625" d="M318 -12 C499 -12 631 138 631 304 C631 451 528 538 392 538 C215 538 78 392 78 222 C78 78 178 -12 318 -12 L318 -12 Z M182 234 C182 344 266 448 381 448 C470 448 528 386 528 295 C528 185 446 79 330 79 C240 79 182 142 182 234 L182 234 Z M294 721 L516 587 L557 647 L338 790 L294 721 Z " />
<glyph glyph-name="oacute" unicode="&#xf3;" horiz-adv-x="625" d="M318 -12 C499 -12 631 138 631 304 C631 451 528 538 392 538 C215 538 78 392 78 222 C78 78 178 -12 318 -12 L318 -12 Z M182 234 C182 344 266 448 381 448 C470 448 528 386 528 295 C528 185 446 79 330 79 C240 79 182 142 182 234 L182 234 Z M287 654 L323 594 L564 722 L526 791 L287 654 Z " />
<glyph glyph-name="ocircumflex" unicode="&#xf4;" horiz-adv-x="625" d="M318 -12 C499 -12 631 138 631 304 C631 451 528 538 392 538 C215 538 78 392 78 222 C78 78 178 -12 318 -12 L318 -12 Z M182 234 C182 344 266 448 381 448 C470 448 528 386 528 295 C528 185 446 79 330 79 C240 79 182 142 182 234 L182 234 Z M235 607 L329 607 L433 713 L498 607 L579 607 L482 775 L400 775 L235 607 Z " />
<glyph glyph-name="otilde" unicode="&#xf5;" horiz-adv-x="625" d="M318 -12 C499 -12 631 138 631 304 C631 451 528 538 392 538 C215 538 78 392 78 222 C78 78 178 -12 318 -12 L318 -12 Z M182 234 C182 344 266 448 381 448 C470 448 528 386 528 295 C528 185 446 79 330 79 C240 79 182 142 182 234 L182 234 Z M236 657 L302 628 C312 658 329 674 355 674 C402 674 416 624 479 624 C539 624 580 670 598 725 L534 754 C523 725 505 708 479 708 C430 708 417 758 355 758 C295 758 255 712 236 657 L236 657 Z " />
<glyph glyph-name="odieresis" unicode="&#xf6;" horiz-adv-x="625" d="M318 -12 C499 -12 631 138 631 304 C631 451 528 538 392 538 C215 538 78 392 78 222 C78 78 178 -12 318 -12 L318 -12 Z M182 234 C182 344 266 448 381 448 C470 448 528 386 528 295 C528 185 446 79 330 79 C240 79 182 142 182 234 L182 234 Z M249 685 C249 645 275 620 312 620 C356 620 393 657 393 697 C393 737 368 761 331 761 C287 761 249 725 249 685 L249 685 Z M453 685 C453 645 479 620 516 620 C560 620 598 657 598 697 C598 737 572 761 535 761 C491 761 453 725 453 685 L453 685 Z " />
<glyph glyph-name="divide" unicode="&#xf7;" horiz-adv-x="465" d="M81 274 L489 274 L506 360 L98 360 L81 274 Z M191 109 C191 75 214 53 248 53 C289 53 320 87 320 125 C320 157 298 181 262 181 C222 181 191 147 191 109 L191 109 Z M266 500 C266 467 289 444 323 444 C364 444 395 478 395 517 C395 549 373 573 338 573 C297 573 266 539 266 500 L266 500 Z " />
<glyph glyph-name="oslash" unicode="&#xf8;" horiz-adv-x="626" d="M323 -12 C504 -12 636 138 636 304 C636 346 628 382 613 414 L692 474 L655 528 L576 468 C533 513 470 538 397 538 C220 538 83 392 83 222 C83 180 91 143 107 111 L27 50 L65 -5 L145 56 C188 12 250 -12 323 -12 L323 -12 Z M187 234 C187 344 271 448 386 448 C431 448 468 432 493 405 L195 178 C190 195 187 214 187 234 L187 234 Z M229 120 L526 347 C531 331 533 314 533 295 C533 185 451 79 335 79 C291 79 255 94 229 120 L229 120 Z " />
<glyph glyph-name="ugrave" unicode="&#xf9;" horiz-adv-x="600" d="M258 -12 C332 -12 396 23 439 73 L425 0 L521 0 L623 527 L522 527 L460 210 C443 132 379 79 304 79 C229 79 182 128 201 224 L259 527 L158 527 L96 207 C70 72 142 -12 258 -12 L258 -12 Z M270 722 L492 588 L533 648 L314 791 L270 722 Z " />
<glyph glyph-name="uacute" unicode="&#xfa;" horiz-adv-x="600" d="M258 -12 C332 -12 396 23 439 73 L425 0 L521 0 L623 527 L522 527 L460 210 C443 132 379 79 304 79 C229 79 182 128 201 224 L259 527 L158 527 L96 207 C70 72 142 -12 258 -12 L258 -12 Z M280 655 L316 595 L557 723 L519 792 L280 655 Z " />
<glyph glyph-name="ucircumflex" unicode="&#xfb;" horiz-adv-x="600" d="M258 -12 C332 -12 396 23 439 73 L425 0 L521 0 L623 527 L522 527 L460 210 C443 132 379 79 304 79 C229 79 182 128 201 224 L259 527 L158 527 L96 207 C70 72 142 -12 258 -12 L258 -12 Z M227 608 L321 608 L425 714 L490 608 L571 608 L474 776 L392 776 L227 608 Z " />
<glyph glyph-name="udieresis" unicode="&#xfc;" horiz-adv-x="600" d="M258 -12 C332 -12 396 23 439 73 L425 0 L521 0 L623 527 L522 527 L460 210 C443 132 379 79 304 79 C229 79 182 128 201 224 L259 527 L158 527 L96 207 C70 72 142 -12 258 -12 L258 -12 Z M241 686 C241 646 267 621 304 621 C348 621 385 658 385 698 C385 738 360 762 323 762 C279 762 241 726 241 686 L241 686 Z M445 686 C445 646 471 621 508 621 C552 621 590 658 590 698 C590 738 564 762 527 762 C483 762 445 726 445 686 L445 686 Z " />
<glyph glyph-name="yacute" unicode="&#xfd;" horiz-adv-x="550" d="M208 0 L226 0 L119 -179 L220 -179 L629 527 L517 527 L283 94 L208 527 L107 527 L208 0 Z M260 655 L296 595 L537 723 L499 792 L260 655 Z " />
<glyph glyph-name="thorn" unicode="&#xfe;" horiz-adv-x="629" d="M28 -179 L129 -179 L178 71 C208 19 262 -12 337 -12 C482 -12 613 106 644 263 C674 420 592 538 446 538 C371 538 304 506 252 453 L306 731 L205 731 L28 -179 Z M212 263 C233 372 315 448 413 448 C508 448 562 368 542 263 C522 159 437 79 342 79 C245 79 191 154 212 263 L212 263 Z " />
<glyph glyph-name="ydieresis" unicode="&#xff;" horiz-adv-x="550" d="M208 0 L226 0 L119 -179 L220 -179 L629 527 L517 527 L283 94 L208 527 L107 527 L208 0 Z M212 686 C212 646 238 621 275 621 C319 621 356 658 356 698 C356 738 331 762 294 762 C250 762 212 726 212 686 L212 686 Z M416 686 C416 646 442 621 479 621 C523 621 561 658 561 698 C561 738 535 762 498 762 C454 762 416 726 416 686 L416 686 Z " />
<glyph glyph-name="Amacron" unicode="&#x100;" horiz-adv-x="634" d="M6 0 L112 0 L211 186 L486 186 L514 0 L610 0 L504 695 L381 695 L6 0 Z M255 269 L426 591 L474 269 L255 269 Z M308 801 L623 801 L639 884 L324 884 L308 801 Z " />
<glyph glyph-name="amacron" unicode="&#x101;" horiz-adv-x="645" d="M289 -12 C369 -12 436 26 485 82 L469 0 L563 0 L665 527 L571 527 L553 433 C525 499 466 538 379 538 C209 538 78 389 78 219 C78 81 163 -12 289 -12 L289 -12 Z M181 233 C181 348 268 449 380 449 C466 449 521 389 521 298 C521 181 435 78 324 78 C237 78 181 143 181 233 L181 233 Z M286 652 L583 652 L598 728 L301 728 L286 652 Z " />
<glyph glyph-name="Abreve" unicode="&#x102;" horiz-adv-x="634" d="M6 0 L112 0 L211 186 L486 186 L514 0 L610 0 L504 695 L381 695 L6 0 Z M255 269 L426 591 L474 269 L255 269 Z M333 918 C318 841 366 766 468 766 C565 766 627 835 643 918 L560 918 C551 872 519 842 475 842 C427 842 408 878 416 918 L333 918 Z " />
<glyph glyph-name="abreve" unicode="&#x103;" horiz-adv-x="645" d="M289 -12 C369 -12 436 26 485 82 L469 0 L563 0 L665 527 L571 527 L553 433 C525 499 466 538 379 538 C209 538 78 389 78 219 C78 81 163 -12 289 -12 L289 -12 Z M181 233 C181 348 268 449 380 449 C466 449 521 389 521 298 C521 181 435 78 324 78 C237 78 181 143 181 233 L181 233 Z M298 776 C281 687 337 608 434 608 C543 608 598 684 615 776 L535 776 C527 728 495 684 440 684 C389 684 367 726 377 776 L298 776 Z " />
<glyph glyph-name="Aogonek" unicode="&#x104;" horiz-adv-x="634" d="M6 0 L112 0 L211 186 L486 186 L514 0 L535 0 L522 -9 C465 -49 421 -96 421 -150 C421 -201 458 -231 513 -231 C554 -231 586 -216 609 -193 L582 -146 C569 -159 553 -166 536 -166 C513 -166 499 -154 499 -131 C499 -98 525 -72 557 -45 L610 0 L504 695 L381 695 L6 0 Z M255 269 L426 591 L474 269 L255 269 Z " />
<glyph glyph-name="aogonek" unicode="&#x105;" horiz-adv-x="645" d="M289 -12 C369 -12 436 26 485 82 L469 0 L488 0 L475 -9 C418 -49 374 -96 374 -150 C374 -201 411 -231 466 -231 C507 -231 539 -216 562 -193 L535 -146 C522 -159 506 -166 489 -166 C466 -166 452 -154 452 -131 C452 -98 478 -72 510 -45 L563 0 L665 527 L571 527 L553 433 C525 499 466 538 379 538 C209 538 78 389 78 219 C78 81 163 -12 289 -12 L289 -12 Z M181 233 C181 348 268 449 380 449 C466 449 521 389 521 298 C521 181 435 78 324 78 C237 78 181 143 181 233 L181 233 Z " />
<glyph glyph-name="Cacute" unicode="&#x106;" horiz-adv-x="684" d="M682 106 L611 178 C564 120 497 84 411 84 C285 84 202 173 202 301 C202 466 316 611 480 611 C571 611 631 571 665 521 L740 595 C694 663 602 707 491 707 C262 707 97 515 97 292 C97 113 220 -12 401 -12 C521 -12 614 30 682 106 L682 106 Z M373 831 L395 762 L671 849 L647 928 L373 831 Z " />
<glyph glyph-name="cacute" unicode="&#x107;" horiz-adv-x="546" d="M320 -12 C417 -12 490 23 540 85 L475 150 C441 109 394 79 332 79 C238 79 181 148 181 235 C181 347 265 448 378 448 C440 448 487 413 512 377 L583 448 C546 495 477 538 384 538 C215 538 79 393 79 223 C79 85 173 -12 320 -12 L320 -12 Z M289 655 L325 595 L566 723 L528 792 L289 655 Z " />
<glyph glyph-name="Cdotaccent" unicode="&#x10a;" horiz-adv-x="684" d="M682 106 L611 178 C564 120 497 84 411 84 C285 84 202 173 202 301 C202 466 316 611 480 611 C571 611 631 571 665 521 L740 595 C694 663 602 707 491 707 C262 707 97 515 97 292 C97 113 220 -12 401 -12 C521 -12 614 30 682 106 L682 106 Z M451 835 C451 796 481 770 517 770 C560 770 598 805 598 849 C598 886 571 913 533 913 C488 913 451 878 451 835 L451 835 Z " />
<glyph glyph-name="cdotaccent" unicode="&#x10b;" horiz-adv-x="546" d="M320 -12 C417 -12 490 23 540 85 L475 150 C441 109 394 79 332 79 C238 79 181 148 181 235 C181 347 265 448 378 448 C440 448 487 413 512 377 L583 448 C546 495 477 538 384 538 C215 538 79 393 79 223 C79 85 173 -12 320 -12 L320 -12 Z M346 683 C346 646 374 620 414 620 C460 620 498 658 498 702 C498 739 470 766 431 766 C384 766 346 727 346 683 L346 683 Z " />
<glyph glyph-name="Ccaron" unicode="&#x10c;" horiz-adv-x="684" d="M682 106 L611 178 C564 120 497 84 411 84 C285 84 202 173 202 301 C202 466 316 611 480 611 C571 611 631 571 665 521 L740 595 C694 663 602 707 491 707 C262 707 97 515 97 292 C97 113 220 -12 401 -12 C521 -12 614 30 682 106 L682 106 Z M365 918 L465 766 L548 766 L711 918 L613 918 L514 831 L451 918 L365 918 Z " />
<glyph glyph-name="ccaron" unicode="&#x10d;" horiz-adv-x="546" d="M320 -12 C417 -12 490 23 540 85 L475 150 C441 109 394 79 332 79 C238 79 181 148 181 235 C181 347 265 448 378 448 C440 448 487 413 512 377 L583 448 C546 495 477 538 384 538 C215 538 79 393 79 223 C79 85 173 -12 320 -12 L320 -12 Z M267 776 L364 608 L446 608 L611 776 L517 776 L412 670 L349 776 L267 776 Z " />
<glyph glyph-name="Dcaron" unicode="&#x10e;" horiz-adv-x="720" d="M73 0 L334 0 C566 0 736 175 736 395 C736 576 619 695 441 695 L208 695 L73 0 Z M192 90 L292 605 L428 605 C553 605 630 525 630 393 C630 226 504 90 343 90 L192 90 Z M331 918 L431 766 L514 766 L677 918 L579 918 L480 831 L417 918 L331 918 Z " />
<glyph glyph-name="dcaron" unicode="&#x10f;" horiz-adv-x="712" d="M289 -12 C369 -12 436 25 485 81 L469 0 L563 0 L705 731 L604 731 L549 444 C518 504 461 538 379 538 C209 538 78 389 78 219 C78 81 163 -12 289 -12 L289 -12 Z M181 233 C181 348 268 449 380 449 C466 449 521 389 521 298 C521 181 435 78 324 78 C237 78 181 143 181 233 L181 233 Z M733 499 L801 499 L872 731 L794 731 L733 499 Z " />
<glyph glyph-name="Dcroat" unicode="&#x110;" horiz-adv-x="729" d="M82 0 L343 0 C575 0 745 175 745 395 C745 576 628 695 450 695 L217 695 L159 394 L80 394 L66 322 L145 322 L82 0 Z M201 90 L246 322 L386 322 L399 394 L260 394 L301 605 L437 605 C562 605 639 525 639 393 C639 226 513 90 352 90 L201 90 Z " />
<glyph glyph-name="dcroat" unicode="&#x111;" horiz-adv-x="645" d="M289 -12 C369 -12 436 25 485 81 L469 0 L563 0 L677 589 L758 589 L771 661 L691 661 L705 731 L604 731 L591 661 L452 661 L438 589 L577 589 L549 444 C518 504 461 538 379 538 C209 538 78 389 78 219 C78 81 163 -12 289 -12 L289 -12 Z M181 233 C181 348 268 449 380 449 C466 449 521 389 521 298 C521 181 435 78 324 78 C237 78 181 143 181 233 L181 233 Z " />
<glyph glyph-name="Emacron" unicode="&#x112;" horiz-adv-x="564" d="M73 0 L511 0 L529 89 L193 89 L236 314 L532 314 L550 403 L253 403 L293 606 L623 606 L640 695 L208 695 L73 0 Z M286 801 L601 801 L617 884 L302 884 L286 801 Z " />
<glyph glyph-name="emacron" unicode="&#x113;" horiz-adv-x="579" d="M313 -12 C419 -12 485 23 546 86 L479 153 C434 99 390 77 326 77 C241 77 179 135 179 228 L179 229 L586 229 C595 254 603 299 603 328 C603 445 519 538 386 538 C215 538 78 394 78 220 C78 86 174 -12 313 -12 L313 -12 Z M192 308 C219 392 290 456 381 456 C459 456 506 406 506 326 C506 321 506 315 505 308 L192 308 Z M257 649 L554 649 L569 725 L272 725 L257 649 Z " />
<glyph glyph-name="Edotaccent" unicode="&#x116;" horiz-adv-x="564" d="M73 0 L511 0 L529 89 L193 89 L236 314 L532 314 L550 403 L253 403 L293 606 L623 606 L640 695 L208 695 L73 0 Z M375 835 C375 796 405 770 441 770 C484 770 522 805 522 849 C522 886 495 913 457 913 C412 913 375 878 375 835 L375 835 Z " />
<glyph glyph-name="edotaccent" unicode="&#x117;" horiz-adv-x="579" d="M313 -12 C419 -12 485 23 546 86 L479 153 C434 99 390 77 326 77 C241 77 179 135 179 228 L179 229 L586 229 C595 254 603 299 603 328 C603 445 519 538 386 538 C215 538 78 394 78 220 C78 86 174 -12 313 -12 L313 -12 Z M192 308 C219 392 290 456 381 456 C459 456 506 406 506 326 C506 321 506 315 505 308 L192 308 Z M339 682 C339 645 367 619 407 619 C453 619 491 657 491 701 C491 738 463 765 424 765 C377 765 339 726 339 682 L339 682 Z " />
<glyph glyph-name="Eogonek" unicode="&#x118;" horiz-adv-x="564" d="M73 0 L436 0 L423 -9 C366 -49 322 -96 322 -150 C322 -201 359 -231 414 -231 C455 -231 487 -216 510 -193 L483 -146 C470 -159 454 -166 437 -166 C414 -166 400 -154 400 -131 C400 -98 426 -72 458 -45 L511 0 L529 89 L193 89 L236 314 L532 314 L550 403 L253 403 L293 606 L623 606 L640 695 L208 695 L73 0 Z " />
<glyph glyph-name="eogonek" unicode="&#x119;" horiz-adv-x="579" d="M313 -12 L315 -12 C268 -49 233 -91 233 -139 C233 -190 270 -220 325 -220 C366 -220 398 -205 421 -182 L394 -135 C381 -148 365 -155 348 -155 C325 -155 311 -143 311 -120 C311 -87 337 -61 369 -34 L409 0 C464 15 506 45 546 86 L479 153 C434 99 390 77 326 77 C241 77 179 135 179 228 L179 229 L586 229 C595 254 603 299 603 328 C603 445 519 538 386 538 C215 538 78 394 78 220 C78 86 174 -12 313 -12 L313 -12 Z M192 308 C219 392 290 456 381 456 C459 456 506 406 506 326 C506 321 506 315 505 308 L192 308 Z " />
<glyph glyph-name="Ecaron" unicode="&#x11a;" horiz-adv-x="564" d="M73 0 L511 0 L529 89 L193 89 L236 314 L532 314 L550 403 L253 403 L293 606 L623 606 L640 695 L208 695 L73 0 Z M289 918 L389 766 L472 766 L635 918 L537 918 L438 831 L375 918 L289 918 Z " />
<glyph glyph-name="ecaron" unicode="&#x11b;" horiz-adv-x="579" d="M313 -12 C419 -12 485 23 546 86 L479 153 C434 99 390 77 326 77 C241 77 179 135 179 228 L179 229 L586 229 C595 254 603 299 603 328 C603 445 519 538 386 538 C215 538 78 394 78 220 C78 86 174 -12 313 -12 L313 -12 Z M192 308 C219 392 290 456 381 456 C459 456 506 406 506 326 C506 321 506 315 505 308 L192 308 Z M262 775 L359 607 L441 607 L606 775 L512 775 L407 669 L344 775 L262 775 Z " />
<glyph glyph-name="Gbreve" unicode="&#x11e;" horiz-adv-x="752" d="M676 509 L757 590 C707 663 608 707 490 707 C266 707 97 524 97 298 C97 111 221 -12 404 -12 C608 -12 749 118 787 364 L447 364 L432 285 L670 285 C625 152 536 80 418 80 C287 80 201 169 201 305 C201 474 326 611 481 611 C578 611 645 569 676 509 L676 509 Z M381 918 C366 841 414 766 516 766 C613 766 675 835 691 918 L608 918 C599 872 567 842 523 842 C475 842 456 878 464 918 L381 918 Z " />
<glyph glyph-name="gbreve" unicode="&#x11f;" horiz-adv-x="627" d="M288 -12 C369 -12 436 27 485 84 L481 63 C459 -46 387 -103 278 -103 C201 -103 144 -76 105 -19 L39 -85 C81 -151 169 -191 272 -191 C442 -191 542 -103 577 71 L665 527 L571 527 L553 432 C524 499 465 538 378 538 C208 538 77 389 77 219 C77 81 161 -12 288 -12 L288 -12 Z M179 233 C179 348 267 449 379 449 C465 449 519 389 519 298 C519 181 433 78 323 78 C236 78 179 143 179 233 L179 233 Z M288 776 C271 687 327 608 424 608 C533 608 588 684 605 776 L525 776 C517 728 485 684 430 684 C379 684 357 726 367 776 L288 776 Z " />
<glyph glyph-name="Gdotaccent" unicode="&#x120;" horiz-adv-x="752" d="M676 509 L757 590 C707 663 608 707 490 707 C266 707 97 524 97 298 C97 111 221 -12 404 -12 C608 -12 749 118 787 364 L447 364 L432 285 L670 285 C625 152 536 80 418 80 C287 80 201 169 201 305 C201 474 326 611 481 611 C578 611 645 569 676 509 L676 509 Z M445 835 C445 796 475 770 511 770 C554 770 592 805 592 849 C592 886 565 913 527 913 C482 913 445 878 445 835 L445 835 Z " />
<glyph glyph-name="gdotaccent" unicode="&#x121;" horiz-adv-x="627" d="M288 -12 C369 -12 436 27 485 84 L481 63 C459 -46 387 -103 278 -103 C201 -103 144 -76 105 -19 L39 -85 C81 -151 169 -191 272 -191 C442 -191 542 -103 577 71 L665 527 L571 527 L553 432 C524 499 465 538 378 538 C208 538 77 389 77 219 C77 81 161 -12 288 -12 L288 -12 Z M179 233 C179 348 267 449 379 449 C465 449 519 389 519 298 C519 181 433 78 323 78 C236 78 179 143 179 233 L179 233 Z M352 683 C352 646 380 620 420 620 C466 620 504 658 504 702 C504 739 476 766 437 766 C390 766 352 727 352 683 L352 683 Z " />
<glyph glyph-name="uni0122" unicode="&#x122;" horiz-adv-x="752" d="M676 509 L757 590 C707 663 608 707 490 707 C266 707 97 524 97 298 C97 111 221 -12 404 -12 C608 -12 749 118 787 364 L447 364 L432 285 L670 285 C625 152 536 80 418 80 C287 80 201 169 201 305 C201 474 326 611 481 611 C578 611 645 569 676 509 L676 509 Z M282 -234 L322 -259 L374 -191 C404 -154 423 -127 423 -99 C423 -68 400 -49 370 -49 C333 -49 303 -79 303 -114 C303 -139 315 -156 334 -162 L282 -234 Z " />
<glyph glyph-name="uni0123" unicode="&#x123;" horiz-adv-x="627" d="M288 -12 C369 -12 436 27 485 84 L481 63 C459 -46 387 -103 278 -103 C201 -103 144 -76 105 -19 L39 -85 C81 -151 169 -191 272 -191 C442 -191 542 -103 577 71 L665 527 L571 527 L553 432 C524 499 465 538 378 538 C208 538 77 389 77 219 C77 81 161 -12 288 -12 L288 -12 Z M179 233 C179 348 267 449 379 449 C465 449 519 389 519 298 C519 181 433 78 323 78 C236 78 179 143 179 233 L179 233 Z M352 648 C352 617 375 598 405 598 C442 598 472 628 472 663 C472 688 460 705 441 711 L493 783 L453 808 L401 740 C371 703 352 676 352 648 L352 648 Z " />
<glyph glyph-name="Hbar" unicode="&#x126;" horiz-adv-x="716" d="M507 0 L608 0 L708 515 L770 515 L786 595 L724 595 L743 695 L642 695 L623 595 L305 595 L324 695 L222 695 L203 595 L140 595 L125 515 L187 515 L87 0 L189 0 L250 313 L568 313 L507 0 Z M267 404 L289 515 L607 515 L585 404 L267 404 Z " />
<glyph glyph-name="hbar" unicode="&#x127;" horiz-adv-x="610" d="M63 0 L164 0 L224 310 L224 309 C238 391 305 448 385 448 C465 448 511 398 493 303 L435 0 L536 0 L598 320 C624 455 552 539 430 539 C359 539 297 509 254 465 L278 589 L420 589 L433 661 L292 661 L306 731 L205 731 L191 661 L114 661 L100 589 L177 589 L63 0 Z " />
<glyph glyph-name="Itilde" unicode="&#x128;" horiz-adv-x="258" d="M73 0 L175 0 L310 695 L208 695 L73 0 Z M113 803 L173 773 C183 803 199 820 224 820 C270 820 285 770 345 770 C402 770 439 815 456 870 L397 900 C387 870 371 854 344 854 C298 854 283 904 224 904 C167 904 131 857 113 803 L113 803 Z " />
<glyph glyph-name="itilde" unicode="&#x129;" horiz-adv-x="235" d="M63 0 L164 0 L266 527 L165 527 L63 0 Z M93 658 L148 629 C157 659 171 675 192 675 C231 675 243 625 295 625 C345 625 379 671 394 726 L341 755 C331 726 317 709 295 709 C254 709 244 759 192 759 C142 759 109 713 93 658 L93 658 Z " />
<glyph glyph-name="Imacron" unicode="&#x12a;" horiz-adv-x="258" d="M73 0 L175 0 L310 695 L208 695 L73 0 Z M151 801 L389 801 L401 884 L163 884 L151 801 Z " />
<glyph glyph-name="imacron" unicode="&#x12b;" horiz-adv-x="235" d="M63 0 L164 0 L266 527 L165 527 L63 0 Z M102 652 L340 652 L352 728 L114 728 L102 652 Z " />
<glyph glyph-name="Iogonek" unicode="&#x12e;" horiz-adv-x="258" d="M73 0 L100 0 L87 -9 C30 -49 -14 -96 -14 -150 C-14 -201 23 -231 78 -231 C119 -231 151 -216 174 -193 L147 -146 C134 -159 118 -166 101 -166 C78 -166 64 -154 64 -131 C64 -98 90 -72 122 -45 L175 0 L310 695 L208 695 L73 0 Z " />
<glyph glyph-name="iogonek" unicode="&#x12f;" horiz-adv-x="237" d="M63 0 L89 0 L76 -9 C19 -49 -25 -96 -25 -150 C-25 -201 12 -231 67 -231 C108 -231 140 -216 163 -193 L136 -146 C123 -159 107 -166 90 -166 C67 -166 53 -154 53 -131 C53 -98 79 -72 111 -45 L164 0 L266 527 L165 527 L63 0 Z M171 683 C171 646 199 620 239 620 C285 620 323 658 323 702 C323 739 295 766 256 766 C209 766 171 727 171 683 L171 683 Z " />
<glyph glyph-name="Idotaccent" unicode="&#x130;" horiz-adv-x="258" d="M73 0 L175 0 L310 695 L208 695 L73 0 Z M215 835 C215 796 245 770 281 770 C324 770 362 805 362 849 C362 886 335 913 297 913 C252 913 215 878 215 835 L215 835 Z " />
<glyph glyph-name="dotlessi" unicode="&#x131;" horiz-adv-x="229" d="M63 0 L164 0 L266 527 L165 527 L63 0 Z " />
<glyph glyph-name="IJ" unicode="&#x132;" horiz-adv-x="596" d="M73 0 L175 0 L310 695 L208 695 L73 0 Z M277 0 L336 0 C452 0 529 62 552 179 L651 695 L550 695 L453 194 C441 130 398 90 336 90 L294 90 L277 0 Z " />
<glyph glyph-name="ij" unicode="&#x133;" horiz-adv-x="483" d="M63 0 L164 0 L266 527 L165 527 L63 0 Z M166 -183 L189 -183 C301 -183 389 -115 414 13 L514 527 L413 527 L313 11 C300 -55 254 -95 199 -95 L183 -95 L166 -183 Z M171 683 C171 646 199 620 239 620 C285 620 323 658 323 702 C323 739 295 766 256 766 C209 766 171 727 171 683 L171 683 Z M421 682 C421 645 449 619 489 619 C535 619 573 657 573 701 C573 738 545 765 506 765 C459 765 421 726 421 682 L421 682 Z " />
<glyph glyph-name="uni0136" unicode="&#x136;" horiz-adv-x="623" d="M500 0 L612 0 L346 359 L724 695 L596 695 L251 391 L310 695 L208 695 L73 0 L175 0 L241 341 L500 0 Z M231 -234 L271 -259 L323 -191 C353 -154 372 -127 372 -99 C372 -68 349 -49 319 -49 C282 -49 252 -79 252 -114 C252 -139 264 -156 283 -162 L231 -234 Z " />
<glyph glyph-name="uni0137" unicode="&#x137;" horiz-adv-x="520" d="M63 0 L164 0 L215 264 L400 0 L509 0 L321 279 L605 527 L480 527 L225 312 L306 731 L205 731 L63 0 Z M181 -234 L221 -259 L273 -191 C303 -154 322 -127 322 -99 C322 -68 299 -49 269 -49 C232 -49 202 -79 202 -114 C202 -139 214 -156 233 -162 L181 -234 Z " />
<glyph glyph-name="kgreenlandic" unicode="&#x138;" horiz-adv-x="505" d="M63 0 L164 0 L211 241 L397 0 L509 0 L313 271 L606 527 L490 527 L221 294 L266 527 L165 527 L63 0 Z " />
<glyph glyph-name="Lacute" unicode="&#x139;" horiz-adv-x="534" d="M73 0 L506 0 L524 91 L193 91 L310 695 L208 695 L73 0 Z M132 831 L154 762 L430 849 L406 928 L132 831 Z " />
<glyph glyph-name="lacute" unicode="&#x13a;" horiz-adv-x="235" d="M63 0 L164 0 L306 731 L205 731 L63 0 Z M125 867 L147 798 L423 885 L399 964 L125 867 Z " />
<glyph glyph-name="uni013B" unicode="&#x13b;" horiz-adv-x="534" d="M73 0 L506 0 L524 91 L193 91 L310 695 L208 695 L73 0 Z M196 -234 L236 -259 L288 -191 C318 -154 337 -127 337 -99 C337 -68 314 -49 284 -49 C247 -49 217 -79 217 -114 C217 -139 229 -156 248 -162 L196 -234 Z " />
<glyph glyph-name="uni013C" unicode="&#x13c;" horiz-adv-x="235" d="M63 0 L164 0 L306 731 L205 731 L63 0 Z M14 -234 L54 -259 L106 -191 C136 -154 155 -127 155 -99 C155 -68 132 -49 102 -49 C65 -49 35 -79 35 -114 C35 -139 47 -156 66 -162 L14 -234 Z " />
<glyph glyph-name="Lcaron" unicode="&#x13d;" horiz-adv-x="538" d="M73 0 L506 0 L524 91 L193 91 L310 695 L208 695 L73 0 Z M443 473 L511 473 L582 705 L504 705 L443 473 Z " />
<glyph glyph-name="lcaron" unicode="&#x13e;" horiz-adv-x="303" d="M63 0 L164 0 L306 731 L205 731 L63 0 Z M324 499 L392 499 L463 731 L385 731 L324 499 Z " />
<glyph glyph-name="Ldot" unicode="&#x13f;" horiz-adv-x="544" d="M73 0 L506 0 L524 91 L193 91 L310 695 L208 695 L73 0 Z M408 380 C408 347 432 323 466 323 C507 323 539 358 539 396 C539 429 515 452 481 452 C440 452 408 418 408 380 L408 380 Z " />
<glyph glyph-name="ldot" unicode="&#x140;" horiz-adv-x="338" d="M63 0 L164 0 L306 731 L205 731 L63 0 Z M283 363 C283 330 307 306 341 306 C382 306 414 341 414 379 C414 412 390 435 356 435 C315 435 283 401 283 363 L283 363 Z " />
<glyph glyph-name="Lslash" unicode="&#x141;" horiz-adv-x="580" d="M119 0 L552 0 L570 91 L239 91 L287 338 L420 386 L399 451 L302 416 L356 695 L254 695 L192 375 L81 335 L101 270 L177 298 L119 0 Z " />
<glyph glyph-name="lslash" unicode="&#x142;" horiz-adv-x="299" d="M97 0 L198 0 L266 350 L392 415 L360 476 L283 436 L340 731 L239 731 L171 379 L51 317 L81 255 L154 292 L97 0 Z " />
<glyph glyph-name="Nacute" unicode="&#x143;" horiz-adv-x="688" d="M511 0 L595 0 L730 695 L629 695 L528 175 L293 695 L208 695 L73 0 L174 0 L275 516 L511 0 Z M341 831 L363 762 L639 849 L615 928 L341 831 Z " />
<glyph glyph-name="nacute" unicode="&#x144;" horiz-adv-x="610" d="M493 302 L435 0 L536 0 L598 320 C624 454 552 538 430 538 C356 538 291 504 247 457 L261 527 L165 527 L63 0 L164 0 L224 309 L224 308 C238 390 305 448 385 448 C465 448 511 398 493 302 L493 302 Z M289 654 L325 594 L566 722 L528 791 L289 654 Z " />
<glyph glyph-name="uni0145" unicode="&#x145;" horiz-adv-x="688" d="M511 0 L595 0 L730 695 L629 695 L528 175 L293 695 L208 695 L73 0 L174 0 L275 516 L511 0 Z M245 -234 L285 -259 L337 -191 C367 -154 386 -127 386 -99 C386 -68 363 -49 333 -49 C296 -49 266 -79 266 -114 C266 -139 278 -156 297 -162 L245 -234 Z " />
<glyph glyph-name="uni0146" unicode="&#x146;" horiz-adv-x="610" d="M493 302 L435 0 L536 0 L598 320 C624 454 552 538 430 538 C356 538 291 504 247 457 L261 527 L165 527 L63 0 L164 0 L224 309 L224 308 C238 390 305 448 385 448 C465 448 511 398 493 302 L493 302 Z M206 -234 L246 -259 L298 -191 C328 -154 347 -127 347 -99 C347 -68 324 -49 294 -49 C257 -49 227 -79 227 -114 C227 -139 239 -156 258 -162 L206 -234 Z " />
<glyph glyph-name="Ncaron" unicode="&#x147;" horiz-adv-x="688" d="M511 0 L595 0 L730 695 L629 695 L528 175 L293 695 L208 695 L73 0 L174 0 L275 516 L511 0 Z M330 918 L430 766 L513 766 L676 918 L578 918 L479 831 L416 918 L330 918 Z " />
<glyph glyph-name="ncaron" unicode="&#x148;" horiz-adv-x="610" d="M493 302 L435 0 L536 0 L598 320 C624 454 552 538 430 538 C356 538 291 504 247 457 L261 527 L165 527 L63 0 L164 0 L224 309 L224 308 C238 390 305 448 385 448 C465 448 511 398 493 302 L493 302 Z M269 775 L366 607 L448 607 L613 775 L519 775 L414 669 L351 775 L269 775 Z " />
<glyph glyph-name="napostrophe" unicode="&#x149;" horiz-adv-x="709" d="M593 302 L535 0 L636 0 L698 320 C724 454 652 538 530 538 C456 538 391 504 347 457 L361 527 L265 527 L163 0 L264 0 L324 309 L324 308 C338 390 405 448 485 448 C565 448 611 398 593 302 L593 302 Z M112 518 L180 518 L251 750 L173 750 L112 518 Z " />
<glyph glyph-name="Eng" unicode="&#x14a;" horiz-adv-x="688" d="M343 -209 L374 -209 C490 -209 565 -149 589 -30 L595 0 L730 695 L629 695 L528 175 L293 695 L208 695 L73 0 L174 0 L275 516 L506 10 L501 -15 C487 -78 445 -118 384 -118 L360 -118 L343 -209 Z " />
<glyph glyph-name="eng" unicode="&#x14b;" horiz-adv-x="595" d="M493 301 L437 12 C424 -53 379 -95 323 -95 L313 -95 L296 -183 L313 -183 C421 -183 515 -107 538 13 L598 319 C624 451 560 538 432 538 C357 538 291 502 247 454 L261 527 L165 527 L63 0 L164 0 L226 322 C242 390 309 447 387 448 C471 448 510 395 493 301 L493 301 Z " />
<glyph glyph-name="Omacron" unicode="&#x14c;" horiz-adv-x="789" d="M407 -12 C626 -12 803 168 803 393 C803 581 678 707 493 707 C272 707 97 523 97 303 C97 118 222 -12 407 -12 L407 -12 Z M202 310 C202 473 327 611 485 611 C614 611 698 521 698 387 C698 223 573 84 414 84 C286 84 202 174 202 310 L202 310 Z M361 801 L676 801 L692 884 L377 884 L361 801 Z " />
<glyph glyph-name="omacron" unicode="&#x14d;" horiz-adv-x="625" d="M318 -12 C499 -12 631 138 631 304 C631 451 528 538 392 538 C215 538 78 392 78 222 C78 78 178 -12 318 -12 L318 -12 Z M182 234 C182 344 266 448 381 448 C470 448 528 386 528 295 C528 185 446 79 330 79 C240 79 182 142 182 234 L182 234 Z M269 651 L566 651 L581 727 L284 727 L269 651 Z " />
<glyph glyph-name="Ohungarumlaut" unicode="&#x150;" horiz-adv-x="789" d="M407 -12 C626 -12 803 168 803 393 C803 581 678 707 493 707 C272 707 97 523 97 303 C97 118 222 -12 407 -12 L407 -12 Z M202 310 C202 473 327 611 485 611 C614 611 698 521 698 387 C698 223 573 84 414 84 C286 84 202 174 202 310 L202 310 Z M353 786 L407 741 L564 911 L503 962 L353 786 Z M555 786 L609 741 L767 911 L705 962 L555 786 Z " />
<glyph glyph-name="ohungarumlaut" unicode="&#x151;" horiz-adv-x="625" d="M318 -12 C499 -12 631 138 631 304 C631 451 528 538 392 538 C215 538 78 392 78 222 C78 78 178 -12 318 -12 L318 -12 Z M182 234 C182 344 266 448 381 448 C470 448 528 386 528 295 C528 185 446 79 330 79 C240 79 182 142 182 234 L182 234 Z M255 634 L309 589 L464 747 L403 799 L255 634 Z M453 634 L506 589 L661 747 L600 799 L453 634 Z " />
<glyph glyph-name="OE" unicode="&#x152;" horiz-adv-x="1105" d="M407 -12 C501 -12 583 28 647 88 L630 0 L1068 0 L1085 89 L750 89 L793 314 L1089 314 L1107 403 L810 403 L849 606 L1180 606 L1197 695 L765 695 L742 576 C694 658 609 707 493 707 C272 707 97 523 97 303 C97 118 222 -12 407 -12 L407 -12 Z M202 310 C202 473 327 611 485 611 C614 611 695 521 695 387 C695 223 573 84 414 84 C286 84 202 174 202 310 L202 310 Z " />
<glyph glyph-name="oe" unicode="&#x153;" horiz-adv-x="1030" d="M318 -12 C416 -12 499 32 555 98 C594 31 667 -12 759 -12 C865 -12 931 23 992 86 L925 153 C880 99 836 77 772 77 C687 77 625 135 625 228 L625 229 L1032 229 C1041 254 1049 299 1049 328 C1049 445 965 538 832 538 C739 538 656 496 600 429 C560 499 483 538 392 538 C215 538 78 392 78 222 C78 78 178 -12 318 -12 L318 -12 Z M182 234 C182 344 266 448 381 448 C470 448 528 386 528 295 C528 185 446 79 330 79 C240 79 182 142 182 234 L182 234 Z M638 308 C665 392 736 456 827 456 C905 456 952 406 952 326 C952 321 952 315 951 308 L638 308 Z " />
<glyph glyph-name="Racute" unicode="&#x154;" horiz-adv-x="612" d="M73 0 L175 0 L234 304 L292 304 L457 0 L564 0 L392 304 L394 304 C558 304 657 400 657 520 C657 626 587 695 456 695 L208 695 L73 0 Z M248 377 L293 606 L441 606 C515 606 556 568 556 505 C556 432 496 377 402 377 L248 377 Z M302 831 L324 762 L600 849 L576 928 L302 831 Z " />
<glyph glyph-name="racute" unicode="&#x155;" horiz-adv-x="343" d="M63 0 L164 0 L223 308 C243 388 309 443 404 444 L422 539 C352 539 289 502 246 451 L261 527 L165 527 L63 0 Z M179 654 L215 594 L456 722 L418 791 L179 654 Z " />
<glyph glyph-name="uni0156" unicode="&#x156;" horiz-adv-x="612" d="M73 0 L175 0 L234 304 L292 304 L457 0 L564 0 L392 304 L394 304 C558 304 657 400 657 520 C657 626 587 695 456 695 L208 695 L73 0 Z M213 -234 L253 -259 L305 -191 C335 -154 354 -127 354 -99 C354 -68 331 -49 301 -49 C264 -49 234 -79 234 -114 C234 -139 246 -156 265 -162 L213 -234 Z M248 377 L293 606 L441 606 C515 606 556 568 556 505 C556 432 496 377 402 377 L248 377 Z " />
<glyph glyph-name="uni0157" unicode="&#x157;" horiz-adv-x="343" d="M63 0 L164 0 L223 308 C243 388 309 443 404 444 L422 539 C352 539 289 502 246 451 L261 527 L165 527 L63 0 Z M12 -234 L52 -259 L104 -191 C134 -154 153 -127 153 -99 C153 -68 130 -49 100 -49 C63 -49 33 -79 33 -114 C33 -139 45 -156 64 -162 L12 -234 Z " />
<glyph glyph-name="Rcaron" unicode="&#x158;" horiz-adv-x="612" d="M73 0 L175 0 L234 304 L292 304 L457 0 L564 0 L392 304 L394 304 C558 304 657 400 657 520 C657 626 587 695 456 695 L208 695 L73 0 Z M248 377 L293 606 L441 606 C515 606 556 568 556 505 C556 432 496 377 402 377 L248 377 Z M292 918 L392 766 L475 766 L638 918 L540 918 L441 831 L378 918 L292 918 Z " />
<glyph glyph-name="rcaron" unicode="&#x159;" horiz-adv-x="343" d="M63 0 L164 0 L223 308 C243 388 309 443 404 444 L422 539 C352 539 289 502 246 451 L261 527 L165 527 L63 0 Z M161 775 L258 607 L340 607 L505 775 L411 775 L306 669 L243 775 L161 775 Z " />
<glyph glyph-name="Sacute" unicode="&#x15a;" horiz-adv-x="553" d="M297 -12 C453 -12 553 72 553 201 C553 418 262 381 262 518 C262 579 314 619 392 619 C460 619 515 589 547 544 L618 614 C579 663 502 707 401 707 C255 707 157 624 157 505 C157 302 448 341 448 188 C448 120 397 77 313 77 C228 77 168 113 124 172 L45 103 C91 35 175 -12 297 -12 L297 -12 Z M283 832 L305 763 L581 850 L557 929 L283 832 Z " />
<glyph glyph-name="sacute" unicode="&#x15b;" horiz-adv-x="468" d="M256 -12 C379 -12 476 53 476 158 C476 327 221 289 221 388 C221 429 267 456 323 456 C369 456 410 439 443 403 L510 469 C474 510 410 538 326 538 C202 538 117 473 117 378 C117 214 372 255 372 148 C372 101 316 73 265 73 C210 73 159 91 111 146 L37 72 C81 25 152 -12 256 -12 L256 -12 Z M234 655 L270 595 L511 723 L473 792 L234 655 Z " />
<glyph glyph-name="Scedilla" unicode="&#x15e;" horiz-adv-x="553" d="M238 -241 C313 -241 367 -194 367 -135 C367 -95 340 -61 301 -52 L324 -11 C464 -2 553 80 553 201 C553 418 262 381 262 518 C262 579 314 619 392 619 C460 619 515 589 547 544 L618 614 C579 663 502 707 401 707 C255 707 157 624 157 505 C157 302 448 341 448 188 C448 120 397 77 313 77 C228 77 168 113 124 172 L45 103 C86 42 158 -2 261 -11 L225 -70 L232 -81 L242 -81 C257 -81 268 -86 277 -93 L277 -94 L277 -93 C287 -103 293 -116 293 -131 C293 -161 268 -184 230 -184 C198 -184 180 -168 171 -151 L129 -192 C146 -218 185 -241 238 -241 L238 -241 Z " />
<glyph glyph-name="scedilla" unicode="&#x15f;" horiz-adv-x="468" d="M197 -241 C272 -241 326 -194 326 -135 C326 -95 299 -61 260 -52 L283 -11 C393 -2 476 61 476 158 C476 327 221 289 221 388 C221 429 267 456 323 456 C369 456 410 439 443 403 L510 469 C474 510 410 538 326 538 C202 538 117 473 117 378 C117 214 372 255 372 148 C372 101 316 73 265 73 C210 73 159 91 111 146 L37 72 C76 31 135 -3 220 -10 L184 -70 L191 -81 L201 -81 C216 -81 227 -86 236 -93 L236 -94 L236 -93 C246 -103 252 -116 252 -131 C252 -161 227 -184 189 -184 C157 -184 139 -168 130 -151 L88 -192 C105 -218 144 -241 197 -241 L197 -241 Z " />
<glyph glyph-name="Scaron" unicode="&#x160;" horiz-adv-x="553" d="M297 -12 C453 -12 553 72 553 201 C553 418 262 381 262 518 C262 579 314 619 392 619 C460 619 515 589 547 544 L618 614 C579 663 502 707 401 707 C255 707 157 624 157 505 C157 302 448 341 448 188 C448 120 397 77 313 77 C228 77 168 113 124 172 L45 103 C91 35 175 -12 297 -12 L297 -12 Z M275 919 L375 767 L458 767 L621 919 L523 919 L424 832 L361 919 L275 919 Z " />
<glyph glyph-name="scaron" unicode="&#x161;" horiz-adv-x="468" d="M256 -12 C379 -12 476 53 476 158 C476 327 221 289 221 388 C221 429 267 456 323 456 C369 456 410 439 443 403 L510 469 C474 510 410 538 326 538 C202 538 117 473 117 378 C117 214 372 255 372 148 C372 101 316 73 265 73 C210 73 159 91 111 146 L37 72 C81 25 152 -12 256 -12 L256 -12 Z M207 776 L304 608 L386 608 L551 776 L457 776 L352 670 L289 776 L207 776 Z " />
<glyph glyph-name="uni0162" unicode="&#x162;" horiz-adv-x="561" d="M221 0 L244 0 L200 -73 L207 -84 L217 -84 C232 -84 243 -89 252 -96 L252 -97 L252 -96 C262 -106 268 -119 268 -134 C268 -164 243 -187 205 -187 C173 -187 155 -171 146 -154 L104 -195 C121 -221 160 -244 213 -244 C288 -244 342 -197 342 -138 C342 -98 315 -64 276 -55 L307 0 L322 0 L439 604 L649 604 L667 695 L147 695 L129 604 L338 604 L221 0 Z " />
<glyph glyph-name="uni0163" unicode="&#x163;" horiz-adv-x="380" d="M290 0 L357 0 L375 89 L327 89 C260 89 227 128 242 204 L288 440 L436 440 L453 527 L308 527 L335 663 L237 663 L221 578 C214 544 196 527 163 527 L112 527 L95 440 L187 440 L139 192 C122 99 152 33 225 9 L182 -62 L189 -73 L199 -73 C214 -73 225 -78 234 -85 L234 -86 L234 -85 C244 -95 250 -108 250 -123 C250 -153 225 -176 187 -176 C155 -176 137 -160 128 -143 L86 -184 C103 -210 142 -233 195 -233 C270 -233 324 -186 324 -127 C324 -87 297 -53 258 -44 L283 0 L290 0 Z " />
<glyph glyph-name="Tcaron" unicode="&#x164;" horiz-adv-x="561" d="M221 0 L322 0 L439 604 L649 604 L667 695 L147 695 L129 604 L338 604 L221 0 Z M275 918 L375 766 L458 766 L621 918 L523 918 L424 831 L361 918 L275 918 Z " />
<glyph glyph-name="tcaron" unicode="&#x165;" horiz-adv-x="380" d="M290 0 L357 0 L375 89 L327 89 C260 89 227 128 242 204 L288 440 L436 440 L453 527 L308 527 L335 663 L237 663 L221 578 C214 544 196 527 163 527 L112 527 L95 440 L187 440 L139 192 C117 74 172 0 290 0 L290 0 Z M396 558 L464 558 L535 790 L457 790 L396 558 Z " />
<glyph glyph-name="Tbar" unicode="&#x166;" horiz-adv-x="570" d="M226 0 L327 0 L382 283 L492 283 L505 355 L396 355 L444 604 L654 604 L672 695 L152 695 L134 604 L343 604 L295 355 L186 355 L172 283 L281 283 L226 0 Z " />
<glyph glyph-name="tbar" unicode="&#x167;" horiz-adv-x="387" d="M295 0 L362 0 L380 89 L332 89 C265 89 232 128 247 204 L254 242 L379 242 L392 314 L268 314 L293 440 L441 440 L458 527 L313 527 L340 663 L242 663 L226 578 C219 544 201 527 168 527 L117 527 L100 440 L192 440 L168 314 L89 314 L76 242 L154 242 L144 192 C122 74 177 0 295 0 L295 0 Z " />
<glyph glyph-name="Utilde" unicode="&#x168;" horiz-adv-x="672" d="M338 -12 C495 -12 604 83 636 251 L722 695 L621 695 L535 251 C514 143 447 84 352 84 C251 84 198 154 221 271 L303 695 L201 695 L119 271 C88 108 170 -12 338 -12 L338 -12 Z M293 803 L358 773 C369 803 386 820 414 820 C464 820 480 770 546 770 C608 770 648 815 667 870 L602 900 C591 870 574 854 545 854 C494 854 478 904 414 904 C352 904 312 857 293 803 L293 803 Z " />
<glyph glyph-name="utilde" unicode="&#x169;" horiz-adv-x="600" d="M258 -12 C332 -12 396 23 439 73 L425 0 L521 0 L623 527 L522 527 L460 210 C443 132 379 79 304 79 C229 79 182 128 201 224 L259 527 L158 527 L96 207 C70 72 142 -12 258 -12 L258 -12 Z M236 658 L302 629 C312 659 329 675 355 675 C402 675 416 625 479 625 C539 625 580 671 598 726 L534 755 C523 726 505 709 479 709 C430 709 417 759 355 759 C295 759 255 713 236 658 L236 658 Z " />
<glyph glyph-name="Umacron" unicode="&#x16a;" horiz-adv-x="672" d="M338 -12 C495 -12 604 83 636 251 L722 695 L621 695 L535 251 C514 143 447 84 352 84 C251 84 198 154 221 271 L303 695 L201 695 L119 271 C88 108 170 -12 338 -12 L338 -12 Z M314 801 L629 801 L645 884 L330 884 L314 801 Z " />
<glyph glyph-name="umacron" unicode="&#x16b;" horiz-adv-x="600" d="M258 -12 C332 -12 396 23 439 73 L425 0 L521 0 L623 527 L522 527 L460 210 C443 132 379 79 304 79 C229 79 182 128 201 224 L259 527 L158 527 L96 207 C70 72 142 -12 258 -12 L258 -12 Z M255 652 L552 652 L567 728 L270 728 L255 652 Z " />
<glyph glyph-name="Uring" unicode="&#x16e;" horiz-adv-x="672" d="M338 -12 C495 -12 604 83 636 251 L722 695 L621 695 L535 251 C514 143 447 84 352 84 C251 84 198 154 221 271 L303 695 L201 695 L119 271 C88 108 170 -12 338 -12 L338 -12 Z M368 807 C368 752 407 711 467 711 C536 711 593 765 593 831 C593 886 554 927 494 927 C425 927 368 873 368 807 L368 807 Z M430 813 C430 844 456 868 487 868 C513 868 530 850 530 825 C530 793 503 770 473 770 C446 770 430 788 430 813 L430 813 Z " />
<glyph glyph-name="uring" unicode="&#x16f;" horiz-adv-x="600" d="M258 -12 C332 -12 396 23 439 73 L425 0 L521 0 L623 527 L522 527 L460 210 C443 132 379 79 304 79 C229 79 182 128 201 224 L259 527 L158 527 L96 207 C70 72 142 -12 258 -12 L258 -12 Z M306 674 C306 618 345 578 405 578 C474 578 531 632 531 697 C531 753 492 793 432 793 C363 793 306 739 306 674 L306 674 Z M368 679 C368 711 394 735 425 735 C451 735 468 716 468 691 C468 659 441 636 411 636 C384 636 368 654 368 679 L368 679 Z " />
<glyph glyph-name="Uhungarumlaut" unicode="&#x170;" horiz-adv-x="672" d="M338 -12 C495 -12 604 83 636 251 L722 695 L621 695 L535 251 C514 143 447 84 352 84 C251 84 198 154 221 271 L303 695 L201 695 L119 271 C88 108 170 -12 338 -12 L338 -12 Z M302 786 L356 741 L513 911 L452 962 L302 786 Z M504 786 L558 741 L716 911 L654 962 L504 786 Z " />
<glyph glyph-name="uhungarumlaut" unicode="&#x171;" horiz-adv-x="600" d="M258 -12 C332 -12 396 23 439 73 L425 0 L521 0 L623 527 L522 527 L460 210 C443 132 379 79 304 79 C229 79 182 128 201 224 L259 527 L158 527 L96 207 C70 72 142 -12 258 -12 L258 -12 Z M236 635 L290 590 L445 748 L384 800 L236 635 Z M434 635 L487 590 L642 748 L581 800 L434 635 Z " />
<glyph glyph-name="Uogonek" unicode="&#x172;" horiz-adv-x="672" d="M338 -12 L351 -12 C304 -48 270 -91 270 -138 C270 -189 307 -219 362 -219 C403 -219 435 -204 458 -181 L431 -134 C418 -147 402 -154 385 -154 C362 -154 348 -142 348 -119 C348 -86 374 -60 406 -33 L455 9 C549 45 613 129 636 251 L722 695 L621 695 L535 251 C514 143 447 84 352 84 C251 84 198 154 221 271 L303 695 L201 695 L119 271 C88 108 170 -12 338 -12 L338 -12 Z " />
<glyph glyph-name="uogonek" unicode="&#x173;" horiz-adv-x="600" d="M258 -12 C332 -12 396 23 439 73 L425 0 L446 0 L433 -9 C376 -49 332 -96 332 -150 C332 -201 369 -231 424 -231 C465 -231 497 -216 520 -193 L493 -146 C480 -159 464 -166 447 -166 C424 -166 410 -154 410 -131 C410 -98 436 -72 468 -45 L521 0 L623 527 L522 527 L460 210 C443 132 379 79 304 79 C229 79 182 128 201 224 L259 527 L158 527 L96 207 C70 72 142 -12 258 -12 L258 -12 Z " />
<glyph glyph-name="Wcircumflex" unicode="&#x174;" horiz-adv-x="887" d="M175 0 L291 0 L542 554 L575 0 L691 0 L986 695 L883 695 L652 122 L620 695 L511 695 L256 122 L248 695 L149 695 L175 0 Z M398 766 L497 766 L596 853 L659 766 L745 766 L644 918 L562 918 L398 766 Z " />
<glyph glyph-name="wcircumflex" unicode="&#x175;" horiz-adv-x="786" d="M148 0 L266 0 L462 416 L498 0 L615 0 L855 527 L750 527 L569 98 L533 527 L425 527 L229 97 L207 527 L111 527 L148 0 Z M313 608 L407 608 L511 714 L576 608 L657 608 L560 776 L478 776 L313 608 Z " />
<glyph glyph-name="Ycircumflex" unicode="&#x176;" horiz-adv-x="626" d="M252 0 L354 0 L409 284 L739 695 L618 695 L372 373 L240 695 L137 695 L308 287 L252 0 Z M260 766 L359 766 L458 853 L521 766 L607 766 L506 918 L424 918 L260 766 Z " />
<glyph glyph-name="ycircumflex" unicode="&#x177;" horiz-adv-x="550" d="M208 0 L226 0 L119 -179 L220 -179 L629 527 L517 527 L283 94 L208 527 L107 527 L208 0 Z M196 608 L290 608 L394 714 L459 608 L540 608 L443 776 L361 776 L196 608 Z " />
<glyph glyph-name="Ydieresis" unicode="&#x178;" horiz-adv-x="626" d="M252 0 L354 0 L409 284 L739 695 L618 695 L372 373 L240 695 L137 695 L308 287 L252 0 Z M272 834 C272 794 299 770 336 770 C380 770 418 806 418 850 C418 888 393 914 354 914 C309 914 272 879 272 834 L272 834 Z M482 834 C482 794 509 770 546 770 C590 770 628 806 628 850 C628 888 604 914 565 914 C519 914 482 879 482 834 L482 834 Z " />
<glyph glyph-name="Zacute" unicode="&#x179;" horiz-adv-x="544" d="M24 0 L519 0 L535 91 L205 91 L648 695 L168 695 L151 606 L468 606 L24 0 Z M279 831 L301 762 L577 849 L553 928 L279 831 Z " />
<glyph glyph-name="zacute" unicode="&#x17a;" horiz-adv-x="512" d="M23 0 L486 0 L502 82 L212 82 L585 527 L141 527 L125 445 L399 445 L23 0 Z M216 654 L252 594 L493 722 L455 791 L216 654 Z " />
<glyph glyph-name="Zdotaccent" unicode="&#x17b;" horiz-adv-x="544" d="M24 0 L519 0 L535 91 L205 91 L648 695 L168 695 L151 606 L468 606 L24 0 Z M352 835 C352 796 382 770 418 770 C461 770 499 805 499 849 C499 886 472 913 434 913 C389 913 352 878 352 835 L352 835 Z " />
<glyph glyph-name="zdotaccent" unicode="&#x17c;" horiz-adv-x="512" d="M23 0 L486 0 L502 82 L212 82 L585 527 L141 527 L125 445 L399 445 L23 0 Z M274 682 C274 645 302 619 342 619 C388 619 426 657 426 701 C426 738 398 765 359 765 C312 765 274 726 274 682 L274 682 Z " />
<glyph glyph-name="Zcaron" unicode="&#x17d;" horiz-adv-x="544" d="M24 0 L519 0 L535 91 L205 91 L648 695 L168 695 L151 606 L468 606 L24 0 Z M272 918 L372 766 L455 766 L618 918 L520 918 L421 831 L358 918 L272 918 Z " />
<glyph glyph-name="zcaron" unicode="&#x17e;" horiz-adv-x="512" d="M23 0 L486 0 L502 82 L212 82 L585 527 L141 527 L125 445 L399 445 L23 0 Z M197 775 L294 607 L376 607 L541 775 L447 775 L342 669 L279 775 L197 775 Z " />
<glyph glyph-name="florin" unicode="&#x192;" horiz-adv-x="612" d="M205 389 L330 389 L236 93 C213 22 177 -16 113 -16 L49 -16 L34 -100 L117 -100 C238 -100 300 -36 336 75 L435 389 L577 389 L595 480 L464 480 L471 502 C493 574 529 611 594 611 L658 611 L673 695 L590 695 C471 695 408 634 371 520 L358 480 L223 480 L205 389 Z " />
<glyph glyph-name="uni01EA" unicode="&#x1ea;" horiz-adv-x="789" d="M407 -12 L420 -12 C369 -50 330 -94 330 -145 C330 -196 367 -226 422 -226 C463 -226 495 -211 518 -188 L491 -141 C478 -154 462 -161 445 -161 C422 -161 408 -149 408 -126 C408 -93 434 -67 466 -40 L518 4 C683 53 803 207 803 393 C803 581 678 707 493 707 C272 707 97 523 97 303 C97 118 222 -12 407 -12 L407 -12 Z M202 310 C202 473 327 611 485 611 C614 611 698 521 698 387 C698 223 573 84 414 84 C286 84 202 174 202 310 L202 310 Z " />
<glyph glyph-name="uni01EB" unicode="&#x1eb;" horiz-adv-x="625" d="M330 79 C240 79 182 142 182 234 C182 344 266 448 381 448 C470 448 528 386 528 295 C528 185 446 79 330 79 L330 79 Z M78 222 C78 79 176 -10 314 -12 C262 -50 223 -95 223 -146 C223 -197 260 -227 315 -227 C356 -227 388 -212 411 -189 L384 -142 C371 -155 355 -162 338 -162 C315 -162 301 -150 301 -127 C301 -94 327 -68 359 -41 L409 1 C541 41 631 167 631 304 C631 451 528 538 392 538 C215 538 78 392 78 222 L78 222 Z " />
<glyph glyph-name="AEacute" unicode="&#x1fc;" horiz-adv-x="932" d="M-14 0 L97 0 L226 182 L468 182 L433 0 L871 0 L888 89 L553 89 L596 314 L891 314 L909 403 L613 403 L652 606 L982 606 L999 695 L474 695 L-14 0 Z M288 269 L528 606 L551 606 L485 269 L288 269 Z M607 831 L629 762 L905 849 L881 928 L607 831 Z " />
<glyph glyph-name="aeacute" unicode="&#x1fd;" horiz-adv-x="1054" d="M289 -12 C369 -12 436 25 485 81 L469 0 L563 0 L584 106 C612 31 683 -12 772 -12 C867 -12 937 24 994 84 L932 145 C890 92 840 70 779 70 C686 70 623 130 623 228 L623 235 L1037 235 C1044 254 1053 299 1053 328 C1053 445 970 538 843 538 C766 538 697 501 648 438 L665 527 L571 527 L554 434 C525 500 465 538 379 538 C209 538 78 389 78 219 C78 81 163 -12 289 -12 L289 -12 Z M181 233 C181 348 268 449 380 449 C466 449 521 389 521 298 C521 181 435 78 324 78 C237 78 181 143 181 233 L181 233 Z M508 655 L544 595 L785 723 L747 792 L508 655 Z M632 297 C657 390 731 463 830 463 C914 463 962 410 962 326 C962 318 961 308 960 297 L632 297 Z " />
<glyph glyph-name="Oslashacute" unicode="&#x1fe;" horiz-adv-x="792" d="M408 -12 C627 -12 804 168 804 393 C804 463 787 524 756 574 L846 656 L798 713 L708 631 C654 679 581 707 494 707 C273 707 98 523 98 303 C98 234 116 172 147 122 L55 38 L104 -19 L196 64 C249 16 322 -12 408 -12 L408 -12 Z M203 310 C203 473 328 611 486 611 C544 611 593 593 630 560 L228 195 C212 228 203 266 203 310 L203 310 Z M273 135 L675 500 C690 468 699 430 699 387 C699 223 574 84 415 84 C357 84 309 102 273 135 L273 135 Z M386 831 L408 762 L684 849 L660 928 L386 831 Z " />
<glyph glyph-name="oslashacute" unicode="&#x1ff;" horiz-adv-x="644" d="M323 -12 C504 -12 636 138 636 304 C636 346 628 382 613 414 L692 474 L655 528 L576 468 C533 513 470 538 397 538 C220 538 83 392 83 222 C83 180 91 143 107 111 L27 50 L65 -5 L145 56 C188 12 250 -12 323 -12 L323 -12 Z M187 234 C187 344 271 448 386 448 C431 448 468 432 493 405 L195 178 C190 195 187 214 187 234 L187 234 Z M229 120 L526 347 C531 331 533 314 533 295 C533 185 451 79 335 79 C291 79 255 94 229 120 L229 120 Z M284 654 L320 594 L561 722 L523 791 L284 654 Z " />
<glyph glyph-name="uni0218" unicode="&#x218;" horiz-adv-x="553" d="M297 -12 C453 -12 553 72 553 201 C553 418 262 381 262 518 C262 579 314 619 392 619 C460 619 515 589 547 544 L618 614 C579 663 502 707 401 707 C255 707 157 624 157 505 C157 302 448 341 448 188 C448 120 397 77 313 77 C228 77 168 113 124 172 L45 103 C91 35 175 -12 297 -12 L297 -12 Z M195 -234 L235 -259 L287 -191 C317 -154 336 -127 336 -99 C336 -68 313 -49 283 -49 C246 -49 216 -79 216 -114 C216 -139 228 -156 247 -162 L195 -234 Z " />
<glyph glyph-name="uni0219" unicode="&#x219;" horiz-adv-x="468" d="M256 -12 C379 -12 476 53 476 158 C476 327 221 289 221 388 C221 429 267 456 323 456 C369 456 410 439 443 403 L510 469 C474 510 410 538 326 538 C202 538 117 473 117 378 C117 214 372 255 372 148 C372 101 316 73 265 73 C210 73 159 91 111 146 L37 72 C81 25 152 -12 256 -12 L256 -12 Z M150 -234 L190 -259 L242 -191 C272 -154 291 -127 291 -99 C291 -68 268 -49 238 -49 C201 -49 171 -79 171 -114 C171 -139 183 -156 202 -162 L150 -234 Z " />
<glyph glyph-name="uni021A" unicode="&#x21a;" horiz-adv-x="561" d="M221 0 L322 0 L439 604 L649 604 L667 695 L147 695 L129 604 L338 604 L221 0 Z M175 -234 L215 -259 L267 -191 C297 -154 316 -127 316 -99 C316 -68 293 -49 263 -49 C226 -49 196 -79 196 -114 C196 -139 208 -156 227 -162 L175 -234 Z " />
<glyph glyph-name="uni021B" unicode="&#x21b;" horiz-adv-x="380" d="M290 0 L357 0 L375 89 L327 89 C260 89 227 128 242 204 L288 440 L436 440 L453 527 L308 527 L335 663 L237 663 L221 578 C214 544 196 527 163 527 L112 527 L95 440 L187 440 L139 192 C117 74 172 0 290 0 L290 0 Z M150 -226 L190 -251 L242 -183 C272 -146 291 -119 291 -91 C291 -60 268 -41 238 -41 C201 -41 171 -71 171 -106 C171 -131 183 -148 202 -154 L150 -226 Z " />
<glyph glyph-name="uni0237" unicode="&#x237;" horiz-adv-x="230" d="M-80 -183 L-57 -183 C55 -183 143 -115 168 13 L268 527 L167 527 L67 11 C54 -55 8 -95 -47 -95 L-63 -95 L-80 -183 Z " />
<glyph glyph-name="circumflex" unicode="&#x2c6;" horiz-adv-x="353" d="M147 608 L241 608 L345 714 L410 608 L491 608 L394 776 L312 776 L147 608 Z " />
<glyph glyph-name="caron" unicode="&#x2c7;" horiz-adv-x="397" d="M276 608 L358 608 L523 776 L429 776 L324 670 L261 776 L179 776 L276 608 Z " />
<glyph glyph-name="breve" unicode="&#x2d8;" horiz-adv-x="352" d="M315 608 C424 608 479 684 496 776 L416 776 C408 728 376 684 321 684 C270 684 248 726 258 776 L179 776 C162 687 218 608 315 608 L315 608 Z " />
<glyph glyph-name="dotaccent" unicode="&#x2d9;" horiz-adv-x="168" d="M228 620 C274 620 312 658 312 702 C312 739 284 766 245 766 C198 766 160 727 160 683 C160 646 188 620 228 620 L228 620 Z " />
<glyph glyph-name="ring" unicode="&#x2da;" horiz-adv-x="243" d="M259 578 C328 578 385 632 385 697 C385 753 346 793 286 793 C217 793 160 739 160 674 C160 618 199 578 259 578 L259 578 Z M222 679 C222 711 248 735 279 735 C305 735 322 716 322 691 C322 659 295 636 265 636 C238 636 222 654 222 679 L222 679 Z " />
<glyph glyph-name="ogonek" unicode="&#x2db;" horiz-adv-x="264" d="M92 -230 C133 -230 165 -215 188 -192 L161 -145 C148 -158 132 -165 115 -165 C92 -165 78 -153 78 -130 C78 -97 104 -71 136 -44 L189 1 L157 30 L101 -8 C44 -48 0 -95 0 -149 C0 -200 37 -230 92 -230 L92 -230 Z " />
<glyph glyph-name="tilde" unicode="&#x2dc;" horiz-adv-x="428" d="M399 625 C459 625 500 671 518 726 L454 755 C443 726 425 709 399 709 C350 709 337 759 275 759 C215 759 175 713 156 658 L222 629 C232 659 249 675 275 675 C322 675 336 625 399 625 L399 625 Z " />
<glyph glyph-name="hungarumlaut" unicode="&#x2dd;" horiz-adv-x="359" d="M396 590 L551 748 L490 800 L343 635 L396 590 Z M145 635 L199 590 L354 748 L293 800 L145 635 Z " />
<glyph glyph-name="gravecomb" unicode="&#x300;" d="M375 588 L416 648 L197 791 L153 722 L375 588 Z " />
<glyph glyph-name="acutecomb" unicode="&#x301;" d="M187 595 L428 723 L390 792 L151 655 L187 595 Z " />
<glyph glyph-name="uni0302" unicode="&#x302;" d="M147 608 L241 608 L345 714 L410 608 L491 608 L394 776 L312 776 L147 608 Z " />
<glyph glyph-name="tildecomb" unicode="&#x303;" d="M399 625 C459 625 500 671 518 726 L454 755 C443 726 425 709 399 709 C350 709 337 759 275 759 C215 759 175 713 156 658 L222 629 C232 659 249 675 275 675 C322 675 336 625 399 625 L399 625 Z " />
<glyph glyph-name="uni0304" unicode="&#x304;" d="M155 652 L452 652 L467 728 L170 728 L155 652 Z " />
<glyph glyph-name="uni0306" unicode="&#x306;" d="M315 608 C424 608 479 684 496 776 L416 776 C408 728 376 684 321 684 C270 684 248 726 258 776 L179 776 C162 687 218 608 315 608 L315 608 Z " />
<glyph glyph-name="uni0307" unicode="&#x307;" d="M228 620 C274 620 312 658 312 702 C312 739 284 766 245 766 C198 766 160 727 160 683 C160 646 188 620 228 620 L228 620 Z " />
<glyph glyph-name="uni0308" unicode="&#x308;" d="M428 621 C472 621 510 658 510 698 C510 738 484 762 447 762 C403 762 365 726 365 686 C365 646 391 621 428 621 L428 621 Z M161 686 C161 646 187 621 224 621 C268 621 305 658 305 698 C305 738 280 762 243 762 C199 762 161 726 161 686 L161 686 Z " />
<glyph glyph-name="uni030A" unicode="&#x30a;" d="M259 578 C328 578 385 632 385 697 C385 753 346 793 286 793 C217 793 160 739 160 674 C160 618 199 578 259 578 L259 578 Z M222 679 C222 711 248 735 279 735 C305 735 322 716 322 691 C322 659 295 636 265 636 C238 636 222 654 222 679 L222 679 Z " />
<glyph glyph-name="uni030B" unicode="&#x30b;" d="M402 590 L557 748 L496 800 L349 635 L402 590 Z M151 635 L205 590 L360 748 L299 800 L151 635 Z " />
<glyph glyph-name="uni030C" unicode="&#x30c;" d="M276 608 L358 608 L523 776 L429 776 L324 670 L261 776 L179 776 L276 608 Z " />
<glyph glyph-name="uni0326" unicode="&#x326;" d="M25 -259 L77 -191 C107 -154 126 -127 126 -99 C126 -68 103 -49 73 -49 C36 -49 6 -79 6 -114 C6 -139 18 -156 37 -162 L-15 -234 L25 -259 Z " />
<glyph glyph-name="uni0327" unicode="&#x327;" d="M101 -241 C176 -241 230 -194 230 -135 C230 -95 203 -61 164 -52 L200 12 L137 12 L88 -70 L95 -81 L105 -81 C120 -81 131 -86 140 -93 L140 -94 L140 -93 C150 -103 156 -116 156 -131 C156 -161 131 -184 93 -184 C61 -184 43 -168 34 -151 L-8 -192 C9 -218 48 -241 101 -241 L101 -241 Z " />
<glyph glyph-name="uni0328" unicode="&#x328;" d="M92 -230 C133 -230 165 -215 188 -192 L161 -145 C148 -158 132 -165 115 -165 C92 -165 78 -153 78 -130 C78 -97 104 -71 136 -44 L189 1 L157 30 L101 -8 C44 -48 0 -95 0 -149 C0 -200 37 -230 92 -230 L92 -230 Z " />
<glyph glyph-name="uni0335" unicode="&#x335;" d="M74 238 L394 238 L407 310 L88 310 L74 238 Z " />
<glyph glyph-name="uni0336" unicode="&#x336;" d="M82 275 L727 275 L743 355 L97 355 L82 275 Z " />
<glyph glyph-name="uni0337" unicode="&#x337;" d="M117 176 L428 336 L396 397 L87 238 L117 176 Z " />
<glyph glyph-name="uni0338" unicode="&#x338;" d="M76 -4 L703 475 L666 529 L38 51 L76 -4 Z " />
<glyph glyph-name="Wgrave" unicode="&#x1e80;" horiz-adv-x="887" d="M175 0 L291 0 L542 554 L575 0 L691 0 L986 695 L883 695 L652 122 L620 695 L511 695 L256 122 L248 695 L149 695 L175 0 Z M439 851 L708 760 L734 829 L467 930 L439 851 Z " />
<glyph glyph-name="wgrave" unicode="&#x1e81;" horiz-adv-x="786" d="M148 0 L266 0 L462 416 L498 0 L615 0 L855 527 L750 527 L569 98 L533 527 L425 527 L229 97 L207 527 L111 527 L148 0 Z M372 722 L594 588 L635 648 L416 791 L372 722 Z " />
<glyph glyph-name="Wacute" unicode="&#x1e82;" horiz-adv-x="887" d="M175 0 L291 0 L542 554 L575 0 L691 0 L986 695 L883 695 L652 122 L620 695 L511 695 L256 122 L248 695 L149 695 L175 0 Z M429 831 L451 762 L727 849 L703 928 L429 831 Z " />
<glyph glyph-name="wacute" unicode="&#x1e83;" horiz-adv-x="786" d="M148 0 L266 0 L462 416 L498 0 L615 0 L855 527 L750 527 L569 98 L533 527 L425 527 L229 97 L207 527 L111 527 L148 0 Z M364 655 L400 595 L641 723 L603 792 L364 655 Z " />
<glyph glyph-name="Wdieresis" unicode="&#x1e84;" horiz-adv-x="887" d="M175 0 L291 0 L542 554 L575 0 L691 0 L986 695 L883 695 L652 122 L620 695 L511 695 L256 122 L248 695 L149 695 L175 0 Z M412 834 C412 794 439 770 476 770 C520 770 558 806 558 850 C558 888 533 914 494 914 C449 914 412 879 412 834 L412 834 Z M622 834 C622 794 649 770 686 770 C730 770 768 806 768 850 C768 888 744 914 705 914 C659 914 622 879 622 834 L622 834 Z " />
<glyph glyph-name="wdieresis" unicode="&#x1e85;" horiz-adv-x="786" d="M148 0 L266 0 L462 416 L498 0 L615 0 L855 527 L750 527 L569 98 L533 527 L425 527 L229 97 L207 527 L111 527 L148 0 Z M333 686 C333 646 359 621 396 621 C440 621 477 658 477 698 C477 738 452 762 415 762 C371 762 333 726 333 686 L333 686 Z M537 686 C537 646 563 621 600 621 C644 621 682 658 682 698 C682 738 656 762 619 762 C575 762 537 726 537 686 L537 686 Z " />
<glyph glyph-name="uni1E9E" unicode="&#x1e9e;" horiz-adv-x="627" d="M157 464 L67 0 L168 0 L258 462 C277 560 343 618 440 618 C505 618 545 592 566 549 L394 375 L383 317 L414 317 C482 317 529 273 526 204 C523 126 464 71 385 71 C339 71 301 88 268 116 L227 36 C259 9 310 -12 381 -12 C514 -12 616 70 627 196 C635 289 583 358 498 376 L671 551 C652 648 578 707 453 707 C301 707 186 616 157 464 L157 464 Z " />
<glyph glyph-name="Ygrave" unicode="&#x1ef2;" horiz-adv-x="626" d="M252 0 L354 0 L409 284 L739 695 L618 695 L372 373 L240 695 L137 695 L308 287 L252 0 Z M306 851 L575 760 L601 829 L334 930 L306 851 Z " />
<glyph glyph-name="ygrave" unicode="&#x1ef3;" horiz-adv-x="550" d="M208 0 L226 0 L119 -179 L220 -179 L629 527 L517 527 L283 94 L208 527 L107 527 L208 0 Z M255 722 L477 588 L518 648 L299 791 L255 722 Z " />
<glyph glyph-name="uni1EF8" unicode="&#x1ef8;" horiz-adv-x="626" d="M252 0 L354 0 L409 284 L739 695 L618 695 L372 373 L240 695 L137 695 L308 287 L252 0 Z M258 803 L323 773 C334 803 351 820 379 820 C429 820 445 770 511 770 C573 770 613 815 632 870 L567 900 C556 870 539 854 510 854 C459 854 443 904 379 904 C317 904 277 857 258 803 L258 803 Z " />
<glyph glyph-name="uni1EF9" unicode="&#x1ef9;" horiz-adv-x="550" d="M208 0 L226 0 L119 -179 L220 -179 L629 527 L517 527 L283 94 L208 527 L107 527 L208 0 Z M205 658 L271 629 C281 659 298 675 324 675 C371 675 385 625 448 625 C508 625 549 671 567 726 L503 755 C492 726 474 709 448 709 C399 709 386 759 324 759 C264 759 224 713 205 658 L205 658 Z " />
<glyph glyph-name="endash" unicode="&#x2013;" horiz-adv-x="501" d="M109 276 L498 276 L514 359 L125 359 L109 276 Z " />
<glyph glyph-name="emdash" unicode="&#x2014;" horiz-adv-x="755" d="M109 276 L752 276 L768 359 L125 359 L109 276 Z " />
<glyph glyph-name="quoteleft" unicode="&#x2018;" horiz-adv-x="203" d="M196 478 C233 478 268 507 268 548 C268 577 250 597 226 602 L300 714 L240 714 L172 614 C149 580 138 561 138 533 C138 503 161 478 196 478 L196 478 Z " />
<glyph glyph-name="quoteright" unicode="&#x2019;" horiz-adv-x="202" d="M135 483 L195 483 L263 583 C286 616 297 636 297 663 C297 694 274 719 239 719 C202 719 167 690 167 649 C167 620 185 600 209 595 L135 483 Z " />
<glyph glyph-name="quotesinglbase" unicode="&#x201a;" horiz-adv-x="203" d="M15 -121 L75 -121 L143 -21 C166 12 176 32 176 59 C176 90 153 115 118 115 C81 115 47 86 47 45 C47 16 64 -4 88 -9 L15 -121 Z " />
<glyph glyph-name="quotedblleft" unicode="&#x201c;" horiz-adv-x="363" d="M357 478 C394 478 428 507 428 548 C428 577 410 597 386 602 L460 714 L400 714 L332 614 C309 580 298 561 298 533 C298 503 321 478 357 478 L357 478 Z M138 533 C138 503 161 478 196 478 C233 478 268 507 268 548 C268 577 250 597 226 602 L300 714 L240 714 L172 614 C149 580 138 561 138 533 L138 533 Z " />
<glyph glyph-name="quotedblright" unicode="&#x201d;" horiz-adv-x="362" d="M295 483 L355 483 L424 583 C447 616 457 636 457 663 C457 694 434 719 399 719 C362 719 327 690 327 649 C327 620 345 600 369 595 L295 483 Z M135 483 L195 483 L263 583 C286 616 297 636 297 663 C297 694 274 719 239 719 C202 719 167 690 167 649 C167 620 185 600 209 595 L135 483 Z " />
<glyph glyph-name="quotedblbase" unicode="&#x201e;" horiz-adv-x="364" d="M175 -121 L235 -121 L303 -21 C326 12 336 32 336 59 C336 90 313 115 278 115 C241 115 207 86 207 45 C207 16 224 -4 248 -9 L175 -121 Z M15 -121 L75 -121 L143 -21 C166 12 176 32 176 59 C176 90 153 115 118 115 C81 115 47 86 47 45 C47 16 64 -4 88 -9 L15 -121 Z " />
<glyph glyph-name="dagger" unicode="&#x2020;" horiz-adv-x="344" d="M189 297 L266 297 L316 552 L409 552 L423 623 L330 623 L351 731 L274 731 L253 623 L160 623 L146 552 L239 552 L189 297 Z " />
<glyph glyph-name="daggerdbl" unicode="&#x2021;" horiz-adv-x="366" d="M199 297 L277 297 L294 382 L386 382 L401 454 L308 454 L331 574 L424 574 L438 646 L345 646 L362 731 L284 731 L267 646 L175 646 L161 574 L253 574 L230 454 L137 454 L124 382 L216 382 L199 297 Z " />
<glyph glyph-name="bullet" unicode="&#x2022;" horiz-adv-x="359" d="M231 229 C303 229 356 289 356 354 C356 412 316 452 256 452 C185 452 131 393 131 328 C131 269 172 229 231 229 L231 229 Z " />
<glyph glyph-name="ellipsis" unicode="&#x2026;" horiz-adv-x="585" d="M482 -9 C524 -9 555 24 555 63 C555 95 533 119 497 119 C456 119 425 85 425 47 C425 13 449 -9 482 -9 L482 -9 Z M48 47 C48 13 72 -9 106 -9 C147 -9 178 24 178 63 C178 95 156 119 120 119 C80 119 48 85 48 47 L48 47 Z M237 47 C237 13 261 -9 294 -9 C335 -9 367 24 367 63 C367 95 344 119 309 119 C268 119 237 85 237 47 L237 47 Z " />
<glyph glyph-name="perthousand" unicode="&#x2030;" horiz-adv-x="1058" d="M124 0 L204 0 L730 695 L651 695 L124 0 Z M128 520 C128 441 184 382 264 382 C367 382 441 475 441 567 C441 645 385 702 306 702 C206 702 128 614 128 520 L128 520 Z M197 526 C197 581 240 637 298 637 C342 637 373 605 373 559 C373 505 330 448 271 448 C228 448 197 480 197 526 L197 526 Z M416 130 C416 51 471 -7 552 -7 C654 -7 729 85 729 178 C729 255 673 313 593 313 C493 313 416 224 416 130 L416 130 Z M485 137 C485 192 528 247 586 247 C630 247 660 215 660 169 C660 115 618 58 559 58 C515 58 485 90 485 137 L485 137 Z M750 130 C750 51 805 -7 886 -7 C988 -7 1063 85 1063 178 C1063 255 1007 313 927 313 C827 313 750 224 750 130 L750 130 Z M818 137 C818 192 862 247 920 247 C964 247 994 215 994 169 C994 115 952 58 893 58 C849 58 818 90 818 137 L818 137 Z " />
<glyph glyph-name="guilsinglleft" unicode="&#x2039;" horiz-adv-x="287" d="M155 80 L244 80 L170 242 L318 416 L221 416 L79 248 L155 80 Z " />
<glyph glyph-name="guilsinglright" unicode="&#x203a;" horiz-adv-x="287" d="M62 80 L160 80 L302 248 L226 416 L136 416 L210 255 L62 80 Z " />
<glyph glyph-name="fraction" unicode="&#x2044;" horiz-adv-x="405" d="M-13 0 L62 0 L555 695 L479 695 L-13 0 Z " />
<glyph glyph-name="uni2074" unicode="&#x2074;" horiz-adv-x="321" d="M249 347 L314 347 L329 422 L366 422 L375 471 L338 471 L382 695 L317 695 L115 471 L106 422 L264 422 L249 347 Z M171 471 L302 616 L274 471 L171 471 Z " />
<glyph glyph-name="colonmonetary" unicode="&#x20a1;" horiz-adv-x="612" d="M603 105 L534 173 C495 119 440 84 372 84 C270 84 202 173 202 301 C202 466 296 611 431 611 C504 611 558 573 589 527 L664 602 C649 623 630 641 608 657 L659 794 L567 794 L529 694 C510 700 491 703 470 705 L503 794 L412 794 L376 701 C211 666 97 491 97 292 C97 216 116 150 150 99 L75 -99 L168 -99 L217 31 C233 19 251 10 270 3 L231 -99 L324 -99 L357 -12 L359 -12 C463 -12 544 30 603 105 L603 105 Z " />
<glyph glyph-name="franc" unicode="&#x20a3;" horiz-adv-x="612" d="M131 0 L233 0 L256 118 L476 118 L493 206 L273 206 L294 314 L572 314 L590 403 L311 403 L351 606 L665 606 L682 695 L266 695 L171 206 L92 206 L75 118 L154 118 L131 0 Z " />
<glyph glyph-name="lira" unicode="&#x20a4;" horiz-adv-x="612" d="M130 0 L528 0 L547 93 L254 93 L278 216 L473 216 L486 285 L292 285 L306 358 L500 358 L513 427 L319 427 L331 486 C346 564 400 614 474 614 C532 614 564 586 584 555 L661 633 C628 674 569 707 483 707 C345 707 252 626 225 488 L213 427 L136 427 L122 358 L200 358 L185 285 L109 285 L95 216 L172 216 L130 0 Z " />
<glyph glyph-name="peseta" unicode="&#x20a7;" horiz-adv-x="612" d="M89 0 L191 0 L246 282 L372 282 C497 282 592 344 624 439 L688 439 L706 532 L635 532 C627 633 553 695 435 695 L224 695 L192 532 L114 532 L96 439 L174 439 L89 0 Z M263 372 L309 606 L416 606 C490 606 531 568 531 502 C531 426 471 372 381 372 L263 372 Z " />
<glyph glyph-name="Euro" unicode="&#x20ac;" horiz-adv-x="612" d="M397 -12 C491 -12 569 25 624 104 L559 171 C522 116 470 84 409 84 C317 84 258 145 241 244 L409 244 L426 312 L236 312 C236 338 239 362 244 386 L436 386 L455 455 L265 455 C303 548 378 611 467 611 C534 611 591 574 620 520 L694 594 C652 664 565 707 469 707 C326 707 207 603 157 455 L99 455 L82 386 L140 386 C136 362 133 337 132 312 L72 312 L55 244 L135 244 C153 88 251 -12 397 -12 L397 -12 Z " />
<glyph glyph-name="uni20B1" unicode="&#x20b1;" horiz-adv-x="612" d="M89 0 L191 0 L246 282 L372 282 C459 282 532 312 579 363 L674 363 L692 456 L629 456 C634 474 636 493 636 513 L636 519 L704 519 L722 611 L611 611 C579 664 518 695 435 695 L224 695 L208 611 L130 611 L112 519 L190 519 L178 456 L100 456 L82 363 L160 363 L89 0 Z M263 372 L309 606 L416 606 C490 606 531 568 531 502 C531 426 471 372 381 372 L263 372 Z " />
<glyph glyph-name="uni20B5" unicode="&#x20b5;" horiz-adv-x="612" d="M603 105 L535 173 C495 119 441 84 373 84 C270 84 203 173 203 301 C203 466 296 611 431 611 C505 611 559 573 590 527 L665 602 C631 650 573 687 499 701 L518 794 L435 794 L418 706 C231 695 98 508 98 292 C98 139 175 26 295 -4 L277 -99 L359 -99 L376 -12 C473 -7 548 34 603 105 L603 105 Z " />
<glyph glyph-name="uni20B9" unicode="&#x20b9;" horiz-adv-x="612" d="M104 282 L353 0 L499 0 L243 282 L336 282 C462 282 556 345 588 441 L650 441 L668 533 L598 533 C596 559 590 582 579 602 L682 602 L700 695 L185 695 L167 602 L417 602 C457 593 482 569 491 533 L153 533 L136 441 L479 441 C456 399 408 372 345 372 L121 372 L104 282 Z " />
<glyph glyph-name="uni20BD" unicode="&#x20bd;" horiz-adv-x="612" d="M117 0 L218 0 L242 123 L467 123 L484 210 L259 210 L273 282 L399 282 C554 282 663 378 663 513 C663 625 588 695 462 695 L252 695 L189 372 L109 372 L93 282 L172 282 L158 210 L78 210 L61 123 L141 123 L117 0 Z M290 372 L336 606 L443 606 C517 606 558 568 558 502 C558 426 498 372 409 372 L290 372 Z " />
<glyph glyph-name="trademark" unicode="&#x2122;" horiz-adv-x="621" d="M474 431 L521 431 L614 595 L592 422 L644 422 L677 679 L614 679 L510 495 L482 679 L418 679 L346 422 L399 422 L447 597 L474 431 Z M147 629 L228 629 L188 422 L243 422 L283 629 L364 629 L373 679 L157 679 L147 629 Z " />
<glyph glyph-name="minus" unicode="&#x2212;" horiz-adv-x="465" d="M81 274 L489 274 L506 359 L98 359 L81 274 Z " />
<glyph glyph-name="infinity" unicode="&#x221e;" horiz-adv-x="2928" d="M151 -175 L286 -175 L286 62 C323 14 379 -17 457 -17 C598 -17 715 105 715 263 C715 419 598 540 457 540 C379 540 323 512 286 464 L286 527 L151 527 L151 -175 Z M286 263 C286 352 349 412 431 412 C515 412 577 352 577 263 C577 175 515 115 431 115 C349 115 286 175 286 263 L286 263 Z M745 263 C745 105 861 -17 999 -17 C1075 -17 1133 15 1171 62 L1171 -1 L1222 -1 L1306 81 L1306 527 L1171 527 L1171 464 C1133 512 1075 540 999 540 C861 540 745 419 745 263 L745 263 Z M880 263 C880 352 942 412 1024 412 C1109 412 1171 352 1171 263 C1171 175 1109 115 1024 115 C942 115 880 175 880 263 L880 263 Z M1293 -1 L2007 -1 C1965 30 1932 75 1913 127 L1611 127 L2001 527 L1385 527 L1385 396 L1687 396 L1293 -1 Z M1943 263 C1943 105 2056 -17 2230 -17 C2332 -17 2411 26 2460 97 L2351 162 C2327 130 2286 108 2233 108 C2163 108 2105 138 2086 206 L2480 206 C2484 224 2485 243 2485 263 C2485 419 2377 540 2221 540 C2057 540 1943 419 1943 263 L1943 263 Z M2084 311 C2099 381 2149 419 2221 419 C2277 419 2334 388 2351 311 L2084 311 Z M2525 395 C2525 303 2595 233 2688 233 C2780 233 2850 303 2850 395 C2850 488 2780 558 2688 558 C2595 558 2525 488 2525 395 L2525 395 Z M2560 395 C2560 471 2612 526 2688 526 C2763 526 2816 471 2816 395 C2816 320 2763 265 2688 265 C2612 265 2560 320 2560 395 L2560 395 Z M2625 303 L2657 303 L2657 381 L2683 381 L2734 303 L2768 303 L2714 382 C2737 384 2764 400 2764 437 C2764 475 2731 489 2698 489 L2625 489 L2625 303 Z M2657 407 L2657 464 L2692 464 C2713 464 2731 458 2731 437 C2731 411 2713 407 2692 407 L2657 407 Z " />
<glyph glyph-name="approxequal" unicode="&#x2248;" horiz-adv-x="520" d="M427 340 C478 340 518 365 548 403 L506 462 C485 437 457 423 429 423 C359 423 336 476 249 476 C198 476 158 452 129 413 L170 354 C191 380 219 394 247 394 C317 394 340 340 427 340 L427 340 Z M85 194 L127 134 C148 160 176 174 204 174 C274 174 297 120 384 120 C435 120 475 145 504 184 L463 243 C442 217 414 203 386 203 C316 203 293 257 206 257 C155 257 115 232 85 194 L85 194 Z " />
<glyph glyph-name="notequal" unicode="&#x2260;" horiz-adv-x="466" d="M108 30 L204 30 L258 140 L463 140 L480 225 L299 225 L372 373 L508 373 L525 459 L414 459 L467 568 L371 568 L318 459 L117 459 L100 373 L276 373 L203 225 L72 225 L55 140 L162 140 L108 30 Z " />
<glyph glyph-name="lozenge" unicode="&#x25ca;" horiz-adv-x="615" d="M467 431 L515 431 L607 593 L586 422 L638 422 L670 679 L607 679 L504 497 L475 679 L412 679 L340 422 L392 422 L441 597 L467 431 Z M114 456 C133 433 167 417 215 417 C274 417 317 449 317 498 C317 582 210 567 210 613 C210 631 227 642 252 642 C277 642 296 633 308 619 L341 652 C325 669 295 684 255 684 C197 684 158 653 158 609 C158 524 266 542 266 494 C266 473 249 459 222 459 C191 459 167 471 150 492 L114 456 Z " />
<glyph glyph-name="uniF8FF" unicode="&#xf8ff;" horiz-adv-x="2592" d="M1171 263 C1171 352 1109 412 1024 412 C942 412 880 352 880 263 C880 175 942 115 1024 115 C1109 115 1171 175 1171 263 L1171 263 Z M151 -175 L286 -175 L286 62 C323 14 379 -17 457 -17 C598 -17 715 105 715 263 C715 419 598 540 457 540 C379 540 323 512 286 464 L286 527 L151 527 L151 -175 Z M286 263 C286 352 349 412 431 412 C515 412 577 352 577 263 C577 175 515 115 431 115 C349 115 286 175 286 263 L286 263 Z M745 263 C745 419 861 540 999 540 C1075 540 1133 512 1171 464 L1171 527 L1306 527 L1306 81 L1222 -1 L1171 -1 L1171 62 C1133 15 1075 -17 999 -17 C861 -17 745 105 745 263 L745 263 Z M1293 -1 L1687 396 L1385 396 L1385 527 L2001 527 L1611 127 L1913 127 C1932 75 1965 30 2007 -1 L1293 -1 Z M1943 263 C1943 105 2056 -17 2230 -17 C2332 -17 2411 26 2460 97 L2351 162 C2327 130 2286 108 2233 108 C2163 108 2105 138 2086 206 L2480 206 C2484 224 2485 243 2485 263 C2485 419 2377 540 2221 540 C2057 540 1943 419 1943 263 L1943 263 Z M2084 311 C2099 381 2149 419 2221 419 C2277 419 2334 388 2351 311 L2084 311 Z " />
</font>
</svg>
