<svg width="33" height="32" viewBox="0 0 33 32" fill="none" xmlns="http://www.w3.org/2000/svg">
<g id="Open">
<g id="Subtract">
<mask id="path-1-inside-1_2876_578" fill="white">
<path fill-rule="evenodd" clip-rule="evenodd" d="M16.5 32C25.3366 32 32.5 24.8366 32.5 16C32.5 7.16344 25.3366 0 16.5 0C7.66344 0 0.5 7.16344 0.5 16C0.5 24.8366 7.66344 32 16.5 32ZM15.9211 8V15H8.5V17H15.9211V24H17.9211V17H24.5V15H17.9211V8H15.9211Z"/>
</mask>
<path fill-rule="evenodd" clip-rule="evenodd" d="M16.5 32C25.3366 32 32.5 24.8366 32.5 16C32.5 7.16344 25.3366 0 16.5 0C7.66344 0 0.5 7.16344 0.5 16C0.5 24.8366 7.66344 32 16.5 32ZM15.9211 8V15H8.5V17H15.9211V24H17.9211V17H24.5V15H17.9211V8H15.9211Z" fill="white"/>
<path d="M15.9211 15V17H17.9211V15H15.9211ZM15.9211 8V6H13.9211V8H15.9211ZM8.5 15V13H6.5V15H8.5ZM8.5 17H6.5V19H8.5V17ZM15.9211 17H17.9211V15H15.9211V17ZM15.9211 24H13.9211V26H15.9211V24ZM17.9211 24V26H19.9211V24H17.9211ZM17.9211 17V15H15.9211V17H17.9211ZM24.5 17V19H26.5V17H24.5ZM24.5 15H26.5V13H24.5V15ZM17.9211 15H15.9211V17H17.9211V15ZM17.9211 8H19.9211V6H17.9211V8ZM30.5 16C30.5 23.732 24.232 30 16.5 30V34C26.4411 34 34.5 25.9411 34.5 16H30.5ZM16.5 2C24.232 2 30.5 8.26801 30.5 16H34.5C34.5 6.05887 26.4411 -2 16.5 -2V2ZM2.5 16C2.5 8.26801 8.76801 2 16.5 2V-2C6.55887 -2 -1.5 6.05887 -1.5 16H2.5ZM16.5 30C8.76801 30 2.5 23.732 2.5 16H-1.5C-1.5 25.9411 6.55887 34 16.5 34V30ZM17.9211 15V8H13.9211V15H17.9211ZM8.5 17H15.9211V13H8.5V17ZM10.5 17V15H6.5V17H10.5ZM15.9211 15H8.5V19H15.9211V15ZM17.9211 24V17H13.9211V24H17.9211ZM17.9211 22H15.9211V26H17.9211V22ZM15.9211 17V24H19.9211V17H15.9211ZM24.5 15H17.9211V19H24.5V15ZM22.5 15V17H26.5V15H22.5ZM17.9211 17H24.5V13H17.9211V17ZM15.9211 8V15H19.9211V8H15.9211ZM15.9211 10H17.9211V6H15.9211V10Z" fill="white" mask="url(#path-1-inside-1_2876_578)"/>
</g>
</g>
</svg>
