<svg width="96" height="36" viewBox="0 0 96 36" fill="none" xmlns="http://www.w3.org/2000/svg">
<rect x="0.92308" width="94.1538" height="36" rx="4.68639" fill="#0F42F8"/>
<g clip-path="url(#clip0_2876_450)">
<path d="M47.589 24.5463L57.8014 14.2243H49.9633V10.9949H65.805L55.6666 21.3725H63.5929C64.0453 22.5964 64.8688 23.7318 65.9993 24.5463H47.589ZM68.0517 19.2071H78.2801C78.3615 18.7463 78.4157 18.2855 78.4157 17.7706C78.4157 13.7865 75.567 10.6155 71.5516 10.6155C67.2921 10.6155 64.3891 13.7323 64.3891 17.7706C64.3891 21.8089 67.2649 24.9257 71.8229 24.9257C74.4275 24.9257 76.4623 23.8688 77.7374 22.0258L74.9158 20.3996C74.319 21.1856 73.2337 21.7547 71.8772 21.7547C70.0323 21.7547 68.5401 20.9959 68.0517 19.2071ZM67.9975 16.4968C68.4044 14.7622 69.6796 13.7594 71.5516 13.7594C73.0167 13.7594 74.4818 14.5454 74.9158 16.4968H67.9975ZM25.969 10.6155C23.9885 10.6155 22.5505 11.3473 21.5738 12.594V10.9949H18.074V29.077H21.5738V22.9472C22.5505 24.194 23.9885 24.9257 25.969 24.9257C29.6046 24.9257 32.589 21.8089 32.589 17.7706C32.589 13.7323 29.6046 10.6155 25.969 10.6155ZM25.3179 21.5921C23.1745 21.5921 21.5738 20.0472 21.5738 17.7706C21.5738 15.494 23.1745 13.9491 25.3179 13.9491C27.4884 13.9491 29.0891 15.494 29.0891 17.7706C29.0891 20.0472 27.4884 21.5921 25.3179 21.5921ZM47.8935 22.3741L45.7444 24.5463H44.3936V22.9472C43.4169 24.1669 41.9518 24.9257 39.9713 24.9257C36.3629 24.9257 33.3785 21.8089 33.3785 17.7706C33.3785 13.7323 36.3629 10.6155 39.9713 10.6155C41.9518 10.6155 43.4169 11.3744 44.3936 12.594V10.9949H47.8935V22.3741ZM44.3936 17.7706C44.3936 15.494 42.7929 13.9491 40.6224 13.9491C38.4791 13.9491 36.8783 15.494 36.8783 17.7706C36.8783 20.0472 38.4791 21.5921 40.6224 21.5921C42.7929 21.5921 44.3936 20.0472 44.3936 17.7706Z" fill="white"/>
</g>
<path d="M80.522 11.205C80.3587 11.0866 80.15 11.0274 79.8957 11.0274C79.7927 11.0274 79.6913 11.0377 79.5916 11.0583C79.492 11.0789 79.4035 11.1133 79.3262 11.1613C79.2489 11.2094 79.1871 11.2737 79.1407 11.3543C79.0943 11.435 79.0711 11.5354 79.0711 11.6555C79.0711 11.7688 79.1046 11.8607 79.1716 11.931C79.2386 12.0014 79.3279 12.0589 79.4396 12.1035C79.5512 12.1482 79.6775 12.185 79.8185 12.2142C79.9593 12.2434 80.1027 12.2751 80.2488 12.3094C80.3948 12.3438 80.5382 12.3841 80.6791 12.4304C80.8201 12.4768 80.9463 12.5395 81.058 12.6183C81.1696 12.6974 81.259 12.7968 81.326 12.917C81.393 13.0372 81.4266 13.1881 81.4266 13.3701C81.4266 13.5657 81.3828 13.7331 81.2951 13.8721C81.2075 14.0111 81.0949 14.1244 80.9575 14.2119C80.8201 14.2994 80.6663 14.363 80.4962 14.4025C80.3261 14.4419 80.1568 14.4616 79.9885 14.4616C79.7824 14.4616 79.5873 14.4359 79.4035 14.3844C79.2197 14.3329 79.0582 14.2549 78.9191 14.1501C78.7799 14.0454 78.6699 13.9116 78.5892 13.7485C78.5084 13.5856 78.468 13.3924 78.468 13.1693H78.9319C78.9319 13.3238 78.962 13.4568 79.0221 13.5683C79.0822 13.6799 79.1613 13.7717 79.2593 13.8438C79.3572 13.9158 79.4714 13.9691 79.602 14.0034C79.7326 14.0377 79.8666 14.0549 80.004 14.0549C80.1139 14.0549 80.2247 14.0445 80.3364 14.024C80.448 14.0034 80.5485 13.9682 80.6379 13.9184C80.7272 13.8687 80.7994 13.8009 80.8544 13.7151C80.9094 13.6293 80.9369 13.5194 80.9369 13.3855C80.9369 13.2586 80.9034 13.1556 80.8364 13.0766C80.7693 12.9977 80.6799 12.9334 80.5684 12.8835C80.4566 12.8338 80.3304 12.7934 80.1895 12.7626C80.0486 12.7316 79.9052 12.6999 79.7592 12.6673C79.6131 12.6347 79.4697 12.597 79.3288 12.554C79.1879 12.5111 79.0616 12.4545 78.9499 12.3841C78.8383 12.3138 78.749 12.2228 78.6819 12.1112C78.615 11.9997 78.5815 11.8598 78.5815 11.6916C78.5815 11.5063 78.6192 11.3458 78.6949 11.2102C78.7704 11.0746 78.8709 10.963 78.9964 10.8755C79.1217 10.788 79.2644 10.7229 79.4241 10.6799C79.5839 10.637 79.748 10.6155 79.9164 10.6155C80.1053 10.6155 80.2805 10.6379 80.4421 10.6825C80.6036 10.7271 80.7453 10.7974 80.8673 10.8936C80.9893 10.9897 81.0855 11.1107 81.1559 11.2565C81.2263 11.4024 81.265 11.5766 81.2719 11.7791H80.808C80.7805 11.5148 80.6852 11.3235 80.522 11.205ZM82.6996 10.703L83.8593 13.7922L85.024 10.703H85.6941V14.3792H85.2302V11.3208H85.2199L84.0706 14.3792H83.6531L82.5037 11.3208H82.4934V14.3792H82.0296V10.703H82.6996Z" fill="white"/>
<defs>
<clipPath id="clip0_2876_450">
<rect width="60.7692" height="18.4615" fill="white" transform="translate(18.074 10.6155)"/>
</clipPath>
</defs>
</svg>
