<?xml version="1.0" encoding="UTF-8"?>
<svg xmlns="http://www.w3.org/2000/svg" xmlns:xlink="http://www.w3.org/1999/xlink" version="1.2" >
<font id="Paze Sans Bold">
<font-face  font-family="Paze Sans" units-per-em="1000" ascent="1040" descent="-345" font-style="normal" font-weight="700" font-stretch="normal" cap-height="695" x-height="527" underline-position="-100" underline-thickness="50" />
<missing-glyph  horiz-adv-x="630" d="M100 0 L530 0 L530 730 L100 730 L100 0 Z M140 73 L140 657 L293 365 L140 73 Z M165 35 L315 322 L465 35 L165 35 Z M165 695 L465 695 L315 408 L165 695 Z M338 365 L490 657 L490 73 L338 365 Z " />
<glyph glyph-name="NULL" d="" />
<glyph glyph-name="CR" unicode="&#xd;" horiz-adv-x="250" d="" />
<glyph glyph-name="space" unicode="&#x20;" horiz-adv-x="196" d="" />
<glyph glyph-name="exclam" unicode="&#x21;" horiz-adv-x="272" d="M77 242 L194 242 L221 731 L52 731 L77 242 Z M54 72 C54 26 89 -10 136 -10 C184 -10 220 26 220 72 C220 121 184 157 136 157 C89 157 54 121 54 72 L54 72 Z " />
<glyph glyph-name="quotedbl" unicode="&#x22;" horiz-adv-x="390" d="M232 452 L338 452 L349 715 L222 715 L232 452 Z M42 715 L53 452 L159 452 L171 715 L42 715 Z " />
<glyph glyph-name="numbersign" unicode="&#x23;" horiz-adv-x="700" d="M310 -31 L433 -31 L485 161 L606 161 L606 274 L516 274 L560 438 L674 438 L674 550 L591 550 L638 725 L516 725 L468 550 L343 550 L390 725 L270 725 L222 550 L97 550 L97 438 L192 438 L147 274 L28 274 L28 161 L116 161 L64 -31 L185 -31 L237 161 L362 161 L310 -31 Z M268 274 L312 438 L438 438 L393 274 L268 274 Z " />
<glyph glyph-name="dollar" unicode="&#x24;" horiz-adv-x="628" d="M271 -99 L390 -99 L390 -7 C509 15 579 90 579 191 C579 455 227 384 227 514 C227 554 263 581 326 581 C380 581 429 557 463 508 L565 611 C528 657 468 692 393 704 L393 794 L273 794 L273 703 C150 684 79 608 79 505 C79 257 429 327 429 188 C429 142 389 115 325 115 C254 115 193 157 154 210 L50 108 C93 51 172 2 271 -10 L271 -99 Z " />
<glyph glyph-name="percent" unicode="&#x25;" horiz-adv-x="774" d="M133 0 L246 1 L643 696 L529 695 L133 0 Z M23 541 C23 451 92 379 184 379 C278 379 345 451 345 541 C345 631 278 703 184 703 C92 703 23 631 23 541 L23 541 Z M118 541 C118 580 146 611 184 611 C223 611 250 580 250 541 C250 501 223 471 184 471 C146 471 118 501 118 541 L118 541 Z M429 154 C429 64 497 -8 590 -8 C684 -8 751 64 751 154 C751 244 684 316 590 316 C497 316 429 244 429 154 L429 154 Z M524 154 C524 193 551 224 590 224 C629 224 656 193 656 154 C656 114 628 84 590 84 C552 84 524 114 524 154 L524 154 Z " />
<glyph glyph-name="ampersand" unicode="&#x26;" horiz-adv-x="704" d="M36 187 C36 92 115 -13 268 -13 C366 -13 429 22 475 67 L537 0 L698 0 L564 147 C599 183 633 230 654 271 L561 364 C535 315 515 281 479 241 L380 349 C473 392 538 453 538 539 C538 645 442 708 331 708 C202 708 117 627 117 534 C117 473 138 435 182 384 C108 348 36 296 36 187 L36 187 Z M185 202 C185 251 223 277 263 296 L384 165 C355 136 320 118 278 118 C217 118 185 160 185 202 L185 202 Z M252 521 C252 562 281 593 330 593 C374 593 408 567 408 524 C408 476 356 449 306 429 C278 459 252 488 252 521 L252 521 Z " />
<glyph glyph-name="quotesingle" unicode="&#x27;" horiz-adv-x="212" d="M53 452 L159 452 L171 715 L42 715 L53 452 Z " />
<glyph glyph-name="parenleft" unicode="&#x28;" horiz-adv-x="346" d="M173 340 C173 493 226 606 343 712 L247 807 C112 699 33 542 33 340 C33 139 112 -18 247 -126 L343 -31 C226 75 173 188 173 340 L173 340 Z " />
<glyph glyph-name="parenright" unicode="&#x29;" horiz-adv-x="346" d="M173 340 C173 187 120 74 3 -32 L99 -127 C234 -19 313 138 313 340 C313 541 234 698 99 806 L3 711 C120 605 173 492 173 340 L173 340 Z " />
<glyph glyph-name="asterisk" unicode="&#x2a;" horiz-adv-x="418" d="M158 375 L260 375 L251 473 L332 414 L384 508 L291 551 L384 595 L332 688 L252 629 L261 731 L157 731 L166 629 L86 688 L33 595 L127 551 L33 508 L86 414 L167 473 L158 375 Z " />
<glyph glyph-name="plus" unicode="&#x2b;" horiz-adv-x="495" d="M182 96 L312 96 L312 265 L466 265 L466 390 L312 390 L312 563 L182 563 L182 390 L28 390 L28 265 L182 265 L182 96 Z " />
<glyph glyph-name="comma" unicode="&#x2c;" horiz-adv-x="230" d="M34 -123 L116 -123 L172 -11 C189 22 197 48 197 73 C197 123 160 158 114 158 C69 158 32 123 32 75 C32 32 57 5 94 -2 L34 -123 Z " />
<glyph glyph-name="hyphen" unicode="&#x2d;" horiz-adv-x="388" d="M51 267 L336 267 L336 387 L51 387 L51 267 Z " />
<glyph glyph-name="period" unicode="&#x2e;" horiz-adv-x="232" d="M116 -10 C163 -10 199 26 199 72 C199 121 163 157 116 157 C69 157 33 121 33 72 C33 26 69 -10 116 -10 L116 -10 Z " />
<glyph glyph-name="slash" unicode="&#x2f;" horiz-adv-x="374" d="M26 -50 L156 -50 L346 711 L218 711 L26 -50 Z " />
<glyph glyph-name="zero" unicode="0" horiz-adv-x="628" d="M314 -13 C485 -13 597 125 597 349 C597 577 486 707 314 707 C143 707 32 577 32 349 C32 125 143 -13 314 -13 L314 -13 Z M183 347 C183 489 235 567 314 567 C393 567 446 489 446 347 C446 205 393 128 314 128 C235 128 183 205 183 347 L183 347 Z " />
<glyph glyph-name="one" unicode="1" horiz-adv-x="628" d="M83 0 L559 0 L559 123 L397 123 L397 695 L250 695 L250 653 C250 615 232 596 196 596 L86 596 L86 474 L250 474 L250 123 L83 123 L83 0 Z " />
<glyph glyph-name="two" unicode="2" horiz-adv-x="628" d="M55 0 L564 0 L564 123 L271 123 L413 259 C500 338 549 407 549 501 C549 624 449 707 301 707 C178 707 99 647 49 582 L139 492 C190 553 233 581 295 581 C363 581 398 541 398 489 C398 429 354 381 298 329 L55 98 L55 0 Z " />
<glyph glyph-name="three" unicode="3" horiz-adv-x="628" d="M303 -13 C459 -13 571 82 571 208 C571 323 486 409 367 416 L535 579 L535 695 L73 695 L73 579 L368 579 L192 417 L192 319 L307 319 C369 319 417 281 417 218 C417 158 376 114 303 114 C235 114 188 147 143 202 L45 104 C93 35 184 -13 303 -13 L303 -13 Z " />
<glyph glyph-name="four" unicode="4" horiz-adv-x="628" d="M28 146 L364 146 L364 0 L511 0 L511 146 L587 146 L587 262 L511 262 L511 694 L365 694 L28 254 L28 146 Z M181 262 L365 504 L365 262 L181 262 Z " />
<glyph glyph-name="five" unicode="5" horiz-adv-x="628" d="M292 -13 C465 -13 566 86 566 220 C566 359 484 445 324 445 L221 445 L229 572 L516 572 L516 695 L111 695 L91 329 L298 329 C370 329 415 283 415 221 C415 161 375 113 297 113 C236 113 184 148 146 203 L49 106 C108 29 194 -13 292 -13 L292 -13 Z " />
<glyph glyph-name="six" unicode="6" horiz-adv-x="628" d="M318 -13 C468 -13 584 84 584 232 C584 374 478 463 329 467 L502 695 L330 695 L116 408 C86 368 50 309 50 231 C50 85 168 -13 318 -13 L318 -13 Z M201 231 C201 299 252 348 318 348 C384 348 433 299 433 231 C433 164 384 114 318 114 C252 114 201 164 201 231 L201 231 Z " />
<glyph glyph-name="seven" unicode="7" horiz-adv-x="628" d="M140 0 L305 0 L565 583 L565 694 L56 694 L56 571 L409 571 L140 0 Z " />
<glyph glyph-name="eight" unicode="8" horiz-adv-x="628" d="M314 -13 C464 -13 572 68 572 189 C572 272 517 338 439 366 C501 392 544 445 544 522 C544 627 462 707 314 707 C166 707 84 626 84 523 C84 446 127 393 185 367 C107 339 56 273 56 189 C56 68 164 -13 314 -13 L314 -13 Z M203 207 C203 265 248 308 314 308 C381 308 425 265 425 207 C425 149 382 107 314 107 C246 107 203 149 203 207 L203 207 Z M225 503 C225 554 261 587 314 587 C367 587 403 554 403 503 C403 454 367 418 314 418 C262 418 225 454 225 503 L225 503 Z " />
<glyph glyph-name="nine" unicode="9" horiz-adv-x="628" d="M127 0 L299 0 L513 287 C543 327 578 387 578 464 C578 610 461 707 310 707 C160 707 45 611 45 463 C45 321 151 232 300 228 L127 0 Z M196 464 C196 531 245 581 310 581 C376 581 427 531 427 464 C427 396 376 347 310 347 C245 347 196 396 196 464 L196 464 Z " />
<glyph glyph-name="colon" unicode="&#x3a;" horiz-adv-x="256" d="M128 300 C175 300 211 336 211 383 C211 431 175 467 128 467 C81 467 45 431 45 383 C45 336 81 300 128 300 L128 300 Z M45 72 C45 26 81 -10 128 -10 C175 -10 211 26 211 72 C211 121 175 157 128 157 C81 157 45 121 45 72 L45 72 Z " />
<glyph glyph-name="semicolon" unicode="&#x3b;" horiz-adv-x="257" d="M48 -123 L131 -123 L187 -11 C204 22 211 48 211 73 C211 123 174 158 129 158 C83 158 46 123 46 75 C46 31 72 5 109 -2 L48 -123 Z M45 382 C45 335 81 299 128 299 C176 299 212 335 212 382 C212 430 176 466 128 466 C81 466 45 430 45 382 L45 382 Z " />
<glyph glyph-name="less" unicode="&#x3c;" horiz-adv-x="435" d="M385 76 L385 210 L176 315 L385 420 L385 553 L25 359 L25 271 L385 76 Z " />
<glyph glyph-name="equal" unicode="&#x3d;" horiz-adv-x="533" d="M56 364 L477 364 L477 489 L56 489 L56 364 Z M56 132 L477 132 L477 256 L56 256 L56 132 Z " />
<glyph glyph-name="greater" unicode="&#x3e;" horiz-adv-x="435" d="M50 76 L410 271 L410 359 L50 553 L50 419 L260 315 L50 209 L50 76 Z " />
<glyph glyph-name="question" unicode="&#x3f;" horiz-adv-x="486" d="M151 279 L151 242 L278 242 L278 269 C278 377 456 392 456 555 C456 671 374 741 244 741 C140 741 68 693 26 631 L119 539 C152 579 185 599 227 599 C273 599 302 575 302 535 C302 448 151 425 151 279 L151 279 Z M132 72 C132 26 168 -10 215 -10 C263 -10 298 26 298 74 C298 121 263 157 215 157 C168 157 132 121 132 72 L132 72 Z " />
<glyph glyph-name="at" unicode="&#x40;" horiz-adv-x="940" d="M459 -132 C567 -132 655 -102 716 -43 L632 42 C595 7 537 -16 459 -16 C262 -16 141 118 141 310 C141 486 267 637 468 637 C679 637 793 511 793 337 C793 251 766 207 722 207 C692 207 673 227 673 262 L673 501 L580 501 L580 448 C548 491 500 516 440 516 C312 516 239 421 239 301 C239 183 325 86 447 86 C516 86 564 115 593 160 C616 117 660 90 722 90 C845 90 916 200 916 337 C916 580 742 754 468 754 C196 754 18 555 18 310 C18 52 192 -132 459 -132 L459 -132 Z M355 302 C355 365 399 410 457 410 C516 410 558 366 558 302 C558 238 516 193 457 193 C398 193 355 239 355 302 L355 302 Z " />
<glyph glyph-name="A" unicode="A" horiz-adv-x="653" d="M2 0 L149 0 L198 149 L456 149 L505 0 L651 0 L417 695 L236 695 L2 0 Z M238 270 L327 539 L416 270 L238 270 Z " />
<glyph glyph-name="B" unicode="B" horiz-adv-x="630" d="M64 0 L369 0 C515 0 597 80 597 197 C597 276 554 339 479 370 C537 403 573 460 573 526 C573 629 499 695 380 695 L64 695 L64 0 Z M211 119 L211 297 L346 297 C408 297 449 266 449 209 C449 152 412 119 347 119 L211 119 Z M211 416 L211 576 L336 576 C395 576 425 544 425 496 C425 447 388 416 334 416 L211 416 Z " />
<glyph glyph-name="C" unicode="C" horiz-adv-x="692" d="M393 -13 C525 -13 617 51 666 115 L563 218 C527 171 474 128 395 128 C273 128 185 216 185 347 C185 479 273 567 393 567 C472 567 526 524 562 477 L665 580 C615 644 523 708 392 708 C186 708 34 557 34 347 C34 138 186 -13 393 -13 L393 -13 Z " />
<glyph glyph-name="D" unicode="D" horiz-adv-x="724" d="M64 0 L335 0 C543 0 689 136 689 348 C689 560 543 695 335 695 L64 695 L64 0 Z M213 132 L213 563 L330 563 C453 563 538 485 538 346 C538 209 453 132 330 132 L213 132 Z " />
<glyph glyph-name="E" unicode="E" horiz-adv-x="572" d="M64 0 L536 0 L536 129 L213 129 L213 289 L493 289 L493 418 L213 418 L213 566 L530 566 L530 695 L64 695 L64 0 Z " />
<glyph glyph-name="F" unicode="F" horiz-adv-x="550" d="M64 0 L213 0 L213 283 L489 283 L489 412 L213 412 L213 566 L526 566 L526 695 L64 695 L64 0 Z " />
<glyph glyph-name="G" unicode="G" horiz-adv-x="775" d="M394 -13 C593 -13 746 123 746 373 L390 373 L390 261 L598 261 C570 173 497 121 400 121 C272 121 185 207 185 344 C185 479 269 567 391 567 C471 567 536 530 566 483 L674 590 C629 642 537 708 394 708 C188 708 34 556 34 347 C34 137 186 -13 394 -13 L394 -13 Z " />
<glyph glyph-name="H" unicode="H" horiz-adv-x="691" d="M478 0 L627 0 L627 695 L478 695 L478 421 L213 421 L213 695 L64 695 L64 0 L213 0 L213 288 L478 288 L478 0 Z " />
<glyph glyph-name="I" unicode="I" horiz-adv-x="277" d="M64 0 L213 0 L213 695 L64 695 L64 0 Z " />
<glyph glyph-name="J" unicode="J" horiz-adv-x="347" d="M21 0 L73 0 C215 0 289 83 289 215 L289 695 L140 695 L140 217 C140 163 113 132 61 132 L21 132 L21 0 Z " />
<glyph glyph-name="K" unicode="K" horiz-adv-x="646" d="M481 0 L652 0 L360 358 L642 695 L471 695 L213 390 L213 695 L64 695 L64 0 L213 0 L213 322 L481 0 Z " />
<glyph glyph-name="L" unicode="L" horiz-adv-x="543" d="M64 0 L531 0 L531 132 L213 132 L213 695 L64 695 L64 0 Z " />
<glyph glyph-name="M" unicode="M" horiz-adv-x="856" d="M367 23 L490 23 L640 478 L675 0 L813 0 L762 695 L590 695 L429 204 L267 695 L94 695 L44 0 L181 0 L217 479 L367 23 Z " />
<glyph glyph-name="N" unicode="N" horiz-adv-x="692" d="M504 0 L628 0 L628 695 L480 695 L480 253 L187 695 L64 695 L64 0 L212 0 L212 439 L504 0 Z " />
<glyph glyph-name="O" unicode="O" horiz-adv-x="792" d="M396 -13 C600 -13 758 143 758 347 C758 552 600 708 396 708 C192 708 33 552 33 347 C33 143 192 -13 396 -13 L396 -13 Z M184 348 C184 475 268 567 396 567 C524 567 607 475 607 348 C607 219 522 128 396 128 C270 128 184 219 184 348 L184 348 Z " />
<glyph glyph-name="P" unicode="P" horiz-adv-x="611" d="M64 0 L213 0 L213 257 L348 257 C496 257 591 344 591 476 C591 609 497 695 348 695 L64 695 L64 0 Z M213 387 L213 565 L340 565 C406 565 440 528 440 476 C440 424 406 387 340 387 L213 387 Z " />
<glyph glyph-name="Q" unicode="Q" horiz-adv-x="792" d="M639 -171 L744 -67 L613 56 C702 121 758 225 758 347 C758 552 600 708 396 708 C192 708 33 552 33 347 C33 143 192 -13 396 -13 C420 -13 443 -11 466 -7 L639 -171 Z M184 348 C184 475 268 567 396 567 C524 567 607 475 607 348 C607 219 522 128 396 128 C270 128 184 219 184 348 L184 348 Z " />
<glyph glyph-name="R" unicode="R" horiz-adv-x="626" d="M64 0 L211 0 L211 285 L240 285 L438 0 L603 0 L396 288 C516 305 591 384 591 490 C591 609 497 695 348 695 L64 695 L64 0 Z M211 390 L211 565 L344 565 C409 565 446 531 446 477 C446 424 409 390 344 390 L211 390 Z " />
<glyph glyph-name="S" unicode="S" horiz-adv-x="586" d="M286 -13 C449 -13 554 70 554 191 C554 455 198 381 198 509 C198 554 237 581 301 581 C364 581 411 554 445 517 L540 612 C498 660 420 708 309 708 C148 708 50 623 50 501 C50 253 403 329 403 188 C403 142 360 115 296 115 C219 115 161 149 118 200 L17 99 C68 36 160 -13 286 -13 L286 -13 Z " />
<glyph glyph-name="T" unicode="T" horiz-adv-x="585" d="M218 0 L367 0 L367 563 L572 563 L572 695 L13 695 L13 563 L218 563 L218 0 Z " />
<glyph glyph-name="U" unicode="U" horiz-adv-x="675" d="M338 -13 C526 -13 618 116 618 270 L618 695 L470 695 L470 270 C470 187 426 127 338 127 C250 127 206 187 206 270 L206 695 L57 695 L57 270 C57 116 150 -13 338 -13 L338 -13 Z " />
<glyph glyph-name="V" unicode="V" horiz-adv-x="662" d="M240 0 L422 0 L661 695 L507 695 L331 175 L155 695 L1 695 L240 0 Z " />
<glyph glyph-name="W" unicode="W" horiz-adv-x="914" d="M167 0 L340 0 L457 489 L574 0 L749 0 L908 695 L762 695 L659 172 L538 695 L377 695 L257 174 L154 695 L7 695 L167 0 Z " />
<glyph glyph-name="X" unicode="X" horiz-adv-x="668" d="M501 0 L672 0 L424 351 L661 695 L490 695 L341 470 L182 695 L11 695 L247 361 L-6 0 L164 0 L328 245 L501 0 Z " />
<glyph glyph-name="Y" unicode="Y" horiz-adv-x="650" d="M251 0 L399 0 L399 283 L653 695 L487 695 L325 411 L163 695 L-3 695 L251 283 L251 0 Z " />
<glyph glyph-name="Z" unicode="Z" horiz-adv-x="583" d="M29 0 L555 0 L555 133 L251 133 L550 695 L36 695 L36 565 L326 565 L29 0 Z " />
<glyph glyph-name="bracketleft" unicode="&#x5b;" horiz-adv-x="326" d="M63 -124 L299 -124 L299 -2 L201 -2 L201 682 L299 682 L299 804 L63 804 L63 -124 Z " />
<glyph glyph-name="backslash" unicode="&#x5c;" horiz-adv-x="376" d="M222 -50 L351 -50 L155 711 L27 711 L222 -50 Z " />
<glyph glyph-name="bracketright" unicode="&#x5d;" horiz-adv-x="326" d="M27 -124 L263 -124 L263 804 L27 804 L27 682 L125 682 L125 -2 L27 -2 L27 -124 Z " />
<glyph glyph-name="asciicircum" unicode="&#x5e;" horiz-adv-x="534" d="M28 357 L172 357 L267 522 L362 357 L506 357 L309 679 L220 679 L28 357 Z " />
<glyph glyph-name="underscore" unicode="&#x5f;" horiz-adv-x="563" d="M26 -141 L537 -141 L537 -21 L26 -21 L26 -141 Z " />
<glyph glyph-name="grave" unicode="&#x60;" horiz-adv-x="330" d="M276 572 L335 667 L97 822 L30 714 L276 572 Z " />
<glyph glyph-name="a" unicode="a" horiz-adv-x="643" d="M291 -13 C360 -13 415 13 453 58 L453 0 L590 0 L590 527 L453 527 L453 468 C415 513 360 539 291 539 C146 539 29 426 29 267 C29 108 139 -13 291 -13 L291 -13 Z M176 264 C176 348 233 409 312 409 C392 409 448 349 448 264 C448 177 392 118 312 118 C233 118 176 178 176 264 L176 264 Z " />
<glyph glyph-name="b" unicode="b" horiz-adv-x="643" d="M352 -13 C504 -13 614 106 614 263 C614 421 508 539 356 539 C293 539 240 518 201 481 L201 731 L53 731 L53 0 L190 0 L190 55 C229 12 284 -13 352 -13 L352 -13 Z M195 263 C195 349 250 409 332 409 C410 409 467 347 467 263 C467 179 410 118 332 118 C250 118 195 177 195 263 L195 263 Z " />
<glyph glyph-name="c" unicode="c" horiz-adv-x="538" d="M309 -13 C418 -13 486 36 523 77 L430 170 C409 145 371 119 318 119 C238 119 177 175 177 263 C177 351 238 407 318 407 C370 407 408 381 430 356 L523 449 C486 490 417 539 308 539 C145 539 28 418 28 263 C28 108 145 -13 309 -13 L309 -13 Z " />
<glyph glyph-name="d" unicode="d" horiz-adv-x="643" d="M291 -13 C359 -13 414 12 453 54 L453 0 L590 0 L590 731 L442 731 L442 481 C403 518 350 539 287 539 C136 539 29 421 29 263 C29 106 139 -13 291 -13 L291 -13 Z M176 263 C176 347 233 409 312 409 C393 409 448 349 448 263 C448 177 393 118 312 118 C233 118 176 179 176 263 L176 263 Z " />
<glyph glyph-name="e" unicode="e" horiz-adv-x="594" d="M308 -13 C428 -13 496 31 544 78 L455 167 C420 131 382 109 314 109 C242 109 188 149 171 218 L566 218 C568 231 569 251 569 274 C569 406 468 539 298 539 C147 539 26 416 26 263 C26 106 137 -13 308 -13 L308 -13 Z M169 314 C184 387 234 427 302 427 C370 427 417 384 431 314 L169 314 Z " />
<glyph glyph-name="f" unicode="f" horiz-adv-x="373" d="M98 527 L18 527 L18 401 L98 401 L98 0 L246 0 L246 401 L360 401 L360 527 L246 527 L246 542 C246 596 276 627 329 627 L361 627 L361 743 L324 743 C176 743 98 660 98 527 L98 527 Z " />
<glyph glyph-name="g" unicode="g" horiz-adv-x="642" d="M290 18 C360 18 415 44 453 88 L453 66 C453 -15 393 -68 294 -68 C233 -68 175 -48 144 -7 L50 -101 C99 -160 180 -192 300 -192 C488 -192 590 -81 590 80 L590 527 L453 527 L453 469 C415 513 360 539 290 539 C139 539 29 421 29 277 C29 133 138 18 290 18 L290 18 Z M176 270 C176 348 233 409 310 409 C389 409 444 350 444 270 C444 191 389 131 309 131 C233 131 176 192 176 270 L176 270 Z " />
<glyph glyph-name="h" unicode="h" horiz-adv-x="606" d="M411 303 L411 0 L558 0 L558 331 C558 454 478 539 352 539 C289 539 237 518 201 486 L201 731 L53 731 L53 0 L201 0 L201 312 C202 365 248 407 307 407 C367 408 411 369 411 303 L411 303 Z " />
<glyph glyph-name="i" unicode="i" horiz-adv-x="254" d="M53 0 L201 0 L201 527 L53 527 L53 0 Z M31 697 C31 642 73 604 127 604 C181 604 224 642 224 697 C224 752 181 792 127 792 C73 792 31 752 31 697 L31 697 Z " />
<glyph glyph-name="j" unicode="j" horiz-adv-x="257" d="M-39 -185 L-10 -185 C112 -185 204 -103 204 37 L204 527 L56 527 L56 35 C56 -22 22 -58 -29 -58 L-39 -58 L-39 -185 Z M37 698 C37 643 79 605 133 605 C187 605 230 643 230 698 C230 753 187 793 133 793 C79 793 37 753 37 698 L37 698 Z " />
<glyph glyph-name="k" unicode="k" horiz-adv-x="543" d="M53 0 L201 0 L201 239 L390 0 L551 0 L338 283 L548 527 L383 527 L201 319 L201 731 L53 731 L53 0 Z " />
<glyph glyph-name="l" unicode="l" horiz-adv-x="254" d="M53 0 L201 0 L201 731 L53 731 L53 0 Z " />
<glyph glyph-name="m" unicode="m" horiz-adv-x="927" d="M731 300 L731 0 L879 0 L879 328 C879 444 810 539 678 539 C594 539 536 507 505 462 C476 511 425 539 345 539 C279 539 226 513 193 477 L193 527 L53 527 L53 0 L201 0 L201 314 C202 358 234 407 298 407 C360 408 392 359 392 300 L392 0 L540 0 L540 314 C541 357 572 407 638 407 C700 408 731 358 731 300 L731 300 Z " />
<glyph glyph-name="n" unicode="n" horiz-adv-x="606" d="M411 303 L411 0 L558 0 L558 331 C558 454 478 539 352 539 C284 539 229 514 193 478 L193 527 L53 527 L53 0 L201 0 L201 312 C202 365 248 407 307 407 C367 408 411 369 411 303 L411 303 Z " />
<glyph glyph-name="o" unicode="o" horiz-adv-x="626" d="M313 -13 C479 -13 598 106 598 263 C598 421 479 539 313 539 C146 539 28 421 28 263 C28 106 146 -13 313 -13 L313 -13 Z M177 263 C177 348 232 407 314 407 C396 407 450 348 450 264 C450 179 394 119 314 119 C232 119 177 179 177 263 L177 263 Z " />
<glyph glyph-name="p" unicode="p" horiz-adv-x="643" d="M352 -13 C504 -13 614 106 614 263 C614 421 508 539 356 539 C287 539 230 514 190 469 L190 527 L53 527 L53 -179 L201 -179 L201 44 C239 7 290 -13 352 -13 L352 -13 Z M195 263 C195 349 250 409 332 409 C410 409 467 347 467 263 C467 179 410 118 332 118 C250 118 195 177 195 263 L195 263 Z " />
<glyph glyph-name="q" unicode="q" horiz-adv-x="643" d="M291 -13 C353 -13 404 7 442 43 L442 -179 L590 -179 L590 527 L453 527 L453 470 C413 514 356 539 287 539 C135 539 29 421 29 263 C29 106 139 -13 291 -13 L291 -13 Z M176 263 C176 347 233 409 312 409 C393 409 448 349 448 263 C448 177 393 118 312 118 C233 118 176 179 176 263 L176 263 Z " />
<glyph glyph-name="r" unicode="r" horiz-adv-x="359" d="M53 0 L201 0 L201 290 C201 360 254 400 344 400 L344 539 C282 539 229 514 193 475 L193 527 L53 527 L53 0 Z " />
<glyph glyph-name="s" unicode="s" horiz-adv-x="501" d="M248 -13 C388 -13 477 52 477 158 C477 270 382 299 304 320 C236 338 191 348 191 384 C191 413 221 429 263 429 C306 429 347 416 384 371 L469 456 C427 506 356 539 262 539 C129 539 46 465 46 377 C46 276 125 241 199 223 C288 201 331 191 331 151 C331 117 300 99 246 99 C195 99 143 123 108 168 L17 77 C66 19 148 -13 248 -13 L248 -13 Z " />
<glyph glyph-name="t" unicode="t" horiz-adv-x="403" d="M299 0 L386 0 L386 129 L330 129 C278 129 249 159 249 215 L249 401 L382 401 L382 527 L254 527 L254 666 L110 666 L110 584 C110 546 92 527 56 527 L11 527 L11 401 L101 401 L101 197 C101 78 168 0 299 0 L299 0 Z " />
<glyph glyph-name="u" unicode="u" horiz-adv-x="598" d="M252 -13 C315 -13 369 12 406 50 L406 0 L545 0 L545 527 L397 527 L397 215 C397 160 357 119 296 119 C234 119 196 160 196 218 L196 527 L48 527 L48 199 C48 79 118 -13 252 -13 L252 -13 Z " />
<glyph glyph-name="v" unicode="v" horiz-adv-x="563" d="M195 0 L367 0 L561 527 L408 527 L281 144 L155 527 L2 527 L195 0 Z " />
<glyph glyph-name="w" unicode="w" horiz-adv-x="814" d="M145 0 L320 0 L407 359 L497 0 L672 0 L808 527 L657 527 L577 147 L490 527 L325 527 L239 147 L158 527 L7 527 L145 0 Z " />
<glyph glyph-name="x" unicode="x" horiz-adv-x="558" d="M401 0 L564 0 L365 265 L560 527 L403 527 L286 370 L168 527 L4 527 L196 272 L-10 0 L147 0 L275 167 L401 0 Z " />
<glyph glyph-name="y" unicode="y" horiz-adv-x="565" d="M180 0 L229 0 L158 -179 L304 -179 L369 0 L563 527 L410 527 L276 118 L157 527 L4 527 L180 0 Z " />
<glyph glyph-name="z" unicode="z" horiz-adv-x="532" d="M20 0 L504 0 L504 119 L247 119 L511 527 L46 527 L46 408 L287 408 L20 0 Z " />
<glyph glyph-name="braceleft" unicode="&#x7b;" horiz-adv-x="347" d="M279 -124 L319 -124 L319 -2 L299 -2 C258 -2 235 24 235 70 L235 220 C235 284 211 316 164 340 C211 364 235 396 235 460 L235 610 C235 655 258 682 299 682 L319 682 L319 804 L279 804 C162 804 96 732 96 611 L96 457 C96 416 71 403 41 403 L17 403 L17 277 L41 277 C71 277 96 264 96 222 L96 68 C96 -53 162 -124 279 -124 L279 -124 Z " />
<glyph glyph-name="bar" unicode="&#x7c;" horiz-adv-x="235" d="M63 -94 L172 -94 L172 720 L63 720 L63 -94 Z " />
<glyph glyph-name="braceright" unicode="&#x7d;" horiz-adv-x="347" d="M29 -124 L68 -124 C185 -124 251 -53 251 68 L251 222 C251 264 276 277 306 277 L330 277 L330 403 L306 403 C276 403 251 416 251 457 L251 611 C251 732 185 804 68 804 L29 804 L29 682 L48 682 C89 682 112 655 112 610 L112 460 C112 396 137 364 183 340 C137 316 112 284 112 220 L112 70 C112 24 89 -2 48 -2 L29 -2 L29 -124 Z " />
<glyph glyph-name="asciitilde" unicode="&#x7e;" horiz-adv-x="524" d="M356 239 C410 239 457 267 488 318 L417 398 C401 371 369 360 338 360 C274 360 250 412 168 412 C115 412 67 384 37 333 L107 253 C124 280 155 292 187 292 C250 292 274 239 356 239 L356 239 Z " />
<glyph glyph-name="uni00A0" unicode="&#xa0;" horiz-adv-x="196" d="" />
<glyph glyph-name="exclamdown" unicode="&#xa1;" horiz-adv-x="263" d="M47 -179 L216 -179 L190 281 L72 281 L47 -179 Z M49 450 C49 402 84 366 131 366 C179 366 215 402 215 450 C215 497 179 533 131 533 C84 533 49 497 49 450 L49 450 Z " />
<glyph glyph-name="cent" unicode="&#xa2;" horiz-adv-x="628" d="M264 0 L384 0 L384 93 C480 115 537 186 553 240 L425 291 C414 248 378 218 326 218 C267 218 221 261 221 330 C221 401 267 444 326 444 C379 444 411 414 423 369 L551 419 C534 475 478 545 384 567 L384 661 L264 661 L264 567 C154 542 81 446 81 329 C81 213 155 119 264 94 L264 0 Z " />
<glyph glyph-name="sterling" unicode="&#xa3;" horiz-adv-x="628" d="M123 0 L574 0 L574 129 L272 129 L272 278 L471 278 L471 407 L272 407 L272 478 C272 533 308 579 379 579 C430 579 462 548 481 522 L588 612 C554 660 484 708 372 708 C224 708 123 605 123 478 L123 407 L49 407 L49 278 L123 278 L123 0 Z " />
<glyph glyph-name="currency" unicode="&#xa4;" horiz-adv-x="628" d="M324 111 C365 111 402 120 434 137 L486 85 L571 169 L521 219 C540 252 551 290 551 331 C551 372 540 410 521 444 L571 493 L486 578 L434 526 C402 542 365 552 324 552 C283 552 246 542 214 526 L162 578 L77 493 L127 443 C108 410 97 372 97 331 C97 290 108 252 127 219 L77 169 L162 85 L214 137 C246 120 283 111 324 111 L324 111 Z M225 331 C225 391 266 432 324 432 C381 432 422 391 422 331 C422 271 381 230 324 230 C267 230 225 271 225 331 L225 331 Z " />
<glyph glyph-name="yen" unicode="&#xa5;" horiz-adv-x="628" d="M240 0 L387 0 L387 88 L517 88 L517 181 L387 181 L387 227 L517 227 L517 320 L410 320 L616 695 L457 695 L315 403 L171 695 L13 695 L217 320 L110 320 L110 227 L240 227 L240 181 L110 181 L110 88 L240 88 L240 0 Z " />
<glyph glyph-name="brokenbar" unicode="&#xa6;" horiz-adv-x="235" d="M63 394 L172 394 L172 720 L63 720 L63 394 Z M63 -94 L172 -94 L172 232 L63 232 L63 -94 Z " />
<glyph glyph-name="section" unicode="&#xa7;" horiz-adv-x="526" d="M259 -135 C383 -135 475 -70 475 43 C475 96 453 131 421 155 C465 186 491 231 491 291 C491 491 202 434 202 542 C202 573 230 594 276 594 C317 594 354 579 386 544 L469 627 C428 672 360 700 273 700 C147 700 61 640 61 534 C61 478 85 443 118 418 C70 390 41 345 41 287 C41 91 334 138 334 29 C334 -9 302 -32 258 -32 C196 -32 149 0 116 40 L33 -43 C71 -93 149 -135 259 -135 L259 -135 Z M181 299 C181 330 201 356 249 361 C305 342 351 324 351 278 C351 242 328 220 295 213 C234 233 181 251 181 299 L181 299 Z " />
<glyph glyph-name="dieresis" unicode="&#xa8;" horiz-adv-x="444" d="M357 607 C410 607 451 645 451 697 C451 750 410 789 360 789 C308 789 266 753 266 700 C266 645 308 607 357 607 L357 607 Z M30 700 C30 645 72 607 121 607 C173 607 214 645 214 697 C214 750 174 789 124 789 C72 789 30 753 30 700 L30 700 Z " />
<glyph glyph-name="copyright" unicode="&#xa9;" horiz-adv-x="763" d="M382 -13 C589 -13 728 129 728 329 C728 524 589 674 382 674 C175 674 36 524 36 329 C36 129 175 -13 382 -13 L382 -13 Z M132 329 C132 471 236 582 382 582 C526 582 632 471 632 329 C632 180 526 79 382 79 C236 79 132 180 132 329 L132 329 Z M198 332 C198 227 277 144 386 144 C457 144 505 173 533 205 L461 274 C447 256 424 243 393 243 C344 243 308 278 308 332 C308 386 344 420 393 420 C424 420 447 407 461 389 L534 459 C505 491 457 520 386 520 C277 520 198 437 198 332 L198 332 Z " />
<glyph glyph-name="ordfeminine" unicode="&#xaa;" horiz-adv-x="396" d="M169 516 C216 516 251 535 274 566 L274 525 L351 525 L351 821 L274 821 L274 783 C252 811 218 828 169 828 C89 828 23 766 23 673 C23 581 88 516 169 516 L169 516 Z M125 673 C125 708 150 735 187 735 C226 735 250 707 250 673 C250 638 226 611 187 611 C150 611 125 639 125 673 L125 673 Z " />
<glyph glyph-name="guillemotleft" unicode="&#xab;" horiz-adv-x="518" d="M338 72 L476 72 L360 244 L476 415 L338 415 L223 244 L338 72 Z M25 244 L141 72 L278 72 L163 244 L278 415 L141 415 L25 244 Z " />
<glyph glyph-name="logicalnot" unicode="&#xac;" horiz-adv-x="523" d="M45 270 L327 270 L327 125 L465 125 L465 395 L45 395 L45 270 Z " />
<glyph glyph-name="registered" unicode="&#xae;" horiz-adv-x="518" d="M260 264 C383 264 481 360 481 485 C481 610 384 708 260 708 C132 708 37 610 37 485 C37 361 132 264 260 264 L260 264 Z M96 485 C96 580 168 648 260 648 C351 648 421 578 421 485 C421 390 351 322 260 322 C168 322 96 390 96 485 L96 485 Z M184 381 L239 381 L239 466 L249 466 L297 381 L356 381 L304 471 C330 480 347 502 347 533 C347 574 316 599 275 599 L184 599 L184 381 Z M239 509 L239 556 L265 556 C284 556 293 547 293 533 C293 518 284 509 265 509 L239 509 Z " />
<glyph glyph-name="macron" unicode="&#xaf;" horiz-adv-x="353" d="M30 640 L363 640 L363 758 L30 758 L30 640 Z " />
<glyph glyph-name="degree" unicode="&#xb0;" horiz-adv-x="392" d="M196 372 C294 372 364 439 364 536 C364 630 294 699 197 699 C99 699 27 630 27 535 C27 440 98 372 196 372 L196 372 Z M122 535 C122 578 155 611 196 611 C237 611 270 578 270 535 C270 490 239 459 196 459 C154 459 122 491 122 535 L122 535 Z " />
<glyph glyph-name="plusminus" unicode="&#xb1;" horiz-adv-x="520" d="M195 199 L325 199 L325 350 L472 350 L472 475 L325 475 L325 630 L195 630 L195 475 L48 475 L48 350 L195 350 L195 199 Z M48 23 L472 23 L472 148 L48 148 L48 23 Z " />
<glyph glyph-name="uni00B2" unicode="&#xb2;" horiz-adv-x="346" d="M43 347 L303 347 L303 425 L179 425 L228 471 C278 516 297 554 297 596 C297 657 251 701 169 701 C101 701 60 667 36 637 L95 579 C117 610 136 621 161 621 C188 621 202 605 202 587 C202 564 185 542 155 514 L43 409 L43 347 Z " />
<glyph glyph-name="uni00B3" unicode="&#xb3;" horiz-adv-x="325" d="M154 340 C239 340 294 389 294 453 C294 508 256 548 203 557 L274 622 L274 695 L44 695 L44 621 L173 621 L99 558 L99 497 L157 497 C181 497 198 483 198 459 C198 438 183 420 150 420 C128 420 107 432 91 449 L28 385 C50 360 91 340 154 340 L154 340 Z " />
<glyph glyph-name="acute" unicode="&#xb4;" horiz-adv-x="333" d="M89 572 L335 714 L268 822 L30 667 L89 572 Z " />
<glyph glyph-name="uni00B5" unicode="&#xb5;" horiz-adv-x="3095" d="M406 540 C328 540 272 512 235 464 L235 527 L100 527 L100 -175 L235 -175 L235 62 C272 14 328 -17 406 -17 C547 -17 664 105 664 263 C664 419 547 540 406 540 L406 540 Z M235 263 C235 352 298 412 380 412 C464 412 526 352 526 263 C526 175 464 115 380 115 C298 115 235 175 235 263 L235 263 Z M694 263 C694 419 810 540 948 540 C1024 540 1082 512 1120 464 L1120 527 L1255 527 L1255 81 L1171 -1 L1120 -1 L1120 62 C1082 15 1024 -17 948 -17 C810 -17 694 105 694 263 L694 263 Z M829 263 C829 175 891 115 973 115 C1058 115 1120 175 1120 263 C1120 352 1058 412 973 412 C891 412 829 352 829 263 L829 263 Z M1242 -1 L1636 396 L1334 396 L1334 527 L1950 527 L1560 127 L1862 127 C1881 75 1914 30 1956 -1 L1242 -1 Z M1892 263 C1892 105 2005 -17 2179 -17 C2281 -17 2360 26 2409 97 L2300 162 C2276 130 2235 108 2182 108 C2112 108 2054 138 2035 206 L2429 206 C2433 224 2434 243 2434 263 C2434 419 2326 540 2170 540 C2006 540 1892 419 1892 263 L1892 263 Z M2033 311 C2048 381 2098 419 2170 419 C2226 419 2283 388 2300 311 L2033 311 Z M2482 310 C2501 281 2535 261 2581 261 C2640 261 2678 291 2678 335 C2678 435 2541 407 2541 462 C2541 479 2558 491 2585 491 C2607 491 2626 480 2640 458 L2673 493 C2658 517 2625 532 2587 532 C2530 532 2493 503 2493 458 C2493 365 2629 394 2629 334 C2629 315 2612 301 2584 301 C2554 301 2532 318 2515 343 L2482 310 Z M2716 267 L2762 267 L2775 456 L2836 277 L2876 277 L2938 456 L2951 267 L2995 267 L2978 525 L2923 525 L2856 331 L2790 525 L2736 525 L2716 267 Z " />
<glyph glyph-name="paragraph" unicode="&#xb6;" horiz-adv-x="647" d="M266 257 L337 257 L337 572 L378 572 L378 -100 L456 -100 L456 572 L497 572 L497 -100 L575 -100 L575 695 L266 695 C117 695 23 609 23 476 C23 344 118 257 266 257 L266 257 Z " />
<glyph glyph-name="periodcentered" unicode="&#xb7;" horiz-adv-x="243" d="M121 252 C169 252 204 288 204 335 C204 383 169 419 121 419 C74 419 38 383 38 335 C38 288 74 252 121 252 L121 252 Z " />
<glyph glyph-name="cedilla" unicode="&#xb8;" horiz-adv-x="273" d="M153 -242 C231 -242 284 -199 284 -136 C284 -86 251 -48 207 -43 L230 17 L141 17 L108 -75 L115 -82 L131 -82 C161 -82 178 -101 178 -123 C178 -144 161 -161 133 -161 C107 -161 91 -149 79 -134 L30 -194 C53 -221 98 -242 153 -242 L153 -242 Z " />
<glyph glyph-name="uni00B9" unicode="&#xb9;" horiz-adv-x="292" d="M45 347 L260 347 L260 430 L211 430 L211 695 L112 695 L112 665 C112 651 106 643 91 643 L46 643 L46 560 L112 560 L112 430 L45 430 L45 347 Z " />
<glyph glyph-name="ordmasculine" unicode="&#xba;" horiz-adv-x="369" d="M184 516 C280 516 347 584 347 673 C347 763 280 831 184 831 C89 831 23 763 23 673 C23 584 89 516 184 516 L184 516 Z M123 673 C123 711 144 738 184 738 C224 738 245 711 245 673 C245 636 224 610 184 610 C144 610 123 636 123 673 L123 673 Z " />
<glyph glyph-name="guillemotright" unicode="&#xbb;" horiz-adv-x="518" d="M240 72 L377 72 L492 244 L377 415 L240 415 L355 244 L240 72 Z M42 72 L179 72 L295 244 L179 415 L42 415 L157 244 L42 72 Z " />
<glyph glyph-name="onequarter" unicode="&#xbc;" horiz-adv-x="675" d="M33 347 L248 347 L248 430 L199 430 L199 695 L100 695 L100 665 C100 651 94 643 79 643 L34 643 L34 560 L100 560 L100 430 L33 430 L33 347 Z M129 0 L236 0 L580 695 L472 695 L129 0 Z M369 66 L522 66 L522 0 L615 0 L615 66 L647 66 L647 133 L615 133 L615 348 L523 348 L369 135 L369 66 Z M442 133 L523 245 L523 133 L442 133 Z " />
<glyph glyph-name="onehalf" unicode="&#xbd;" horiz-adv-x="711" d="M33 347 L248 347 L248 430 L199 430 L199 695 L100 695 L100 665 C100 651 94 643 79 643 L34 643 L34 560 L100 560 L100 430 L33 430 L33 347 Z M127 0 L234 0 L578 695 L470 695 L127 0 Z M417 290 L476 232 C498 263 517 274 542 274 C569 274 583 258 583 240 C583 217 566 195 536 167 L424 62 L424 0 L684 0 L684 78 L560 78 L609 124 C659 169 678 207 678 249 C678 310 632 354 550 354 C482 354 441 320 417 290 L417 290 Z " />
<glyph glyph-name="threequarters" unicode="&#xbe;" horiz-adv-x="696" d="M151 340 C236 340 291 389 291 453 C291 508 253 548 200 557 L271 622 L271 695 L41 695 L41 621 L170 621 L96 558 L96 497 L154 497 C178 497 195 483 195 459 C195 438 180 420 147 420 C125 420 104 432 88 449 L25 385 C47 360 88 340 151 340 L151 340 Z M149 0 L256 0 L600 695 L492 695 L149 0 Z M383 66 L536 66 L536 0 L629 0 L629 66 L661 66 L661 133 L629 133 L629 348 L537 348 L383 135 L383 66 Z M456 133 L537 245 L537 133 L456 133 Z " />
<glyph glyph-name="questiondown" unicode="&#xbf;" horiz-adv-x="481" d="M269 365 C316 365 352 401 352 450 C352 496 316 532 269 532 C222 532 186 496 186 449 C186 402 221 365 269 365 L269 365 Z M28 -8 C28 -119 111 -189 243 -189 C347 -189 419 -140 460 -78 L368 14 C332 -28 300 -47 257 -47 C212 -47 182 -22 182 18 C182 103 333 115 333 253 L333 281 L206 281 L206 263 C206 162 28 150 28 -8 L28 -8 Z " />
<glyph glyph-name="Agrave" unicode="&#xc0;" horiz-adv-x="653" d="M2 0 L149 0 L198 149 L456 149 L505 0 L651 0 L417 695 L236 695 L2 0 Z M162 835 L458 747 L491 854 L199 956 L162 835 Z M238 270 L327 539 L416 270 L238 270 Z " />
<glyph glyph-name="Aacute" unicode="&#xc1;" horiz-adv-x="653" d="M2 0 L149 0 L198 149 L456 149 L505 0 L651 0 L417 695 L236 695 L2 0 Z M172 854 L205 747 L501 835 L465 956 L172 854 Z M238 270 L327 539 L416 270 L238 270 Z " />
<glyph glyph-name="Acircumflex" unicode="&#xc2;" horiz-adv-x="653" d="M2 0 L149 0 L198 149 L456 149 L505 0 L651 0 L417 695 L236 695 L2 0 Z M121 760 L253 760 L326 844 L399 760 L531 760 L388 941 L268 941 L121 760 Z M238 270 L327 539 L416 270 L238 270 Z " />
<glyph glyph-name="Atilde" unicode="&#xc3;" horiz-adv-x="653" d="M2 0 L149 0 L198 149 L456 149 L505 0 L651 0 L417 695 L236 695 L2 0 Z M125 807 L226 764 C233 791 249 807 275 807 C321 807 340 758 408 758 C486 758 528 820 544 880 L443 923 C436 896 419 880 394 880 C351 880 329 928 262 928 C182 928 139 863 125 807 L125 807 Z M238 270 L327 539 L416 270 L238 270 Z " />
<glyph glyph-name="Adieresis" unicode="&#xc4;" horiz-adv-x="653" d="M2 0 L149 0 L198 149 L456 149 L505 0 L651 0 L417 695 L236 695 L2 0 Z M109 851 C109 795 152 756 203 756 C257 756 299 795 299 849 C299 904 258 944 206 944 C152 944 109 907 109 851 L109 851 Z M238 270 L327 539 L416 270 L238 270 Z M353 851 C353 795 396 756 447 756 C501 756 543 795 543 849 C543 904 502 944 449 944 C396 944 353 907 353 851 L353 851 Z " />
<glyph glyph-name="Aring" unicode="&#xc5;" horiz-adv-x="653" d="M2 0 L149 0 L198 149 L456 149 L505 0 L651 0 L417 695 L345 695 C414 703 460 752 460 821 C460 894 405 947 327 947 C250 947 194 894 194 821 C194 752 241 703 309 695 L236 695 L2 0 Z M238 270 L327 539 L416 270 L238 270 Z M280 821 C280 847 300 865 327 865 C354 865 373 847 373 821 C373 794 354 776 327 776 C300 776 280 794 280 821 L280 821 Z " />
<glyph glyph-name="AE" unicode="&#xc6;" horiz-adv-x="948" d="M-16 0 L139 0 L207 143 L441 143 L441 0 L912 0 L912 129 L590 129 L590 289 L870 289 L870 418 L590 418 L590 566 L907 566 L907 695 L314 695 L-16 0 Z M268 270 L410 566 L441 566 L441 270 L268 270 Z " />
<glyph glyph-name="Ccedilla" unicode="&#xc7;" horiz-adv-x="693" d="M371 -242 C449 -242 502 -199 502 -136 C502 -86 469 -48 425 -43 L437 -11 C546 2 623 58 666 115 L563 218 C527 171 474 128 395 128 C273 128 185 216 185 347 C185 479 273 567 393 567 C472 567 526 524 562 477 L665 580 C615 644 523 708 392 708 C186 708 34 557 34 347 C34 153 165 9 349 -11 L326 -75 L333 -82 L349 -82 C379 -82 396 -101 396 -123 C396 -144 379 -161 351 -161 C325 -161 309 -149 297 -134 L248 -194 C271 -221 316 -242 371 -242 L371 -242 Z " />
<glyph glyph-name="Egrave" unicode="&#xc8;" horiz-adv-x="572" d="M64 0 L536 0 L536 129 L213 129 L213 289 L493 289 L493 418 L213 418 L213 566 L530 566 L530 695 L64 695 L64 0 Z M133 835 L429 747 L462 854 L170 956 L133 835 Z " />
<glyph glyph-name="Eacute" unicode="&#xc9;" horiz-adv-x="572" d="M64 0 L536 0 L536 129 L213 129 L213 289 L493 289 L493 418 L213 418 L213 566 L530 566 L530 695 L64 695 L64 0 Z M143 854 L176 747 L472 835 L436 956 L143 854 Z " />
<glyph glyph-name="Ecircumflex" unicode="&#xca;" horiz-adv-x="572" d="M64 0 L536 0 L536 129 L213 129 L213 289 L493 289 L493 418 L213 418 L213 566 L530 566 L530 695 L64 695 L64 0 Z M92 760 L224 760 L297 844 L370 760 L502 760 L359 941 L239 941 L92 760 Z " />
<glyph glyph-name="Edieresis" unicode="&#xcb;" horiz-adv-x="572" d="M64 0 L536 0 L536 129 L213 129 L213 289 L493 289 L493 418 L213 418 L213 566 L530 566 L530 695 L64 695 L64 0 Z M80 851 C80 795 123 756 174 756 C228 756 270 795 270 849 C270 904 229 944 177 944 C123 944 80 907 80 851 L80 851 Z M324 851 C324 795 367 756 418 756 C472 756 514 795 514 849 C514 904 473 944 420 944 C367 944 324 907 324 851 L324 851 Z " />
<glyph glyph-name="Igrave" unicode="&#xcc;" horiz-adv-x="277" d="M64 0 L213 0 L213 695 L64 695 L64 0 Z M-26 835 L270 747 L303 854 L11 956 L-26 835 Z " />
<glyph glyph-name="Iacute" unicode="&#xcd;" horiz-adv-x="277" d="M64 0 L213 0 L213 695 L64 695 L64 0 Z M-16 854 L17 747 L313 835 L277 956 L-16 854 Z " />
<glyph glyph-name="Icircumflex" unicode="&#xce;" horiz-adv-x="277" d="M64 0 L213 0 L213 695 L64 695 L64 0 Z M-66 760 L66 760 L139 844 L212 760 L344 760 L201 941 L81 941 L-66 760 Z " />
<glyph glyph-name="Idieresis" unicode="&#xcf;" horiz-adv-x="277" d="M64 0 L213 0 L213 695 L64 695 L64 0 Z M-79 851 C-79 795 -36 756 15 756 C69 756 111 795 111 849 C111 904 70 944 18 944 C-36 944 -79 907 -79 851 L-79 851 Z M165 851 C165 795 208 756 259 756 C313 756 355 795 355 849 C355 904 314 944 261 944 C208 944 165 907 165 851 L165 851 Z " />
<glyph glyph-name="Eth" unicode="&#xd0;" horiz-adv-x="735" d="M76 0 L347 0 C555 0 701 136 701 348 C701 560 555 695 347 695 L76 695 L76 406 L16 406 L16 303 L76 303 L76 0 Z M225 132 L225 303 L375 303 L375 406 L225 406 L225 563 L342 563 C465 563 550 485 550 346 C550 209 465 132 342 132 L225 132 Z " />
<glyph glyph-name="Ntilde" unicode="&#xd1;" horiz-adv-x="692" d="M504 0 L628 0 L628 695 L480 695 L480 253 L187 695 L64 695 L64 0 L212 0 L212 439 L504 0 Z M131 807 L232 764 C239 791 255 807 281 807 C327 807 346 758 414 758 C492 758 534 820 550 880 L449 923 C442 896 425 880 400 880 C357 880 335 928 268 928 C188 928 145 863 131 807 L131 807 Z " />
<glyph glyph-name="Ograve" unicode="&#xd2;" horiz-adv-x="792" d="M396 -13 C600 -13 758 143 758 347 C758 552 600 708 396 708 C192 708 33 552 33 347 C33 143 192 -13 396 -13 L396 -13 Z M184 348 C184 475 268 567 396 567 C524 567 607 475 607 348 C607 219 522 128 396 128 C270 128 184 219 184 348 L184 348 Z M232 835 L528 747 L561 854 L269 956 L232 835 Z " />
<glyph glyph-name="Oacute" unicode="&#xd3;" horiz-adv-x="792" d="M396 -13 C600 -13 758 143 758 347 C758 552 600 708 396 708 C192 708 33 552 33 347 C33 143 192 -13 396 -13 L396 -13 Z M184 348 C184 475 268 567 396 567 C524 567 607 475 607 348 C607 219 522 128 396 128 C270 128 184 219 184 348 L184 348 Z M242 854 L275 747 L571 835 L535 956 L242 854 Z " />
<glyph glyph-name="Ocircumflex" unicode="&#xd4;" horiz-adv-x="792" d="M396 -13 C600 -13 758 143 758 347 C758 552 600 708 396 708 C192 708 33 552 33 347 C33 143 192 -13 396 -13 L396 -13 Z M184 348 C184 475 268 567 396 567 C524 567 607 475 607 348 C607 219 522 128 396 128 C270 128 184 219 184 348 L184 348 Z M191 760 L323 760 L396 844 L469 760 L601 760 L458 941 L338 941 L191 760 Z " />
<glyph glyph-name="Otilde" unicode="&#xd5;" horiz-adv-x="792" d="M396 -13 C600 -13 758 143 758 347 C758 552 600 708 396 708 C192 708 33 552 33 347 C33 143 192 -13 396 -13 L396 -13 Z M184 348 C184 475 268 567 396 567 C524 567 607 475 607 348 C607 219 522 128 396 128 C270 128 184 219 184 348 L184 348 Z M194 807 L295 764 C302 791 318 807 344 807 C390 807 409 758 477 758 C555 758 597 820 613 880 L512 923 C505 896 488 880 463 880 C420 880 398 928 331 928 C251 928 208 863 194 807 L194 807 Z " />
<glyph glyph-name="Odieresis" unicode="&#xd6;" horiz-adv-x="792" d="M396 -13 C600 -13 758 143 758 347 C758 552 600 708 396 708 C192 708 33 552 33 347 C33 143 192 -13 396 -13 L396 -13 Z M178 851 C178 795 221 756 272 756 C326 756 368 795 368 849 C368 904 327 944 275 944 C221 944 178 907 178 851 L178 851 Z M184 348 C184 475 268 567 396 567 C524 567 607 475 607 348 C607 219 522 128 396 128 C270 128 184 219 184 348 L184 348 Z M422 851 C422 795 465 756 516 756 C570 756 612 795 612 849 C612 904 571 944 518 944 C465 944 422 907 422 851 L422 851 Z " />
<glyph glyph-name="multiply" unicode="&#xd7;" horiz-adv-x="507" d="M378 113 L470 204 L346 328 L470 452 L377 545 L253 421 L129 545 L37 453 L161 329 L37 204 L129 113 L254 237 L378 113 Z " />
<glyph glyph-name="Oslash" unicode="&#xd8;" horiz-adv-x="795" d="M397 -13 C601 -13 759 143 759 347 C759 430 733 506 688 566 L758 639 L673 722 L602 647 C544 686 474 708 397 708 C193 708 34 552 34 347 C34 263 61 187 107 127 L36 53 L122 -28 L193 47 C251 9 321 -13 397 -13 L397 -13 Z M185 348 C185 475 269 567 397 567 C437 567 472 558 502 542 L211 236 C194 268 185 306 185 348 L185 348 Z M294 152 L584 457 C600 425 608 388 608 348 C608 219 523 128 397 128 C358 128 324 137 294 152 L294 152 Z " />
<glyph glyph-name="Ugrave" unicode="&#xd9;" horiz-adv-x="675" d="M338 -13 C526 -13 618 116 618 270 L618 695 L470 695 L470 270 C470 187 426 127 338 127 C250 127 206 187 206 270 L206 695 L57 695 L57 270 C57 116 150 -13 338 -13 L338 -13 Z M174 835 L470 747 L503 854 L211 956 L174 835 Z " />
<glyph glyph-name="Uacute" unicode="&#xda;" horiz-adv-x="675" d="M338 -13 C526 -13 618 116 618 270 L618 695 L470 695 L470 270 C470 187 426 127 338 127 C250 127 206 187 206 270 L206 695 L57 695 L57 270 C57 116 150 -13 338 -13 L338 -13 Z M184 854 L217 747 L513 835 L477 956 L184 854 Z " />
<glyph glyph-name="Ucircumflex" unicode="&#xdb;" horiz-adv-x="675" d="M338 -13 C526 -13 618 116 618 270 L618 695 L470 695 L470 270 C470 187 426 127 338 127 C250 127 206 187 206 270 L206 695 L57 695 L57 270 C57 116 150 -13 338 -13 L338 -13 Z M133 760 L265 760 L338 844 L411 760 L543 760 L400 941 L280 941 L133 760 Z " />
<glyph glyph-name="Udieresis" unicode="&#xdc;" horiz-adv-x="675" d="M338 -13 C526 -13 618 116 618 270 L618 695 L470 695 L470 270 C470 187 426 127 338 127 C250 127 206 187 206 270 L206 695 L57 695 L57 270 C57 116 150 -13 338 -13 L338 -13 Z M120 851 C120 795 163 756 214 756 C268 756 310 795 310 849 C310 904 269 944 217 944 C163 944 120 907 120 851 L120 851 Z M364 851 C364 795 407 756 458 756 C512 756 554 795 554 849 C554 904 513 944 460 944 C407 944 364 907 364 851 L364 851 Z " />
<glyph glyph-name="Yacute" unicode="&#xdd;" horiz-adv-x="650" d="M251 0 L399 0 L399 283 L653 695 L487 695 L325 411 L163 695 L-3 695 L251 283 L251 0 Z M172 854 L205 747 L501 835 L465 956 L172 854 Z " />
<glyph glyph-name="Thorn" unicode="&#xde;" horiz-adv-x="621" d="M64 0 L213 0 L213 133 L348 133 C496 133 591 219 591 352 C591 485 497 570 348 570 L213 570 L213 695 L64 695 L64 0 Z M213 263 L213 441 L340 441 C406 441 440 403 440 352 C440 300 406 263 340 263 L213 263 Z " />
<glyph glyph-name="germandbls" unicode="&#xdf;" horiz-adv-x="628" d="M369 -13 C502 -13 599 67 599 201 C599 294 549 363 481 389 C534 417 572 478 572 546 C572 658 480 743 329 743 C155 743 53 644 53 481 L53 0 L201 0 L201 489 C201 574 245 621 320 621 C379 621 422 584 422 529 C422 479 387 436 322 436 L322 321 C407 321 448 274 448 216 C448 153 407 115 347 115 C311 115 284 125 253 145 L253 9 C283 -4 319 -13 369 -13 L369 -13 Z " />
<glyph glyph-name="agrave" unicode="&#xe0;" horiz-adv-x="643" d="M291 -13 C360 -13 415 13 453 58 L453 0 L590 0 L590 527 L453 527 L453 468 C415 513 360 539 291 539 C146 539 29 426 29 267 C29 108 139 -13 291 -13 L291 -13 Z M165 714 L411 572 L470 667 L232 822 L165 714 Z M176 264 C176 348 233 409 312 409 C392 409 448 349 448 264 C448 177 392 118 312 118 C233 118 176 178 176 264 L176 264 Z " />
<glyph glyph-name="aacute" unicode="&#xe1;" horiz-adv-x="643" d="M291 -13 C360 -13 415 13 453 58 L453 0 L590 0 L590 527 L453 527 L453 468 C415 513 360 539 291 539 C146 539 29 426 29 267 C29 108 139 -13 291 -13 L291 -13 Z M173 667 L232 572 L478 714 L411 822 L173 667 Z M176 264 C176 348 233 409 312 409 C392 409 448 349 448 264 C448 177 392 118 312 118 C233 118 176 178 176 264 L176 264 Z " />
<glyph glyph-name="acircumflex" unicode="&#xe2;" horiz-adv-x="643" d="M291 -13 C360 -13 415 13 453 58 L453 0 L590 0 L590 527 L453 527 L453 468 C415 513 360 539 291 539 C146 539 29 426 29 267 C29 108 139 -13 291 -13 L291 -13 Z M127 601 L256 601 L327 703 L399 601 L527 601 L392 795 L265 795 L127 601 Z M176 264 C176 348 233 409 312 409 C392 409 448 349 448 264 C448 177 392 118 312 118 C233 118 176 178 176 264 L176 264 Z " />
<glyph glyph-name="atilde" unicode="&#xe3;" horiz-adv-x="643" d="M291 -13 C360 -13 415 13 453 58 L453 0 L590 0 L590 527 L453 527 L453 468 C415 513 360 539 291 539 C146 539 29 426 29 267 C29 108 139 -13 291 -13 L291 -13 Z M125 662 L226 619 C232 647 250 662 273 662 C316 662 339 614 402 614 C478 614 511 675 527 736 L425 778 C419 751 401 735 379 735 C334 735 313 784 250 784 C174 784 139 720 125 662 L125 662 Z M176 264 C176 348 233 409 312 409 C392 409 448 349 448 264 C448 177 392 118 312 118 C233 118 176 178 176 264 L176 264 Z " />
<glyph glyph-name="adieresis" unicode="&#xe4;" horiz-adv-x="643" d="M291 -13 C360 -13 415 13 453 58 L453 0 L590 0 L590 527 L453 527 L453 468 C415 513 360 539 291 539 C146 539 29 426 29 267 C29 108 139 -13 291 -13 L291 -13 Z M116 700 C116 645 158 607 207 607 C259 607 300 645 300 697 C300 750 260 789 210 789 C158 789 116 753 116 700 L116 700 Z M176 264 C176 348 233 409 312 409 C392 409 448 349 448 264 C448 177 392 118 312 118 C233 118 176 178 176 264 L176 264 Z M352 700 C352 645 394 607 443 607 C496 607 537 645 537 697 C537 750 496 789 446 789 C394 789 352 753 352 700 L352 700 Z " />
<glyph glyph-name="aring" unicode="&#xe5;" horiz-adv-x="643" d="M291 -13 C360 -13 415 13 453 58 L453 0 L590 0 L590 527 L453 527 L453 468 C415 513 360 539 291 539 C146 539 29 426 29 267 C29 108 139 -13 291 -13 L291 -13 Z M176 264 C176 348 233 409 312 409 C392 409 448 349 448 264 C448 177 392 118 312 118 C233 118 176 178 176 264 L176 264 Z M194 696 C194 620 250 568 327 568 C405 568 460 620 460 696 C460 769 405 822 327 822 C250 822 194 769 194 696 L194 696 Z M280 696 C280 721 300 740 327 740 C354 740 374 721 374 696 C374 669 354 650 327 650 C300 650 280 669 280 696 L280 696 Z " />
<glyph glyph-name="ae" unicode="&#xe6;" horiz-adv-x="1040" d="M291 -13 C360 -13 415 13 453 58 L453 0 L590 0 L590 67 C634 14 698 -13 776 -13 C885 -13 947 31 990 77 L903 165 C868 128 830 104 761 104 C683 104 629 147 614 222 L1009 222 C1010 234 1012 251 1012 275 C1012 408 924 539 757 539 C686 539 629 508 590 458 L590 527 L453 527 L453 468 C415 513 360 539 291 539 C139 539 29 421 29 263 C29 106 139 -13 291 -13 L291 -13 Z M176 263 C176 347 233 409 312 409 C393 409 448 349 448 263 C448 177 392 118 312 118 C233 118 176 179 176 263 L176 263 Z M613 309 C626 386 674 431 747 431 C820 431 867 383 879 309 L613 309 Z " />
<glyph glyph-name="ccedilla" unicode="&#xe7;" horiz-adv-x="576" d="M293 -242 C371 -242 424 -199 424 -136 C424 -86 391 -48 347 -43 L360 -9 C440 3 492 43 523 77 L430 170 C409 145 371 119 318 119 C238 119 177 175 177 263 C177 351 238 407 318 407 C370 407 408 381 430 356 L523 449 C486 490 417 539 308 539 C145 539 28 418 28 263 C28 120 127 6 271 -11 L248 -75 L255 -82 L271 -82 C301 -82 318 -101 318 -123 C318 -144 301 -161 273 -161 C247 -161 231 -149 219 -134 L170 -194 C193 -221 238 -242 293 -242 L293 -242 Z " />
<glyph glyph-name="egrave" unicode="&#xe8;" horiz-adv-x="594" d="M308 -13 C428 -13 496 31 544 78 L455 167 C420 131 382 109 314 109 C242 109 188 149 171 218 L566 218 C568 231 569 251 569 274 C569 406 468 539 298 539 C147 539 26 416 26 263 C26 106 137 -13 308 -13 L308 -13 Z M139 713 L385 571 L444 666 L206 821 L139 713 Z M169 314 C184 387 234 427 302 427 C370 427 417 384 431 314 L169 314 Z " />
<glyph glyph-name="eacute" unicode="&#xe9;" horiz-adv-x="594" d="M308 -13 C428 -13 496 31 544 78 L455 167 C420 131 382 109 314 109 C242 109 188 149 171 218 L566 218 C568 231 569 251 569 274 C569 406 468 539 298 539 C147 539 26 416 26 263 C26 106 137 -13 308 -13 L308 -13 Z M148 666 L207 571 L453 713 L386 821 L148 666 Z M169 314 C184 387 234 427 302 427 C370 427 417 384 431 314 L169 314 Z " />
<glyph glyph-name="ecircumflex" unicode="&#xea;" horiz-adv-x="594" d="M308 -13 C428 -13 496 31 544 78 L455 167 C420 131 382 109 314 109 C242 109 188 149 171 218 L566 218 C568 231 569 251 569 274 C569 406 468 539 298 539 C147 539 26 416 26 263 C26 106 137 -13 308 -13 L308 -13 Z M101 600 L230 600 L301 702 L373 600 L501 600 L366 794 L239 794 L101 600 Z M169 314 C184 387 234 427 302 427 C370 427 417 384 431 314 L169 314 Z " />
<glyph glyph-name="edieresis" unicode="&#xeb;" horiz-adv-x="594" d="M308 -13 C428 -13 496 31 544 78 L455 167 C420 131 382 109 314 109 C242 109 188 149 171 218 L566 218 C568 231 569 251 569 274 C569 406 468 539 298 539 C147 539 26 416 26 263 C26 106 137 -13 308 -13 L308 -13 Z M90 699 C90 644 132 606 181 606 C233 606 274 644 274 696 C274 749 234 788 184 788 C132 788 90 752 90 699 L90 699 Z M169 314 C184 387 234 427 302 427 C370 427 417 384 431 314 L169 314 Z M326 699 C326 644 368 606 417 606 C470 606 511 644 511 696 C511 749 470 788 420 788 C368 788 326 752 326 699 L326 699 Z " />
<glyph glyph-name="igrave" unicode="&#xec;" horiz-adv-x="254" d="M53 0 L201 0 L201 527 L53 527 L53 0 Z M-34 713 L212 571 L271 666 L33 821 L-34 713 Z " />
<glyph glyph-name="iacute" unicode="&#xed;" horiz-adv-x="254" d="M53 0 L201 0 L201 527 L53 527 L53 0 Z M-26 666 L33 571 L279 713 L212 821 L-26 666 Z " />
<glyph glyph-name="icircumflex" unicode="&#xee;" horiz-adv-x="254" d="M53 0 L201 0 L201 527 L53 527 L53 0 Z M-73 600 L56 600 L127 702 L199 600 L327 600 L192 794 L65 794 L-73 600 Z " />
<glyph glyph-name="idieresis" unicode="&#xef;" horiz-adv-x="254" d="M53 0 L201 0 L201 527 L53 527 L53 0 Z M-83 699 C-83 644 -41 606 8 606 C60 606 101 644 101 696 C101 749 61 788 11 788 C-41 788 -83 752 -83 699 L-83 699 Z M153 699 C153 644 195 606 244 606 C297 606 338 644 338 696 C338 749 297 788 247 788 C195 788 153 752 153 699 L153 699 Z " />
<glyph glyph-name="eth" unicode="&#xf0;" horiz-adv-x="630" d="M313 -13 C479 -13 598 96 598 296 C598 471 507 632 358 723 L405 770 L333 843 L260 770 C204 790 142 801 76 801 L19 682 C66 682 112 676 155 666 L93 604 L165 530 L262 627 C323 597 374 555 407 503 C378 519 345 526 308 526 C148 526 28 409 28 256 C28 106 146 -13 313 -13 L313 -13 Z M177 256 C177 335 232 394 314 394 C396 394 449 335 449 258 C449 176 394 119 314 119 C232 119 177 179 177 256 L177 256 Z " />
<glyph glyph-name="ntilde" unicode="&#xf1;" horiz-adv-x="606" d="M411 303 L411 0 L558 0 L558 331 C558 454 478 539 352 539 C284 539 229 514 193 478 L193 527 L53 527 L53 0 L201 0 L201 312 C202 365 248 407 307 407 C367 408 411 369 411 303 L411 303 Z M111 661 L212 618 C218 646 236 661 259 661 C302 661 325 613 388 613 C464 613 497 674 513 735 L411 777 C405 750 387 734 365 734 C320 734 299 783 236 783 C160 783 125 719 111 661 L111 661 Z " />
<glyph glyph-name="ograve" unicode="&#xf2;" horiz-adv-x="626" d="M313 -13 C479 -13 598 106 598 263 C598 421 479 539 313 539 C146 539 28 421 28 263 C28 106 146 -13 313 -13 L313 -13 Z M154 713 L400 571 L459 666 L221 821 L154 713 Z M177 263 C177 348 232 407 314 407 C396 407 450 348 450 264 C450 179 394 119 314 119 C232 119 177 179 177 263 L177 263 Z " />
<glyph glyph-name="oacute" unicode="&#xf3;" horiz-adv-x="626" d="M313 -13 C479 -13 598 106 598 263 C598 421 479 539 313 539 C146 539 28 421 28 263 C28 106 146 -13 313 -13 L313 -13 Z M163 666 L222 571 L468 713 L401 821 L163 666 Z M177 263 C177 348 232 407 314 407 C396 407 450 348 450 264 C450 179 394 119 314 119 C232 119 177 179 177 263 L177 263 Z " />
<glyph glyph-name="ocircumflex" unicode="&#xf4;" horiz-adv-x="626" d="M313 -13 C479 -13 598 106 598 263 C598 421 479 539 313 539 C146 539 28 421 28 263 C28 106 146 -13 313 -13 L313 -13 Z M116 600 L245 600 L316 702 L388 600 L516 600 L381 794 L254 794 L116 600 Z M177 263 C177 348 232 407 314 407 C396 407 450 348 450 264 C450 179 394 119 314 119 C232 119 177 179 177 263 L177 263 Z " />
<glyph glyph-name="otilde" unicode="&#xf5;" horiz-adv-x="626" d="M313 -13 C479 -13 598 106 598 263 C598 421 479 539 313 539 C146 539 28 421 28 263 C28 106 146 -13 313 -13 L313 -13 Z M115 661 L216 618 C222 646 240 661 263 661 C306 661 329 613 392 613 C468 613 501 674 517 735 L415 777 C409 750 391 734 369 734 C324 734 303 783 240 783 C164 783 129 719 115 661 L115 661 Z M177 263 C177 348 232 407 314 407 C396 407 450 348 450 264 C450 179 394 119 314 119 C232 119 177 179 177 263 L177 263 Z " />
<glyph glyph-name="odieresis" unicode="&#xf6;" horiz-adv-x="626" d="M313 -13 C479 -13 598 106 598 263 C598 421 479 539 313 539 C146 539 28 421 28 263 C28 106 146 -13 313 -13 L313 -13 Z M105 699 C105 644 147 606 196 606 C248 606 289 644 289 696 C289 749 249 788 199 788 C147 788 105 752 105 699 L105 699 Z M177 263 C177 348 232 407 314 407 C396 407 450 348 450 264 C450 179 394 119 314 119 C232 119 177 179 177 263 L177 263 Z M341 699 C341 644 383 606 432 606 C485 606 526 644 526 696 C526 749 485 788 435 788 C383 788 341 752 341 699 L341 699 Z " />
<glyph glyph-name="divide" unicode="&#xf7;" horiz-adv-x="501" d="M40 264 L461 264 L461 389 L40 389 L40 264 Z M169 531 C169 485 205 449 252 449 C300 449 335 485 335 531 C335 580 300 616 252 616 C205 616 169 580 169 531 L169 531 Z M170 117 C170 71 206 35 253 35 C300 35 336 71 336 117 C336 167 300 202 253 202 C206 202 170 167 170 117 L170 117 Z " />
<glyph glyph-name="oslash" unicode="&#xf8;" horiz-adv-x="648" d="M323 -13 C489 -13 608 106 608 263 C608 317 594 365 570 407 L635 463 L567 541 L501 483 C453 519 392 539 323 539 C156 539 38 421 38 263 C38 208 52 159 78 117 L13 61 L83 -17 L149 40 C196 7 255 -13 323 -13 L323 -13 Z M187 263 C187 348 242 407 324 407 C406 407 460 348 460 264 C460 179 404 119 324 119 C242 119 187 179 187 263 L187 263 Z " />
<glyph glyph-name="ugrave" unicode="&#xf9;" horiz-adv-x="598" d="M252 -13 C315 -13 369 12 406 50 L406 0 L545 0 L545 527 L397 527 L397 215 C397 160 357 119 296 119 C234 119 196 160 196 218 L196 527 L48 527 L48 199 C48 79 118 -13 252 -13 L252 -13 Z M131 714 L377 572 L436 667 L198 822 L131 714 Z " />
<glyph glyph-name="uacute" unicode="&#xfa;" horiz-adv-x="598" d="M252 -13 C315 -13 369 12 406 50 L406 0 L545 0 L545 527 L397 527 L397 215 C397 160 357 119 296 119 C234 119 196 160 196 218 L196 527 L48 527 L48 199 C48 79 118 -13 252 -13 L252 -13 Z M139 667 L198 572 L444 714 L377 822 L139 667 Z " />
<glyph glyph-name="ucircumflex" unicode="&#xfb;" horiz-adv-x="598" d="M252 -13 C315 -13 369 12 406 50 L406 0 L545 0 L545 527 L397 527 L397 215 C397 160 357 119 296 119 C234 119 196 160 196 218 L196 527 L48 527 L48 199 C48 79 118 -13 252 -13 L252 -13 Z M92 601 L221 601 L292 703 L364 601 L492 601 L357 795 L230 795 L92 601 Z " />
<glyph glyph-name="udieresis" unicode="&#xfc;" horiz-adv-x="598" d="M252 -13 C315 -13 369 12 406 50 L406 0 L545 0 L545 527 L397 527 L397 215 C397 160 357 119 296 119 C234 119 196 160 196 218 L196 527 L48 527 L48 199 C48 79 118 -13 252 -13 L252 -13 Z M82 700 C82 645 124 607 173 607 C225 607 266 645 266 697 C266 750 226 789 176 789 C124 789 82 753 82 700 L82 700 Z M318 700 C318 645 360 607 409 607 C462 607 503 645 503 697 C503 750 462 789 412 789 C360 789 318 753 318 700 L318 700 Z " />
<glyph glyph-name="yacute" unicode="&#xfd;" horiz-adv-x="565" d="M180 0 L229 0 L158 -179 L304 -179 L369 0 L563 527 L410 527 L276 118 L157 527 L4 527 L180 0 Z M129 667 L188 572 L434 714 L367 822 L129 667 Z " />
<glyph glyph-name="thorn" unicode="&#xfe;" horiz-adv-x="643" d="M352 -13 C504 -13 614 106 614 263 C614 421 508 539 356 539 C293 539 240 518 201 481 L201 731 L53 731 L53 -179 L201 -179 L201 44 C239 7 290 -13 352 -13 L352 -13 Z M196 263 C196 348 251 407 332 407 C409 407 466 347 466 263 C466 180 409 119 332 119 C251 119 196 178 196 263 L196 263 Z " />
<glyph glyph-name="ydieresis" unicode="&#xff;" horiz-adv-x="565" d="M180 0 L229 0 L158 -179 L304 -179 L369 0 L563 527 L410 527 L276 118 L157 527 L4 527 L180 0 Z M72 700 C72 645 114 607 163 607 C215 607 256 645 256 697 C256 750 216 789 166 789 C114 789 72 753 72 700 L72 700 Z M308 700 C308 645 350 607 399 607 C452 607 493 645 493 697 C493 750 452 789 402 789 C350 789 308 753 308 700 L308 700 Z " />
<glyph glyph-name="Amacron" unicode="&#x100;" horiz-adv-x="653" d="M2 0 L149 0 L198 149 L456 149 L505 0 L651 0 L417 695 L236 695 L2 0 Z M145 790 L507 790 L507 911 L145 911 L145 790 Z M238 270 L327 539 L416 270 L238 270 Z " />
<glyph glyph-name="amacron" unicode="&#x101;" horiz-adv-x="643" d="M291 -13 C360 -13 415 13 453 58 L453 0 L590 0 L590 527 L453 527 L453 468 C415 513 360 539 291 539 C146 539 29 426 29 267 C29 108 139 -13 291 -13 L291 -13 Z M160 640 L493 640 L493 758 L160 758 L160 640 Z M176 264 C176 348 233 409 312 409 C392 409 448 349 448 264 C448 177 392 118 312 118 C233 118 176 178 176 264 L176 264 Z " />
<glyph glyph-name="Abreve" unicode="&#x102;" horiz-adv-x="653" d="M2 0 L149 0 L198 149 L456 149 L505 0 L651 0 L417 695 L236 695 L2 0 Z M142 941 C142 836 212 760 326 760 C439 760 509 836 509 941 L389 941 C389 899 365 869 326 869 C286 869 263 899 263 941 L142 941 Z M238 270 L327 539 L416 270 L238 270 Z " />
<glyph glyph-name="abreve" unicode="&#x103;" horiz-adv-x="643" d="M291 -13 C360 -13 415 13 453 58 L453 0 L590 0 L590 527 L453 527 L453 468 C415 513 360 539 291 539 C146 539 29 426 29 267 C29 108 139 -13 291 -13 L291 -13 Z M141 795 C141 678 211 601 327 601 C442 601 513 678 513 795 L397 795 C397 739 368 710 327 710 C286 710 257 739 257 795 L141 795 Z M176 264 C176 348 233 409 312 409 C392 409 448 349 448 264 C448 177 392 118 312 118 C233 118 176 178 176 264 L176 264 Z " />
<glyph glyph-name="Aogonek" unicode="&#x104;" horiz-adv-x="653" d="M2 0 L149 0 L198 149 L456 149 L505 0 L543 0 C486 -45 459 -86 459 -132 C459 -195 507 -237 579 -237 C628 -237 668 -221 691 -196 L638 -127 C628 -138 617 -143 603 -143 C584 -143 570 -129 570 -109 C570 -88 580 -71 611 -39 L651 0 L417 695 L236 695 L2 0 Z M238 270 L327 539 L416 270 L238 270 Z " />
<glyph glyph-name="aogonek" unicode="&#x105;" horiz-adv-x="643" d="M291 -13 C360 -13 415 13 453 58 L453 0 L482 0 C425 -45 398 -86 398 -132 C398 -195 446 -237 518 -237 C567 -237 607 -221 630 -196 L577 -127 C567 -138 556 -143 542 -143 C523 -143 509 -129 509 -109 C509 -88 519 -71 550 -39 L590 0 L590 527 L453 527 L453 468 C415 513 360 539 291 539 C146 539 29 426 29 267 C29 108 139 -13 291 -13 L291 -13 Z M176 264 C176 348 233 409 312 409 C392 409 448 349 448 264 C448 177 392 118 312 118 C233 118 176 178 176 264 L176 264 Z " />
<glyph glyph-name="Cacute" unicode="&#x106;" horiz-adv-x="692" d="M393 -13 C525 -13 617 51 666 115 L563 218 C527 171 474 128 395 128 C273 128 185 216 185 347 C185 479 273 567 393 567 C472 567 526 524 562 477 L665 580 C615 644 523 708 392 708 C186 708 34 557 34 347 C34 138 186 -13 393 -13 L393 -13 Z M232 854 L265 747 L561 835 L525 956 L232 854 Z " />
<glyph glyph-name="cacute" unicode="&#x107;" horiz-adv-x="576" d="M309 -13 C418 -13 486 36 523 77 L430 170 C409 145 371 119 318 119 C238 119 177 175 177 263 C177 351 238 407 318 407 C370 407 408 381 430 356 L523 449 C486 490 417 539 308 539 C145 539 28 418 28 263 C28 108 145 -13 309 -13 L309 -13 Z M153 667 L212 572 L458 714 L391 822 L153 667 Z " />
<glyph glyph-name="Cdotaccent" unicode="&#x10a;" horiz-adv-x="692" d="M393 -13 C525 -13 617 51 666 115 L563 218 C527 171 474 128 395 128 C273 128 185 216 185 347 C185 479 273 567 393 567 C472 567 526 524 562 477 L665 580 C615 644 523 708 392 708 C186 708 34 557 34 347 C34 138 186 -13 393 -13 L393 -13 Z M291 851 C291 795 334 756 385 756 C439 756 481 795 481 849 C481 905 440 943 387 943 C334 943 291 907 291 851 L291 851 Z " />
<glyph glyph-name="cdotaccent" unicode="&#x10b;" horiz-adv-x="576" d="M309 -13 C418 -13 486 36 523 77 L430 170 C409 145 371 119 318 119 C238 119 177 175 177 263 C177 351 238 407 318 407 C370 407 408 381 430 356 L523 449 C486 490 417 539 308 539 C145 539 28 418 28 263 C28 108 145 -13 309 -13 L309 -13 Z M210 698 C210 643 252 605 306 605 C360 605 403 643 403 698 C403 753 360 793 306 793 C252 793 210 753 210 698 L210 698 Z " />
<glyph glyph-name="Ccaron" unicode="&#x10c;" horiz-adv-x="692" d="M393 -13 C525 -13 617 51 666 115 L563 218 C527 171 474 128 395 128 C273 128 185 216 185 347 C185 479 273 567 393 567 C472 567 526 524 562 477 L665 580 C615 644 523 708 392 708 C186 708 34 557 34 347 C34 138 186 -13 393 -13 L393 -13 Z M181 941 L328 760 L448 760 L591 941 L459 941 L386 857 L313 941 L181 941 Z " />
<glyph glyph-name="ccaron" unicode="&#x10d;" horiz-adv-x="576" d="M309 -13 C418 -13 486 36 523 77 L430 170 C409 145 371 119 318 119 C238 119 177 175 177 263 C177 351 238 407 318 407 C370 407 408 381 430 356 L523 449 C486 490 417 539 308 539 C145 539 28 418 28 263 C28 108 145 -13 309 -13 L309 -13 Z M106 795 L244 601 L371 601 L506 795 L378 795 L306 694 L235 795 L106 795 Z " />
<glyph glyph-name="Dcaron" unicode="&#x10e;" horiz-adv-x="724" d="M64 0 L335 0 C543 0 689 136 689 348 C689 560 543 695 335 695 L64 695 L64 0 Z M133 940 L280 759 L400 759 L543 940 L411 940 L338 856 L265 940 L133 940 Z M213 132 L213 563 L330 563 C453 563 538 485 538 346 C538 209 453 132 330 132 L213 132 Z " />
<glyph glyph-name="dcaron" unicode="&#x10f;" horiz-adv-x="739" d="M291 -13 C359 -13 414 12 453 54 L453 0 L590 0 L590 731 L442 731 L442 481 C403 518 350 539 287 539 C136 539 29 421 29 263 C29 106 139 -13 291 -13 L291 -13 Z M176 263 C176 347 233 409 312 409 C393 409 448 349 448 263 C448 177 393 118 312 118 C233 118 176 179 176 263 L176 263 Z M644 481 L739 481 L769 732 L664 732 L644 481 Z " />
<glyph glyph-name="Dcroat" unicode="&#x110;" horiz-adv-x="735" d="M76 0 L347 0 C555 0 701 136 701 348 C701 560 555 695 347 695 L76 695 L76 406 L16 406 L16 303 L76 303 L76 0 Z M225 132 L225 303 L375 303 L375 406 L225 406 L225 563 L342 563 C465 563 550 485 550 346 C550 209 465 132 342 132 L225 132 Z " />
<glyph glyph-name="dcroat" unicode="&#x111;" horiz-adv-x="643" d="M291 -13 C359 -13 414 12 453 54 L453 0 L590 0 L590 576 L654 576 L654 679 L590 679 L590 731 L442 731 L442 679 L295 679 L295 576 L442 576 L442 481 C403 518 350 539 287 539 C136 539 29 421 29 263 C29 106 139 -13 291 -13 L291 -13 Z M176 263 C176 347 233 409 312 409 C393 409 448 349 448 263 C448 177 393 118 312 118 C233 118 176 179 176 263 L176 263 Z " />
<glyph glyph-name="Emacron" unicode="&#x112;" horiz-adv-x="572" d="M64 0 L536 0 L536 129 L213 129 L213 289 L493 289 L493 418 L213 418 L213 566 L530 566 L530 695 L64 695 L64 0 Z M116 790 L478 790 L478 911 L116 911 L116 790 Z " />
<glyph glyph-name="emacron" unicode="&#x113;" horiz-adv-x="594" d="M308 -13 C428 -13 496 31 544 78 L455 167 C420 131 382 109 314 109 C242 109 188 149 171 218 L566 218 C568 231 569 251 569 274 C569 406 468 539 298 539 C147 539 26 416 26 263 C26 106 137 -13 308 -13 L308 -13 Z M134 639 L467 639 L467 757 L134 757 L134 639 Z M169 314 C184 387 234 427 302 427 C370 427 417 384 431 314 L169 314 Z " />
<glyph glyph-name="Edotaccent" unicode="&#x116;" horiz-adv-x="572" d="M64 0 L536 0 L536 129 L213 129 L213 289 L493 289 L493 418 L213 418 L213 566 L530 566 L530 695 L64 695 L64 0 Z M202 851 C202 795 245 756 296 756 C350 756 392 795 392 849 C392 905 351 943 298 943 C245 943 202 907 202 851 L202 851 Z " />
<glyph glyph-name="edotaccent" unicode="&#x117;" horiz-adv-x="594" d="M308 -13 C428 -13 496 31 544 78 L455 167 C420 131 382 109 314 109 C242 109 188 149 171 218 L566 218 C568 231 569 251 569 274 C569 406 468 539 298 539 C147 539 26 416 26 263 C26 106 137 -13 308 -13 L308 -13 Z M169 314 C184 387 234 427 302 427 C370 427 417 384 431 314 L169 314 Z M205 697 C205 642 247 604 301 604 C355 604 398 642 398 697 C398 752 355 792 301 792 C247 792 205 752 205 697 L205 697 Z " />
<glyph glyph-name="Eogonek" unicode="&#x118;" horiz-adv-x="572" d="M64 0 L428 0 C371 -45 344 -86 344 -132 C344 -195 392 -237 464 -237 C513 -237 553 -221 576 -196 L523 -127 C513 -138 502 -143 488 -143 C469 -143 455 -129 455 -109 C455 -88 465 -71 496 -39 L536 0 L536 129 L213 129 L213 289 L493 289 L493 418 L213 418 L213 566 L530 566 L530 695 L64 695 L64 0 Z " />
<glyph glyph-name="eogonek" unicode="&#x119;" horiz-adv-x="594" d="M372 -220 C421 -220 461 -204 484 -179 L431 -110 C421 -121 410 -126 396 -126 C377 -126 363 -112 363 -92 C363 -71 373 -54 404 -22 L434 7 C482 24 516 51 544 78 L455 167 C420 131 382 109 314 109 C242 109 188 149 171 218 L566 218 C568 231 569 251 569 274 C569 406 468 539 298 539 C147 539 26 416 26 263 C26 108 134 -10 302 -13 C268 -47 252 -79 252 -115 C252 -178 300 -220 372 -220 L372 -220 Z M169 314 C184 387 234 427 302 427 C370 427 417 384 431 314 L169 314 Z " />
<glyph glyph-name="Ecaron" unicode="&#x11a;" horiz-adv-x="572" d="M64 0 L536 0 L536 129 L213 129 L213 289 L493 289 L493 418 L213 418 L213 566 L530 566 L530 695 L64 695 L64 0 Z M92 941 L239 760 L359 760 L502 941 L370 941 L297 857 L224 941 L92 941 Z " />
<glyph glyph-name="ecaron" unicode="&#x11b;" horiz-adv-x="594" d="M308 -13 C428 -13 496 31 544 78 L455 167 C420 131 382 109 314 109 C242 109 188 149 171 218 L566 218 C568 231 569 251 569 274 C569 406 468 539 298 539 C147 539 26 416 26 263 C26 106 137 -13 308 -13 L308 -13 Z M101 794 L239 600 L366 600 L501 794 L373 794 L301 693 L230 794 L101 794 Z M169 314 C184 387 234 427 302 427 C370 427 417 384 431 314 L169 314 Z " />
<glyph glyph-name="Gbreve" unicode="&#x11e;" horiz-adv-x="775" d="M394 -13 C593 -13 746 123 746 373 L390 373 L390 261 L598 261 C570 173 497 121 400 121 C272 121 185 207 185 344 C185 479 269 567 391 567 C471 567 536 530 566 483 L674 590 C629 642 537 708 394 708 C188 708 34 556 34 347 C34 137 186 -13 394 -13 L394 -13 Z M206 941 C206 836 276 760 390 760 C503 760 573 836 573 941 L453 941 C453 899 429 869 390 869 C350 869 327 899 327 941 L206 941 Z " />
<glyph glyph-name="gbreve" unicode="&#x11f;" horiz-adv-x="642" d="M290 18 C360 18 415 44 453 88 L453 66 C453 -15 393 -68 294 -68 C233 -68 175 -48 144 -7 L50 -101 C99 -160 180 -192 300 -192 C488 -192 590 -81 590 80 L590 527 L453 527 L453 469 C415 513 360 539 290 539 C139 539 29 421 29 277 C29 133 138 18 290 18 L290 18 Z M127 795 C127 678 197 601 313 601 C428 601 499 678 499 795 L383 795 C383 739 354 710 313 710 C272 710 243 739 243 795 L127 795 Z M176 270 C176 348 233 409 310 409 C389 409 444 350 444 270 C444 191 389 131 309 131 C233 131 176 192 176 270 L176 270 Z " />
<glyph glyph-name="Gdotaccent" unicode="&#x120;" horiz-adv-x="775" d="M394 -13 C593 -13 746 123 746 373 L390 373 L390 261 L598 261 C570 173 497 121 400 121 C272 121 185 207 185 344 C185 479 269 567 391 567 C471 567 536 530 566 483 L674 590 C629 642 537 708 394 708 C188 708 34 556 34 347 C34 137 186 -13 394 -13 L394 -13 Z M296 851 C296 795 339 756 390 756 C444 756 486 795 486 849 C486 905 445 943 392 943 C339 943 296 907 296 851 L296 851 Z " />
<glyph glyph-name="gdotaccent" unicode="&#x121;" horiz-adv-x="642" d="M290 18 C360 18 415 44 453 88 L453 66 C453 -15 393 -68 294 -68 C233 -68 175 -48 144 -7 L50 -101 C99 -160 180 -192 300 -192 C488 -192 590 -81 590 80 L590 527 L453 527 L453 469 C415 513 360 539 290 539 C139 539 29 421 29 277 C29 133 138 18 290 18 L290 18 Z M176 270 C176 348 233 409 310 409 C389 409 444 350 444 270 C444 191 389 131 309 131 C233 131 176 192 176 270 L176 270 Z M217 698 C217 643 259 605 313 605 C367 605 410 643 410 698 C410 753 367 793 313 793 C259 793 217 753 217 698 L217 698 Z " />
<glyph glyph-name="uni0122" unicode="&#x122;" horiz-adv-x="775" d="M394 -13 C593 -13 746 123 746 373 L390 373 L390 261 L598 261 C570 173 497 121 400 121 C272 121 185 207 185 344 C185 479 269 567 391 567 C471 567 536 530 566 483 L674 590 C629 642 537 708 394 708 C188 708 34 556 34 347 C34 137 186 -13 394 -13 L394 -13 Z M314 -120 C314 -153 333 -179 359 -190 L353 -202 L318 -262 L386 -287 L420 -231 C452 -182 464 -155 464 -122 C464 -78 432 -48 390 -48 C347 -48 314 -77 314 -120 L314 -120 Z " />
<glyph glyph-name="uni0123" unicode="&#x123;" horiz-adv-x="642" d="M290 18 C360 18 415 44 453 88 L453 66 C453 -15 393 -68 294 -68 C233 -68 175 -48 144 -7 L50 -101 C99 -160 180 -192 300 -192 C488 -192 590 -81 590 80 L590 527 L453 527 L453 469 C415 513 360 539 290 539 C139 539 29 421 29 277 C29 133 138 18 290 18 L290 18 Z M176 270 C176 348 233 409 310 409 C389 409 444 350 444 270 C444 191 389 131 309 131 C233 131 176 192 176 270 L176 270 Z M238 666 C238 622 270 592 312 592 C355 592 388 621 388 664 C388 697 369 723 343 734 L349 746 L384 806 L316 831 L282 775 C250 726 238 699 238 666 L238 666 Z " />
<glyph glyph-name="Hbar" unicode="&#x126;" horiz-adv-x="732" d="M499 0 L648 0 L648 503 L710 503 L710 619 L648 619 L648 695 L499 695 L499 619 L234 619 L234 695 L85 695 L85 619 L23 619 L23 503 L85 503 L85 0 L234 0 L234 288 L499 288 L499 0 Z M234 421 L234 503 L499 503 L499 421 L234 421 Z " />
<glyph glyph-name="hbar" unicode="&#x127;" horiz-adv-x="606" d="M411 303 L411 0 L558 0 L558 331 C558 454 478 539 352 539 C289 539 237 518 201 486 L201 576 L348 576 L348 679 L201 679 L201 731 L53 731 L53 679 L-11 679 L-11 576 L53 576 L53 0 L201 0 L201 312 C202 365 248 407 307 407 C367 408 411 369 411 303 L411 303 Z " />
<glyph glyph-name="Itilde" unicode="&#x128;" horiz-adv-x="277" d="M64 0 L213 0 L213 695 L64 695 L64 0 Z M-63 807 L35 764 C42 791 58 807 83 807 C128 807 146 758 213 758 C289 758 330 820 345 880 L247 923 C240 896 223 880 199 880 C157 880 136 928 70 928 C-7 928 -49 863 -63 807 L-63 807 Z " />
<glyph glyph-name="itilde" unicode="&#x129;" horiz-adv-x="254" d="M53 0 L201 0 L201 527 L53 527 L53 0 Z M-43 661 L42 618 C47 646 62 661 82 661 C118 661 137 613 191 613 C255 613 282 674 296 735 L210 777 C205 750 190 734 171 734 C133 734 115 783 62 783 C-2 783 -31 719 -43 661 L-43 661 Z " />
<glyph glyph-name="Imacron" unicode="&#x12a;" horiz-adv-x="277" d="M64 0 L213 0 L213 695 L64 695 L64 0 Z M7 790 L274 790 L274 911 L7 911 L7 790 Z " />
<glyph glyph-name="imacron" unicode="&#x12b;" horiz-adv-x="254" d="M53 0 L201 0 L201 527 L53 527 L53 0 Z M-6 639 L260 639 L260 757 L-6 757 L-6 639 Z " />
<glyph glyph-name="Iogonek" unicode="&#x12e;" horiz-adv-x="277" d="M64 0 L104 0 C47 -45 20 -86 20 -132 C20 -195 68 -237 140 -237 C189 -237 229 -221 252 -196 L199 -127 C189 -138 178 -143 164 -143 C145 -143 131 -129 131 -109 C131 -88 141 -71 172 -39 L212 0 L213 0 L213 695 L64 695 L64 0 Z " />
<glyph glyph-name="iogonek" unicode="&#x12f;" horiz-adv-x="255" d="M53 0 L90 0 C33 -45 6 -86 6 -132 C6 -195 54 -237 126 -237 C175 -237 215 -221 238 -196 L185 -127 C175 -138 164 -143 150 -143 C131 -143 117 -129 117 -109 C117 -88 127 -71 158 -39 L198 0 L201 0 L201 527 L53 527 L53 0 Z M31 697 C31 642 73 604 127 604 C181 604 224 642 224 697 C224 752 181 792 127 792 C73 792 31 752 31 697 L31 697 Z " />
<glyph glyph-name="Idotaccent" unicode="&#x130;" horiz-adv-x="277" d="M64 0 L213 0 L213 695 L64 695 L64 0 Z M44 851 C44 795 87 756 138 756 C192 756 234 795 234 849 C234 905 193 943 140 943 C87 943 44 907 44 851 L44 851 Z " />
<glyph glyph-name="dotlessi" unicode="&#x131;" horiz-adv-x="254" d="M53 0 L201 0 L201 527 L53 527 L53 0 Z " />
<glyph glyph-name="IJ" unicode="&#x132;" horiz-adv-x="621" d="M64 0 L213 0 L213 695 L64 695 L64 0 Z M294 0 L346 0 C488 0 562 83 562 215 L562 695 L413 695 L413 217 C413 163 386 132 334 132 L294 132 L294 0 Z " />
<glyph glyph-name="ij" unicode="&#x133;" horiz-adv-x="543" d="M53 0 L201 0 L201 527 L53 527 L53 0 Z M31 697 C31 642 73 604 127 604 C181 604 224 642 224 697 C224 752 181 792 127 792 C73 792 31 752 31 697 L31 697 Z M247 -185 L276 -185 C398 -185 490 -103 490 37 L490 527 L342 527 L342 35 C342 -22 308 -58 257 -58 L247 -58 L247 -185 Z M323 698 C323 643 365 605 419 605 C473 605 516 643 516 698 C516 753 473 793 419 793 C365 793 323 753 323 698 L323 698 Z " />
<glyph glyph-name="uni0136" unicode="&#x136;" horiz-adv-x="646" d="M481 0 L652 0 L360 358 L642 695 L471 695 L213 390 L213 695 L64 695 L64 0 L213 0 L213 322 L481 0 Z M274 -120 C274 -153 293 -179 319 -190 L313 -202 L278 -262 L346 -287 L380 -231 C412 -182 424 -155 424 -122 C424 -78 392 -48 350 -48 C307 -48 274 -77 274 -120 L274 -120 Z " />
<glyph glyph-name="uni0137" unicode="&#x137;" horiz-adv-x="543" d="M53 0 L201 0 L201 239 L390 0 L551 0 L338 283 L548 527 L383 527 L201 319 L201 731 L53 731 L53 0 Z M199 -120 C199 -153 218 -179 244 -190 L238 -202 L203 -262 L271 -287 L305 -231 C337 -182 349 -155 349 -122 C349 -78 317 -48 275 -48 C232 -48 199 -77 199 -120 L199 -120 Z " />
<glyph glyph-name="kgreenlandic" unicode="&#x138;" horiz-adv-x="543" d="M53 0 L201 0 L201 228 L391 0 L551 0 L336 276 L549 527 L383 527 L201 307 L201 527 L53 527 L53 0 Z " />
<glyph glyph-name="Lacute" unicode="&#x139;" horiz-adv-x="543" d="M64 0 L531 0 L531 132 L213 132 L213 695 L64 695 L64 0 Z M-16 854 L17 747 L313 835 L277 956 L-16 854 Z " />
<glyph glyph-name="lacute" unicode="&#x13a;" horiz-adv-x="254" d="M53 0 L201 0 L201 731 L53 731 L53 0 Z M-27 890 L6 783 L302 871 L266 992 L-27 890 Z " />
<glyph glyph-name="uni013B" unicode="&#x13b;" horiz-adv-x="543" d="M64 0 L531 0 L531 132 L213 132 L213 695 L64 695 L64 0 Z M222 -120 C222 -153 241 -179 267 -190 L261 -202 L226 -262 L294 -287 L328 -231 C360 -182 372 -155 372 -122 C372 -78 340 -48 298 -48 C255 -48 222 -77 222 -120 L222 -120 Z " />
<glyph glyph-name="uni013C" unicode="&#x13c;" horiz-adv-x="254" d="M53 0 L201 0 L201 731 L53 731 L53 0 Z M50 -120 C50 -153 69 -179 95 -190 L89 -202 L54 -262 L122 -287 L156 -231 C188 -182 200 -155 200 -122 C200 -78 168 -48 126 -48 C83 -48 50 -77 50 -120 L50 -120 Z " />
<glyph glyph-name="Lcaron" unicode="&#x13d;" horiz-adv-x="548" d="M64 0 L531 0 L531 132 L213 132 L213 695 L64 695 L64 0 Z M356 455 L451 455 L481 706 L376 706 L356 455 Z " />
<glyph glyph-name="lcaron" unicode="&#x13e;" horiz-adv-x="350" d="M53 0 L201 0 L201 731 L53 731 L53 0 Z M255 481 L350 481 L380 732 L275 732 L255 481 Z " />
<glyph glyph-name="Ldot" unicode="&#x13f;" horiz-adv-x="557" d="M64 0 L531 0 L531 132 L213 132 L213 695 L64 695 L64 0 Z M340 419 C340 372 376 336 423 336 C471 336 506 372 506 419 C506 467 471 503 423 503 C376 503 340 467 340 419 L340 419 Z " />
<glyph glyph-name="ldot" unicode="&#x140;" horiz-adv-x="394" d="M53 0 L201 0 L201 731 L53 731 L53 0 Z M242 372 C242 325 278 289 325 289 C373 289 408 325 408 372 C408 420 373 456 325 456 C278 456 242 420 242 372 L242 372 Z " />
<glyph glyph-name="Lslash" unicode="&#x141;" horiz-adv-x="598" d="M119 0 L586 0 L586 132 L268 132 L268 340 L387 383 L356 476 L268 445 L268 695 L119 695 L119 391 L15 354 L46 261 L119 287 L119 0 Z " />
<glyph glyph-name="lslash" unicode="&#x142;" horiz-adv-x="373" d="M114 0 L262 0 L262 345 L375 408 L320 501 L262 469 L262 731 L114 731 L114 386 L2 324 L57 230 L114 262 L114 0 Z " />
<glyph glyph-name="Nacute" unicode="&#x143;" horiz-adv-x="692" d="M504 0 L628 0 L628 695 L480 695 L480 253 L187 695 L64 695 L64 0 L212 0 L212 439 L504 0 Z M179 854 L212 747 L508 835 L472 956 L179 854 Z " />
<glyph glyph-name="nacute" unicode="&#x144;" horiz-adv-x="606" d="M411 303 L411 0 L558 0 L558 331 C558 454 478 539 352 539 C284 539 229 514 193 478 L193 527 L53 527 L53 0 L201 0 L201 312 C202 365 248 407 307 407 C367 408 411 369 411 303 L411 303 Z M159 666 L218 571 L464 713 L397 821 L159 666 Z " />
<glyph glyph-name="uni0145" unicode="&#x145;" horiz-adv-x="692" d="M504 0 L628 0 L628 695 L480 695 L480 253 L187 695 L64 695 L64 0 L212 0 L212 439 L504 0 Z M280 -120 C280 -153 299 -179 325 -190 L319 -202 L284 -262 L352 -287 L386 -231 C418 -182 430 -155 430 -122 C430 -78 398 -48 356 -48 C313 -48 280 -77 280 -120 L280 -120 Z " />
<glyph glyph-name="uni0146" unicode="&#x146;" horiz-adv-x="606" d="M411 303 L411 0 L558 0 L558 331 C558 454 478 539 352 539 C284 539 229 514 193 478 L193 527 L53 527 L53 0 L201 0 L201 312 C202 365 248 407 307 407 C367 408 411 369 411 303 L411 303 Z M226 -120 C226 -153 245 -179 271 -190 L265 -202 L230 -262 L298 -287 L332 -231 C364 -182 376 -155 376 -122 C376 -78 344 -48 302 -48 C259 -48 226 -77 226 -120 L226 -120 Z " />
<glyph glyph-name="Ncaron" unicode="&#x147;" horiz-adv-x="692" d="M504 0 L628 0 L628 695 L480 695 L480 253 L187 695 L64 695 L64 0 L212 0 L212 439 L504 0 Z M128 941 L275 760 L395 760 L538 941 L406 941 L333 857 L260 941 L128 941 Z " />
<glyph glyph-name="ncaron" unicode="&#x148;" horiz-adv-x="606" d="M411 303 L411 0 L558 0 L558 331 C558 454 478 539 352 539 C284 539 229 514 193 478 L193 527 L53 527 L53 0 L201 0 L201 312 C202 365 248 407 307 407 C367 408 411 369 411 303 L411 303 Z M112 794 L250 600 L377 600 L512 794 L384 794 L312 693 L241 794 L112 794 Z " />
<glyph glyph-name="napostrophe" unicode="&#x149;" horiz-adv-x="726" d="M531 303 L531 0 L678 0 L678 331 C678 454 598 539 472 539 C404 539 349 514 313 478 L313 527 L173 527 L173 0 L321 0 L321 312 C322 365 368 407 427 407 C487 408 531 369 531 303 L531 303 Z M14 511 L109 511 L139 762 L34 762 L14 511 Z " />
<glyph glyph-name="Eng" unicode="&#x14a;" horiz-adv-x="692" d="M396 -223 L421 -223 C554 -223 628 -140 628 -9 L628 695 L480 695 L480 253 L187 695 L64 695 L64 0 L212 0 L212 439 L502 3 L502 -7 C502 -60 475 -91 423 -91 L396 -91 L396 -223 Z " />
<glyph glyph-name="eng" unicode="&#x14b;" horiz-adv-x="606" d="M411 303 L411 28 C411 -25 381 -58 335 -58 L325 -58 L325 -185 L348 -185 C467 -185 558 -103 558 30 L558 331 C558 454 478 539 352 539 C284 539 229 514 193 478 L193 527 L53 527 L53 0 L201 0 L201 312 C202 365 248 407 307 407 C367 408 411 369 411 303 L411 303 Z " />
<glyph glyph-name="Omacron" unicode="&#x14c;" horiz-adv-x="792" d="M396 -13 C600 -13 758 143 758 347 C758 552 600 708 396 708 C192 708 33 552 33 347 C33 143 192 -13 396 -13 L396 -13 Z M184 348 C184 475 268 567 396 567 C524 567 607 475 607 348 C607 219 522 128 396 128 C270 128 184 219 184 348 L184 348 Z M215 790 L577 790 L577 911 L215 911 L215 790 Z " />
<glyph glyph-name="omacron" unicode="&#x14d;" horiz-adv-x="626" d="M313 -13 C479 -13 598 106 598 263 C598 421 479 539 313 539 C146 539 28 421 28 263 C28 106 146 -13 313 -13 L313 -13 Z M149 639 L482 639 L482 757 L149 757 L149 639 Z M177 263 C177 348 232 407 314 407 C396 407 450 348 450 264 C450 179 394 119 314 119 C232 119 177 179 177 263 L177 263 Z " />
<glyph glyph-name="Ohungarumlaut" unicode="&#x150;" horiz-adv-x="792" d="M396 -13 C600 -13 758 143 758 347 C758 552 600 708 396 708 C192 708 33 552 33 347 C33 143 192 -13 396 -13 L396 -13 Z M181 803 L272 737 L412 917 L310 991 L181 803 Z M184 348 C184 475 268 567 396 567 C524 567 607 475 607 348 C607 219 522 128 396 128 C270 128 184 219 184 348 L184 348 Z M414 803 L505 737 L646 917 L543 991 L414 803 Z " />
<glyph glyph-name="ohungarumlaut" unicode="&#x151;" horiz-adv-x="626" d="M313 -13 C479 -13 598 106 598 263 C598 421 479 539 313 539 C146 539 28 421 28 263 C28 106 146 -13 313 -13 L313 -13 Z M107 637 L198 571 L338 745 L236 820 L107 637 Z M177 263 C177 348 232 407 314 407 C396 407 450 348 450 264 C450 179 394 119 314 119 C232 119 177 179 177 263 L177 263 Z M337 637 L428 571 L569 745 L466 820 L337 637 Z " />
<glyph glyph-name="OE" unicode="&#x152;" horiz-adv-x="1115" d="M396 -13 C480 -13 552 14 607 60 L607 0 L1079 0 L1079 129 L756 129 L756 289 L1036 289 L1036 418 L756 418 L756 566 L1073 566 L1073 695 L607 695 L607 635 C552 681 480 708 396 708 C192 708 33 552 33 347 C33 143 192 -13 396 -13 L396 -13 Z M184 348 C184 475 268 567 396 567 C524 567 607 475 607 348 C607 219 522 128 396 128 C270 128 184 219 184 348 L184 348 Z " />
<glyph glyph-name="oe" unicode="&#x153;" horiz-adv-x="1019" d="M313 -13 C399 -13 472 19 523 71 C572 19 645 -13 733 -13 C853 -13 921 31 969 78 L880 167 C845 131 807 109 739 109 C667 109 613 149 596 218 L991 218 C993 231 994 251 994 274 C994 406 893 539 723 539 C645 539 575 506 525 453 C474 507 400 539 313 539 C146 539 28 421 28 263 C28 106 146 -13 313 -13 L313 -13 Z M177 263 C177 348 232 407 314 407 C396 407 450 348 450 264 C450 179 394 119 314 119 C232 119 177 179 177 263 L177 263 Z M594 314 C609 387 659 427 727 427 C795 427 842 384 856 314 L594 314 Z " />
<glyph glyph-name="Racute" unicode="&#x154;" horiz-adv-x="626" d="M64 0 L211 0 L211 285 L240 285 L438 0 L603 0 L396 288 C516 305 591 384 591 490 C591 609 497 695 348 695 L64 695 L64 0 Z M151 854 L184 747 L480 835 L444 956 L151 854 Z M211 390 L211 565 L344 565 C409 565 446 531 446 477 C446 424 409 390 344 390 L211 390 Z " />
<glyph glyph-name="racute" unicode="&#x155;" horiz-adv-x="359" d="M53 0 L201 0 L201 290 C201 360 254 400 344 400 L344 539 C282 539 229 514 193 475 L193 527 L53 527 L53 0 Z M41 666 L100 571 L346 713 L279 821 L41 666 Z " />
<glyph glyph-name="uni0156" unicode="&#x156;" horiz-adv-x="626" d="M64 0 L211 0 L211 285 L240 285 L438 0 L603 0 L396 288 C516 305 591 384 591 490 C591 609 497 695 348 695 L64 695 L64 0 Z M211 390 L211 565 L344 565 C409 565 446 531 446 477 C446 424 409 390 344 390 L211 390 Z M236 -120 C236 -153 255 -179 281 -190 L275 -202 L240 -262 L308 -287 L342 -231 C374 -182 386 -155 386 -122 C386 -78 354 -48 312 -48 C269 -48 236 -77 236 -120 L236 -120 Z " />
<glyph glyph-name="uni0157" unicode="&#x157;" horiz-adv-x="359" d="M53 0 L201 0 L201 290 C201 360 254 400 344 400 L344 539 C282 539 229 514 193 475 L193 527 L53 527 L53 0 Z M50 -120 C50 -153 69 -179 95 -190 L89 -202 L54 -262 L122 -287 L156 -231 C188 -182 200 -155 200 -122 C200 -78 168 -48 126 -48 C83 -48 50 -77 50 -120 L50 -120 Z " />
<glyph glyph-name="Rcaron" unicode="&#x158;" horiz-adv-x="626" d="M64 0 L211 0 L211 285 L240 285 L438 0 L603 0 L396 288 C516 305 591 384 591 490 C591 609 497 695 348 695 L64 695 L64 0 Z M100 941 L247 760 L367 760 L510 941 L378 941 L305 857 L232 941 L100 941 Z M211 390 L211 565 L344 565 C409 565 446 531 446 477 C446 424 409 390 344 390 L211 390 Z " />
<glyph glyph-name="rcaron" unicode="&#x159;" horiz-adv-x="359" d="M53 0 L201 0 L201 290 C201 360 254 400 344 400 L344 539 C282 539 229 514 193 475 L193 527 L53 527 L53 0 Z M-6 794 L132 600 L259 600 L394 794 L266 794 L194 693 L123 794 L-6 794 Z " />
<glyph glyph-name="Sacute" unicode="&#x15a;" horiz-adv-x="586" d="M286 -13 C449 -13 554 70 554 191 C554 455 198 381 198 509 C198 554 237 581 301 581 C364 581 411 554 445 517 L540 612 C498 660 420 708 309 708 C148 708 50 623 50 501 C50 253 403 329 403 188 C403 142 360 115 296 115 C219 115 161 149 118 200 L17 99 C68 36 160 -13 286 -13 L286 -13 Z M143 854 L176 747 L472 835 L436 956 L143 854 Z " />
<glyph glyph-name="sacute" unicode="&#x15b;" horiz-adv-x="494" d="M248 -13 C388 -13 477 52 477 158 C477 270 382 299 304 320 C236 338 191 348 191 384 C191 413 221 429 263 429 C306 429 347 416 384 371 L469 456 C427 506 356 539 262 539 C129 539 46 465 46 377 C46 276 125 241 199 223 C288 201 331 191 331 151 C331 117 300 99 246 99 C195 99 143 123 108 168 L17 77 C66 19 148 -13 248 -13 L248 -13 Z M101 666 L160 571 L406 713 L339 821 L101 666 Z " />
<glyph glyph-name="Scedilla" unicode="&#x15e;" horiz-adv-x="586" d="M290 -242 C368 -242 421 -199 421 -136 C421 -86 388 -48 344 -43 L358 -7 C479 14 554 89 554 191 C554 455 198 381 198 509 C198 554 237 581 301 581 C364 581 411 554 445 517 L540 612 C498 660 420 708 309 708 C148 708 50 623 50 501 C50 253 403 329 403 188 C403 142 360 115 296 115 C219 115 161 149 118 200 L17 99 C65 39 151 -8 267 -13 L245 -75 L252 -82 L268 -82 C298 -82 315 -101 315 -123 C315 -144 298 -161 270 -161 C244 -161 228 -149 216 -134 L167 -194 C190 -221 235 -242 290 -242 L290 -242 Z " />
<glyph glyph-name="scedilla" unicode="&#x15f;" horiz-adv-x="494" d="M233 -242 C311 -242 364 -199 364 -136 C364 -86 331 -48 287 -43 L300 -10 C410 5 477 66 477 158 C477 270 382 299 304 320 C236 338 191 348 191 384 C191 413 221 429 263 429 C306 429 347 416 384 371 L469 456 C427 506 356 539 262 539 C129 539 46 465 46 377 C46 276 125 241 199 223 C288 201 331 191 331 151 C331 117 300 99 246 99 C195 99 143 123 108 168 L17 77 C60 26 128 -4 211 -11 L188 -75 L195 -82 L211 -82 C241 -82 258 -101 258 -123 C258 -144 241 -161 213 -161 C187 -161 171 -149 159 -134 L110 -194 C133 -221 178 -242 233 -242 L233 -242 Z " />
<glyph glyph-name="Scaron" unicode="&#x160;" horiz-adv-x="586" d="M286 -13 C449 -13 554 70 554 191 C554 455 198 381 198 509 C198 554 237 581 301 581 C364 581 411 554 445 517 L540 612 C498 660 420 708 309 708 C148 708 50 623 50 501 C50 253 403 329 403 188 C403 142 360 115 296 115 C219 115 161 149 118 200 L17 99 C68 36 160 -13 286 -13 L286 -13 Z M97 941 L244 760 L364 760 L507 941 L375 941 L302 857 L229 941 L97 941 Z " />
<glyph glyph-name="scaron" unicode="&#x161;" horiz-adv-x="494" d="M248 -13 C388 -13 477 52 477 158 C477 270 382 299 304 320 C236 338 191 348 191 384 C191 413 221 429 263 429 C306 429 347 416 384 371 L469 456 C427 506 356 539 262 539 C129 539 46 465 46 377 C46 276 125 241 199 223 C288 201 331 191 331 151 C331 117 300 99 246 99 C195 99 143 123 108 168 L17 77 C66 19 148 -13 248 -13 L248 -13 Z M54 794 L192 600 L319 600 L454 794 L326 794 L254 693 L183 794 L54 794 Z " />
<glyph glyph-name="uni0162" unicode="&#x162;" horiz-adv-x="585" d="M218 0 L252 0 L224 -77 L231 -84 L247 -84 C277 -84 294 -103 294 -125 C294 -146 277 -163 249 -163 C223 -163 207 -151 195 -136 L146 -196 C169 -223 214 -244 269 -244 C347 -244 400 -201 400 -138 C400 -88 367 -50 323 -45 L340 0 L367 0 L367 563 L572 563 L572 695 L13 695 L13 563 L218 563 L218 0 Z " />
<glyph glyph-name="uni0163" unicode="&#x163;" horiz-adv-x="403" d="M299 0 L386 0 L386 129 L330 129 C278 129 249 159 249 215 L249 401 L382 401 L382 527 L254 527 L254 666 L110 666 L110 584 C110 546 92 527 56 527 L11 527 L11 401 L101 401 L101 197 C101 110 137 45 207 16 L178 -66 L185 -73 L201 -73 C231 -73 248 -92 248 -114 C248 -135 231 -152 203 -152 C177 -152 161 -140 149 -125 L100 -185 C123 -212 168 -233 223 -233 C301 -233 354 -190 354 -127 C354 -77 321 -39 277 -34 L290 0 L299 0 Z " />
<glyph glyph-name="Tcaron" unicode="&#x164;" horiz-adv-x="585" d="M218 0 L367 0 L367 563 L572 563 L572 695 L13 695 L13 563 L218 563 L218 0 Z M88 941 L235 760 L355 760 L498 941 L366 941 L293 857 L220 941 L88 941 Z " />
<glyph glyph-name="tcaron" unicode="&#x165;" horiz-adv-x="403" d="M299 0 L386 0 L386 129 L330 129 C278 129 249 159 249 215 L249 401 L382 401 L382 527 L254 527 L254 666 L110 666 L110 584 C110 546 92 527 56 527 L11 527 L11 401 L101 401 L101 197 C101 78 168 0 299 0 L299 0 Z M311 551 L406 551 L436 802 L331 802 L311 551 Z " />
<glyph glyph-name="Tbar" unicode="&#x166;" horiz-adv-x="593" d="M222 0 L371 0 L371 254 L476 254 L476 357 L371 357 L371 563 L576 563 L576 695 L17 695 L17 563 L222 563 L222 357 L117 357 L117 254 L222 254 L222 0 Z " />
<glyph glyph-name="tbar" unicode="&#x167;" horiz-adv-x="408" d="M303 0 L390 0 L390 129 L334 129 C282 129 253 159 253 215 L253 221 L365 221 L365 324 L253 324 L253 401 L386 401 L386 527 L258 527 L258 666 L114 666 L114 584 C114 546 96 527 60 527 L15 527 L15 401 L105 401 L105 324 L34 324 L34 221 L105 221 L105 197 C105 78 172 0 303 0 L303 0 Z " />
<glyph glyph-name="Utilde" unicode="&#x168;" horiz-adv-x="675" d="M338 -13 C526 -13 618 116 618 270 L618 695 L470 695 L470 270 C470 187 426 127 338 127 C250 127 206 187 206 270 L206 695 L57 695 L57 270 C57 116 150 -13 338 -13 L338 -13 Z M136 807 L237 764 C244 791 260 807 286 807 C332 807 351 758 419 758 C497 758 539 820 555 880 L454 923 C447 896 430 880 405 880 C362 880 340 928 273 928 C193 928 150 863 136 807 L136 807 Z " />
<glyph glyph-name="utilde" unicode="&#x169;" horiz-adv-x="598" d="M252 -13 C315 -13 369 12 406 50 L406 0 L545 0 L545 527 L397 527 L397 215 C397 160 357 119 296 119 C234 119 196 160 196 218 L196 527 L48 527 L48 199 C48 79 118 -13 252 -13 L252 -13 Z M91 662 L192 619 C198 647 216 662 239 662 C282 662 305 614 368 614 C444 614 477 675 493 736 L391 778 C385 751 367 735 345 735 C300 735 279 784 216 784 C140 784 105 720 91 662 L91 662 Z " />
<glyph glyph-name="Umacron" unicode="&#x16a;" horiz-adv-x="675" d="M338 -13 C526 -13 618 116 618 270 L618 695 L470 695 L470 270 C470 187 426 127 338 127 C250 127 206 187 206 270 L206 695 L57 695 L57 270 C57 116 150 -13 338 -13 L338 -13 Z M157 790 L519 790 L519 911 L157 911 L157 790 Z " />
<glyph glyph-name="umacron" unicode="&#x16b;" horiz-adv-x="598" d="M252 -13 C315 -13 369 12 406 50 L406 0 L545 0 L545 527 L397 527 L397 215 C397 160 357 119 296 119 C234 119 196 160 196 218 L196 527 L48 527 L48 199 C48 79 118 -13 252 -13 L252 -13 Z M125 640 L458 640 L458 758 L125 758 L125 640 Z " />
<glyph glyph-name="Uring" unicode="&#x16e;" horiz-adv-x="675" d="M338 -13 C526 -13 618 116 618 270 L618 695 L470 695 L470 270 C470 187 426 127 338 127 C250 127 206 187 206 270 L206 695 L57 695 L57 270 C57 116 150 -13 338 -13 L338 -13 Z M205 821 C205 746 261 694 338 694 C416 694 471 746 471 821 C471 894 416 947 338 947 C261 947 205 894 205 821 L205 821 Z M291 821 C291 847 311 865 338 865 C365 865 384 847 384 821 C384 794 365 776 338 776 C311 776 291 794 291 821 L291 821 Z " />
<glyph glyph-name="uring" unicode="&#x16f;" horiz-adv-x="598" d="M252 -13 C315 -13 369 12 406 50 L406 0 L545 0 L545 527 L397 527 L397 215 C397 160 357 119 296 119 C234 119 196 160 196 218 L196 527 L48 527 L48 199 C48 79 118 -13 252 -13 L252 -13 Z M159 696 C159 620 215 568 292 568 C370 568 425 620 425 696 C425 769 370 822 292 822 C215 822 159 769 159 696 L159 696 Z M245 696 C245 721 265 740 292 740 C319 740 339 721 339 696 C339 669 319 650 292 650 C265 650 245 669 245 696 L245 696 Z " />
<glyph glyph-name="Uhungarumlaut" unicode="&#x170;" horiz-adv-x="675" d="M338 -13 C526 -13 618 116 618 270 L618 695 L470 695 L470 270 C470 187 426 127 338 127 C250 127 206 187 206 270 L206 695 L57 695 L57 270 C57 116 150 -13 338 -13 L338 -13 Z M123 803 L214 737 L354 917 L252 991 L123 803 Z M356 803 L447 737 L588 917 L485 991 L356 803 Z " />
<glyph glyph-name="uhungarumlaut" unicode="&#x171;" horiz-adv-x="598" d="M252 -13 C315 -13 369 12 406 50 L406 0 L545 0 L545 527 L397 527 L397 215 C397 160 357 119 296 119 C234 119 196 160 196 218 L196 527 L48 527 L48 199 C48 79 118 -13 252 -13 L252 -13 Z M83 638 L174 572 L314 746 L212 821 L83 638 Z M313 638 L404 572 L545 746 L442 821 L313 638 Z " />
<glyph glyph-name="Uogonek" unicode="&#x172;" horiz-adv-x="675" d="M57 270 C57 119 146 -8 326 -13 C289 -48 271 -83 271 -120 C271 -183 319 -225 391 -225 C440 -225 480 -209 503 -184 L450 -115 C440 -126 429 -131 415 -131 C396 -131 382 -117 382 -97 C382 -76 392 -59 423 -27 L460 9 C566 52 618 154 618 270 L618 695 L470 695 L470 270 C470 187 426 127 338 127 C250 127 206 187 206 270 L206 695 L57 695 L57 270 Z " />
<glyph glyph-name="uogonek" unicode="&#x173;" horiz-adv-x="598" d="M252 -13 C315 -13 369 12 406 50 L406 0 L437 0 C380 -45 353 -86 353 -132 C353 -195 401 -237 473 -237 C522 -237 562 -221 585 -196 L532 -127 C522 -138 511 -143 497 -143 C478 -143 464 -129 464 -109 C464 -88 474 -71 505 -39 L545 0 L545 527 L397 527 L397 215 C397 160 357 119 296 119 C234 119 196 160 196 218 L196 527 L48 527 L48 199 C48 79 118 -13 252 -13 L252 -13 Z " />
<glyph glyph-name="Wcircumflex" unicode="&#x174;" horiz-adv-x="914" d="M167 0 L340 0 L457 489 L574 0 L749 0 L908 695 L762 695 L659 172 L538 695 L377 695 L257 174 L154 695 L7 695 L167 0 Z M252 760 L384 760 L457 844 L530 760 L662 760 L519 941 L399 941 L252 760 Z " />
<glyph glyph-name="wcircumflex" unicode="&#x175;" horiz-adv-x="809" d="M145 0 L320 0 L407 359 L497 0 L672 0 L808 527 L657 527 L577 147 L490 527 L325 527 L239 147 L158 527 L7 527 L145 0 Z M204 601 L333 601 L404 703 L476 601 L604 601 L469 795 L342 795 L204 601 Z " />
<glyph glyph-name="Ycircumflex" unicode="&#x176;" horiz-adv-x="650" d="M251 0 L399 0 L399 283 L653 695 L487 695 L325 411 L163 695 L-3 695 L251 283 L251 0 Z M121 760 L253 760 L326 844 L399 760 L531 760 L388 941 L268 941 L121 760 Z " />
<glyph glyph-name="ycircumflex" unicode="&#x177;" horiz-adv-x="565" d="M180 0 L229 0 L158 -179 L304 -179 L369 0 L563 527 L410 527 L276 118 L157 527 L4 527 L180 0 Z M82 601 L211 601 L282 703 L354 601 L482 601 L347 795 L220 795 L82 601 Z " />
<glyph glyph-name="Ydieresis" unicode="&#x178;" horiz-adv-x="650" d="M251 0 L399 0 L399 283 L653 695 L487 695 L325 411 L163 695 L-3 695 L251 283 L251 0 Z M109 851 C109 795 152 756 203 756 C257 756 299 795 299 849 C299 904 258 944 206 944 C152 944 109 907 109 851 L109 851 Z M353 851 C353 795 396 756 447 756 C501 756 543 795 543 849 C543 904 502 944 449 944 C396 944 353 907 353 851 L353 851 Z " />
<glyph glyph-name="Zacute" unicode="&#x179;" horiz-adv-x="583" d="M29 0 L555 0 L555 133 L251 133 L550 695 L36 695 L36 565 L326 565 L29 0 Z M137 854 L170 747 L466 835 L430 956 L137 854 Z " />
<glyph glyph-name="zacute" unicode="&#x17a;" horiz-adv-x="532" d="M20 0 L504 0 L504 119 L247 119 L511 527 L46 527 L46 408 L287 408 L20 0 Z M91 666 L150 571 L396 713 L329 821 L91 666 Z " />
<glyph glyph-name="Zdotaccent" unicode="&#x17b;" horiz-adv-x="583" d="M29 0 L555 0 L555 133 L251 133 L550 695 L36 695 L36 565 L326 565 L29 0 Z M196 851 C196 795 239 756 290 756 C344 756 386 795 386 849 C386 905 345 943 292 943 C239 943 196 907 196 851 L196 851 Z " />
<glyph glyph-name="zdotaccent" unicode="&#x17c;" horiz-adv-x="532" d="M20 0 L504 0 L504 119 L247 119 L511 527 L46 527 L46 408 L287 408 L20 0 Z M148 697 C148 642 190 604 244 604 C298 604 341 642 341 697 C341 752 298 792 244 792 C190 792 148 752 148 697 L148 697 Z " />
<glyph glyph-name="Zcaron" unicode="&#x17d;" horiz-adv-x="583" d="M29 0 L555 0 L555 133 L251 133 L550 695 L36 695 L36 565 L326 565 L29 0 Z M86 941 L233 760 L353 760 L496 941 L364 941 L291 857 L218 941 L86 941 Z " />
<glyph glyph-name="zcaron" unicode="&#x17e;" horiz-adv-x="532" d="M20 0 L504 0 L504 119 L247 119 L511 527 L46 527 L46 408 L287 408 L20 0 Z M44 794 L182 600 L309 600 L444 794 L316 794 L244 693 L173 794 L44 794 Z " />
<glyph glyph-name="florin" unicode="&#x192;" horiz-adv-x="628" d="M136 353 L249 353 L219 104 C213 49 187 16 131 16 L67 16 L67 -100 L161 -100 C291 -100 347 -22 359 79 L392 353 L525 353 L525 479 L407 479 L408 491 C415 548 441 579 496 579 L560 579 L560 695 L466 695 C346 695 281 618 269 516 L265 479 L136 479 L136 353 Z " />
<glyph glyph-name="uni01EA" unicode="&#x1ea;" horiz-adv-x="792" d="M396 128 C270 128 184 219 184 348 C184 475 268 567 396 567 C524 567 607 475 607 348 C607 219 522 128 396 128 L396 128 Z M33 347 C33 148 184 -5 381 -13 C339 -50 319 -87 319 -126 C319 -189 367 -231 439 -231 C488 -231 528 -215 551 -190 L498 -121 C488 -132 477 -137 463 -137 C444 -137 430 -123 430 -103 C430 -82 440 -65 471 -33 L509 4 C655 49 758 183 758 347 C758 552 600 708 396 708 C192 708 33 552 33 347 L33 347 Z " />
<glyph glyph-name="uni01EB" unicode="&#x1eb;" horiz-adv-x="626" d="M314 119 C232 119 177 179 177 263 C177 348 232 407 314 407 C396 407 450 348 450 264 C450 179 394 119 314 119 L314 119 Z M28 263 C28 114 135 -1 289 -12 C246 -50 226 -86 226 -126 C226 -189 274 -231 346 -231 C395 -231 435 -215 458 -190 L405 -121 C395 -132 384 -137 370 -137 C351 -137 337 -123 337 -103 C337 -82 347 -65 378 -33 L416 4 C526 42 598 141 598 263 C598 421 479 539 313 539 C146 539 28 421 28 263 L28 263 Z " />
<glyph glyph-name="AEacute" unicode="&#x1fc;" horiz-adv-x="948" d="M-16 0 L139 0 L207 143 L441 143 L441 0 L912 0 L912 129 L590 129 L590 289 L870 289 L870 418 L590 418 L590 566 L907 566 L907 695 L314 695 L-16 0 Z M268 270 L410 566 L441 566 L441 270 L268 270 Z M435 854 L468 747 L764 835 L728 956 L435 854 Z " />
<glyph glyph-name="aeacute" unicode="&#x1fd;" horiz-adv-x="1040" d="M291 -13 C360 -13 415 13 453 58 L453 0 L590 0 L590 67 C634 14 698 -13 776 -13 C885 -13 947 31 990 77 L903 165 C868 128 830 104 761 104 C683 104 629 147 614 222 L1009 222 C1010 234 1012 251 1012 275 C1012 408 924 539 757 539 C686 539 629 508 590 458 L590 527 L453 527 L453 468 C415 513 360 539 291 539 C139 539 29 421 29 263 C29 106 139 -13 291 -13 L291 -13 Z M176 263 C176 347 233 409 312 409 C393 409 448 349 448 263 C448 177 392 118 312 118 C233 118 176 179 176 263 L176 263 Z M370 667 L429 572 L675 714 L608 822 L370 667 Z M613 309 C626 386 674 431 747 431 C820 431 867 383 879 309 L613 309 Z " />
<glyph glyph-name="Oslashacute" unicode="&#x1fe;" horiz-adv-x="795" d="M397 -13 C601 -13 759 143 759 347 C759 430 733 506 688 566 L758 639 L673 722 L602 647 C544 686 474 708 397 708 C193 708 34 552 34 347 C34 263 61 187 107 127 L36 53 L122 -28 L193 47 C251 9 321 -13 397 -13 L397 -13 Z M185 348 C185 475 269 567 397 567 C437 567 472 558 502 542 L211 236 C194 268 185 306 185 348 L185 348 Z M243 854 L276 747 L572 835 L536 956 L243 854 Z M294 152 L584 457 C600 425 608 388 608 348 C608 219 523 128 397 128 C358 128 324 137 294 152 L294 152 Z " />
<glyph glyph-name="oslashacute" unicode="&#x1ff;" horiz-adv-x="648" d="M323 -13 C489 -13 608 106 608 263 C608 317 594 365 570 407 L635 463 L567 541 L501 483 C453 519 392 539 323 539 C156 539 38 421 38 263 C38 208 52 159 78 117 L13 61 L83 -17 L149 40 C196 7 255 -13 323 -13 L323 -13 Z M172 666 L231 571 L477 713 L410 821 L172 666 Z M187 263 C187 348 242 407 324 407 C406 407 460 348 460 264 C460 179 404 119 324 119 C242 119 187 179 187 263 L187 263 Z " />
<glyph glyph-name="uni0218" unicode="&#x218;" horiz-adv-x="586" d="M286 -13 C449 -13 554 70 554 191 C554 455 198 381 198 509 C198 554 237 581 301 581 C364 581 411 554 445 517 L540 612 C498 660 420 708 309 708 C148 708 50 623 50 501 C50 253 403 329 403 188 C403 142 360 115 296 115 C219 115 161 149 118 200 L17 99 C68 36 160 -13 286 -13 L286 -13 Z M222 -120 C222 -153 241 -179 267 -190 L261 -202 L226 -262 L294 -287 L328 -231 C360 -182 372 -155 372 -122 C372 -78 340 -48 298 -48 C255 -48 222 -77 222 -120 L222 -120 Z " />
<glyph glyph-name="uni0219" unicode="&#x219;" horiz-adv-x="494" d="M248 -13 C388 -13 477 52 477 158 C477 270 382 299 304 320 C236 338 191 348 191 384 C191 413 221 429 263 429 C306 429 347 416 384 371 L469 456 C427 506 356 539 262 539 C129 539 46 465 46 377 C46 276 125 241 199 223 C288 201 331 191 331 151 C331 117 300 99 246 99 C195 99 143 123 108 168 L17 77 C66 19 148 -13 248 -13 L248 -13 Z M187 -120 C187 -153 206 -179 232 -190 L226 -202 L191 -262 L259 -287 L293 -231 C325 -182 337 -155 337 -122 C337 -78 305 -48 263 -48 C220 -48 187 -77 187 -120 L187 -120 Z " />
<glyph glyph-name="uni021A" unicode="&#x21a;" horiz-adv-x="585" d="M218 0 L367 0 L367 563 L572 563 L572 695 L13 695 L13 563 L218 563 L218 0 Z M217 -120 C217 -153 236 -179 262 -190 L256 -202 L221 -262 L289 -287 L323 -231 C355 -182 367 -155 367 -122 C367 -78 335 -48 293 -48 C250 -48 217 -77 217 -120 L217 -120 Z " />
<glyph glyph-name="uni021B" unicode="&#x21b;" horiz-adv-x="403" d="M299 0 L386 0 L386 129 L330 129 C278 129 249 159 249 215 L249 401 L382 401 L382 527 L254 527 L254 666 L110 666 L110 584 C110 546 92 527 56 527 L11 527 L11 401 L101 401 L101 197 C101 78 168 0 299 0 L299 0 Z M177 -111 C177 -144 196 -170 222 -181 L216 -193 L181 -253 L249 -278 L283 -222 C315 -173 327 -146 327 -113 C327 -69 295 -39 253 -39 C210 -39 177 -68 177 -111 L177 -111 Z " />
<glyph glyph-name="uni0237" unicode="&#x237;" horiz-adv-x="257" d="M-39 -185 L-10 -185 C112 -185 204 -103 204 37 L204 527 L56 527 L56 35 C56 -22 22 -58 -29 -58 L-39 -58 L-39 -185 Z " />
<glyph glyph-name="circumflex" unicode="&#x2c6;" horiz-adv-x="383" d="M30 601 L159 601 L230 703 L302 601 L430 601 L295 795 L168 795 L30 601 Z " />
<glyph glyph-name="caron" unicode="&#x2c7;" horiz-adv-x="448" d="M168 601 L295 601 L430 795 L302 795 L230 694 L159 795 L30 795 L168 601 Z " />
<glyph glyph-name="breve" unicode="&#x2d8;" horiz-adv-x="394" d="M216 601 C331 601 402 678 402 795 L286 795 C286 739 257 710 216 710 C175 710 146 739 146 795 L30 795 C30 678 100 601 216 601 L216 601 Z " />
<glyph glyph-name="dotaccent" unicode="&#x2d9;" horiz-adv-x="206" d="M126 605 C180 605 223 643 223 698 C223 753 180 793 126 793 C72 793 30 753 30 698 C30 643 72 605 126 605 L126 605 Z " />
<glyph glyph-name="ring" unicode="&#x2da;" horiz-adv-x="282" d="M163 568 C241 568 296 620 296 696 C296 769 241 822 163 822 C86 822 30 769 30 696 C30 620 86 568 163 568 L163 568 Z M116 696 C116 721 136 740 163 740 C190 740 210 721 210 696 C210 669 190 650 163 650 C136 650 116 669 116 696 L116 696 Z " />
<glyph glyph-name="ogonek" unicode="&#x2db;" horiz-adv-x="292" d="M150 -236 C199 -236 239 -220 262 -195 L209 -126 C199 -137 188 -142 174 -142 C155 -142 141 -128 141 -108 C141 -87 151 -70 182 -38 L222 1 L169 41 L122 7 C60 -40 30 -83 30 -131 C30 -194 78 -236 150 -236 L150 -236 Z " />
<glyph glyph-name="tilde" unicode="&#x2dc;" horiz-adv-x="467" d="M307 614 C383 614 416 675 432 736 L330 778 C324 751 306 735 284 735 C239 735 218 784 155 784 C79 784 44 720 30 662 L131 619 C137 647 155 662 178 662 C221 662 244 614 307 614 L307 614 Z " />
<glyph glyph-name="hungarumlaut" unicode="&#x2dd;" horiz-adv-x="411" d="M349 572 L490 746 L387 821 L258 638 L349 572 Z M28 638 L119 572 L259 746 L157 821 L28 638 Z " />
<glyph glyph-name="gravecomb" unicode="&#x300;" d="M276 572 L335 667 L97 822 L30 714 L276 572 Z " />
<glyph glyph-name="acutecomb" unicode="&#x301;" d="M89 572 L335 714 L268 822 L30 667 L89 572 Z " />
<glyph glyph-name="uni0302" unicode="&#x302;" d="M30 601 L159 601 L230 703 L302 601 L430 601 L295 795 L168 795 L30 601 Z " />
<glyph glyph-name="tildecomb" unicode="&#x303;" d="M307 614 C383 614 416 675 432 736 L330 778 C324 751 306 735 284 735 C239 735 218 784 155 784 C79 784 44 720 30 662 L131 619 C137 647 155 662 178 662 C221 662 244 614 307 614 L307 614 Z " />
<glyph glyph-name="uni0304" unicode="&#x304;" d="M30 640 L363 640 L363 758 L30 758 L30 640 Z " />
<glyph glyph-name="uni0306" unicode="&#x306;" d="M216 601 C331 601 402 678 402 795 L286 795 C286 739 257 710 216 710 C175 710 146 739 146 795 L30 795 C30 678 100 601 216 601 L216 601 Z " />
<glyph glyph-name="uni0307" unicode="&#x307;" d="M126 605 C180 605 223 643 223 698 C223 753 180 793 126 793 C72 793 30 753 30 698 C30 643 72 605 126 605 L126 605 Z " />
<glyph glyph-name="uni0308" unicode="&#x308;" d="M357 607 C410 607 451 645 451 697 C451 750 410 789 360 789 C308 789 266 753 266 700 C266 645 308 607 357 607 L357 607 Z M30 700 C30 645 72 607 121 607 C173 607 214 645 214 697 C214 750 174 789 124 789 C72 789 30 753 30 700 L30 700 Z " />
<glyph glyph-name="uni030A" unicode="&#x30a;" d="M163 568 C241 568 296 620 296 696 C296 769 241 822 163 822 C86 822 30 769 30 696 C30 620 86 568 163 568 L163 568 Z M116 696 C116 721 136 740 163 740 C190 740 210 721 210 696 C210 669 190 650 163 650 C136 650 116 669 116 696 L116 696 Z " />
<glyph glyph-name="uni030B" unicode="&#x30b;" d="M351 572 L492 746 L389 821 L260 638 L351 572 Z M30 638 L121 572 L261 746 L159 821 L30 638 Z " />
<glyph glyph-name="uni030C" unicode="&#x30c;" d="M168 601 L295 601 L430 795 L302 795 L230 694 L159 795 L30 795 L168 601 Z " />
<glyph glyph-name="uni0326" unicode="&#x326;" d="M102 -287 L136 -231 C168 -182 180 -155 180 -122 C180 -78 148 -48 106 -48 C63 -48 30 -77 30 -120 C30 -153 49 -179 75 -190 L69 -202 L34 -262 L102 -287 Z " />
<glyph glyph-name="uni0327" unicode="&#x327;" d="M153 -242 C231 -242 284 -199 284 -136 C284 -86 251 -48 207 -43 L230 17 L141 17 L108 -75 L115 -82 L131 -82 C161 -82 178 -101 178 -123 C178 -144 161 -161 133 -161 C107 -161 91 -149 79 -134 L30 -194 C53 -221 98 -242 153 -242 L153 -242 Z " />
<glyph glyph-name="uni0328" unicode="&#x328;" d="M150 -236 C199 -236 239 -220 262 -195 L209 -126 C199 -137 188 -142 174 -142 C155 -142 141 -128 141 -108 C141 -87 151 -70 182 -38 L222 1 L169 41 L122 7 C60 -40 30 -83 30 -131 C30 -194 78 -236 150 -236 L150 -236 Z " />
<glyph glyph-name="uni0335" unicode="&#x335;" d="M30 228 L389 228 L389 331 L30 331 L30 228 Z " />
<glyph glyph-name="uni0336" unicode="&#x336;" d="M30 266 L717 266 L717 382 L30 382 L30 266 Z " />
<glyph glyph-name="uni0337" unicode="&#x337;" d="M97 170 L415 348 L360 441 L42 264 L97 170 Z " />
<glyph glyph-name="uni0338" unicode="&#x338;" d="M149 173 L30 71 L100 -7 L216 94 L149 173 Z M453 437 L521 360 L652 473 L584 551 L453 437 Z " />
<glyph glyph-name="Wgrave" unicode="&#x1e80;" horiz-adv-x="914" d="M167 0 L340 0 L457 489 L574 0 L749 0 L908 695 L762 695 L659 172 L538 695 L377 695 L257 174 L154 695 L7 695 L167 0 Z M292 835 L588 747 L621 854 L329 956 L292 835 Z " />
<glyph glyph-name="wgrave" unicode="&#x1e81;" horiz-adv-x="809" d="M145 0 L320 0 L407 359 L497 0 L672 0 L808 527 L657 527 L577 147 L490 527 L325 527 L239 147 L158 527 L7 527 L145 0 Z M242 714 L488 572 L547 667 L309 822 L242 714 Z " />
<glyph glyph-name="Wacute" unicode="&#x1e82;" horiz-adv-x="914" d="M167 0 L340 0 L457 489 L574 0 L749 0 L908 695 L762 695 L659 172 L538 695 L377 695 L257 174 L154 695 L7 695 L167 0 Z M302 854 L335 747 L631 835 L595 956 L302 854 Z " />
<glyph glyph-name="wacute" unicode="&#x1e83;" horiz-adv-x="809" d="M145 0 L320 0 L407 359 L497 0 L672 0 L808 527 L657 527 L577 147 L490 527 L325 527 L239 147 L158 527 L7 527 L145 0 Z M251 667 L310 572 L556 714 L489 822 L251 667 Z " />
<glyph glyph-name="Wdieresis" unicode="&#x1e84;" horiz-adv-x="914" d="M167 0 L340 0 L457 489 L574 0 L749 0 L908 695 L762 695 L659 172 L538 695 L377 695 L257 174 L154 695 L7 695 L167 0 Z M239 851 C239 795 282 756 333 756 C387 756 429 795 429 849 C429 904 388 944 336 944 C282 944 239 907 239 851 L239 851 Z M483 851 C483 795 526 756 577 756 C631 756 673 795 673 849 C673 904 632 944 579 944 C526 944 483 907 483 851 L483 851 Z " />
<glyph glyph-name="wdieresis" unicode="&#x1e85;" horiz-adv-x="809" d="M145 0 L320 0 L407 359 L497 0 L672 0 L808 527 L657 527 L577 147 L490 527 L325 527 L239 147 L158 527 L7 527 L145 0 Z M193 700 C193 645 235 607 284 607 C336 607 377 645 377 697 C377 750 337 789 287 789 C235 789 193 753 193 700 L193 700 Z M429 700 C429 645 471 607 520 607 C573 607 614 645 614 697 C614 750 573 789 523 789 C471 789 429 753 429 700 L429 700 Z " />
<glyph glyph-name="uni1E9E" unicode="&#x1e9e;" horiz-adv-x="652" d="M390 -13 C530 -13 620 62 620 186 C620 284 560 354 469 376 L596 546 C558 643 475 708 331 708 C169 708 58 611 58 458 L58 0 L206 0 L206 458 C206 533 252 580 333 580 C386 580 420 563 443 536 L327 378 L327 294 L362 294 C430 294 471 258 471 199 C471 142 432 107 368 107 C324 107 287 116 247 138 L247 14 C286 -2 326 -13 390 -13 L390 -13 Z " />
<glyph glyph-name="Ygrave" unicode="&#x1ef2;" horiz-adv-x="650" d="M251 0 L399 0 L399 283 L653 695 L487 695 L325 411 L163 695 L-3 695 L251 283 L251 0 Z M162 835 L458 747 L491 854 L199 956 L162 835 Z " />
<glyph glyph-name="ygrave" unicode="&#x1ef3;" horiz-adv-x="565" d="M180 0 L229 0 L158 -179 L304 -179 L369 0 L563 527 L410 527 L276 118 L157 527 L4 527 L180 0 Z M121 714 L367 572 L426 667 L188 822 L121 714 Z " />
<glyph glyph-name="uni1EF8" unicode="&#x1ef8;" horiz-adv-x="650" d="M251 0 L399 0 L399 283 L653 695 L487 695 L325 411 L163 695 L-3 695 L251 283 L251 0 Z M124 807 L225 764 C232 791 248 807 274 807 C320 807 339 758 407 758 C485 758 527 820 543 880 L442 923 C435 896 418 880 393 880 C350 880 328 928 261 928 C181 928 138 863 124 807 L124 807 Z " />
<glyph glyph-name="uni1EF9" unicode="&#x1ef9;" horiz-adv-x="565" d="M180 0 L229 0 L158 -179 L304 -179 L369 0 L563 527 L410 527 L276 118 L157 527 L4 527 L180 0 Z M81 662 L182 619 C188 647 206 662 229 662 C272 662 295 614 358 614 C434 614 467 675 483 736 L381 778 C375 751 357 735 335 735 C290 735 269 784 206 784 C130 784 95 720 81 662 L81 662 Z " />
<glyph glyph-name="endash" unicode="&#x2013;" horiz-adv-x="508" d="M51 267 L457 267 L457 387 L51 387 L51 267 Z " />
<glyph glyph-name="emdash" unicode="&#x2014;" horiz-adv-x="757" d="M51 268 L705 268 L705 388 L51 388 L51 268 Z " />
<glyph glyph-name="quoteleft" unicode="&#x2018;" horiz-adv-x="224" d="M110 423 C156 423 193 458 193 506 C193 551 166 578 128 584 L189 715 L107 715 L50 592 C34 559 28 534 28 508 C28 458 65 423 110 423 L110 423 Z " />
<glyph glyph-name="quoteright" unicode="&#x2019;" horiz-adv-x="226" d="M41 430 L123 430 L180 553 C196 587 202 612 202 637 C202 687 165 722 119 722 C74 722 37 687 37 639 C37 595 64 568 102 561 L41 430 Z " />
<glyph glyph-name="quotesinglbase" unicode="&#x201a;" horiz-adv-x="229" d="M35 -141 L118 -141 L175 -18 C190 16 197 41 197 66 C197 116 160 151 114 151 C68 151 31 116 31 68 C31 24 58 -3 96 -10 L35 -141 Z " />
<glyph glyph-name="quotedblleft" unicode="&#x201c;" horiz-adv-x="422" d="M308 423 C354 423 391 458 391 506 C391 551 364 578 326 584 L387 715 L304 715 L247 592 C232 559 225 534 225 508 C225 458 263 423 308 423 L308 423 Z M28 508 C28 458 65 423 110 423 C156 423 193 458 193 506 C193 551 166 578 128 584 L189 715 L107 715 L50 592 C34 559 28 534 28 508 L28 508 Z " />
<glyph glyph-name="quotedblright" unicode="&#x201d;" horiz-adv-x="424" d="M238 430 L321 430 L378 553 C393 587 400 612 400 637 C400 687 363 722 317 722 C272 722 234 687 234 639 C234 594 262 567 299 561 L238 430 Z M37 639 C37 595 64 568 102 561 L41 430 L123 430 L180 553 C196 587 202 612 202 637 C202 687 165 722 119 722 C74 722 37 687 37 639 L37 639 Z " />
<glyph glyph-name="quotedblbase" unicode="&#x201e;" horiz-adv-x="427" d="M233 -141 L315 -141 L373 -18 C388 16 395 41 395 66 C395 116 357 151 312 151 C266 151 229 116 229 68 C229 24 256 -3 294 -10 L233 -141 Z M31 68 C31 24 58 -3 96 -10 L35 -141 L118 -141 L175 -18 C190 16 197 41 197 66 C197 116 160 151 114 151 C68 151 31 116 31 68 L31 68 Z " />
<glyph glyph-name="dagger" unicode="&#x2020;" horiz-adv-x="380" d="M134 278 L244 278 L244 515 L343 515 L343 617 L244 617 L244 731 L134 731 L134 617 L37 617 L37 515 L134 515 L134 278 Z " />
<glyph glyph-name="daggerdbl" unicode="&#x2021;" horiz-adv-x="404" d="M147 278 L257 278 L257 357 L355 357 L355 459 L257 459 L257 550 L355 550 L355 652 L257 652 L257 731 L147 731 L147 652 L49 652 L49 550 L147 550 L147 459 L49 459 L49 357 L147 357 L147 278 Z " />
<glyph glyph-name="bullet" unicode="&#x2022;" horiz-adv-x="392" d="M196 202 C274 202 334 260 334 338 C334 418 274 477 196 477 C119 477 59 418 59 338 C59 260 119 202 196 202 L196 202 Z " />
<glyph glyph-name="ellipsis" unicode="&#x2026;" horiz-adv-x="655" d="M539 -10 C587 -10 623 26 623 72 C623 121 587 157 539 157 C493 157 457 121 457 72 C457 26 493 -10 539 -10 L539 -10 Z M33 72 C33 26 69 -10 116 -10 C163 -10 199 26 199 72 C199 121 163 157 116 157 C69 157 33 121 33 72 L33 72 Z M245 72 C245 26 281 -10 328 -10 C375 -10 411 26 411 72 C411 121 375 157 328 157 C281 157 245 121 245 72 L245 72 Z " />
<glyph glyph-name="perthousand" unicode="&#x2030;" horiz-adv-x="1088" d="M120 0 L233 1 L630 696 L515 695 L120 0 Z M24 541 C24 451 92 379 185 379 C279 379 346 451 346 541 C346 631 279 703 185 703 C92 703 24 631 24 541 L24 541 Z M119 541 C119 580 146 611 185 611 C224 611 251 580 251 541 C251 501 223 471 185 471 C147 471 119 501 119 541 L119 541 Z M402 154 C402 64 470 -8 563 -8 C657 -8 724 64 724 154 C724 244 657 316 563 316 C470 316 402 244 402 154 L402 154 Z M497 154 C497 193 525 224 563 224 C602 224 629 193 629 154 C629 114 601 84 563 84 C525 84 497 114 497 154 L497 154 Z M744 154 C744 64 812 -8 905 -8 C999 -8 1066 64 1066 154 C1066 244 999 316 905 316 C812 316 744 244 744 154 L744 154 Z M839 154 C839 193 866 224 905 224 C944 224 971 193 971 154 C971 114 943 84 905 84 C867 84 839 114 839 154 L839 154 Z " />
<glyph glyph-name="guilsinglleft" unicode="&#x2039;" horiz-adv-x="320" d="M141 72 L278 72 L163 244 L278 415 L141 415 L25 244 L141 72 Z " />
<glyph glyph-name="guilsinglright" unicode="&#x203a;" horiz-adv-x="320" d="M42 72 L179 72 L295 244 L179 415 L42 415 L157 244 L42 72 Z " />
<glyph glyph-name="fraction" unicode="&#x2044;" horiz-adv-x="416" d="M-16 0 L91 0 L435 695 L327 695 L-16 0 Z " />
<glyph glyph-name="uni2074" unicode="&#x2074;" horiz-adv-x="334" d="M23 413 L176 413 L176 347 L269 347 L269 413 L301 413 L301 480 L269 480 L269 695 L177 695 L23 482 L23 413 Z M96 480 L177 592 L177 480 L96 480 Z " />
<glyph glyph-name="colonmonetary" unicode="&#x20a1;" horiz-adv-x="648" d="M98 -99 L226 -99 L246 8 C258 3 271 -1 284 -5 L266 -99 L394 -99 L411 -8 C497 8 552 62 593 133 L476 206 C453 172 421 128 357 128 C266 128 204 215 204 347 C204 479 264 567 358 567 C424 567 456 526 474 489 L591 562 C576 591 557 619 532 642 L561 794 L434 794 L416 702 C403 704 390 706 376 707 L392 794 L265 794 L245 687 C127 638 53 510 53 347 C53 244 83 155 134 92 L98 -99 Z " />
<glyph glyph-name="franc" unicode="&#x20a3;" horiz-adv-x="628" d="M132 0 L281 0 L281 88 L479 88 L479 210 L281 210 L281 292 L534 292 L534 421 L281 421 L281 566 L572 566 L572 695 L132 695 L132 210 L57 210 L57 88 L132 88 L132 0 Z " />
<glyph glyph-name="lira" unicode="&#x20a4;" horiz-adv-x="628" d="M123 0 L588 0 L588 129 L272 129 L272 208 L438 208 L438 301 L272 301 L272 348 L438 348 L438 441 L272 441 L272 478 C272 533 308 579 379 579 C430 579 461 548 480 522 L587 612 C553 660 484 708 372 708 C224 708 123 605 123 478 L123 441 L49 441 L49 348 L123 348 L123 301 L49 301 L49 208 L123 208 L123 0 Z " />
<glyph glyph-name="peseta" unicode="&#x20a7;" horiz-adv-x="648" d="M95 0 L243 0 L243 257 L326 257 C447 257 533 315 560 409 L629 409 L629 538 L561 538 C536 635 450 695 326 695 L95 695 L95 538 L20 538 L20 409 L95 409 L95 0 Z M243 387 L243 565 L318 565 C384 565 418 528 418 476 C418 424 384 387 318 387 L243 387 Z " />
<glyph glyph-name="Euro" unicode="&#x20ac;" horiz-adv-x="628" d="M376 -13 C483 -13 555 30 603 96 L503 192 C478 156 441 128 378 128 C313 128 263 158 239 232 L375 232 L381 325 L224 325 L224 347 C224 356 224 364 225 372 L388 372 L395 466 L240 466 C264 538 313 567 378 567 C434 567 480 542 503 508 L600 604 C553 665 479 708 375 708 C232 708 125 612 87 466 L37 466 L29 372 L74 372 C73 364 73 355 73 347 L73 325 L24 325 L17 232 L87 232 C123 85 231 -13 376 -13 L376 -13 Z " />
<glyph glyph-name="uni20B1" unicode="&#x20b1;" horiz-adv-x="648" d="M95 0 L243 0 L243 257 L326 257 C404 257 468 281 510 324 L629 324 L629 453 L568 453 C569 461 569 468 569 476 C569 484 569 492 568 500 L629 500 L629 629 L510 629 C468 671 405 695 326 695 L95 695 L95 629 L20 629 L20 500 L95 500 L95 453 L20 453 L20 324 L95 324 L95 0 Z M243 387 L243 565 L318 565 C384 565 418 528 418 476 C418 424 384 387 318 387 L243 387 Z " />
<glyph glyph-name="uni20B5" unicode="&#x20b5;" horiz-adv-x="628" d="M288 -99 L408 -99 L408 -8 C489 6 545 49 588 95 L488 194 C455 153 417 128 354 128 C256 128 199 215 199 347 C199 480 261 567 356 567 C416 567 452 539 483 499 L582 598 C539 653 480 691 406 703 L406 794 L287 794 L287 701 C142 670 48 531 48 347 C48 163 144 24 288 -7 L288 -99 Z " />
<glyph glyph-name="uni20B9" unicode="&#x20b9;" horiz-adv-x="648" d="M54 261 L319 0 L525 0 L254 261 L292 261 C400 261 480 307 515 383 L595 383 L595 512 L533 512 C530 531 525 549 519 566 L595 566 L595 695 L54 695 L54 566 L283 566 C350 566 384 529 384 478 C384 428 350 391 283 391 L54 391 L54 261 Z " />
<glyph glyph-name="uni20BD" unicode="&#x20bd;" horiz-adv-x="628" d="M121 0 L270 0 L270 89 L469 89 L469 210 L270 210 L270 257 L359 257 C507 257 602 344 602 476 C602 609 508 695 359 695 L121 695 L121 387 L46 387 L46 257 L121 257 L121 210 L46 210 L46 89 L121 89 L121 0 Z M270 387 L270 565 L351 565 C418 565 451 528 451 476 C451 424 418 387 351 387 L270 387 Z " />
<glyph glyph-name="trademark" unicode="&#x2122;" horiz-adv-x="616" d="M385 429 L445 429 L488 568 L499 421 L566 421 L546 679 L463 679 L416 522 L369 679 L285 679 L265 421 L332 421 L343 568 L385 429 Z M25 615 L98 615 L98 421 L169 421 L169 615 L243 615 L243 679 L25 679 L25 615 Z " />
<glyph glyph-name="minus" unicode="&#x2212;" horiz-adv-x="532" d="M55 265 L477 265 L477 390 L55 390 L55 265 Z " />
<glyph glyph-name="infinity" unicode="&#x221e;" horiz-adv-x="2921" d="M100 -175 L235 -175 L235 62 C272 14 328 -17 406 -17 C547 -17 664 105 664 263 C664 419 547 540 406 540 C328 540 272 512 235 464 L235 527 L100 527 L100 -175 Z M235 263 C235 352 298 412 380 412 C464 412 526 352 526 263 C526 175 464 115 380 115 C298 115 235 175 235 263 L235 263 Z M694 263 C694 105 810 -17 948 -17 C1024 -17 1082 15 1120 62 L1120 -1 L1171 -1 L1255 81 L1255 527 L1120 527 L1120 464 C1082 512 1024 540 948 540 C810 540 694 419 694 263 L694 263 Z M829 263 C829 352 891 412 973 412 C1058 412 1120 352 1120 263 C1120 175 1058 115 973 115 C891 115 829 175 829 263 L829 263 Z M1242 -1 L1956 -1 C1914 30 1881 75 1862 127 L1560 127 L1950 527 L1334 527 L1334 396 L1636 396 L1242 -1 Z M1892 263 C1892 105 2005 -17 2179 -17 C2281 -17 2360 26 2409 97 L2300 162 C2276 130 2235 108 2182 108 C2112 108 2054 138 2035 206 L2429 206 C2433 224 2434 243 2434 263 C2434 419 2326 540 2170 540 C2006 540 1892 419 1892 263 L1892 263 Z M2033 311 C2048 381 2098 419 2170 419 C2226 419 2283 388 2300 311 L2033 311 Z M2474 384 C2474 286 2548 211 2648 211 C2746 211 2821 286 2821 384 C2821 484 2746 558 2648 558 C2548 558 2474 484 2474 384 L2474 384 Z M2511 384 C2511 465 2567 523 2648 523 C2728 523 2785 465 2785 384 C2785 304 2728 245 2648 245 C2567 245 2511 304 2511 384 L2511 384 Z M2581 286 L2615 286 L2615 369 L2642 369 L2696 286 L2734 286 L2676 370 C2700 372 2729 389 2729 429 C2729 469 2694 485 2658 485 L2581 485 L2581 286 Z M2615 397 L2615 457 L2652 457 C2674 457 2694 451 2694 429 C2694 401 2674 397 2652 397 L2615 397 Z " />
<glyph glyph-name="approxequal" unicode="&#x2248;" horiz-adv-x="537" d="M363 337 C416 337 464 365 494 416 L424 496 C407 469 376 457 344 457 C281 457 257 510 175 510 C121 510 74 482 44 431 L114 351 C131 378 162 389 194 389 C257 389 281 337 363 337 L363 337 Z M43 204 L113 124 C130 151 161 163 193 163 C257 163 281 110 363 110 C416 110 464 138 494 189 L424 269 C407 242 376 231 344 231 C281 231 257 283 175 283 C121 283 73 255 43 204 L43 204 Z " />
<glyph glyph-name="notequal" unicode="&#x2260;" horiz-adv-x="533" d="M110 36 L247 36 L277 132 L477 132 L477 256 L317 256 L351 364 L477 364 L477 489 L390 489 L420 583 L283 583 L253 489 L56 489 L56 364 L214 364 L180 256 L56 256 L56 132 L140 132 L110 36 Z " />
<glyph glyph-name="lozenge" unicode="&#x25ca;" horiz-adv-x="620" d="M389 429 L449 429 L492 568 L503 421 L571 421 L550 679 L467 679 L420 522 L373 679 L289 679 L270 421 L336 421 L347 568 L389 429 Z M27 456 C47 433 85 416 137 416 C202 416 243 447 243 495 C243 592 110 570 110 608 C110 624 124 630 143 630 C165 630 182 621 195 609 L237 651 C220 668 189 685 147 685 C81 685 42 653 42 608 C42 512 176 537 176 494 C176 479 160 471 142 471 C115 471 89 481 71 500 L27 456 Z " />
<glyph glyph-name="uniF8FF" unicode="&#xf8ff;" horiz-adv-x="2534" d="M1120 263 C1120 352 1058 412 973 412 C891 412 829 352 829 263 C829 175 891 115 973 115 C1058 115 1120 175 1120 263 L1120 263 Z M100 -175 L235 -175 L235 62 C272 14 328 -17 406 -17 C547 -17 664 105 664 263 C664 419 547 540 406 540 C328 540 272 512 235 464 L235 527 L100 527 L100 -175 Z M235 263 C235 352 298 412 380 412 C464 412 526 352 526 263 C526 175 464 115 380 115 C298 115 235 175 235 263 L235 263 Z M694 263 C694 419 810 540 948 540 C1024 540 1082 512 1120 464 L1120 527 L1255 527 L1255 81 L1171 -1 L1120 -1 L1120 62 C1082 15 1024 -17 948 -17 C810 -17 694 105 694 263 L694 263 Z M1242 -1 L1636 396 L1334 396 L1334 527 L1950 527 L1560 127 L1862 127 C1881 75 1914 30 1956 -1 L1242 -1 Z M1892 263 C1892 105 2005 -17 2179 -17 C2281 -17 2360 26 2409 97 L2300 162 C2276 130 2235 108 2182 108 C2112 108 2054 138 2035 206 L2429 206 C2433 224 2434 243 2434 263 C2434 419 2326 540 2170 540 C2006 540 1892 419 1892 263 L1892 263 Z M2033 311 C2048 381 2098 419 2170 419 C2226 419 2283 388 2300 311 L2033 311 Z " />
</font>
</svg>
