<?xml version="1.0" encoding="UTF-8"?>
<svg xmlns="http://www.w3.org/2000/svg" xmlns:xlink="http://www.w3.org/1999/xlink" version="1.2" >
<font id="Paze Sans Light">
<font-face  font-family="Paze Sans" units-per-em="1000" ascent="1040" descent="-345" font-style="normal" font-weight="300" font-stretch="normal" cap-height="695" x-height="527" underline-position="-100" underline-thickness="50" />
<missing-glyph  horiz-adv-x="630" d="M100 0 L530 0 L530 730 L100 730 L100 0 Z M140 73 L140 657 L293 365 L140 73 Z M165 35 L315 322 L465 35 L165 35 Z M165 695 L465 695 L315 408 L165 695 Z M338 365 L490 657 L490 73 L338 365 Z " />
<glyph glyph-name="NULL" d="" />
<glyph glyph-name="CR" unicode="&#xd;" horiz-adv-x="250" d="" />
<glyph glyph-name="space" unicode="&#x20;" horiz-adv-x="234" d="" />
<glyph glyph-name="exclam" unicode="&#x21;" horiz-adv-x="237" d="M91 198 L146 198 L157 731 L79 731 L91 198 Z M68 40 C68 12 90 -9 118 -9 C147 -9 169 12 169 40 C169 70 147 91 118 91 C90 91 68 70 68 40 L68 40 Z " />
<glyph glyph-name="quotedbl" unicode="&#x22;" horiz-adv-x="302" d="M191 516 L242 516 L247 715 L186 715 L191 516 Z M55 715 L60 516 L111 516 L117 715 L55 715 Z " />
<glyph glyph-name="numbersign" unicode="&#x23;" horiz-adv-x="682" d="M335 -31 L393 -31 L452 185 L586 185 L586 237 L466 237 L527 464 L653 464 L653 516 L541 516 L598 725 L541 725 L484 516 L290 516 L347 725 L291 725 L234 516 L98 516 L98 464 L220 464 L158 237 L30 237 L30 185 L144 185 L85 -31 L142 -31 L201 185 L394 185 L335 -31 Z M215 237 L276 464 L470 464 L408 237 L215 237 Z " />
<glyph glyph-name="dollar" unicode="&#x24;" horiz-adv-x="598" d="M285 -99 L340 -99 L340 -10 C458 1 535 70 535 173 C535 432 167 349 167 539 C167 602 219 648 312 648 C382 648 435 620 474 566 L520 612 C484 662 425 697 347 705 L347 794 L292 794 L292 705 C173 697 100 629 100 533 C100 293 467 371 467 170 C467 95 403 48 310 48 C229 48 165 88 119 150 L71 105 C115 43 190 -4 285 -10 L285 -99 Z " />
<glyph glyph-name="percent" unicode="&#x25;" horiz-adv-x="738" d="M138 0 L193 0 L599 695 L543 695 L138 0 Z M29 542 C29 453 94 384 184 384 C274 384 338 453 338 542 C338 630 274 701 184 701 C94 701 29 630 29 542 L29 542 Z M75 543 C75 605 121 657 184 657 C245 657 291 605 291 543 C291 478 244 429 184 429 C121 429 75 478 75 543 L75 543 Z M400 152 C400 63 465 -6 555 -6 C645 -6 709 63 709 152 C709 240 645 311 555 311 C465 311 400 240 400 152 L400 152 Z M447 153 C447 214 493 266 555 266 C616 266 663 214 663 153 C663 87 616 38 555 38 C493 38 447 87 447 153 L447 153 Z " />
<glyph glyph-name="ampersand" unicode="&#x26;" horiz-adv-x="669" d="M44 182 C44 93 114 -11 266 -11 C368 -11 435 33 482 90 L565 0 L641 0 L520 131 C558 184 584 241 601 299 L557 343 C538 281 519 232 480 175 L304 366 C398 404 484 456 484 551 C484 646 407 706 306 706 C196 706 128 632 128 547 C128 484 161 438 211 382 C141 353 44 305 44 182 L44 182 Z M111 188 C111 281 191 318 249 341 L440 135 C401 84 347 48 269 48 C159 48 111 122 111 188 L111 188 Z M189 543 C189 604 234 653 306 653 C374 653 424 611 424 545 C424 474 352 437 269 404 C226 451 189 492 189 543 L189 543 Z " />
<glyph glyph-name="quotesingle" unicode="&#x27;" horiz-adv-x="171" d="M60 516 L111 516 L117 715 L55 715 L60 516 Z " />
<glyph glyph-name="parenleft" unicode="&#x28;" horiz-adv-x="310" d="M109 333 C109 519 196 642 299 723 L255 766 C145 685 45 545 45 333 C45 120 145 -20 255 -101 L299 -58 C196 23 109 146 109 333 L109 333 Z " />
<glyph glyph-name="parenright" unicode="&#x29;" horiz-adv-x="310" d="M201 332 C201 146 114 23 11 -58 L55 -101 C165 -20 265 120 265 332 C265 545 165 685 55 766 L11 723 C114 642 201 519 201 332 L201 332 Z " />
<glyph glyph-name="asterisk" unicode="&#x2a;" horiz-adv-x="403" d="M174 402 L229 402 L222 524 L326 456 L354 506 L238 563 L354 621 L326 670 L222 602 L229 731 L174 731 L181 602 L77 670 L50 621 L165 563 L50 506 L77 456 L181 524 L174 402 Z " />
<glyph glyph-name="plus" unicode="&#x2b;" horiz-adv-x="484" d="M212 78 L272 78 L272 278 L453 278 L453 337 L272 337 L272 530 L212 530 L212 337 L31 337 L31 278 L212 278 L212 78 Z " />
<glyph glyph-name="comma" unicode="&#x2c;" horiz-adv-x="192" d="M46 -97 L89 -97 L129 -17 C142 8 146 23 146 40 C146 70 124 91 96 91 C68 91 46 70 46 41 C46 13 65 -5 91 -7 L46 -97 Z " />
<glyph glyph-name="hyphen" unicode="&#x2d;" horiz-adv-x="375" d="M63 280 L311 280 L311 335 L63 335 L63 280 Z " />
<glyph glyph-name="period" unicode="&#x2e;" horiz-adv-x="199" d="M99 -9 C128 -9 150 12 150 40 C150 70 128 91 99 91 C71 91 49 70 49 40 C49 12 71 -9 99 -9 L99 -9 Z " />
<glyph glyph-name="slash" unicode="&#x2f;" horiz-adv-x="330" d="M38 -50 L99 -50 L290 711 L231 711 L38 -50 Z " />
<glyph glyph-name="zero" unicode="0" horiz-adv-x="598" d="M300 -11 C460 -11 559 125 559 347 C559 571 460 705 300 705 C139 705 38 572 38 347 C38 124 139 -11 300 -11 L300 -11 Z M106 347 C106 532 183 641 300 641 C415 641 491 531 491 347 C491 162 415 52 300 52 C183 52 106 161 106 347 L106 347 Z " />
<glyph glyph-name="one" unicode="1" horiz-adv-x="598" d="M89 0 L527 0 L527 56 L344 56 L344 695 L278 695 L278 647 C278 616 264 601 233 601 L93 601 L93 545 L278 545 L278 56 L89 56 L89 0 Z " />
<glyph glyph-name="two" unicode="2" horiz-adv-x="598" d="M70 0 L521 0 L521 57 L166 57 L380 282 C442 343 507 424 507 519 C507 628 420 705 289 705 C182 705 112 652 62 586 L104 545 C156 611 210 646 287 646 C382 646 439 590 439 515 C439 433 374 362 329 316 L70 44 L70 0 Z " />
<glyph glyph-name="three" unicode="3" horiz-adv-x="598" d="M292 -11 C432 -11 527 81 527 202 C527 322 436 405 313 405 L295 405 L513 641 L513 695 L79 695 L79 640 L437 640 L219 405 L219 358 L299 358 C383 358 458 302 458 205 C458 115 394 47 293 47 C207 47 151 88 101 155 L57 112 C102 40 180 -11 292 -11 L292 -11 Z " />
<glyph glyph-name="four" unicode="4" horiz-adv-x="598" d="M31 173 L398 173 L398 0 L464 0 L464 173 L557 173 L557 226 L464 226 L464 694 L398 694 L31 218 L31 173 Z M105 226 L398 606 L398 226 L105 226 Z " />
<glyph glyph-name="five" unicode="5" horiz-adv-x="598" d="M290 -11 C436 -11 527 83 527 206 C527 334 439 420 297 420 L170 420 L182 639 L487 639 L487 695 L127 695 L110 366 L288 366 C389 366 459 298 459 207 C459 116 396 47 293 47 C209 47 150 88 104 156 L60 111 C112 35 188 -11 290 -11 L290 -11 Z " />
<glyph glyph-name="six" unicode="6" horiz-adv-x="598" d="M304 -11 C441 -11 545 86 545 225 C545 363 442 458 304 458 C283 458 263 456 242 450 L433 695 L355 695 L118 390 C82 344 56 291 56 225 C56 89 164 -11 304 -11 L304 -11 Z M124 225 C124 326 202 402 304 402 C404 402 477 328 477 225 C477 122 404 47 304 47 C202 47 124 123 124 225 L124 225 Z " />
<glyph glyph-name="seven" unicode="7" horiz-adv-x="598" d="M172 0 L245 0 L529 642 L529 695 L59 695 L59 638 L459 638 L172 0 Z " />
<glyph glyph-name="eight" unicode="8" horiz-adv-x="598" d="M299 -11 C432 -11 528 70 528 185 C528 280 460 349 385 372 C449 396 499 449 499 530 C499 630 419 705 299 705 C177 705 99 628 99 530 C99 449 149 396 211 372 C136 349 70 280 70 185 C70 70 166 -11 299 -11 L299 -11 Z M137 193 C137 280 202 345 299 345 C395 345 461 280 461 193 C461 107 398 45 299 45 C199 45 137 107 137 193 L137 193 Z M163 523 C163 595 217 649 299 649 C380 649 435 595 435 523 C435 453 379 397 299 397 C219 397 163 453 163 523 L163 523 Z " />
<glyph glyph-name="nine" unicode="9" horiz-adv-x="598" d="M165 0 L244 0 L481 305 C516 351 542 406 542 470 C542 606 434 705 295 705 C158 705 54 608 54 470 C54 332 156 237 294 237 C316 237 335 239 356 245 L165 0 Z M122 470 C122 572 195 646 295 646 C396 646 474 571 474 470 C474 369 396 293 295 293 C195 293 122 367 122 470 L122 470 Z " />
<glyph glyph-name="colon" unicode="&#x3a;" horiz-adv-x="224" d="M112 354 C141 354 162 375 162 404 C162 433 141 454 112 454 C83 454 62 433 62 404 C62 375 83 354 112 354 L112 354 Z M62 40 C62 12 83 -9 112 -9 C141 -9 162 12 162 40 C162 70 141 91 112 91 C83 91 62 70 62 40 L62 40 Z " />
<glyph glyph-name="semicolon" unicode="&#x3b;" horiz-adv-x="227" d="M64 -97 L107 -97 L147 -17 C160 8 164 23 164 40 C164 70 142 91 114 91 C86 91 64 70 64 41 C64 13 83 -5 109 -7 L64 -97 Z M63 397 C63 369 84 347 113 347 C142 347 163 369 163 397 C163 426 142 448 113 448 C84 448 63 426 63 397 L63 397 Z " />
<glyph glyph-name="less" unicode="&#x3c;" horiz-adv-x="410" d="M357 63 L357 127 L96 293 L357 457 L357 521 L31 316 L31 269 L357 63 Z " />
<glyph glyph-name="equal" unicode="&#x3d;" horiz-adv-x="551" d="M68 380 L483 380 L483 439 L68 439 L68 380 Z M68 145 L483 145 L483 204 L68 204 L68 145 Z " />
<glyph glyph-name="greater" unicode="&#x3e;" horiz-adv-x="410" d="M52 63 L378 269 L378 316 L52 521 L52 457 L313 292 L52 127 L52 63 Z " />
<glyph glyph-name="question" unicode="&#x3f;" horiz-adv-x="439" d="M153 243 L153 198 L213 198 L213 242 C213 393 404 405 404 573 C404 677 335 741 221 741 C136 741 75 702 36 642 L79 599 C114 649 155 677 215 677 C289 677 335 637 335 566 C335 431 153 420 153 243 L153 243 Z M135 40 C135 12 157 -9 185 -9 C214 -9 235 12 235 41 C235 70 214 91 185 91 C157 91 135 70 135 40 L135 40 Z " />
<glyph glyph-name="at" unicode="&#x40;" horiz-adv-x="932" d="M469 -124 C584 -124 676 -84 736 -17 L697 22 C644 -35 569 -70 469 -70 C244 -70 88 83 88 319 C88 535 243 700 465 700 C695 700 840 545 840 336 C840 217 793 156 728 156 C686 156 659 181 659 227 L659 514 L613 514 L613 423 C581 485 522 524 444 524 C326 524 242 429 242 308 C242 187 329 92 447 92 C526 92 583 129 614 188 C625 133 668 101 728 101 C827 101 897 195 897 336 C897 578 725 754 465 754 C207 754 31 568 31 319 C31 56 205 -124 469 -124 L469 -124 Z M297 308 C297 405 365 473 451 473 C541 473 604 406 604 308 C604 211 541 143 451 143 C363 143 297 212 297 308 L297 308 Z " />
<glyph glyph-name="A" unicode="A" horiz-adv-x="617" d="M11 0 L77 0 L157 214 L460 214 L540 0 L606 0 L348 695 L268 695 L11 0 Z M177 269 L309 623 L440 269 L177 269 Z " />
<glyph glyph-name="B" unicode="B" horiz-adv-x="617" d="M87 0 L350 0 C489 0 570 74 570 191 C570 281 518 343 432 368 C500 394 546 452 546 526 C546 625 481 695 354 695 L87 695 L87 0 Z M153 55 L153 335 L342 335 C440 335 503 284 503 196 C503 108 445 55 343 55 L153 55 Z M153 390 L153 640 L342 640 C433 640 479 588 479 515 C479 438 416 390 338 390 L153 390 Z " />
<glyph glyph-name="C" unicode="C" horiz-adv-x="683" d="M393 -11 C514 -11 596 44 647 104 L601 150 C552 96 486 52 393 52 C233 52 115 173 115 347 C115 522 233 643 389 643 C482 643 549 599 600 545 L644 591 C593 651 509 706 389 706 C193 706 47 558 47 347 C47 137 193 -11 393 -11 L393 -11 Z " />
<glyph glyph-name="D" unicode="D" horiz-adv-x="716" d="M87 0 L333 0 C527 0 669 138 669 348 C669 558 527 695 333 695 L87 695 L87 0 Z M153 60 L153 635 L331 635 C486 635 601 522 601 347 C601 172 486 60 331 60 L153 60 Z " />
<glyph glyph-name="E" unicode="E" horiz-adv-x="556" d="M87 0 L518 0 L518 59 L153 59 L153 332 L479 332 L479 391 L153 391 L153 636 L511 636 L511 695 L87 695 L87 0 Z " />
<glyph glyph-name="F" unicode="F" horiz-adv-x="534" d="M87 0 L153 0 L153 330 L476 330 L476 388 L153 388 L153 636 L510 636 L510 695 L87 695 L87 0 Z " />
<glyph glyph-name="G" unicode="G" horiz-adv-x="769" d="M389 -11 C582 -11 728 127 728 357 L388 357 L388 304 L663 304 C647 147 536 50 391 50 C232 50 115 165 115 346 C115 522 232 643 389 643 C507 643 587 584 624 524 L674 572 C631 632 541 706 390 706 C194 706 47 557 47 347 C47 132 192 -11 389 -11 L389 -11 Z " />
<glyph glyph-name="H" unicode="H" horiz-adv-x="685" d="M532 0 L598 0 L598 695 L532 695 L532 392 L153 392 L153 695 L87 695 L87 0 L153 0 L153 332 L532 332 L532 0 Z " />
<glyph glyph-name="I" unicode="I" horiz-adv-x="240" d="M87 0 L153 0 L153 695 L87 695 L87 0 Z " />
<glyph glyph-name="J" unicode="J" horiz-adv-x="326" d="M16 0 L68 0 C178 0 245 69 245 186 L245 695 L178 695 L178 186 C178 105 134 59 64 59 L16 59 L16 0 Z " />
<glyph glyph-name="K" unicode="K" horiz-adv-x="603" d="M528 0 L610 0 L223 365 L574 695 L494 695 L153 381 L153 695 L87 695 L87 0 L153 0 L153 345 L528 0 Z " />
<glyph glyph-name="L" unicode="L" horiz-adv-x="525" d="M87 0 L512 0 L512 60 L153 60 L153 695 L87 695 L87 0 Z " />
<glyph glyph-name="M" unicode="M" horiz-adv-x="828" d="M386 29 L443 29 L661 595 L700 0 L762 0 L716 695 L641 695 L414 106 L187 695 L112 695 L66 0 L129 0 L168 595 L386 29 Z " />
<glyph glyph-name="N" unicode="N" horiz-adv-x="686" d="M543 0 L599 0 L599 695 L532 695 L532 115 L143 695 L87 695 L87 0 L153 0 L153 579 L543 0 Z " />
<glyph glyph-name="O" unicode="O" horiz-adv-x="787" d="M394 -11 C591 -11 740 139 740 347 C740 556 591 706 394 706 C195 706 46 556 46 347 C46 139 195 -11 394 -11 L394 -11 Z M114 347 C114 521 231 643 394 643 C555 643 672 521 672 347 C672 174 554 52 394 52 C232 52 114 174 114 347 L114 347 Z " />
<glyph glyph-name="P" unicode="P" horiz-adv-x="588" d="M87 0 L153 0 L153 300 L337 300 C473 300 559 378 559 498 C559 618 474 695 337 695 L87 695 L87 0 Z M153 360 L153 636 L334 636 C435 636 491 580 491 498 C491 415 435 360 334 360 L153 360 Z " />
<glyph glyph-name="Q" unicode="Q" horiz-adv-x="787" d="M671 -148 L718 -101 L575 38 C675 98 740 210 740 347 C740 556 591 706 394 706 C195 706 46 556 46 347 C46 139 195 -11 394 -11 C436 -11 475 -4 511 8 L671 -148 Z M114 347 C114 521 231 643 394 643 C555 643 672 521 672 347 C672 174 554 52 394 52 C232 52 114 174 114 347 L114 347 Z " />
<glyph glyph-name="R" unicode="R" horiz-adv-x="599" d="M87 0 L153 0 L153 318 L226 318 L483 0 L561 0 L300 318 L337 318 C473 318 559 395 559 506 C559 618 474 695 337 695 L87 695 L87 0 Z M153 368 L153 636 L336 636 C436 636 493 581 493 502 C493 423 436 368 336 368 L153 368 Z " />
<glyph glyph-name="S" unicode="S" horiz-adv-x="542" d="M264 -11 C400 -11 500 61 500 173 C500 431 120 341 120 526 C120 601 179 648 272 648 C351 648 402 619 444 575 L486 618 C446 665 378 706 275 706 C143 706 53 634 53 523 C53 283 432 374 432 170 C432 95 360 48 267 48 C174 48 110 83 64 138 L19 93 C68 31 148 -11 264 -11 L264 -11 Z " />
<glyph glyph-name="T" unicode="T" horiz-adv-x="539" d="M236 0 L303 0 L303 635 L526 635 L526 695 L13 695 L13 635 L236 635 L236 0 Z " />
<glyph glyph-name="U" unicode="U" horiz-adv-x="670" d="M336 -11 C507 -11 591 110 591 254 L591 695 L524 695 L524 255 C524 142 462 52 336 52 C209 52 146 141 146 255 L146 695 L79 695 L79 254 C79 110 163 -11 336 -11 L336 -11 Z " />
<glyph glyph-name="V" unicode="V" horiz-adv-x="622" d="M271 0 L351 0 L612 695 L543 695 L311 77 L79 695 L10 695 L271 0 Z " />
<glyph glyph-name="W" unicode="W" horiz-adv-x="862" d="M188 0 L262 0 L431 603 L599 0 L673 0 L842 695 L776 695 L635 86 L466 695 L395 695 L227 86 L85 695 L20 695 L188 0 Z " />
<glyph glyph-name="X" unicode="X" horiz-adv-x="613" d="M532 0 L609 0 L348 354 L596 695 L519 695 L310 405 L96 695 L19 695 L267 359 L3 0 L80 0 L304 309 L532 0 Z " />
<glyph glyph-name="Y" unicode="Y" horiz-adv-x="603" d="M268 0 L334 0 L334 286 L595 695 L520 695 L302 343 L84 695 L9 695 L268 288 L268 0 Z " />
<glyph glyph-name="Z" unicode="Z" horiz-adv-x="540" d="M25 0 L516 0 L516 60 L129 60 L509 695 L35 695 L35 636 L405 636 L25 0 Z " />
<glyph glyph-name="bracketleft" unicode="&#x5b;" horiz-adv-x="288" d="M85 -102 L265 -102 L265 -44 L149 -44 L149 709 L265 709 L265 767 L85 767 L85 -102 Z " />
<glyph glyph-name="backslash" unicode="&#x5c;" horiz-adv-x="331" d="M232 -50 L293 -50 L99 711 L39 711 L232 -50 Z " />
<glyph glyph-name="bracketright" unicode="&#x5d;" horiz-adv-x="288" d="M23 -102 L203 -102 L203 767 L23 767 L23 709 L139 709 L139 -44 L23 -44 L23 -102 Z " />
<glyph glyph-name="asciicircum" unicode="&#x5e;" horiz-adv-x="451" d="M43 382 L109 382 L223 586 L342 382 L409 382 L244 656 L200 656 L43 382 Z " />
<glyph glyph-name="underscore" unicode="&#x5f;" horiz-adv-x="484" d="M25 -80 L459 -80 L459 -24 L25 -24 L25 -80 Z " />
<glyph glyph-name="grave" unicode="&#x60;" horiz-adv-x="269" d="M233 603 L260 646 L61 771 L30 721 L233 603 Z " />
<glyph glyph-name="a" unicode="a" horiz-adv-x="646" d="M300 -11 C394 -11 468 37 508 114 L508 0 L570 0 L570 527 L508 527 L508 414 C468 490 394 538 300 538 C154 538 42 422 42 265 C42 108 151 -11 300 -11 L300 -11 Z M108 264 C108 387 193 479 307 479 C424 479 506 390 506 264 C506 137 424 48 307 48 C192 48 108 139 108 264 L108 264 Z " />
<glyph glyph-name="b" unicode="b" horiz-adv-x="646" d="M346 -11 C495 -11 605 106 605 264 C605 420 496 538 347 538 C256 538 184 494 142 423 L142 731 L76 731 L76 0 L138 0 L138 111 C179 36 253 -11 346 -11 L346 -11 Z M140 264 C140 390 221 479 339 479 C453 479 539 386 539 264 C539 140 454 48 339 48 C222 48 140 137 140 264 L140 264 Z " />
<glyph glyph-name="c" unicode="c" horiz-adv-x="536" d="M311 -11 C405 -11 470 32 507 70 L466 112 C434 78 381 49 314 49 C196 49 108 137 108 263 C108 390 196 478 313 478 C380 478 433 449 464 414 L506 456 C469 495 403 538 309 538 C154 538 41 420 41 263 C41 106 154 -11 311 -11 L311 -11 Z " />
<glyph glyph-name="d" unicode="d" horiz-adv-x="646" d="M300 -11 C393 -11 467 36 508 111 L508 0 L570 0 L570 731 L504 731 L504 423 C462 494 390 538 299 538 C150 538 42 420 42 264 C42 106 151 -11 300 -11 L300 -11 Z M108 264 C108 386 193 479 307 479 C425 479 506 390 506 264 C506 137 424 48 307 48 C192 48 108 140 108 264 L108 264 Z " />
<glyph glyph-name="e" unicode="e" horiz-adv-x="594" d="M306 -12 C421 -12 488 31 539 87 L491 135 C445 85 399 55 308 55 C204 55 119 129 106 236 L556 236 C557 245 558 263 558 275 C558 416 456 539 300 539 C153 539 36 416 36 263 C36 106 146 -12 306 -12 L306 -12 Z M107 302 C122 411 208 477 303 477 C398 477 473 410 485 302 L107 302 Z " />
<glyph glyph-name="f" unicode="f" horiz-adv-x="336" d="M115 556 L115 527 L14 527 L14 469 L115 469 L115 0 L181 0 L181 469 L327 469 L327 527 L181 527 L181 561 C181 643 225 688 296 688 L329 688 L329 742 L295 742 C182 742 115 673 115 556 L115 556 Z " />
<glyph glyph-name="g" unicode="g" horiz-adv-x="645" d="M301 -11 C395 -11 468 36 508 113 L508 60 C508 -59 430 -133 305 -133 C222 -133 147 -104 108 -51 L65 -94 C114 -155 197 -190 306 -190 C472 -190 571 -90 571 65 L571 527 L508 527 L508 415 C468 491 395 538 301 538 C152 538 42 422 42 264 C42 106 151 -11 301 -11 L301 -11 Z M108 263 C108 387 194 479 310 479 C425 479 507 390 507 264 C507 137 425 48 307 48 C193 48 108 140 108 263 L108 263 Z " />
<glyph glyph-name="h" unicode="h" horiz-adv-x="612" d="M477 308 L477 0 L544 0 L544 319 C544 452 465 538 327 538 C240 538 175 496 142 444 L142 731 L76 731 L76 0 L142 0 L142 330 C144 406 212 477 312 478 C416 479 477 415 477 308 L477 308 Z " />
<glyph glyph-name="i" unicode="i" horiz-adv-x="218" d="M76 0 L142 0 L142 527 L76 527 L76 0 Z M50 687 C50 654 76 630 109 630 C142 630 167 654 167 687 C167 721 142 746 109 746 C76 746 50 721 50 687 L50 687 Z " />
<glyph glyph-name="j" unicode="j" horiz-adv-x="219" d="M-50 -181 L-34 -181 C71 -181 143 -109 143 3 L143 527 L77 527 L77 2 C77 -72 31 -123 -39 -123 L-50 -123 L-50 -181 Z M52 686 C52 653 78 629 111 629 C144 629 169 653 169 686 C169 720 144 745 111 745 C78 745 52 720 52 686 L52 686 Z " />
<glyph glyph-name="k" unicode="k" horiz-adv-x="498" d="M76 0 L142 0 L142 269 L423 0 L500 0 L213 285 L491 527 L412 527 L142 302 L142 731 L76 731 L76 0 Z " />
<glyph glyph-name="l" unicode="l" horiz-adv-x="218" d="M76 0 L142 0 L142 731 L76 731 L76 0 Z " />
<glyph glyph-name="m" unicode="m" horiz-adv-x="974" d="M839 313 L839 0 L905 0 L905 324 C905 448 828 538 697 538 C597 538 530 481 505 420 C476 494 413 538 318 538 C233 538 169 492 139 440 L139 527 L76 527 L76 0 L142 0 L142 337 C144 403 207 477 302 478 C398 479 457 411 457 313 L457 0 L524 0 L524 337 C525 403 588 477 683 478 C779 479 839 411 839 313 L839 313 Z " />
<glyph glyph-name="n" unicode="n" horiz-adv-x="612" d="M477 308 L477 0 L544 0 L544 319 C544 452 465 538 327 538 C238 538 171 493 139 439 L139 527 L76 527 L76 0 L142 0 L142 330 C144 406 212 477 312 478 C416 479 477 415 477 308 L477 308 Z " />
<glyph glyph-name="o" unicode="o" horiz-adv-x="624" d="M312 -11 C470 -11 583 106 583 263 C583 421 470 538 312 538 C154 538 41 421 41 263 C41 106 154 -11 312 -11 L312 -11 Z M108 263 C108 389 192 478 313 478 C433 478 516 389 516 263 C516 139 433 49 313 49 C192 49 108 139 108 263 L108 263 Z " />
<glyph glyph-name="p" unicode="p" horiz-adv-x="646" d="M346 -11 C495 -11 605 106 605 263 C605 420 497 538 347 538 C254 538 179 491 138 415 L138 527 L76 527 L76 -179 L142 -179 L142 103 C184 32 256 -11 346 -11 L346 -11 Z M140 263 C140 390 222 479 339 479 C454 479 539 387 539 263 C539 140 453 48 339 48 C221 48 140 136 140 263 L140 263 Z " />
<glyph glyph-name="q" unicode="q" horiz-adv-x="646" d="M300 -11 C390 -11 462 32 504 103 L504 -179 L570 -179 L570 527 L508 527 L508 415 C467 491 392 538 299 538 C150 538 42 420 42 263 C42 106 152 -11 300 -11 L300 -11 Z M108 263 C108 387 192 479 307 479 C424 479 506 390 506 263 C506 136 425 48 307 48 C193 48 108 140 108 263 L108 263 Z " />
<glyph glyph-name="r" unicode="r" horiz-adv-x="328" d="M76 0 L142 0 L142 326 C142 403 214 475 312 476 L312 538 C234 538 171 494 139 441 L139 527 L76 527 L76 0 Z " />
<glyph glyph-name="s" unicode="s" horiz-adv-x="474" d="M238 -11 C363 -11 443 46 443 144 C443 250 349 278 265 302 C192 323 132 339 132 396 C132 445 176 476 245 476 C302 476 345 458 382 415 L430 464 C396 504 335 538 244 538 C130 538 53 476 53 392 C53 292 137 264 218 241 C302 218 364 200 364 139 C364 82 318 51 237 51 C169 51 110 84 76 126 L24 75 C65 28 139 -11 238 -11 L238 -11 Z " />
<glyph glyph-name="t" unicode="t" horiz-adv-x="358" d="M278 0 L352 0 L352 59 L289 59 C216 59 177 102 177 177 L177 469 L343 469 L343 527 L178 527 L178 661 L115 661 L115 573 C115 542 101 527 70 527 L12 527 L12 469 L110 469 L110 171 C110 65 169 0 278 0 L278 0 Z " />
<glyph glyph-name="u" unicode="u" horiz-adv-x="602" d="M281 -11 C366 -11 432 33 464 86 L464 0 L527 0 L527 527 L460 527 L460 190 C459 120 393 49 296 49 C197 48 135 113 135 211 L135 527 L69 527 L69 203 C69 77 146 -11 281 -11 L281 -11 Z " />
<glyph glyph-name="v" unicode="v" horiz-adv-x="536" d="M231 0 L304 0 L525 527 L456 527 L268 67 L80 527 L10 527 L231 0 Z " />
<glyph glyph-name="w" unicode="w" horiz-adv-x="766" d="M164 0 L243 0 L384 451 L526 0 L604 0 L750 527 L680 527 L561 71 L422 527 L347 527 L206 69 L86 527 L17 527 L164 0 Z " />
<glyph glyph-name="x" unicode="x" horiz-adv-x="508" d="M428 0 L503 0 L294 267 L495 527 L423 527 L258 313 L90 527 L15 527 L216 271 L3 0 L74 0 L252 225 L428 0 Z " />
<glyph glyph-name="y" unicode="y" horiz-adv-x="536" d="M226 0 L241 0 L164 -179 L230 -179 L526 527 L457 527 L266 59 L80 527 L11 527 L226 0 Z " />
<glyph glyph-name="z" unicode="z" horiz-adv-x="489" d="M22 0 L466 0 L466 55 L130 55 L464 527 L45 527 L45 472 L358 472 L22 0 Z " />
<glyph glyph-name="braceleft" unicode="&#x7b;" horiz-adv-x="295" d="M252 -102 L270 -102 L270 -44 L260 -44 C207 -44 176 -5 176 58 L176 212 C176 297 124 322 95 332 C124 342 176 367 176 452 L176 607 C176 670 207 709 260 709 L270 709 L270 766 L252 766 C173 766 113 717 113 607 L113 451 C113 383 67 361 27 361 L11 361 L11 304 L27 304 C67 304 113 282 113 213 L113 57 C113 -52 173 -102 252 -102 L252 -102 Z " />
<glyph glyph-name="bar" unicode="&#x7c;" horiz-adv-x="223" d="M85 -85 L138 -85 L138 714 L85 714 L85 -85 Z " />
<glyph glyph-name="braceright" unicode="&#x7d;" horiz-adv-x="295" d="M25 -102 L43 -102 C122 -102 182 -52 182 57 L182 213 C182 282 229 304 268 304 L284 304 L284 361 L268 361 C229 361 182 383 182 451 L182 607 C182 717 122 766 43 766 L25 766 L25 709 L35 709 C89 709 119 670 119 607 L119 452 C119 367 171 342 200 332 C171 322 119 297 119 212 L119 58 C119 -5 88 -44 35 -44 L25 -44 L25 -102 Z " />
<glyph glyph-name="asciitilde" unicode="&#x7e;" horiz-adv-x="524" d="M354 243 C404 243 444 267 464 303 L429 339 C415 315 381 300 347 300 C280 300 251 356 171 356 C121 356 81 332 60 296 L96 259 C109 284 144 298 178 298 C245 298 274 243 354 243 L354 243 Z " />
<glyph glyph-name="uni00A0" unicode="&#xa0;" horiz-adv-x="234" d="" />
<glyph glyph-name="exclamdown" unicode="&#xa1;" horiz-adv-x="224" d="M73 -179 L151 -179 L140 328 L85 328 L73 -179 Z M62 486 C62 456 84 435 112 435 C141 435 162 456 162 486 C162 514 141 535 112 535 C84 535 62 514 62 486 L62 486 Z " />
<glyph glyph-name="cent" unicode="&#xa2;" horiz-adv-x="598" d="M286 0 L341 0 L341 90 C436 101 501 162 523 233 L465 255 C445 188 389 148 314 148 C215 148 140 223 140 330 C140 438 215 513 313 513 C388 513 442 473 463 405 L521 428 C498 499 434 560 341 570 L341 661 L286 661 L286 571 C163 558 77 459 77 330 C77 201 163 103 286 90 L286 0 Z " />
<glyph glyph-name="sterling" unicode="&#xa3;" horiz-adv-x="598" d="M142 0 L547 0 L547 59 L209 59 L209 315 L448 315 L448 374 L209 374 L209 496 C209 577 265 647 362 647 C431 647 473 617 505 585 L551 626 C515 668 456 706 360 706 C230 706 142 610 142 496 L142 374 L58 374 L58 315 L142 315 L142 0 Z " />
<glyph glyph-name="currency" unicode="&#xa4;" horiz-adv-x="598" d="M309 115 C360 115 406 131 442 159 L498 103 L537 142 L481 198 C508 234 524 280 524 330 C524 381 508 427 480 464 L537 520 L497 559 L442 503 C405 531 360 547 309 547 C258 547 212 531 176 502 L120 559 L80 520 L137 463 C110 427 94 381 94 330 C94 279 110 234 137 198 L80 142 L120 103 L176 159 C212 131 258 115 309 115 L309 115 Z M153 330 C153 425 222 492 309 492 C396 492 464 425 464 330 C464 236 396 169 309 169 C222 169 153 236 153 330 L153 330 Z " />
<glyph glyph-name="yen" unicode="&#xa5;" horiz-adv-x="598" d="M265 0 L331 0 L331 118 L472 118 L472 164 L331 164 L331 261 L472 261 L472 306 L344 306 L570 695 L498 695 L299 338 L99 695 L27 695 L253 306 L123 306 L123 261 L265 261 L265 164 L123 164 L123 118 L265 118 L265 0 Z " />
<glyph glyph-name="brokenbar" unicode="&#xa6;" horiz-adv-x="223" d="M85 398 L138 398 L138 714 L85 714 L85 398 Z M85 -85 L138 -85 L138 232 L85 232 L85 -85 Z " />
<glyph glyph-name="section" unicode="&#xa7;" horiz-adv-x="494" d="M243 -106 C347 -106 429 -51 429 49 C429 104 404 138 368 161 C418 185 448 230 448 293 C448 489 139 416 139 562 C139 616 183 650 258 650 C314 650 356 631 393 589 L431 627 C393 673 335 700 257 700 C149 700 76 647 76 558 C76 498 108 465 151 442 C92 421 54 377 54 314 C54 127 366 194 366 42 C366 -21 311 -57 241 -57 C165 -57 115 -20 79 29 L40 -10 C75 -63 142 -106 243 -106 L243 -106 Z M118 320 C118 371 155 406 224 412 C303 386 385 366 385 287 C385 237 357 203 309 190 C221 222 118 235 118 320 L118 320 Z " />
<glyph glyph-name="dieresis" unicode="&#xa8;" horiz-adv-x="338" d="M272 632 C303 632 329 656 329 687 C329 718 304 743 273 743 C243 743 217 719 217 688 C217 656 243 632 272 632 L272 632 Z M30 688 C30 656 56 632 86 632 C117 632 142 656 142 687 C142 718 117 743 87 743 C56 743 30 719 30 688 L30 688 Z " />
<glyph glyph-name="copyright" unicode="&#xa9;" horiz-adv-x="766" d="M384 -11 C581 -11 719 131 719 330 C719 524 581 672 384 672 C187 672 48 524 48 330 C48 131 187 -11 384 -11 L384 -11 Z M96 330 C96 497 220 627 384 627 C546 627 671 497 671 330 C671 153 546 34 384 34 C220 34 96 153 96 330 L96 330 Z M202 331 C202 221 281 137 390 137 C453 137 501 162 532 197 L497 231 C473 202 437 186 393 186 C311 186 255 245 255 331 C255 418 311 476 393 476 C437 476 473 460 497 431 L532 465 C501 501 453 526 390 526 C281 526 202 442 202 331 L202 331 Z " />
<glyph glyph-name="ordfeminine" unicode="&#xaa;" horiz-adv-x="394" d="M177 520 C233 520 273 547 295 589 L295 527 L334 527 L334 815 L295 815 L295 755 C273 796 233 822 177 822 C100 822 36 760 36 671 C36 583 99 520 177 520 L177 520 Z M85 671 C85 732 130 776 185 776 C245 776 285 731 285 671 C285 611 245 566 185 566 C129 566 85 610 85 671 L85 671 Z " />
<glyph glyph-name="guillemotleft" unicode="&#xab;" horiz-adv-x="437" d="M313 85 L378 85 L270 251 L378 417 L313 417 L205 251 L313 85 Z M40 251 L148 85 L213 85 L105 251 L213 417 L148 417 L40 251 Z " />
<glyph glyph-name="logicalnot" unicode="&#xac;" horiz-adv-x="547" d="M59 307 L411 307 L411 133 L474 133 L474 365 L59 365 L59 307 Z " />
<glyph glyph-name="registered" unicode="&#xae;" horiz-adv-x="494" d="M248 302 C361 302 449 391 449 503 C449 616 362 706 248 706 C133 706 45 616 45 503 C45 391 133 302 248 302 L248 302 Z M77 503 C77 599 153 673 248 673 C344 673 417 598 417 503 C417 407 344 333 248 333 C153 333 77 407 77 503 L77 503 Z M184 399 L214 399 L214 499 L224 499 L300 399 L335 399 L258 499 L264 499 C305 499 333 523 333 560 C333 597 305 621 264 621 L184 621 L184 399 Z M214 524 L214 596 L261 596 C288 596 302 582 302 560 C302 538 288 524 261 524 L214 524 Z " />
<glyph glyph-name="macron" unicode="&#xaf;" horiz-adv-x="300" d="M30 660 L310 660 L310 715 L30 715 L30 660 Z " />
<glyph glyph-name="degree" unicode="&#xb0;" horiz-adv-x="360" d="M180 426 C260 426 319 483 319 563 C319 641 260 699 180 699 C101 699 42 641 42 562 C42 483 100 426 180 426 L180 426 Z M89 562 C89 615 130 655 180 655 C231 655 271 616 271 562 C271 508 231 470 180 470 C129 470 89 509 89 562 L89 562 Z " />
<glyph glyph-name="plusminus" unicode="&#xb1;" horiz-adv-x="527" d="M234 143 L294 143 L294 337 L472 337 L472 396 L294 396 L294 583 L234 583 L234 396 L55 396 L55 337 L234 337 L234 143 Z M55 36 L472 36 L472 95 L55 95 L55 36 Z " />
<glyph glyph-name="uni00B2" unicode="&#xb2;" horiz-adv-x="339" d="M55 347 L281 347 L281 386 L120 386 L212 484 C246 518 275 559 275 605 C275 660 235 700 165 700 C111 700 76 672 53 641 L82 611 C109 648 131 660 163 660 C204 660 229 634 229 601 C229 564 200 530 176 507 L55 377 L55 347 Z " />
<glyph glyph-name="uni00B3" unicode="&#xb3;" horiz-adv-x="324" d="M158 341 C230 341 277 388 277 449 C277 509 233 551 173 551 L169 551 L268 658 L268 695 L55 695 L55 657 L219 657 L120 551 L120 520 L161 520 C199 520 231 495 231 452 C231 412 203 381 157 381 C123 381 99 394 74 422 L43 391 C67 362 102 341 158 341 L158 341 Z " />
<glyph glyph-name="acute" unicode="&#xb4;" horiz-adv-x="239" d="M57 603 L260 721 L229 771 L30 646 L57 603 Z " />
<glyph glyph-name="uni00B5" unicode="&#xb5;" horiz-adv-x="3003" d="M406 540 C328 540 272 512 235 464 L235 527 L100 527 L100 -175 L235 -175 L235 62 C272 14 328 -17 406 -17 C547 -17 664 105 664 263 C664 419 547 540 406 540 L406 540 Z M235 263 C235 352 298 412 380 412 C464 412 526 352 526 263 C526 175 464 115 380 115 C298 115 235 175 235 263 L235 263 Z M694 263 C694 419 810 540 948 540 C1024 540 1082 512 1120 464 L1120 527 L1255 527 L1255 81 L1171 -1 L1120 -1 L1120 62 C1082 15 1024 -17 948 -17 C810 -17 694 105 694 263 L694 263 Z M829 263 C829 175 891 115 973 115 C1058 115 1120 175 1120 263 C1120 352 1058 412 973 412 C891 412 829 352 829 263 L829 263 Z M1242 -1 L1636 396 L1334 396 L1334 527 L1950 527 L1560 127 L1862 127 C1881 75 1914 30 1956 -1 L1242 -1 Z M1892 263 C1892 105 2005 -17 2179 -17 C2281 -17 2360 26 2409 97 L2300 162 C2276 130 2235 108 2182 108 C2112 108 2054 138 2035 206 L2429 206 C2433 224 2434 243 2434 263 C2434 419 2326 540 2170 540 C2006 540 1892 419 1892 263 L1892 263 Z M2033 311 C2048 381 2098 419 2170 419 C2226 419 2283 388 2300 311 L2033 311 Z M2482 350 C2498 325 2526 310 2563 310 C2611 310 2643 334 2643 371 C2643 453 2530 430 2530 474 C2530 488 2544 498 2567 498 C2584 498 2600 489 2611 471 L2639 500 C2626 519 2599 532 2569 532 C2521 532 2491 508 2491 471 C2491 395 2603 419 2603 370 C2603 354 2588 342 2566 342 C2541 342 2523 356 2509 377 L2482 350 Z M2674 314 L2712 314 L2722 470 L2773 322 L2806 322 L2856 470 L2868 314 L2903 314 L2889 525 L2844 525 L2790 367 L2735 525 L2690 525 L2674 314 Z " />
<glyph glyph-name="paragraph" unicode="&#xb6;" horiz-adv-x="603" d="M249 300 L330 300 L330 637 L380 637 L380 -100 L420 -100 L420 637 L470 637 L470 -100 L511 -100 L511 695 L249 695 C113 695 28 618 28 498 C28 378 114 300 249 300 L249 300 Z " />
<glyph glyph-name="periodcentered" unicode="&#xb7;" horiz-adv-x="219" d="M110 270 C138 270 160 292 160 320 C160 349 138 371 110 371 C81 371 60 349 60 320 C60 292 81 270 110 270 L110 270 Z " />
<glyph glyph-name="cedilla" unicode="&#xb8;" horiz-adv-x="244" d="M135 -240 C203 -240 245 -198 245 -145 C245 -96 209 -57 154 -56 L183 9 L139 9 L103 -73 L109 -80 L126 -80 C167 -80 195 -107 195 -141 C195 -173 169 -199 128 -199 C93 -199 71 -182 56 -164 L30 -194 C49 -217 83 -240 135 -240 L135 -240 Z " />
<glyph glyph-name="uni00B9" unicode="&#xb9;" horiz-adv-x="272" d="M56 347 L231 347 L231 388 L174 388 L174 695 L126 695 L126 665 C126 653 121 646 107 646 L57 646 L57 605 L126 605 L126 388 L56 388 L56 347 Z " />
<glyph glyph-name="ordmasculine" unicode="&#xba;" horiz-adv-x="372" d="M186 520 C275 520 336 585 336 671 C336 757 275 823 186 823 C96 823 36 757 36 671 C36 586 96 520 186 520 L186 520 Z M84 671 C84 732 124 778 186 778 C249 778 287 732 287 671 C287 610 249 564 186 564 C124 564 84 610 84 671 L84 671 Z " />
<glyph glyph-name="guillemotright" unicode="&#xbb;" horiz-adv-x="437" d="M223 85 L288 85 L397 251 L288 417 L223 417 L332 251 L223 85 Z M58 85 L123 85 L232 251 L123 417 L58 417 L167 251 L58 85 Z " />
<glyph glyph-name="onequarter" unicode="&#xbc;" horiz-adv-x="616" d="M42 347 L217 347 L217 388 L160 388 L160 695 L112 695 L112 665 C112 653 107 646 93 646 L43 646 L43 605 L112 605 L112 388 L42 388 L42 347 Z M106 0 L160 0 L546 695 L492 695 L106 0 Z M320 82 L491 82 L491 0 L537 0 L537 82 L579 82 L579 117 L537 117 L537 348 L491 348 L320 115 L320 82 Z M363 117 L491 292 L491 117 L363 117 Z " />
<glyph glyph-name="onehalf" unicode="&#xbd;" horiz-adv-x="648" d="M42 347 L217 347 L217 388 L160 388 L160 695 L112 695 L112 665 C112 653 107 646 93 646 L43 646 L43 605 L112 605 L112 388 L42 388 L42 347 Z M102 0 L156 0 L542 695 L488 695 L102 0 Z M385 294 L414 264 C441 301 463 313 495 313 C536 313 561 287 561 254 C561 217 532 183 508 160 L387 30 L387 0 L613 0 L613 39 L452 39 L544 137 C578 171 607 212 607 258 C607 313 567 353 497 353 C443 353 408 325 385 294 L385 294 Z " />
<glyph glyph-name="threequarters" unicode="&#xbe;" horiz-adv-x="624" d="M148 341 C220 341 267 388 267 449 C267 509 223 551 163 551 L159 551 L258 658 L258 695 L45 695 L45 657 L209 657 L110 551 L110 520 L151 520 C189 520 221 495 221 452 C221 412 193 381 147 381 C113 381 89 394 64 422 L33 391 C57 362 92 341 148 341 L148 341 Z M121 0 L175 0 L561 695 L507 695 L121 0 Z M321 82 L492 82 L492 0 L538 0 L538 82 L580 82 L580 117 L538 117 L538 348 L492 348 L321 115 L321 82 Z M364 117 L492 292 L492 117 L364 117 Z " />
<glyph glyph-name="questiondown" unicode="&#xbf;" horiz-adv-x="436" d="M253 435 C281 435 303 456 303 486 C303 514 281 535 253 535 C224 535 202 514 202 485 C202 456 223 435 253 435 L253 435 Z M34 -23 C34 -125 103 -189 218 -189 C306 -189 369 -149 408 -86 L366 -44 C328 -97 286 -125 223 -125 C149 -125 103 -84 103 -13 C103 110 284 119 284 293 L284 328 L225 328 L225 294 C225 146 34 134 34 -23 L34 -23 Z " />
<glyph glyph-name="Agrave" unicode="&#xc0;" horiz-adv-x="617" d="M11 0 L77 0 L157 214 L460 214 L540 0 L606 0 L348 695 L268 695 L11 0 Z M177 269 L309 623 L440 269 L177 269 Z M180 853 L419 766 L435 815 L198 908 L180 853 Z " />
<glyph glyph-name="Aacute" unicode="&#xc1;" horiz-adv-x="617" d="M11 0 L77 0 L157 214 L460 214 L540 0 L606 0 L348 695 L268 695 L11 0 Z M177 269 L309 623 L440 269 L177 269 Z M190 815 L206 766 L445 853 L427 908 L190 815 Z " />
<glyph glyph-name="Acircumflex" unicode="&#xc2;" horiz-adv-x="617" d="M11 0 L77 0 L157 214 L460 214 L540 0 L606 0 L348 695 L268 695 L11 0 Z M153 771 L217 771 L308 858 L399 771 L463 771 L336 902 L282 902 L153 771 Z M177 269 L309 623 L440 269 L177 269 Z " />
<glyph glyph-name="Atilde" unicode="&#xc3;" horiz-adv-x="617" d="M11 0 L77 0 L157 214 L460 214 L540 0 L606 0 L348 695 L268 695 L11 0 Z M146 801 L195 781 C200 808 218 831 249 831 C297 831 310 779 374 779 C434 779 464 824 474 864 L425 885 C419 857 401 835 370 835 C322 835 307 887 245 887 C186 887 155 840 146 801 L146 801 Z M177 269 L309 623 L440 269 L177 269 Z " />
<glyph glyph-name="Adieresis" unicode="&#xc4;" horiz-adv-x="617" d="M11 0 L77 0 L157 214 L460 214 L540 0 L606 0 L348 695 L268 695 L11 0 Z M155 837 C155 804 181 781 211 781 C241 781 267 804 267 836 C267 867 242 891 212 891 C181 891 155 868 155 837 L155 837 Z M177 269 L309 623 L440 269 L177 269 Z M347 837 C347 804 373 781 403 781 C434 781 459 804 459 836 C459 867 434 891 403 891 C373 891 347 868 347 837 L347 837 Z " />
<glyph glyph-name="Aring" unicode="&#xc5;" horiz-adv-x="617" d="M11 0 L77 0 L157 214 L460 214 L540 0 L606 0 L348 695 L268 695 L11 0 Z M177 269 L309 623 L440 269 L177 269 Z M211 818 C211 764 252 724 308 724 C364 724 404 764 404 818 C404 871 364 911 308 911 C252 911 211 871 211 818 L211 818 Z M254 818 C254 847 277 870 308 870 C338 870 361 847 361 818 C361 788 338 765 308 765 C277 765 254 788 254 818 L254 818 Z " />
<glyph glyph-name="AE" unicode="&#xc6;" horiz-adv-x="918" d="M-12 0 L59 0 L181 212 L449 212 L449 0 L879 0 L879 59 L516 59 L516 332 L840 332 L840 391 L516 391 L516 636 L873 636 L873 695 L382 695 L-12 0 Z M213 269 L424 636 L449 636 L449 269 L213 269 Z " />
<glyph glyph-name="Ccedilla" unicode="&#xc7;" horiz-adv-x="684" d="M372 -240 C440 -240 482 -198 482 -145 C482 -96 446 -57 391 -56 L411 -11 C523 -6 599 47 648 104 L602 150 C553 96 487 52 394 52 C234 52 116 173 116 347 C116 522 234 643 390 643 C483 643 550 599 601 545 L645 591 C594 651 510 706 390 706 C194 706 48 558 48 347 C48 146 181 2 368 -10 L340 -73 L346 -80 L363 -80 C404 -80 432 -107 432 -141 C432 -173 406 -199 365 -199 C330 -199 308 -182 293 -164 L267 -194 C286 -217 320 -240 372 -240 L372 -240 Z " />
<glyph glyph-name="Egrave" unicode="&#xc8;" horiz-adv-x="556" d="M87 0 L518 0 L518 59 L153 59 L153 332 L479 332 L479 391 L153 391 L153 636 L511 636 L511 695 L87 695 L87 0 Z M172 853 L411 766 L427 815 L190 908 L172 853 Z " />
<glyph glyph-name="Eacute" unicode="&#xc9;" horiz-adv-x="556" d="M87 0 L518 0 L518 59 L153 59 L153 332 L479 332 L479 391 L153 391 L153 636 L511 636 L511 695 L87 695 L87 0 Z M182 815 L198 766 L437 853 L419 908 L182 815 Z " />
<glyph glyph-name="Ecircumflex" unicode="&#xca;" horiz-adv-x="556" d="M87 0 L518 0 L518 59 L153 59 L153 332 L479 332 L479 391 L153 391 L153 636 L511 636 L511 695 L87 695 L87 0 Z M144 771 L208 771 L299 858 L390 771 L454 771 L327 902 L273 902 L144 771 Z " />
<glyph glyph-name="Edieresis" unicode="&#xcb;" horiz-adv-x="556" d="M87 0 L518 0 L518 59 L153 59 L153 332 L479 332 L479 391 L153 391 L153 636 L511 636 L511 695 L87 695 L87 0 Z M146 837 C146 804 172 781 202 781 C232 781 258 804 258 836 C258 867 233 891 203 891 C172 891 146 868 146 837 L146 837 Z M338 837 C338 804 364 781 394 781 C425 781 450 804 450 836 C450 867 425 891 394 891 C364 891 338 868 338 837 L338 837 Z " />
<glyph glyph-name="Igrave" unicode="&#xcc;" horiz-adv-x="240" d="M87 0 L153 0 L153 695 L87 695 L87 0 Z M-7 853 L232 766 L248 815 L11 908 L-7 853 Z " />
<glyph glyph-name="Iacute" unicode="&#xcd;" horiz-adv-x="240" d="M87 0 L153 0 L153 695 L87 695 L87 0 Z M3 815 L19 766 L258 853 L240 908 L3 815 Z " />
<glyph glyph-name="Icircumflex" unicode="&#xce;" horiz-adv-x="240" d="M87 0 L153 0 L153 695 L87 695 L87 0 Z M-34 771 L30 771 L121 858 L212 771 L276 771 L149 902 L95 902 L-34 771 Z " />
<glyph glyph-name="Idieresis" unicode="&#xcf;" horiz-adv-x="240" d="M87 0 L153 0 L153 695 L87 695 L87 0 Z M-32 837 C-32 804 -6 781 24 781 C54 781 80 804 80 836 C80 867 55 891 25 891 C-6 891 -32 868 -32 837 L-32 837 Z M160 837 C160 804 186 781 216 781 C247 781 272 804 272 836 C272 867 247 891 216 891 C186 891 160 868 160 837 L160 837 Z " />
<glyph glyph-name="Eth" unicode="&#xd0;" horiz-adv-x="723" d="M94 0 L340 0 C534 0 676 138 676 348 C676 558 534 695 340 695 L94 695 L94 386 L18 386 L18 338 L94 338 L94 0 Z M160 60 L160 338 L320 338 L320 386 L160 386 L160 635 L338 635 C493 635 608 522 608 347 C608 172 493 60 338 60 L160 60 Z " />
<glyph glyph-name="Ntilde" unicode="&#xd1;" horiz-adv-x="686" d="M543 0 L599 0 L599 695 L532 695 L532 115 L143 695 L87 695 L87 0 L153 0 L153 579 L543 0 Z M176 801 L225 781 C230 808 248 831 279 831 C327 831 340 779 404 779 C464 779 494 824 504 864 L455 885 C449 857 431 835 400 835 C352 835 337 887 275 887 C216 887 185 840 176 801 L176 801 Z " />
<glyph glyph-name="Ograve" unicode="&#xd2;" horiz-adv-x="787" d="M394 -11 C591 -11 740 139 740 347 C740 556 591 706 394 706 C195 706 46 556 46 347 C46 139 195 -11 394 -11 L394 -11 Z M114 347 C114 521 231 643 394 643 C555 643 672 521 672 347 C672 174 554 52 394 52 C232 52 114 174 114 347 L114 347 Z M266 853 L505 766 L521 815 L284 908 L266 853 Z " />
<glyph glyph-name="Oacute" unicode="&#xd3;" horiz-adv-x="787" d="M394 -11 C591 -11 740 139 740 347 C740 556 591 706 394 706 C195 706 46 556 46 347 C46 139 195 -11 394 -11 L394 -11 Z M114 347 C114 521 231 643 394 643 C555 643 672 521 672 347 C672 174 554 52 394 52 C232 52 114 174 114 347 L114 347 Z M276 815 L292 766 L531 853 L513 908 L276 815 Z " />
<glyph glyph-name="Ocircumflex" unicode="&#xd4;" horiz-adv-x="787" d="M394 -11 C591 -11 740 139 740 347 C740 556 591 706 394 706 C195 706 46 556 46 347 C46 139 195 -11 394 -11 L394 -11 Z M114 347 C114 521 231 643 394 643 C555 643 672 521 672 347 C672 174 554 52 394 52 C232 52 114 174 114 347 L114 347 Z M238 771 L302 771 L393 858 L484 771 L548 771 L421 902 L367 902 L238 771 Z " />
<glyph glyph-name="Otilde" unicode="&#xd5;" horiz-adv-x="787" d="M394 -11 C591 -11 740 139 740 347 C740 556 591 706 394 706 C195 706 46 556 46 347 C46 139 195 -11 394 -11 L394 -11 Z M114 347 C114 521 231 643 394 643 C555 643 672 521 672 347 C672 174 554 52 394 52 C232 52 114 174 114 347 L114 347 Z M232 801 L281 781 C286 808 304 831 335 831 C383 831 396 779 460 779 C520 779 550 824 560 864 L511 885 C505 857 487 835 456 835 C408 835 393 887 331 887 C272 887 241 840 232 801 L232 801 Z " />
<glyph glyph-name="Odieresis" unicode="&#xd6;" horiz-adv-x="787" d="M394 -11 C591 -11 740 139 740 347 C740 556 591 706 394 706 C195 706 46 556 46 347 C46 139 195 -11 394 -11 L394 -11 Z M114 347 C114 521 231 643 394 643 C555 643 672 521 672 347 C672 174 554 52 394 52 C232 52 114 174 114 347 L114 347 Z M241 837 C241 804 267 781 297 781 C327 781 353 804 353 836 C353 867 328 891 298 891 C267 891 241 868 241 837 L241 837 Z M433 837 C433 804 459 781 489 781 C520 781 545 804 545 836 C545 867 520 891 489 891 C459 891 433 868 433 837 L433 837 Z " />
<glyph glyph-name="multiply" unicode="&#xd7;" horiz-adv-x="489" d="M392 115 L434 157 L287 305 L434 452 L392 495 L244 347 L97 495 L54 452 L202 305 L54 157 L97 115 L244 262 L392 115 Z " />
<glyph glyph-name="Oslash" unicode="&#xd8;" horiz-adv-x="790" d="M396 -11 C593 -11 742 139 742 347 C742 444 710 529 655 591 L725 668 L685 707 L615 630 C556 678 481 706 396 706 C197 706 48 556 48 347 C48 250 80 166 135 104 L65 27 L105 -12 L175 65 C234 17 310 -11 396 -11 L396 -11 Z M116 347 C116 521 233 643 396 643 C464 643 525 621 572 583 L180 153 C139 203 116 270 116 347 L116 347 Z M219 113 L611 543 C651 492 674 425 674 347 C674 174 556 52 396 52 C327 52 266 74 219 113 L219 113 Z " />
<glyph glyph-name="Ugrave" unicode="&#xd9;" horiz-adv-x="670" d="M336 -11 C507 -11 591 110 591 254 L591 695 L524 695 L524 255 C524 142 462 52 336 52 C209 52 146 141 146 255 L146 695 L79 695 L79 254 C79 110 163 -11 336 -11 L336 -11 Z M208 853 L447 766 L463 815 L226 908 L208 853 Z " />
<glyph glyph-name="Uacute" unicode="&#xda;" horiz-adv-x="670" d="M336 -11 C507 -11 591 110 591 254 L591 695 L524 695 L524 255 C524 142 462 52 336 52 C209 52 146 141 146 255 L146 695 L79 695 L79 254 C79 110 163 -11 336 -11 L336 -11 Z M218 815 L234 766 L473 853 L455 908 L218 815 Z " />
<glyph glyph-name="Ucircumflex" unicode="&#xdb;" horiz-adv-x="670" d="M336 -11 C507 -11 591 110 591 254 L591 695 L524 695 L524 255 C524 142 462 52 336 52 C209 52 146 141 146 255 L146 695 L79 695 L79 254 C79 110 163 -11 336 -11 L336 -11 Z M180 771 L244 771 L335 858 L426 771 L490 771 L363 902 L309 902 L180 771 Z " />
<glyph glyph-name="Udieresis" unicode="&#xdc;" horiz-adv-x="670" d="M336 -11 C507 -11 591 110 591 254 L591 695 L524 695 L524 255 C524 142 462 52 336 52 C209 52 146 141 146 255 L146 695 L79 695 L79 254 C79 110 163 -11 336 -11 L336 -11 Z M183 837 C183 804 209 781 239 781 C269 781 295 804 295 836 C295 867 270 891 240 891 C209 891 183 868 183 837 L183 837 Z M375 837 C375 804 401 781 431 781 C462 781 487 804 487 836 C487 867 462 891 431 891 C401 891 375 868 375 837 L375 837 Z " />
<glyph glyph-name="Yacute" unicode="&#xdd;" horiz-adv-x="603" d="M268 0 L334 0 L334 286 L595 695 L520 695 L302 343 L84 695 L9 695 L268 288 L268 0 Z M185 815 L201 766 L440 853 L422 908 L185 815 Z " />
<glyph glyph-name="Thorn" unicode="&#xde;" horiz-adv-x="600" d="M87 0 L153 0 L153 156 L337 156 C473 156 559 234 559 354 C559 474 474 551 337 551 L153 551 L153 695 L87 695 L87 0 Z M153 216 L153 492 L334 492 C435 492 491 436 491 354 C491 271 435 216 334 216 L153 216 Z " />
<glyph glyph-name="germandbls" unicode="&#xdf;" horiz-adv-x="608" d="M357 -11 C476 -11 567 67 567 193 C567 296 506 372 418 394 C492 419 533 486 533 560 C533 664 453 743 320 743 C170 743 76 648 76 501 L76 0 L142 0 L142 504 C142 616 209 686 316 686 C408 686 466 633 466 554 C466 490 421 418 318 418 L318 361 C439 361 499 288 499 198 C499 109 439 47 349 47 C298 47 260 63 230 88 L230 21 C261 2 302 -11 357 -11 L357 -11 Z " />
<glyph glyph-name="agrave" unicode="&#xe0;" horiz-adv-x="646" d="M300 -11 C394 -11 468 37 508 114 L508 0 L570 0 L570 527 L508 527 L508 414 C468 490 394 538 300 538 C154 538 42 422 42 265 C42 108 151 -11 300 -11 L300 -11 Z M108 264 C108 387 193 479 307 479 C424 479 506 390 506 264 C506 137 424 48 307 48 C192 48 108 139 108 264 L108 264 Z M192 721 L395 603 L422 646 L223 771 L192 721 Z " />
<glyph glyph-name="aacute" unicode="&#xe1;" horiz-adv-x="646" d="M300 -11 C394 -11 468 37 508 114 L508 0 L570 0 L570 527 L508 527 L508 414 C468 490 394 538 300 538 C154 538 42 422 42 265 C42 108 151 -11 300 -11 L300 -11 Z M108 264 C108 387 193 479 307 479 C424 479 506 390 506 264 C506 137 424 48 307 48 C192 48 108 139 108 264 L108 264 Z M207 646 L234 603 L437 721 L406 771 L207 646 Z " />
<glyph glyph-name="acircumflex" unicode="&#xe2;" horiz-adv-x="646" d="M300 -11 C394 -11 468 37 508 114 L508 0 L570 0 L570 527 L508 527 L508 414 C468 490 394 538 300 538 C154 538 42 422 42 265 C42 108 151 -11 300 -11 L300 -11 Z M108 264 C108 387 193 479 307 479 C424 479 506 390 506 264 C506 137 424 48 307 48 C192 48 108 139 108 264 L108 264 Z M161 613 L223 613 L318 720 L413 613 L475 613 L347 761 L290 761 L161 613 Z " />
<glyph glyph-name="atilde" unicode="&#xe3;" horiz-adv-x="646" d="M300 -11 C394 -11 468 37 508 114 L508 0 L570 0 L570 527 L508 527 L508 414 C468 490 394 538 300 538 C154 538 42 422 42 265 C42 108 151 -11 300 -11 L300 -11 Z M108 264 C108 387 193 479 307 479 C424 479 506 390 506 264 C506 137 424 48 307 48 C192 48 108 139 108 264 L108 264 Z M157 656 L205 636 C211 663 229 686 260 686 C306 686 321 634 383 634 C442 634 469 679 478 719 L430 739 C424 712 406 690 375 690 C327 690 312 742 252 742 C194 742 166 695 157 656 L157 656 Z " />
<glyph glyph-name="adieresis" unicode="&#xe4;" horiz-adv-x="646" d="M300 -11 C394 -11 468 37 508 114 L508 0 L570 0 L570 527 L508 527 L508 414 C468 490 394 538 300 538 C154 538 42 422 42 265 C42 108 151 -11 300 -11 L300 -11 Z M108 264 C108 387 193 479 307 479 C424 479 506 390 506 264 C506 137 424 48 307 48 C192 48 108 139 108 264 L108 264 Z M168 688 C168 656 194 632 224 632 C255 632 280 656 280 687 C280 718 255 743 225 743 C194 743 168 719 168 688 L168 688 Z M355 688 C355 656 381 632 410 632 C441 632 467 656 467 687 C467 718 442 743 411 743 C381 743 355 719 355 688 L355 688 Z " />
<glyph glyph-name="aring" unicode="&#xe5;" horiz-adv-x="646" d="M300 -11 C394 -11 468 37 508 114 L508 0 L570 0 L570 527 L508 527 L508 414 C468 490 394 538 300 538 C154 538 42 422 42 265 C42 108 151 -11 300 -11 L300 -11 Z M108 264 C108 387 193 479 307 479 C424 479 506 390 506 264 C506 137 424 48 307 48 C192 48 108 139 108 264 L108 264 Z M221 678 C221 624 262 585 318 585 C374 585 415 624 415 678 C415 731 374 771 318 771 C262 771 221 731 221 678 L221 678 Z M264 678 C264 708 287 731 318 731 C349 731 372 708 372 678 C372 648 349 625 318 625 C287 625 264 648 264 678 L264 678 Z " />
<glyph glyph-name="ae" unicode="&#xe6;" horiz-adv-x="1067" d="M300 -11 C394 -11 468 37 508 114 L508 0 L570 0 L570 118 C612 37 692 -11 792 -11 C905 -11 967 36 1013 87 L972 128 C929 80 881 43 787 43 C669 43 587 125 579 245 L1026 245 C1027 252 1027 264 1027 275 C1027 421 931 538 780 538 C687 538 611 486 570 406 L570 527 L508 527 L508 414 C468 490 394 538 300 538 C152 538 42 420 42 264 C42 106 151 -11 300 -11 L300 -11 Z M108 264 C108 386 193 479 307 479 C425 479 506 390 506 264 C506 137 424 48 307 48 C192 48 108 140 108 264 L108 264 Z M579 289 C589 405 668 487 777 487 C887 487 961 406 967 289 L579 289 Z " />
<glyph glyph-name="ccedilla" unicode="&#xe7;" horiz-adv-x="574" d="M293 -240 C361 -240 403 -198 403 -145 C403 -96 367 -57 312 -56 L332 -10 C415 -4 473 35 507 70 L466 112 C434 78 381 49 314 49 C196 49 108 137 108 263 C108 390 196 478 313 478 C380 478 433 449 464 414 L506 456 C469 495 403 538 309 538 C154 538 41 420 41 263 C41 114 143 0 289 -10 L261 -73 L267 -80 L284 -80 C325 -80 353 -107 353 -141 C353 -173 327 -199 286 -199 C251 -199 229 -182 214 -164 L188 -194 C207 -217 241 -240 293 -240 L293 -240 Z " />
<glyph glyph-name="egrave" unicode="&#xe8;" horiz-adv-x="593" d="M306 -12 C421 -12 488 31 539 87 L491 135 C445 85 399 55 308 55 C204 55 119 129 106 236 L556 236 C557 245 558 263 558 275 C558 416 456 539 300 539 C153 539 36 416 36 263 C36 106 146 -12 306 -12 L306 -12 Z M107 302 C122 411 208 477 303 477 C398 477 473 410 485 302 L107 302 Z M178 720 L381 602 L408 645 L209 770 L178 720 Z " />
<glyph glyph-name="eacute" unicode="&#xe9;" horiz-adv-x="593" d="M306 -12 C421 -12 488 31 539 87 L491 135 C445 85 399 55 308 55 C204 55 119 129 106 236 L556 236 C557 245 558 263 558 275 C558 416 456 539 300 539 C153 539 36 416 36 263 C36 106 146 -12 306 -12 L306 -12 Z M107 302 C122 411 208 477 303 477 C398 477 473 410 485 302 L107 302 Z M193 645 L220 602 L423 720 L392 770 L193 645 Z " />
<glyph glyph-name="ecircumflex" unicode="&#xea;" horiz-adv-x="593" d="M306 -12 C421 -12 488 31 539 87 L491 135 C445 85 399 55 308 55 C204 55 119 129 106 236 L556 236 C557 245 558 263 558 275 C558 416 456 539 300 539 C153 539 36 416 36 263 C36 106 146 -12 306 -12 L306 -12 Z M107 302 C122 411 208 477 303 477 C398 477 473 410 485 302 L107 302 Z M147 612 L209 612 L304 719 L399 612 L461 612 L333 760 L276 760 L147 612 Z " />
<glyph glyph-name="edieresis" unicode="&#xeb;" horiz-adv-x="593" d="M306 -12 C421 -12 488 31 539 87 L491 135 C445 85 399 55 308 55 C204 55 119 129 106 236 L556 236 C557 245 558 263 558 275 C558 416 456 539 300 539 C153 539 36 416 36 263 C36 106 146 -12 306 -12 L306 -12 Z M107 302 C122 411 208 477 303 477 C398 477 473 410 485 302 L107 302 Z M154 687 C154 655 180 631 210 631 C241 631 266 655 266 686 C266 717 241 742 211 742 C180 742 154 718 154 687 L154 687 Z M341 687 C341 655 367 631 396 631 C427 631 453 655 453 686 C453 717 428 742 397 742 C367 742 341 718 341 687 L341 687 Z " />
<glyph glyph-name="igrave" unicode="&#xec;" horiz-adv-x="218" d="M76 0 L142 0 L142 527 L76 527 L76 0 Z M-18 721 L185 603 L212 646 L13 771 L-18 721 Z " />
<glyph glyph-name="iacute" unicode="&#xed;" horiz-adv-x="218" d="M76 0 L142 0 L142 527 L76 527 L76 0 Z M-2 646 L25 603 L228 721 L197 771 L-2 646 Z " />
<glyph glyph-name="icircumflex" unicode="&#xee;" horiz-adv-x="218" d="M76 0 L142 0 L142 527 L76 527 L76 0 Z M-48 613 L14 613 L109 720 L204 613 L266 613 L138 761 L81 761 L-48 613 Z " />
<glyph glyph-name="idieresis" unicode="&#xef;" horiz-adv-x="218" d="M76 0 L142 0 L142 527 L76 527 L76 0 Z M-41 688 C-41 656 -15 632 15 632 C46 632 71 656 71 687 C71 718 46 743 16 743 C-15 743 -41 719 -41 688 L-41 688 Z M146 688 C146 656 172 632 201 632 C232 632 258 656 258 687 C258 718 233 743 202 743 C172 743 146 719 146 688 L146 688 Z " />
<glyph glyph-name="eth" unicode="&#xf0;" horiz-adv-x="628" d="M312 -11 C470 -11 583 96 583 279 C583 471 485 632 330 715 L401 786 L366 821 L282 737 C222 762 154 775 81 775 L54 719 C118 719 179 709 235 690 L134 589 L169 554 L284 669 C383 622 459 542 494 436 C448 497 383 520 310 520 C154 520 41 404 41 254 C41 106 154 -11 312 -11 L312 -11 Z M108 254 C108 371 192 461 313 461 C433 461 516 371 516 258 C516 132 433 49 313 49 C192 49 108 139 108 254 L108 254 Z " />
<glyph glyph-name="ntilde" unicode="&#xf1;" horiz-adv-x="612" d="M477 308 L477 0 L544 0 L544 319 C544 452 465 538 327 538 C238 538 171 493 139 439 L139 527 L76 527 L76 0 L142 0 L142 330 C144 406 212 477 312 478 C416 479 477 415 477 308 L477 308 Z M153 655 L201 635 C207 662 225 685 256 685 C302 685 317 633 379 633 C438 633 465 678 474 718 L426 738 C420 711 402 689 371 689 C323 689 308 741 248 741 C190 741 162 694 153 655 L153 655 Z " />
<glyph glyph-name="ograve" unicode="&#xf2;" horiz-adv-x="624" d="M312 -11 C470 -11 583 106 583 263 C583 421 470 538 312 538 C154 538 41 421 41 263 C41 106 154 -11 312 -11 L312 -11 Z M108 263 C108 389 192 478 313 478 C433 478 516 389 516 263 C516 139 433 49 313 49 C192 49 108 139 108 263 L108 263 Z M187 720 L390 602 L417 645 L218 770 L187 720 Z " />
<glyph glyph-name="oacute" unicode="&#xf3;" horiz-adv-x="624" d="M312 -11 C470 -11 583 106 583 263 C583 421 470 538 312 538 C154 538 41 421 41 263 C41 106 154 -11 312 -11 L312 -11 Z M108 263 C108 389 192 478 313 478 C433 478 516 389 516 263 C516 139 433 49 313 49 C192 49 108 139 108 263 L108 263 Z M203 645 L230 602 L433 720 L402 770 L203 645 Z " />
<glyph glyph-name="ocircumflex" unicode="&#xf4;" horiz-adv-x="624" d="M312 -11 C470 -11 583 106 583 263 C583 421 470 538 312 538 C154 538 41 421 41 263 C41 106 154 -11 312 -11 L312 -11 Z M108 263 C108 389 192 478 313 478 C433 478 516 389 516 263 C516 139 433 49 313 49 C192 49 108 139 108 263 L108 263 Z M157 612 L219 612 L314 719 L409 612 L471 612 L343 760 L286 760 L157 612 Z " />
<glyph glyph-name="otilde" unicode="&#xf5;" horiz-adv-x="624" d="M312 -11 C470 -11 583 106 583 263 C583 421 470 538 312 538 C154 538 41 421 41 263 C41 106 154 -11 312 -11 L312 -11 Z M108 263 C108 389 192 478 313 478 C433 478 516 389 516 263 C516 139 433 49 313 49 C192 49 108 139 108 263 L108 263 Z M152 655 L200 635 C206 662 224 685 255 685 C301 685 316 633 378 633 C437 633 464 678 473 718 L425 738 C419 711 401 689 370 689 C322 689 307 741 247 741 C189 741 161 694 152 655 L152 655 Z " />
<glyph glyph-name="odieresis" unicode="&#xf6;" horiz-adv-x="624" d="M312 -11 C470 -11 583 106 583 263 C583 421 470 538 312 538 C154 538 41 421 41 263 C41 106 154 -11 312 -11 L312 -11 Z M108 263 C108 389 192 478 313 478 C433 478 516 389 516 263 C516 139 433 49 313 49 C192 49 108 139 108 263 L108 263 Z M163 687 C163 655 189 631 219 631 C250 631 275 655 275 686 C275 717 250 742 220 742 C189 742 163 718 163 687 L163 687 Z M350 687 C350 655 376 631 405 631 C436 631 462 655 462 686 C462 717 437 742 406 742 C376 742 350 718 350 687 L350 687 Z " />
<glyph glyph-name="divide" unicode="&#xf7;" horiz-adv-x="540" d="M62 273 L478 273 L478 331 L62 331 L62 273 Z M223 484 C223 456 244 434 273 434 C302 434 323 456 323 484 C323 513 302 535 273 535 C244 535 223 513 223 484 L223 484 Z M224 108 C224 80 246 59 274 59 C303 59 325 80 325 108 C325 138 303 159 274 159 C246 159 224 138 224 108 L224 108 Z " />
<glyph glyph-name="oslash" unicode="&#xf8;" horiz-adv-x="641" d="M320 -11 C478 -11 591 106 591 263 C591 325 574 381 543 426 L609 484 L577 521 L511 463 C463 510 397 538 320 538 C162 538 49 421 49 263 C49 201 67 145 98 100 L33 43 L66 5 L131 62 C178 16 244 -11 320 -11 L320 -11 Z M116 263 C116 389 200 478 321 478 C379 478 428 457 464 422 L147 143 C127 177 116 218 116 263 L116 263 Z M178 104 L494 382 C513 349 524 308 524 263 C524 139 441 49 321 49 C263 49 214 69 178 104 L178 104 Z " />
<glyph glyph-name="ugrave" unicode="&#xf9;" horiz-adv-x="602" d="M281 -11 C366 -11 432 33 464 86 L464 0 L527 0 L527 527 L460 527 L460 190 C459 120 393 49 296 49 C197 48 135 113 135 211 L135 527 L69 527 L69 203 C69 77 146 -11 281 -11 L281 -11 Z M163 721 L366 603 L393 646 L194 771 L163 721 Z " />
<glyph glyph-name="uacute" unicode="&#xfa;" horiz-adv-x="602" d="M281 -11 C366 -11 432 33 464 86 L464 0 L527 0 L527 527 L460 527 L460 190 C459 120 393 49 296 49 C197 48 135 113 135 211 L135 527 L69 527 L69 203 C69 77 146 -11 281 -11 L281 -11 Z M178 646 L205 603 L408 721 L377 771 L178 646 Z " />
<glyph glyph-name="ucircumflex" unicode="&#xfb;" horiz-adv-x="602" d="M281 -11 C366 -11 432 33 464 86 L464 0 L527 0 L527 527 L460 527 L460 190 C459 120 393 49 296 49 C197 48 135 113 135 211 L135 527 L69 527 L69 203 C69 77 146 -11 281 -11 L281 -11 Z M132 613 L194 613 L289 720 L384 613 L446 613 L318 761 L261 761 L132 613 Z " />
<glyph glyph-name="udieresis" unicode="&#xfc;" horiz-adv-x="602" d="M281 -11 C366 -11 432 33 464 86 L464 0 L527 0 L527 527 L460 527 L460 190 C459 120 393 49 296 49 C197 48 135 113 135 211 L135 527 L69 527 L69 203 C69 77 146 -11 281 -11 L281 -11 Z M139 688 C139 656 165 632 195 632 C226 632 251 656 251 687 C251 718 226 743 196 743 C165 743 139 719 139 688 L139 688 Z M326 688 C326 656 352 632 381 632 C412 632 438 656 438 687 C438 718 413 743 382 743 C352 743 326 719 326 688 L326 688 Z " />
<glyph glyph-name="yacute" unicode="&#xfd;" horiz-adv-x="536" d="M226 0 L241 0 L164 -179 L230 -179 L526 527 L457 527 L266 59 L80 527 L11 527 L226 0 Z M158 646 L185 603 L388 721 L357 771 L158 646 Z " />
<glyph glyph-name="thorn" unicode="&#xfe;" horiz-adv-x="646" d="M346 -11 C495 -11 605 106 605 263 C605 420 497 538 347 538 C256 538 184 494 142 422 L142 731 L76 731 L76 -179 L142 -179 L142 103 C184 32 256 -11 346 -11 L346 -11 Z M140 263 C140 389 222 478 339 478 C453 478 538 387 538 263 C538 141 453 49 339 49 C222 49 140 137 140 263 L140 263 Z " />
<glyph glyph-name="ydieresis" unicode="&#xff;" horiz-adv-x="536" d="M226 0 L241 0 L164 -179 L230 -179 L526 527 L457 527 L266 59 L80 527 L11 527 L226 0 Z M118 688 C118 656 144 632 174 632 C205 632 230 656 230 687 C230 718 205 743 175 743 C144 743 118 719 118 688 L118 688 Z M305 688 C305 656 331 632 360 632 C391 632 417 656 417 687 C417 718 392 743 361 743 C331 743 305 719 305 688 L305 688 Z " />
<glyph glyph-name="Amacron" unicode="&#x100;" horiz-adv-x="617" d="M11 0 L77 0 L157 214 L460 214 L540 0 L606 0 L348 695 L268 695 L11 0 Z M162 809 L452 809 L452 865 L162 865 L162 809 Z M177 269 L309 623 L440 269 L177 269 Z " />
<glyph glyph-name="amacron" unicode="&#x101;" horiz-adv-x="646" d="M300 -11 C394 -11 468 37 508 114 L508 0 L570 0 L570 527 L508 527 L508 414 C468 490 394 538 300 538 C154 538 42 422 42 265 C42 108 151 -11 300 -11 L300 -11 Z M108 264 C108 387 193 479 307 479 C424 479 506 390 506 264 C506 137 424 48 307 48 C192 48 108 139 108 264 L108 264 Z M178 660 L458 660 L458 715 L178 715 L178 660 Z " />
<glyph glyph-name="Abreve" unicode="&#x102;" horiz-adv-x="617" d="M11 0 L77 0 L157 214 L460 214 L540 0 L606 0 L348 695 L268 695 L11 0 Z M169 902 C169 831 221 771 307 771 C393 771 446 831 446 902 L390 902 C390 860 360 822 307 822 C255 822 225 860 225 902 L169 902 Z M177 269 L309 623 L440 269 L177 269 Z " />
<glyph glyph-name="abreve" unicode="&#x103;" horiz-adv-x="646" d="M300 -11 C394 -11 468 37 508 114 L508 0 L570 0 L570 527 L508 527 L508 414 C468 490 394 538 300 538 C154 538 42 422 42 265 C42 108 151 -11 300 -11 L300 -11 Z M108 264 C108 387 193 479 307 479 C424 479 506 390 506 264 C506 137 424 48 307 48 C192 48 108 139 108 264 L108 264 Z M175 761 C175 674 232 613 319 613 C405 613 462 674 462 761 L408 761 C408 702 371 665 319 665 C266 665 229 702 229 761 L175 761 Z " />
<glyph glyph-name="Aogonek" unicode="&#x104;" horiz-adv-x="617" d="M11 0 L77 0 L157 214 L460 214 L540 0 L555 0 L543 -10 C488 -59 464 -96 464 -138 C464 -189 500 -226 557 -226 C594 -226 624 -213 642 -192 L615 -159 C603 -174 586 -180 566 -180 C536 -180 516 -160 516 -129 C516 -101 530 -76 573 -33 L606 0 L348 695 L268 695 L11 0 Z M177 269 L309 623 L440 269 L177 269 Z " />
<glyph glyph-name="aogonek" unicode="&#x105;" horiz-adv-x="646" d="M300 -11 C394 -11 468 37 508 114 L508 0 L519 0 L507 -10 C452 -59 428 -96 428 -138 C428 -189 464 -226 521 -226 C558 -226 588 -213 606 -192 L579 -159 C567 -174 550 -180 530 -180 C500 -180 480 -160 480 -129 C480 -101 494 -76 537 -33 L570 0 L570 527 L508 527 L508 414 C468 490 394 538 300 538 C154 538 42 422 42 265 C42 108 151 -11 300 -11 L300 -11 Z M108 264 C108 387 193 479 307 479 C424 479 506 390 506 264 C506 137 424 48 307 48 C192 48 108 139 108 264 L108 264 Z " />
<glyph glyph-name="Cacute" unicode="&#x106;" horiz-adv-x="683" d="M393 -11 C514 -11 596 44 647 104 L601 150 C552 96 486 52 393 52 C233 52 115 173 115 347 C115 522 233 643 389 643 C482 643 549 599 600 545 L644 591 C593 651 509 706 389 706 C193 706 47 558 47 347 C47 137 193 -11 393 -11 L393 -11 Z M266 815 L282 766 L521 853 L503 908 L266 815 Z " />
<glyph glyph-name="cacute" unicode="&#x107;" horiz-adv-x="574" d="M311 -11 C405 -11 470 32 507 70 L466 112 C434 78 381 49 314 49 C196 49 108 137 108 263 C108 390 196 478 313 478 C380 478 433 449 464 414 L506 456 C469 495 403 538 309 538 C154 538 41 420 41 263 C41 106 154 -11 311 -11 L311 -11 Z M199 646 L226 603 L429 721 L398 771 L199 646 Z " />
<glyph glyph-name="Cdotaccent" unicode="&#x10a;" horiz-adv-x="683" d="M393 -11 C514 -11 596 44 647 104 L601 150 C552 96 486 52 393 52 C233 52 115 173 115 347 C115 522 233 643 389 643 C482 643 549 599 600 545 L644 591 C593 651 509 706 389 706 C193 706 47 558 47 347 C47 137 193 -11 393 -11 L393 -11 Z M327 837 C327 804 352 781 382 781 C414 781 438 804 438 836 C438 867 414 891 383 891 C352 891 327 868 327 837 L327 837 Z " />
<glyph glyph-name="cdotaccent" unicode="&#x10b;" horiz-adv-x="574" d="M311 -11 C405 -11 470 32 507 70 L466 112 C434 78 381 49 314 49 C196 49 108 137 108 263 C108 390 196 478 313 478 C380 478 433 449 464 414 L506 456 C469 495 403 538 309 538 C154 538 41 420 41 263 C41 106 154 -11 311 -11 L311 -11 Z M251 687 C251 654 277 630 310 630 C343 630 368 654 368 687 C368 721 343 746 310 746 C277 746 251 721 251 687 L251 687 Z " />
<glyph glyph-name="Ccaron" unicode="&#x10c;" horiz-adv-x="683" d="M393 -11 C514 -11 596 44 647 104 L601 150 C552 96 486 52 393 52 C233 52 115 173 115 347 C115 522 233 643 389 643 C482 643 549 599 600 545 L644 591 C593 651 509 706 389 706 C193 706 47 558 47 347 C47 137 193 -11 393 -11 L393 -11 Z M228 902 L357 771 L411 771 L538 902 L474 902 L383 815 L292 902 L228 902 Z " />
<glyph glyph-name="ccaron" unicode="&#x10d;" horiz-adv-x="574" d="M311 -11 C405 -11 470 32 507 70 L466 112 C434 78 381 49 314 49 C196 49 108 137 108 263 C108 390 196 478 313 478 C380 478 433 449 464 414 L506 456 C469 495 403 538 309 538 C154 538 41 420 41 263 C41 106 154 -11 311 -11 L311 -11 Z M153 761 L282 613 L339 613 L467 761 L405 761 L310 655 L215 761 L153 761 Z " />
<glyph glyph-name="Dcaron" unicode="&#x10e;" horiz-adv-x="716" d="M87 0 L333 0 C527 0 669 138 669 348 C669 558 527 695 333 695 L87 695 L87 0 Z M153 60 L153 635 L331 635 C486 635 601 522 601 347 C601 172 486 60 331 60 L153 60 Z M183 902 L312 771 L366 771 L493 902 L429 902 L338 815 L247 902 L183 902 Z " />
<glyph glyph-name="dcaron" unicode="&#x10f;" horiz-adv-x="687" d="M300 -11 C393 -11 467 36 508 111 L508 0 L570 0 L570 731 L504 731 L504 423 C462 494 390 538 299 538 C150 538 42 420 42 264 C42 106 151 -11 300 -11 L300 -11 Z M108 264 C108 386 193 479 307 479 C425 479 506 390 506 264 C506 137 424 48 307 48 C192 48 108 140 108 264 L108 264 Z M647 513 L692 513 L717 731 L667 731 L647 513 Z " />
<glyph glyph-name="Dcroat" unicode="&#x110;" horiz-adv-x="723" d="M94 0 L340 0 C534 0 676 138 676 348 C676 558 534 695 340 695 L94 695 L94 386 L18 386 L18 338 L94 338 L94 0 Z M160 60 L160 338 L320 338 L320 386 L160 386 L160 635 L338 635 C493 635 608 522 608 347 C608 172 493 60 338 60 L160 60 Z " />
<glyph glyph-name="dcroat" unicode="&#x111;" horiz-adv-x="646" d="M300 -11 C393 -11 467 36 508 111 L508 0 L570 0 L570 599 L646 599 L646 647 L570 647 L570 731 L504 731 L504 647 L344 647 L344 599 L504 599 L504 423 C462 494 390 538 299 538 C150 538 42 420 42 264 C42 106 151 -11 300 -11 L300 -11 Z M108 264 C108 386 193 479 307 479 C425 479 506 390 506 264 C506 137 424 48 307 48 C192 48 108 140 108 264 L108 264 Z " />
<glyph glyph-name="Emacron" unicode="&#x112;" horiz-adv-x="556" d="M87 0 L518 0 L518 59 L153 59 L153 332 L479 332 L479 391 L153 391 L153 636 L511 636 L511 695 L87 695 L87 0 Z M153 809 L443 809 L443 865 L153 865 L153 809 Z " />
<glyph glyph-name="emacron" unicode="&#x113;" horiz-adv-x="593" d="M306 -12 C421 -12 488 31 539 87 L491 135 C445 85 399 55 308 55 C204 55 119 129 106 236 L556 236 C557 245 558 263 558 275 C558 416 456 539 300 539 C153 539 36 416 36 263 C36 106 146 -12 306 -12 L306 -12 Z M107 302 C122 411 208 477 303 477 C398 477 473 410 485 302 L107 302 Z M164 659 L444 659 L444 714 L164 714 L164 659 Z " />
<glyph glyph-name="Edotaccent" unicode="&#x116;" horiz-adv-x="556" d="M87 0 L518 0 L518 59 L153 59 L153 332 L479 332 L479 391 L153 391 L153 636 L511 636 L511 695 L87 695 L87 0 Z M243 837 C243 804 268 781 298 781 C330 781 354 804 354 836 C354 867 330 891 299 891 C268 891 243 868 243 837 L243 837 Z " />
<glyph glyph-name="edotaccent" unicode="&#x117;" horiz-adv-x="593" d="M306 -12 C421 -12 488 31 539 87 L491 135 C445 85 399 55 308 55 C204 55 119 129 106 236 L556 236 C557 245 558 263 558 275 C558 416 456 539 300 539 C153 539 36 416 36 263 C36 106 146 -12 306 -12 L306 -12 Z M107 302 C122 411 208 477 303 477 C398 477 473 410 485 302 L107 302 Z M246 686 C246 653 272 629 305 629 C338 629 363 653 363 686 C363 720 338 745 305 745 C272 745 246 720 246 686 L246 686 Z " />
<glyph glyph-name="Eogonek" unicode="&#x118;" horiz-adv-x="556" d="M87 0 L467 0 L455 -10 C400 -59 376 -96 376 -138 C376 -189 412 -226 469 -226 C506 -226 536 -213 554 -192 L527 -159 C515 -174 498 -180 478 -180 C448 -180 428 -160 428 -129 C428 -101 442 -76 485 -33 L518 0 L518 59 L153 59 L153 332 L479 332 L479 391 L153 391 L153 636 L511 636 L511 695 L87 695 L87 0 Z " />
<glyph glyph-name="eogonek" unicode="&#x119;" horiz-adv-x="593" d="M306 -12 C316 -12 325 -12 334 -11 C285 -57 263 -92 263 -132 C263 -183 299 -220 356 -220 C393 -220 423 -207 441 -186 L414 -153 C402 -168 385 -174 365 -174 C335 -174 315 -154 315 -123 C315 -95 329 -70 372 -27 L398 -1 C460 15 503 48 539 87 L491 135 C445 85 399 55 308 55 C204 55 119 129 106 236 L556 236 C557 245 558 263 558 275 C558 416 456 539 300 539 C153 539 36 416 36 263 C36 106 146 -12 306 -12 L306 -12 Z M107 302 C122 411 208 477 303 477 C398 477 473 410 485 302 L107 302 Z " />
<glyph glyph-name="Ecaron" unicode="&#x11a;" horiz-adv-x="556" d="M87 0 L518 0 L518 59 L153 59 L153 332 L479 332 L479 391 L153 391 L153 636 L511 636 L511 695 L87 695 L87 0 Z M144 902 L273 771 L327 771 L454 902 L390 902 L299 815 L208 902 L144 902 Z " />
<glyph glyph-name="ecaron" unicode="&#x11b;" horiz-adv-x="593" d="M306 -12 C421 -12 488 31 539 87 L491 135 C445 85 399 55 308 55 C204 55 119 129 106 236 L556 236 C557 245 558 263 558 275 C558 416 456 539 300 539 C153 539 36 416 36 263 C36 106 146 -12 306 -12 L306 -12 Z M107 302 C122 411 208 477 303 477 C398 477 473 410 485 302 L107 302 Z M147 760 L276 612 L333 612 L461 760 L399 760 L304 654 L209 760 L147 760 Z " />
<glyph glyph-name="Gbreve" unicode="&#x11e;" horiz-adv-x="769" d="M389 -11 C582 -11 728 127 728 357 L388 357 L388 304 L663 304 C647 147 536 50 391 50 C232 50 115 165 115 346 C115 522 232 643 389 643 C507 643 587 584 624 524 L674 572 C631 632 541 706 390 706 C194 706 47 557 47 347 C47 132 192 -11 389 -11 L389 -11 Z M249 902 C249 831 301 771 387 771 C473 771 526 831 526 902 L470 902 C470 860 440 822 387 822 C335 822 305 860 305 902 L249 902 Z " />
<glyph glyph-name="gbreve" unicode="&#x11f;" horiz-adv-x="646" d="M301 -11 C395 -11 468 36 508 113 L508 60 C508 -59 430 -133 305 -133 C222 -133 147 -104 108 -51 L65 -94 C114 -155 197 -190 306 -190 C472 -190 571 -90 571 65 L571 527 L508 527 L508 415 C468 491 395 538 301 538 C152 538 42 422 42 264 C42 106 151 -11 301 -11 L301 -11 Z M108 263 C108 387 194 479 310 479 C425 479 507 390 507 264 C507 137 425 48 307 48 C193 48 108 140 108 263 L108 263 Z M177 761 C177 674 234 613 321 613 C407 613 464 674 464 761 L410 761 C410 702 373 665 321 665 C268 665 231 702 231 761 L177 761 Z " />
<glyph glyph-name="Gdotaccent" unicode="&#x120;" horiz-adv-x="769" d="M389 -11 C582 -11 728 127 728 357 L388 357 L388 304 L663 304 C647 147 536 50 391 50 C232 50 115 165 115 346 C115 522 232 643 389 643 C507 643 587 584 624 524 L674 572 C631 632 541 706 390 706 C194 706 47 557 47 347 C47 132 192 -11 389 -11 L389 -11 Z M332 837 C332 804 357 781 387 781 C419 781 443 804 443 836 C443 867 419 891 388 891 C357 891 332 868 332 837 L332 837 Z " />
<glyph glyph-name="gdotaccent" unicode="&#x121;" horiz-adv-x="646" d="M301 -11 C395 -11 468 36 508 113 L508 60 C508 -59 430 -133 305 -133 C222 -133 147 -104 108 -51 L65 -94 C114 -155 197 -190 306 -190 C472 -190 571 -90 571 65 L571 527 L508 527 L508 415 C468 491 395 538 301 538 C152 538 42 422 42 264 C42 106 151 -11 301 -11 L301 -11 Z M108 263 C108 387 194 479 310 479 C425 479 507 390 507 264 C507 137 425 48 307 48 C193 48 108 140 108 263 L108 263 Z M262 687 C262 654 288 630 321 630 C354 630 379 654 379 687 C379 721 354 746 321 746 C288 746 262 721 262 687 L262 687 Z " />
<glyph glyph-name="uni0122" unicode="&#x122;" horiz-adv-x="769" d="M389 -11 C582 -11 728 127 728 357 L388 357 L388 304 L663 304 C647 147 536 50 391 50 C232 50 115 165 115 346 C115 522 232 643 389 643 C507 643 587 584 624 524 L674 572 C631 632 541 706 390 706 C194 706 47 557 47 347 C47 132 192 -11 389 -11 L389 -11 Z M338 -221 L372 -233 L411 -165 C427 -138 435 -119 435 -98 C435 -69 415 -49 388 -49 C360 -49 339 -69 339 -96 C339 -121 357 -141 379 -144 L376 -151 L338 -221 Z " />
<glyph glyph-name="uni0123" unicode="&#x123;" horiz-adv-x="646" d="M301 -11 C395 -11 468 36 508 113 L508 60 C508 -59 430 -133 305 -133 C222 -133 147 -104 108 -51 L65 -94 C114 -155 197 -190 306 -190 C472 -190 571 -90 571 65 L571 527 L508 527 L508 415 C468 491 395 538 301 538 C152 538 42 422 42 264 C42 106 151 -11 301 -11 L301 -11 Z M108 263 C108 387 194 479 310 479 C425 479 507 390 507 264 C507 137 425 48 307 48 C193 48 108 140 108 263 L108 263 Z M267 651 C267 622 287 602 314 602 C342 602 363 622 363 649 C363 674 345 694 323 697 L326 704 L364 774 L330 786 L291 718 C275 691 267 672 267 651 L267 651 Z " />
<glyph glyph-name="Hbar" unicode="&#x126;" horiz-adv-x="700" d="M540 0 L606 0 L606 523 L671 523 L671 577 L606 577 L606 695 L540 695 L540 577 L161 577 L161 695 L95 695 L95 577 L29 577 L29 523 L95 523 L95 0 L161 0 L161 332 L540 332 L540 0 Z M161 392 L161 523 L540 523 L540 392 L161 392 Z " />
<glyph glyph-name="hbar" unicode="&#x127;" horiz-adv-x="612" d="M477 308 L477 0 L544 0 L544 319 C544 452 465 538 327 538 C240 538 175 496 142 444 L142 599 L302 599 L302 647 L142 647 L142 731 L76 731 L76 647 L0 647 L0 599 L76 599 L76 0 L142 0 L142 330 C144 406 212 477 312 478 C416 479 477 415 477 308 L477 308 Z " />
<glyph glyph-name="Itilde" unicode="&#x128;" horiz-adv-x="240" d="M87 0 L153 0 L153 695 L87 695 L87 0 Z M-23 801 L19 781 C24 808 39 831 66 831 C107 831 119 779 174 779 C226 779 252 824 260 864 L218 885 C213 857 197 835 170 835 C129 835 116 887 62 887 C11 887 -15 840 -23 801 L-23 801 Z " />
<glyph glyph-name="itilde" unicode="&#x129;" horiz-adv-x="218" d="M76 0 L142 0 L142 527 L76 527 L76 0 Z M-23 656 L16 636 C21 663 35 686 61 686 C98 686 110 634 161 634 C209 634 231 679 239 719 L199 739 C194 712 180 690 154 690 C115 690 103 742 54 742 C7 742 -16 695 -23 656 L-23 656 Z " />
<glyph glyph-name="Imacron" unicode="&#x12a;" horiz-adv-x="240" d="M87 0 L153 0 L153 695 L87 695 L87 0 Z M9 809 L234 809 L234 865 L9 865 L9 809 Z " />
<glyph glyph-name="imacron" unicode="&#x12b;" horiz-adv-x="218" d="M76 0 L142 0 L142 527 L76 527 L76 0 Z M-4 660 L220 660 L220 715 L-4 715 L-4 660 Z " />
<glyph glyph-name="Iogonek" unicode="&#x12e;" horiz-adv-x="240" d="M87 0 L102 0 L90 -10 C35 -59 11 -96 11 -138 C11 -189 47 -226 104 -226 C141 -226 171 -213 189 -192 L162 -159 C150 -174 133 -180 113 -180 C83 -180 63 -160 63 -129 C63 -101 77 -76 120 -33 L153 0 L153 695 L87 695 L87 0 Z " />
<glyph glyph-name="iogonek" unicode="&#x12f;" horiz-adv-x="220" d="M76 0 L90 0 L78 -10 C23 -59 -1 -96 -1 -138 C-1 -189 35 -226 92 -226 C129 -226 159 -213 177 -192 L150 -159 C138 -174 121 -180 101 -180 C71 -180 51 -160 51 -129 C51 -101 65 -76 108 -33 L141 0 L142 0 L142 527 L76 527 L76 0 Z M50 687 C50 654 76 630 109 630 C142 630 167 654 167 687 C167 721 142 746 109 746 C76 746 50 721 50 687 L50 687 Z " />
<glyph glyph-name="Idotaccent" unicode="&#x130;" horiz-adv-x="240" d="M87 0 L153 0 L153 695 L87 695 L87 0 Z M65 837 C65 804 90 781 120 781 C152 781 176 804 176 836 C176 867 152 891 121 891 C90 891 65 868 65 837 L65 837 Z " />
<glyph glyph-name="dotlessi" unicode="&#x131;" horiz-adv-x="218" d="M76 0 L142 0 L142 527 L76 527 L76 0 Z " />
<glyph glyph-name="IJ" unicode="&#x132;" horiz-adv-x="573" d="M87 0 L153 0 L153 695 L87 695 L87 0 Z M263 0 L315 0 C425 0 492 69 492 186 L492 695 L425 695 L425 186 C425 105 381 59 311 59 L263 59 L263 0 Z " />
<glyph glyph-name="ij" unicode="&#x133;" horiz-adv-x="490" d="M76 0 L142 0 L142 527 L76 527 L76 0 Z M50 687 C50 654 76 630 109 630 C142 630 167 654 167 687 C167 721 142 746 109 746 C76 746 50 721 50 687 L50 687 Z M221 -181 L237 -181 C342 -181 414 -109 414 3 L414 527 L348 527 L348 2 C348 -72 302 -123 232 -123 L221 -123 L221 -181 Z M323 686 C323 653 349 629 382 629 C415 629 440 653 440 686 C440 720 415 745 382 745 C349 745 323 720 323 686 L323 686 Z " />
<glyph glyph-name="uni0136" unicode="&#x136;" horiz-adv-x="603" d="M528 0 L610 0 L223 365 L574 695 L494 695 L153 381 L153 695 L87 695 L87 0 L153 0 L153 345 L528 0 Z M277 -221 L311 -233 L350 -165 C366 -138 374 -119 374 -98 C374 -69 354 -49 327 -49 C299 -49 278 -69 278 -96 C278 -121 296 -141 318 -144 L315 -151 L277 -221 Z " />
<glyph glyph-name="uni0137" unicode="&#x137;" horiz-adv-x="498" d="M76 0 L142 0 L142 269 L423 0 L500 0 L213 285 L491 527 L412 527 L142 302 L142 731 L76 731 L76 0 Z M230 -221 L264 -233 L303 -165 C319 -138 327 -119 327 -98 C327 -69 307 -49 280 -49 C252 -49 231 -69 231 -96 C231 -121 249 -141 271 -144 L268 -151 L230 -221 Z " />
<glyph glyph-name="kgreenlandic" unicode="&#x138;" horiz-adv-x="499" d="M76 0 L142 0 L142 253 L424 0 L500 0 L211 270 L493 527 L412 527 L142 285 L142 527 L76 527 L76 0 Z " />
<glyph glyph-name="Lacute" unicode="&#x139;" horiz-adv-x="525" d="M87 0 L512 0 L512 60 L153 60 L153 695 L87 695 L87 0 Z M3 815 L19 766 L258 853 L240 908 L3 815 Z " />
<glyph glyph-name="lacute" unicode="&#x13a;" horiz-adv-x="218" d="M76 0 L142 0 L142 731 L76 731 L76 0 Z M-8 851 L8 802 L247 889 L229 944 L-8 851 Z " />
<glyph glyph-name="uni013B" unicode="&#x13b;" horiz-adv-x="525" d="M87 0 L512 0 L512 60 L153 60 L153 695 L87 695 L87 0 Z M251 -221 L285 -233 L324 -165 C340 -138 348 -119 348 -98 C348 -69 328 -49 301 -49 C273 -49 252 -69 252 -96 C252 -121 270 -141 292 -144 L289 -151 L251 -221 Z " />
<glyph glyph-name="uni013C" unicode="&#x13c;" horiz-adv-x="218" d="M76 0 L142 0 L142 731 L76 731 L76 0 Z M60 -221 L94 -233 L133 -165 C149 -138 157 -119 157 -98 C157 -69 137 -49 110 -49 C82 -49 61 -69 61 -96 C61 -121 79 -141 101 -144 L98 -151 L60 -221 Z " />
<glyph glyph-name="Lcaron" unicode="&#x13d;" horiz-adv-x="528" d="M87 0 L512 0 L512 60 L153 60 L153 695 L87 695 L87 0 Z M358 487 L403 487 L428 705 L378 705 L358 487 Z " />
<glyph glyph-name="lcaron" unicode="&#x13e;" horiz-adv-x="258" d="M76 0 L142 0 L142 731 L76 731 L76 0 Z M218 513 L263 513 L288 731 L238 731 L218 513 Z " />
<glyph glyph-name="Ldot" unicode="&#x13f;" horiz-adv-x="531" d="M87 0 L512 0 L512 60 L153 60 L153 695 L87 695 L87 0 Z M328 386 C328 358 349 336 378 336 C406 336 428 358 428 386 C428 415 406 437 378 437 C349 437 328 415 328 386 L328 386 Z " />
<glyph glyph-name="ldot" unicode="&#x140;" horiz-adv-x="286" d="M76 0 L142 0 L142 731 L76 731 L76 0 Z M205 371 C205 343 226 321 255 321 C283 321 305 343 305 371 C305 400 283 422 255 422 C226 422 205 400 205 371 L205 371 Z " />
<glyph glyph-name="Lslash" unicode="&#x141;" horiz-adv-x="562" d="M124 0 L549 0 L549 60 L190 60 L190 342 L307 391 L291 435 L190 393 L190 695 L124 695 L124 366 L20 323 L36 278 L124 315 L124 0 Z " />
<glyph glyph-name="lslash" unicode="&#x142;" horiz-adv-x="303" d="M118 0 L184 0 L184 356 L294 419 L269 461 L184 413 L184 731 L118 731 L118 375 L11 314 L37 271 L118 318 L118 0 Z " />
<glyph glyph-name="Nacute" unicode="&#x143;" horiz-adv-x="686" d="M543 0 L599 0 L599 695 L532 695 L532 115 L143 695 L87 695 L87 0 L153 0 L153 579 L543 0 Z M220 815 L236 766 L475 853 L457 908 L220 815 Z " />
<glyph glyph-name="nacute" unicode="&#x144;" horiz-adv-x="612" d="M477 308 L477 0 L544 0 L544 319 C544 452 465 538 327 538 C238 538 171 493 139 439 L139 527 L76 527 L76 0 L142 0 L142 330 C144 406 212 477 312 478 C416 479 477 415 477 308 L477 308 Z M204 645 L231 602 L434 720 L403 770 L204 645 Z " />
<glyph glyph-name="uni0145" unicode="&#x145;" horiz-adv-x="686" d="M543 0 L599 0 L599 695 L532 695 L532 115 L143 695 L87 695 L87 0 L153 0 L153 579 L543 0 Z M298 -221 L332 -233 L371 -165 C387 -138 395 -119 395 -98 C395 -69 375 -49 348 -49 C320 -49 299 -69 299 -96 C299 -121 317 -141 339 -144 L336 -151 L298 -221 Z " />
<glyph glyph-name="uni0146" unicode="&#x146;" horiz-adv-x="612" d="M477 308 L477 0 L544 0 L544 319 C544 452 465 538 327 538 C238 538 171 493 139 439 L139 527 L76 527 L76 0 L142 0 L142 330 C144 406 212 477 312 478 C416 479 477 415 477 308 L477 308 Z M259 -221 L293 -233 L332 -165 C348 -138 356 -119 356 -98 C356 -69 336 -49 309 -49 C281 -49 260 -69 260 -96 C260 -121 278 -141 300 -144 L297 -151 L259 -221 Z " />
<glyph glyph-name="Ncaron" unicode="&#x147;" horiz-adv-x="686" d="M543 0 L599 0 L599 695 L532 695 L532 115 L143 695 L87 695 L87 0 L153 0 L153 579 L543 0 Z M182 902 L311 771 L365 771 L492 902 L428 902 L337 815 L246 902 L182 902 Z " />
<glyph glyph-name="ncaron" unicode="&#x148;" horiz-adv-x="612" d="M477 308 L477 0 L544 0 L544 319 C544 452 465 538 327 538 C238 538 171 493 139 439 L139 527 L76 527 L76 0 L142 0 L142 330 C144 406 212 477 312 478 C416 479 477 415 477 308 L477 308 Z M158 760 L287 612 L344 612 L472 760 L410 760 L315 654 L220 760 L158 760 Z " />
<glyph glyph-name="napostrophe" unicode="&#x149;" horiz-adv-x="694" d="M558 308 L558 0 L625 0 L625 319 C625 452 546 538 408 538 C319 538 252 493 220 439 L220 527 L157 527 L157 0 L223 0 L223 330 C225 406 293 477 393 478 C497 479 558 415 558 308 L558 308 Z M25 520 L70 520 L95 738 L45 738 L25 520 Z " />
<glyph glyph-name="Eng" unicode="&#x14a;" horiz-adv-x="686" d="M409 -195 L425 -195 C532 -195 599 -127 599 -9 L599 695 L532 695 L532 115 L143 695 L87 695 L87 0 L153 0 L153 579 L541 3 L541 -9 C541 -90 497 -136 427 -136 L409 -136 L409 -195 Z " />
<glyph glyph-name="eng" unicode="&#x14b;" horiz-adv-x="612" d="M477 308 L477 -1 C477 -73 433 -123 365 -123 L354 -123 L354 -181 L368 -181 C472 -181 544 -109 544 0 L544 319 C544 452 465 538 327 538 C238 538 171 493 139 439 L139 527 L76 527 L76 0 L142 0 L142 330 C144 406 212 477 312 478 C416 479 477 415 477 308 L477 308 Z " />
<glyph glyph-name="Omacron" unicode="&#x14c;" horiz-adv-x="787" d="M394 -11 C591 -11 740 139 740 347 C740 556 591 706 394 706 C195 706 46 556 46 347 C46 139 195 -11 394 -11 L394 -11 Z M114 347 C114 521 231 643 394 643 C555 643 672 521 672 347 C672 174 554 52 394 52 C232 52 114 174 114 347 L114 347 Z M248 809 L538 809 L538 865 L248 865 L248 809 Z " />
<glyph glyph-name="omacron" unicode="&#x14d;" horiz-adv-x="624" d="M312 -11 C470 -11 583 106 583 263 C583 421 470 538 312 538 C154 538 41 421 41 263 C41 106 154 -11 312 -11 L312 -11 Z M108 263 C108 389 192 478 313 478 C433 478 516 389 516 263 C516 139 433 49 313 49 C192 49 108 139 108 263 L108 263 Z M173 659 L453 659 L453 714 L173 714 L173 659 Z " />
<glyph glyph-name="Ohungarumlaut" unicode="&#x150;" horiz-adv-x="787" d="M394 -11 C591 -11 740 139 740 347 C740 556 591 706 394 706 C195 706 46 556 46 347 C46 139 195 -11 394 -11 L394 -11 Z M114 347 C114 521 231 643 394 643 C555 643 672 521 672 347 C672 174 554 52 394 52 C232 52 114 174 114 347 L114 347 Z M241 774 L283 744 L398 906 L350 940 L241 774 Z M427 774 L469 744 L584 906 L537 940 L427 774 Z " />
<glyph glyph-name="ohungarumlaut" unicode="&#x151;" horiz-adv-x="624" d="M312 -11 C470 -11 583 106 583 263 C583 421 470 538 312 538 C154 538 41 421 41 263 C41 106 154 -11 312 -11 L312 -11 Z M108 263 C108 389 192 478 313 478 C433 478 516 389 516 263 C516 139 433 49 313 49 C192 49 108 139 108 263 L108 263 Z M170 631 L212 602 L327 749 L279 782 L170 631 Z M349 631 L391 602 L506 749 L458 782 L349 631 Z " />
<glyph glyph-name="OE" unicode="&#x152;" horiz-adv-x="1141" d="M394 -11 C516 -11 615 47 672 141 L672 0 L1102 0 L1102 59 L739 59 L739 332 L1063 332 L1063 391 L739 391 L739 636 L1096 636 L1096 695 L672 695 L672 554 C615 648 516 706 394 706 C195 706 46 556 46 347 C46 139 195 -11 394 -11 L394 -11 Z M114 347 C114 521 231 643 394 643 C555 643 672 521 672 347 C672 174 554 52 394 52 C232 52 114 174 114 347 L114 347 Z " />
<glyph glyph-name="oe" unicode="&#x153;" horiz-adv-x="1069" d="M312 -11 C417 -11 502 40 547 121 C592 40 676 -12 782 -12 C897 -12 964 31 1015 87 L967 135 C921 85 875 55 784 55 C680 55 595 129 582 236 L1032 236 C1033 245 1034 263 1034 275 C1034 416 932 539 776 539 C678 539 594 485 548 404 C503 486 418 538 312 538 C154 538 41 421 41 263 C41 106 154 -11 312 -11 L312 -11 Z M108 263 C108 389 192 478 313 478 C422 478 500 405 514 297 C513 286 512 274 512 263 C512 251 513 240 514 229 C500 123 422 49 313 49 C192 49 108 139 108 263 L108 263 Z M583 302 C598 411 684 477 779 477 C874 477 949 410 961 302 L583 302 Z " />
<glyph glyph-name="Racute" unicode="&#x154;" horiz-adv-x="599" d="M87 0 L153 0 L153 318 L226 318 L483 0 L561 0 L300 318 L337 318 C473 318 559 395 559 506 C559 618 474 695 337 695 L87 695 L87 0 Z M153 368 L153 636 L336 636 C436 636 493 581 493 502 C493 423 436 368 336 368 L153 368 Z M176 815 L192 766 L431 853 L413 908 L176 815 Z " />
<glyph glyph-name="racute" unicode="&#x155;" horiz-adv-x="328" d="M76 0 L142 0 L142 326 C142 403 214 475 312 476 L312 538 C234 538 171 494 139 441 L139 527 L76 527 L76 0 Z M75 645 L102 602 L305 720 L274 770 L75 645 Z " />
<glyph glyph-name="uni0156" unicode="&#x156;" horiz-adv-x="599" d="M87 0 L153 0 L153 318 L226 318 L483 0 L561 0 L300 318 L337 318 C473 318 559 395 559 506 C559 618 474 695 337 695 L87 695 L87 0 Z M153 368 L153 636 L336 636 C436 636 493 581 493 502 C493 423 436 368 336 368 L153 368 Z M247 -221 L281 -233 L320 -165 C336 -138 344 -119 344 -98 C344 -69 324 -49 297 -49 C269 -49 248 -69 248 -96 C248 -121 266 -141 288 -144 L285 -151 L247 -221 Z " />
<glyph glyph-name="uni0157" unicode="&#x157;" horiz-adv-x="328" d="M76 0 L142 0 L142 326 C142 403 214 475 312 476 L312 538 C234 538 171 494 139 441 L139 527 L76 527 L76 0 Z M62 -221 L96 -233 L135 -165 C151 -138 159 -119 159 -98 C159 -69 139 -49 112 -49 C84 -49 63 -69 63 -96 C63 -121 81 -141 103 -144 L100 -151 L62 -221 Z " />
<glyph glyph-name="Rcaron" unicode="&#x158;" horiz-adv-x="599" d="M87 0 L153 0 L153 318 L226 318 L483 0 L561 0 L300 318 L337 318 C473 318 559 395 559 506 C559 618 474 695 337 695 L87 695 L87 0 Z M139 902 L268 771 L322 771 L449 902 L385 902 L294 815 L203 902 L139 902 Z M153 368 L153 636 L336 636 C436 636 493 581 493 502 C493 423 436 368 336 368 L153 368 Z " />
<glyph glyph-name="rcaron" unicode="&#x159;" horiz-adv-x="328" d="M76 0 L142 0 L142 326 C142 403 214 475 312 476 L312 538 C234 538 171 494 139 441 L139 527 L76 527 L76 0 Z M29 760 L158 612 L215 612 L343 760 L281 760 L186 654 L91 760 L29 760 Z " />
<glyph glyph-name="Sacute" unicode="&#x15a;" horiz-adv-x="542" d="M264 -11 C400 -11 500 61 500 173 C500 431 120 341 120 526 C120 601 179 648 272 648 C351 648 402 619 444 575 L486 618 C446 665 378 706 275 706 C143 706 53 634 53 523 C53 283 432 374 432 170 C432 95 360 48 267 48 C174 48 110 83 64 138 L19 93 C68 31 148 -11 264 -11 L264 -11 Z M156 815 L172 766 L411 853 L393 908 L156 815 Z " />
<glyph glyph-name="sacute" unicode="&#x15b;" horiz-adv-x="457" d="M238 -11 C363 -11 443 46 443 144 C443 250 349 278 265 302 C192 323 132 339 132 396 C132 445 176 476 245 476 C302 476 345 458 382 415 L430 464 C396 504 335 538 244 538 C130 538 53 476 53 392 C53 292 137 264 218 241 C302 218 364 200 364 139 C364 82 318 51 237 51 C169 51 110 84 76 126 L24 75 C65 28 139 -11 238 -11 L238 -11 Z M130 646 L157 603 L360 721 L329 771 L130 646 Z " />
<glyph glyph-name="Scedilla" unicode="&#x15e;" horiz-adv-x="542" d="M264 -11 L269 -11 L242 -73 L248 -80 L265 -80 C306 -80 334 -107 334 -141 C334 -173 308 -199 267 -199 C232 -199 210 -182 195 -164 L169 -194 C188 -217 222 -240 274 -240 C342 -240 384 -198 384 -145 C384 -96 348 -57 293 -56 L315 -7 C424 8 500 75 500 173 C500 431 120 341 120 526 C120 601 179 648 272 648 C351 648 402 619 444 575 L486 618 C446 665 378 706 275 706 C143 706 53 634 53 523 C53 283 432 374 432 170 C432 95 360 48 267 48 C174 48 110 83 64 138 L19 93 C68 31 148 -11 264 -11 L264 -11 Z " />
<glyph glyph-name="scedilla" unicode="&#x15f;" horiz-adv-x="457" d="M219 -240 C287 -240 329 -198 329 -145 C329 -96 293 -57 238 -56 L258 -10 C372 -5 443 51 443 144 C443 250 349 278 265 302 C192 323 132 339 132 396 C132 445 176 476 245 476 C302 476 345 458 382 415 L430 464 C396 504 335 538 244 538 C130 538 53 476 53 392 C53 292 137 264 218 241 C302 218 364 200 364 139 C364 82 318 51 237 51 C169 51 110 84 76 126 L24 75 C62 32 127 -5 215 -10 L187 -73 L193 -80 L210 -80 C251 -80 279 -107 279 -141 C279 -173 253 -199 212 -199 C177 -199 155 -182 140 -164 L114 -194 C133 -217 167 -240 219 -240 L219 -240 Z " />
<glyph glyph-name="Scaron" unicode="&#x160;" horiz-adv-x="542" d="M264 -11 C400 -11 500 61 500 173 C500 431 120 341 120 526 C120 601 179 648 272 648 C351 648 402 619 444 575 L486 618 C446 665 378 706 275 706 C143 706 53 634 53 523 C53 283 432 374 432 170 C432 95 360 48 267 48 C174 48 110 83 64 138 L19 93 C68 31 148 -11 264 -11 L264 -11 Z M129 902 L258 771 L312 771 L439 902 L375 902 L284 815 L193 902 L129 902 Z " />
<glyph glyph-name="scaron" unicode="&#x161;" horiz-adv-x="457" d="M238 -11 C363 -11 443 46 443 144 C443 250 349 278 265 302 C192 323 132 339 132 396 C132 445 176 476 245 476 C302 476 345 458 382 415 L430 464 C396 504 335 538 244 538 C130 538 53 476 53 392 C53 292 137 264 218 241 C302 218 364 200 364 139 C364 82 318 51 237 51 C169 51 110 84 76 126 L24 75 C65 28 139 -11 238 -11 L238 -11 Z M84 761 L213 613 L270 613 L398 761 L336 761 L241 655 L146 761 L84 761 Z " />
<glyph glyph-name="uni0162" unicode="&#x162;" horiz-adv-x="539" d="M236 0 L249 0 L215 -77 L221 -84 L238 -84 C279 -84 307 -111 307 -145 C307 -177 281 -203 240 -203 C205 -203 183 -186 168 -168 L142 -198 C161 -221 195 -244 247 -244 C315 -244 357 -202 357 -149 C357 -100 321 -61 266 -60 L293 0 L303 0 L303 635 L526 635 L526 695 L13 695 L13 635 L236 635 L236 0 Z " />
<glyph glyph-name="uni0163" unicode="&#x163;" horiz-adv-x="358" d="M278 0 L352 0 L352 59 L289 59 C216 59 177 102 177 177 L177 469 L343 469 L343 527 L178 527 L178 661 L115 661 L115 573 C115 542 101 527 70 527 L12 527 L12 469 L110 469 L110 171 C110 89 145 32 212 10 L179 -65 L185 -72 L202 -72 C243 -72 271 -99 271 -133 C271 -165 245 -191 204 -191 C169 -191 147 -174 132 -156 L106 -186 C125 -209 159 -232 211 -232 C279 -232 321 -190 321 -137 C321 -88 285 -49 230 -48 L252 1 C260 0 269 0 278 0 L278 0 Z " />
<glyph glyph-name="Tcaron" unicode="&#x164;" horiz-adv-x="539" d="M236 0 L303 0 L303 635 L526 635 L526 695 L13 695 L13 635 L236 635 L236 0 Z M115 902 L244 771 L298 771 L425 902 L361 902 L270 815 L179 902 L115 902 Z " />
<glyph glyph-name="tcaron" unicode="&#x165;" horiz-adv-x="358" d="M278 0 L352 0 L352 59 L289 59 C216 59 177 102 177 177 L177 469 L343 469 L343 527 L178 527 L178 661 L115 661 L115 573 C115 542 101 527 70 527 L12 527 L12 469 L110 469 L110 171 C110 65 169 0 278 0 L278 0 Z M288 558 L333 558 L358 776 L308 776 L288 558 Z " />
<glyph glyph-name="Tbar" unicode="&#x166;" horiz-adv-x="549" d="M241 0 L308 0 L308 308 L425 308 L425 356 L308 356 L308 635 L531 635 L531 695 L18 695 L18 635 L241 635 L241 356 L123 356 L123 308 L241 308 L241 0 Z " />
<glyph glyph-name="tbar" unicode="&#x167;" horiz-adv-x="367" d="M284 0 L358 0 L358 59 L295 59 C222 59 183 102 183 177 L183 258 L327 258 L327 306 L183 306 L183 469 L349 469 L349 527 L184 527 L184 661 L121 661 L121 573 C121 542 107 527 76 527 L18 527 L18 469 L116 469 L116 306 L33 306 L33 258 L116 258 L116 171 C116 65 175 0 284 0 L284 0 Z " />
<glyph glyph-name="Utilde" unicode="&#x168;" horiz-adv-x="670" d="M336 -11 C507 -11 591 110 591 254 L591 695 L524 695 L524 255 C524 142 462 52 336 52 C209 52 146 141 146 255 L146 695 L79 695 L79 254 C79 110 163 -11 336 -11 L336 -11 Z M174 801 L223 781 C228 808 246 831 277 831 C325 831 338 779 402 779 C462 779 492 824 502 864 L453 885 C447 857 429 835 398 835 C350 835 335 887 273 887 C214 887 183 840 174 801 L174 801 Z " />
<glyph glyph-name="utilde" unicode="&#x169;" horiz-adv-x="602" d="M281 -11 C366 -11 432 33 464 86 L464 0 L527 0 L527 527 L460 527 L460 190 C459 120 393 49 296 49 C197 48 135 113 135 211 L135 527 L69 527 L69 203 C69 77 146 -11 281 -11 L281 -11 Z M128 656 L176 636 C182 663 200 686 231 686 C277 686 292 634 354 634 C413 634 440 679 449 719 L401 739 C395 712 377 690 346 690 C298 690 283 742 223 742 C165 742 137 695 128 656 L128 656 Z " />
<glyph glyph-name="Umacron" unicode="&#x16a;" horiz-adv-x="670" d="M336 -11 C507 -11 591 110 591 254 L591 695 L524 695 L524 255 C524 142 462 52 336 52 C209 52 146 141 146 255 L146 695 L79 695 L79 254 C79 110 163 -11 336 -11 L336 -11 Z M190 809 L480 809 L480 865 L190 865 L190 809 Z " />
<glyph glyph-name="umacron" unicode="&#x16b;" horiz-adv-x="602" d="M281 -11 C366 -11 432 33 464 86 L464 0 L527 0 L527 527 L460 527 L460 190 C459 120 393 49 296 49 C197 48 135 113 135 211 L135 527 L69 527 L69 203 C69 77 146 -11 281 -11 L281 -11 Z M149 660 L429 660 L429 715 L149 715 L149 660 Z " />
<glyph glyph-name="Uring" unicode="&#x16e;" horiz-adv-x="670" d="M336 -11 C507 -11 591 110 591 254 L591 695 L524 695 L524 255 C524 142 462 52 336 52 C209 52 146 141 146 255 L146 695 L79 695 L79 254 C79 110 163 -11 336 -11 L336 -11 Z M239 818 C239 764 280 724 336 724 C392 724 432 764 432 818 C432 871 392 911 336 911 C280 911 239 871 239 818 L239 818 Z M282 818 C282 847 305 870 336 870 C366 870 389 847 389 818 C389 788 366 765 336 765 C305 765 282 788 282 818 L282 818 Z " />
<glyph glyph-name="uring" unicode="&#x16f;" horiz-adv-x="602" d="M281 -11 C366 -11 432 33 464 86 L464 0 L527 0 L527 527 L460 527 L460 190 C459 120 393 49 296 49 C197 48 135 113 135 211 L135 527 L69 527 L69 203 C69 77 146 -11 281 -11 L281 -11 Z M192 678 C192 624 233 585 289 585 C345 585 386 624 386 678 C386 731 345 771 289 771 C233 771 192 731 192 678 L192 678 Z M235 678 C235 708 258 731 289 731 C320 731 343 708 343 678 C343 648 320 625 289 625 C258 625 235 648 235 678 L235 678 Z " />
<glyph glyph-name="Uhungarumlaut" unicode="&#x170;" horiz-adv-x="670" d="M336 -11 C507 -11 591 110 591 254 L591 695 L524 695 L524 255 C524 142 462 52 336 52 C209 52 146 141 146 255 L146 695 L79 695 L79 254 C79 110 163 -11 336 -11 L336 -11 Z M183 774 L225 744 L340 906 L292 940 L183 774 Z M369 774 L411 744 L526 906 L479 940 L369 774 Z " />
<glyph glyph-name="uhungarumlaut" unicode="&#x171;" horiz-adv-x="602" d="M281 -11 C366 -11 432 33 464 86 L464 0 L527 0 L527 527 L460 527 L460 190 C459 120 393 49 296 49 C197 48 135 113 135 211 L135 527 L69 527 L69 203 C69 77 146 -11 281 -11 L281 -11 Z M146 632 L188 603 L303 750 L255 783 L146 632 Z M325 632 L367 603 L482 750 L434 783 L325 632 Z " />
<glyph glyph-name="Uogonek" unicode="&#x172;" horiz-adv-x="670" d="M336 -11 C350 -11 364 -10 376 -9 C330 -52 309 -87 309 -126 C309 -177 345 -214 402 -214 C439 -214 469 -201 487 -180 L460 -147 C448 -162 431 -168 411 -168 C381 -168 361 -148 361 -117 C361 -89 375 -64 418 -21 L450 11 C544 52 591 147 591 254 L591 695 L524 695 L524 255 C524 142 462 52 336 52 C209 52 146 141 146 255 L146 695 L79 695 L79 254 C79 110 163 -11 336 -11 L336 -11 Z " />
<glyph glyph-name="uogonek" unicode="&#x173;" horiz-adv-x="602" d="M281 -11 C366 -11 432 33 464 86 L464 0 L476 0 L464 -10 C409 -59 385 -96 385 -138 C385 -189 421 -226 478 -226 C515 -226 545 -213 563 -192 L536 -159 C524 -174 507 -180 487 -180 C457 -180 437 -160 437 -129 C437 -101 451 -76 494 -33 L527 0 L527 527 L460 527 L460 190 C459 120 393 49 296 49 C197 48 135 113 135 211 L135 527 L69 527 L69 203 C69 77 146 -11 281 -11 L281 -11 Z " />
<glyph glyph-name="Wcircumflex" unicode="&#x174;" horiz-adv-x="862" d="M188 0 L262 0 L431 603 L599 0 L673 0 L842 695 L776 695 L635 86 L466 695 L395 695 L227 86 L85 695 L20 695 L188 0 Z M277 771 L341 771 L432 858 L523 771 L587 771 L460 902 L406 902 L277 771 Z " />
<glyph glyph-name="wcircumflex" unicode="&#x175;" horiz-adv-x="764" d="M164 0 L243 0 L384 451 L526 0 L604 0 L750 527 L680 527 L561 71 L422 527 L347 527 L206 69 L86 527 L17 527 L164 0 Z M225 613 L287 613 L382 720 L477 613 L539 613 L411 761 L354 761 L225 613 Z " />
<glyph glyph-name="Ycircumflex" unicode="&#x176;" horiz-adv-x="603" d="M268 0 L334 0 L334 286 L595 695 L520 695 L302 343 L84 695 L9 695 L268 288 L268 0 Z M148 771 L212 771 L303 858 L394 771 L458 771 L331 902 L277 902 L148 771 Z " />
<glyph glyph-name="ycircumflex" unicode="&#x177;" horiz-adv-x="536" d="M226 0 L241 0 L164 -179 L230 -179 L526 527 L457 527 L266 59 L80 527 L11 527 L226 0 Z M111 613 L173 613 L268 720 L363 613 L425 613 L297 761 L240 761 L111 613 Z " />
<glyph glyph-name="Ydieresis" unicode="&#x178;" horiz-adv-x="603" d="M268 0 L334 0 L334 286 L595 695 L520 695 L302 343 L84 695 L9 695 L268 288 L268 0 Z M150 837 C150 804 176 781 206 781 C236 781 262 804 262 836 C262 867 237 891 207 891 C176 891 150 868 150 837 L150 837 Z M342 837 C342 804 368 781 398 781 C429 781 454 804 454 836 C454 867 429 891 398 891 C368 891 342 868 342 837 L342 837 Z " />
<glyph glyph-name="Zacute" unicode="&#x179;" horiz-adv-x="540" d="M25 0 L516 0 L516 60 L129 60 L509 695 L35 695 L35 636 L405 636 L25 0 Z M152 815 L168 766 L407 853 L389 908 L152 815 Z " />
<glyph glyph-name="zacute" unicode="&#x17a;" horiz-adv-x="489" d="M22 0 L466 0 L466 55 L130 55 L464 527 L45 527 L45 472 L358 472 L22 0 Z M119 645 L146 602 L349 720 L318 770 L119 645 Z " />
<glyph glyph-name="Zdotaccent" unicode="&#x17b;" horiz-adv-x="540" d="M25 0 L516 0 L516 60 L129 60 L509 695 L35 695 L35 636 L405 636 L25 0 Z M214 837 C214 804 239 781 269 781 C301 781 325 804 325 836 C325 867 301 891 270 891 C239 891 214 868 214 837 L214 837 Z " />
<glyph glyph-name="zdotaccent" unicode="&#x17c;" horiz-adv-x="489" d="M22 0 L466 0 L466 55 L130 55 L464 527 L45 527 L45 472 L358 472 L22 0 Z M171 686 C171 653 197 629 230 629 C263 629 288 653 288 686 C288 720 263 745 230 745 C197 745 171 720 171 686 L171 686 Z " />
<glyph glyph-name="Zcaron" unicode="&#x17d;" horiz-adv-x="540" d="M25 0 L516 0 L516 60 L129 60 L509 695 L35 695 L35 636 L405 636 L25 0 Z M115 902 L244 771 L298 771 L425 902 L361 902 L270 815 L179 902 L115 902 Z " />
<glyph glyph-name="zcaron" unicode="&#x17e;" horiz-adv-x="489" d="M22 0 L466 0 L466 55 L130 55 L464 527 L45 527 L45 472 L358 472 L22 0 Z M73 760 L202 612 L259 612 L387 760 L325 760 L230 654 L135 760 L73 760 Z " />
<glyph glyph-name="florin" unicode="&#x192;" horiz-adv-x="598" d="M143 423 L282 423 L239 82 C229 1 196 -46 122 -46 L58 -46 L58 -100 L132 -100 C241 -100 289 -35 303 73 L346 423 L499 423 L499 480 L353 480 L357 513 C368 598 403 641 475 641 L538 641 L538 695 L464 695 C361 695 308 631 294 522 L289 480 L143 480 L143 423 Z " />
<glyph glyph-name="uni01EA" unicode="&#x1ea;" horiz-adv-x="787" d="M394 -11 C406 -11 418 -10 430 -9 C379 -56 356 -92 356 -133 C356 -184 392 -221 449 -221 C486 -221 516 -208 534 -187 L507 -154 C495 -169 478 -175 458 -175 C428 -175 408 -155 408 -124 C408 -96 422 -71 465 -28 L496 3 C640 46 740 177 740 347 C740 556 591 706 394 706 C195 706 46 556 46 347 C46 139 195 -11 394 -11 L394 -11 Z M114 347 C114 521 231 643 394 643 C555 643 672 521 672 347 C672 174 554 52 394 52 C232 52 114 174 114 347 L114 347 Z " />
<glyph glyph-name="uni01EB" unicode="&#x1eb;" horiz-adv-x="624" d="M312 -11 C319 -11 326 -11 333 -10 C280 -58 257 -95 257 -136 C257 -187 293 -224 350 -224 C387 -224 417 -211 435 -190 L408 -157 C396 -172 379 -178 359 -178 C329 -178 309 -158 309 -127 C309 -99 323 -74 366 -31 L399 2 C510 36 583 137 583 263 C583 421 470 538 312 538 C154 538 41 421 41 263 C41 106 154 -11 312 -11 L312 -11 Z M108 263 C108 389 192 478 313 478 C433 478 516 389 516 263 C516 139 433 49 313 49 C192 49 108 139 108 263 L108 263 Z " />
<glyph glyph-name="AEacute" unicode="&#x1fc;" horiz-adv-x="918" d="M-12 0 L59 0 L181 212 L449 212 L449 0 L879 0 L879 59 L516 59 L516 332 L840 332 L840 391 L516 391 L516 636 L873 636 L873 695 L382 695 L-12 0 Z M213 269 L424 636 L449 636 L449 269 L213 269 Z M487 815 L503 766 L742 853 L724 908 L487 815 Z " />
<glyph glyph-name="aeacute" unicode="&#x1fd;" horiz-adv-x="1067" d="M300 -11 C394 -11 468 37 508 114 L508 0 L570 0 L570 118 C612 37 692 -11 792 -11 C905 -11 967 36 1013 87 L972 128 C929 80 881 43 787 43 C669 43 587 125 579 245 L1026 245 C1027 252 1027 264 1027 275 C1027 421 931 538 780 538 C687 538 611 486 570 406 L570 527 L508 527 L508 414 C468 490 394 538 300 538 C152 538 42 420 42 264 C42 106 151 -11 300 -11 L300 -11 Z M108 264 C108 386 193 479 307 479 C425 479 506 390 506 264 C506 137 424 48 307 48 C192 48 108 140 108 264 L108 264 Z M429 646 L456 603 L659 721 L628 771 L429 646 Z M579 289 C589 405 668 487 777 487 C887 487 961 406 967 289 L579 289 Z " />
<glyph glyph-name="Oslashacute" unicode="&#x1fe;" horiz-adv-x="790" d="M396 -11 C593 -11 742 139 742 347 C742 444 710 529 655 591 L725 668 L685 707 L615 630 C556 678 481 706 396 706 C197 706 48 556 48 347 C48 250 80 166 135 104 L65 27 L105 -12 L175 65 C234 17 310 -11 396 -11 L396 -11 Z M116 347 C116 521 233 643 396 643 C464 643 525 621 572 583 L180 153 C139 203 116 270 116 347 L116 347 Z M219 113 L611 543 C651 492 674 425 674 347 C674 174 556 52 396 52 C327 52 266 74 219 113 L219 113 Z M278 815 L294 766 L533 853 L515 908 L278 815 Z " />
<glyph glyph-name="oslashacute" unicode="&#x1ff;" horiz-adv-x="641" d="M320 -11 C478 -11 591 106 591 263 C591 325 574 381 543 426 L609 484 L577 521 L511 463 C463 510 397 538 320 538 C162 538 49 421 49 263 C49 201 67 145 98 100 L33 43 L66 5 L131 62 C178 16 244 -11 320 -11 L320 -11 Z M116 263 C116 389 200 478 321 478 C379 478 428 457 464 422 L147 143 C127 177 116 218 116 263 L116 263 Z M178 104 L494 382 C513 349 524 308 524 263 C524 139 441 49 321 49 C263 49 214 69 178 104 L178 104 Z M211 645 L238 602 L441 720 L410 770 L211 645 Z " />
<glyph glyph-name="uni0218" unicode="&#x218;" horiz-adv-x="542" d="M264 -11 C400 -11 500 61 500 173 C500 431 120 341 120 526 C120 601 179 648 272 648 C351 648 402 619 444 575 L486 618 C446 665 378 706 275 706 C143 706 53 634 53 523 C53 283 432 374 432 170 C432 95 360 48 267 48 C174 48 110 83 64 138 L19 93 C68 31 148 -11 264 -11 L264 -11 Z M240 -221 L274 -233 L313 -165 C329 -138 337 -119 337 -98 C337 -69 317 -49 290 -49 C262 -49 241 -69 241 -96 C241 -121 259 -141 281 -144 L278 -151 L240 -221 Z " />
<glyph glyph-name="uni0219" unicode="&#x219;" horiz-adv-x="457" d="M238 -11 C363 -11 443 46 443 144 C443 250 349 278 265 302 C192 323 132 339 132 396 C132 445 176 476 245 476 C302 476 345 458 382 415 L430 464 C396 504 335 538 244 538 C130 538 53 476 53 392 C53 292 137 264 218 241 C302 218 364 200 364 139 C364 82 318 51 237 51 C169 51 110 84 76 126 L24 75 C65 28 139 -11 238 -11 L238 -11 Z M201 -221 L235 -233 L274 -165 C290 -138 298 -119 298 -98 C298 -69 278 -49 251 -49 C223 -49 202 -69 202 -96 C202 -121 220 -141 242 -144 L239 -151 L201 -221 Z " />
<glyph glyph-name="uni021A" unicode="&#x21a;" horiz-adv-x="539" d="M236 0 L303 0 L303 635 L526 635 L526 695 L13 695 L13 635 L236 635 L236 0 Z M221 -221 L255 -233 L294 -165 C310 -138 318 -119 318 -98 C318 -69 298 -49 271 -49 C243 -49 222 -69 222 -96 C222 -121 240 -141 262 -144 L259 -151 L221 -221 Z " />
<glyph glyph-name="uni021B" unicode="&#x21b;" horiz-adv-x="358" d="M278 0 L352 0 L352 59 L289 59 C216 59 177 102 177 177 L177 469 L343 469 L343 527 L178 527 L178 661 L115 661 L115 573 C115 542 101 527 70 527 L12 527 L12 469 L110 469 L110 171 C110 65 169 0 278 0 L278 0 Z M190 -213 L224 -225 L263 -157 C279 -130 287 -111 287 -90 C287 -61 267 -41 240 -41 C212 -41 191 -61 191 -88 C191 -113 209 -133 231 -136 L228 -143 L190 -213 Z " />
<glyph glyph-name="uni0237" unicode="&#x237;" horiz-adv-x="219" d="M-50 -181 L-34 -181 C71 -181 143 -109 143 3 L143 527 L77 527 L77 2 C77 -72 31 -123 -39 -123 L-50 -123 L-50 -181 Z " />
<glyph glyph-name="circumflex" unicode="&#x2c6;" horiz-adv-x="325" d="M30 613 L92 613 L187 720 L282 613 L344 613 L216 761 L159 761 L30 613 Z " />
<glyph glyph-name="caron" unicode="&#x2c7;" horiz-adv-x="349" d="M159 613 L216 613 L344 761 L282 761 L187 655 L92 761 L30 761 L159 613 Z " />
<glyph glyph-name="breve" unicode="&#x2d8;" horiz-adv-x="312" d="M174 613 C260 613 317 674 317 761 L263 761 C263 702 226 665 174 665 C121 665 84 702 84 761 L30 761 C30 674 87 613 174 613 L174 613 Z " />
<glyph glyph-name="dotaccent" unicode="&#x2d9;" horiz-adv-x="132" d="M89 630 C122 630 147 654 147 687 C147 721 122 746 89 746 C56 746 30 721 30 687 C30 654 56 630 89 630 L89 630 Z " />
<glyph glyph-name="ring" unicode="&#x2da;" horiz-adv-x="207" d="M127 585 C183 585 224 624 224 678 C224 731 183 771 127 771 C71 771 30 731 30 678 C30 624 71 585 127 585 L127 585 Z M73 678 C73 708 96 731 127 731 C158 731 181 708 181 678 C181 648 158 625 127 625 C96 625 73 648 73 678 L73 678 Z " />
<glyph glyph-name="ogonek" unicode="&#x2db;" horiz-adv-x="238" d="M123 -225 C160 -225 190 -212 208 -191 L181 -158 C169 -173 152 -179 132 -179 C102 -179 82 -159 82 -128 C82 -100 96 -75 139 -32 L172 1 L146 22 L109 -9 C54 -58 30 -95 30 -137 C30 -188 66 -225 123 -225 L123 -225 Z " />
<glyph glyph-name="tilde" unicode="&#x2dc;" horiz-adv-x="391" d="M256 634 C315 634 342 679 351 719 L303 739 C297 712 279 690 248 690 C200 690 185 742 125 742 C67 742 39 695 30 656 L78 636 C84 663 102 686 133 686 C179 686 194 634 256 634 L256 634 Z " />
<glyph glyph-name="hungarumlaut" unicode="&#x2dd;" horiz-adv-x="310" d="M242 603 L357 750 L309 783 L200 632 L242 603 Z M21 632 L63 603 L178 750 L130 783 L21 632 Z " />
<glyph glyph-name="gravecomb" unicode="&#x300;" d="M233 603 L260 646 L61 771 L30 721 L233 603 Z " />
<glyph glyph-name="acutecomb" unicode="&#x301;" d="M57 603 L260 721 L229 771 L30 646 L57 603 Z " />
<glyph glyph-name="uni0302" unicode="&#x302;" d="M30 613 L92 613 L187 720 L282 613 L344 613 L216 761 L159 761 L30 613 Z " />
<glyph glyph-name="tildecomb" unicode="&#x303;" d="M256 634 C315 634 342 679 351 719 L303 739 C297 712 279 690 248 690 C200 690 185 742 125 742 C67 742 39 695 30 656 L78 636 C84 663 102 686 133 686 C179 686 194 634 256 634 L256 634 Z " />
<glyph glyph-name="uni0304" unicode="&#x304;" d="M30 660 L310 660 L310 715 L30 715 L30 660 Z " />
<glyph glyph-name="uni0306" unicode="&#x306;" d="M174 613 C260 613 317 674 317 761 L263 761 C263 702 226 665 174 665 C121 665 84 702 84 761 L30 761 C30 674 87 613 174 613 L174 613 Z " />
<glyph glyph-name="uni0307" unicode="&#x307;" d="M89 630 C122 630 147 654 147 687 C147 721 122 746 89 746 C56 746 30 721 30 687 C30 654 56 630 89 630 L89 630 Z " />
<glyph glyph-name="uni0308" unicode="&#x308;" d="M272 632 C303 632 329 656 329 687 C329 718 304 743 273 743 C243 743 217 719 217 688 C217 656 243 632 272 632 L272 632 Z M30 688 C30 656 56 632 86 632 C117 632 142 656 142 687 C142 718 117 743 87 743 C56 743 30 719 30 688 L30 688 Z " />
<glyph glyph-name="uni030A" unicode="&#x30a;" d="M127 585 C183 585 224 624 224 678 C224 731 183 771 127 771 C71 771 30 731 30 678 C30 624 71 585 127 585 L127 585 Z M73 678 C73 708 96 731 127 731 C158 731 181 708 181 678 C181 648 158 625 127 625 C96 625 73 648 73 678 L73 678 Z " />
<glyph glyph-name="uni030B" unicode="&#x30b;" d="M251 603 L366 750 L318 783 L209 632 L251 603 Z M30 632 L72 603 L187 750 L139 783 L30 632 Z " />
<glyph glyph-name="uni030C" unicode="&#x30c;" d="M159 613 L216 613 L344 761 L282 761 L187 655 L92 761 L30 761 L159 613 Z " />
<glyph glyph-name="uni0326" unicode="&#x326;" d="M63 -233 L102 -165 C118 -138 126 -119 126 -98 C126 -69 106 -49 79 -49 C51 -49 30 -69 30 -96 C30 -121 48 -141 70 -144 L67 -151 L29 -221 L63 -233 Z " />
<glyph glyph-name="uni0327" unicode="&#x327;" d="M135 -240 C203 -240 245 -198 245 -145 C245 -96 209 -57 154 -56 L183 9 L139 9 L103 -73 L109 -80 L126 -80 C167 -80 195 -107 195 -141 C195 -173 169 -199 128 -199 C93 -199 71 -182 56 -164 L30 -194 C49 -217 83 -240 135 -240 L135 -240 Z " />
<glyph glyph-name="uni0328" unicode="&#x328;" d="M123 -225 C160 -225 190 -212 208 -191 L181 -158 C169 -173 152 -179 132 -179 C102 -179 82 -159 82 -128 C82 -100 96 -75 139 -32 L172 1 L146 22 L109 -9 C54 -58 30 -95 30 -137 C30 -188 66 -225 123 -225 L123 -225 Z " />
<glyph glyph-name="uni0335" unicode="&#x335;" d="M30 245 L332 245 L332 293 L30 293 L30 245 Z " />
<glyph glyph-name="uni0336" unicode="&#x336;" d="M30 281 L672 281 L672 335 L30 335 L30 281 Z " />
<glyph glyph-name="uni0337" unicode="&#x337;" d="M70 175 L327 323 L302 365 L44 218 L70 175 Z " />
<glyph glyph-name="uni0338" unicode="&#x338;" d="M63 -3 L606 476 L574 513 L30 35 L63 -3 Z " />
<glyph glyph-name="Wgrave" unicode="&#x1e80;" horiz-adv-x="862" d="M188 0 L262 0 L431 603 L599 0 L673 0 L842 695 L776 695 L635 86 L466 695 L395 695 L227 86 L85 695 L20 695 L188 0 Z M304 853 L543 766 L559 815 L322 908 L304 853 Z " />
<glyph glyph-name="wgrave" unicode="&#x1e81;" horiz-adv-x="764" d="M164 0 L243 0 L384 451 L526 0 L604 0 L750 527 L680 527 L561 71 L422 527 L347 527 L206 69 L86 527 L17 527 L164 0 Z M255 721 L458 603 L485 646 L286 771 L255 721 Z " />
<glyph glyph-name="Wacute" unicode="&#x1e82;" horiz-adv-x="862" d="M188 0 L262 0 L431 603 L599 0 L673 0 L842 695 L776 695 L635 86 L466 695 L395 695 L227 86 L85 695 L20 695 L188 0 Z M314 815 L330 766 L569 853 L551 908 L314 815 Z " />
<glyph glyph-name="wacute" unicode="&#x1e83;" horiz-adv-x="764" d="M164 0 L243 0 L384 451 L526 0 L604 0 L750 527 L680 527 L561 71 L422 527 L347 527 L206 69 L86 527 L17 527 L164 0 Z M271 646 L298 603 L501 721 L470 771 L271 646 Z " />
<glyph glyph-name="Wdieresis" unicode="&#x1e84;" horiz-adv-x="862" d="M188 0 L262 0 L431 603 L599 0 L673 0 L842 695 L776 695 L635 86 L466 695 L395 695 L227 86 L85 695 L20 695 L188 0 Z M279 837 C279 804 305 781 335 781 C365 781 391 804 391 836 C391 867 366 891 336 891 C305 891 279 868 279 837 L279 837 Z M471 837 C471 804 497 781 527 781 C558 781 583 804 583 836 C583 867 558 891 527 891 C497 891 471 868 471 837 L471 837 Z " />
<glyph glyph-name="wdieresis" unicode="&#x1e85;" horiz-adv-x="764" d="M164 0 L243 0 L384 451 L526 0 L604 0 L750 527 L680 527 L561 71 L422 527 L347 527 L206 69 L86 527 L17 527 L164 0 Z M232 688 C232 656 258 632 288 632 C319 632 344 656 344 687 C344 718 319 743 289 743 C258 743 232 719 232 688 L232 688 Z M419 688 C419 656 445 632 474 632 C505 632 531 656 531 687 C531 718 506 743 475 743 C445 743 419 719 419 688 L419 688 Z " />
<glyph glyph-name="uni1E9E" unicode="&#x1e9e;" horiz-adv-x="636" d="M379 -11 C504 -11 591 63 591 184 C591 292 519 366 408 377 L565 557 C529 647 458 706 326 706 C180 706 79 616 79 467 L79 0 L146 0 L146 469 C146 580 218 647 327 647 C417 647 466 612 495 558 L333 372 L333 334 L362 334 C463 334 524 276 524 188 C524 100 461 45 370 45 C304 45 258 59 206 89 L206 29 C256 3 303 -11 379 -11 L379 -11 Z " />
<glyph glyph-name="Ygrave" unicode="&#x1ef2;" horiz-adv-x="603" d="M268 0 L334 0 L334 286 L595 695 L520 695 L302 343 L84 695 L9 695 L268 288 L268 0 Z M175 853 L414 766 L430 815 L193 908 L175 853 Z " />
<glyph glyph-name="ygrave" unicode="&#x1ef3;" horiz-adv-x="536" d="M226 0 L241 0 L164 -179 L230 -179 L526 527 L457 527 L266 59 L80 527 L11 527 L226 0 Z M142 721 L345 603 L372 646 L173 771 L142 721 Z " />
<glyph glyph-name="uni1EF8" unicode="&#x1ef8;" horiz-adv-x="603" d="M268 0 L334 0 L334 286 L595 695 L520 695 L302 343 L84 695 L9 695 L268 288 L268 0 Z M141 801 L190 781 C195 808 213 831 244 831 C292 831 305 779 369 779 C429 779 459 824 469 864 L420 885 C414 857 396 835 365 835 C317 835 302 887 240 887 C181 887 150 840 141 801 L141 801 Z " />
<glyph glyph-name="uni1EF9" unicode="&#x1ef9;" horiz-adv-x="536" d="M226 0 L241 0 L164 -179 L230 -179 L526 527 L457 527 L266 59 L80 527 L11 527 L226 0 Z M107 656 L155 636 C161 663 179 686 210 686 C256 686 271 634 333 634 C392 634 419 679 428 719 L380 739 C374 712 356 690 325 690 C277 690 262 742 202 742 C144 742 116 695 107 656 L107 656 Z " />
<glyph glyph-name="endash" unicode="&#x2013;" horiz-adv-x="522" d="M63 280 L459 280 L459 335 L63 335 L63 280 Z " />
<glyph glyph-name="emdash" unicode="&#x2014;" horiz-adv-x="791" d="M63 280 L728 280 L728 335 L63 335 L63 280 Z " />
<glyph glyph-name="quoteleft" unicode="&#x2018;" horiz-adv-x="189" d="M92 518 C120 518 142 539 142 569 C142 597 123 615 98 617 L144 715 L101 715 L59 627 C47 602 42 586 42 570 C42 539 64 518 92 518 L92 518 Z " />
<glyph glyph-name="quoteright" unicode="&#x2019;" horiz-adv-x="187" d="M50 521 L93 521 L135 609 C147 634 151 649 151 666 C151 696 129 718 101 718 C73 718 51 696 51 667 C51 639 70 621 96 619 L50 521 Z " />
<glyph glyph-name="quotesinglbase" unicode="&#x201a;" horiz-adv-x="190" d="M44 -108 L87 -108 L129 -20 C141 5 146 21 146 37 C146 68 124 89 96 89 C68 89 46 68 46 38 C46 10 65 -8 90 -10 L44 -108 Z " />
<glyph glyph-name="quotedblleft" unicode="&#x201c;" horiz-adv-x="326" d="M229 518 C258 518 279 539 279 569 C279 597 260 615 235 617 L281 715 L238 715 L196 627 C184 602 180 586 180 570 C180 539 201 518 229 518 L229 518 Z M42 570 C42 539 64 518 92 518 C120 518 142 539 142 569 C142 597 123 615 98 617 L144 715 L101 715 L59 627 C47 602 42 586 42 570 L42 570 Z " />
<glyph glyph-name="quotedblright" unicode="&#x201d;" horiz-adv-x="324" d="M187 521 L230 521 L272 609 C284 634 288 649 288 666 C288 696 267 718 238 718 C210 718 189 696 189 667 C189 639 208 621 233 619 L187 521 Z M50 521 L93 521 L135 609 C147 634 151 649 151 666 C151 696 129 718 101 718 C73 718 51 696 51 667 C51 639 70 621 96 619 L50 521 Z " />
<glyph glyph-name="quotedblbase" unicode="&#x201e;" horiz-adv-x="327" d="M181 -108 L225 -108 L266 -20 C278 5 283 21 283 37 C283 68 261 89 233 89 C205 89 183 68 183 38 C183 10 202 -8 227 -10 L181 -108 Z M44 -108 L87 -108 L129 -20 C141 5 146 21 146 37 C146 68 124 89 96 89 C68 89 46 68 46 38 C46 10 65 -8 90 -10 L44 -108 Z " />
<glyph glyph-name="dagger" unicode="&#x2020;" horiz-adv-x="330" d="M138 311 L192 311 L192 579 L285 579 L285 628 L192 628 L192 731 L138 731 L138 628 L45 628 L45 579 L138 579 L138 311 Z " />
<glyph glyph-name="daggerdbl" unicode="&#x2021;" horiz-adv-x="349" d="M147 311 L201 311 L201 401 L294 401 L294 450 L201 450 L201 592 L294 592 L294 641 L201 641 L201 731 L147 731 L147 641 L55 641 L55 592 L147 592 L147 450 L55 450 L55 401 L147 401 L147 311 Z " />
<glyph glyph-name="bullet" unicode="&#x2022;" horiz-adv-x="345" d="M173 248 C225 248 265 289 265 340 C265 393 225 434 173 434 C121 434 80 393 80 340 C80 289 121 248 173 248 L173 248 Z " />
<glyph glyph-name="ellipsis" unicode="&#x2026;" horiz-adv-x="553" d="M454 -9 C482 -9 504 12 504 40 C504 70 482 91 454 91 C425 91 404 70 404 40 C404 12 425 -9 454 -9 L454 -9 Z M49 40 C49 12 71 -9 99 -9 C128 -9 150 12 150 40 C150 70 128 91 99 91 C71 91 49 70 49 40 L49 40 Z M227 40 C227 12 248 -9 277 -9 C305 -9 327 12 327 40 C327 70 305 91 277 91 C248 91 227 70 227 40 L227 40 Z " />
<glyph glyph-name="perthousand" unicode="&#x2030;" horiz-adv-x="1061" d="M133 0 L188 0 L594 695 L539 695 L133 0 Z M29 542 C29 453 94 384 184 384 C274 384 338 453 338 542 C338 630 274 701 184 701 C94 701 29 630 29 542 L29 542 Z M75 543 C75 605 121 657 184 657 C245 657 292 605 292 543 C292 478 245 429 184 429 C122 429 75 478 75 543 L75 543 Z M391 152 C391 63 456 -6 545 -6 C635 -6 699 63 699 152 C699 240 635 311 545 311 C456 311 391 240 391 152 L391 152 Z M437 153 C437 214 483 266 545 266 C606 266 653 214 653 153 C653 87 606 38 545 38 C483 38 437 87 437 153 L437 153 Z M725 152 C725 63 790 -6 880 -6 C970 -6 1034 63 1034 152 C1034 240 970 311 880 311 C790 311 725 240 725 152 L725 152 Z M771 153 C771 214 817 266 880 266 C941 266 987 214 987 153 C987 87 941 38 880 38 C818 38 771 87 771 153 L771 153 Z " />
<glyph glyph-name="guilsinglleft" unicode="&#x2039;" horiz-adv-x="272" d="M148 85 L213 85 L105 251 L213 417 L148 417 L40 251 L148 85 Z " />
<glyph glyph-name="guilsinglright" unicode="&#x203a;" horiz-adv-x="272" d="M58 85 L123 85 L232 251 L123 417 L58 417 L167 251 L58 85 Z " />
<glyph glyph-name="fraction" unicode="&#x2044;" horiz-adv-x="415" d="M-10 0 L44 0 L430 695 L376 695 L-10 0 Z " />
<glyph glyph-name="uni2074" unicode="&#x2074;" horiz-adv-x="326" d="M27 429 L198 429 L198 347 L244 347 L244 429 L286 429 L286 464 L244 464 L244 695 L198 695 L27 462 L27 429 Z M70 464 L198 639 L198 464 L70 464 Z " />
<glyph glyph-name="colonmonetary" unicode="&#x20a1;" horiz-adv-x="598" d="M136 -99 L196 -99 L217 20 C241 6 268 -3 296 -7 L280 -99 L340 -99 L356 -11 C443 -7 505 33 555 95 L511 139 C477 96 431 61 367 53 L464 605 C481 592 497 576 512 558 L556 602 C533 629 506 652 475 670 L497 794 L438 794 L420 694 C396 702 370 706 341 706 L338 706 L353 794 L294 794 L277 699 C143 666 58 530 58 347 C58 224 97 121 164 58 L136 -99 Z M126 347 C126 484 178 589 264 627 L179 143 C145 194 126 265 126 347 L126 347 Z M229 89 L326 642 C331 643 337 643 342 643 C367 643 389 639 409 633 L307 55 C278 60 252 72 229 89 L229 89 Z " />
<glyph glyph-name="franc" unicode="&#x20a3;" horiz-adv-x="598" d="M146 0 L212 0 L212 140 L452 140 L452 197 L212 197 L212 333 L509 333 L509 392 L212 392 L212 636 L543 636 L543 695 L146 695 L146 197 L61 197 L61 140 L146 140 L146 0 Z " />
<glyph glyph-name="lira" unicode="&#x20a4;" horiz-adv-x="598" d="M142 0 L552 0 L552 59 L209 59 L209 224 L436 224 L436 270 L209 270 L209 368 L436 368 L436 414 L209 414 L209 496 C209 577 265 647 362 647 C431 647 471 617 502 585 L548 626 C513 668 455 706 360 706 C230 706 142 610 142 496 L142 414 L58 414 L58 368 L142 368 L142 270 L58 270 L58 224 L142 224 L142 0 Z " />
<glyph glyph-name="peseta" unicode="&#x20a7;" horiz-adv-x="598" d="M107 0 L173 0 L173 300 L306 300 C430 300 512 365 526 467 L595 467 L595 526 L526 526 C514 630 432 695 306 695 L107 695 L107 526 L22 526 L22 467 L107 467 L107 0 Z M173 360 L173 467 L457 467 C445 402 391 360 303 360 L173 360 Z M173 526 L173 636 L303 636 C392 636 446 592 458 526 L173 526 Z " />
<glyph glyph-name="Euro" unicode="&#x20ac;" horiz-adv-x="598" d="M371 -11 C469 -11 536 32 580 102 L533 144 C499 87 449 52 372 52 C263 52 186 126 162 255 L369 255 L372 300 L156 300 C155 315 154 331 154 348 C154 366 155 383 156 399 L384 399 L389 444 L163 444 C187 570 263 643 368 643 C443 643 499 608 533 553 L579 596 C531 664 462 706 367 706 C225 706 123 602 94 444 L38 444 L34 399 L88 399 C87 382 86 365 86 348 C86 332 87 316 88 300 L23 300 L19 255 L94 255 C122 95 225 -11 371 -11 L371 -11 Z " />
<glyph glyph-name="uni20B1" unicode="&#x20b1;" horiz-adv-x="598" d="M107 0 L173 0 L173 300 L306 300 C401 300 472 338 506 402 L595 402 L595 461 L525 461 C527 473 528 485 528 498 C528 510 527 522 525 534 L595 534 L595 593 L506 593 C473 657 402 695 306 695 L107 695 L107 593 L22 593 L22 534 L107 534 L107 461 L22 461 L22 402 L107 402 L107 0 Z M173 360 L173 402 L424 402 C397 375 356 360 303 360 L173 360 Z M173 461 L173 534 L456 534 C459 523 460 511 460 498 C460 485 459 473 456 461 L173 461 Z M173 593 L173 636 L303 636 C357 636 398 620 424 593 L173 593 Z " />
<glyph glyph-name="uni20B5" unicode="&#x20b5;" horiz-adv-x="598" d="M317 -99 L372 -99 L372 -10 C452 -2 509 35 556 89 L511 134 C469 82 418 52 345 52 C212 52 129 173 129 347 C129 522 214 643 345 643 C417 643 468 612 509 561 L553 605 C507 663 446 698 370 705 L370 794 L315 794 L315 705 C161 689 61 546 61 347 C61 148 162 5 317 -10 L317 -99 Z " />
<glyph glyph-name="uni20B9" unicode="&#x20b9;" horiz-adv-x="598" d="M57 309 L397 0 L491 0 L151 309 L272 309 C395 309 478 373 491 473 L561 473 L561 532 L491 532 C485 574 468 609 440 636 L561 636 L561 695 L57 695 L57 636 L269 636 C357 636 410 595 422 532 L57 532 L57 473 L422 473 C410 410 357 369 269 369 L57 369 L57 309 Z " />
<glyph glyph-name="uni20BD" unicode="&#x20bd;" horiz-adv-x="598" d="M139 0 L206 0 L206 145 L445 145 L445 201 L206 201 L206 300 L341 300 C477 300 563 378 563 498 C563 618 478 695 341 695 L139 695 L139 360 L55 360 L55 300 L139 300 L139 201 L55 201 L55 145 L139 145 L139 0 Z M206 360 L206 636 L338 636 C439 636 495 580 495 498 C495 415 439 360 338 360 L206 360 Z " />
<glyph glyph-name="trademark" unicode="&#x2122;" horiz-adv-x="592" d="M374 431 L407 431 L477 622 L490 422 L526 422 L507 679 L465 679 L391 475 L316 679 L273 679 L256 422 L291 422 L305 621 L374 431 Z M29 645 L109 645 L109 422 L146 422 L146 645 L227 645 L227 679 L29 679 L29 645 Z " />
<glyph glyph-name="minus" unicode="&#x2212;" horiz-adv-x="550" d="M67 278 L483 278 L483 337 L67 337 L67 278 Z " />
<glyph glyph-name="infinity" unicode="&#x221e;" horiz-adv-x="2879" d="M100 -175 L235 -175 L235 62 C272 14 328 -17 406 -17 C547 -17 664 105 664 263 C664 419 547 540 406 540 C328 540 272 512 235 464 L235 527 L100 527 L100 -175 Z M235 263 C235 352 298 412 380 412 C464 412 526 352 526 263 C526 175 464 115 380 115 C298 115 235 175 235 263 L235 263 Z M694 263 C694 105 810 -17 948 -17 C1024 -17 1082 15 1120 62 L1120 -1 L1171 -1 L1255 81 L1255 527 L1120 527 L1120 464 C1082 512 1024 540 948 540 C810 540 694 419 694 263 L694 263 Z M829 263 C829 352 891 412 973 412 C1058 412 1120 352 1120 263 C1120 175 1058 115 973 115 C891 115 829 175 829 263 L829 263 Z M1242 -1 L1956 -1 C1914 30 1881 75 1862 127 L1560 127 L1950 527 L1334 527 L1334 396 L1636 396 L1242 -1 Z M1892 263 C1892 105 2005 -17 2179 -17 C2281 -17 2360 26 2409 97 L2300 162 C2276 130 2235 108 2182 108 C2112 108 2054 138 2035 206 L2429 206 C2433 224 2434 243 2434 263 C2434 419 2326 540 2170 540 C2006 540 1892 419 1892 263 L1892 263 Z M2033 311 C2048 381 2098 419 2170 419 C2226 419 2283 388 2300 311 L2033 311 Z M2474 406 C2474 319 2539 253 2626 253 C2713 253 2779 319 2779 406 C2779 493 2713 558 2626 558 C2539 558 2474 493 2474 406 L2474 406 Z M2506 406 C2506 476 2556 528 2626 528 C2698 528 2747 476 2747 406 C2747 334 2698 283 2626 283 C2556 283 2506 334 2506 406 L2506 406 Z M2568 319 L2597 319 L2597 392 L2622 392 L2670 319 L2702 319 L2651 393 C2673 396 2698 410 2698 445 C2698 480 2667 494 2636 494 L2568 494 L2568 319 Z M2597 416 L2597 470 L2630 470 C2651 470 2668 464 2668 445 C2668 420 2651 416 2630 416 L2597 416 Z " />
<glyph glyph-name="approxequal" unicode="&#x2248;" horiz-adv-x="531" d="M357 340 C407 340 448 364 468 400 L433 436 C419 412 385 398 350 398 C283 398 255 453 175 453 C125 453 85 429 64 393 L99 357 C113 381 147 395 182 395 C249 395 278 340 357 340 L357 340 Z M63 179 L99 143 C112 168 147 182 181 182 C248 182 277 127 357 127 C407 127 447 150 467 187 L432 223 C418 198 384 184 350 184 C283 184 254 239 174 239 C124 239 84 216 63 179 L63 179 Z " />
<glyph glyph-name="notequal" unicode="&#x2260;" horiz-adv-x="551" d="M152 13 L215 13 L257 145 L483 145 L483 204 L275 204 L331 380 L483 380 L483 439 L350 439 L391 569 L329 569 L288 439 L68 439 L68 380 L269 380 L213 204 L68 204 L68 145 L194 145 L152 13 Z " />
<glyph glyph-name="lozenge" unicode="&#x25ca;" horiz-adv-x="593" d="M376 431 L408 431 L478 623 L492 422 L528 422 L509 679 L466 679 L393 475 L318 679 L274 679 L258 422 L292 422 L307 621 L376 431 Z M33 456 C53 433 82 418 128 418 C181 418 217 445 217 489 C217 583 81 557 81 616 C81 640 101 653 130 653 C155 653 174 644 189 629 L211 651 C196 668 170 683 132 683 C81 683 46 656 46 616 C46 526 182 554 182 488 C182 461 158 448 130 448 C100 448 75 458 56 480 L33 456 Z " />
<glyph glyph-name="uniF8FF" unicode="&#xf8ff;" horiz-adv-x="2534" d="M1120 263 C1120 352 1058 412 973 412 C891 412 829 352 829 263 C829 175 891 115 973 115 C1058 115 1120 175 1120 263 L1120 263 Z M100 -175 L235 -175 L235 62 C272 14 328 -17 406 -17 C547 -17 664 105 664 263 C664 419 547 540 406 540 C328 540 272 512 235 464 L235 527 L100 527 L100 -175 Z M235 263 C235 352 298 412 380 412 C464 412 526 352 526 263 C526 175 464 115 380 115 C298 115 235 175 235 263 L235 263 Z M694 263 C694 419 810 540 948 540 C1024 540 1082 512 1120 464 L1120 527 L1255 527 L1255 81 L1171 -1 L1120 -1 L1120 62 C1082 15 1024 -17 948 -17 C810 -17 694 105 694 263 L694 263 Z M1242 -1 L1636 396 L1334 396 L1334 527 L1950 527 L1560 127 L1862 127 C1881 75 1914 30 1956 -1 L1242 -1 Z M1892 263 C1892 105 2005 -17 2179 -17 C2281 -17 2360 26 2409 97 L2300 162 C2276 130 2235 108 2182 108 C2112 108 2054 138 2035 206 L2429 206 C2433 224 2434 243 2434 263 C2434 419 2326 540 2170 540 C2006 540 1892 419 1892 263 L1892 263 Z M2033 311 C2048 381 2098 419 2170 419 C2226 419 2283 388 2300 311 L2033 311 Z " />
</font>
</svg>
