<?xml version="1.0" encoding="UTF-8"?>
<svg xmlns="http://www.w3.org/2000/svg" xmlns:xlink="http://www.w3.org/1999/xlink" version="1.2" >
<font id="Paze Sans Light It">
<font-face  font-family="Paze Sans" units-per-em="1000" ascent="1040" descent="-345" font-style="normal" font-weight="300" font-stretch="normal" slope="-11" cap-height="695" x-height="527" underline-position="-100" underline-thickness="50" />
<missing-glyph  horiz-adv-x="582" d="M80 0 L498 0 L640 730 L222 730 L80 0 Z M133 72 L247 658 L339 365 L133 72 Z M151 35 L352 322 L442 35 L151 35 Z M279 695 L570 695 L369 408 L279 695 Z M383 365 L586 656 L474 74 L383 365 Z " />
<glyph glyph-name="NULL" d="" />
<glyph glyph-name="CR" unicode="&#xd;" horiz-adv-x="250" d="" />
<glyph glyph-name="space" unicode="&#x20;" horiz-adv-x="228" d="" />
<glyph glyph-name="exclam" unicode="&#x21;" horiz-adv-x="230" d="M125 197 L175 197 L292 731 L218 731 L125 197 Z M72 34 C72 8 91 -9 116 -9 C147 -9 171 16 171 46 C171 71 154 89 127 89 C96 89 72 64 72 34 L72 34 Z " />
<glyph glyph-name="quotedbl" unicode="&#x22;" horiz-adv-x="293" d="M283 518 L332 518 L375 715 L317 715 L283 518 Z M159 518 L207 518 L251 715 L192 715 L159 518 Z " />
<glyph glyph-name="numbersign" unicode="&#x23;" horiz-adv-x="663" d="M332 0 L388 0 L477 195 L605 195 L615 246 L501 246 L596 455 L721 455 L731 505 L619 505 L706 695 L652 695 L565 505 L376 505 L463 695 L409 695 L322 505 L192 505 L182 455 L298 455 L202 246 L74 246 L65 195 L179 195 L89 0 L144 0 L234 195 L422 195 L332 0 Z M257 246 L353 455 L541 455 L445 246 L257 246 Z " />
<glyph glyph-name="dollar" unicode="&#x24;" horiz-adv-x="598" d="M257 -99 L311 -99 L328 -11 C464 -9 550 70 550 191 C550 405 271 370 271 526 C271 600 330 650 417 650 C488 650 541 618 573 572 L617 617 C589 654 539 689 472 701 L490 794 L436 794 L420 706 C292 706 205 629 205 518 C205 320 483 357 483 182 C483 99 426 46 332 46 C244 46 181 86 140 148 L92 103 C129 45 190 3 275 -8 L257 -99 Z " />
<glyph glyph-name="percent" unicode="&#x25;" horiz-adv-x="719" d="M134 0 L187 0 L717 695 L664 695 L134 0 Z M130 519 C130 442 182 385 261 385 C362 385 436 477 436 569 C436 645 384 701 306 701 C206 701 130 611 130 519 L130 519 Z M176 523 C176 589 229 658 300 658 C353 658 391 620 391 564 C391 498 338 428 266 428 C214 428 176 467 176 523 L176 523 Z M416 128 C416 51 467 -6 547 -6 C648 -6 722 86 722 178 C722 253 670 310 591 310 C491 310 416 220 416 128 L416 128 Z M461 131 C461 198 515 267 586 267 C638 267 676 228 676 173 C676 107 623 37 552 37 C499 37 461 76 461 131 L461 131 Z " />
<glyph glyph-name="ampersand" unicode="&#x26;" horiz-adv-x="661" d="M73 150 C73 69 138 -11 264 -11 C364 -11 438 33 495 89 L561 0 L633 0 L540 129 C589 183 626 240 655 297 L616 337 C587 279 559 230 508 172 L369 365 C480 407 590 469 590 579 C590 660 526 706 434 706 C311 706 227 618 227 521 C227 469 249 428 281 383 C162 340 73 268 73 150 L73 150 Z M141 162 C141 255 213 306 311 341 L462 135 C414 85 352 48 276 48 C182 48 141 104 141 162 L141 162 Z M288 526 C288 593 346 653 425 653 C488 653 528 620 528 568 C528 478 425 434 341 403 C311 445 288 482 288 526 L288 526 Z " />
<glyph glyph-name="quotesingle" unicode="&#x27;" horiz-adv-x="169" d="M159 518 L207 518 L251 715 L192 715 L159 518 Z " />
<glyph glyph-name="parenleft" unicode="&#x28;" horiz-adv-x="302" d="M234 -102 L277 -58 C211 -1 158 104 158 239 C158 430 261 615 431 726 L392 765 C214 655 95 452 95 235 C95 82 158 -41 234 -102 L234 -102 Z " />
<glyph glyph-name="parenright" unicode="&#x29;" horiz-adv-x="302" d="M-5 -59 L35 -99 C217 11 333 218 333 432 C333 585 269 708 196 767 L153 723 C218 666 270 561 270 427 C270 235 166 48 -5 -59 L-5 -59 Z " />
<glyph glyph-name="asterisk" unicode="&#x2a;" horiz-adv-x="393" d="M247 403 L300 403 L317 525 L405 458 L441 506 L340 563 L464 621 L446 670 L332 601 L364 731 L310 731 L292 601 L204 669 L168 622 L269 563 L146 506 L163 458 L278 525 L247 403 Z " />
<glyph glyph-name="plus" unicode="&#x2b;" horiz-adv-x="470" d="M220 77 L278 77 L318 280 L493 280 L504 335 L328 335 L366 529 L308 529 L270 335 L94 335 L83 280 L260 280 L220 77 Z " />
<glyph glyph-name="comma" unicode="&#x2c;" horiz-adv-x="188" d="M25 -96 L67 -96 L123 -19 C143 10 150 25 150 46 C150 70 132 89 105 89 C76 89 51 67 51 36 C51 13 66 -4 86 -6 L25 -96 Z " />
<glyph glyph-name="hyphen" unicode="&#x2d;" horiz-adv-x="364" d="M115 281 L355 281 L366 335 L125 335 L115 281 Z " />
<glyph glyph-name="period" unicode="&#x2e;" horiz-adv-x="194" d="M97 -9 C128 -9 152 16 152 46 C152 71 135 89 108 89 C77 89 53 64 53 34 C53 8 72 -9 97 -9 L97 -9 Z " />
<glyph glyph-name="slash" unicode="&#x2f;" horiz-adv-x="320" d="M26 -50 L84 -50 L418 711 L361 711 L26 -50 Z " />
<glyph glyph-name="zero" unicode="0" horiz-adv-x="598" d="M317 -11 C517 -11 632 214 632 422 C632 607 546 705 416 705 C215 705 100 483 100 273 C100 89 185 -11 317 -11 L317 -11 Z M166 275 C166 449 258 643 410 643 C505 643 565 563 565 421 C565 242 473 50 323 50 C227 50 166 130 166 275 L166 275 Z " />
<glyph glyph-name="one" unicode="1" horiz-adv-x="598" d="M89 0 L526 0 L537 54 L353 54 L478 695 L414 695 L403 638 C398 612 380 601 356 601 L209 601 L199 547 L386 547 L290 54 L100 54 L89 0 Z " />
<glyph glyph-name="two" unicode="2" horiz-adv-x="598" d="M71 0 L519 0 L530 55 L174 55 L431 283 C537 375 601 451 601 550 C601 642 529 705 417 705 C326 705 243 663 174 589 L216 547 C280 615 342 648 410 648 C485 648 534 605 534 539 C534 459 477 397 385 316 L80 43 L71 0 Z " />
<glyph glyph-name="three" unicode="3" horiz-adv-x="598" d="M301 -11 C449 -11 560 90 560 217 C560 326 485 403 372 405 L628 643 L638 695 L216 695 L205 642 L551 642 L296 405 L287 359 L345 359 C433 359 492 304 492 213 C492 120 411 45 305 45 C221 45 158 86 118 148 L74 104 C113 46 187 -11 301 -11 L301 -11 Z " />
<glyph glyph-name="four" unicode="4" horiz-adv-x="598" d="M62 173 L431 173 L397 0 L461 0 L495 173 L589 173 L599 225 L505 225 L596 695 L533 695 L71 217 L62 173 Z M147 225 L516 606 L442 225 L147 225 Z " />
<glyph glyph-name="five" unicode="5" horiz-adv-x="598" d="M304 -11 C458 -11 565 89 565 225 C565 343 482 419 351 419 L262 419 L319 643 L607 643 L618 695 L274 695 L192 367 L342 367 C439 367 499 310 499 220 C499 122 418 45 310 45 C225 45 170 87 129 153 L83 107 C131 37 199 -11 304 -11 L304 -11 Z " />
<glyph glyph-name="six" unicode="6" horiz-adv-x="598" d="M309 -11 C470 -11 583 112 583 256 C583 380 499 457 379 457 C360 457 342 455 324 451 L563 695 L486 695 L187 390 C140 342 99 269 99 185 C99 68 183 -11 309 -11 L309 -11 Z M165 194 C165 297 247 403 369 403 C459 403 517 341 517 251 C517 146 434 45 317 45 C225 45 165 108 165 194 L165 194 Z " />
<glyph glyph-name="seven" unicode="7" horiz-adv-x="598" d="M183 0 L256 0 L637 644 L647 695 L209 695 L198 640 L566 640 L183 0 Z " />
<glyph glyph-name="eight" unicode="8" horiz-adv-x="598" d="M310 -11 C455 -11 562 91 562 212 C562 289 520 349 452 371 C539 396 599 469 599 554 C599 642 533 705 427 705 C302 705 204 619 204 508 C204 444 238 396 292 374 C187 352 108 262 108 159 C108 56 191 -11 310 -11 L310 -11 Z M174 169 C174 266 261 346 364 346 C448 346 498 295 498 217 C498 121 420 43 313 43 C230 43 174 89 174 169 L174 169 Z M265 505 C265 585 336 650 421 650 C488 650 537 610 537 544 C537 463 461 396 378 396 C310 396 265 441 265 505 L265 505 Z " />
<glyph glyph-name="nine" unicode="9" horiz-adv-x="598" d="M167 0 L244 0 L543 305 C599 363 631 432 631 510 C631 626 548 705 421 705 C260 705 147 582 147 439 C147 315 231 238 351 238 C370 238 388 240 406 244 L167 0 Z M213 444 C213 549 297 648 414 648 C505 648 565 586 565 501 C565 398 484 292 361 292 C272 292 213 354 213 444 L213 444 Z " />
<glyph glyph-name="colon" unicode="&#x3a;" horiz-adv-x="218" d="M181 355 C211 355 235 380 235 410 C235 437 217 454 191 454 C160 454 136 429 136 399 C136 373 155 355 181 355 L181 355 Z M65 34 C65 8 84 -9 109 -9 C140 -9 164 16 164 46 C164 72 146 89 120 89 C89 89 65 64 65 34 L65 34 Z " />
<glyph glyph-name="semicolon" unicode="&#x3b;" horiz-adv-x="220" d="M40 -96 L82 -96 L138 -19 C158 10 165 25 165 46 C165 70 147 89 120 89 C91 89 66 67 66 36 C66 13 81 -4 101 -6 L40 -96 Z M137 399 C137 373 155 355 181 355 C212 355 236 380 236 410 C236 437 217 454 192 454 C160 454 137 429 137 399 L137 399 Z " />
<glyph glyph-name="less" unicode="&#x3c;" horiz-adv-x="394" d="M357 63 L368 119 L144 287 L433 454 L446 520 L89 314 L80 268 L357 63 Z " />
<glyph glyph-name="equal" unicode="&#x3d;" horiz-adv-x="475" d="M108 381 L513 381 L524 436 L119 436 L108 381 Z M63 146 L467 146 L478 201 L74 201 L63 146 Z " />
<glyph glyph-name="greater" unicode="&#x3e;" horiz-adv-x="394" d="M59 63 L416 269 L425 315 L148 520 L137 464 L361 296 L72 128 L59 63 Z " />
<glyph glyph-name="question" unicode="&#x3f;" horiz-adv-x="427" d="M195 244 L186 197 L244 197 L252 236 C285 416 507 435 507 602 C507 693 440 741 350 741 C265 741 199 697 151 642 L193 600 C232 646 279 680 339 680 C397 680 438 650 438 589 C438 456 235 442 195 244 L195 244 Z M141 34 C141 8 159 -9 184 -9 C216 -9 239 16 239 46 C239 72 221 89 196 89 C164 89 141 64 141 34 L141 34 Z " />
<glyph glyph-name="at" unicode="&#x40;" horiz-adv-x="951" d="M464 -125 C584 -125 674 -88 746 -13 L709 24 C652 -36 574 -71 471 -71 C277 -71 149 56 149 250 C149 488 345 700 594 700 C799 700 919 573 919 390 C919 252 861 154 773 154 C732 154 713 172 713 208 C713 217 714 224 718 249 L771 520 L722 520 L704 425 C682 490 625 531 543 531 C414 531 308 417 308 282 C308 171 380 92 484 92 C556 92 620 131 662 191 C662 137 703 101 769 101 C888 101 975 225 975 394 C975 612 825 753 601 753 C319 753 93 522 93 241 C93 22 245 -125 464 -125 L464 -125 Z M365 287 C365 391 447 480 547 480 C626 480 678 427 678 345 C678 238 595 143 499 143 C420 143 365 201 365 287 L365 287 Z " />
<glyph glyph-name="A" unicode="A" horiz-adv-x="600" d="M9 0 L77 0 L196 216 L491 216 L527 0 L588 0 L472 695 L395 695 L9 0 Z M225 269 L423 630 L483 269 L225 269 Z " />
<glyph glyph-name="B" unicode="B" horiz-adv-x="599" d="M83 0 L341 0 C495 0 594 83 594 207 C594 282 554 339 486 364 C573 390 633 456 633 548 C633 634 578 695 469 695 L218 695 L83 0 Z M157 53 L212 336 L393 336 C479 336 530 284 530 205 C530 113 458 53 341 53 L157 53 Z M222 389 L271 642 L446 642 C524 642 567 601 567 534 C567 449 494 389 403 389 L222 389 Z " />
<glyph glyph-name="C" unicode="C" horiz-adv-x="682" d="M674 107 L627 153 C572 88 500 50 402 50 C262 50 169 149 169 290 C169 476 296 645 483 645 C579 645 644 605 682 550 L729 597 C684 663 599 706 491 706 C262 706 102 508 102 284 C102 111 221 -11 395 -11 C517 -11 605 31 674 107 L674 107 Z " />
<glyph glyph-name="D" unicode="D" horiz-adv-x="697" d="M83 0 L332 0 C554 0 725 178 725 399 C725 578 612 695 439 695 L218 695 L83 0 Z M158 57 L271 638 L430 638 C570 638 658 545 658 398 C658 212 515 57 338 57 L158 57 Z " />
<glyph glyph-name="E" unicode="E" horiz-adv-x="540" d="M83 0 L502 0 L512 57 L158 57 L212 334 L528 334 L540 390 L223 390 L271 638 L619 638 L630 695 L218 695 L83 0 Z " />
<glyph glyph-name="F" unicode="F" horiz-adv-x="519" d="M83 0 L147 0 L211 331 L525 331 L537 388 L222 388 L271 638 L618 638 L629 695 L218 695 L83 0 Z " />
<glyph glyph-name="G" unicode="G" horiz-adv-x="747" d="M703 530 L755 581 C705 659 610 706 490 706 C272 706 102 520 102 292 C102 108 221 -11 398 -11 C595 -11 736 121 775 356 L444 356 L434 305 L702 305 C655 141 549 48 406 48 C262 48 168 145 168 297 C168 488 310 645 483 645 C592 645 666 600 703 530 L703 530 Z " />
<glyph glyph-name="H" unicode="H" horiz-adv-x="666" d="M516 0 L580 0 L715 695 L651 695 L592 391 L223 391 L282 695 L218 695 L83 0 L147 0 L212 333 L581 333 L516 0 Z " />
<glyph glyph-name="I" unicode="I" horiz-adv-x="233" d="M83 0 L147 0 L282 695 L218 695 L83 0 Z " />
<glyph glyph-name="J" unicode="J" horiz-adv-x="317" d="M14 0 L69 0 C175 0 248 61 269 170 L371 695 L307 695 L207 178 C192 104 141 57 70 57 L25 57 L14 0 Z " />
<glyph glyph-name="K" unicode="K" horiz-adv-x="586" d="M518 0 L592 0 L283 363 L692 695 L607 695 L222 384 L282 695 L218 695 L83 0 L147 0 L215 350 L518 0 Z " />
<glyph glyph-name="L" unicode="L" horiz-adv-x="510" d="M83 0 L496 0 L507 58 L158 58 L282 695 L218 695 L83 0 Z " />
<glyph glyph-name="M" unicode="M" horiz-adv-x="805" d="M379 30 L434 30 L758 596 L679 0 L740 0 L830 695 L757 695 L420 109 L313 695 L243 695 L63 0 L125 0 L278 596 L379 30 Z " />
<glyph glyph-name="N" unicode="N" horiz-adv-x="666" d="M527 0 L580 0 L715 695 L652 695 L538 112 L272 695 L218 695 L83 0 L147 0 L261 583 L527 0 Z " />
<glyph glyph-name="O" unicode="O" horiz-adv-x="765" d="M401 -11 C617 -11 793 172 793 398 C793 583 673 706 495 706 C278 706 102 521 102 298 C102 114 222 -11 401 -11 L401 -11 Z M169 302 C169 489 313 645 490 645 C633 645 727 544 727 394 C727 207 582 50 406 50 C263 50 169 151 169 302 L169 302 Z " />
<glyph glyph-name="P" unicode="P" horiz-adv-x="571" d="M83 0 L147 0 L206 302 L390 302 C539 302 642 392 642 522 C642 630 571 695 450 695 L218 695 L83 0 Z M217 359 L271 638 L439 638 C527 638 576 594 576 516 C576 424 503 359 397 359 L217 359 Z " />
<glyph glyph-name="Q" unicode="Q" horiz-adv-x="787" d="M672 -148 L718 -101 L579 33 C706 101 793 239 793 398 C793 583 673 706 495 706 C278 706 102 521 102 298 C102 114 222 -11 401 -11 C440 -11 478 -5 513 6 L672 -148 Z M169 302 C169 489 313 645 490 645 C633 645 727 544 727 394 C727 207 582 50 406 50 C263 50 169 151 169 302 L169 302 Z " />
<glyph glyph-name="R" unicode="R" horiz-adv-x="582" d="M83 0 L147 0 L209 319 L284 319 L474 0 L543 0 L349 319 L391 319 C545 319 643 410 643 529 C643 630 574 695 450 695 L218 695 L83 0 Z M219 368 L271 638 L441 638 C530 638 578 594 578 521 C578 433 505 368 397 368 L219 368 Z " />
<glyph glyph-name="S" unicode="S" horiz-adv-x="536" d="M291 -11 C437 -11 530 68 530 191 C530 405 235 371 235 526 C235 600 298 650 390 650 C465 650 522 618 555 572 L600 617 C564 663 492 706 395 706 C260 706 168 629 168 518 C168 320 463 355 463 182 C463 99 401 46 301 46 C208 46 143 86 99 148 L50 104 C96 35 176 -11 291 -11 L291 -11 Z " />
<glyph glyph-name="T" unicode="T" horiz-adv-x="524" d="M229 0 L293 0 L417 637 L634 637 L645 695 L147 695 L136 637 L353 637 L229 0 Z " />
<glyph glyph-name="U" unicode="U" horiz-adv-x="652" d="M335 -11 C486 -11 590 80 621 244 L708 695 L644 695 L557 244 C533 120 455 49 344 49 C228 49 166 132 192 264 L275 695 L211 695 L128 264 C97 104 178 -11 335 -11 L335 -11 Z " />
<glyph glyph-name="V" unicode="V" horiz-adv-x="604" d="M258 0 L335 0 L724 695 L653 695 L308 72 L202 695 L138 695 L258 0 Z " />
<glyph glyph-name="W" unicode="W" horiz-adv-x="840" d="M184 0 L254 0 L537 605 L583 0 L655 0 L953 695 L888 695 L632 83 L587 695 L519 695 L235 85 L216 695 L154 695 L184 0 Z " />
<glyph glyph-name="X" unicode="X" horiz-adv-x="596" d="M521 0 L590 0 L404 351 L712 695 L633 695 L376 405 L222 695 L152 695 L330 360 L2 0 L82 0 L357 308 L521 0 Z " />
<glyph glyph-name="Y" unicode="Y" horiz-adv-x="586" d="M259 0 L323 0 L378 285 L711 695 L634 695 L356 342 L208 695 L143 695 L315 289 L259 0 Z " />
<glyph glyph-name="Z" unicode="Z" horiz-adv-x="524" d="M23 0 L500 0 L510 58 L140 58 L628 695 L168 695 L157 638 L511 638 L23 0 Z " />
<glyph glyph-name="bracketleft" unicode="&#x5b;" horiz-adv-x="280" d="M62 -101 L237 -101 L248 -46 L134 -46 L282 710 L394 710 L405 765 L230 765 L62 -101 Z " />
<glyph glyph-name="backslash" unicode="&#x5c;" horiz-adv-x="321" d="M214 -50 L273 -50 L232 711 L174 711 L214 -50 Z " />
<glyph glyph-name="bracketright" unicode="&#x5d;" horiz-adv-x="279" d="M1 -101 L176 -101 L345 765 L170 765 L158 710 L273 710 L126 -46 L12 -46 L1 -101 Z " />
<glyph glyph-name="asciicircum" unicode="&#x5e;" horiz-adv-x="438" d="M115 382 L184 382 L334 585 L410 382 L470 382 L363 655 L320 655 L115 382 Z " />
<glyph glyph-name="underscore" unicode="&#x5f;" horiz-adv-x="470" d="M7 -78 L429 -78 L439 -24 L17 -24 L7 -78 Z " />
<glyph glyph-name="grave" unicode="&#x60;" horiz-adv-x="269" d="M355 603 L381 642 L184 768 L156 724 L355 603 Z " />
<glyph glyph-name="a" unicode="a" horiz-adv-x="629" d="M295 -11 C387 -11 463 37 514 106 L493 0 L553 0 L655 527 L595 527 L572 405 C547 488 482 538 385 538 C215 538 84 389 84 218 C84 81 166 -11 295 -11 L295 -11 Z M149 226 C149 361 253 481 385 481 C486 481 547 413 547 307 C547 169 445 46 314 46 C213 46 149 121 149 226 L149 226 Z " />
<glyph glyph-name="b" unicode="b" horiz-adv-x="629" d="M340 -11 C521 -11 644 144 644 311 C644 446 560 538 435 538 C346 538 271 495 220 430 L278 731 L214 731 L73 0 L133 0 L156 117 C182 36 249 -11 340 -11 L340 -11 Z M181 220 C181 353 278 481 414 481 C512 481 579 409 579 302 C579 175 484 46 342 46 C244 46 181 115 181 220 L181 220 Z " />
<glyph glyph-name="c" unicode="c" horiz-adv-x="547" d="M318 -11 C413 -11 483 24 535 87 L494 129 C453 80 396 47 326 47 C217 47 149 125 149 228 C149 359 249 480 382 480 C454 480 507 443 537 403 L581 448 C545 495 477 538 386 538 C217 538 84 390 84 221 C84 85 175 -11 318 -11 L318 -11 Z " />
<glyph glyph-name="d" unicode="d" horiz-adv-x="629" d="M295 -11 C386 -11 462 36 513 105 L493 0 L553 0 L695 731 L631 731 L570 414 C543 492 479 538 385 538 C215 538 84 389 84 218 C84 81 166 -11 295 -11 L295 -11 Z M149 226 C149 361 253 481 385 481 C486 481 547 413 547 307 C547 169 445 46 314 46 C213 46 149 121 149 226 L149 226 Z " />
<glyph glyph-name="e" unicode="e" horiz-adv-x="577" d="M309 -11 C412 -11 478 22 543 91 L496 139 C443 77 393 51 318 51 C223 51 152 121 152 222 L152 237 L581 237 C589 263 596 308 596 333 C596 451 514 538 388 538 C218 538 84 394 84 216 C84 85 177 -11 309 -11 L309 -11 Z M164 303 C195 403 280 479 385 479 C472 479 528 421 528 331 C528 323 527 313 526 303 L164 303 Z " />
<glyph glyph-name="f" unicode="f" horiz-adv-x="326" d="M219 559 L213 527 L114 527 L103 471 L202 471 L110 0 L174 0 L265 471 L407 471 L418 527 L276 527 L283 562 C299 643 349 682 414 682 L451 682 L461 734 L420 734 C310 734 241 673 219 559 L219 559 Z " />
<glyph glyph-name="g" unicode="g" horiz-adv-x="628" d="M294 -11 C387 -11 464 38 515 109 L505 60 C480 -68 398 -134 276 -134 C190 -134 131 -102 88 -39 L46 -81 C90 -150 170 -190 272 -190 C435 -190 533 -103 566 65 L656 527 L596 527 L572 404 C548 488 482 538 384 538 C214 538 83 389 83 218 C83 81 166 -11 294 -11 L294 -11 Z M148 226 C148 361 252 481 385 481 C485 481 546 413 546 307 C546 169 445 46 313 46 C212 46 148 121 148 226 L148 226 Z " />
<glyph glyph-name="h" unicode="h" horiz-adv-x="596" d="M73 0 L137 0 L200 325 C221 415 299 480 393 480 C489 480 545 420 523 307 L464 0 L528 0 L589 317 C616 456 543 538 418 538 C335 538 266 499 223 444 L279 731 L215 731 L73 0 Z " />
<glyph glyph-name="i" unicode="i" horiz-adv-x="218" d="M73 0 L137 0 L239 527 L175 527 L73 0 Z M180 681 C180 652 200 631 231 631 C266 631 296 660 296 695 C296 723 276 744 245 744 C210 744 180 715 180 681 L180 681 Z " />
<glyph glyph-name="j" unicode="j" horiz-adv-x="219" d="M-85 -181 L-67 -181 C35 -181 114 -117 137 -1 L239 527 L175 527 L73 -2 C58 -77 5 -125 -59 -125 L-74 -125 L-85 -181 Z M182 680 C182 651 202 630 233 630 C268 630 298 659 298 694 C298 722 278 743 247 743 C212 743 182 714 182 680 L182 680 Z " />
<glyph glyph-name="k" unicode="k" horiz-adv-x="485" d="M73 0 L137 0 L190 274 L414 0 L485 0 L260 281 L578 527 L495 527 L196 303 L279 731 L215 731 L73 0 Z " />
<glyph glyph-name="l" unicode="l" horiz-adv-x="212" d="M73 0 L137 0 L279 731 L215 731 L73 0 Z " />
<glyph glyph-name="m" unicode="m" horiz-adv-x="948" d="M876 315 L816 0 L879 0 L943 324 C969 461 894 538 779 538 C689 538 612 483 572 412 C559 494 499 538 409 538 C330 538 261 496 219 439 L236 527 L175 527 L73 0 L137 0 L198 316 C216 410 296 480 383 480 C470 480 526 425 505 315 L445 0 L508 0 L570 314 C587 410 667 480 754 480 C841 480 897 425 876 315 L876 315 Z " />
<glyph glyph-name="n" unicode="n" horiz-adv-x="596" d="M523 307 L464 0 L528 0 L589 317 C616 455 543 538 418 538 C333 538 261 496 219 438 L236 527 L175 527 L73 0 L137 0 L198 316 C216 410 296 480 393 480 C489 480 545 420 523 307 L523 307 Z " />
<glyph glyph-name="o" unicode="o" horiz-adv-x="607" d="M315 -11 C494 -11 622 140 622 307 C622 450 528 538 392 538 C216 538 84 389 84 219 C84 78 178 -11 315 -11 L315 -11 Z M149 227 C149 356 249 480 386 480 C490 480 557 409 557 302 C557 172 459 47 322 47 C218 47 149 119 149 227 L149 227 Z " />
<glyph glyph-name="p" unicode="p" horiz-adv-x="629" d="M342 -11 C509 -11 644 134 644 310 C644 445 561 538 433 538 C345 538 267 493 215 423 L235 527 L175 527 L38 -179 L102 -179 L158 112 C186 34 252 -11 342 -11 L342 -11 Z M181 220 C181 361 286 481 412 481 C512 481 579 409 579 302 C579 163 473 46 344 46 C245 46 181 114 181 220 L181 220 Z " />
<glyph glyph-name="q" unicode="q" horiz-adv-x="629" d="M295 -11 C384 -11 458 33 508 99 L454 -179 L518 -179 L655 527 L595 527 L572 405 C548 488 482 538 385 538 C215 538 84 389 84 218 C84 81 166 -11 295 -11 L295 -11 Z M149 226 C149 361 253 481 385 481 C486 481 547 413 547 307 C547 169 445 46 314 46 C213 46 149 121 149 226 L149 226 Z " />
<glyph glyph-name="r" unicode="r" horiz-adv-x="319" d="M73 0 L137 0 L200 325 C221 409 297 477 395 478 L406 538 C327 538 259 491 218 434 L236 527 L175 527 L73 0 Z " />
<glyph glyph-name="s" unicode="s" horiz-adv-x="459" d="M252 -12 C364 -12 460 49 460 151 C460 322 189 277 189 393 C189 444 249 478 316 478 C365 478 407 462 441 426 L490 475 C452 514 395 538 318 538 C202 538 122 477 122 386 C122 221 392 267 392 144 C392 84 321 50 259 50 C197 50 143 70 95 123 L41 70 C87 23 156 -12 252 -12 L252 -12 Z " />
<glyph glyph-name="t" unicode="t" horiz-adv-x="348" d="M279 0 L341 0 L352 57 L301 57 C226 57 189 102 206 186 L261 471 L424 471 L434 527 L274 527 L300 661 L239 661 L222 573 C216 542 200 527 169 527 L112 527 L102 471 L198 471 L141 180 C119 70 172 0 279 0 L279 0 Z " />
<glyph glyph-name="u" unicode="u" horiz-adv-x="586" d="M272 -11 C356 -11 426 33 468 92 L451 0 L511 0 L613 527 L550 527 L488 210 C470 116 390 47 298 47 C206 47 150 106 172 220 L231 527 L168 527 L106 210 C79 71 153 -11 272 -11 L272 -11 Z " />
<glyph glyph-name="v" unicode="v" horiz-adv-x="521" d="M224 0 L294 0 L612 527 L540 527 L270 62 L175 527 L111 527 L224 0 Z " />
<glyph glyph-name="w" unicode="w" horiz-adv-x="744" d="M157 0 L231 0 L458 456 L510 0 L584 0 L828 527 L761 527 L554 64 L505 527 L434 527 L208 63 L178 527 L116 527 L157 0 Z " />
<glyph glyph-name="x" unicode="x" horiz-adv-x="494" d="M420 0 L487 0 L334 265 L582 527 L505 527 L307 312 L183 527 L115 527 L262 273 L1 0 L77 0 L290 225 L420 0 Z " />
<glyph glyph-name="y" unicode="y" horiz-adv-x="522" d="M224 0 L232 0 L121 -179 L186 -179 L612 527 L540 527 L270 62 L175 527 L111 527 L224 0 Z " />
<glyph glyph-name="z" unicode="z" horiz-adv-x="490" d="M22 0 L466 0 L476 53 L146 53 L563 527 L143 527 L133 474 L442 474 L22 0 Z " />
<glyph glyph-name="braceleft" unicode="&#x7b;" horiz-adv-x="286" d="M224 -101 L241 -101 L252 -46 L242 -46 C192 -46 168 -6 180 58 L210 212 C227 298 179 322 155 332 C187 343 240 365 257 452 L289 614 C301 678 339 710 389 710 L399 710 L409 765 L392 765 C301 765 247 711 228 615 L195 451 C182 383 135 360 94 360 L79 360 L69 304 L84 304 C122 304 164 288 149 213 L119 57 C99 -46 149 -101 224 -101 L224 -101 Z " />
<glyph glyph-name="bar" unicode="&#x7c;" horiz-adv-x="217" d="M65 -85 L116 -85 L271 714 L220 714 L65 -85 Z " />
<glyph glyph-name="braceright" unicode="&#x7d;" horiz-adv-x="286" d="M3 -101 L20 -101 C112 -101 166 -47 185 50 L217 213 C231 282 279 304 319 304 L334 304 L344 360 L330 360 C293 360 249 375 264 451 L294 607 C314 710 264 765 189 765 L172 765 L161 710 L171 710 C221 710 245 670 233 607 L203 452 C187 365 234 342 258 332 C228 322 174 301 156 212 L124 50 C112 -14 74 -46 25 -46 L15 -46 L3 -101 Z " />
<glyph glyph-name="asciitilde" unicode="&#x7e;" horiz-adv-x="510" d="M402 244 C447 244 485 267 510 300 L481 338 C462 314 432 298 403 298 C330 298 308 353 221 353 C175 353 138 330 113 297 L142 259 C161 283 190 299 219 299 C292 299 314 244 402 244 L402 244 Z " />
<glyph glyph-name="uni00A0" unicode="&#xa0;" horiz-adv-x="228" d="" />
<glyph glyph-name="exclamdown" unicode="&#xa1;" horiz-adv-x="218" d="M35 -179 L109 -179 L199 329 L149 329 L35 -179 Z M153 481 C153 455 170 437 197 437 C228 437 252 462 252 492 C252 518 233 535 208 535 C176 535 153 511 153 481 L153 481 Z " />
<glyph glyph-name="cent" unicode="&#xa2;" horiz-adv-x="598" d="M288 0 L341 0 L359 90 C445 97 514 145 556 231 L505 252 C470 181 412 146 343 146 C254 146 199 210 199 300 C199 412 286 515 401 515 C474 515 522 474 530 409 L588 429 C580 506 521 560 438 570 L455 661 L402 661 L384 571 C243 558 137 434 137 293 C137 184 201 104 305 91 L288 0 Z " />
<glyph glyph-name="sterling" unicode="&#xa3;" horiz-adv-x="598" d="M134 0 L519 0 L531 59 L213 59 L263 315 L493 315 L504 374 L274 374 L298 495 C316 587 379 647 469 647 C534 647 573 620 599 585 L648 633 C615 675 556 706 474 706 C344 706 257 627 231 497 L207 374 L125 374 L113 315 L195 315 L134 0 Z " />
<glyph glyph-name="currency" unicode="&#xa4;" horiz-adv-x="598" d="M329 114 C382 114 429 131 468 159 L511 103 L550 136 L506 192 C551 240 577 303 577 366 C577 402 569 434 554 462 L621 518 L590 558 L522 502 C491 530 449 547 396 547 C343 547 296 530 257 502 L213 558 L174 525 L218 469 C173 422 147 358 147 295 C147 260 155 227 170 200 L103 143 L134 103 L202 160 C233 131 276 114 329 114 L329 114 Z M205 301 C205 395 281 494 388 494 C466 494 519 440 519 360 C519 266 443 167 337 167 C258 167 205 222 205 301 L205 301 Z " />
<glyph glyph-name="yen" unicode="&#xa5;" horiz-adv-x="598" d="M149 117 L286 117 L263 0 L327 0 L350 117 L486 117 L496 163 L359 163 L377 260 L514 260 L524 307 L397 307 L693 695 L615 695 L363 350 L239 695 L170 695 L314 307 L186 307 L176 260 L314 260 L295 163 L157 163 L149 117 Z " />
<glyph glyph-name="brokenbar" unicode="&#xa6;" horiz-adv-x="217" d="M158 398 L209 398 L271 714 L220 714 L158 398 Z M65 -85 L116 -85 L177 232 L126 232 L65 -85 Z " />
<glyph glyph-name="section" unicode="&#xa7;" horiz-adv-x="474" d="M219 -105 C331 -105 424 -47 424 54 C424 103 403 134 374 157 C442 180 487 229 487 300 C487 472 237 425 237 555 C237 614 289 651 357 651 C413 651 456 633 491 587 L533 630 C497 672 446 700 360 700 C250 700 174 640 174 551 C174 499 199 469 233 446 C159 426 112 374 112 304 C112 141 360 184 360 49 C360 -18 297 -55 224 -55 C156 -55 100 -22 67 31 L25 -12 C64 -69 128 -105 219 -105 L219 -105 Z M172 313 C172 372 224 414 294 415 C358 388 424 365 424 293 C424 238 382 199 325 186 C254 220 172 238 172 313 L172 313 Z " />
<glyph glyph-name="dieresis" unicode="&#xa8;" horiz-adv-x="338" d="M390 633 C423 633 452 661 452 692 C452 723 432 741 404 741 C371 741 342 713 342 682 C342 651 362 633 390 633 L390 633 Z M160 682 C160 651 180 633 209 633 C242 633 271 661 271 692 C271 723 251 741 223 741 C190 741 160 713 160 682 L160 682 Z " />
<glyph glyph-name="copyright" unicode="&#xa9;" horiz-adv-x="745" d="M389 -11 C596 -11 769 170 769 381 C769 551 651 673 482 673 C274 673 101 490 101 282 C101 112 219 -11 389 -11 L389 -11 Z M148 285 C148 466 300 627 478 627 C622 627 722 522 722 377 C722 194 569 34 393 34 C249 34 148 141 148 285 L148 285 Z M251 301 C251 205 313 137 411 137 C480 137 534 163 573 207 L538 240 C508 206 469 185 418 185 C345 185 304 233 304 306 C304 396 371 476 464 476 C516 476 550 453 569 425 L604 461 C579 496 527 524 466 524 C346 524 251 420 251 301 L251 301 Z " />
<glyph glyph-name="ordfeminine" unicode="&#xaa;" horiz-adv-x="383" d="M281 520 C330 520 371 545 399 583 L388 527 L425 527 L482 815 L444 815 L431 750 C416 793 377 822 324 822 C232 822 161 736 161 646 C161 569 213 520 281 520 L281 520 Z M209 652 C209 723 266 778 323 778 C377 778 408 741 408 690 C408 627 360 565 293 565 C244 565 209 601 209 652 L209 652 Z " />
<glyph glyph-name="guillemotleft" unicode="&#xab;" horiz-adv-x="424" d="M320 86 L379 86 L307 247 L450 417 L385 417 L247 252 L320 86 Z M86 252 L160 86 L219 86 L147 247 L290 417 L225 417 L86 252 Z " />
<glyph glyph-name="logicalnot" unicode="&#xac;" horiz-adv-x="524" d="M114 311 L457 311 L424 136 L484 136 L529 367 L125 367 L114 311 Z " />
<glyph glyph-name="registered" unicode="&#xae;" horiz-adv-x="481" d="M311 303 C435 303 537 409 537 534 C537 635 467 706 364 706 C239 706 137 599 137 476 C137 376 207 303 311 303 L311 303 Z M170 478 C170 582 257 675 361 675 C446 675 504 613 504 531 C504 427 418 334 313 334 C228 334 170 397 170 478 L170 478 Z M255 400 L284 400 L303 500 L315 500 L369 400 L401 400 L345 500 L354 500 C399 500 432 527 432 567 C432 601 407 622 368 622 L297 622 L255 400 Z M308 525 L322 597 L363 597 C390 597 402 585 402 564 C402 540 383 525 354 525 L308 525 Z " />
<glyph glyph-name="macron" unicode="&#xaf;" horiz-adv-x="300" d="M157 661 L429 661 L438 711 L166 711 L157 661 Z " />
<glyph glyph-name="degree" unicode="&#xb0;" horiz-adv-x="350" d="M268 428 C353 428 422 496 422 579 C422 651 370 699 299 699 C215 699 145 632 145 548 C145 476 196 428 268 428 L268 428 Z M192 552 C192 611 240 656 296 656 C341 656 374 623 374 575 C374 517 327 470 271 470 C226 470 192 504 192 552 L192 552 Z " />
<glyph glyph-name="plusminus" unicode="&#xb1;" horiz-adv-x="467" d="M230 141 L288 141 L327 338 L500 338 L511 392 L337 392 L374 581 L315 581 L278 392 L105 392 L94 338 L268 338 L230 141 Z M36 38 L442 38 L453 93 L47 93 L36 38 Z " />
<glyph glyph-name="uni00B2" unicode="&#xb2;" horiz-adv-x="329" d="M119 347 L339 347 L346 385 L190 385 L294 479 C351 530 385 567 385 618 C385 668 346 700 291 700 C235 700 197 673 168 642 L197 613 C223 641 250 661 284 661 C317 661 339 641 339 611 C339 573 306 541 260 499 L125 376 L119 347 Z " />
<glyph glyph-name="uni00B3" unicode="&#xb3;" horiz-adv-x="316" d="M229 341 C300 341 358 392 358 458 C358 510 325 545 272 550 L388 659 L395 695 L187 695 L180 658 L338 658 L222 551 L216 521 L245 521 C288 521 313 497 313 460 C313 414 277 380 230 380 C188 380 162 397 142 421 L112 391 C134 362 172 341 229 341 L229 341 Z " />
<glyph glyph-name="acute" unicode="&#xb4;" horiz-adv-x="239" d="M174 606 L394 724 L369 769 L151 645 L174 606 Z " />
<glyph glyph-name="uni00B5" unicode="&#xb5;" horiz-adv-x="3045" d="M457 540 C379 540 323 512 286 464 L286 527 L151 527 L151 -175 L286 -175 L286 62 C323 14 379 -17 457 -17 C598 -17 715 105 715 263 C715 419 598 540 457 540 L457 540 Z M286 263 C286 352 349 412 431 412 C515 412 577 352 577 263 C577 175 515 115 431 115 C349 115 286 175 286 263 L286 263 Z M745 263 C745 419 861 540 999 540 C1075 540 1133 512 1171 464 L1171 527 L1306 527 L1306 81 L1222 -1 L1171 -1 L1171 62 C1133 15 1075 -17 999 -17 C861 -17 745 105 745 263 L745 263 Z M880 263 C880 175 942 115 1024 115 C1109 115 1171 175 1171 263 C1171 352 1109 412 1024 412 C942 412 880 352 880 263 L880 263 Z M1293 -1 L1687 396 L1385 396 L1385 527 L2001 527 L1611 127 L1913 127 C1932 75 1965 30 2007 -1 L1293 -1 Z M1943 263 C1943 105 2056 -17 2230 -17 C2332 -17 2411 26 2460 97 L2351 162 C2327 130 2286 108 2233 108 C2163 108 2105 138 2086 206 L2480 206 C2484 224 2485 243 2485 263 C2485 419 2377 540 2221 540 C2057 540 1943 419 1943 263 L1943 263 Z M2084 311 C2099 381 2149 419 2221 419 C2277 419 2334 388 2351 311 L2084 311 Z M2533 350 C2549 325 2577 310 2614 310 C2662 310 2694 334 2694 371 C2694 453 2581 430 2581 474 C2581 488 2595 498 2618 498 C2635 498 2651 489 2662 471 L2690 500 C2677 519 2650 532 2620 532 C2572 532 2542 508 2542 471 C2542 395 2654 419 2654 370 C2654 354 2639 342 2617 342 C2592 342 2574 356 2560 377 L2533 350 Z M2725 314 L2763 314 L2773 470 L2824 322 L2857 322 L2907 470 L2919 314 L2954 314 L2940 525 L2895 525 L2841 367 L2786 525 L2741 525 L2725 314 Z " />
<glyph glyph-name="paragraph" unicode="&#xb6;" horiz-adv-x="586" d="M309 302 L378 302 L443 639 L491 639 L348 -100 L387 -100 L531 639 L579 639 L435 -100 L475 -100 L629 695 L366 695 C219 695 118 594 118 470 C118 365 191 302 309 302 L309 302 Z " />
<glyph glyph-name="periodcentered" unicode="&#xb7;" horiz-adv-x="213" d="M162 271 C194 271 218 297 218 326 C218 351 199 369 173 369 C142 369 118 344 118 315 C118 289 136 271 162 271 L162 271 Z " />
<glyph glyph-name="cedilla" unicode="&#xb8;" horiz-adv-x="244" d="M92 -240 C161 -240 210 -196 210 -141 C210 -98 182 -63 139 -57 L178 9 L135 9 L86 -70 L91 -80 L102 -80 C139 -80 161 -106 161 -139 C161 -174 132 -201 88 -201 C51 -201 31 -183 21 -165 L-9 -192 C6 -217 41 -240 92 -240 L92 -240 Z " />
<glyph glyph-name="uni00B9" unicode="&#xb9;" horiz-adv-x="265" d="M120 347 L290 347 L298 387 L243 387 L303 695 L257 695 L250 664 C248 652 241 646 229 646 L180 646 L172 607 L239 607 L197 387 L128 387 L120 347 Z " />
<glyph glyph-name="ordmasculine" unicode="&#xba;" horiz-adv-x="362" d="M292 520 C387 520 459 599 459 691 C459 770 406 823 329 823 C235 823 161 742 161 651 C161 571 215 520 292 520 L292 520 Z M208 656 C208 720 258 778 323 778 C376 778 413 741 413 685 C413 621 362 563 297 563 C245 563 208 601 208 656 L208 656 Z " />
<glyph glyph-name="guillemotright" unicode="&#xbb;" horiz-adv-x="424" d="M230 86 L295 86 L433 252 L360 417 L301 417 L372 256 L230 86 Z M70 86 L135 86 L273 252 L200 417 L141 417 L212 257 L70 86 Z " />
<glyph glyph-name="onequarter" unicode="&#xbc;" horiz-adv-x="616" d="M106 347 L276 347 L284 387 L229 387 L289 695 L243 695 L236 664 C234 652 227 646 215 646 L166 646 L158 607 L225 607 L183 387 L114 387 L106 347 Z M106 0 L156 0 L667 695 L616 695 L106 0 Z M370 82 L536 82 L519 0 L563 0 L579 82 L621 82 L628 117 L586 117 L631 348 L588 348 L376 114 L370 82 Z M420 117 L577 292 L543 117 L420 117 Z " />
<glyph glyph-name="onehalf" unicode="&#xbd;" horiz-adv-x="648" d="M106 347 L276 347 L284 387 L229 387 L289 695 L243 695 L236 664 C234 652 227 646 215 646 L166 646 L158 607 L225 607 L183 387 L114 387 L106 347 Z M102 0 L152 0 L663 695 L612 695 L102 0 Z M421 0 L641 0 L648 38 L492 38 L596 132 C653 183 687 220 687 271 C687 321 648 353 593 353 C537 353 499 326 470 295 L499 266 C525 294 552 314 586 314 C619 314 641 294 641 264 C641 226 608 194 562 152 L427 29 L421 0 Z " />
<glyph glyph-name="threequarters" unicode="&#xbe;" horiz-adv-x="624" d="M219 341 C290 341 348 392 348 458 C348 510 315 545 262 550 L378 659 L385 695 L177 695 L170 658 L328 658 L212 551 L206 521 L235 521 C278 521 303 497 303 460 C303 414 267 380 220 380 C178 380 152 397 132 421 L102 391 C124 362 162 341 219 341 L219 341 Z M121 0 L171 0 L682 695 L631 695 L121 0 Z M372 82 L538 82 L521 0 L565 0 L581 82 L623 82 L630 117 L588 117 L633 348 L590 348 L378 114 L372 82 Z M422 117 L579 292 L545 117 L422 117 Z " />
<glyph glyph-name="questiondown" unicode="&#xbf;" horiz-adv-x="425" d="M174 -190 C270 -190 332 -138 372 -92 L330 -50 C297 -88 253 -129 183 -129 C126 -129 85 -99 85 -37 C85 96 288 110 330 299 L337 329 L279 329 L274 307 C238 136 16 116 16 -51 C16 -141 83 -190 174 -190 L174 -190 Z M283 480 C283 454 302 437 327 437 C358 437 382 462 382 492 C382 518 364 535 338 535 C307 535 283 510 283 480 L283 480 Z " />
<glyph glyph-name="Agrave" unicode="&#xc0;" horiz-adv-x="617" d="M9 0 L77 0 L196 216 L491 216 L527 0 L588 0 L472 695 L395 695 L9 0 Z M225 269 L423 630 L483 269 L225 269 Z M325 857 L570 768 L587 812 L344 908 L325 857 Z " />
<glyph glyph-name="Aacute" unicode="&#xc1;" horiz-adv-x="617" d="M9 0 L77 0 L196 216 L491 216 L527 0 L588 0 L472 695 L395 695 L9 0 Z M225 269 L423 630 L483 269 L225 269 Z M342 813 L357 769 L606 856 L590 906 L342 813 Z " />
<glyph glyph-name="Acircumflex" unicode="&#xc2;" horiz-adv-x="617" d="M9 0 L77 0 L196 216 L491 216 L527 0 L588 0 L472 695 L395 695 L9 0 Z M225 269 L423 630 L483 269 L225 269 Z M301 771 L367 771 L474 859 L545 771 L601 771 L504 901 L452 901 L301 771 Z " />
<glyph glyph-name="Atilde" unicode="&#xc3;" horiz-adv-x="617" d="M9 0 L77 0 L196 216 L491 216 L527 0 L588 0 L472 695 L395 695 L9 0 Z M225 269 L423 630 L483 269 L225 269 Z M300 801 L344 781 C355 813 372 831 401 831 C451 831 464 779 528 779 C581 779 614 816 630 864 L588 883 C577 851 558 833 528 833 C477 833 464 885 402 885 C350 885 317 847 300 801 L300 801 Z " />
<glyph glyph-name="Adieresis" unicode="&#xc4;" horiz-adv-x="617" d="M9 0 L77 0 L196 216 L491 216 L527 0 L588 0 L472 695 L395 695 L9 0 Z M225 269 L423 630 L483 269 L225 269 Z M315 830 C315 800 335 782 363 782 C396 782 424 808 424 841 C424 870 406 890 377 890 C343 890 315 863 315 830 L315 830 Z M501 830 C501 800 521 782 549 782 C582 782 610 808 610 841 C610 870 592 890 563 890 C529 890 501 863 501 830 L501 830 Z " />
<glyph glyph-name="Aring" unicode="&#xc5;" horiz-adv-x="617" d="M9 0 L77 0 L196 216 L491 216 L527 0 L588 0 L472 695 L395 695 L9 0 Z M225 269 L423 630 L483 269 L225 269 Z M367 808 C367 760 399 725 450 725 C508 725 557 771 557 827 C557 875 525 910 474 910 C416 910 367 864 367 808 L367 808 Z M409 811 C409 845 437 870 469 870 C498 870 515 850 515 825 C515 790 486 765 454 765 C425 765 409 785 409 811 L409 811 Z " />
<glyph glyph-name="AE" unicode="&#xc6;" horiz-adv-x="892" d="M-12 0 L58 0 L219 214 L478 214 L436 0 L853 0 L864 57 L511 57 L565 334 L880 334 L891 390 L576 390 L624 638 L971 638 L982 695 L505 695 L-12 0 Z M261 269 L539 638 L560 638 L488 269 L261 269 Z " />
<glyph glyph-name="Ccedilla" unicode="&#xc7;" horiz-adv-x="683" d="M675 107 L628 153 C573 88 501 50 403 50 C263 50 170 149 170 290 C170 476 297 645 484 645 C580 645 645 605 683 550 L730 597 C685 663 600 706 492 706 C263 706 103 508 103 284 C103 123 206 6 361 -9 L323 -70 L328 -80 L339 -80 C376 -80 398 -106 398 -139 C398 -174 369 -201 325 -201 C288 -201 268 -183 258 -165 L228 -192 C243 -217 278 -240 329 -240 C398 -240 447 -196 447 -141 C447 -98 419 -63 376 -57 L403 -11 C521 -9 607 32 675 107 L675 107 Z " />
<glyph glyph-name="Egrave" unicode="&#xc8;" horiz-adv-x="556" d="M83 0 L502 0 L512 57 L158 57 L212 334 L528 334 L540 390 L223 390 L271 638 L619 638 L630 695 L218 695 L83 0 Z M317 857 L562 768 L579 812 L336 908 L317 857 Z " />
<glyph glyph-name="Eacute" unicode="&#xc9;" horiz-adv-x="556" d="M83 0 L502 0 L512 57 L158 57 L212 334 L528 334 L540 390 L223 390 L271 638 L619 638 L630 695 L218 695 L83 0 Z M321 813 L336 769 L585 856 L569 906 L321 813 Z " />
<glyph glyph-name="Ecircumflex" unicode="&#xca;" horiz-adv-x="556" d="M83 0 L502 0 L512 57 L158 57 L212 334 L528 334 L540 390 L223 390 L271 638 L619 638 L630 695 L218 695 L83 0 Z M284 771 L350 771 L457 859 L528 771 L584 771 L487 901 L435 901 L284 771 Z " />
<glyph glyph-name="Edieresis" unicode="&#xcb;" horiz-adv-x="556" d="M83 0 L502 0 L512 57 L158 57 L212 334 L528 334 L540 390 L223 390 L271 638 L619 638 L630 695 L218 695 L83 0 Z M297 830 C297 800 317 782 345 782 C378 782 406 808 406 841 C406 870 388 890 359 890 C325 890 297 863 297 830 L297 830 Z M483 830 C483 800 503 782 531 782 C564 782 592 808 592 841 C592 870 574 890 545 890 C511 890 483 863 483 830 L483 830 Z " />
<glyph glyph-name="Igrave" unicode="&#xcc;" horiz-adv-x="240" d="M83 0 L147 0 L282 695 L218 695 L83 0 Z M138 857 L383 768 L400 812 L157 908 L138 857 Z " />
<glyph glyph-name="Iacute" unicode="&#xcd;" horiz-adv-x="240" d="M83 0 L147 0 L282 695 L218 695 L83 0 Z M155 813 L170 769 L419 856 L403 906 L155 813 Z " />
<glyph glyph-name="Icircumflex" unicode="&#xce;" horiz-adv-x="240" d="M83 0 L147 0 L282 695 L218 695 L83 0 Z M114 771 L180 771 L287 859 L358 771 L414 771 L317 901 L265 901 L114 771 Z " />
<glyph glyph-name="Idieresis" unicode="&#xcf;" horiz-adv-x="240" d="M83 0 L147 0 L282 695 L218 695 L83 0 Z M128 830 C128 800 148 782 176 782 C209 782 237 808 237 841 C237 870 219 890 190 890 C156 890 128 863 128 830 L128 830 Z M314 830 C314 800 334 782 362 782 C395 782 423 808 423 841 C423 870 405 890 376 890 C342 890 314 863 314 830 L314 830 Z " />
<glyph glyph-name="Eth" unicode="&#xd0;" horiz-adv-x="723" d="M90 0 L339 0 C561 0 732 178 732 399 C732 578 619 695 446 695 L225 695 L165 385 L79 385 L70 338 L156 338 L90 0 Z M165 57 L220 338 L363 338 L372 385 L229 385 L278 638 L437 638 C577 638 665 545 665 398 C665 212 522 57 345 57 L165 57 Z " />
<glyph glyph-name="Ntilde" unicode="&#xd1;" horiz-adv-x="686" d="M527 0 L580 0 L715 695 L652 695 L538 112 L272 695 L218 695 L83 0 L147 0 L261 583 L527 0 Z M323 801 L367 781 C378 813 395 831 424 831 C474 831 487 779 551 779 C604 779 637 816 653 864 L611 883 C600 851 581 833 551 833 C500 833 487 885 425 885 C373 885 340 847 323 801 L323 801 Z " />
<glyph glyph-name="Ograve" unicode="&#xd2;" horiz-adv-x="787" d="M401 -11 C617 -11 793 172 793 398 C793 583 673 706 495 706 C278 706 102 521 102 298 C102 114 222 -11 401 -11 L401 -11 Z M169 302 C169 489 313 645 490 645 C633 645 727 544 727 394 C727 207 582 50 406 50 C263 50 169 151 169 302 L169 302 Z M411 857 L656 768 L673 812 L430 908 L411 857 Z " />
<glyph glyph-name="Oacute" unicode="&#xd3;" horiz-adv-x="787" d="M401 -11 C617 -11 793 172 793 398 C793 583 673 706 495 706 C278 706 102 521 102 298 C102 114 222 -11 401 -11 L401 -11 Z M169 302 C169 489 313 645 490 645 C633 645 727 544 727 394 C727 207 582 50 406 50 C263 50 169 151 169 302 L169 302 Z M418 813 L433 769 L682 856 L666 906 L418 813 Z " />
<glyph glyph-name="Ocircumflex" unicode="&#xd4;" horiz-adv-x="787" d="M401 -11 C617 -11 793 172 793 398 C793 583 673 706 495 706 C278 706 102 521 102 298 C102 114 222 -11 401 -11 L401 -11 Z M169 302 C169 489 313 645 490 645 C633 645 727 544 727 394 C727 207 582 50 406 50 C263 50 169 151 169 302 L169 302 Z M372 771 L438 771 L545 859 L616 771 L672 771 L575 901 L523 901 L372 771 Z " />
<glyph glyph-name="Otilde" unicode="&#xd5;" horiz-adv-x="787" d="M401 -11 C617 -11 793 172 793 398 C793 583 673 706 495 706 C278 706 102 521 102 298 C102 114 222 -11 401 -11 L401 -11 Z M169 302 C169 489 313 645 490 645 C633 645 727 544 727 394 C727 207 582 50 406 50 C263 50 169 151 169 302 L169 302 Z M372 801 L416 781 C427 813 444 831 473 831 C523 831 536 779 600 779 C653 779 686 816 702 864 L660 883 C649 851 630 833 600 833 C549 833 536 885 474 885 C422 885 389 847 372 801 L372 801 Z " />
<glyph glyph-name="Odieresis" unicode="&#xd6;" horiz-adv-x="787" d="M401 -11 C617 -11 793 172 793 398 C793 583 673 706 495 706 C278 706 102 521 102 298 C102 114 222 -11 401 -11 L401 -11 Z M169 302 C169 489 313 645 490 645 C633 645 727 544 727 394 C727 207 582 50 406 50 C263 50 169 151 169 302 L169 302 Z M388 830 C388 800 408 782 436 782 C469 782 497 808 497 841 C497 870 479 890 450 890 C416 890 388 863 388 830 L388 830 Z M574 830 C574 800 594 782 622 782 C655 782 683 808 683 841 C683 870 665 890 636 890 C602 890 574 863 574 830 L574 830 Z " />
<glyph glyph-name="multiply" unicode="&#xd7;" horiz-adv-x="470" d="M112 115 L288 265 L402 118 L445 153 L330 301 L506 452 L472 494 L297 343 L182 491 L140 455 L255 307 L79 156 L112 115 Z " />
<glyph glyph-name="Oslash" unicode="&#xd8;" horiz-adv-x="789" d="M402 -11 C618 -11 794 172 794 398 C794 471 775 535 741 585 L832 669 L800 706 L710 623 C658 676 584 706 496 706 C279 706 103 521 103 298 C103 225 122 161 156 110 L65 26 L97 -11 L187 73 C240 19 314 -11 402 -11 L402 -11 Z M170 302 C170 489 314 645 491 645 C561 645 620 620 661 578 L207 157 C183 197 170 246 170 302 L170 302 Z M236 118 L691 539 C715 499 728 450 728 394 C728 207 583 50 407 50 C336 50 278 75 236 118 L236 118 Z " />
<glyph glyph-name="Ugrave" unicode="&#xd9;" horiz-adv-x="670" d="M335 -11 C486 -11 590 80 621 244 L708 695 L644 695 L557 244 C533 120 455 49 344 49 C228 49 166 132 192 264 L275 695 L211 695 L128 264 C97 104 178 -11 335 -11 L335 -11 Z M347 857 L592 768 L609 812 L366 908 L347 857 Z " />
<glyph glyph-name="Uacute" unicode="&#xda;" horiz-adv-x="670" d="M335 -11 C486 -11 590 80 621 244 L708 695 L644 695 L557 244 C533 120 455 49 344 49 C228 49 166 132 192 264 L275 695 L211 695 L128 264 C97 104 178 -11 335 -11 L335 -11 Z M357 813 L372 769 L621 856 L605 906 L357 813 Z " />
<glyph glyph-name="Ucircumflex" unicode="&#xdb;" horiz-adv-x="670" d="M335 -11 C486 -11 590 80 621 244 L708 695 L644 695 L557 244 C533 120 455 49 344 49 C228 49 166 132 192 264 L275 695 L211 695 L128 264 C97 104 178 -11 335 -11 L335 -11 Z M314 771 L380 771 L487 859 L558 771 L614 771 L517 901 L465 901 L314 771 Z " />
<glyph glyph-name="Udieresis" unicode="&#xdc;" horiz-adv-x="670" d="M335 -11 C486 -11 590 80 621 244 L708 695 L644 695 L557 244 C533 120 455 49 344 49 C228 49 166 132 192 264 L275 695 L211 695 L128 264 C97 104 178 -11 335 -11 L335 -11 Z M334 830 C334 800 354 782 382 782 C415 782 443 808 443 841 C443 870 425 890 396 890 C362 890 334 863 334 830 L334 830 Z M520 830 C520 800 540 782 568 782 C601 782 629 808 629 841 C629 870 611 890 582 890 C548 890 520 863 520 830 L520 830 Z " />
<glyph glyph-name="Yacute" unicode="&#xdd;" horiz-adv-x="603" d="M259 0 L323 0 L378 285 L711 695 L634 695 L356 342 L208 695 L143 695 L315 289 L259 0 Z M317 813 L332 769 L581 856 L565 906 L317 813 Z " />
<glyph glyph-name="Thorn" unicode="&#xde;" horiz-adv-x="583" d="M83 0 L147 0 L177 157 L359 157 C493 157 595 236 611 362 C628 474 559 551 431 551 L254 551 L282 695 L218 695 L83 0 Z M189 215 L243 494 L419 494 C516 494 559 437 545 355 C531 271 465 215 365 215 L189 215 Z " />
<glyph glyph-name="germandbls" unicode="&#xdf;" horiz-adv-x="591" d="M353 -11 C487 -11 584 74 590 204 C594 302 541 374 465 393 C556 413 625 483 628 573 C634 668 569 742 443 742 C300 742 200 655 171 508 L73 0 L137 0 L236 511 C258 624 329 687 430 687 C514 687 564 637 562 569 C560 496 502 417 380 417 L370 362 C476 362 529 299 527 210 C525 115 459 43 354 43 C301 43 262 62 232 92 L213 36 C249 6 297 -11 353 -11 L353 -11 Z " />
<glyph glyph-name="agrave" unicode="&#xe0;" horiz-adv-x="646" d="M295 -11 C387 -11 463 37 514 106 L493 0 L553 0 L655 527 L595 527 L572 405 C547 488 482 538 385 538 C215 538 84 389 84 218 C84 81 166 -11 295 -11 L295 -11 Z M149 226 C149 361 253 481 385 481 C486 481 547 413 547 307 C547 169 445 46 314 46 C213 46 149 121 149 226 L149 226 Z M318 724 L517 603 L543 642 L346 768 L318 724 Z " />
<glyph glyph-name="aacute" unicode="&#xe1;" horiz-adv-x="646" d="M295 -11 C387 -11 463 37 514 106 L493 0 L553 0 L655 527 L595 527 L572 405 C547 488 482 538 385 538 C215 538 84 389 84 218 C84 81 166 -11 295 -11 L295 -11 Z M149 226 C149 361 253 481 385 481 C486 481 547 413 547 307 C547 169 445 46 314 46 C213 46 149 121 149 226 L149 226 Z M323 645 L346 606 L566 724 L541 769 L323 645 Z " />
<glyph glyph-name="acircumflex" unicode="&#xe2;" horiz-adv-x="646" d="M295 -11 C387 -11 463 37 514 106 L493 0 L553 0 L655 527 L595 527 L572 405 C547 488 482 538 385 538 C215 538 84 389 84 218 C84 81 166 -11 295 -11 L295 -11 Z M149 226 C149 361 253 481 385 481 C486 481 547 413 547 307 C547 169 445 46 314 46 C213 46 149 121 149 226 L149 226 Z M279 613 L343 613 L456 720 L530 613 L583 613 L486 760 L434 760 L279 613 Z " />
<glyph glyph-name="atilde" unicode="&#xe3;" horiz-adv-x="646" d="M295 -11 C387 -11 463 37 514 106 L493 0 L553 0 L655 527 L595 527 L572 405 C547 488 482 538 385 538 C215 538 84 389 84 218 C84 81 166 -11 295 -11 L295 -11 Z M149 226 C149 361 253 481 385 481 C486 481 547 413 547 307 C547 169 445 46 314 46 C213 46 149 121 149 226 L149 226 Z M280 656 L323 636 C334 668 352 686 379 686 C428 686 440 634 502 634 C554 634 587 671 603 719 L561 738 C550 706 531 688 503 688 C453 688 441 740 381 740 C330 740 297 702 280 656 L280 656 Z " />
<glyph glyph-name="adieresis" unicode="&#xe4;" horiz-adv-x="646" d="M295 -11 C387 -11 463 37 514 106 L493 0 L553 0 L655 527 L595 527 L572 405 C547 488 482 538 385 538 C215 538 84 389 84 218 C84 81 166 -11 295 -11 L295 -11 Z M149 226 C149 361 253 481 385 481 C486 481 547 413 547 307 C547 169 445 46 314 46 C213 46 149 121 149 226 L149 226 Z M296 682 C296 651 316 633 345 633 C378 633 407 661 407 692 C407 723 387 741 359 741 C326 741 296 713 296 682 L296 682 Z M478 682 C478 651 498 633 526 633 C559 633 588 661 588 692 C588 723 568 741 540 741 C507 741 478 713 478 682 L478 682 Z " />
<glyph glyph-name="aring" unicode="&#xe5;" horiz-adv-x="646" d="M295 -11 C387 -11 463 37 514 106 L493 0 L553 0 L655 527 L595 527 L572 405 C547 488 482 538 385 538 C215 538 84 389 84 218 C84 81 166 -11 295 -11 L295 -11 Z M149 226 C149 361 253 481 385 481 C486 481 547 413 547 307 C547 169 445 46 314 46 C213 46 149 121 149 226 L149 226 Z M337 668 C337 620 369 585 420 585 C478 585 527 631 527 687 C527 735 495 770 444 770 C386 770 337 724 337 668 L337 668 Z M379 671 C379 705 407 730 439 730 C468 730 485 710 485 684 C485 650 456 625 424 625 C395 625 379 645 379 671 L379 671 Z " />
<glyph glyph-name="ae" unicode="&#xe6;" horiz-adv-x="1039" d="M295 -11 C386 -11 462 36 513 105 L493 0 L553 0 L579 136 C603 45 679 -11 780 -11 C875 -11 946 24 1004 88 L964 128 C916 69 857 42 786 42 C680 42 608 114 608 222 C608 230 608 238 609 246 L1046 246 C1051 263 1059 308 1059 333 C1059 451 978 538 855 538 C764 538 684 491 633 413 L655 527 L595 527 L572 407 C547 489 482 538 385 538 C215 538 84 389 84 218 C84 81 166 -11 295 -11 L295 -11 Z M149 226 C149 361 253 481 385 481 C486 481 547 413 547 307 C547 169 445 46 314 46 C213 46 149 121 149 226 L149 226 Z M615 288 C641 401 733 488 848 488 C943 488 1001 427 1001 331 C1001 319 1000 303 997 288 L615 288 Z " />
<glyph glyph-name="ccedilla" unicode="&#xe7;" horiz-adv-x="547" d="M250 -240 C319 -240 368 -196 368 -141 C368 -98 340 -63 297 -57 L324 -11 C416 -9 484 25 535 87 L494 129 C453 80 396 47 326 47 C217 47 149 125 149 228 C149 359 249 480 382 480 C454 480 507 443 537 403 L581 448 C545 495 477 538 386 538 C217 538 84 390 84 221 C84 97 160 6 282 -9 L244 -70 L249 -80 L260 -80 C297 -80 319 -106 319 -139 C319 -174 290 -201 246 -201 C209 -201 189 -183 179 -165 L149 -192 C164 -217 199 -240 250 -240 L250 -240 Z " />
<glyph glyph-name="egrave" unicode="&#xe8;" horiz-adv-x="577" d="M309 -11 C412 -11 478 22 543 91 L496 139 C443 77 393 51 318 51 C223 51 152 121 152 222 L152 237 L581 237 C589 263 596 308 596 333 C596 451 514 538 388 538 C218 538 84 394 84 216 C84 85 177 -11 309 -11 L309 -11 Z M164 303 C195 403 280 479 385 479 C472 479 528 421 528 331 C528 323 527 313 526 303 L164 303 Z M293 723 L492 602 L518 641 L321 767 L293 723 Z " />
<glyph glyph-name="eacute" unicode="&#xe9;" horiz-adv-x="577" d="M309 -11 C412 -11 478 22 543 91 L496 139 C443 77 393 51 318 51 C223 51 152 121 152 222 L152 237 L581 237 C589 263 596 308 596 333 C596 451 514 538 388 538 C218 538 84 394 84 216 C84 85 177 -11 309 -11 L309 -11 Z M164 303 C195 403 280 479 385 479 C472 479 528 421 528 331 C528 323 527 313 526 303 L164 303 Z M300 644 L323 605 L543 723 L518 768 L300 644 Z " />
<glyph glyph-name="ecircumflex" unicode="&#xea;" horiz-adv-x="577" d="M309 -11 C412 -11 478 22 543 91 L496 139 C443 77 393 51 318 51 C223 51 152 121 152 222 L152 237 L581 237 C589 263 596 308 596 333 C596 451 514 538 388 538 C218 538 84 394 84 216 C84 85 177 -11 309 -11 L309 -11 Z M164 303 C195 403 280 479 385 479 C472 479 528 421 528 331 C528 323 527 313 526 303 L164 303 Z M249 612 L313 612 L426 719 L500 612 L553 612 L456 759 L404 759 L249 612 Z " />
<glyph glyph-name="edieresis" unicode="&#xeb;" horiz-adv-x="577" d="M309 -11 C412 -11 478 22 543 91 L496 139 C443 77 393 51 318 51 C223 51 152 121 152 222 L152 237 L581 237 C589 263 596 308 596 333 C596 451 514 538 388 538 C218 538 84 394 84 216 C84 85 177 -11 309 -11 L309 -11 Z M164 303 C195 403 280 479 385 479 C472 479 528 421 528 331 C528 323 527 313 526 303 L164 303 Z M266 681 C266 650 286 632 315 632 C348 632 377 660 377 691 C377 722 357 740 329 740 C296 740 266 712 266 681 L266 681 Z M448 681 C448 650 468 632 496 632 C529 632 558 660 558 691 C558 722 538 740 510 740 C477 740 448 712 448 681 L448 681 Z " />
<glyph glyph-name="igrave" unicode="&#xec;" horiz-adv-x="218" d="M73 0 L137 0 L239 527 L175 527 L73 0 Z M108 724 L307 603 L333 642 L136 768 L108 724 Z " />
<glyph glyph-name="iacute" unicode="&#xed;" horiz-adv-x="218" d="M73 0 L137 0 L239 527 L175 527 L73 0 Z M119 645 L142 606 L362 724 L337 769 L119 645 Z " />
<glyph glyph-name="icircumflex" unicode="&#xee;" horiz-adv-x="218" d="M73 0 L137 0 L239 527 L175 527 L73 0 Z M68 613 L132 613 L245 720 L319 613 L372 613 L275 760 L223 760 L68 613 Z " />
<glyph glyph-name="idieresis" unicode="&#xef;" horiz-adv-x="218" d="M73 0 L137 0 L239 527 L175 527 L73 0 Z M90 682 C90 651 110 633 139 633 C172 633 201 661 201 692 C201 723 181 741 153 741 C120 741 90 713 90 682 L90 682 Z M272 682 C272 651 292 633 320 633 C353 633 382 661 382 692 C382 723 362 741 334 741 C301 741 272 713 272 682 L272 682 Z " />
<glyph glyph-name="eth" unicode="&#xf0;" horiz-adv-x="610" d="M312 -11 C501 -11 629 144 629 366 C629 520 563 643 454 712 L545 790 L514 820 L413 734 C358 760 295 774 225 774 L193 723 C255 723 313 712 363 691 L244 589 L274 558 L405 670 C491 621 550 538 564 429 C527 490 456 520 385 520 C220 520 82 385 82 215 C82 86 171 -11 312 -11 L312 -11 Z M148 224 C148 359 250 463 379 463 C481 463 556 393 556 299 C556 167 453 47 321 47 C212 47 148 125 148 224 L148 224 Z " />
<glyph glyph-name="ntilde" unicode="&#xf1;" horiz-adv-x="612" d="M523 307 L464 0 L528 0 L589 317 C616 455 543 538 418 538 C333 538 261 496 219 438 L236 527 L175 527 L73 0 L137 0 L198 316 C216 410 296 480 393 480 C489 480 545 420 523 307 L523 307 Z M260 655 L303 635 C314 667 332 685 359 685 C408 685 420 633 482 633 C534 633 567 670 583 718 L541 737 C530 705 511 687 483 687 C433 687 421 739 361 739 C310 739 277 701 260 655 L260 655 Z " />
<glyph glyph-name="ograve" unicode="&#xf2;" horiz-adv-x="624" d="M315 -11 C494 -11 622 140 622 307 C622 450 528 538 392 538 C216 538 84 389 84 219 C84 78 178 -11 315 -11 L315 -11 Z M149 227 C149 356 249 480 386 480 C490 480 557 409 557 302 C557 172 459 47 322 47 C218 47 149 119 149 227 L149 227 Z M313 723 L512 602 L538 641 L341 767 L313 723 Z " />
<glyph glyph-name="oacute" unicode="&#xf3;" horiz-adv-x="624" d="M315 -11 C494 -11 622 140 622 307 C622 450 528 538 392 538 C216 538 84 389 84 219 C84 78 178 -11 315 -11 L315 -11 Z M149 227 C149 356 249 480 386 480 C490 480 557 409 557 302 C557 172 459 47 322 47 C218 47 149 119 149 227 L149 227 Z M312 644 L335 605 L555 723 L530 768 L312 644 Z " />
<glyph glyph-name="ocircumflex" unicode="&#xf4;" horiz-adv-x="624" d="M315 -11 C494 -11 622 140 622 307 C622 450 528 538 392 538 C216 538 84 389 84 219 C84 78 178 -11 315 -11 L315 -11 Z M149 227 C149 356 249 480 386 480 C490 480 557 409 557 302 C557 172 459 47 322 47 C218 47 149 119 149 227 L149 227 Z M259 612 L323 612 L436 719 L510 612 L563 612 L466 759 L414 759 L259 612 Z " />
<glyph glyph-name="otilde" unicode="&#xf5;" horiz-adv-x="624" d="M315 -11 C494 -11 622 140 622 307 C622 450 528 538 392 538 C216 538 84 389 84 219 C84 78 178 -11 315 -11 L315 -11 Z M149 227 C149 356 249 480 386 480 C490 480 557 409 557 302 C557 172 459 47 322 47 C218 47 149 119 149 227 L149 227 Z M261 655 L304 635 C315 667 333 685 360 685 C409 685 421 633 483 633 C535 633 568 670 584 718 L542 737 C531 705 512 687 484 687 C434 687 422 739 362 739 C311 739 278 701 261 655 L261 655 Z " />
<glyph glyph-name="odieresis" unicode="&#xf6;" horiz-adv-x="624" d="M315 -11 C494 -11 622 140 622 307 C622 450 528 538 392 538 C216 538 84 389 84 219 C84 78 178 -11 315 -11 L315 -11 Z M149 227 C149 356 249 480 386 480 C490 480 557 409 557 302 C557 172 459 47 322 47 C218 47 149 119 149 227 L149 227 Z M277 681 C277 650 297 632 326 632 C359 632 388 660 388 691 C388 722 368 740 340 740 C307 740 277 712 277 681 L277 681 Z M459 681 C459 650 479 632 507 632 C540 632 569 660 569 691 C569 722 549 740 521 740 C488 740 459 712 459 681 L459 681 Z " />
<glyph glyph-name="divide" unicode="&#xf7;" horiz-adv-x="464" d="M83 280 L488 280 L499 335 L94 335 L83 280 Z M205 108 C205 82 223 65 249 65 C280 65 304 89 304 120 C304 145 286 163 260 163 C229 163 205 138 205 108 L205 108 Z M276 482 C276 456 295 439 320 439 C351 439 375 464 375 494 C375 519 358 537 331 537 C300 537 276 513 276 482 L276 482 Z " />
<glyph glyph-name="oslash" unicode="&#xf8;" horiz-adv-x="616" d="M317 -11 C496 -11 624 140 624 307 C624 350 615 389 599 421 L681 484 L657 520 L576 458 C536 509 472 538 394 538 C218 538 86 389 86 219 C86 174 95 135 113 102 L35 42 L60 6 L137 65 C178 17 241 -11 317 -11 L317 -11 Z M151 227 C151 356 251 480 388 480 C447 480 494 457 524 418 L167 144 C157 168 151 196 151 227 L151 227 Z M190 106 L545 379 C554 357 559 331 559 302 C559 172 461 47 324 47 C267 47 220 69 190 106 L190 106 Z " />
<glyph glyph-name="ugrave" unicode="&#xf9;" horiz-adv-x="602" d="M272 -11 C356 -11 426 33 468 92 L451 0 L511 0 L613 527 L550 527 L488 210 C470 116 390 47 298 47 C206 47 150 106 172 220 L231 527 L168 527 L106 210 C79 71 153 -11 272 -11 L272 -11 Z M288 724 L487 603 L513 642 L316 768 L288 724 Z " />
<glyph glyph-name="uacute" unicode="&#xfa;" horiz-adv-x="602" d="M272 -11 C356 -11 426 33 468 92 L451 0 L511 0 L613 527 L550 527 L488 210 C470 116 390 47 298 47 C206 47 150 106 172 220 L231 527 L168 527 L106 210 C79 71 153 -11 272 -11 L272 -11 Z M299 645 L322 606 L542 724 L517 769 L299 645 Z " />
<glyph glyph-name="ucircumflex" unicode="&#xfb;" horiz-adv-x="602" d="M272 -11 C356 -11 426 33 468 92 L451 0 L511 0 L613 527 L550 527 L488 210 C470 116 390 47 298 47 C206 47 150 106 172 220 L231 527 L168 527 L106 210 C79 71 153 -11 272 -11 L272 -11 Z M246 613 L310 613 L423 720 L497 613 L550 613 L453 760 L401 760 L246 613 Z " />
<glyph glyph-name="udieresis" unicode="&#xfc;" horiz-adv-x="602" d="M272 -11 C356 -11 426 33 468 92 L451 0 L511 0 L613 527 L550 527 L488 210 C470 116 390 47 298 47 C206 47 150 106 172 220 L231 527 L168 527 L106 210 C79 71 153 -11 272 -11 L272 -11 Z M267 682 C267 651 287 633 316 633 C349 633 378 661 378 692 C378 723 358 741 330 741 C297 741 267 713 267 682 L267 682 Z M449 682 C449 651 469 633 497 633 C530 633 559 661 559 692 C559 723 539 741 511 741 C478 741 449 713 449 682 L449 682 Z " />
<glyph glyph-name="yacute" unicode="&#xfd;" horiz-adv-x="536" d="M224 0 L232 0 L121 -179 L186 -179 L612 527 L540 527 L270 62 L175 527 L111 527 L224 0 Z M271 645 L294 606 L514 724 L489 769 L271 645 Z " />
<glyph glyph-name="thorn" unicode="&#xfe;" horiz-adv-x="629" d="M38 -179 L102 -179 L156 104 C183 32 245 -11 333 -11 C477 -11 608 106 638 263 C668 420 586 538 441 538 C353 538 274 494 219 422 L279 731 L215 731 L38 -179 Z M186 263 C211 391 308 480 422 480 C534 480 598 387 574 263 C550 140 448 47 338 47 C225 47 161 135 186 263 L186 263 Z " />
<glyph glyph-name="ydieresis" unicode="&#xff;" horiz-adv-x="536" d="M224 0 L232 0 L121 -179 L186 -179 L612 527 L540 527 L270 62 L175 527 L111 527 L224 0 Z M233 682 C233 651 253 633 282 633 C315 633 344 661 344 692 C344 723 324 741 296 741 C263 741 233 713 233 682 L233 682 Z M415 682 C415 651 435 633 463 633 C496 633 525 661 525 692 C525 723 505 741 477 741 C444 741 415 713 415 682 L415 682 Z " />
<glyph glyph-name="Amacron" unicode="&#x100;" horiz-adv-x="617" d="M9 0 L77 0 L196 216 L491 216 L527 0 L588 0 L472 695 L395 695 L9 0 Z M225 269 L423 630 L483 269 L225 269 Z M317 810 L599 810 L609 863 L327 863 L317 810 Z " />
<glyph glyph-name="amacron" unicode="&#x101;" horiz-adv-x="646" d="M295 -11 C387 -11 463 37 514 106 L493 0 L553 0 L655 527 L595 527 L572 405 C547 488 482 538 385 538 C215 538 84 389 84 218 C84 81 166 -11 295 -11 L295 -11 Z M149 226 C149 361 253 481 385 481 C486 481 547 413 547 307 C547 169 445 46 314 46 C213 46 149 121 149 226 L149 226 Z M300 661 L572 661 L581 711 L309 711 L300 661 Z " />
<glyph glyph-name="Abreve" unicode="&#x102;" horiz-adv-x="617" d="M9 0 L77 0 L196 216 L491 216 L527 0 L588 0 L472 695 L395 695 L9 0 Z M225 269 L423 630 L483 269 L225 269 Z M342 901 C330 836 371 771 458 771 C542 771 597 831 611 901 L557 901 C548 857 512 821 462 821 C410 821 388 860 396 901 L342 901 Z " />
<glyph glyph-name="abreve" unicode="&#x103;" horiz-adv-x="646" d="M295 -11 C387 -11 463 37 514 106 L493 0 L553 0 L655 527 L595 527 L572 405 C547 488 482 538 385 538 C215 538 84 389 84 218 C84 81 166 -11 295 -11 L295 -11 Z M149 226 C149 361 253 481 385 481 C486 481 547 413 547 307 C547 169 445 46 314 46 C213 46 149 121 149 226 L149 226 Z M315 760 C301 689 344 613 433 613 C530 613 579 685 593 760 L541 760 C533 715 500 663 437 663 C377 663 357 714 366 760 L315 760 Z " />
<glyph glyph-name="Aogonek" unicode="&#x104;" horiz-adv-x="617" d="M9 0 L77 0 L196 216 L491 216 L527 0 L538 0 L520 -14 C471 -51 422 -98 422 -153 C422 -198 453 -226 501 -226 C537 -226 565 -213 586 -191 L566 -161 C553 -176 534 -183 515 -183 C488 -183 472 -169 472 -142 C472 -103 505 -71 544 -38 L588 0 L472 695 L395 695 L9 0 Z M225 269 L423 630 L483 269 L225 269 Z " />
<glyph glyph-name="aogonek" unicode="&#x105;" horiz-adv-x="646" d="M295 -11 C387 -11 463 37 514 106 L493 0 L503 0 L485 -14 C436 -51 387 -98 387 -153 C387 -198 418 -226 466 -226 C502 -226 530 -213 551 -191 L531 -161 C518 -176 499 -183 480 -183 C453 -183 437 -169 437 -142 C437 -103 470 -71 509 -38 L553 0 L655 527 L595 527 L572 405 C547 488 482 538 385 538 C215 538 84 389 84 218 C84 81 166 -11 295 -11 L295 -11 Z M149 226 C149 361 253 481 385 481 C486 481 547 413 547 307 C547 169 445 46 314 46 C213 46 149 121 149 226 L149 226 Z " />
<glyph glyph-name="Cacute" unicode="&#x106;" horiz-adv-x="682" d="M674 107 L627 153 C572 88 500 50 402 50 C262 50 169 149 169 290 C169 476 296 645 483 645 C579 645 644 605 682 550 L729 597 C684 663 599 706 491 706 C262 706 102 508 102 284 C102 111 221 -11 395 -11 C517 -11 605 31 674 107 L674 107 Z M398 813 L413 769 L662 856 L646 906 L398 813 Z " />
<glyph glyph-name="cacute" unicode="&#x107;" horiz-adv-x="547" d="M318 -11 C413 -11 483 24 535 87 L494 129 C453 80 396 47 326 47 C217 47 149 125 149 228 C149 359 249 480 382 480 C454 480 507 443 537 403 L581 448 C545 495 477 538 386 538 C217 538 84 390 84 221 C84 85 175 -11 318 -11 L318 -11 Z M315 645 L338 606 L558 724 L533 769 L315 645 Z " />
<glyph glyph-name="Cdotaccent" unicode="&#x10a;" horiz-adv-x="682" d="M674 107 L627 153 C572 88 500 50 402 50 C262 50 169 149 169 290 C169 476 296 645 483 645 C579 645 644 605 682 550 L729 597 C684 663 599 706 491 706 C262 706 102 508 102 284 C102 111 221 -11 395 -11 C517 -11 605 31 674 107 L674 107 Z M471 830 C471 802 493 782 521 782 C553 782 581 808 581 840 C581 868 561 889 532 889 C499 889 471 862 471 830 L471 830 Z " />
<glyph glyph-name="cdotaccent" unicode="&#x10b;" horiz-adv-x="547" d="M318 -11 C413 -11 483 24 535 87 L494 129 C453 80 396 47 326 47 C217 47 149 125 149 228 C149 359 249 480 382 480 C454 480 507 443 537 403 L581 448 C545 495 477 538 386 538 C217 538 84 390 84 221 C84 85 175 -11 318 -11 L318 -11 Z M364 681 C364 652 384 631 415 631 C450 631 480 660 480 695 C480 723 460 744 429 744 C394 744 364 715 364 681 L364 681 Z " />
<glyph glyph-name="Ccaron" unicode="&#x10c;" horiz-adv-x="682" d="M674 107 L627 153 C572 88 500 50 402 50 C262 50 169 149 169 290 C169 476 296 645 483 645 C579 645 644 605 682 550 L729 597 C684 663 599 706 491 706 C262 706 102 508 102 284 C102 111 221 -11 395 -11 C517 -11 605 31 674 107 L674 107 Z M387 901 L485 771 L537 771 L688 901 L622 901 L515 813 L444 901 L387 901 Z " />
<glyph glyph-name="ccaron" unicode="&#x10d;" horiz-adv-x="547" d="M318 -11 C413 -11 483 24 535 87 L494 129 C453 80 396 47 326 47 C217 47 149 125 149 228 C149 359 249 480 382 480 C454 480 507 443 537 403 L581 448 C545 495 477 538 386 538 C217 538 84 390 84 221 C84 85 175 -11 318 -11 L318 -11 Z M286 760 L382 613 L434 613 L591 760 L527 760 L413 653 L340 760 L286 760 Z " />
<glyph glyph-name="Dcaron" unicode="&#x10e;" horiz-adv-x="716" d="M83 0 L332 0 C554 0 725 178 725 399 C725 578 612 695 439 695 L218 695 L83 0 Z M158 57 L271 638 L430 638 C570 638 658 545 658 398 C658 212 515 57 338 57 L158 57 Z M353 901 L451 771 L503 771 L654 901 L588 901 L481 813 L410 901 L353 901 Z " />
<glyph glyph-name="dcaron" unicode="&#x10f;" horiz-adv-x="687" d="M295 -11 C386 -11 462 36 513 105 L493 0 L553 0 L695 731 L631 731 L570 414 C543 492 479 538 385 538 C215 538 84 389 84 218 C84 81 166 -11 295 -11 L295 -11 Z M149 226 C149 361 253 481 385 481 C486 481 547 413 547 307 C547 169 445 46 314 46 C213 46 149 121 149 226 L149 226 Z M737 514 L782 514 L848 731 L797 731 L737 514 Z " />
<glyph glyph-name="Dcroat" unicode="&#x110;" horiz-adv-x="723" d="M90 0 L339 0 C561 0 732 178 732 399 C732 578 619 695 446 695 L225 695 L165 385 L79 385 L70 338 L156 338 L90 0 Z M165 57 L220 338 L363 338 L372 385 L229 385 L278 638 L437 638 C577 638 665 545 665 398 C665 212 522 57 345 57 L165 57 Z " />
<glyph glyph-name="dcroat" unicode="&#x111;" horiz-adv-x="646" d="M295 -11 C386 -11 462 36 513 105 L493 0 L553 0 L669 599 L754 599 L763 646 L678 646 L695 731 L631 731 L615 646 L470 646 L461 599 L606 599 L570 414 C543 492 479 538 385 538 C215 538 84 389 84 218 C84 81 166 -11 295 -11 L295 -11 Z M149 226 C149 361 253 481 385 481 C486 481 547 413 547 307 C547 169 445 46 314 46 C213 46 149 121 149 226 L149 226 Z " />
<glyph glyph-name="Emacron" unicode="&#x112;" horiz-adv-x="556" d="M83 0 L502 0 L512 57 L158 57 L212 334 L528 334 L540 390 L223 390 L271 638 L619 638 L630 695 L218 695 L83 0 Z M305 810 L587 810 L597 863 L315 863 L305 810 Z " />
<glyph glyph-name="emacron" unicode="&#x113;" horiz-adv-x="577" d="M309 -11 C412 -11 478 22 543 91 L496 139 C443 77 393 51 318 51 C223 51 152 121 152 222 L152 237 L581 237 C589 263 596 308 596 333 C596 451 514 538 388 538 C218 538 84 394 84 216 C84 85 177 -11 309 -11 L309 -11 Z M164 303 C195 403 280 479 385 479 C472 479 528 421 528 331 C528 323 527 313 526 303 L164 303 Z M275 659 L547 659 L556 709 L284 709 L275 659 Z " />
<glyph glyph-name="Edotaccent" unicode="&#x116;" horiz-adv-x="556" d="M83 0 L502 0 L512 57 L158 57 L212 334 L528 334 L540 390 L223 390 L271 638 L619 638 L630 695 L218 695 L83 0 Z M390 830 C390 802 412 782 440 782 C472 782 500 808 500 840 C500 868 480 889 451 889 C418 889 390 862 390 830 L390 830 Z " />
<glyph glyph-name="edotaccent" unicode="&#x117;" horiz-adv-x="577" d="M309 -11 C412 -11 478 22 543 91 L496 139 C443 77 393 51 318 51 C223 51 152 121 152 222 L152 237 L581 237 C589 263 596 308 596 333 C596 451 514 538 388 538 C218 538 84 394 84 216 C84 85 177 -11 309 -11 L309 -11 Z M164 303 C195 403 280 479 385 479 C472 479 528 421 528 331 C528 323 527 313 526 303 L164 303 Z M359 680 C359 651 379 630 410 630 C445 630 475 659 475 694 C475 722 455 743 424 743 C389 743 359 714 359 680 L359 680 Z " />
<glyph glyph-name="Eogonek" unicode="&#x118;" horiz-adv-x="556" d="M83 0 L452 0 L434 -14 C385 -51 336 -98 336 -153 C336 -198 367 -226 415 -226 C451 -226 479 -213 500 -191 L480 -161 C467 -176 448 -183 429 -183 C402 -183 386 -169 386 -142 C386 -103 419 -71 458 -38 L502 0 L512 57 L158 57 L212 334 L528 334 L540 390 L223 390 L271 638 L619 638 L630 695 L218 695 L83 0 Z " />
<glyph glyph-name="eogonek" unicode="&#x119;" horiz-adv-x="577" d="M309 -11 C318 -11 326 -11 334 -10 C286 -47 239 -93 239 -147 C239 -192 270 -220 318 -220 C354 -220 382 -207 403 -185 L383 -155 C370 -170 351 -177 332 -177 C305 -177 289 -163 289 -136 C289 -97 322 -65 361 -32 L397 -1 C454 14 499 44 543 91 L496 139 C443 77 393 51 318 51 C223 51 152 121 152 222 L152 237 L581 237 C589 263 596 308 596 333 C596 451 514 538 388 538 C218 538 84 394 84 216 C84 85 177 -11 309 -11 L309 -11 Z M164 303 C195 403 280 479 385 479 C472 479 528 421 528 331 C528 323 527 313 526 303 L164 303 Z " />
<glyph glyph-name="Ecaron" unicode="&#x11a;" horiz-adv-x="556" d="M83 0 L502 0 L512 57 L158 57 L212 334 L528 334 L540 390 L223 390 L271 638 L619 638 L630 695 L218 695 L83 0 Z M308 901 L406 771 L458 771 L609 901 L543 901 L436 813 L365 901 L308 901 Z " />
<glyph glyph-name="ecaron" unicode="&#x11b;" horiz-adv-x="577" d="M309 -11 C412 -11 478 22 543 91 L496 139 C443 77 393 51 318 51 C223 51 152 121 152 222 L152 237 L581 237 C589 263 596 308 596 333 C596 451 514 538 388 538 C218 538 84 394 84 216 C84 85 177 -11 309 -11 L309 -11 Z M164 303 C195 403 280 479 385 479 C472 479 528 421 528 331 C528 323 527 313 526 303 L164 303 Z M280 759 L376 612 L428 612 L585 759 L521 759 L407 652 L334 759 L280 759 Z " />
<glyph glyph-name="Gbreve" unicode="&#x11e;" horiz-adv-x="747" d="M703 530 L755 581 C705 659 610 706 490 706 C272 706 102 520 102 292 C102 108 221 -11 398 -11 C595 -11 736 121 775 356 L444 356 L434 305 L702 305 C655 141 549 48 406 48 C262 48 168 145 168 297 C168 488 310 645 483 645 C592 645 666 600 703 530 L703 530 Z M400 901 C388 836 429 771 516 771 C600 771 655 831 669 901 L615 901 C606 857 570 821 520 821 C468 821 446 860 454 901 L400 901 Z " />
<glyph glyph-name="gbreve" unicode="&#x11f;" horiz-adv-x="628" d="M294 -11 C387 -11 464 38 515 109 L505 60 C480 -68 398 -134 276 -134 C190 -134 131 -102 88 -39 L46 -81 C90 -150 170 -190 272 -190 C435 -190 533 -103 566 65 L656 527 L596 527 L572 404 C548 488 482 538 384 538 C214 538 83 389 83 218 C83 81 166 -11 294 -11 L294 -11 Z M148 226 C148 361 252 481 385 481 C485 481 546 413 546 307 C546 169 445 46 313 46 C212 46 148 121 148 226 L148 226 Z M308 760 C294 689 337 613 426 613 C523 613 572 685 586 760 L534 760 C526 715 493 663 430 663 C370 663 350 714 359 760 L308 760 Z " />
<glyph glyph-name="Gdotaccent" unicode="&#x120;" horiz-adv-x="747" d="M703 530 L755 581 C705 659 610 706 490 706 C272 706 102 520 102 292 C102 108 221 -11 398 -11 C595 -11 736 121 775 356 L444 356 L434 305 L702 305 C655 141 549 48 406 48 C262 48 168 145 168 297 C168 488 310 645 483 645 C592 645 666 600 703 530 L703 530 Z M464 830 C464 802 486 782 514 782 C546 782 574 808 574 840 C574 868 554 889 525 889 C492 889 464 862 464 830 L464 830 Z " />
<glyph glyph-name="gdotaccent" unicode="&#x121;" horiz-adv-x="628" d="M294 -11 C387 -11 464 38 515 109 L505 60 C480 -68 398 -134 276 -134 C190 -134 131 -102 88 -39 L46 -81 C90 -150 170 -190 272 -190 C435 -190 533 -103 566 65 L656 527 L596 527 L572 404 C548 488 482 538 384 538 C214 538 83 389 83 218 C83 81 166 -11 294 -11 L294 -11 Z M148 226 C148 361 252 481 385 481 C485 481 546 413 546 307 C546 169 445 46 313 46 C212 46 148 121 148 226 L148 226 Z M370 681 C370 652 390 631 421 631 C456 631 486 660 486 695 C486 723 466 744 435 744 C400 744 370 715 370 681 L370 681 Z " />
<glyph glyph-name="uni0122" unicode="&#x122;" horiz-adv-x="747" d="M703 530 L755 581 C705 659 610 706 490 706 C272 706 102 520 102 292 C102 108 221 -11 398 -11 C595 -11 736 121 775 356 L444 356 L434 305 L702 305 C655 141 549 48 406 48 C262 48 168 145 168 297 C168 488 310 645 483 645 C592 645 666 600 703 530 L703 530 Z M294 -216 L322 -233 L375 -164 C398 -133 412 -112 412 -89 C412 -65 395 -49 370 -49 C341 -49 318 -74 318 -101 C318 -123 330 -138 348 -141 L294 -216 Z " />
<glyph glyph-name="uni0123" unicode="&#x123;" horiz-adv-x="628" d="M294 -11 C387 -11 464 38 515 109 L505 60 C480 -68 398 -134 276 -134 C190 -134 131 -102 88 -39 L46 -81 C90 -150 170 -190 272 -190 C435 -190 533 -103 566 65 L656 527 L596 527 L572 404 C548 488 482 538 384 538 C214 538 83 389 83 218 C83 81 166 -11 294 -11 L294 -11 Z M148 226 C148 361 252 481 385 481 C485 481 546 413 546 307 C546 169 445 46 313 46 C212 46 148 121 148 226 L148 226 Z M362 642 C362 618 379 602 404 602 C433 602 456 627 456 654 C456 676 444 691 426 694 L480 769 L452 786 L399 717 C376 686 362 665 362 642 L362 642 Z " />
<glyph glyph-name="Hbar" unicode="&#x126;" horiz-adv-x="700" d="M524 0 L588 0 L690 523 L753 523 L763 575 L700 575 L723 695 L659 695 L636 575 L267 575 L290 695 L226 695 L203 575 L139 575 L129 523 L193 523 L91 0 L155 0 L220 333 L589 333 L524 0 Z M231 391 L257 523 L626 523 L600 391 L231 391 Z " />
<glyph glyph-name="hbar" unicode="&#x127;" horiz-adv-x="612" d="M73 0 L137 0 L200 325 C221 415 299 480 393 480 C489 480 545 420 523 307 L464 0 L528 0 L589 317 C616 456 543 538 418 538 C335 538 266 499 223 444 L253 599 L401 599 L410 646 L263 646 L279 731 L215 731 L198 646 L117 646 L108 599 L189 599 L73 0 Z " />
<glyph glyph-name="Itilde" unicode="&#x128;" horiz-adv-x="240" d="M83 0 L147 0 L282 695 L218 695 L83 0 Z M129 801 L167 781 C176 813 191 831 216 831 C259 831 270 779 326 779 C371 779 400 816 414 864 L377 883 C368 851 352 833 326 833 C282 833 270 885 217 885 C172 885 143 847 129 801 L129 801 Z " />
<glyph glyph-name="itilde" unicode="&#x129;" horiz-adv-x="218" d="M73 0 L137 0 L239 527 L175 527 L73 0 Z M104 656 L139 636 C148 668 162 686 184 686 C224 686 234 634 285 634 C327 634 354 671 367 719 L333 738 C324 706 308 688 286 688 C245 688 235 740 186 740 C144 740 118 702 104 656 L104 656 Z " />
<glyph glyph-name="Imacron" unicode="&#x12a;" horiz-adv-x="240" d="M83 0 L147 0 L282 695 L218 695 L83 0 Z M151 810 L370 810 L378 863 L159 863 L151 810 Z " />
<glyph glyph-name="imacron" unicode="&#x12b;" horiz-adv-x="218" d="M73 0 L137 0 L239 527 L175 527 L73 0 Z M112 661 L330 661 L337 711 L120 711 L112 661 Z " />
<glyph glyph-name="Iogonek" unicode="&#x12e;" horiz-adv-x="240" d="M83 0 L97 0 L79 -14 C30 -51 -19 -98 -19 -153 C-19 -198 12 -226 60 -226 C96 -226 124 -213 145 -191 L125 -161 C112 -176 93 -183 74 -183 C47 -183 31 -169 31 -142 C31 -103 64 -71 103 -38 L147 0 L282 695 L218 695 L83 0 Z " />
<glyph glyph-name="iogonek" unicode="&#x12f;" horiz-adv-x="220" d="M73 0 L87 0 L69 -14 C20 -51 -29 -98 -29 -153 C-29 -198 2 -226 50 -226 C86 -226 114 -213 135 -191 L115 -161 C102 -176 83 -183 64 -183 C37 -183 21 -169 21 -142 C21 -103 54 -71 93 -38 L137 0 L239 527 L175 527 L73 0 Z M180 681 C180 652 200 631 231 631 C266 631 296 660 296 695 C296 723 276 744 245 744 C210 744 180 715 180 681 L180 681 Z " />
<glyph glyph-name="Idotaccent" unicode="&#x130;" horiz-adv-x="240" d="M83 0 L147 0 L282 695 L218 695 L83 0 Z M224 830 C224 802 246 782 274 782 C306 782 334 808 334 840 C334 868 314 889 285 889 C252 889 224 862 224 830 L224 830 Z " />
<glyph glyph-name="dotlessi" unicode="&#x131;" horiz-adv-x="212" d="M73 0 L137 0 L239 527 L175 527 L73 0 Z " />
<glyph glyph-name="IJ" unicode="&#x132;" horiz-adv-x="573" d="M83 0 L147 0 L282 695 L218 695 L83 0 Z M261 0 L316 0 C422 0 495 61 516 170 L618 695 L554 695 L454 178 C439 104 388 57 317 57 L272 57 L261 0 Z " />
<glyph glyph-name="ij" unicode="&#x133;" horiz-adv-x="445" d="M73 0 L137 0 L239 527 L175 527 L73 0 Z M141 -181 L159 -181 C261 -181 340 -117 363 -1 L465 527 L401 527 L299 -2 C284 -77 231 -125 167 -125 L152 -125 L141 -181 Z M180 681 C180 652 200 631 231 631 C266 631 296 660 296 695 C296 723 276 744 245 744 C210 744 180 715 180 681 L180 681 Z M408 680 C408 651 428 630 459 630 C494 630 524 659 524 694 C524 722 504 743 473 743 C438 743 408 714 408 680 L408 680 Z " />
<glyph glyph-name="uni0136" unicode="&#x136;" horiz-adv-x="603" d="M518 0 L592 0 L283 363 L692 695 L607 695 L222 384 L282 695 L218 695 L83 0 L147 0 L215 350 L518 0 Z M233 -216 L261 -233 L314 -164 C337 -133 351 -112 351 -89 C351 -65 334 -49 309 -49 C280 -49 257 -74 257 -101 C257 -123 269 -138 287 -141 L233 -216 Z " />
<glyph glyph-name="uni0137" unicode="&#x137;" horiz-adv-x="498" d="M73 0 L137 0 L190 274 L414 0 L485 0 L260 281 L578 527 L495 527 L196 303 L279 731 L215 731 L73 0 Z M185 -216 L213 -233 L266 -164 C289 -133 303 -112 303 -89 C303 -65 286 -49 261 -49 C232 -49 209 -74 209 -101 C209 -123 221 -138 239 -141 L185 -216 Z " />
<glyph glyph-name="kgreenlandic" unicode="&#x138;" horiz-adv-x="484" d="M73 0 L137 0 L186 252 L411 0 L485 0 L255 270 L579 527 L502 527 L192 285 L239 527 L175 527 L73 0 Z " />
<glyph glyph-name="Lacute" unicode="&#x139;" horiz-adv-x="525" d="M83 0 L496 0 L507 58 L158 58 L282 695 L218 695 L83 0 Z M148 813 L163 769 L412 856 L396 906 L148 813 Z " />
<glyph glyph-name="lacute" unicode="&#x13a;" horiz-adv-x="218" d="M73 0 L137 0 L279 731 L215 731 L73 0 Z M139 849 L154 805 L403 892 L387 942 L139 849 Z " />
<glyph glyph-name="uni013B" unicode="&#x13b;" horiz-adv-x="525" d="M83 0 L496 0 L507 58 L158 58 L282 695 L218 695 L83 0 Z M209 -216 L237 -233 L290 -164 C313 -133 327 -112 327 -89 C327 -65 310 -49 285 -49 C256 -49 233 -74 233 -101 C233 -123 245 -138 263 -141 L209 -216 Z " />
<glyph glyph-name="uni013C" unicode="&#x13c;" horiz-adv-x="218" d="M73 0 L137 0 L279 731 L215 731 L73 0 Z M17 -216 L45 -233 L98 -164 C121 -133 135 -112 135 -89 C135 -65 118 -49 93 -49 C64 -49 41 -74 41 -101 C41 -123 53 -138 71 -141 L17 -216 Z " />
<glyph glyph-name="Lcaron" unicode="&#x13d;" horiz-adv-x="528" d="M83 0 L496 0 L507 58 L158 58 L282 695 L218 695 L83 0 Z M447 488 L492 488 L558 705 L507 705 L447 488 Z " />
<glyph glyph-name="lcaron" unicode="&#x13e;" horiz-adv-x="258" d="M73 0 L137 0 L279 731 L215 731 L73 0 Z M308 514 L353 514 L419 731 L368 731 L308 514 Z " />
<glyph glyph-name="Ldot" unicode="&#x13f;" horiz-adv-x="531" d="M83 0 L496 0 L507 58 L158 58 L282 695 L218 695 L83 0 Z M403 366 C403 340 421 322 447 322 C479 322 503 348 503 377 C503 402 484 420 458 420 C427 420 403 395 403 366 L403 366 Z " />
<glyph glyph-name="ldot" unicode="&#x140;" horiz-adv-x="286" d="M73 0 L137 0 L279 731 L215 731 L73 0 Z M263 366 C263 340 281 322 307 322 C339 322 363 348 363 377 C363 402 344 420 318 420 C287 420 263 395 263 366 L263 366 Z " />
<glyph glyph-name="Lslash" unicode="&#x141;" horiz-adv-x="562" d="M120 0 L533 0 L544 58 L195 58 L250 340 L380 391 L366 433 L260 392 L319 695 L255 695 L191 364 L80 321 L94 278 L181 312 L120 0 Z " />
<glyph glyph-name="lslash" unicode="&#x142;" horiz-adv-x="250" d="M92 0 L156 0 L225 356 L345 419 L324 459 L236 413 L298 731 L234 731 L165 375 L46 313 L66 273 L154 319 L92 0 Z " />
<glyph glyph-name="Nacute" unicode="&#x143;" horiz-adv-x="686" d="M527 0 L580 0 L715 695 L652 695 L538 112 L272 695 L218 695 L83 0 L147 0 L261 583 L527 0 Z M356 813 L371 769 L620 856 L604 906 L356 813 Z " />
<glyph glyph-name="nacute" unicode="&#x144;" horiz-adv-x="612" d="M523 307 L464 0 L528 0 L589 317 C616 455 543 538 418 538 C333 538 261 496 219 438 L236 527 L175 527 L73 0 L137 0 L198 316 C216 410 296 480 393 480 C489 480 545 420 523 307 L523 307 Z M317 644 L340 605 L560 723 L535 768 L317 644 Z " />
<glyph glyph-name="uni0145" unicode="&#x145;" horiz-adv-x="686" d="M527 0 L580 0 L715 695 L652 695 L538 112 L272 695 L218 695 L83 0 L147 0 L261 583 L527 0 Z M254 -216 L282 -233 L335 -164 C358 -133 372 -112 372 -89 C372 -65 355 -49 330 -49 C301 -49 278 -74 278 -101 C278 -123 290 -138 308 -141 L254 -216 Z " />
<glyph glyph-name="uni0146" unicode="&#x146;" horiz-adv-x="612" d="M523 307 L464 0 L528 0 L589 317 C616 455 543 538 418 538 C333 538 261 496 219 438 L236 527 L175 527 L73 0 L137 0 L198 316 C216 410 296 480 393 480 C489 480 545 420 523 307 L523 307 Z M223 -216 L251 -233 L304 -164 C327 -133 341 -112 341 -89 C341 -65 324 -49 299 -49 C270 -49 247 -74 247 -101 C247 -123 259 -138 277 -141 L223 -216 Z " />
<glyph glyph-name="Ncaron" unicode="&#x147;" horiz-adv-x="686" d="M527 0 L580 0 L715 695 L652 695 L538 112 L272 695 L218 695 L83 0 L147 0 L261 583 L527 0 Z M352 901 L450 771 L502 771 L653 901 L587 901 L480 813 L409 901 L352 901 Z " />
<glyph glyph-name="ncaron" unicode="&#x148;" horiz-adv-x="612" d="M523 307 L464 0 L528 0 L589 317 C616 455 543 538 418 538 C333 538 261 496 219 438 L236 527 L175 527 L73 0 L137 0 L198 316 C216 410 296 480 393 480 C489 480 545 420 523 307 L523 307 Z M291 759 L387 612 L439 612 L596 759 L532 759 L418 652 L345 759 L291 759 Z " />
<glyph glyph-name="napostrophe" unicode="&#x149;" horiz-adv-x="694" d="M604 307 L545 0 L609 0 L670 317 C697 455 624 538 499 538 C414 538 342 496 300 438 L317 527 L256 527 L154 0 L218 0 L279 316 C297 410 377 480 474 480 C570 480 626 420 604 307 L604 307 Z M117 521 L162 521 L228 738 L177 738 L117 521 Z " />
<glyph glyph-name="Eng" unicode="&#x14a;" horiz-adv-x="686" d="M352 -195 L376 -195 C482 -195 553 -135 575 -25 L580 0 L715 695 L652 695 L538 112 L272 695 L218 695 L83 0 L147 0 L261 583 L524 7 L519 -17 C504 -91 453 -138 382 -138 L362 -138 L352 -195 Z " />
<glyph glyph-name="eng" unicode="&#x14b;" horiz-adv-x="596" d="M523 306 L464 -1 C449 -75 396 -125 330 -125 L320 -125 L308 -181 L322 -181 C423 -181 506 -109 528 -1 L589 316 C616 451 554 538 420 538 C335 538 261 492 219 436 L236 527 L175 527 L73 0 L137 0 L202 335 C221 410 301 479 395 480 C498 481 543 416 523 306 L523 306 Z " />
<glyph glyph-name="Omacron" unicode="&#x14c;" horiz-adv-x="787" d="M401 -11 C617 -11 793 172 793 398 C793 583 673 706 495 706 C278 706 102 521 102 298 C102 114 222 -11 401 -11 L401 -11 Z M169 302 C169 489 313 645 490 645 C633 645 727 544 727 394 C727 207 582 50 406 50 C263 50 169 151 169 302 L169 302 Z M383 810 L665 810 L675 863 L393 863 L383 810 Z " />
<glyph glyph-name="omacron" unicode="&#x14d;" horiz-adv-x="624" d="M315 -11 C494 -11 622 140 622 307 C622 450 528 538 392 538 C216 538 84 389 84 219 C84 78 178 -11 315 -11 L315 -11 Z M149 227 C149 356 249 480 386 480 C490 480 557 409 557 302 C557 172 459 47 322 47 C218 47 149 119 149 227 L149 227 Z M286 660 L558 660 L567 710 L295 710 L286 660 Z " />
<glyph glyph-name="Ohungarumlaut" unicode="&#x150;" horiz-adv-x="787" d="M401 -11 C617 -11 793 172 793 398 C793 583 673 706 495 706 C278 706 102 521 102 298 C102 114 222 -11 401 -11 L401 -11 Z M169 302 C169 489 313 645 490 645 C633 645 727 544 727 394 C727 207 582 50 406 50 C263 50 169 151 169 302 L169 302 Z M379 773 L415 744 L558 906 L518 938 L379 773 Z M560 773 L594 744 L738 906 L698 938 L560 773 Z " />
<glyph glyph-name="ohungarumlaut" unicode="&#x151;" horiz-adv-x="624" d="M315 -11 C494 -11 622 140 622 307 C622 450 528 538 392 538 C216 538 84 389 84 219 C84 78 178 -11 315 -11 L315 -11 Z M149 227 C149 356 249 480 386 480 C490 480 557 409 557 302 C557 172 459 47 322 47 C218 47 149 119 149 227 L149 227 Z M284 632 L318 603 L459 749 L419 782 L284 632 Z M457 632 L492 603 L632 749 L593 782 L457 632 Z " />
<glyph glyph-name="OE" unicode="&#x152;" horiz-adv-x="1113" d="M401 -11 C514 -11 612 45 681 127 L656 0 L1074 0 L1085 57 L731 57 L785 334 L1101 334 L1112 390 L796 390 L844 638 L1192 638 L1203 695 L791 695 L759 530 C720 640 628 706 495 706 C278 706 102 521 102 298 C102 114 222 -11 401 -11 L401 -11 Z M169 302 C169 489 313 645 490 645 C633 645 723 544 723 394 C723 207 582 50 406 50 C263 50 169 151 169 302 L169 302 Z " />
<glyph glyph-name="oe" unicode="&#x153;" horiz-adv-x="1048" d="M315 -11 C424 -11 514 45 568 127 C600 44 677 -11 777 -11 C880 -11 946 22 1011 91 L964 139 C911 77 861 51 786 51 C691 51 620 121 620 222 L620 237 L1049 237 C1057 263 1064 308 1064 333 C1064 451 982 538 856 538 C752 538 661 484 606 401 C574 487 495 538 392 538 C216 538 84 389 84 219 C84 78 178 -11 315 -11 L315 -11 Z M149 227 C149 356 249 480 386 480 C490 480 557 409 557 302 C557 172 459 47 322 47 C218 47 149 119 149 227 L149 227 Z M632 303 C663 403 748 479 853 479 C940 479 996 421 996 331 C996 323 995 313 994 303 L632 303 Z " />
<glyph glyph-name="Racute" unicode="&#x154;" horiz-adv-x="599" d="M83 0 L147 0 L209 319 L284 319 L474 0 L543 0 L349 319 L391 319 C545 319 643 410 643 529 C643 630 574 695 450 695 L218 695 L83 0 Z M219 368 L271 638 L441 638 C530 638 578 594 578 521 C578 433 505 368 397 368 L219 368 Z M321 813 L336 769 L585 856 L569 906 L321 813 Z " />
<glyph glyph-name="racute" unicode="&#x155;" horiz-adv-x="328" d="M73 0 L137 0 L200 325 C221 409 297 477 395 478 L406 538 C327 538 259 491 218 434 L236 527 L175 527 L73 0 Z M196 644 L219 605 L439 723 L414 768 L196 644 Z " />
<glyph glyph-name="uni0156" unicode="&#x156;" horiz-adv-x="599" d="M83 0 L147 0 L209 319 L284 319 L474 0 L543 0 L349 319 L391 319 C545 319 643 410 643 529 C643 630 574 695 450 695 L218 695 L83 0 Z M218 -216 L246 -233 L299 -164 C322 -133 336 -112 336 -89 C336 -65 319 -49 294 -49 C265 -49 242 -74 242 -101 C242 -123 254 -138 272 -141 L218 -216 Z M219 368 L271 638 L441 638 C530 638 578 594 578 521 C578 433 505 368 397 368 L219 368 Z " />
<glyph glyph-name="uni0157" unicode="&#x157;" horiz-adv-x="328" d="M73 0 L137 0 L200 325 C221 409 297 477 395 478 L406 538 C327 538 259 491 218 434 L236 527 L175 527 L73 0 Z M18 -216 L46 -233 L99 -164 C122 -133 136 -112 136 -89 C136 -65 119 -49 94 -49 C65 -49 42 -74 42 -101 C42 -123 54 -138 72 -141 L18 -216 Z " />
<glyph glyph-name="Rcaron" unicode="&#x158;" horiz-adv-x="599" d="M83 0 L147 0 L209 319 L284 319 L474 0 L543 0 L349 319 L391 319 C545 319 643 410 643 529 C643 630 574 695 450 695 L218 695 L83 0 Z M219 368 L271 638 L441 638 C530 638 578 594 578 521 C578 433 505 368 397 368 L219 368 Z M309 901 L407 771 L459 771 L610 901 L544 901 L437 813 L366 901 L309 901 Z " />
<glyph glyph-name="rcaron" unicode="&#x159;" horiz-adv-x="328" d="M73 0 L137 0 L200 325 C221 409 297 477 395 478 L406 538 C327 538 259 491 218 434 L236 527 L175 527 L73 0 Z M175 759 L271 612 L323 612 L480 759 L416 759 L302 652 L229 759 L175 759 Z " />
<glyph glyph-name="Sacute" unicode="&#x15a;" horiz-adv-x="536" d="M291 -11 C437 -11 530 68 530 191 C530 405 235 371 235 526 C235 600 298 650 390 650 C465 650 522 618 555 572 L600 617 C564 663 492 706 395 706 C260 706 168 629 168 518 C168 320 463 355 463 182 C463 99 401 46 301 46 C208 46 143 86 99 148 L50 104 C96 35 176 -11 291 -11 L291 -11 Z M294 814 L309 770 L558 857 L542 907 L294 814 Z " />
<glyph glyph-name="sacute" unicode="&#x15b;" horiz-adv-x="454" d="M252 -12 C364 -12 460 49 460 151 C460 322 189 277 189 393 C189 444 249 478 316 478 C365 478 407 462 441 426 L490 475 C452 514 395 538 318 538 C202 538 122 477 122 386 C122 221 392 267 392 144 C392 84 321 50 259 50 C197 50 143 70 95 123 L41 70 C87 23 156 -12 252 -12 L252 -12 Z M247 645 L270 606 L490 724 L465 769 L247 645 Z " />
<glyph glyph-name="Scedilla" unicode="&#x15e;" horiz-adv-x="536" d="M229 -240 C298 -240 347 -196 347 -141 C347 -98 319 -63 276 -57 L303 -11 C442 -7 530 71 530 191 C530 405 235 371 235 526 C235 600 298 650 390 650 C465 650 522 618 555 572 L600 617 C564 663 492 706 395 706 C260 706 168 629 168 518 C168 320 463 355 463 182 C463 99 401 46 301 46 C208 46 143 86 99 148 L50 104 C92 41 162 -2 260 -10 L223 -70 L228 -80 L239 -80 C276 -80 298 -106 298 -139 C298 -174 269 -201 225 -201 C188 -201 168 -183 158 -165 L128 -192 C143 -217 178 -240 229 -240 L229 -240 Z " />
<glyph glyph-name="scedilla" unicode="&#x15f;" horiz-adv-x="454" d="M193 -240 C262 -240 311 -196 311 -141 C311 -98 283 -63 240 -57 L267 -12 C372 -7 460 53 460 151 C460 322 189 277 189 393 C189 444 249 478 316 478 C365 478 407 462 441 426 L490 475 C452 514 395 538 318 538 C202 538 122 477 122 386 C122 221 392 267 392 144 C392 84 321 50 259 50 C197 50 143 70 95 123 L41 70 C82 28 142 -5 224 -11 L187 -70 L192 -80 L203 -80 C240 -80 262 -106 262 -139 C262 -174 233 -201 189 -201 C152 -201 132 -183 122 -165 L92 -192 C107 -217 142 -240 193 -240 L193 -240 Z " />
<glyph glyph-name="Scaron" unicode="&#x160;" horiz-adv-x="536" d="M291 -11 C437 -11 530 68 530 191 C530 405 235 371 235 526 C235 600 298 650 390 650 C465 650 522 618 555 572 L600 617 C564 663 492 706 395 706 C260 706 168 629 168 518 C168 320 463 355 463 182 C463 99 401 46 301 46 C208 46 143 86 99 148 L50 104 C96 35 176 -11 291 -11 L291 -11 Z M285 902 L383 772 L435 772 L586 902 L520 902 L413 814 L342 902 L285 902 Z " />
<glyph glyph-name="scaron" unicode="&#x161;" horiz-adv-x="454" d="M252 -12 C364 -12 460 49 460 151 C460 322 189 277 189 393 C189 444 249 478 316 478 C365 478 407 462 441 426 L490 475 C452 514 395 538 318 538 C202 538 122 477 122 386 C122 221 392 267 392 144 C392 84 321 50 259 50 C197 50 143 70 95 123 L41 70 C87 23 156 -12 252 -12 L252 -12 Z M218 760 L314 613 L366 613 L523 760 L459 760 L345 653 L272 760 L218 760 Z " />
<glyph glyph-name="uni0162" unicode="&#x162;" horiz-adv-x="539" d="M229 0 L241 0 L195 -74 L200 -84 L211 -84 C248 -84 270 -110 270 -143 C270 -178 241 -205 197 -205 C160 -205 140 -187 130 -169 L100 -196 C115 -221 150 -244 201 -244 C270 -244 319 -200 319 -145 C319 -102 291 -67 248 -61 L284 0 L293 0 L417 637 L634 637 L645 695 L147 695 L136 637 L353 637 L229 0 Z " />
<glyph glyph-name="uni0163" unicode="&#x163;" horiz-adv-x="358" d="M279 0 L341 0 L352 57 L301 57 C226 57 189 102 206 186 L261 471 L424 471 L434 527 L274 527 L300 661 L239 661 L222 573 C216 542 200 527 169 527 L112 527 L102 471 L198 471 L141 180 C123 92 154 29 222 8 L179 -62 L184 -72 L195 -72 C232 -72 254 -98 254 -131 C254 -166 225 -193 181 -193 C144 -193 124 -175 114 -157 L84 -184 C99 -209 134 -232 185 -232 C254 -232 303 -188 303 -133 C303 -90 275 -55 232 -49 L261 1 C267 0 273 0 279 0 L279 0 Z " />
<glyph glyph-name="Tcaron" unicode="&#x164;" horiz-adv-x="539" d="M229 0 L293 0 L417 637 L634 637 L645 695 L147 695 L136 637 L353 637 L229 0 Z M282 901 L380 771 L432 771 L583 901 L517 901 L410 813 L339 901 L282 901 Z " />
<glyph glyph-name="tcaron" unicode="&#x165;" horiz-adv-x="358" d="M279 0 L341 0 L352 57 L301 57 C226 57 189 102 206 186 L261 471 L424 471 L434 527 L274 527 L300 661 L239 661 L222 573 C216 542 200 527 169 527 L112 527 L102 471 L198 471 L141 180 C119 70 172 0 279 0 L279 0 Z M383 560 L428 560 L494 777 L443 777 L383 560 Z " />
<glyph glyph-name="Tbar" unicode="&#x166;" horiz-adv-x="549" d="M234 0 L298 0 L358 308 L472 308 L481 355 L367 355 L422 637 L639 637 L650 695 L152 695 L141 637 L358 637 L303 355 L188 355 L179 308 L294 308 L234 0 Z " />
<glyph glyph-name="tbar" unicode="&#x167;" horiz-adv-x="367" d="M285 0 L347 0 L358 57 L307 57 C232 57 195 102 212 186 L226 258 L362 258 L371 305 L235 305 L267 471 L430 471 L440 527 L280 527 L306 661 L245 661 L228 573 C222 542 206 527 175 527 L118 527 L108 471 L204 471 L171 305 L86 305 L77 258 L162 258 L147 180 C125 70 178 0 285 0 L285 0 Z " />
<glyph glyph-name="Utilde" unicode="&#x168;" horiz-adv-x="670" d="M335 -11 C486 -11 590 80 621 244 L708 695 L644 695 L557 244 C533 120 455 49 344 49 C228 49 166 132 192 264 L275 695 L211 695 L128 264 C97 104 178 -11 335 -11 L335 -11 Z M318 801 L362 781 C373 813 390 831 419 831 C469 831 482 779 546 779 C599 779 632 816 648 864 L606 883 C595 851 576 833 546 833 C495 833 482 885 420 885 C368 885 335 847 318 801 L318 801 Z " />
<glyph glyph-name="utilde" unicode="&#x169;" horiz-adv-x="602" d="M272 -11 C356 -11 426 33 468 92 L451 0 L511 0 L613 527 L550 527 L488 210 C470 116 390 47 298 47 C206 47 150 106 172 220 L231 527 L168 527 L106 210 C79 71 153 -11 272 -11 L272 -11 Z M254 656 L297 636 C308 668 326 686 353 686 C402 686 414 634 476 634 C528 634 561 671 577 719 L535 738 C524 706 505 688 477 688 C427 688 415 740 355 740 C304 740 271 702 254 656 L254 656 Z " />
<glyph glyph-name="Umacron" unicode="&#x16a;" horiz-adv-x="670" d="M335 -11 C486 -11 590 80 621 244 L708 695 L644 695 L557 244 C533 120 455 49 344 49 C228 49 166 132 192 264 L275 695 L211 695 L128 264 C97 104 178 -11 335 -11 L335 -11 Z M332 810 L614 810 L624 863 L342 863 L332 810 Z " />
<glyph glyph-name="umacron" unicode="&#x16b;" horiz-adv-x="602" d="M272 -11 C356 -11 426 33 468 92 L451 0 L511 0 L613 527 L550 527 L488 210 C470 116 390 47 298 47 C206 47 150 106 172 220 L231 527 L168 527 L106 210 C79 71 153 -11 272 -11 L272 -11 Z M271 661 L543 661 L552 711 L280 711 L271 661 Z " />
<glyph glyph-name="Uring" unicode="&#x16e;" horiz-adv-x="670" d="M335 -11 C486 -11 590 80 621 244 L708 695 L644 695 L557 244 C533 120 455 49 344 49 C228 49 166 132 192 264 L275 695 L211 695 L128 264 C97 104 178 -11 335 -11 L335 -11 Z M385 808 C385 760 417 725 468 725 C526 725 575 771 575 827 C575 875 543 910 492 910 C434 910 385 864 385 808 L385 808 Z M427 811 C427 845 455 870 487 870 C516 870 533 850 533 825 C533 790 504 765 472 765 C443 765 427 785 427 811 L427 811 Z " />
<glyph glyph-name="uring" unicode="&#x16f;" horiz-adv-x="602" d="M272 -11 C356 -11 426 33 468 92 L451 0 L511 0 L613 527 L550 527 L488 210 C470 116 390 47 298 47 C206 47 150 106 172 220 L231 527 L168 527 L106 210 C79 71 153 -11 272 -11 L272 -11 Z M321 668 C321 620 353 585 404 585 C462 585 511 631 511 687 C511 735 479 770 428 770 C370 770 321 724 321 668 L321 668 Z M363 671 C363 705 391 730 423 730 C452 730 469 710 469 684 C469 650 440 625 408 625 C379 625 363 645 363 671 L363 671 Z " />
<glyph glyph-name="Uhungarumlaut" unicode="&#x170;" horiz-adv-x="670" d="M335 -11 C486 -11 590 80 621 244 L708 695 L644 695 L557 244 C533 120 455 49 344 49 C228 49 166 132 192 264 L275 695 L211 695 L128 264 C97 104 178 -11 335 -11 L335 -11 Z M330 773 L366 744 L509 906 L469 938 L330 773 Z M511 773 L545 744 L689 906 L649 938 L511 773 Z " />
<glyph glyph-name="uhungarumlaut" unicode="&#x171;" horiz-adv-x="602" d="M272 -11 C356 -11 426 33 468 92 L451 0 L511 0 L613 527 L550 527 L488 210 C470 116 390 47 298 47 C206 47 150 106 172 220 L231 527 L168 527 L106 210 C79 71 153 -11 272 -11 L272 -11 Z M266 633 L300 604 L441 750 L401 783 L266 633 Z M439 633 L474 604 L614 750 L575 783 L439 633 Z " />
<glyph glyph-name="Uogonek" unicode="&#x172;" horiz-adv-x="670" d="M335 -11 C348 -11 361 -10 373 -9 C327 -45 284 -89 284 -141 C284 -186 315 -214 363 -214 C399 -214 427 -201 448 -179 L428 -149 C415 -164 396 -171 377 -171 C350 -171 334 -157 334 -130 C334 -91 367 -59 406 -26 L446 8 C536 43 598 124 621 244 L708 695 L644 695 L557 244 C533 120 455 49 344 49 C228 49 166 132 192 264 L275 695 L211 695 L128 264 C97 104 178 -11 335 -11 L335 -11 Z " />
<glyph glyph-name="uogonek" unicode="&#x173;" horiz-adv-x="602" d="M272 -11 C356 -11 426 33 468 92 L451 0 L462 0 L444 -14 C395 -51 346 -98 346 -153 C346 -198 377 -226 425 -226 C461 -226 489 -213 510 -191 L490 -161 C477 -176 458 -183 439 -183 C412 -183 396 -169 396 -142 C396 -103 429 -71 468 -38 L512 0 L511 1 L613 527 L550 527 L488 210 C470 116 390 47 298 47 C206 47 150 106 172 220 L231 527 L168 527 L106 210 C79 71 153 -11 272 -11 L272 -11 Z " />
<glyph glyph-name="Wcircumflex" unicode="&#x174;" horiz-adv-x="862" d="M184 0 L254 0 L537 605 L583 0 L655 0 L953 695 L888 695 L632 83 L587 695 L519 695 L235 85 L216 695 L154 695 L184 0 Z M413 771 L479 771 L586 859 L657 771 L713 771 L616 901 L564 901 L413 771 Z " />
<glyph glyph-name="wcircumflex" unicode="&#x175;" horiz-adv-x="764" d="M157 0 L231 0 L458 456 L510 0 L584 0 L828 527 L761 527 L554 64 L505 527 L434 527 L208 63 L178 527 L116 527 L157 0 Z M328 613 L392 613 L505 720 L579 613 L632 613 L535 760 L483 760 L328 613 Z " />
<glyph glyph-name="Ycircumflex" unicode="&#x176;" horiz-adv-x="603" d="M259 0 L323 0 L378 285 L711 695 L634 695 L356 342 L208 695 L143 695 L315 289 L259 0 Z M279 771 L345 771 L452 859 L523 771 L579 771 L482 901 L430 901 L279 771 Z " />
<glyph glyph-name="ycircumflex" unicode="&#x177;" horiz-adv-x="536" d="M224 0 L232 0 L121 -179 L186 -179 L612 527 L540 527 L270 62 L175 527 L111 527 L224 0 Z M214 613 L278 613 L391 720 L465 613 L518 613 L421 760 L369 760 L214 613 Z " />
<glyph glyph-name="Ydieresis" unicode="&#x178;" horiz-adv-x="603" d="M259 0 L323 0 L378 285 L711 695 L634 695 L356 342 L208 695 L143 695 L315 289 L259 0 Z M295 830 C295 800 315 782 343 782 C376 782 404 808 404 841 C404 870 386 890 357 890 C323 890 295 863 295 830 L295 830 Z M481 830 C481 800 501 782 529 782 C562 782 590 808 590 841 C590 870 572 890 543 890 C509 890 481 863 481 830 L481 830 Z " />
<glyph glyph-name="Zacute" unicode="&#x179;" horiz-adv-x="524" d="M23 0 L500 0 L510 58 L140 58 L628 695 L168 695 L157 638 L511 638 L23 0 Z M290 813 L305 769 L554 856 L538 906 L290 813 Z " />
<glyph glyph-name="zacute" unicode="&#x17a;" horiz-adv-x="490" d="M22 0 L466 0 L476 53 L146 53 L563 527 L143 527 L133 474 L442 474 L22 0 Z M230 644 L253 605 L473 723 L448 768 L230 644 Z " />
<glyph glyph-name="Zdotaccent" unicode="&#x17b;" horiz-adv-x="524" d="M23 0 L500 0 L510 58 L140 58 L628 695 L168 695 L157 638 L511 638 L23 0 Z M361 830 C361 802 383 782 411 782 C443 782 471 808 471 840 C471 868 451 889 422 889 C389 889 361 862 361 830 L361 830 Z " />
<glyph glyph-name="zdotaccent" unicode="&#x17c;" horiz-adv-x="490" d="M22 0 L466 0 L476 53 L146 53 L563 527 L143 527 L133 474 L442 474 L22 0 Z M283 680 C283 651 303 630 334 630 C369 630 399 659 399 694 C399 722 379 743 348 743 C313 743 283 714 283 680 L283 680 Z " />
<glyph glyph-name="Zcaron" unicode="&#x17d;" horiz-adv-x="524" d="M23 0 L500 0 L510 58 L140 58 L628 695 L168 695 L157 638 L511 638 L23 0 Z M279 901 L377 771 L429 771 L580 901 L514 901 L407 813 L336 901 L279 901 Z " />
<glyph glyph-name="zcaron" unicode="&#x17e;" horiz-adv-x="490" d="M22 0 L466 0 L476 53 L146 53 L563 527 L143 527 L133 474 L442 474 L22 0 Z M208 759 L304 612 L356 612 L513 759 L449 759 L335 652 L262 759 L208 759 Z " />
<glyph glyph-name="florin" unicode="&#x192;" horiz-adv-x="598" d="M214 423 L352 423 L243 82 C216 -1 174 -46 102 -46 L38 -46 L28 -100 L102 -100 C213 -100 270 -41 306 73 L417 423 L570 423 L581 480 L436 480 L446 513 C473 598 515 641 588 641 L652 641 L662 695 L588 695 C481 695 421 641 383 522 L370 480 L226 480 L214 423 Z " />
<glyph glyph-name="uni01EA" unicode="&#x1ea;" horiz-adv-x="787" d="M401 -11 C413 -11 426 -10 438 -9 C389 -46 340 -93 340 -148 C340 -193 371 -221 419 -221 C455 -221 483 -208 504 -186 L484 -156 C471 -171 452 -178 433 -178 C406 -178 390 -164 390 -137 C390 -98 423 -66 462 -33 L504 3 C670 51 793 209 793 398 C793 583 673 706 495 706 C278 706 102 521 102 298 C102 114 222 -11 401 -11 L401 -11 Z M169 302 C169 489 313 645 490 645 C633 645 727 544 727 394 C727 207 582 50 406 50 C263 50 169 151 169 302 L169 302 Z " />
<glyph glyph-name="uni01EB" unicode="&#x1eb;" horiz-adv-x="624" d="M315 -11 C321 -11 327 -11 333 -10 L331 -12 C282 -49 233 -96 233 -151 C233 -196 264 -224 312 -224 C348 -224 376 -211 397 -189 L377 -159 C364 -174 345 -181 326 -181 C299 -181 283 -167 283 -140 C283 -101 316 -69 355 -36 L397 0 C532 38 622 167 622 307 C622 450 528 538 392 538 C216 538 84 389 84 219 C84 78 178 -11 315 -11 L315 -11 Z M149 227 C149 356 249 480 386 480 C490 480 557 409 557 302 C557 172 459 47 322 47 C218 47 149 119 149 227 L149 227 Z " />
<glyph glyph-name="AEacute" unicode="&#x1fc;" horiz-adv-x="918" d="M-12 0 L58 0 L219 214 L478 214 L436 0 L853 0 L864 57 L511 57 L565 334 L880 334 L891 390 L576 390 L624 638 L971 638 L982 695 L505 695 L-12 0 Z M261 269 L539 638 L560 638 L488 269 L261 269 Z M630 813 L645 769 L894 856 L878 906 L630 813 Z " />
<glyph glyph-name="aeacute" unicode="&#x1fd;" horiz-adv-x="1067" d="M295 -11 C386 -11 462 36 513 105 L493 0 L553 0 L579 136 C603 45 679 -11 780 -11 C875 -11 946 24 1004 88 L964 128 C916 69 857 42 786 42 C680 42 608 114 608 222 C608 230 608 238 609 246 L1046 246 C1051 263 1059 308 1059 333 C1059 451 978 538 855 538 C764 538 684 491 633 413 L655 527 L595 527 L572 407 C547 489 482 538 385 538 C215 538 84 389 84 218 C84 81 166 -11 295 -11 L295 -11 Z M149 226 C149 361 253 481 385 481 C486 481 547 413 547 307 C547 169 445 46 314 46 C213 46 149 121 149 226 L149 226 Z M543 645 L566 606 L786 724 L761 769 L543 645 Z M615 288 C641 401 733 488 848 488 C943 488 1001 427 1001 331 C1001 319 1000 303 997 288 L615 288 Z " />
<glyph glyph-name="Oslashacute" unicode="&#x1fe;" horiz-adv-x="790" d="M402 -11 C618 -11 794 172 794 398 C794 471 775 535 741 585 L832 669 L800 706 L710 623 C658 676 584 706 496 706 C279 706 103 521 103 298 C103 225 122 161 156 110 L65 26 L97 -11 L187 73 C240 19 314 -11 402 -11 L402 -11 Z M170 302 C170 489 314 645 491 645 C561 645 620 620 661 578 L207 157 C183 197 170 246 170 302 L170 302 Z M236 118 L691 539 C715 499 728 450 728 394 C728 207 583 50 407 50 C336 50 278 75 236 118 L236 118 Z M415 813 L430 769 L679 856 L663 906 L415 813 Z " />
<glyph glyph-name="oslashacute" unicode="&#x1ff;" horiz-adv-x="641" d="M317 -11 C496 -11 624 140 624 307 C624 350 615 389 599 421 L681 484 L657 520 L576 458 C536 509 472 538 394 538 C218 538 86 389 86 219 C86 174 95 135 113 102 L35 42 L60 6 L137 65 C178 17 241 -11 317 -11 L317 -11 Z M151 227 C151 356 251 480 388 480 C447 480 494 457 524 418 L167 144 C157 168 151 196 151 227 L151 227 Z M190 106 L545 379 C554 357 559 331 559 302 C559 172 461 47 324 47 C267 47 220 69 190 106 L190 106 Z M307 644 L330 605 L550 723 L525 768 L307 644 Z " />
<glyph glyph-name="uni0218" unicode="&#x218;" horiz-adv-x="536" d="M291 -11 C437 -11 530 68 530 191 C530 405 235 371 235 526 C235 600 298 650 390 650 C465 650 522 618 555 572 L600 617 C564 663 492 706 395 706 C260 706 168 629 168 518 C168 320 463 355 463 182 C463 99 401 46 301 46 C208 46 143 86 99 148 L50 104 C96 35 176 -11 291 -11 L291 -11 Z M200 -216 L228 -233 L281 -164 C304 -133 318 -112 318 -89 C318 -65 301 -49 276 -49 C247 -49 224 -74 224 -101 C224 -123 236 -138 254 -141 L200 -216 Z " />
<glyph glyph-name="uni0219" unicode="&#x219;" horiz-adv-x="454" d="M252 -12 C364 -12 460 49 460 151 C460 322 189 277 189 393 C189 444 249 478 316 478 C365 478 407 462 441 426 L490 475 C452 514 395 538 318 538 C202 538 122 477 122 386 C122 221 392 267 392 144 C392 84 321 50 259 50 C197 50 143 70 95 123 L41 70 C87 23 156 -12 252 -12 L252 -12 Z M157 -216 L185 -233 L238 -164 C261 -133 275 -112 275 -89 C275 -65 258 -49 233 -49 C204 -49 181 -74 181 -101 C181 -123 193 -138 211 -141 L157 -216 Z " />
<glyph glyph-name="uni021A" unicode="&#x21a;" horiz-adv-x="539" d="M229 0 L293 0 L417 637 L634 637 L645 695 L147 695 L136 637 L353 637 L229 0 Z M177 -216 L205 -233 L258 -164 C281 -133 295 -112 295 -89 C295 -65 278 -49 253 -49 C224 -49 201 -74 201 -101 C201 -123 213 -138 231 -141 L177 -216 Z " />
<glyph glyph-name="uni021B" unicode="&#x21b;" horiz-adv-x="358" d="M279 0 L341 0 L352 57 L301 57 C226 57 189 102 206 186 L261 471 L424 471 L434 527 L274 527 L300 661 L239 661 L222 573 C216 542 200 527 169 527 L112 527 L102 471 L198 471 L141 180 C119 70 172 0 279 0 L279 0 Z M152 -208 L180 -225 L233 -156 C256 -125 270 -104 270 -81 C270 -57 253 -41 228 -41 C199 -41 176 -66 176 -93 C176 -115 188 -130 206 -133 L152 -208 Z " />
<glyph glyph-name="uni0237" unicode="&#x237;" horiz-adv-x="212" d="M-85 -181 L-67 -181 C35 -181 114 -117 137 -1 L239 527 L175 527 L73 -2 C58 -77 5 -125 -59 -125 L-74 -125 L-85 -181 Z " />
<glyph glyph-name="circumflex" unicode="&#x2c6;" horiz-adv-x="325" d="M148 613 L212 613 L325 720 L399 613 L452 613 L355 760 L303 760 L148 613 Z " />
<glyph glyph-name="caron" unicode="&#x2c7;" horiz-adv-x="349" d="M272 613 L324 613 L481 760 L417 760 L303 653 L230 760 L176 760 L272 613 Z " />
<glyph glyph-name="breve" unicode="&#x2d8;" horiz-adv-x="312" d="M294 613 C391 613 440 685 454 760 L402 760 C394 715 361 663 298 663 C238 663 218 714 227 760 L176 760 C162 689 205 613 294 613 L294 613 Z " />
<glyph glyph-name="dotaccent" unicode="&#x2d9;" horiz-adv-x="132" d="M211 631 C246 631 276 660 276 695 C276 723 256 744 225 744 C190 744 160 715 160 681 C160 652 180 631 211 631 L211 631 Z " />
<glyph glyph-name="ring" unicode="&#x2da;" horiz-adv-x="207" d="M242 585 C300 585 349 631 349 687 C349 735 317 770 266 770 C208 770 159 724 159 668 C159 620 191 585 242 585 L242 585 Z M201 671 C201 705 229 730 261 730 C290 730 307 710 307 684 C307 650 278 625 246 625 C217 625 201 645 201 671 L201 671 Z " />
<glyph glyph-name="ogonek" unicode="&#x2db;" horiz-adv-x="238" d="M79 -225 C115 -225 143 -212 164 -190 L144 -160 C131 -175 112 -182 93 -182 C66 -182 50 -168 50 -141 C50 -102 83 -70 122 -37 L166 1 L144 22 L98 -13 C49 -50 0 -97 0 -152 C0 -197 31 -225 79 -225 L79 -225 Z " />
<glyph glyph-name="tilde" unicode="&#x2dc;" horiz-adv-x="391" d="M378 634 C430 634 463 671 479 719 L437 738 C426 706 407 688 379 688 C329 688 317 740 257 740 C206 740 173 702 156 656 L199 636 C210 668 228 686 255 686 C304 686 316 634 378 634 L378 634 Z " />
<glyph glyph-name="hungarumlaut" unicode="&#x2dd;" horiz-adv-x="310" d="M350 604 L490 750 L451 783 L315 633 L350 604 Z M142 633 L176 604 L317 750 L277 783 L142 633 Z " />
<glyph glyph-name="gravecomb" unicode="&#x300;" d="M355 603 L381 642 L184 768 L156 724 L355 603 Z " />
<glyph glyph-name="acutecomb" unicode="&#x301;" d="M174 606 L394 724 L369 769 L151 645 L174 606 Z " />
<glyph glyph-name="uni0302" unicode="&#x302;" d="M148 613 L212 613 L325 720 L399 613 L452 613 L355 760 L303 760 L148 613 Z " />
<glyph glyph-name="tildecomb" unicode="&#x303;" d="M378 634 C430 634 463 671 479 719 L437 738 C426 706 407 688 379 688 C329 688 317 740 257 740 C206 740 173 702 156 656 L199 636 C210 668 228 686 255 686 C304 686 316 634 378 634 L378 634 Z " />
<glyph glyph-name="uni0304" unicode="&#x304;" d="M157 661 L429 661 L438 711 L166 711 L157 661 Z " />
<glyph glyph-name="uni0306" unicode="&#x306;" d="M294 613 C391 613 440 685 454 760 L402 760 C394 715 361 663 298 663 C238 663 218 714 227 760 L176 760 C162 689 205 613 294 613 L294 613 Z " />
<glyph glyph-name="uni0307" unicode="&#x307;" d="M211 631 C246 631 276 660 276 695 C276 723 256 744 225 744 C190 744 160 715 160 681 C160 652 180 631 211 631 L211 631 Z " />
<glyph glyph-name="uni0308" unicode="&#x308;" d="M390 633 C423 633 452 661 452 692 C452 723 432 741 404 741 C371 741 342 713 342 682 C342 651 362 633 390 633 L390 633 Z M160 682 C160 651 180 633 209 633 C242 633 271 661 271 692 C271 723 251 741 223 741 C190 741 160 713 160 682 L160 682 Z " />
<glyph glyph-name="uni030A" unicode="&#x30a;" d="M242 585 C300 585 349 631 349 687 C349 735 317 770 266 770 C208 770 159 724 159 668 C159 620 191 585 242 585 L242 585 Z M201 671 C201 705 229 730 261 730 C290 730 307 710 307 684 C307 650 278 625 246 625 C217 625 201 645 201 671 L201 671 Z " />
<glyph glyph-name="uni030B" unicode="&#x30b;" d="M359 604 L499 750 L460 783 L324 633 L359 604 Z M151 633 L185 604 L326 750 L286 783 L151 633 Z " />
<glyph glyph-name="uni030C" unicode="&#x30c;" d="M272 613 L324 613 L481 760 L417 760 L303 653 L230 760 L176 760 L272 613 Z " />
<glyph glyph-name="uni0326" unicode="&#x326;" d="M13 -233 L66 -164 C89 -133 103 -112 103 -89 C103 -65 86 -49 61 -49 C32 -49 9 -74 9 -101 C9 -123 21 -138 39 -141 L-15 -216 L13 -233 Z " />
<glyph glyph-name="uni0327" unicode="&#x327;" d="M92 -240 C161 -240 210 -196 210 -141 C210 -98 182 -63 139 -57 L178 9 L135 9 L86 -70 L91 -80 L102 -80 C139 -80 161 -106 161 -139 C161 -174 132 -201 88 -201 C51 -201 31 -183 21 -165 L-9 -192 C6 -217 41 -240 92 -240 L92 -240 Z " />
<glyph glyph-name="uni0328" unicode="&#x328;" d="M79 -225 C115 -225 143 -212 164 -190 L144 -160 C131 -175 112 -182 93 -182 C66 -182 50 -168 50 -141 C50 -102 83 -70 122 -37 L166 1 L144 22 L98 -13 C49 -50 0 -97 0 -152 C0 -197 31 -225 79 -225 L79 -225 Z " />
<glyph glyph-name="uni0335" unicode="&#x335;" d="M75 245 L368 245 L377 292 L84 292 L75 245 Z " />
<glyph glyph-name="uni0336" unicode="&#x336;" d="M83 281 L707 281 L717 333 L93 333 L83 281 Z " />
<glyph glyph-name="uni0337" unicode="&#x337;" d="M103 177 L382 323 L361 363 L83 217 L103 177 Z " />
<glyph glyph-name="uni0338" unicode="&#x338;" d="M60 -2 L681 476 L657 512 L35 34 L60 -2 Z " />
<glyph glyph-name="Wgrave" unicode="&#x1e80;" horiz-adv-x="862" d="M184 0 L254 0 L537 605 L583 0 L655 0 L953 695 L888 695 L632 83 L587 695 L519 695 L235 85 L216 695 L154 695 L184 0 Z M442 857 L687 768 L704 812 L461 908 L442 857 Z " />
<glyph glyph-name="wgrave" unicode="&#x1e81;" horiz-adv-x="764" d="M157 0 L231 0 L458 456 L510 0 L584 0 L828 527 L761 527 L554 64 L505 527 L434 527 L208 63 L178 527 L116 527 L157 0 Z M381 724 L580 603 L606 642 L409 768 L381 724 Z " />
<glyph glyph-name="Wacute" unicode="&#x1e82;" horiz-adv-x="862" d="M184 0 L254 0 L537 605 L583 0 L655 0 L953 695 L888 695 L632 83 L587 695 L519 695 L235 85 L216 695 L154 695 L184 0 Z M440 813 L455 769 L704 856 L688 906 L440 813 Z " />
<glyph glyph-name="wacute" unicode="&#x1e83;" horiz-adv-x="764" d="M157 0 L231 0 L458 456 L510 0 L584 0 L828 527 L761 527 L554 64 L505 527 L434 527 L208 63 L178 527 L116 527 L157 0 Z M382 645 L405 606 L625 724 L600 769 L382 645 Z " />
<glyph glyph-name="Wdieresis" unicode="&#x1e84;" horiz-adv-x="862" d="M184 0 L254 0 L537 605 L583 0 L655 0 L953 695 L888 695 L632 83 L587 695 L519 695 L235 85 L216 695 L154 695 L184 0 Z M430 830 C430 800 450 782 478 782 C511 782 539 808 539 841 C539 870 521 890 492 890 C458 890 430 863 430 830 L430 830 Z M616 830 C616 800 636 782 664 782 C697 782 725 808 725 841 C725 870 707 890 678 890 C644 890 616 863 616 830 L616 830 Z " />
<glyph glyph-name="wdieresis" unicode="&#x1e85;" horiz-adv-x="764" d="M157 0 L231 0 L458 456 L510 0 L584 0 L828 527 L761 527 L554 64 L505 527 L434 527 L208 63 L178 527 L116 527 L157 0 Z M351 682 C351 651 371 633 400 633 C433 633 462 661 462 692 C462 723 442 741 414 741 C381 741 351 713 351 682 L351 682 Z M533 682 C533 651 553 633 581 633 C614 633 643 661 643 692 C643 723 623 741 595 741 C562 741 533 713 533 682 L533 682 Z " />
<glyph glyph-name="uni1E9E" unicode="&#x1e9e;" horiz-adv-x="619" d="M168 470 L76 0 L140 0 L231 468 C253 582 331 649 443 649 C521 649 570 616 590 558 L396 372 L388 335 L416 335 C495 335 550 281 549 203 C547 110 475 43 381 43 C321 43 275 65 234 100 L210 46 C247 14 303 -11 379 -11 C508 -11 607 75 613 199 C618 293 558 364 469 377 L657 557 C638 651 566 706 450 706 C302 706 197 619 168 470 L168 470 Z " />
<glyph glyph-name="Ygrave" unicode="&#x1ef2;" horiz-adv-x="603" d="M259 0 L323 0 L378 285 L711 695 L634 695 L356 342 L208 695 L143 695 L315 289 L259 0 Z M311 857 L556 768 L573 812 L330 908 L311 857 Z " />
<glyph glyph-name="ygrave" unicode="&#x1ef3;" horiz-adv-x="536" d="M224 0 L232 0 L121 -179 L186 -179 L612 527 L540 527 L270 62 L175 527 L111 527 L224 0 Z M268 724 L467 603 L493 642 L296 768 L268 724 Z " />
<glyph glyph-name="uni1EF8" unicode="&#x1ef8;" horiz-adv-x="603" d="M259 0 L323 0 L378 285 L711 695 L634 695 L356 342 L208 695 L143 695 L315 289 L259 0 Z M274 801 L318 781 C329 813 346 831 375 831 C425 831 438 779 502 779 C555 779 588 816 604 864 L562 883 C551 851 532 833 502 833 C451 833 438 885 376 885 C324 885 291 847 274 801 L274 801 Z " />
<glyph glyph-name="uni1EF9" unicode="&#x1ef9;" horiz-adv-x="536" d="M224 0 L232 0 L121 -179 L186 -179 L612 527 L540 527 L270 62 L175 527 L111 527 L224 0 Z M219 656 L262 636 C273 668 291 686 318 686 C367 686 379 634 441 634 C493 634 526 671 542 719 L500 738 C489 706 470 688 442 688 C392 688 380 740 320 740 C269 740 236 702 219 656 L219 656 Z " />
<glyph glyph-name="endash" unicode="&#x2013;" horiz-adv-x="507" d="M115 281 L499 281 L509 335 L125 335 L115 281 Z " />
<glyph glyph-name="emdash" unicode="&#x2014;" horiz-adv-x="769" d="M115 281 L761 281 L771 335 L125 335 L115 281 Z " />
<glyph glyph-name="quoteleft" unicode="&#x2018;" horiz-adv-x="185" d="M196 521 C224 521 250 543 250 575 C250 599 235 615 215 617 L279 714 L236 714 L178 629 C158 600 150 585 150 564 C150 540 168 521 196 521 L196 521 Z " />
<glyph glyph-name="quoteright" unicode="&#x2019;" horiz-adv-x="183" d="M148 524 L190 524 L249 609 C268 638 276 653 276 674 C276 698 258 717 231 717 C202 717 177 695 177 664 C177 640 192 624 212 621 L148 524 Z " />
<glyph glyph-name="quotesinglbase" unicode="&#x201a;" horiz-adv-x="185" d="M21 -106 L63 -106 L122 -21 C142 8 149 22 149 44 C149 68 131 87 104 87 C76 87 50 65 50 33 C50 9 65 -7 85 -9 L21 -106 Z " />
<glyph glyph-name="quotedblleft" unicode="&#x201c;" horiz-adv-x="318" d="M328 521 C356 521 382 543 382 575 C382 599 367 615 347 617 L411 714 L369 714 L310 629 C290 600 283 585 283 564 C283 540 301 521 328 521 L328 521 Z M150 564 C150 540 168 521 196 521 C224 521 250 543 250 575 C250 599 235 615 215 617 L279 714 L236 714 L178 629 C158 600 150 585 150 564 L150 564 Z " />
<glyph glyph-name="quotedblright" unicode="&#x201d;" horiz-adv-x="316" d="M280 524 L322 524 L381 609 C401 638 408 653 408 674 C408 698 390 717 363 717 C335 717 309 695 309 664 C309 640 324 624 344 621 L280 524 Z M148 524 L190 524 L249 609 C268 638 276 653 276 674 C276 698 258 717 231 717 C202 717 177 695 177 664 C177 640 192 624 212 621 L148 524 Z " />
<glyph glyph-name="quotedblbase" unicode="&#x201e;" horiz-adv-x="318" d="M154 -106 L196 -106 L254 -21 C274 8 282 22 282 44 C282 68 264 87 236 87 C208 87 182 65 182 33 C182 10 197 -6 218 -9 L154 -106 Z M21 -106 L63 -106 L122 -21 C142 8 149 22 149 44 C149 68 131 87 104 87 C76 87 50 65 50 33 C50 9 65 -7 85 -9 L21 -106 Z " />
<glyph glyph-name="dagger" unicode="&#x2020;" horiz-adv-x="321" d="M193 312 L245 312 L298 581 L388 581 L397 628 L307 628 L327 731 L275 731 L255 628 L164 628 L156 581 L246 581 L193 312 Z " />
<glyph glyph-name="daggerdbl" unicode="&#x2021;" horiz-adv-x="340" d="M202 312 L254 312 L272 402 L362 402 L372 450 L281 450 L309 593 L399 593 L409 640 L318 640 L336 731 L284 731 L266 640 L176 640 L167 593 L257 593 L229 450 L139 450 L130 402 L220 402 L202 312 Z " />
<glyph glyph-name="bullet" unicode="&#x2022;" horiz-adv-x="337" d="M222 250 C281 250 324 298 324 351 C324 399 291 432 242 432 C185 432 141 385 141 332 C141 283 175 250 222 250 L222 250 Z " />
<glyph glyph-name="ellipsis" unicode="&#x2026;" horiz-adv-x="538" d="M441 -9 C472 -9 496 16 496 46 C496 71 479 89 452 89 C421 89 397 64 397 34 C397 8 416 -9 441 -9 L441 -9 Z M53 34 C53 8 72 -9 97 -9 C128 -9 152 16 152 46 C152 71 135 89 108 89 C77 89 53 64 53 34 L53 34 Z M226 34 C226 8 244 -9 270 -9 C301 -9 325 16 325 46 C325 71 307 89 280 89 C249 89 226 64 226 34 L226 34 Z " />
<glyph glyph-name="perthousand" unicode="&#x2030;" horiz-adv-x="1039" d="M129 0 L182 0 L712 695 L659 695 L129 0 Z M130 519 C130 442 182 385 261 385 C362 385 436 477 436 569 C436 645 384 701 306 701 C206 701 130 611 130 519 L130 519 Z M176 523 C176 589 229 658 300 658 C353 658 391 620 391 564 C391 498 338 428 266 428 C214 428 176 467 176 523 L176 523 Z M408 128 C408 51 459 -6 538 -6 C640 -6 713 86 713 178 C713 253 662 310 583 310 C483 310 408 220 408 128 L408 128 Z M453 131 C453 198 507 267 578 267 C630 267 668 228 668 173 C668 107 615 37 543 37 C491 37 453 76 453 131 L453 131 Z M735 128 C735 51 787 -6 866 -6 C967 -6 1041 86 1041 178 C1041 253 989 310 911 310 C811 310 735 220 735 128 L735 128 Z M781 131 C781 198 834 267 905 267 C958 267 995 228 995 173 C995 107 943 37 871 37 C819 37 781 76 781 131 L781 131 Z " />
<glyph glyph-name="guilsinglleft" unicode="&#x2039;" horiz-adv-x="264" d="M160 86 L219 86 L147 247 L290 417 L225 417 L86 252 L160 86 Z " />
<glyph glyph-name="guilsinglright" unicode="&#x203a;" horiz-adv-x="264" d="M70 86 L135 86 L273 252 L200 417 L141 417 L212 257 L70 86 Z " />
<glyph glyph-name="fraction" unicode="&#x2044;" horiz-adv-x="404" d="M-10 0 L40 0 L551 695 L500 695 L-10 0 Z " />
<glyph glyph-name="uni2074" unicode="&#x2074;" horiz-adv-x="318" d="M258 347 L302 347 L318 429 L360 429 L367 464 L325 464 L370 695 L327 695 L115 461 L109 429 L275 429 L258 347 Z M159 464 L316 639 L282 464 L159 464 Z " />
<glyph glyph-name="colonmonetary" unicode="&#x20a1;" horiz-adv-x="598" d="M97 -99 L157 -99 L207 37 C228 20 252 8 278 0 L241 -99 L301 -99 L334 -11 L349 -11 C452 -11 527 31 584 106 L540 150 C495 88 436 50 357 50 L356 50 L559 596 C573 584 585 571 595 557 L642 605 C626 626 606 646 583 662 L632 794 L573 794 L533 687 C509 697 483 703 455 705 L488 794 L429 794 L395 704 C221 682 103 494 103 284 C103 203 125 132 164 81 L97 -99 Z M169 290 C169 453 249 603 371 637 L194 162 C178 198 169 242 169 290 L169 290 Z M232 104 L433 645 C462 644 488 637 511 627 L300 59 C274 68 251 83 232 104 L232 104 Z " />
<glyph glyph-name="franc" unicode="&#x20a3;" horiz-adv-x="598" d="M139 0 L203 0 L231 145 L471 145 L481 201 L242 201 L268 334 L566 334 L578 390 L279 390 L327 638 L659 638 L670 695 L274 695 L178 201 L94 201 L84 145 L167 145 L139 0 Z " />
<glyph glyph-name="lira" unicode="&#x20a4;" horiz-adv-x="598" d="M138 0 L512 0 L525 59 L217 59 L249 224 L470 224 L479 270 L258 270 L277 368 L497 368 L506 414 L286 414 L302 495 C319 587 383 647 470 647 C533 647 569 620 594 585 L643 634 C611 675 556 706 475 706 C348 706 261 627 235 497 L219 414 L136 414 L127 368 L210 368 L191 270 L109 270 L100 224 L182 224 L138 0 Z " />
<glyph glyph-name="peseta" unicode="&#x20a7;" horiz-adv-x="598" d="M95 0 L159 0 L218 302 L365 302 C492 302 585 367 610 467 L677 467 L688 526 L617 526 C615 632 544 695 424 695 L230 695 L197 526 L113 526 L102 467 L186 467 L95 0 Z M229 359 L250 467 L543 467 C522 402 458 359 372 359 L229 359 Z M261 526 L283 638 L414 638 C498 638 547 598 551 526 L261 526 Z " />
<glyph glyph-name="Euro" unicode="&#x20ac;" horiz-adv-x="598" d="M386 -11 C478 -11 553 29 606 111 L564 153 C523 86 463 50 393 50 C285 50 215 128 203 255 L413 255 L424 300 L201 300 C201 334 205 368 212 399 L436 399 L448 444 L225 444 C266 563 355 645 459 645 C531 645 592 604 625 542 L672 590 C631 662 552 706 461 706 C321 706 205 597 158 444 L96 444 L86 399 L146 399 C139 367 136 334 135 300 L74 300 L64 255 L136 255 C148 93 242 -11 386 -11 L386 -11 Z " />
<glyph glyph-name="uni20B1" unicode="&#x20b1;" horiz-adv-x="598" d="M95 0 L159 0 L218 302 L365 302 C462 302 539 340 581 402 L664 402 L675 461 L609 461 C614 480 617 500 617 522 L617 534 L690 534 L701 593 L605 593 C579 658 516 695 424 695 L230 695 L210 593 L126 593 L115 534 L199 534 L185 461 L101 461 L90 402 L173 402 L95 0 Z M229 359 L237 402 L500 402 C469 375 424 359 372 359 L229 359 Z M249 461 L263 534 L550 534 C551 528 551 522 551 516 C551 496 548 478 541 461 L249 461 Z M274 593 L283 638 L414 638 C467 638 505 622 528 593 L274 593 Z " />
<glyph glyph-name="uni20B5" unicode="&#x20b5;" horiz-adv-x="598" d="M585 106 L541 150 C496 88 437 50 358 50 C245 50 170 149 170 290 C170 476 274 645 426 645 C503 645 560 606 596 557 L643 605 C607 654 550 691 478 702 L495 794 L442 794 L425 706 C236 703 103 506 103 284 C103 130 182 16 303 -7 L286 -99 L339 -99 L356 -11 C456 -9 529 33 585 106 L585 106 Z " />
<glyph glyph-name="uni20B9" unicode="&#x20b9;" horiz-adv-x="598" d="M111 302 L393 0 L485 0 L198 302 L328 302 C455 302 549 368 574 468 L639 468 L650 527 L580 527 C579 571 566 608 542 636 L671 636 L682 695 L188 695 L177 638 L177 636 L407 636 C473 627 510 589 514 527 L155 527 L144 468 L507 468 C486 402 420 359 334 359 L122 359 L111 302 Z " />
<glyph glyph-name="uni20BD" unicode="&#x20bd;" horiz-adv-x="598" d="M120 0 L184 0 L213 149 L456 149 L467 205 L224 205 L243 302 L391 302 C540 302 643 392 643 522 C643 630 571 695 450 695 L255 695 L190 359 L106 359 L95 302 L179 302 L160 205 L76 205 L66 149 L149 149 L120 0 Z M254 359 L309 638 L439 638 C528 638 577 594 577 516 C577 424 503 359 397 359 L254 359 Z " />
<glyph glyph-name="trademark" unicode="&#x2122;" horiz-adv-x="610" d="M470 432 L504 432 L615 617 L589 422 L625 422 L659 679 L616 679 L495 478 L457 679 L414 679 L344 422 L380 422 L434 620 L470 432 Z M152 644 L235 644 L192 422 L231 422 L274 644 L358 644 L365 679 L158 679 L152 644 Z " />
<glyph glyph-name="minus" unicode="&#x2212;" horiz-adv-x="464" d="M83 280 L488 280 L499 335 L94 335 L83 280 Z " />
<glyph glyph-name="infinity" unicode="&#x221e;" horiz-adv-x="2906" d="M151 -175 L286 -175 L286 62 C323 14 379 -17 457 -17 C598 -17 715 105 715 263 C715 419 598 540 457 540 C379 540 323 512 286 464 L286 527 L151 527 L151 -175 Z M286 263 C286 352 349 412 431 412 C515 412 577 352 577 263 C577 175 515 115 431 115 C349 115 286 175 286 263 L286 263 Z M745 263 C745 105 861 -17 999 -17 C1075 -17 1133 15 1171 62 L1171 -1 L1222 -1 L1306 81 L1306 527 L1171 527 L1171 464 C1133 512 1075 540 999 540 C861 540 745 419 745 263 L745 263 Z M880 263 C880 352 942 412 1024 412 C1109 412 1171 352 1171 263 C1171 175 1109 115 1024 115 C942 115 880 175 880 263 L880 263 Z M1293 -1 L2007 -1 C1965 30 1932 75 1913 127 L1611 127 L2001 527 L1385 527 L1385 396 L1687 396 L1293 -1 Z M1943 263 C1943 105 2056 -17 2230 -17 C2332 -17 2411 26 2460 97 L2351 162 C2327 130 2286 108 2233 108 C2163 108 2105 138 2086 206 L2480 206 C2484 224 2485 243 2485 263 C2485 419 2377 540 2221 540 C2057 540 1943 419 1943 263 L1943 263 Z M2084 311 C2099 381 2149 419 2221 419 C2277 419 2334 388 2351 311 L2084 311 Z M2525 406 C2525 319 2590 253 2677 253 C2764 253 2830 319 2830 406 C2830 493 2764 558 2677 558 C2590 558 2525 493 2525 406 L2525 406 Z M2557 406 C2557 476 2607 528 2677 528 C2749 528 2798 476 2798 406 C2798 334 2749 283 2677 283 C2607 283 2557 334 2557 406 L2557 406 Z M2619 319 L2648 319 L2648 392 L2673 392 L2721 319 L2753 319 L2702 393 C2724 396 2749 410 2749 445 C2749 480 2718 494 2687 494 L2619 494 L2619 319 Z M2648 416 L2648 470 L2681 470 C2702 470 2719 464 2719 445 C2719 420 2702 416 2681 416 L2648 416 Z " />
<glyph glyph-name="approxequal" unicode="&#x2248;" horiz-adv-x="516" d="M424 341 C470 341 508 365 532 398 L504 435 C485 411 455 395 426 395 C353 395 331 450 243 450 C198 450 160 427 136 394 L164 356 C183 381 213 396 242 396 C315 396 337 341 424 341 L424 341 Z M93 181 L122 143 C141 167 170 183 199 183 C273 183 295 128 382 128 C428 128 465 151 490 184 L462 222 C442 197 413 182 384 182 C310 182 288 237 201 237 C155 237 118 213 93 181 L93 181 Z " />
<glyph glyph-name="notequal" unicode="&#x2260;" horiz-adv-x="465" d="M118 16 L179 16 L243 146 L462 146 L473 201 L270 201 L359 381 L507 381 L518 436 L386 436 L450 565 L389 565 L325 436 L114 436 L103 381 L298 381 L209 201 L68 201 L57 146 L182 146 L118 16 Z " />
<glyph glyph-name="lozenge" unicode="&#x25ca;" horiz-adv-x="601" d="M461 432 L495 432 L606 617 L580 422 L617 422 L650 679 L607 679 L486 478 L448 679 L405 679 L335 422 L371 422 L425 618 L461 432 Z M115 457 C135 433 167 417 209 417 C264 417 301 448 301 494 C301 575 197 564 197 616 C197 639 218 653 247 653 C273 653 292 643 305 629 L328 652 C313 669 287 683 249 683 C197 683 161 654 161 614 C161 533 266 549 266 491 C266 465 246 448 214 448 C182 448 158 461 140 482 L115 457 Z " />
<glyph glyph-name="uniF8FF" unicode="&#xf8ff;" horiz-adv-x="2592" d="M1171 263 C1171 352 1109 412 1024 412 C942 412 880 352 880 263 C880 175 942 115 1024 115 C1109 115 1171 175 1171 263 L1171 263 Z M151 -175 L286 -175 L286 62 C323 14 379 -17 457 -17 C598 -17 715 105 715 263 C715 419 598 540 457 540 C379 540 323 512 286 464 L286 527 L151 527 L151 -175 Z M286 263 C286 352 349 412 431 412 C515 412 577 352 577 263 C577 175 515 115 431 115 C349 115 286 175 286 263 L286 263 Z M745 263 C745 419 861 540 999 540 C1075 540 1133 512 1171 464 L1171 527 L1306 527 L1306 81 L1222 -1 L1171 -1 L1171 62 C1133 15 1075 -17 999 -17 C861 -17 745 105 745 263 L745 263 Z M1293 -1 L1687 396 L1385 396 L1385 527 L2001 527 L1611 127 L1913 127 C1932 75 1965 30 2007 -1 L1293 -1 Z M1943 263 C1943 105 2056 -17 2230 -17 C2332 -17 2411 26 2460 97 L2351 162 C2327 130 2286 108 2233 108 C2163 108 2105 138 2086 206 L2480 206 C2484 224 2485 243 2485 263 C2485 419 2377 540 2221 540 C2057 540 1943 419 1943 263 L1943 263 Z M2084 311 C2099 381 2149 419 2221 419 C2277 419 2334 388 2351 311 L2084 311 Z " />
</font>
</svg>
