<?xml version="1.0" encoding="UTF-8"?>
<svg xmlns="http://www.w3.org/2000/svg" xmlns:xlink="http://www.w3.org/1999/xlink" version="1.2" >
<font id="Paze Sans Bold It">
<font-face  font-family="Paze Sans" units-per-em="1000" ascent="1040" descent="-345" font-style="normal" font-weight="700" font-stretch="normal" slope="-11" cap-height="695" x-height="527" underline-position="-100" underline-thickness="50" />
<missing-glyph  horiz-adv-x="543" d="M60 0 L480 0 L622 730 L202 730 L60 0 Z M113 72 L227 658 L320 365 L113 72 Z M131 35 L333 322 L424 35 L131 35 Z M259 695 L552 695 L350 408 L259 695 Z M364 365 L568 656 L456 74 L364 365 Z " />
<glyph glyph-name="NULL" d="" />
<glyph glyph-name="CR" unicode="&#xd;" horiz-adv-x="250" d="" />
<glyph glyph-name="space" unicode="&#x20;" horiz-adv-x="193" d="" />
<glyph glyph-name="exclam" unicode="&#x21;" horiz-adv-x="264" d="M120 239 L226 239 L354 731 L193 731 L120 239 Z M64 60 C64 19 93 -10 135 -10 C187 -10 227 34 227 82 C227 121 199 152 154 152 C103 152 64 108 64 60 L64 60 Z " />
<glyph glyph-name="quotedbl" unicode="&#x22;" horiz-adv-x="378" d="M310 457 L411 457 L472 715 L351 715 L310 457 Z M141 457 L243 457 L305 715 L181 715 L141 457 Z " />
<glyph glyph-name="numbersign" unicode="&#x23;" horiz-adv-x="683" d="M311 0 L428 0 L508 174 L623 174 L644 281 L557 281 L625 430 L739 430 L761 537 L674 537 L747 695 L631 695 L558 537 L432 537 L505 695 L391 695 L318 537 L198 537 L177 430 L269 430 L200 281 L80 281 L59 174 L150 174 L70 0 L186 0 L266 174 L391 174 L311 0 Z M315 281 L383 430 L509 430 L440 281 L315 281 Z " />
<glyph glyph-name="dollar" unicode="&#x24;" horiz-adv-x="628" d="M246 -99 L361 -99 L378 -10 C512 5 599 91 599 212 C599 432 323 392 323 510 C323 556 361 587 419 587 C479 587 529 559 559 514 L656 613 C626 649 577 682 514 698 L533 794 L418 794 L401 707 C266 696 177 610 177 492 C177 282 453 327 453 195 C453 143 415 110 353 110 C279 110 226 143 185 198 L76 101 C112 48 176 6 264 -8 L246 -99 Z " />
<glyph glyph-name="percent" unicode="&#x25;" horiz-adv-x="759" d="M133 0 L241 1 L764 696 L655 695 L133 0 Z M126 522 C126 440 186 380 268 380 C371 380 447 472 447 565 C447 645 386 703 305 703 C205 703 126 617 126 522 L126 522 Z M219 530 C219 573 252 615 296 615 C330 615 353 589 353 553 C353 512 322 468 277 468 C243 468 219 494 219 530 L219 530 Z M447 134 C447 52 506 -8 589 -8 C692 -8 767 84 767 177 C767 257 707 315 626 315 C526 315 447 229 447 134 L447 134 Z M540 142 C540 185 573 227 617 227 C651 227 674 201 674 165 C674 124 643 80 597 80 C563 80 540 106 540 142 L540 142 Z " />
<glyph glyph-name="ampersand" unicode="&#x26;" horiz-adv-x="697" d="M66 156 C66 68 140 -13 270 -13 C367 -13 432 23 485 66 L533 0 L689 0 L586 144 C629 180 674 228 703 268 L618 353 C590 313 565 279 519 237 L440 347 C547 392 642 464 642 560 C642 658 563 708 457 708 C324 708 213 618 213 503 C213 456 227 423 253 384 C144 338 66 266 66 156 L66 156 Z M219 187 C219 238 256 271 316 296 L412 165 C377 136 339 118 298 118 C245 118 219 149 219 187 L219 187 Z M348 510 C348 556 385 593 438 593 C478 593 508 573 508 537 C508 480 438 447 383 427 C364 454 348 481 348 510 L348 510 Z " />
<glyph glyph-name="quotesingle" unicode="&#x27;" horiz-adv-x="211" d="M141 457 L243 457 L305 715 L181 715 L141 457 Z " />
<glyph glyph-name="parenleft" unicode="&#x28;" horiz-adv-x="336" d="M228 -125 L323 -30 C257 41 221 141 221 253 C221 438 311 592 470 714 L384 800 C195 669 83 467 83 240 C83 91 140 -42 228 -125 L228 -125 Z " />
<glyph glyph-name="parenright" unicode="&#x29;" horiz-adv-x="336" d="M-10 -33 L76 -119 C270 11 382 216 382 444 C382 592 325 727 240 805 L146 711 C210 637 245 540 245 431 C245 243 152 88 -10 -33 L-10 -33 Z " />
<glyph glyph-name="asterisk" unicode="&#x2a;" horiz-adv-x="407" d="M227 377 L325 377 L336 477 L405 418 L472 508 L388 552 L489 596 L457 687 L366 627 L394 731 L296 731 L284 627 L216 687 L148 597 L232 552 L131 508 L164 418 L255 477 L227 377 Z " />
<glyph glyph-name="plus" unicode="&#x2b;" horiz-adv-x="482" d="M196 95 L321 95 L355 267 L506 267 L529 386 L378 386 L412 560 L288 560 L254 386 L102 386 L78 267 L230 267 L196 95 Z " />
<glyph glyph-name="comma" unicode="&#x2c;" horiz-adv-x="224" d="M9 -121 L88 -121 L166 -15 C193 23 206 49 206 83 C206 121 177 152 134 152 C87 152 43 116 43 65 C43 30 64 6 91 -2 L9 -121 Z " />
<glyph glyph-name="hyphen" unicode="&#x2d;" horiz-adv-x="377" d="M102 271 L379 271 L401 386 L124 386 L102 271 Z " />
<glyph glyph-name="period" unicode="&#x2e;" horiz-adv-x="225" d="M115 -10 C167 -10 206 34 206 82 C206 121 179 152 134 152 C82 152 43 108 43 60 C43 19 72 -10 115 -10 L115 -10 Z " />
<glyph glyph-name="slash" unicode="&#x2f;" horiz-adv-x="363" d="M15 -50 L138 -50 L472 711 L350 711 L15 -50 Z " />
<glyph glyph-name="zero" unicode="0" horiz-adv-x="628" d="M338 -13 C548 -13 671 208 671 418 C671 611 571 707 429 707 C211 707 91 493 91 282 C91 88 189 -13 338 -13 L338 -13 Z M237 288 C237 427 305 572 414 572 C487 572 524 510 524 412 C524 260 453 122 352 122 C280 122 237 181 237 288 L237 288 Z " />
<glyph glyph-name="one" unicode="1" horiz-adv-x="628" d="M85 0 L561 0 L584 117 L419 117 L531 695 L391 695 L380 641 C375 614 356 597 327 597 L204 597 L181 480 L349 480 L279 117 L108 117 L85 0 Z " />
<glyph glyph-name="two" unicode="2" horiz-adv-x="628" d="M59 0 L561 0 L584 118 L290 118 L467 263 C593 362 645 437 645 536 C645 638 560 707 431 707 C336 707 239 669 161 585 L252 495 C314 563 364 585 412 585 C464 585 497 555 497 509 C497 451 455 405 362 329 L78 94 L59 0 Z " />
<glyph glyph-name="three" unicode="3" horiz-adv-x="628" d="M316 -13 C483 -13 605 90 605 224 C605 325 540 399 441 413 L640 584 L661 695 L212 695 L190 584 L479 584 L275 416 L256 323 L348 323 C415 323 458 284 458 221 C458 158 405 108 327 108 C260 108 206 138 164 198 L69 103 C107 49 187 -13 316 -13 L316 -13 Z " />
<glyph glyph-name="four" unicode="4" horiz-adv-x="628" d="M55 148 L398 148 L368 0 L510 0 L539 148 L615 148 L636 259 L560 259 L645 694 L505 694 L75 251 L55 148 Z M226 259 L470 511 L421 259 L226 259 Z " />
<glyph glyph-name="five" unicode="5" horiz-adv-x="628" d="M317 -13 C494 -13 606 91 606 243 C606 365 513 443 367 443 L331 443 L367 584 L626 584 L649 695 L269 695 L178 332 L349 332 C418 332 460 288 460 226 C460 159 407 108 327 108 C259 108 204 149 171 202 L71 103 C123 36 201 -13 317 -13 L317 -13 Z " />
<glyph glyph-name="six" unicode="6" horiz-adv-x="628" d="M327 -13 C494 -13 622 106 622 258 C622 389 527 462 407 466 L626 695 L461 695 L195 418 C153 375 93 297 93 196 C93 69 189 -13 327 -13 L327 -13 Z M239 212 C239 280 292 352 374 352 C435 352 476 308 476 246 C476 173 417 108 342 108 C279 108 239 154 239 212 L239 212 Z " />
<glyph glyph-name="seven" unicode="7" horiz-adv-x="628" d="M144 0 L306 0 L669 587 L691 694 L196 694 L173 576 L511 576 L144 0 Z " />
<glyph glyph-name="eight" unicode="8" horiz-adv-x="628" d="M330 -13 C494 -13 609 87 609 206 C609 282 568 338 501 365 C587 392 642 460 642 543 C642 638 569 707 441 707 C297 707 190 623 190 503 C190 438 222 394 271 371 C168 343 97 263 97 166 C97 60 190 -13 330 -13 L330 -13 Z M240 192 C240 259 301 311 372 311 C434 311 469 275 469 219 C469 153 412 102 340 102 C279 102 240 136 240 192 L240 192 Z M323 493 C323 548 370 592 427 592 C475 592 507 565 507 516 C507 461 458 416 402 416 C354 416 323 445 323 493 L323 493 Z " />
<glyph glyph-name="nine" unicode="9" horiz-adv-x="628" d="M134 0 L298 0 L565 277 C632 346 667 415 667 499 C667 626 571 707 433 707 C266 707 138 589 138 437 C138 306 233 233 353 229 L134 0 Z M284 449 C284 522 342 586 418 586 C480 586 521 541 521 483 C521 415 467 343 386 343 C324 343 284 387 284 449 L284 449 Z " />
<glyph glyph-name="colon" unicode="&#x3a;" horiz-adv-x="248" d="M188 304 C240 304 279 348 279 396 C279 437 250 466 208 466 C155 466 116 422 116 374 C116 333 147 304 188 304 L188 304 Z M55 60 C55 19 86 -10 127 -10 C179 -10 218 34 218 82 C218 123 189 152 146 152 C94 152 55 108 55 60 L55 60 Z " />
<glyph glyph-name="semicolon" unicode="&#x3b;" horiz-adv-x="250" d="M22 -121 L101 -121 L179 -15 C207 23 219 49 219 83 C219 121 190 152 147 152 C100 152 57 116 57 65 C57 30 77 6 104 -2 L22 -121 Z M117 374 C117 333 148 304 189 304 C241 304 280 348 280 396 C280 437 250 466 208 466 C156 466 117 422 117 374 L117 374 Z " />
<glyph glyph-name="less" unicode="&#x3c;" horiz-adv-x="413" d="M386 75 L409 193 L221 302 L451 413 L478 550 L89 354 L73 269 L386 75 Z " />
<glyph glyph-name="equal" unicode="&#x3d;" horiz-adv-x="496" d="M112 365 L524 365 L547 484 L136 484 L112 365 Z M67 133 L479 133 L502 252 L90 252 L67 133 Z " />
<glyph glyph-name="greater" unicode="&#x3e;" horiz-adv-x="413" d="M54 75 L443 271 L459 356 L147 550 L124 432 L312 323 L82 212 L54 75 Z " />
<glyph glyph-name="question" unicode="&#x3f;" horiz-adv-x="471" d="M199 283 L191 239 L315 239 L320 267 C343 398 552 422 552 586 C552 684 473 741 368 741 C267 741 189 691 139 639 L230 547 C260 579 298 607 339 607 C375 607 400 588 400 552 C400 460 229 436 199 283 L199 283 Z M147 60 C147 19 176 -10 218 -10 C270 -10 309 34 309 82 C309 123 280 152 238 152 C186 152 147 108 147 60 L147 60 Z " />
<glyph glyph-name="at" unicode="&#x40;" horiz-adv-x="978" d="M464 -134 C582 -134 675 -100 744 -35 L664 45 C624 9 568 -19 474 -19 C314 -19 205 88 205 261 C205 457 367 642 601 642 C788 642 892 540 892 391 C892 282 855 200 795 200 C765 200 752 214 752 241 C752 248 753 255 756 268 L801 506 L701 506 L689 446 C663 493 614 522 543 522 C415 522 311 405 311 275 C311 163 382 83 486 83 C553 83 609 115 649 165 C664 119 715 87 784 87 C911 87 1014 221 1014 399 C1014 615 848 754 615 754 C317 754 82 522 82 238 C82 20 245 -134 464 -134 L464 -134 Z M435 287 C435 352 487 412 553 412 C608 412 643 376 643 322 C643 256 590 193 526 193 C472 193 435 231 435 287 L435 287 Z " />
<glyph glyph-name="A" unicode="A" horiz-adv-x="637" d="M2 0 L149 0 L227 154 L481 154 L501 0 L633 0 L538 695 L366 695 L2 0 Z M286 270 L430 553 L466 270 L286 270 Z " />
<glyph glyph-name="B" unicode="B" horiz-adv-x="615" d="M63 0 L365 0 C517 0 623 91 623 216 C623 283 592 336 532 365 C609 396 660 457 660 542 C660 633 600 695 486 695 L198 695 L63 0 Z M225 114 L261 300 L388 300 C449 300 482 268 482 214 C482 153 437 114 360 114 L225 114 Z M283 414 L315 581 L427 581 C468 581 511 564 511 509 C511 453 467 414 403 414 L283 414 Z " />
<glyph glyph-name="C" unicode="C" horiz-adv-x="686" d="M692 105 L594 202 C554 153 494 121 422 121 C311 121 237 199 237 312 C237 455 336 574 477 574 C563 574 618 536 648 490 L752 594 C703 663 606 708 491 708 C261 708 91 523 91 301 C91 115 219 -13 407 -13 C526 -13 623 29 692 105 L692 105 Z " />
<glyph glyph-name="D" unicode="D" horiz-adv-x="707" d="M63 0 L336 0 C579 0 747 172 747 390 C747 574 627 695 445 695 L198 695 L63 0 Z M229 126 L315 569 L426 569 C535 569 600 504 600 389 C600 241 493 126 347 126 L229 126 Z " />
<glyph glyph-name="E" unicode="E" horiz-adv-x="558" d="M63 0 L522 0 L546 123 L229 123 L262 293 L537 293 L561 416 L285 416 L315 572 L627 572 L651 695 L198 695 L63 0 Z " />
<glyph glyph-name="F" unicode="F" horiz-adv-x="537" d="M63 0 L204 0 L260 287 L531 287 L556 409 L284 409 L315 572 L623 572 L647 695 L198 695 L63 0 Z " />
<glyph glyph-name="G" unicode="G" horiz-adv-x="756" d="M648 488 L759 599 C708 667 605 708 490 708 C259 708 91 528 91 304 C91 113 221 -13 409 -13 C621 -13 763 114 799 372 L451 372 L430 264 L635 264 C593 165 524 114 430 114 C313 114 237 194 237 315 C237 459 344 574 478 574 C563 574 623 538 648 488 L648 488 Z " />
<glyph glyph-name="H" unicode="H" horiz-adv-x="675" d="M468 0 L610 0 L745 695 L603 695 L549 418 L285 418 L339 695 L198 695 L63 0 L204 0 L261 292 L525 292 L468 0 Z " />
<glyph glyph-name="I" unicode="I" horiz-adv-x="269" d="M63 0 L204 0 L339 695 L198 695 L63 0 Z " />
<glyph glyph-name="J" unicode="J" horiz-adv-x="338" d="M19 0 L84 0 C210 0 291 63 316 189 L414 695 L272 695 L178 211 C168 159 134 126 83 126 L44 126 L19 0 Z " />
<glyph glyph-name="K" unicode="K" horiz-adv-x="629" d="M480 0 L634 0 L411 354 L758 695 L585 695 L282 399 L339 695 L198 695 L63 0 L204 0 L268 331 L480 0 Z " />
<glyph glyph-name="L" unicode="L" horiz-adv-x="530" d="M63 0 L516 0 L541 126 L230 126 L339 695 L198 695 L63 0 Z " />
<glyph glyph-name="M" unicode="M" horiz-adv-x="836" d="M362 24 L480 24 L722 490 L659 0 L791 0 L876 695 L710 695 L452 203 L385 695 L227 695 L43 0 L177 0 L303 482 L362 24 Z " />
<glyph glyph-name="N" unicode="N" horiz-adv-x="675" d="M494 0 L611 0 L746 695 L605 695 L518 245 L315 695 L198 695 L63 0 L204 0 L291 448 L494 0 Z " />
<glyph glyph-name="O" unicode="O" horiz-adv-x="773" d="M414 -13 C635 -13 813 164 813 388 C813 579 682 708 491 708 C265 708 91 526 91 309 C91 122 221 -13 414 -13 L414 -13 Z M237 318 C237 457 343 574 480 574 C593 574 667 496 667 379 C667 240 562 121 424 121 C311 121 237 200 237 318 L237 318 Z " />
<glyph glyph-name="P" unicode="P" horiz-adv-x="596" d="M63 0 L204 0 L255 261 L397 261 C558 261 673 363 673 504 C673 621 593 695 463 695 L198 695 L63 0 Z M279 385 L315 572 L435 572 C494 572 526 540 526 487 C526 428 480 385 409 385 L279 385 Z " />
<glyph glyph-name="Q" unicode="Q" horiz-adv-x="792" d="M640 -171 L744 -67 L623 46 C737 116 813 242 813 388 C813 579 682 708 491 708 C265 708 91 526 91 309 C91 122 221 -13 414 -13 C433 -13 451 -12 469 -9 L640 -171 Z M237 318 C237 457 343 574 480 574 C593 574 667 496 667 379 C667 240 562 121 424 121 C311 121 237 200 237 318 L237 318 Z " />
<glyph glyph-name="R" unicode="R" horiz-adv-x="611" d="M63 0 L204 0 L260 287 L300 287 L440 0 L586 0 L438 289 C588 304 673 399 673 511 C673 621 600 695 463 695 L198 695 L63 0 Z M279 388 L315 572 L440 572 C499 572 531 540 531 489 C531 431 485 388 407 388 L279 388 Z " />
<glyph glyph-name="S" unicode="S" horiz-adv-x="572" d="M303 -13 C469 -13 579 77 579 212 C579 432 291 392 291 510 C291 556 331 587 394 587 C456 587 508 559 539 514 L637 612 C594 663 512 708 407 708 C250 708 145 619 145 492 C145 282 432 326 432 195 C432 143 392 110 326 110 C249 110 194 143 152 198 L41 101 C87 35 176 -13 303 -13 L303 -13 Z " />
<glyph glyph-name="T" unicode="T" horiz-adv-x="570" d="M212 0 L354 0 L465 569 L666 569 L691 695 L146 695 L121 569 L323 569 L212 0 Z " />
<glyph glyph-name="U" unicode="U" horiz-adv-x="659" d="M341 -13 C504 -13 619 85 652 258 L736 695 L595 695 L511 259 C493 169 439 121 361 121 C277 121 233 178 252 279 L332 695 L190 695 L110 278 C78 113 162 -13 341 -13 L341 -13 Z " />
<glyph glyph-name="V" unicode="V" horiz-adv-x="645" d="M230 0 L404 0 L773 695 L619 695 L345 163 L271 695 L130 695 L230 0 Z " />
<glyph glyph-name="W" unicode="W" horiz-adv-x="898" d="M166 0 L331 0 L545 497 L565 0 L730 0 L1022 695 L877 695 L673 166 L656 695 L502 695 L280 168 L281 695 L144 695 L166 0 Z " />
<glyph glyph-name="X" unicode="X" horiz-adv-x="650" d="M499 0 L653 0 L476 347 L776 695 L604 695 L415 467 L299 695 L145 695 L313 366 L-7 0 L165 0 L373 247 L499 0 Z " />
<glyph glyph-name="Y" unicode="Y" horiz-adv-x="633" d="M245 0 L386 0 L440 281 L769 695 L601 695 L389 407 L275 695 L132 695 L300 284 L245 0 Z " />
<glyph glyph-name="Z" unicode="Z" horiz-adv-x="566" d="M26 0 L539 0 L561 127 L274 127 L668 695 L168 695 L144 572 L422 572 L26 0 Z " />
<glyph glyph-name="bracketleft" unicode="&#x5b;" horiz-adv-x="317" d="M37 -122 L266 -122 L290 -6 L193 -6 L327 684 L423 684 L446 801 L217 801 L37 -122 Z " />
<glyph glyph-name="backslash" unicode="&#x5c;" horiz-adv-x="366" d="M206 -50 L330 -50 L286 711 L163 711 L206 -50 Z " />
<glyph glyph-name="bracketright" unicode="&#x5d;" horiz-adv-x="317" d="M1 -122 L230 -122 L410 801 L181 801 L158 684 L254 684 L120 -6 L24 -6 L1 -122 Z " />
<glyph glyph-name="asciicircum" unicode="&#x5e;" horiz-adv-x="519" d="M97 359 L245 359 L371 526 L432 359 L559 359 L429 677 L345 677 L97 359 Z " />
<glyph glyph-name="underscore" unicode="&#x5f;" horiz-adv-x="546" d="M-3 -136 L493 -136 L515 -21 L19 -21 L-3 -136 Z " />
<glyph glyph-name="grave" unicode="&#x60;" horiz-adv-x="330" d="M397 572 L453 655 L211 815 L150 720 L397 572 Z " />
<glyph glyph-name="a" unicode="a" horiz-adv-x="628" d="M284 -13 C352 -13 409 15 454 59 L443 0 L574 0 L676 527 L545 527 L533 459 C502 510 448 539 373 539 C203 539 72 389 72 220 C72 82 159 -13 284 -13 L284 -13 Z M215 241 C215 334 285 414 374 414 C445 414 492 363 492 288 C492 194 424 112 335 112 C264 112 215 166 215 241 L215 241 Z " />
<glyph glyph-name="b" unicode="b" horiz-adv-x="629" d="M355 -13 C528 -13 656 139 656 307 C656 440 574 539 447 539 C385 539 331 516 287 480 L335 731 L194 731 L52 0 L183 0 L195 64 C229 14 284 -13 355 -13 L355 -13 Z M236 239 C236 330 303 414 393 414 C463 414 513 361 513 286 C513 196 447 112 354 112 C284 112 236 164 236 239 L236 239 Z " />
<glyph glyph-name="c" unicode="c" horiz-adv-x="544" d="M322 -13 C420 -13 495 22 545 83 L456 172 C429 139 391 113 339 113 C261 113 216 172 216 242 C216 334 282 413 373 413 C426 413 466 382 486 350 L585 449 C547 497 475 539 382 539 C213 539 73 396 73 226 C73 86 171 -13 322 -13 L322 -13 Z " />
<glyph glyph-name="d" unicode="d" horiz-adv-x="628" d="M284 -13 C352 -13 409 15 454 59 L443 0 L574 0 L716 731 L575 731 L525 470 C493 514 442 539 373 539 C203 539 72 389 72 220 C72 82 159 -13 284 -13 L284 -13 Z M215 241 C215 334 285 414 374 414 C445 414 492 363 492 288 C492 194 424 112 335 112 C264 112 215 166 215 241 L215 241 Z " />
<glyph glyph-name="e" unicode="e" horiz-adv-x="581" d="M318 -13 C427 -13 492 24 549 81 L462 168 C425 122 387 104 334 104 C264 104 214 145 209 220 L592 220 C602 245 611 290 611 324 C611 440 524 539 383 539 C211 539 72 395 72 224 C72 87 171 -13 318 -13 L318 -13 Z M222 314 C246 380 300 432 377 432 C445 432 482 389 482 322 L482 314 L222 314 Z " />
<glyph glyph-name="f" unicode="f" horiz-adv-x="362" d="M199 536 L197 527 L118 527 L94 406 L174 406 L96 0 L237 0 L315 406 L427 406 L451 527 L339 527 L342 544 C353 600 387 629 438 629 L472 629 L494 740 L449 740 C301 740 223 664 199 536 L199 536 Z " />
<glyph glyph-name="g" unicode="g" horiz-adv-x="628" d="M284 15 C351 15 413 46 462 95 L456 65 C439 -23 378 -70 278 -70 C213 -70 160 -48 123 1 L31 -90 C76 -147 168 -192 273 -192 C452 -192 554 -102 590 78 L677 527 L547 527 L533 460 C502 510 446 539 373 539 C210 539 72 397 72 235 C72 108 160 15 284 15 L284 15 Z M215 249 C215 338 285 414 374 414 C446 414 492 367 492 295 C492 203 424 126 335 126 C263 126 215 176 215 249 L215 249 Z " />
<glyph glyph-name="h" unicode="h" horiz-adv-x="593" d="M52 0 L193 0 L254 314 C270 375 319 414 377 414 C438 414 475 375 460 298 L403 0 L544 0 L607 324 C633 454 563 540 443 540 C383 540 328 517 286 482 L335 731 L194 731 L52 0 Z " />
<glyph glyph-name="i" unicode="i" horiz-adv-x="254" d="M52 0 L193 0 L295 527 L154 527 L52 0 Z M162 686 C162 639 198 606 246 606 C305 606 352 654 352 708 C352 755 316 788 268 788 C209 788 162 740 162 686 L162 686 Z " />
<glyph glyph-name="j" unicode="j" horiz-adv-x="257" d="M-75 -185 L-47 -185 C77 -185 174 -112 201 27 L298 527 L157 527 L60 25 C49 -31 11 -63 -34 -63 L-52 -63 L-75 -185 Z M168 687 C168 640 204 607 252 607 C311 607 358 655 358 709 C358 756 322 789 274 789 C215 789 168 741 168 687 L168 687 Z " />
<glyph glyph-name="k" unicode="k" horiz-adv-x="529" d="M52 0 L193 0 L242 254 L386 0 L535 0 L381 277 L634 527 L464 527 L256 324 L335 731 L194 731 L52 0 Z " />
<glyph glyph-name="l" unicode="l" horiz-adv-x="247" d="M52 0 L193 0 L335 731 L194 731 L52 0 Z " />
<glyph glyph-name="m" unicode="m" horiz-adv-x="908" d="M776 300 L718 0 L859 0 L923 326 C948 455 878 539 766 539 C693 539 625 498 581 442 C562 503 512 539 435 539 C375 539 319 513 277 474 L287 527 L154 527 L52 0 L193 0 L254 315 C271 375 319 413 368 413 C420 413 458 376 443 300 L385 0 L526 0 L588 316 C605 375 652 413 701 413 C753 413 791 376 776 300 L776 300 Z " />
<glyph glyph-name="n" unicode="n" horiz-adv-x="593" d="M460 297 L403 0 L544 0 L607 323 C633 453 563 539 443 539 C378 539 320 512 277 473 L287 527 L154 527 L52 0 L193 0 L254 315 C271 375 320 413 377 413 C438 413 475 374 460 297 L460 297 Z " />
<glyph glyph-name="o" unicode="o" horiz-adv-x="612" d="M321 -13 C505 -13 640 135 640 302 C640 453 528 539 391 539 C214 539 72 396 72 225 C72 77 178 -13 321 -13 L321 -13 Z M217 241 C217 331 283 414 376 414 C449 414 496 362 496 287 C496 199 432 113 338 113 C263 113 217 166 217 241 L217 241 Z " />
<glyph glyph-name="p" unicode="p" horiz-adv-x="629" d="M353 -13 C522 -13 656 132 656 307 C656 440 573 539 448 539 C380 539 321 513 274 470 L285 527 L154 527 L17 -179 L158 -179 L203 53 C238 11 291 -13 353 -13 L353 -13 Z M236 239 C236 334 306 414 392 414 C463 414 513 361 513 286 C513 192 442 112 355 112 C284 112 236 164 236 239 L236 239 Z " />
<glyph glyph-name="q" unicode="q" horiz-adv-x="628" d="M284 -13 C346 -13 399 10 442 48 L398 -179 L539 -179 L676 527 L545 527 L533 459 C502 510 448 539 373 539 C203 539 72 389 72 220 C72 82 159 -13 284 -13 L284 -13 Z M215 241 C215 334 285 414 374 414 C445 414 492 363 492 288 C492 194 424 112 335 112 C264 112 215 166 215 241 L215 241 Z " />
<glyph glyph-name="r" unicode="r" horiz-adv-x="350" d="M52 0 L193 0 L251 297 C271 369 324 407 413 407 L438 540 C376 540 319 510 276 466 L287 527 L154 527 L52 0 Z " />
<glyph glyph-name="s" unicode="s" horiz-adv-x="484" d="M260 -13 C395 -13 494 58 494 166 C494 333 254 301 254 382 C254 412 287 432 331 432 C374 432 413 415 445 379 L532 465 C495 507 426 539 334 539 C203 539 112 469 112 370 C112 206 351 242 351 153 C351 118 312 99 271 99 C224 99 176 114 127 170 L32 75 C75 27 149 -13 260 -13 L260 -13 Z " />
<glyph glyph-name="t" unicode="t" horiz-adv-x="392" d="M302 0 L375 0 L399 123 L355 123 C297 123 268 156 281 222 L317 406 L449 406 L473 527 L346 527 L373 665 L235 665 L220 583 C212 546 191 527 156 527 L112 527 L88 406 L176 406 L137 205 C113 79 172 0 302 0 L302 0 Z " />
<glyph glyph-name="u" unicode="u" horiz-adv-x="585" d="M244 -13 C309 -13 367 16 409 58 L398 0 L531 0 L633 527 L492 527 L434 226 C421 158 370 113 311 113 C254 113 217 151 232 229 L289 527 L148 527 L86 203 C60 73 131 -13 244 -13 L244 -13 Z " />
<glyph glyph-name="v" unicode="v" horiz-adv-x="549" d="M191 0 L356 0 L648 527 L491 527 L299 136 L244 527 L103 527 L191 0 Z " />
<glyph glyph-name="w" unicode="w" horiz-adv-x="789" d="M139 0 L304 0 L464 369 L485 0 L649 0 L884 527 L739 527 L585 137 L563 527 L414 527 L253 137 L239 527 L106 527 L139 0 Z " />
<glyph glyph-name="x" unicode="x" horiz-adv-x="543" d="M401 0 L547 0 L401 262 L645 527 L482 527 L343 365 L253 527 L106 527 L246 277 L-11 0 L151 0 L305 171 L401 0 Z " />
<glyph glyph-name="y" unicode="y" horiz-adv-x="551" d="M191 0 L221 0 L116 -179 L256 -179 L356 0 L648 527 L491 527 L299 136 L244 527 L103 527 L191 0 Z " />
<glyph glyph-name="z" unicode="z" horiz-adv-x="535" d="M24 0 L508 0 L530 114 L283 114 L609 527 L139 527 L116 413 L355 413 L24 0 Z " />
<glyph glyph-name="braceleft" unicode="&#x7b;" horiz-adv-x="337" d="M247 -122 L284 -122 L307 -6 L289 -6 C249 -6 231 21 240 69 L269 219 C282 284 262 316 222 339 C276 364 303 397 315 459 L346 613 C355 660 383 684 423 684 L441 684 L463 801 L426 801 C307 801 236 729 213 614 L182 456 C174 416 150 399 117 399 L93 399 L69 279 L93 279 C121 279 146 268 137 222 L107 68 C84 -50 135 -122 247 -122 L247 -122 Z " />
<glyph glyph-name="bar" unicode="&#x7c;" horiz-adv-x="230" d="M43 -93 L148 -93 L306 719 L201 719 L43 -93 Z " />
<glyph glyph-name="braceright" unicode="&#x7d;" horiz-adv-x="336" d="M3 -122 L40 -122 C158 -122 231 -51 254 64 L284 222 C293 265 320 279 350 279 L373 279 L397 399 L374 399 C349 399 320 408 330 456 L360 611 C383 728 331 801 221 801 L183 801 L159 684 L178 684 C217 684 236 657 227 610 L198 459 C186 394 204 364 244 339 C195 316 165 286 151 219 L121 66 C111 16 83 -6 45 -6 L26 -6 L3 -122 Z " />
<glyph glyph-name="asciitilde" unicode="&#x7e;" horiz-adv-x="512" d="M405 240 C462 240 504 267 539 311 L483 394 C461 366 434 355 407 355 C341 355 317 407 230 407 C173 407 131 381 96 336 L152 254 C174 281 201 293 228 293 C294 293 318 240 405 240 L405 240 Z " />
<glyph glyph-name="uni00A0" unicode="&#xa0;" horiz-adv-x="193" d="" />
<glyph glyph-name="exclamdown" unicode="&#xa1;" horiz-adv-x="256" d="M10 -179 L171 -179 L239 285 L134 285 L10 -179 Z M133 442 C133 402 160 372 205 372 C257 372 296 415 296 463 C296 505 266 533 224 533 C172 533 133 489 133 442 L133 442 Z " />
<glyph glyph-name="cent" unicode="&#xa2;" horiz-adv-x="628" d="M272 0 L387 0 L404 92 C484 107 551 159 589 237 L477 285 C455 237 416 212 370 212 C314 212 278 253 278 313 C278 386 333 450 405 450 C453 450 485 421 490 376 L618 422 C612 492 559 547 485 566 L504 661 L389 661 L372 569 C241 545 142 431 142 298 C142 196 200 120 291 95 L272 0 Z " />
<glyph glyph-name="sterling" unicode="&#xa3;" horiz-adv-x="628" d="M120 0 L554 0 L580 129 L294 129 L323 278 L512 278 L537 407 L348 407 L362 477 C374 539 417 579 478 579 C532 579 561 551 577 524 L684 632 C650 673 583 708 492 708 C340 708 242 625 213 478 L199 407 L126 407 L100 278 L174 278 L120 0 Z " />
<glyph glyph-name="currency" unicode="&#xa4;" horiz-adv-x="628" d="M343 110 C389 110 432 122 469 143 L515 86 L594 154 L548 212 C583 257 603 312 603 366 C603 394 598 419 588 442 L650 494 L585 576 L521 522 C491 540 454 551 411 551 C365 551 323 539 286 518 L240 576 L160 508 L207 450 C172 405 151 351 151 296 C151 268 156 242 166 219 L105 168 L170 86 L234 139 C263 121 300 110 343 110 L343 110 Z M276 313 C276 374 325 437 394 437 C446 437 478 401 478 349 C478 288 430 224 361 224 C309 224 276 261 276 313 L276 313 Z " />
<glyph glyph-name="yen" unicode="&#xa5;" horiz-adv-x="628" d="M131 84 L258 84 L242 0 L383 0 L399 84 L525 84 L544 179 L418 179 L427 226 L553 226 L572 322 L462 322 L740 695 L571 695 L393 429 L306 695 L156 695 L288 322 L178 322 L158 226 L286 226 L277 180 L149 180 L131 84 Z " />
<glyph glyph-name="brokenbar" unicode="&#xa6;" horiz-adv-x="230" d="M138 394 L242 394 L306 719 L201 719 L138 394 Z M43 -93 L148 -93 L211 232 L107 232 L43 -93 Z " />
<glyph glyph-name="section" unicode="&#xa7;" horiz-adv-x="492" d="M229 -132 C363 -132 462 -62 462 47 C462 93 445 125 419 148 C482 178 520 230 520 300 C520 473 287 440 287 539 C287 575 318 599 365 599 C404 599 446 582 474 544 L563 633 C527 673 465 700 372 700 C237 700 149 631 149 530 C149 483 168 451 195 428 C130 397 90 342 90 274 C90 111 320 133 320 36 C320 -4 283 -28 237 -28 C186 -28 138 1 102 49 L13 -41 C59 -98 128 -132 229 -132 L229 -132 Z M221 295 C221 336 258 367 306 368 C348 348 383 326 383 284 C383 247 356 220 316 208 C265 231 221 251 221 295 L221 295 Z " />
<glyph glyph-name="dieresis" unicode="&#xa8;" horiz-adv-x="444" d="M469 609 C524 609 571 655 571 705 C571 755 539 785 492 785 C438 785 391 740 391 690 C391 640 423 609 469 609 L469 609 Z M162 690 C162 640 195 609 241 609 C295 609 342 655 342 705 C342 755 310 785 264 785 C210 785 162 740 162 690 L162 690 Z " />
<glyph glyph-name="copyright" unicode="&#xa9;" horiz-adv-x="745" d="M398 -13 C609 -13 780 157 780 370 C780 552 655 675 473 675 C258 675 90 500 90 293 C90 116 215 -13 398 -13 L398 -13 Z M184 301 C184 454 309 585 465 585 C595 585 686 494 686 362 C686 205 558 77 406 77 C275 77 184 171 184 301 L184 301 Z M250 305 C250 210 317 143 415 143 C484 143 542 171 576 209 L507 278 C490 259 465 242 433 242 C387 242 360 272 360 317 C360 373 401 419 456 419 C490 419 514 402 527 383 L600 457 C573 492 519 518 461 518 C347 518 250 421 250 305 L250 305 Z " />
<glyph glyph-name="ordfeminine" unicode="&#xaa;" horiz-adv-x="387" d="M275 516 C315 516 349 534 376 561 L370 525 L443 525 L501 820 L427 820 L419 776 C401 808 367 828 318 828 C221 828 149 736 149 647 C149 566 202 516 275 516 L275 516 Z M249 663 C249 705 283 739 321 739 C357 739 376 715 376 683 C376 645 347 608 304 608 C270 608 249 631 249 663 L249 663 Z " />
<glyph glyph-name="guillemotleft" unicode="&#xab;" horiz-adv-x="503" d="M342 74 L464 74 L388 235 L542 415 L409 415 L263 244 L342 74 Z M72 244 L151 74 L271 74 L196 235 L349 415 L217 415 L72 244 Z " />
<glyph glyph-name="logicalnot" unicode="&#xac;" horiz-adv-x="492" d="M91 280 L371 280 L343 132 L475 132 L526 399 L114 399 L91 280 Z " />
<glyph glyph-name="registered" unicode="&#xae;" horiz-adv-x="504" d="M322 268 C456 268 565 376 565 513 C565 629 485 708 369 708 C231 708 125 597 125 464 C125 351 205 268 322 268 L322 268 Z M184 468 C184 567 265 651 363 651 C447 651 506 592 506 508 C506 409 426 324 327 324 C242 324 184 386 184 468 L184 468 Z M253 383 L305 383 L322 469 L333 469 L363 383 L417 383 L381 471 C416 479 442 506 442 542 C442 579 414 601 374 601 L295 601 L253 383 Z M330 510 L339 560 L363 560 C381 560 389 552 389 537 C389 521 377 510 357 510 L330 510 Z " />
<glyph glyph-name="macron" unicode="&#xaf;" horiz-adv-x="353" d="M153 642 L477 642 L497 747 L174 747 L153 642 Z " />
<glyph glyph-name="degree" unicode="&#xb0;" horiz-adv-x="382" d="M275 377 C379 377 461 460 461 558 C461 647 393 699 312 699 C211 699 126 619 126 519 C126 432 191 377 275 377 L275 377 Z M219 528 C219 577 258 615 304 615 C339 615 368 589 368 548 C368 500 331 461 284 461 C247 461 219 487 219 528 L219 528 Z " />
<glyph glyph-name="plusminus" unicode="&#xb1;" horiz-adv-x="473" d="M210 194 L334 194 L364 349 L509 349 L532 468 L387 468 L418 626 L294 626 L263 468 L118 468 L95 349 L240 349 L210 194 Z M31 25 L446 25 L469 144 L55 144 L31 25 Z " />
<glyph glyph-name="uni00B2" unicode="&#xb2;" horiz-adv-x="338" d="M108 347 L361 347 L375 421 L252 421 L317 474 C376 522 406 558 406 612 C406 666 362 701 293 701 C228 701 180 672 151 644 L209 586 C229 607 253 623 278 623 C299 623 312 612 312 594 C312 569 289 546 247 511 L120 406 L108 347 Z " />
<glyph glyph-name="uni00B3" unicode="&#xb3;" horiz-adv-x="317" d="M232 340 C311 340 375 392 375 460 C375 507 346 542 302 553 L387 625 L401 695 L177 695 L163 624 L288 624 L204 557 L193 499 L243 499 C269 499 284 484 284 463 C284 438 264 417 232 417 C199 417 176 429 159 445 L98 384 C122 359 162 340 232 340 L232 340 Z " />
<glyph glyph-name="acute" unicode="&#xb4;" horiz-adv-x="333" d="M201 582 L466 721 L412 818 L151 665 L201 582 Z " />
<glyph glyph-name="uni00B5" unicode="&#xb5;" horiz-adv-x="3146" d="M457 540 C379 540 323 512 286 464 L286 527 L151 527 L151 -175 L286 -175 L286 62 C323 14 379 -17 457 -17 C598 -17 715 105 715 263 C715 419 598 540 457 540 L457 540 Z M286 263 C286 352 349 412 431 412 C515 412 577 352 577 263 C577 175 515 115 431 115 C349 115 286 175 286 263 L286 263 Z M745 263 C745 419 861 540 999 540 C1075 540 1133 512 1171 464 L1171 527 L1306 527 L1306 81 L1222 -1 L1171 -1 L1171 62 C1133 15 1075 -17 999 -17 C861 -17 745 105 745 263 L745 263 Z M880 263 C880 175 942 115 1024 115 C1109 115 1171 175 1171 263 C1171 352 1109 412 1024 412 C942 412 880 352 880 263 L880 263 Z M1293 -1 L1687 396 L1385 396 L1385 527 L2001 527 L1611 127 L1913 127 C1932 75 1965 30 2007 -1 L1293 -1 Z M1943 263 C1943 105 2056 -17 2230 -17 C2332 -17 2411 26 2460 97 L2351 162 C2327 130 2286 108 2233 108 C2163 108 2105 138 2086 206 L2480 206 C2484 224 2485 243 2485 263 C2485 419 2377 540 2221 540 C2057 540 1943 419 1943 263 L1943 263 Z M2084 311 C2099 381 2149 419 2221 419 C2277 419 2334 388 2351 311 L2084 311 Z M2533 310 C2552 281 2586 261 2632 261 C2691 261 2729 291 2729 335 C2729 435 2592 407 2592 462 C2592 479 2609 491 2636 491 C2658 491 2677 480 2691 458 L2724 493 C2709 517 2676 532 2638 532 C2581 532 2544 503 2544 458 C2544 365 2680 394 2680 334 C2680 315 2663 301 2635 301 C2605 301 2583 318 2566 343 L2533 310 Z M2767 267 L2813 267 L2826 456 L2887 277 L2927 277 L2989 456 L3002 267 L3046 267 L3029 525 L2974 525 L2907 331 L2841 525 L2787 525 L2767 267 Z " />
<glyph glyph-name="paragraph" unicode="&#xb6;" horiz-adv-x="630" d="M318 261 L378 261 L439 577 L480 577 L348 -100 L423 -100 L555 577 L595 577 L464 -100 L538 -100 L692 695 L382 695 C222 695 109 582 109 447 C109 333 192 261 318 261 L318 261 Z " />
<glyph glyph-name="periodcentered" unicode="&#xb7;" horiz-adv-x="236" d="M172 253 C224 253 263 298 263 345 C263 386 234 415 192 415 C140 415 100 371 100 324 C100 282 130 253 172 253 L172 253 Z " />
<glyph glyph-name="cedilla" unicode="&#xb8;" horiz-adv-x="273" d="M112 -242 C192 -242 250 -192 250 -130 C250 -91 226 -58 190 -48 L224 16 L139 16 L92 -70 L100 -82 L109 -82 C135 -82 150 -100 150 -123 C150 -147 130 -166 99 -166 C71 -166 57 -152 48 -137 L-7 -191 C12 -219 56 -242 112 -242 L112 -242 Z " />
<glyph glyph-name="uni00B9" unicode="&#xb9;" horiz-adv-x="285" d="M110 347 L318 347 L334 427 L287 427 L339 695 L244 695 L237 662 C235 650 226 643 216 643 L169 643 L154 566 L219 566 L192 427 L126 427 L110 347 Z " />
<glyph glyph-name="ordmasculine" unicode="&#xba;" horiz-adv-x="362" d="M290 516 C393 516 470 600 470 692 C470 778 413 830 330 830 C227 830 149 746 149 654 C149 568 206 516 290 516 L290 516 Z M245 665 C245 704 276 739 317 739 C353 739 374 715 374 681 C374 642 344 607 302 607 C266 607 245 631 245 665 L245 665 Z " />
<glyph glyph-name="guillemotright" unicode="&#xbb;" horiz-adv-x="503" d="M246 74 L378 74 L524 244 L445 415 L324 415 L400 253 L246 74 Z M53 74 L186 74 L332 244 L253 415 L132 415 L208 252 L53 74 Z " />
<glyph glyph-name="onequarter" unicode="&#xbc;" horiz-adv-x="675" d="M98 347 L306 347 L322 427 L275 427 L327 695 L232 695 L225 662 C223 650 214 643 204 643 L157 643 L142 566 L207 566 L180 427 L114 427 L98 347 Z M129 0 L231 0 L704 695 L601 695 L129 0 Z M396 68 L545 68 L532 0 L621 0 L634 68 L667 68 L679 131 L647 131 L689 348 L601 348 L409 134 L396 68 Z M479 131 L582 246 L560 131 L479 131 Z " />
<glyph glyph-name="onehalf" unicode="&#xbd;" horiz-adv-x="711" d="M98 347 L306 347 L322 427 L275 427 L327 695 L232 695 L225 662 C223 650 214 643 204 643 L157 643 L142 566 L207 566 L180 427 L114 427 L98 347 Z M127 0 L229 0 L702 695 L599 695 L127 0 Z M445 0 L698 0 L712 74 L589 74 L654 127 C713 175 743 211 743 265 C743 319 699 354 630 354 C565 354 517 325 488 297 L546 239 C566 260 590 276 615 276 C636 276 649 265 649 247 C649 222 626 199 584 164 L457 59 L445 0 Z " />
<glyph glyph-name="threequarters" unicode="&#xbe;" horiz-adv-x="696" d="M229 340 C308 340 372 392 372 460 C372 507 343 542 299 553 L384 625 L398 695 L174 695 L160 624 L285 624 L201 557 L190 499 L240 499 C266 499 281 484 281 463 C281 438 261 417 229 417 C196 417 173 429 156 445 L95 384 C119 359 159 340 229 340 L229 340 Z M149 0 L251 0 L724 695 L621 695 L149 0 Z M414 68 L563 68 L550 0 L639 0 L652 68 L685 68 L697 131 L665 131 L707 348 L619 348 L427 134 L414 68 Z M497 131 L600 246 L578 131 L497 131 Z " />
<glyph glyph-name="questiondown" unicode="&#xbf;" horiz-adv-x="469" d="M197 -190 C311 -190 382 -135 422 -93 L331 -2 C305 -31 271 -58 224 -58 C185 -58 162 -37 162 -1 C162 91 337 114 364 246 L371 284 L247 284 L243 263 C222 152 10 129 10 -35 C10 -133 89 -190 197 -190 L197 -190 Z M253 441 C253 399 282 371 324 371 C376 371 415 415 415 462 C415 504 386 532 344 532 C292 532 253 489 253 441 L253 441 Z " />
<glyph glyph-name="Agrave" unicode="&#xc0;" horiz-adv-x="653" d="M2 0 L149 0 L227 154 L481 154 L501 0 L633 0 L538 695 L366 695 L2 0 Z M286 270 L430 553 L466 270 L286 270 Z M309 845 L603 751 L639 846 L347 955 L309 845 Z " />
<glyph glyph-name="Aacute" unicode="&#xc1;" horiz-adv-x="653" d="M2 0 L149 0 L227 154 L481 154 L501 0 L633 0 L538 695 L366 695 L2 0 Z M286 270 L430 553 L466 270 L286 270 Z M323 851 L354 754 L658 841 L626 952 L323 851 Z " />
<glyph glyph-name="Acircumflex" unicode="&#xc2;" horiz-adv-x="653" d="M2 0 L149 0 L227 154 L481 154 L501 0 L633 0 L538 695 L366 695 L2 0 Z M267 760 L401 760 L492 845 L546 760 L663 760 L560 937 L445 937 L267 760 Z M286 270 L430 553 L466 270 L286 270 Z " />
<glyph glyph-name="Atilde" unicode="&#xc3;" horiz-adv-x="653" d="M2 0 L149 0 L227 154 L481 154 L501 0 L633 0 L538 695 L366 695 L2 0 Z M281 806 L370 765 C379 793 396 808 424 808 C473 808 492 760 560 760 C632 760 681 815 701 878 L613 919 C603 891 586 876 558 876 C508 876 489 924 422 924 C350 924 302 869 281 806 L281 806 Z M286 270 L430 553 L466 270 L286 270 Z " />
<glyph glyph-name="Adieresis" unicode="&#xc4;" horiz-adv-x="653" d="M2 0 L149 0 L227 154 L481 154 L501 0 L633 0 L538 695 L366 695 L2 0 Z M271 839 C271 789 306 758 353 758 C408 758 456 802 456 859 C456 906 425 940 375 940 C318 940 271 896 271 839 L271 839 Z M286 270 L430 553 L466 270 L286 270 Z M507 839 C507 789 542 758 589 758 C644 758 693 802 693 859 C693 906 662 940 612 940 C554 940 507 896 507 839 L507 839 Z " />
<glyph glyph-name="Aring" unicode="&#xc5;" horiz-adv-x="653" d="M2 0 L149 0 L227 154 L481 154 L501 0 L633 0 L538 695 L366 695 L2 0 Z M286 270 L430 553 L466 270 L286 270 Z M349 806 C349 742 396 696 464 696 C545 696 611 759 611 835 C611 899 565 944 496 944 C415 944 349 882 349 806 L349 806 Z M433 816 C433 843 456 866 485 866 C510 866 527 850 527 825 C527 796 502 775 474 775 C449 775 433 791 433 816 L433 816 Z " />
<glyph glyph-name="AE" unicode="&#xc6;" horiz-adv-x="925" d="M-16 0 L139 0 L237 149 L459 149 L430 0 L889 0 L913 123 L597 123 L629 293 L904 293 L929 416 L653 416 L683 572 L994 572 L1018 695 L440 695 L-16 0 Z M317 270 L517 572 L541 572 L482 270 L317 270 Z " />
<glyph glyph-name="Ccedilla" unicode="&#xc7;" horiz-adv-x="687" d="M692 105 L594 202 C554 153 494 121 422 121 C311 121 237 199 237 312 C237 455 336 574 477 574 C563 574 618 536 648 490 L752 594 C703 663 606 708 491 708 C261 708 91 523 91 301 C91 137 191 18 344 -8 L310 -70 L318 -82 L327 -82 C353 -82 368 -100 368 -123 C368 -147 348 -166 317 -166 C289 -166 275 -152 266 -137 L211 -191 C230 -219 274 -242 330 -242 C410 -242 468 -192 468 -130 C468 -91 444 -58 408 -48 L427 -13 C537 -8 627 33 692 105 L692 105 Z " />
<glyph glyph-name="Egrave" unicode="&#xc8;" horiz-adv-x="572" d="M63 0 L522 0 L546 123 L229 123 L262 293 L537 293 L561 416 L285 416 L315 572 L627 572 L651 695 L198 695 L63 0 Z M280 845 L574 751 L610 846 L318 955 L280 845 Z " />
<glyph glyph-name="Eacute" unicode="&#xc9;" horiz-adv-x="572" d="M63 0 L522 0 L546 123 L229 123 L262 293 L537 293 L561 416 L285 416 L315 572 L627 572 L651 695 L198 695 L63 0 Z M278 851 L309 754 L613 841 L581 952 L278 851 Z " />
<glyph glyph-name="Ecircumflex" unicode="&#xca;" horiz-adv-x="572" d="M63 0 L522 0 L546 123 L229 123 L262 293 L537 293 L561 416 L285 416 L315 572 L627 572 L651 695 L198 695 L63 0 Z M235 760 L369 760 L460 845 L514 760 L631 760 L528 937 L413 937 L235 760 Z " />
<glyph glyph-name="Edieresis" unicode="&#xcb;" horiz-adv-x="572" d="M63 0 L522 0 L546 123 L229 123 L262 293 L537 293 L561 416 L285 416 L315 572 L627 572 L651 695 L198 695 L63 0 Z M237 839 C237 789 272 758 319 758 C374 758 422 802 422 859 C422 906 391 940 341 940 C284 940 237 896 237 839 L237 839 Z M473 839 C473 789 508 758 555 758 C610 758 659 802 659 859 C659 906 628 940 578 940 C520 940 473 896 473 839 L473 839 Z " />
<glyph glyph-name="Igrave" unicode="&#xcc;" horiz-adv-x="277" d="M63 0 L204 0 L339 695 L198 695 L63 0 Z M121 845 L415 751 L451 846 L159 955 L121 845 Z " />
<glyph glyph-name="Iacute" unicode="&#xcd;" horiz-adv-x="277" d="M63 0 L204 0 L339 695 L198 695 L63 0 Z M135 851 L166 754 L470 841 L438 952 L135 851 Z " />
<glyph glyph-name="Icircumflex" unicode="&#xce;" horiz-adv-x="277" d="M63 0 L204 0 L339 695 L198 695 L63 0 Z M80 760 L214 760 L305 845 L359 760 L476 760 L373 937 L258 937 L80 760 Z " />
<glyph glyph-name="Idieresis" unicode="&#xcf;" horiz-adv-x="277" d="M63 0 L204 0 L339 695 L198 695 L63 0 Z M83 839 C83 789 118 758 165 758 C220 758 268 802 268 859 C268 906 237 940 187 940 C130 940 83 896 83 839 L83 839 Z M319 839 C319 789 354 758 401 758 C456 758 505 802 505 859 C505 906 474 940 424 940 C366 940 319 896 319 839 L319 839 Z " />
<glyph glyph-name="Eth" unicode="&#xd0;" horiz-adv-x="735" d="M75 0 L348 0 C591 0 759 172 759 390 C759 574 639 695 457 695 L210 695 L153 403 L81 403 L62 305 L134 305 L75 0 Z M241 126 L275 305 L410 305 L429 403 L294 403 L327 569 L438 569 C547 569 612 504 612 389 C612 241 505 126 359 126 L241 126 Z " />
<glyph glyph-name="Ntilde" unicode="&#xd1;" horiz-adv-x="692" d="M494 0 L611 0 L746 695 L605 695 L518 245 L315 695 L198 695 L63 0 L204 0 L291 448 L494 0 Z M284 806 L373 765 C382 793 399 808 427 808 C476 808 495 760 563 760 C635 760 684 815 704 878 L616 919 C606 891 589 876 561 876 C511 876 492 924 425 924 C353 924 305 869 284 806 L284 806 Z " />
<glyph glyph-name="Ograve" unicode="&#xd2;" horiz-adv-x="792" d="M414 -13 C635 -13 813 164 813 388 C813 579 682 708 491 708 C265 708 91 526 91 309 C91 122 221 -13 414 -13 L414 -13 Z M237 318 C237 457 343 574 480 574 C593 574 667 496 667 379 C667 240 562 121 424 121 C311 121 237 200 237 318 L237 318 Z M379 845 L673 751 L709 846 L417 955 L379 845 Z " />
<glyph glyph-name="Oacute" unicode="&#xd3;" horiz-adv-x="792" d="M414 -13 C635 -13 813 164 813 388 C813 579 682 708 491 708 C265 708 91 526 91 309 C91 122 221 -13 414 -13 L414 -13 Z M237 318 C237 457 343 574 480 574 C593 574 667 496 667 379 C667 240 562 121 424 121 C311 121 237 200 237 318 L237 318 Z M365 851 L396 754 L700 841 L668 952 L365 851 Z " />
<glyph glyph-name="Ocircumflex" unicode="&#xd4;" horiz-adv-x="792" d="M414 -13 C635 -13 813 164 813 388 C813 579 682 708 491 708 C265 708 91 526 91 309 C91 122 221 -13 414 -13 L414 -13 Z M237 318 C237 457 343 574 480 574 C593 574 667 496 667 379 C667 240 562 121 424 121 C311 121 237 200 237 318 L237 318 Z M307 760 L441 760 L532 845 L586 760 L703 760 L600 937 L485 937 L307 760 Z " />
<glyph glyph-name="Otilde" unicode="&#xd5;" horiz-adv-x="792" d="M414 -13 C635 -13 813 164 813 388 C813 579 682 708 491 708 C265 708 91 526 91 309 C91 122 221 -13 414 -13 L414 -13 Z M237 318 C237 457 343 574 480 574 C593 574 667 496 667 379 C667 240 562 121 424 121 C311 121 237 200 237 318 L237 318 Z M313 806 L402 765 C411 793 428 808 456 808 C505 808 524 760 592 760 C664 760 713 815 733 878 L645 919 C635 891 618 876 590 876 C540 876 521 924 454 924 C382 924 334 869 313 806 L313 806 Z " />
<glyph glyph-name="Odieresis" unicode="&#xd6;" horiz-adv-x="792" d="M414 -13 C635 -13 813 164 813 388 C813 579 682 708 491 708 C265 708 91 526 91 309 C91 122 221 -13 414 -13 L414 -13 Z M237 318 C237 457 343 574 480 574 C593 574 667 496 667 379 C667 240 562 121 424 121 C311 121 237 200 237 318 L237 318 Z M324 839 C324 789 359 758 406 758 C461 758 509 802 509 859 C509 906 478 940 428 940 C371 940 324 896 324 839 L324 839 Z M560 839 C560 789 595 758 642 758 C697 758 746 802 746 859 C746 906 715 940 665 940 C607 940 560 896 560 839 L560 839 Z " />
<glyph glyph-name="multiply" unicode="&#xd7;" horiz-adv-x="481" d="M139 113 L292 243 L390 118 L481 195 L383 320 L538 452 L466 541 L313 410 L215 535 L123 459 L222 332 L68 200 L139 113 Z " />
<glyph glyph-name="Oslash" unicode="&#xd8;" horiz-adv-x="792" d="M414 -13 C635 -13 813 164 813 388 C813 454 798 512 769 560 L861 642 L794 721 L702 639 C647 683 575 708 491 708 C265 708 91 526 91 309 C91 243 107 183 137 134 L44 51 L111 -27 L204 56 C259 12 330 -13 414 -13 L414 -13 Z M237 318 C237 457 343 574 480 574 C524 574 562 562 592 541 L251 236 C242 260 237 288 237 318 L237 318 Z M313 153 L654 457 C663 434 667 408 667 379 C667 240 562 121 424 121 C381 121 343 133 313 153 L313 153 Z " />
<glyph glyph-name="Ugrave" unicode="&#xd9;" horiz-adv-x="675" d="M341 -13 C504 -13 619 85 652 258 L736 695 L595 695 L511 259 C493 169 439 121 361 121 C277 121 233 178 252 279 L332 695 L190 695 L110 278 C78 113 162 -13 341 -13 L341 -13 Z M318 845 L612 751 L648 846 L356 955 L318 845 Z " />
<glyph glyph-name="Uacute" unicode="&#xda;" horiz-adv-x="675" d="M341 -13 C504 -13 619 85 652 258 L736 695 L595 695 L511 259 C493 169 439 121 361 121 C277 121 233 178 252 279 L332 695 L190 695 L110 278 C78 113 162 -13 341 -13 L341 -13 Z M317 851 L348 754 L652 841 L620 952 L317 851 Z " />
<glyph glyph-name="Ucircumflex" unicode="&#xdb;" horiz-adv-x="675" d="M341 -13 C504 -13 619 85 652 258 L736 695 L595 695 L511 259 C493 169 439 121 361 121 C277 121 233 178 252 279 L332 695 L190 695 L110 278 C78 113 162 -13 341 -13 L341 -13 Z M264 760 L398 760 L489 845 L543 760 L660 760 L557 937 L442 937 L264 760 Z " />
<glyph glyph-name="Udieresis" unicode="&#xdc;" horiz-adv-x="675" d="M341 -13 C504 -13 619 85 652 258 L736 695 L595 695 L511 259 C493 169 439 121 361 121 C277 121 233 178 252 279 L332 695 L190 695 L110 278 C78 113 162 -13 341 -13 L341 -13 Z M276 839 C276 789 311 758 358 758 C413 758 461 802 461 859 C461 906 430 940 380 940 C323 940 276 896 276 839 L276 839 Z M512 839 C512 789 547 758 594 758 C649 758 698 802 698 859 C698 906 667 940 617 940 C559 940 512 896 512 839 L512 839 Z " />
<glyph glyph-name="Yacute" unicode="&#xdd;" horiz-adv-x="650" d="M245 0 L386 0 L440 281 L769 695 L601 695 L389 407 L275 695 L132 695 L300 284 L245 0 Z M285 851 L316 754 L620 841 L588 952 L285 851 Z " />
<glyph glyph-name="Thorn" unicode="&#xde;" horiz-adv-x="606" d="M63 0 L204 0 L230 135 L372 135 C520 135 640 225 647 373 C654 485 578 569 443 569 L315 569 L339 695 L198 695 L63 0 Z M254 259 L290 445 L417 445 C479 445 506 405 500 355 C494 299 453 259 382 259 L254 259 Z " />
<glyph glyph-name="germandbls" unicode="&#xdf;" horiz-adv-x="613" d="M360 -13 C498 -13 604 65 622 200 C633 289 592 361 530 387 C598 412 654 476 663 552 C678 657 608 743 461 743 C293 743 178 648 146 485 L52 0 L193 0 L288 493 C305 580 355 626 428 626 C485 626 522 590 517 537 C511 482 466 435 388 435 L366 325 C452 325 488 280 481 216 C476 149 428 105 362 105 C335 105 313 113 294 129 L252 17 C279 -2 316 -13 360 -13 L360 -13 Z " />
<glyph glyph-name="agrave" unicode="&#xe0;" horiz-adv-x="643" d="M284 -13 C352 -13 409 15 454 59 L443 0 L574 0 L676 527 L545 527 L533 459 C502 510 448 539 373 539 C203 539 72 389 72 220 C72 82 159 -13 284 -13 L284 -13 Z M215 241 C215 334 285 414 374 414 C445 414 492 363 492 288 C492 194 424 112 335 112 C264 112 215 166 215 241 L215 241 Z M285 720 L532 572 L588 655 L346 815 L285 720 Z " />
<glyph glyph-name="aacute" unicode="&#xe1;" horiz-adv-x="643" d="M284 -13 C352 -13 409 15 454 59 L443 0 L574 0 L676 527 L545 527 L533 459 C502 510 448 539 373 539 C203 539 72 389 72 220 C72 82 159 -13 284 -13 L284 -13 Z M215 241 C215 334 285 414 374 414 C445 414 492 363 492 288 C492 194 424 112 335 112 C264 112 215 166 215 241 L215 241 Z M279 665 L329 582 L594 721 L540 818 L279 665 Z " />
<glyph glyph-name="acircumflex" unicode="&#xe2;" horiz-adv-x="643" d="M284 -13 C352 -13 409 15 454 59 L443 0 L574 0 L676 527 L545 527 L533 459 C502 510 448 539 373 539 C203 539 72 389 72 220 C72 82 159 -13 284 -13 L284 -13 Z M215 241 C215 334 285 414 374 414 C445 414 492 363 492 288 C492 194 424 112 335 112 C264 112 215 166 215 241 L215 241 Z M243 602 L370 602 L464 704 L519 602 L630 602 L532 793 L418 793 L243 602 Z " />
<glyph glyph-name="atilde" unicode="&#xe3;" horiz-adv-x="643" d="M284 -13 C352 -13 409 15 454 59 L443 0 L574 0 L676 527 L545 527 L533 459 C502 510 448 539 373 539 C203 539 72 389 72 220 C72 82 159 -13 284 -13 L284 -13 Z M215 241 C215 334 285 414 374 414 C445 414 492 363 492 288 C492 194 424 112 335 112 C264 112 215 166 215 241 L215 241 Z M242 662 L332 621 C341 649 358 664 382 664 C428 664 444 615 508 615 C577 615 625 670 646 733 L557 774 C548 746 531 731 506 731 C459 731 444 780 380 780 C312 780 264 724 242 662 L242 662 Z " />
<glyph glyph-name="adieresis" unicode="&#xe4;" horiz-adv-x="643" d="M284 -13 C352 -13 409 15 454 59 L443 0 L574 0 L676 527 L545 527 L533 459 C502 510 448 539 373 539 C203 539 72 389 72 220 C72 82 159 -13 284 -13 L284 -13 Z M215 241 C215 334 285 414 374 414 C445 414 492 363 492 288 C492 194 424 112 335 112 C264 112 215 166 215 241 L215 241 Z M242 690 C242 640 275 609 321 609 C375 609 422 655 422 705 C422 755 390 785 344 785 C290 785 242 740 242 690 L242 690 Z M471 690 C471 640 503 609 549 609 C604 609 651 655 651 705 C651 755 619 785 572 785 C518 785 471 740 471 690 L471 690 Z " />
<glyph glyph-name="aring" unicode="&#xe5;" horiz-adv-x="643" d="M284 -13 C352 -13 409 15 454 59 L443 0 L574 0 L676 527 L545 527 L533 459 C502 510 448 539 373 539 C203 539 72 389 72 220 C72 82 159 -13 284 -13 L284 -13 Z M215 241 C215 334 285 414 374 414 C445 414 492 363 492 288 C492 194 424 112 335 112 C264 112 215 166 215 241 L215 241 Z M307 680 C307 615 354 570 422 570 C503 570 569 633 569 708 C569 772 523 818 454 818 C373 818 307 755 307 680 L307 680 Z M391 689 C391 717 414 739 443 739 C468 739 485 723 485 699 C485 670 460 648 432 648 C407 648 391 665 391 689 L391 689 Z " />
<glyph glyph-name="ae" unicode="&#xe6;" horiz-adv-x="1016" d="M284 -13 C352 -13 409 15 454 59 L443 0 L574 0 L589 79 C621 18 687 -13 763 -13 C858 -13 927 24 983 79 L899 163 C863 118 822 100 771 100 C696 100 645 143 640 224 L1028 224 C1037 245 1046 290 1046 324 C1046 440 961 539 830 539 C766 539 709 512 664 463 L676 527 L545 527 L533 459 C502 510 448 539 373 539 C203 539 72 389 72 220 C72 82 159 -13 284 -13 L284 -13 Z M215 241 C215 334 285 414 374 414 C445 414 492 363 492 288 C492 194 424 112 335 112 C264 112 215 166 215 241 L215 241 Z M651 307 C673 379 729 436 812 436 C883 436 921 392 921 322 C921 317 921 312 920 307 L651 307 Z " />
<glyph glyph-name="ccedilla" unicode="&#xe7;" horiz-adv-x="544" d="M253 -242 C333 -242 391 -192 391 -130 C391 -91 367 -58 331 -48 L350 -12 C434 -6 500 28 545 83 L456 172 C429 139 391 113 339 113 C261 113 216 172 216 242 C216 334 282 413 373 413 C426 413 466 382 486 350 L585 449 C547 497 475 539 382 539 C213 539 73 396 73 226 C73 104 148 13 267 -8 L233 -70 L241 -82 L250 -82 C276 -82 291 -100 291 -123 C291 -147 271 -166 240 -166 C212 -166 198 -152 189 -137 L134 -191 C153 -219 197 -242 253 -242 L253 -242 Z " />
<glyph glyph-name="egrave" unicode="&#xe8;" horiz-adv-x="581" d="M318 -13 C427 -13 492 24 549 81 L462 168 C425 122 387 104 334 104 C264 104 214 145 209 220 L592 220 C602 245 611 290 611 324 C611 440 524 539 383 539 C211 539 72 395 72 224 C72 87 171 -13 318 -13 L318 -13 Z M222 314 C246 380 300 432 377 432 C445 432 482 389 482 322 L482 314 L222 314 Z M255 719 L502 571 L558 654 L316 814 L255 719 Z " />
<glyph glyph-name="eacute" unicode="&#xe9;" horiz-adv-x="581" d="M318 -13 C427 -13 492 24 549 81 L462 168 C425 122 387 104 334 104 C264 104 214 145 209 220 L592 220 C602 245 611 290 611 324 C611 440 524 539 383 539 C211 539 72 395 72 224 C72 87 171 -13 318 -13 L318 -13 Z M222 314 C246 380 300 432 377 432 C445 432 482 389 482 322 L482 314 L222 314 Z M256 664 L306 581 L571 720 L517 817 L256 664 Z " />
<glyph glyph-name="ecircumflex" unicode="&#xea;" horiz-adv-x="581" d="M318 -13 C427 -13 492 24 549 81 L462 168 C425 122 387 104 334 104 C264 104 214 145 209 220 L592 220 C602 245 611 290 611 324 C611 440 524 539 383 539 C211 539 72 395 72 224 C72 87 171 -13 318 -13 L318 -13 Z M200 601 L327 601 L421 703 L476 601 L587 601 L489 792 L375 792 L200 601 Z M222 314 C246 380 300 432 377 432 C445 432 482 389 482 322 L482 314 L222 314 Z " />
<glyph glyph-name="edieresis" unicode="&#xeb;" horiz-adv-x="581" d="M318 -13 C427 -13 492 24 549 81 L462 168 C425 122 387 104 334 104 C264 104 214 145 209 220 L592 220 C602 245 611 290 611 324 C611 440 524 539 383 539 C211 539 72 395 72 224 C72 87 171 -13 318 -13 L318 -13 Z M199 689 C199 639 232 608 278 608 C332 608 379 654 379 704 C379 754 347 784 301 784 C247 784 199 739 199 689 L199 689 Z M222 314 C246 380 300 432 377 432 C445 432 482 389 482 322 L482 314 L222 314 Z M428 689 C428 639 460 608 506 608 C561 608 608 654 608 704 C608 754 576 784 529 784 C475 784 428 739 428 689 L428 689 Z " />
<glyph glyph-name="igrave" unicode="&#xec;" horiz-adv-x="254" d="M52 0 L193 0 L295 527 L154 527 L52 0 Z M86 719 L333 571 L389 654 L147 814 L86 719 Z " />
<glyph glyph-name="iacute" unicode="&#xed;" horiz-adv-x="254" d="M52 0 L193 0 L295 527 L154 527 L52 0 Z M95 664 L145 581 L410 720 L356 817 L95 664 Z " />
<glyph glyph-name="icircumflex" unicode="&#xee;" horiz-adv-x="254" d="M52 0 L193 0 L295 527 L154 527 L52 0 Z M39 601 L166 601 L260 703 L315 601 L426 601 L328 792 L214 792 L39 601 Z " />
<glyph glyph-name="idieresis" unicode="&#xef;" horiz-adv-x="254" d="M52 0 L193 0 L295 527 L154 527 L52 0 Z M51 689 C51 639 84 608 130 608 C184 608 231 654 231 704 C231 754 199 784 153 784 C99 784 51 739 51 689 L51 689 Z M280 689 C280 639 312 608 358 608 C413 608 460 654 460 704 C460 754 428 784 381 784 C327 784 280 739 280 689 L280 689 Z " />
<glyph glyph-name="eth" unicode="&#xf0;" horiz-adv-x="615" d="M318 -13 C527 -13 649 150 649 369 C649 519 586 645 481 721 L549 779 L488 841 L400 766 C348 787 290 799 227 799 L156 692 C204 692 249 685 291 673 L208 602 L268 539 L379 634 C436 599 478 551 500 493 C469 514 429 525 384 525 C216 525 71 388 71 219 C71 83 175 -13 318 -13 L318 -13 Z M216 237 C216 326 284 400 373 400 C445 400 495 349 495 283 C495 198 429 113 338 113 C261 113 216 169 216 237 L216 237 Z " />
<glyph glyph-name="ntilde" unicode="&#xf1;" horiz-adv-x="606" d="M460 297 L403 0 L544 0 L607 323 C633 453 563 539 443 539 C378 539 320 512 277 473 L287 527 L154 527 L52 0 L193 0 L254 315 C271 375 320 413 377 413 C438 413 475 374 460 297 L460 297 Z M219 661 L309 620 C318 648 335 663 359 663 C405 663 421 614 485 614 C554 614 602 669 623 732 L534 773 C525 745 508 730 483 730 C436 730 421 779 357 779 C289 779 241 723 219 661 L219 661 Z " />
<glyph glyph-name="ograve" unicode="&#xf2;" horiz-adv-x="626" d="M321 -13 C505 -13 640 135 640 302 C640 453 528 539 391 539 C214 539 72 396 72 225 C72 77 178 -13 321 -13 L321 -13 Z M217 241 C217 331 283 414 376 414 C449 414 496 362 496 287 C496 199 432 113 338 113 C263 113 217 166 217 241 L217 241 Z M274 719 L521 571 L577 654 L335 814 L274 719 Z " />
<glyph glyph-name="oacute" unicode="&#xf3;" horiz-adv-x="626" d="M321 -13 C505 -13 640 135 640 302 C640 453 528 539 391 539 C214 539 72 396 72 225 C72 77 178 -13 321 -13 L321 -13 Z M217 241 C217 331 283 414 376 414 C449 414 496 362 496 287 C496 199 432 113 338 113 C263 113 217 166 217 241 L217 241 Z M261 664 L311 581 L576 720 L522 817 L261 664 Z " />
<glyph glyph-name="ocircumflex" unicode="&#xf4;" horiz-adv-x="626" d="M321 -13 C505 -13 640 135 640 302 C640 453 528 539 391 539 C214 539 72 396 72 225 C72 77 178 -13 321 -13 L321 -13 Z M208 601 L335 601 L429 703 L484 601 L595 601 L497 792 L383 792 L208 601 Z M217 241 C217 331 283 414 376 414 C449 414 496 362 496 287 C496 199 432 113 338 113 C263 113 217 166 217 241 L217 241 Z " />
<glyph glyph-name="otilde" unicode="&#xf5;" horiz-adv-x="626" d="M321 -13 C505 -13 640 135 640 302 C640 453 528 539 391 539 C214 539 72 396 72 225 C72 77 178 -13 321 -13 L321 -13 Z M210 661 L300 620 C309 648 326 663 350 663 C396 663 412 614 476 614 C545 614 593 669 614 732 L525 773 C516 745 499 730 474 730 C427 730 412 779 348 779 C280 779 232 723 210 661 L210 661 Z M217 241 C217 331 283 414 376 414 C449 414 496 362 496 287 C496 199 432 113 338 113 C263 113 217 166 217 241 L217 241 Z " />
<glyph glyph-name="odieresis" unicode="&#xf6;" horiz-adv-x="626" d="M321 -13 C505 -13 640 135 640 302 C640 453 528 539 391 539 C214 539 72 396 72 225 C72 77 178 -13 321 -13 L321 -13 Z M217 241 C217 331 283 414 376 414 C449 414 496 362 496 287 C496 199 432 113 338 113 C263 113 217 166 217 241 L217 241 Z M219 689 C219 639 252 608 298 608 C352 608 399 654 399 704 C399 754 367 784 321 784 C267 784 219 739 219 689 L219 689 Z M448 689 C448 639 480 608 526 608 C581 608 628 654 628 704 C628 754 596 784 549 784 C495 784 448 739 448 689 L448 689 Z " />
<glyph glyph-name="divide" unicode="&#xf7;" horiz-adv-x="466" d="M78 268 L490 268 L513 386 L102 386 L78 268 Z M175 110 C175 68 204 40 247 40 C299 40 338 83 338 131 C338 171 311 201 266 201 C214 201 175 157 175 110 L175 110 Z M255 520 C255 478 284 450 326 450 C378 450 417 493 417 541 C417 581 390 611 345 611 C294 611 255 567 255 520 L255 520 Z " />
<glyph glyph-name="oslash" unicode="&#xf8;" horiz-adv-x="637" d="M328 -13 C512 -13 647 135 647 302 C647 341 640 375 626 405 L703 463 L653 538 L573 478 C528 518 466 539 398 539 C221 539 79 396 79 225 C79 186 87 150 100 120 L19 58 L71 -16 L154 47 C198 8 259 -13 328 -13 L328 -13 Z M224 241 C224 331 290 414 383 414 C456 414 503 362 503 287 C503 199 439 113 345 113 C270 113 224 166 224 241 L224 241 Z " />
<glyph glyph-name="ugrave" unicode="&#xf9;" horiz-adv-x="598" d="M244 -13 C309 -13 367 16 409 58 L398 0 L531 0 L633 527 L492 527 L434 226 C421 158 370 113 311 113 C254 113 217 151 232 229 L289 527 L148 527 L86 203 C60 73 131 -13 244 -13 L244 -13 Z M250 720 L497 572 L553 655 L311 815 L250 720 Z " />
<glyph glyph-name="uacute" unicode="&#xfa;" horiz-adv-x="598" d="M244 -13 C309 -13 367 16 409 58 L398 0 L531 0 L633 527 L492 527 L434 226 C421 158 370 113 311 113 C254 113 217 151 232 229 L289 527 L148 527 L86 203 C60 73 131 -13 244 -13 L244 -13 Z M260 665 L310 582 L575 721 L521 818 L260 665 Z " />
<glyph glyph-name="ucircumflex" unicode="&#xfb;" horiz-adv-x="598" d="M244 -13 C309 -13 367 16 409 58 L398 0 L531 0 L633 527 L492 527 L434 226 C421 158 370 113 311 113 C254 113 217 151 232 229 L289 527 L148 527 L86 203 C60 73 131 -13 244 -13 L244 -13 Z M206 602 L333 602 L427 704 L482 602 L593 602 L495 793 L381 793 L206 602 Z " />
<glyph glyph-name="udieresis" unicode="&#xfc;" horiz-adv-x="598" d="M244 -13 C309 -13 367 16 409 58 L398 0 L531 0 L633 527 L492 527 L434 226 C421 158 370 113 311 113 C254 113 217 151 232 229 L289 527 L148 527 L86 203 C60 73 131 -13 244 -13 L244 -13 Z M213 690 C213 640 246 609 292 609 C346 609 393 655 393 705 C393 755 361 785 315 785 C261 785 213 740 213 690 L213 690 Z M442 690 C442 640 474 609 520 609 C575 609 622 655 622 705 C622 755 590 785 543 785 C489 785 442 740 442 690 L442 690 Z " />
<glyph glyph-name="yacute" unicode="&#xfd;" horiz-adv-x="565" d="M191 0 L221 0 L116 -179 L256 -179 L356 0 L648 527 L491 527 L299 136 L244 527 L103 527 L191 0 Z M247 665 L297 582 L562 721 L508 818 L247 665 Z " />
<glyph glyph-name="thorn" unicode="&#xfe;" horiz-adv-x="629" d="M17 -179 L158 -179 L202 45 C233 8 279 -13 341 -13 C488 -13 619 106 650 263 C680 421 599 539 451 539 C389 539 332 517 286 478 L335 731 L194 731 L17 -179 Z M240 263 C256 352 323 414 403 414 C481 414 524 348 508 263 C492 179 424 113 346 113 C266 113 223 174 240 263 L240 263 Z " />
<glyph glyph-name="ydieresis" unicode="&#xff;" horiz-adv-x="565" d="M191 0 L221 0 L116 -179 L256 -179 L356 0 L648 527 L491 527 L299 136 L244 527 L103 527 L191 0 Z M188 690 C188 640 221 609 267 609 C321 609 368 655 368 705 C368 755 336 785 290 785 C236 785 188 740 188 690 L188 690 Z M417 690 C417 640 449 609 495 609 C550 609 597 655 597 705 C597 755 565 785 518 785 C464 785 417 740 417 690 L417 690 Z " />
<glyph glyph-name="Amacron" unicode="&#x100;" horiz-adv-x="653" d="M2 0 L149 0 L227 154 L481 154 L501 0 L633 0 L538 695 L366 695 L2 0 Z M286 270 L430 553 L466 270 L286 270 Z M297 792 L648 792 L670 907 L319 907 L297 792 Z " />
<glyph glyph-name="amacron" unicode="&#x101;" horiz-adv-x="643" d="M284 -13 C352 -13 409 15 454 59 L443 0 L574 0 L676 527 L545 527 L533 459 C502 510 448 539 373 539 C203 539 72 389 72 220 C72 82 159 -13 284 -13 L284 -13 Z M215 241 C215 334 285 414 374 414 C445 414 492 363 492 288 C492 194 424 112 335 112 C264 112 215 166 215 241 L215 241 Z M271 642 L595 642 L615 747 L292 747 L271 642 Z " />
<glyph glyph-name="Abreve" unicode="&#x102;" horiz-adv-x="653" d="M2 0 L149 0 L227 154 L481 154 L501 0 L633 0 L538 695 L366 695 L2 0 Z M286 270 L430 553 L466 270 L286 270 Z M323 937 C305 846 360 760 479 760 C590 760 659 839 678 937 L563 937 C553 889 526 865 488 865 C446 865 430 897 438 937 L323 937 Z " />
<glyph glyph-name="abreve" unicode="&#x103;" horiz-adv-x="643" d="M284 -13 C352 -13 409 15 454 59 L443 0 L574 0 L676 527 L545 527 L533 459 C502 510 448 539 373 539 C203 539 72 389 72 220 C72 82 159 -13 284 -13 L284 -13 Z M215 241 C215 334 285 414 374 414 C445 414 492 363 492 288 C492 194 424 112 335 112 C264 112 215 166 215 241 L215 241 Z M279 793 C258 685 329 602 435 602 C557 602 618 683 639 793 L528 793 C520 742 490 706 444 706 C401 706 378 739 388 793 L279 793 Z " />
<glyph glyph-name="Aogonek" unicode="&#x104;" horiz-adv-x="653" d="M2 0 L149 0 L227 154 L481 154 L501 0 L532 0 L524 -5 C460 -47 420 -94 420 -148 C420 -204 463 -236 525 -236 C571 -236 609 -220 634 -195 L598 -130 C587 -142 573 -148 559 -148 C540 -148 528 -138 528 -118 C528 -93 547 -73 571 -52 L634 0 L633 1 L538 695 L366 695 L2 0 Z M286 270 L430 553 L466 270 L286 270 Z " />
<glyph glyph-name="aogonek" unicode="&#x105;" horiz-adv-x="643" d="M284 -13 C352 -13 409 15 454 59 L443 0 L472 0 L464 -5 C400 -47 360 -94 360 -148 C360 -204 403 -236 465 -236 C511 -236 549 -220 574 -195 L538 -130 C527 -142 513 -148 499 -148 C480 -148 468 -138 468 -118 C468 -93 487 -73 511 -52 L574 0 L676 527 L545 527 L533 459 C502 510 448 539 373 539 C203 539 72 389 72 220 C72 82 159 -13 284 -13 L284 -13 Z M215 241 C215 334 285 414 374 414 C445 414 492 363 492 288 C492 194 424 112 335 112 C264 112 215 166 215 241 L215 241 Z " />
<glyph glyph-name="Cacute" unicode="&#x106;" horiz-adv-x="686" d="M692 105 L594 202 C554 153 494 121 422 121 C311 121 237 199 237 312 C237 455 336 574 477 574 C563 574 618 536 648 490 L752 594 C703 663 606 708 491 708 C261 708 91 523 91 301 C91 115 219 -13 407 -13 C526 -13 623 29 692 105 L692 105 Z M346 851 L377 754 L681 841 L649 952 L346 851 Z " />
<glyph glyph-name="cacute" unicode="&#x107;" horiz-adv-x="544" d="M322 -13 C420 -13 495 22 545 83 L456 172 C429 139 391 113 339 113 C261 113 216 172 216 242 C216 334 282 413 373 413 C426 413 466 382 486 350 L585 449 C547 497 475 539 382 539 C213 539 73 396 73 226 C73 86 171 -13 322 -13 L322 -13 Z M260 665 L310 582 L575 721 L521 818 L260 665 Z " />
<glyph glyph-name="Cdotaccent" unicode="&#x10a;" horiz-adv-x="686" d="M692 105 L594 202 C554 153 494 121 422 121 C311 121 237 199 237 312 C237 455 336 574 477 574 C563 574 618 536 648 490 L752 594 C703 663 606 708 491 708 C261 708 91 523 91 301 C91 115 219 -13 407 -13 C526 -13 623 29 692 105 L692 105 Z M430 839 C430 791 468 758 514 758 C567 758 617 802 617 858 C617 905 583 939 534 939 C477 939 430 894 430 839 L430 839 Z " />
<glyph glyph-name="cdotaccent" unicode="&#x10b;" horiz-adv-x="544" d="M322 -13 C420 -13 495 22 545 83 L456 172 C429 139 391 113 339 113 C261 113 216 172 216 242 C216 334 282 413 373 413 C426 413 466 382 486 350 L585 449 C547 497 475 539 382 539 C213 539 73 396 73 226 C73 86 171 -13 322 -13 L322 -13 Z M329 687 C329 640 365 607 413 607 C472 607 519 655 519 709 C519 756 483 789 435 789 C376 789 329 741 329 687 L329 687 Z " />
<glyph glyph-name="Ccaron" unicode="&#x10c;" horiz-adv-x="686" d="M692 105 L594 202 C554 153 494 121 422 121 C311 121 237 199 237 312 C237 455 336 574 477 574 C563 574 618 536 648 490 L752 594 C703 663 606 708 491 708 C261 708 91 523 91 301 C91 115 219 -13 407 -13 C526 -13 623 29 692 105 L692 105 Z M341 937 L444 760 L559 760 L737 937 L602 937 L512 854 L458 937 L341 937 Z " />
<glyph glyph-name="ccaron" unicode="&#x10d;" horiz-adv-x="544" d="M322 -13 C420 -13 495 22 545 83 L456 172 C429 139 391 113 339 113 C261 113 216 172 216 242 C216 334 282 413 373 413 C426 413 466 382 486 350 L585 449 C547 497 475 539 382 539 C213 539 73 396 73 226 C73 86 171 -13 322 -13 L322 -13 Z M246 793 L344 602 L458 602 L634 793 L506 793 L412 690 L357 793 L246 793 Z " />
<glyph glyph-name="Dcaron" unicode="&#x10e;" horiz-adv-x="724" d="M63 0 L336 0 C579 0 747 172 747 390 C747 574 627 695 445 695 L198 695 L63 0 Z M229 126 L315 569 L426 569 C535 569 600 504 600 389 C600 241 493 126 347 126 L229 126 Z M307 936 L410 759 L525 759 L703 936 L568 936 L478 853 L424 936 L307 936 Z " />
<glyph glyph-name="dcaron" unicode="&#x10f;" horiz-adv-x="739" d="M284 -13 C352 -13 409 15 454 59 L443 0 L574 0 L716 731 L575 731 L525 470 C493 514 442 539 373 539 C203 539 72 389 72 220 C72 82 159 -13 284 -13 L284 -13 Z M215 241 C215 334 285 414 374 414 C445 414 492 363 492 288 C492 194 424 112 335 112 C264 112 215 166 215 241 L215 241 Z M729 483 L822 483 L898 732 L792 732 L729 483 Z " />
<glyph glyph-name="Dcroat" unicode="&#x110;" horiz-adv-x="735" d="M75 0 L348 0 C591 0 759 172 759 390 C759 574 639 695 457 695 L210 695 L153 403 L81 403 L62 305 L134 305 L75 0 Z M241 126 L275 305 L410 305 L429 403 L294 403 L327 569 L438 569 C547 569 612 504 612 389 C612 241 505 126 359 126 L241 126 Z " />
<glyph glyph-name="dcroat" unicode="&#x111;" horiz-adv-x="643" d="M284 -13 C352 -13 409 15 454 59 L443 0 L574 0 L686 578 L762 578 L781 676 L705 676 L716 731 L575 731 L564 676 L433 676 L414 578 L545 578 L525 470 C493 514 442 539 373 539 C203 539 72 389 72 220 C72 82 159 -13 284 -13 L284 -13 Z M215 241 C215 334 285 414 374 414 C445 414 492 363 492 288 C492 194 424 112 335 112 C264 112 215 166 215 241 L215 241 Z " />
<glyph glyph-name="Emacron" unicode="&#x112;" horiz-adv-x="572" d="M63 0 L522 0 L546 123 L229 123 L262 293 L537 293 L561 416 L285 416 L315 572 L627 572 L651 695 L198 695 L63 0 Z M266 792 L617 792 L639 907 L288 907 L266 792 Z " />
<glyph glyph-name="emacron" unicode="&#x113;" horiz-adv-x="581" d="M318 -13 C427 -13 492 24 549 81 L462 168 C425 122 387 104 334 104 C264 104 214 145 209 220 L592 220 C602 245 611 290 611 324 C611 440 524 539 383 539 C211 539 72 395 72 224 C72 87 171 -13 318 -13 L318 -13 Z M222 314 C246 380 300 432 377 432 C445 432 482 389 482 322 L482 314 L222 314 Z M239 638 L563 638 L583 743 L260 743 L239 638 Z " />
<glyph glyph-name="Edotaccent" unicode="&#x116;" horiz-adv-x="572" d="M63 0 L522 0 L546 123 L229 123 L262 293 L537 293 L561 416 L285 416 L315 572 L627 572 L651 695 L198 695 L63 0 Z M358 839 C358 791 396 758 442 758 C495 758 545 802 545 858 C545 905 511 939 462 939 C405 939 358 894 358 839 L358 839 Z " />
<glyph glyph-name="edotaccent" unicode="&#x117;" horiz-adv-x="581" d="M318 -13 C427 -13 492 24 549 81 L462 168 C425 122 387 104 334 104 C264 104 214 145 209 220 L592 220 C602 245 611 290 611 324 C611 440 524 539 383 539 C211 539 72 395 72 224 C72 87 171 -13 318 -13 L318 -13 Z M222 314 C246 380 300 432 377 432 C445 432 482 389 482 322 L482 314 L222 314 Z M318 686 C318 639 354 606 402 606 C461 606 508 654 508 708 C508 755 472 788 424 788 C365 788 318 740 318 686 L318 686 Z " />
<glyph glyph-name="Eogonek" unicode="&#x118;" horiz-adv-x="572" d="M63 0 L420 0 L412 -5 C348 -47 308 -94 308 -148 C308 -204 351 -236 413 -236 C459 -236 497 -220 522 -195 L486 -130 C475 -142 461 -148 447 -148 C428 -148 416 -138 416 -118 C416 -93 435 -73 459 -52 L522 0 L546 123 L229 123 L262 293 L537 293 L561 416 L285 416 L315 572 L627 572 L651 695 L198 695 L63 0 Z " />
<glyph glyph-name="eogonek" unicode="&#x119;" horiz-adv-x="581" d="M332 -219 C378 -219 416 -203 441 -178 L405 -113 C394 -125 380 -131 366 -131 C347 -131 335 -121 335 -101 C335 -76 354 -56 378 -35 L422 1 C473 17 513 45 549 81 L462 168 C425 122 387 104 334 104 C264 104 214 145 209 220 L592 220 C602 245 611 290 611 324 C611 440 524 539 383 539 C211 539 72 395 72 224 C72 93 162 -3 297 -12 C253 -48 227 -87 227 -131 C227 -187 270 -219 332 -219 L332 -219 Z M222 314 C246 380 300 432 377 432 C445 432 482 389 482 322 L482 314 L222 314 Z " />
<glyph glyph-name="Ecaron" unicode="&#x11a;" horiz-adv-x="572" d="M63 0 L522 0 L546 123 L229 123 L262 293 L537 293 L561 416 L285 416 L315 572 L627 572 L651 695 L198 695 L63 0 Z M267 937 L370 760 L485 760 L663 937 L528 937 L438 854 L384 937 L267 937 Z " />
<glyph glyph-name="ecaron" unicode="&#x11b;" horiz-adv-x="581" d="M318 -13 C427 -13 492 24 549 81 L462 168 C425 122 387 104 334 104 C264 104 214 145 209 220 L592 220 C602 245 611 290 611 324 C611 440 524 539 383 539 C211 539 72 395 72 224 C72 87 171 -13 318 -13 L318 -13 Z M222 314 C246 380 300 432 377 432 C445 432 482 389 482 322 L482 314 L222 314 Z M243 792 L341 601 L455 601 L631 792 L503 792 L409 689 L354 792 L243 792 Z " />
<glyph glyph-name="Gbreve" unicode="&#x11e;" horiz-adv-x="756" d="M648 488 L759 599 C708 667 605 708 490 708 C259 708 91 528 91 304 C91 113 221 -13 409 -13 C621 -13 763 114 799 372 L451 372 L430 264 L635 264 C593 165 524 114 430 114 C313 114 237 194 237 315 C237 459 344 574 478 574 C563 574 623 538 648 488 L648 488 Z M359 937 C341 846 396 760 515 760 C626 760 695 839 714 937 L599 937 C589 889 562 865 524 865 C482 865 466 897 474 937 L359 937 Z " />
<glyph glyph-name="gbreve" unicode="&#x11f;" horiz-adv-x="626" d="M284 15 C351 15 413 46 462 95 L456 65 C439 -23 378 -70 278 -70 C213 -70 160 -48 123 1 L31 -90 C76 -147 168 -192 273 -192 C452 -192 554 -102 590 78 L677 527 L547 527 L533 460 C502 510 446 539 373 539 C210 539 72 397 72 235 C72 108 160 15 284 15 L284 15 Z M215 249 C215 338 285 414 374 414 C446 414 492 367 492 295 C492 203 424 126 335 126 C263 126 215 176 215 249 L215 249 Z M265 793 C244 685 315 602 421 602 C543 602 604 683 625 793 L514 793 C506 742 476 706 430 706 C387 706 364 739 374 793 L265 793 Z " />
<glyph glyph-name="Gdotaccent" unicode="&#x120;" horiz-adv-x="756" d="M648 488 L759 599 C708 667 605 708 490 708 C259 708 91 528 91 304 C91 113 221 -13 409 -13 C621 -13 763 114 799 372 L451 372 L430 264 L635 264 C593 165 524 114 430 114 C313 114 237 194 237 315 C237 459 344 574 478 574 C563 574 623 538 648 488 L648 488 Z M426 839 C426 791 464 758 510 758 C563 758 613 802 613 858 C613 905 579 939 530 939 C473 939 426 894 426 839 L426 839 Z " />
<glyph glyph-name="gdotaccent" unicode="&#x121;" horiz-adv-x="626" d="M284 15 C351 15 413 46 462 95 L456 65 C439 -23 378 -70 278 -70 C213 -70 160 -48 123 1 L31 -90 C76 -147 168 -192 273 -192 C452 -192 554 -102 590 78 L677 527 L547 527 L533 460 C502 510 446 539 373 539 C210 539 72 397 72 235 C72 108 160 15 284 15 L284 15 Z M215 249 C215 338 285 414 374 414 C446 414 492 367 492 295 C492 203 424 126 335 126 C263 126 215 176 215 249 L215 249 Z M334 687 C334 640 370 607 418 607 C477 607 524 655 524 709 C524 756 488 789 440 789 C381 789 334 741 334 687 L334 687 Z " />
<glyph glyph-name="uni0122" unicode="&#x122;" horiz-adv-x="756" d="M648 488 L759 599 C708 667 605 708 490 708 C259 708 91 528 91 304 C91 113 221 -13 409 -13 C621 -13 763 114 799 372 L451 372 L430 264 L635 264 C593 165 524 114 430 114 C313 114 237 194 237 315 C237 459 344 574 478 574 C563 574 623 538 648 488 L648 488 Z M269 -254 L321 -287 L374 -221 C409 -177 434 -144 434 -109 C434 -71 404 -48 369 -48 C324 -48 287 -84 287 -128 C287 -155 300 -174 320 -182 L269 -254 Z " />
<glyph glyph-name="uni0123" unicode="&#x123;" horiz-adv-x="626" d="M284 15 C351 15 413 46 462 95 L456 65 C439 -23 378 -70 278 -70 C213 -70 160 -48 123 1 L31 -90 C76 -147 168 -192 273 -192 C452 -192 554 -102 590 78 L677 527 L547 527 L533 460 C502 510 446 539 373 539 C210 539 72 397 72 235 C72 108 160 15 284 15 L284 15 Z M215 249 C215 338 285 414 374 414 C446 414 492 367 492 295 C492 203 424 126 335 126 C263 126 215 176 215 249 L215 249 Z M342 653 C342 615 372 592 407 592 C452 592 489 628 489 672 C489 699 476 718 456 726 L507 798 L455 831 L402 765 C367 721 342 688 342 653 L342 653 Z " />
<glyph glyph-name="Hbar" unicode="&#x126;" horiz-adv-x="732" d="M489 0 L631 0 L729 505 L790 505 L812 615 L750 615 L766 695 L624 695 L608 615 L344 615 L360 695 L219 695 L203 615 L142 615 L121 505 L182 505 L84 0 L225 0 L282 292 L546 292 L489 0 Z M306 418 L323 505 L587 505 L570 418 L306 418 Z " />
<glyph glyph-name="hbar" unicode="&#x127;" horiz-adv-x="606" d="M52 0 L193 0 L254 314 C270 375 319 414 377 414 C438 414 475 375 460 298 L403 0 L544 0 L607 324 C633 454 563 540 443 540 C383 540 328 517 286 482 L305 578 L440 578 L459 676 L324 676 L335 731 L194 731 L183 676 L111 676 L92 578 L164 578 L52 0 Z " />
<glyph glyph-name="Itilde" unicode="&#x128;" horiz-adv-x="277" d="M63 0 L204 0 L339 695 L198 695 L63 0 Z M97 806 L183 765 C192 793 209 808 236 808 C284 808 302 760 369 760 C439 760 487 815 506 878 L420 919 C411 891 394 876 367 876 C318 876 299 924 234 924 C164 924 117 869 97 806 L97 806 Z " />
<glyph glyph-name="itilde" unicode="&#x129;" horiz-adv-x="254" d="M52 0 L193 0 L295 527 L154 527 L52 0 Z M83 661 L158 620 C166 648 180 663 201 663 C239 663 253 614 307 614 C365 614 406 669 423 732 L348 773 C341 745 326 730 305 730 C266 730 253 779 199 779 C142 779 101 723 83 661 L83 661 Z " />
<glyph glyph-name="Imacron" unicode="&#x12a;" horiz-adv-x="277" d="M63 0 L204 0 L339 695 L198 695 L63 0 Z M150 792 L408 792 L425 907 L166 907 L150 792 Z " />
<glyph glyph-name="imacron" unicode="&#x12b;" horiz-adv-x="254" d="M52 0 L193 0 L295 527 L154 527 L52 0 Z M92 641 L351 641 L367 746 L109 746 L92 641 Z " />
<glyph glyph-name="Iogonek" unicode="&#x12e;" horiz-adv-x="277" d="M63 0 L102 0 L94 -5 C30 -47 -10 -94 -10 -148 C-10 -204 33 -236 95 -236 C141 -236 179 -220 204 -195 L168 -130 C157 -142 143 -148 129 -148 C110 -148 98 -138 98 -118 C98 -93 117 -73 141 -52 L204 0 L339 695 L198 695 L63 0 Z " />
<glyph glyph-name="iogonek" unicode="&#x12f;" horiz-adv-x="255" d="M52 0 L91 0 L83 -5 C19 -47 -21 -94 -21 -148 C-21 -204 22 -236 84 -236 C130 -236 168 -220 193 -195 L157 -130 C146 -142 132 -148 118 -148 C99 -148 87 -138 87 -118 C87 -93 106 -73 130 -52 L193 0 L295 527 L154 527 L52 0 Z M162 686 C162 639 198 606 246 606 C305 606 352 654 352 708 C352 755 316 788 268 788 C209 788 162 740 162 686 L162 686 Z " />
<glyph glyph-name="Idotaccent" unicode="&#x130;" horiz-adv-x="277" d="M63 0 L204 0 L339 695 L198 695 L63 0 Z M205 839 C205 791 243 758 289 758 C342 758 392 802 392 858 C392 905 358 939 309 939 C252 939 205 894 205 839 L205 839 Z " />
<glyph glyph-name="dotlessi" unicode="&#x131;" horiz-adv-x="247" d="M52 0 L193 0 L295 527 L154 527 L52 0 Z " />
<glyph glyph-name="IJ" unicode="&#x132;" horiz-adv-x="621" d="M63 0 L204 0 L339 695 L198 695 L63 0 Z M292 0 L357 0 C483 0 564 63 589 189 L687 695 L545 695 L451 211 C441 159 407 126 356 126 L317 126 L292 0 Z " />
<glyph glyph-name="ij" unicode="&#x133;" horiz-adv-x="524" d="M52 0 L193 0 L295 527 L154 527 L52 0 Z M162 686 C162 639 198 606 246 606 C305 606 352 654 352 708 C352 755 316 788 268 788 C209 788 162 740 162 686 L162 686 Z M193 -185 L221 -185 C345 -185 442 -112 469 27 L566 527 L425 527 L328 25 C317 -31 279 -63 234 -63 L216 -63 L193 -185 Z M435 687 C435 640 471 607 519 607 C578 607 625 655 625 709 C625 756 589 789 541 789 C482 789 435 741 435 687 L435 687 Z " />
<glyph glyph-name="uni0136" unicode="&#x136;" horiz-adv-x="646" d="M480 0 L634 0 L411 354 L758 695 L585 695 L282 399 L339 695 L198 695 L63 0 L204 0 L268 331 L480 0 Z M229 -254 L281 -287 L334 -221 C369 -177 394 -144 394 -109 C394 -71 364 -48 329 -48 C284 -48 247 -84 247 -128 C247 -155 260 -174 280 -182 L229 -254 Z " />
<glyph glyph-name="uni0137" unicode="&#x137;" horiz-adv-x="543" d="M52 0 L193 0 L242 254 L386 0 L535 0 L381 277 L634 527 L464 527 L256 324 L335 731 L194 731 L52 0 Z M177 -254 L229 -287 L282 -221 C317 -177 342 -144 342 -109 C342 -71 312 -48 277 -48 C232 -48 195 -84 195 -128 C195 -155 208 -174 228 -182 L177 -254 Z " />
<glyph glyph-name="kgreenlandic" unicode="&#x138;" horiz-adv-x="528" d="M52 0 L193 0 L237 228 L382 0 L535 0 L374 275 L635 527 L476 527 L252 305 L295 527 L154 527 L52 0 Z " />
<glyph glyph-name="Lacute" unicode="&#x139;" horiz-adv-x="543" d="M63 0 L516 0 L541 126 L230 126 L339 695 L198 695 L63 0 Z M115 851 L146 754 L450 841 L418 952 L115 851 Z " />
<glyph glyph-name="lacute" unicode="&#x13a;" horiz-adv-x="254" d="M52 0 L193 0 L335 731 L194 731 L52 0 Z M110 887 L141 790 L445 877 L413 988 L110 887 Z " />
<glyph glyph-name="uni013B" unicode="&#x13b;" horiz-adv-x="543" d="M63 0 L516 0 L541 126 L230 126 L339 695 L198 695 L63 0 Z M183 -254 L235 -287 L288 -221 C323 -177 348 -144 348 -109 C348 -71 318 -48 283 -48 C238 -48 201 -84 201 -128 C201 -155 214 -174 234 -182 L183 -254 Z " />
<glyph glyph-name="uni013C" unicode="&#x13c;" horiz-adv-x="254" d="M52 0 L193 0 L335 731 L194 731 L52 0 Z M10 -254 L62 -287 L115 -221 C150 -177 175 -144 175 -109 C175 -71 145 -48 110 -48 C65 -48 28 -84 28 -128 C28 -155 41 -174 61 -182 L10 -254 Z " />
<glyph glyph-name="Lcaron" unicode="&#x13d;" horiz-adv-x="548" d="M63 0 L516 0 L541 126 L230 126 L339 695 L198 695 L63 0 Z M439 457 L532 457 L608 706 L502 706 L439 457 Z " />
<glyph glyph-name="lcaron" unicode="&#x13e;" horiz-adv-x="350" d="M52 0 L193 0 L335 731 L194 731 L52 0 Z M340 483 L433 483 L509 732 L403 732 L340 483 Z " />
<glyph glyph-name="Ldot" unicode="&#x13f;" horiz-adv-x="557" d="M63 0 L516 0 L541 126 L230 126 L339 695 L198 695 L63 0 Z M415 395 C415 353 445 324 487 324 C539 324 578 369 578 416 C578 457 549 486 507 486 C455 486 415 442 415 395 L415 395 Z " />
<glyph glyph-name="ldot" unicode="&#x140;" horiz-adv-x="394" d="M52 0 L193 0 L335 731 L194 731 L52 0 Z M304 361 C304 319 334 290 376 290 C428 290 467 335 467 382 C467 423 438 452 396 452 C344 452 304 408 304 361 L304 361 Z " />
<glyph glyph-name="Lslash" unicode="&#x141;" horiz-adv-x="598" d="M118 0 L571 0 L596 126 L285 126 L325 335 L462 382 L435 471 L345 440 L394 695 L253 695 L194 389 L80 350 L107 261 L173 284 L118 0 Z " />
<glyph glyph-name="lslash" unicode="&#x142;" horiz-adv-x="351" d="M103 0 L244 0 L311 343 L441 409 L398 494 L334 461 L386 731 L245 731 L177 382 L56 320 L98 235 L154 264 L103 0 Z " />
<glyph glyph-name="Nacute" unicode="&#x143;" horiz-adv-x="692" d="M494 0 L611 0 L746 695 L605 695 L518 245 L315 695 L198 695 L63 0 L204 0 L291 448 L494 0 Z M323 851 L354 754 L658 841 L626 952 L323 851 Z " />
<glyph glyph-name="nacute" unicode="&#x144;" horiz-adv-x="606" d="M460 297 L403 0 L544 0 L607 323 C633 453 563 539 443 539 C378 539 320 512 277 473 L287 527 L154 527 L52 0 L193 0 L254 315 C271 375 320 413 377 413 C438 413 475 374 460 297 L460 297 Z M259 664 L309 581 L574 720 L520 817 L259 664 Z " />
<glyph glyph-name="uni0145" unicode="&#x145;" horiz-adv-x="692" d="M494 0 L611 0 L746 695 L605 695 L518 245 L315 695 L198 695 L63 0 L204 0 L291 448 L494 0 Z M235 -254 L287 -287 L340 -221 C375 -177 400 -144 400 -109 C400 -71 370 -48 335 -48 C290 -48 253 -84 253 -128 C253 -155 266 -174 286 -182 L235 -254 Z " />
<glyph glyph-name="uni0146" unicode="&#x146;" horiz-adv-x="606" d="M460 297 L403 0 L544 0 L607 323 C633 453 563 539 443 539 C378 539 320 512 277 473 L287 527 L154 527 L52 0 L193 0 L254 315 C271 375 320 413 377 413 C438 413 475 374 460 297 L460 297 Z M187 -254 L239 -287 L292 -221 C327 -177 352 -144 352 -109 C352 -71 322 -48 287 -48 C242 -48 205 -84 205 -128 C205 -155 218 -174 238 -182 L187 -254 Z " />
<glyph glyph-name="Ncaron" unicode="&#x147;" horiz-adv-x="692" d="M494 0 L611 0 L746 695 L605 695 L518 245 L315 695 L198 695 L63 0 L204 0 L291 448 L494 0 Z M307 937 L410 760 L525 760 L703 937 L568 937 L478 854 L424 937 L307 937 Z " />
<glyph glyph-name="ncaron" unicode="&#x148;" horiz-adv-x="606" d="M460 297 L403 0 L544 0 L607 323 C633 453 563 539 443 539 C378 539 320 512 277 473 L287 527 L154 527 L52 0 L193 0 L254 315 C271 375 320 413 377 413 C438 413 475 374 460 297 L460 297 Z M245 792 L343 601 L457 601 L633 792 L505 792 L411 689 L356 792 L245 792 Z " />
<glyph glyph-name="napostrophe" unicode="&#x149;" horiz-adv-x="726" d="M580 297 L523 0 L664 0 L727 323 C753 453 683 539 563 539 C498 539 440 512 397 473 L407 527 L274 527 L172 0 L313 0 L374 315 C391 375 440 413 497 413 C558 413 595 374 580 297 L580 297 Z M106 513 L199 513 L275 762 L169 762 L106 513 Z " />
<glyph glyph-name="Eng" unicode="&#x14a;" horiz-adv-x="692" d="M334 -223 L372 -223 C498 -223 578 -164 604 -34 L611 0 L746 695 L605 695 L518 245 L315 695 L198 695 L63 0 L204 0 L291 448 L487 15 L481 -12 C470 -64 437 -97 386 -97 L358 -97 L334 -223 Z " />
<glyph glyph-name="eng" unicode="&#x14b;" horiz-adv-x="593" d="M460 297 L408 26 C398 -29 360 -63 316 -63 L306 -63 L282 -185 L304 -185 C418 -185 524 -103 549 27 L607 323 C632 451 567 539 444 539 C379 539 320 511 277 471 L287 527 L154 527 L52 0 L193 0 L255 317 C270 372 320 412 378 413 C442 413 475 372 460 297 L460 297 Z " />
<glyph glyph-name="Omacron" unicode="&#x14c;" horiz-adv-x="792" d="M414 -13 C635 -13 813 164 813 388 C813 579 682 708 491 708 C265 708 91 526 91 309 C91 122 221 -13 414 -13 L414 -13 Z M237 318 C237 457 343 574 480 574 C593 574 667 496 667 379 C667 240 562 121 424 121 C311 121 237 200 237 318 L237 318 Z M336 792 L687 792 L709 907 L358 907 L336 792 Z " />
<glyph glyph-name="omacron" unicode="&#x14d;" horiz-adv-x="626" d="M321 -13 C505 -13 640 135 640 302 C640 453 528 539 391 539 C214 539 72 396 72 225 C72 77 178 -13 321 -13 L321 -13 Z M217 241 C217 331 283 414 376 414 C449 414 496 362 496 287 C496 199 432 113 338 113 C263 113 217 166 217 241 L217 241 Z M250 641 L574 641 L594 746 L271 746 L250 641 Z " />
<glyph glyph-name="Ohungarumlaut" unicode="&#x150;" horiz-adv-x="792" d="M414 -13 C635 -13 813 164 813 388 C813 579 682 708 491 708 C265 708 91 526 91 309 C91 122 221 -13 414 -13 L414 -13 Z M237 318 C237 457 343 574 480 574 C593 574 667 496 667 379 C667 240 562 121 424 121 C311 121 237 200 237 318 L237 318 Z M325 800 L399 738 L570 916 L487 987 L325 800 Z M551 800 L625 738 L797 916 L713 987 L551 800 Z " />
<glyph glyph-name="ohungarumlaut" unicode="&#x151;" horiz-adv-x="626" d="M321 -13 C505 -13 640 135 640 302 C640 453 528 539 391 539 C214 539 72 396 72 225 C72 77 178 -13 321 -13 L321 -13 Z M217 241 C217 331 283 414 376 414 C449 414 496 362 496 287 C496 199 432 113 338 113 C263 113 217 166 217 241 L217 241 Z M226 637 L300 574 L470 745 L386 817 L226 637 Z M449 637 L523 574 L693 745 L609 817 L449 637 Z " />
<glyph glyph-name="OE" unicode="&#x152;" horiz-adv-x="1097" d="M414 -13 C489 -13 556 14 613 56 L602 0 L1061 0 L1086 123 L768 123 L801 293 L1076 293 L1101 416 L824 416 L854 572 L1166 572 L1191 695 L737 695 L721 611 C670 672 592 708 491 708 C265 708 91 526 91 309 C91 122 221 -13 414 -13 L414 -13 Z M237 318 C237 457 343 574 480 574 C593 574 665 496 665 379 C665 240 562 121 424 121 C311 121 237 200 237 318 L237 318 Z " />
<glyph glyph-name="oe" unicode="&#x153;" horiz-adv-x="1010" d="M321 -13 C409 -13 487 21 543 75 C586 21 655 -13 740 -13 C849 -13 914 24 971 81 L884 168 C847 122 809 104 756 104 C686 104 636 145 631 220 L1014 220 C1024 245 1033 290 1033 324 C1033 440 946 539 805 539 C722 539 647 505 591 452 C546 508 473 539 391 539 C214 539 72 396 72 225 C72 77 178 -13 321 -13 L321 -13 Z M217 241 C217 331 283 414 376 414 C449 414 496 362 496 287 C496 199 432 113 338 113 C263 113 217 166 217 241 L217 241 Z M644 314 C668 380 722 432 799 432 C867 432 904 389 904 322 L904 314 L644 314 Z " />
<glyph glyph-name="Racute" unicode="&#x154;" horiz-adv-x="626" d="M63 0 L204 0 L260 287 L300 287 L440 0 L586 0 L438 289 C588 304 673 399 673 511 C673 621 600 695 463 695 L198 695 L63 0 Z M279 388 L315 572 L440 572 C499 572 531 540 531 489 C531 431 485 388 407 388 L279 388 Z M281 851 L312 754 L616 841 L584 952 L281 851 Z " />
<glyph glyph-name="racute" unicode="&#x155;" horiz-adv-x="359" d="M52 0 L193 0 L251 297 C271 369 324 407 413 407 L438 540 C376 540 319 510 276 466 L287 527 L154 527 L52 0 Z M162 664 L212 581 L477 720 L423 817 L162 664 Z " />
<glyph glyph-name="uni0156" unicode="&#x156;" horiz-adv-x="626" d="M63 0 L204 0 L260 287 L300 287 L440 0 L586 0 L438 289 C588 304 673 399 673 511 C673 621 600 695 463 695 L198 695 L63 0 Z M209 -254 L261 -287 L314 -221 C349 -177 374 -144 374 -109 C374 -71 344 -48 309 -48 C264 -48 227 -84 227 -128 C227 -155 240 -174 260 -182 L209 -254 Z M279 388 L315 572 L440 572 C499 572 531 540 531 489 C531 431 485 388 407 388 L279 388 Z " />
<glyph glyph-name="uni0157" unicode="&#x157;" horiz-adv-x="359" d="M52 0 L193 0 L251 297 C271 369 324 407 413 407 L438 540 C376 540 319 510 276 466 L287 527 L154 527 L52 0 Z M5 -254 L57 -287 L110 -221 C145 -177 170 -144 170 -109 C170 -71 140 -48 105 -48 C60 -48 23 -84 23 -128 C23 -155 36 -174 56 -182 L5 -254 Z " />
<glyph glyph-name="Rcaron" unicode="&#x158;" horiz-adv-x="626" d="M63 0 L204 0 L260 287 L300 287 L440 0 L586 0 L438 289 C588 304 673 399 673 511 C673 621 600 695 463 695 L198 695 L63 0 Z M273 937 L376 760 L491 760 L669 937 L534 937 L444 854 L390 937 L273 937 Z M279 388 L315 572 L440 572 C499 572 531 540 531 489 C531 431 485 388 407 388 L279 388 Z " />
<glyph glyph-name="rcaron" unicode="&#x159;" horiz-adv-x="359" d="M52 0 L193 0 L251 297 C271 369 324 407 413 407 L438 540 C376 540 319 510 276 466 L287 527 L154 527 L52 0 Z M147 792 L245 601 L359 601 L535 792 L407 792 L313 689 L258 792 L147 792 Z " />
<glyph glyph-name="Sacute" unicode="&#x15a;" horiz-adv-x="572" d="M303 -13 C469 -13 579 77 579 212 C579 432 291 392 291 510 C291 556 331 587 394 587 C456 587 508 559 539 514 L637 612 C594 663 512 708 407 708 C250 708 145 619 145 492 C145 282 432 326 432 195 C432 143 392 110 326 110 C249 110 194 143 152 198 L41 101 C87 35 176 -13 303 -13 L303 -13 Z M269 851 L300 754 L604 841 L572 952 L269 851 Z " />
<glyph glyph-name="sacute" unicode="&#x15b;" horiz-adv-x="482" d="M260 -13 C395 -13 494 58 494 166 C494 333 254 301 254 382 C254 412 287 432 331 432 C374 432 413 415 445 379 L532 465 C495 507 426 539 334 539 C203 539 112 469 112 370 C112 206 351 242 351 153 C351 118 312 99 271 99 C224 99 176 114 127 170 L32 75 C75 27 149 -13 260 -13 L260 -13 Z M220 664 L270 581 L535 720 L481 817 L220 664 Z " />
<glyph glyph-name="Scedilla" unicode="&#x15e;" horiz-adv-x="572" d="M248 -242 C328 -242 386 -192 386 -130 C386 -91 362 -58 326 -48 L346 -11 C488 3 579 89 579 212 C579 432 291 392 291 510 C291 556 331 587 394 587 C456 587 508 559 539 514 L637 612 C594 663 512 708 407 708 C250 708 145 619 145 492 C145 282 432 326 432 195 C432 143 392 110 326 110 C249 110 194 143 152 198 L41 101 C82 43 156 -2 260 -11 L228 -70 L236 -82 L245 -82 C271 -82 286 -100 286 -123 C286 -147 266 -166 235 -166 C207 -166 193 -152 184 -137 L129 -191 C148 -219 192 -242 248 -242 L248 -242 Z " />
<glyph glyph-name="scedilla" unicode="&#x15f;" horiz-adv-x="482" d="M202 -242 C282 -242 340 -192 340 -130 C340 -91 316 -58 280 -48 L300 -11 C414 2 494 69 494 166 C494 333 254 301 254 382 C254 412 287 432 331 432 C374 432 413 415 445 379 L532 465 C495 507 426 539 334 539 C203 539 112 469 112 370 C112 206 351 242 351 153 C351 118 312 99 271 99 C224 99 176 114 127 170 L32 75 C69 34 128 -1 214 -11 L182 -70 L190 -82 L199 -82 C225 -82 240 -100 240 -123 C240 -147 220 -166 189 -166 C161 -166 147 -152 138 -137 L83 -191 C102 -219 146 -242 202 -242 L202 -242 Z " />
<glyph glyph-name="Scaron" unicode="&#x160;" horiz-adv-x="572" d="M303 -13 C469 -13 579 77 579 212 C579 432 291 392 291 510 C291 556 331 587 394 587 C456 587 508 559 539 514 L637 612 C594 663 512 708 407 708 C250 708 145 619 145 492 C145 282 432 326 432 195 C432 143 392 110 326 110 C249 110 194 143 152 198 L41 101 C87 35 176 -13 303 -13 L303 -13 Z M264 938 L367 761 L482 761 L660 938 L525 938 L435 855 L381 938 L264 938 Z " />
<glyph glyph-name="scaron" unicode="&#x161;" horiz-adv-x="482" d="M260 -13 C395 -13 494 58 494 166 C494 333 254 301 254 382 C254 412 287 432 331 432 C374 432 413 415 445 379 L532 465 C495 507 426 539 334 539 C203 539 112 469 112 370 C112 206 351 242 351 153 C351 118 312 99 271 99 C224 99 176 114 127 170 L32 75 C75 27 149 -13 260 -13 L260 -13 Z M196 792 L294 601 L408 601 L584 792 L456 792 L362 689 L307 792 L196 792 Z " />
<glyph glyph-name="uni0162" unicode="&#x162;" horiz-adv-x="585" d="M212 0 L245 0 L206 -72 L214 -84 L223 -84 C249 -84 264 -102 264 -125 C264 -149 244 -168 213 -168 C185 -168 171 -154 162 -139 L107 -193 C126 -221 170 -244 226 -244 C306 -244 364 -194 364 -132 C364 -93 340 -60 304 -50 L330 0 L354 0 L465 569 L666 569 L691 695 L146 695 L121 569 L323 569 L212 0 Z " />
<glyph glyph-name="uni0163" unicode="&#x163;" horiz-adv-x="403" d="M207 -233 C287 -233 345 -183 345 -121 C345 -82 321 -49 285 -39 L306 0 L375 0 L399 123 L355 123 C297 123 268 156 281 222 L317 406 L449 406 L473 527 L346 527 L373 665 L235 665 L220 583 C212 546 191 527 156 527 L112 527 L88 406 L176 406 L137 205 C118 107 150 37 226 11 L187 -61 L195 -73 L204 -73 C230 -73 245 -91 245 -114 C245 -138 225 -157 194 -157 C166 -157 152 -143 143 -128 L88 -182 C107 -210 151 -233 207 -233 L207 -233 Z " />
<glyph glyph-name="Tcaron" unicode="&#x164;" horiz-adv-x="585" d="M212 0 L354 0 L465 569 L666 569 L691 695 L146 695 L121 569 L323 569 L212 0 Z M266 937 L369 760 L484 760 L662 937 L527 937 L437 854 L383 937 L266 937 Z " />
<glyph glyph-name="tcaron" unicode="&#x165;" horiz-adv-x="403" d="M302 0 L375 0 L399 123 L355 123 C297 123 268 156 281 222 L317 406 L449 406 L473 527 L346 527 L373 665 L235 665 L220 583 C212 546 191 527 156 527 L112 527 L88 406 L176 406 L137 205 C113 79 172 0 302 0 L302 0 Z M410 555 L503 555 L579 804 L473 804 L410 555 Z " />
<glyph glyph-name="Tbar" unicode="&#x166;" horiz-adv-x="593" d="M216 0 L358 0 L408 256 L512 256 L531 354 L427 354 L469 569 L670 569 L695 695 L150 695 L125 569 L327 569 L285 354 L183 354 L164 256 L266 256 L216 0 Z " />
<glyph glyph-name="tbar" unicode="&#x167;" horiz-adv-x="408" d="M306 0 L379 0 L403 123 L359 123 C301 123 272 156 285 222 L285 223 L396 223 L413 321 L304 321 L321 406 L453 406 L477 527 L350 527 L377 665 L239 665 L224 583 C216 546 195 527 160 527 L116 527 L92 406 L180 406 L164 321 L92 321 L74 223 L144 223 L141 205 C117 79 176 0 306 0 L306 0 Z " />
<glyph glyph-name="Utilde" unicode="&#x168;" horiz-adv-x="675" d="M341 -13 C504 -13 619 85 652 258 L736 695 L595 695 L511 259 C493 169 439 121 361 121 C277 121 233 178 252 279 L332 695 L190 695 L110 278 C78 113 162 -13 341 -13 L341 -13 Z M267 806 L356 765 C365 793 382 808 410 808 C459 808 478 760 546 760 C618 760 667 815 687 878 L599 919 C589 891 572 876 544 876 C494 876 475 924 408 924 C336 924 288 869 267 806 L267 806 Z " />
<glyph glyph-name="utilde" unicode="&#x169;" horiz-adv-x="598" d="M244 -13 C309 -13 367 16 409 58 L398 0 L531 0 L633 527 L492 527 L434 226 C421 158 370 113 311 113 C254 113 217 151 232 229 L289 527 L148 527 L86 203 C60 73 131 -13 244 -13 L244 -13 Z M217 662 L307 621 C316 649 333 664 357 664 C403 664 419 615 483 615 C552 615 600 670 621 733 L532 774 C523 746 506 731 481 731 C434 731 419 780 355 780 C287 780 239 724 217 662 L217 662 Z " />
<glyph glyph-name="Umacron" unicode="&#x16a;" horiz-adv-x="675" d="M341 -13 C504 -13 619 85 652 258 L736 695 L595 695 L511 259 C493 169 439 121 361 121 C277 121 233 178 252 279 L332 695 L190 695 L110 278 C78 113 162 -13 341 -13 L341 -13 Z M293 792 L644 792 L666 907 L315 907 L293 792 Z " />
<glyph glyph-name="umacron" unicode="&#x16b;" horiz-adv-x="598" d="M244 -13 C309 -13 367 16 409 58 L398 0 L531 0 L633 527 L492 527 L434 226 C421 158 370 113 311 113 C254 113 217 151 232 229 L289 527 L148 527 L86 203 C60 73 131 -13 244 -13 L244 -13 Z M239 642 L563 642 L583 747 L260 747 L239 642 Z " />
<glyph glyph-name="Uring" unicode="&#x16e;" horiz-adv-x="675" d="M341 -13 C504 -13 619 85 652 258 L736 695 L595 695 L511 259 C493 169 439 121 361 121 C277 121 233 178 252 279 L332 695 L190 695 L110 278 C78 113 162 -13 341 -13 L341 -13 Z M349 806 C349 742 396 696 464 696 C545 696 611 759 611 835 C611 899 565 944 496 944 C415 944 349 882 349 806 L349 806 Z M433 816 C433 843 456 866 485 866 C510 866 527 850 527 825 C527 796 502 775 474 775 C449 775 433 791 433 816 L433 816 Z " />
<glyph glyph-name="uring" unicode="&#x16f;" horiz-adv-x="598" d="M244 -13 C309 -13 367 16 409 58 L398 0 L531 0 L633 527 L492 527 L434 226 C421 158 370 113 311 113 C254 113 217 151 232 229 L289 527 L148 527 L86 203 C60 73 131 -13 244 -13 L244 -13 Z M290 680 C290 615 337 570 405 570 C486 570 552 633 552 708 C552 772 506 818 437 818 C356 818 290 755 290 680 L290 680 Z M374 689 C374 717 397 739 426 739 C451 739 468 723 468 699 C468 670 443 648 415 648 C390 648 374 665 374 689 L374 689 Z " />
<glyph glyph-name="Uhungarumlaut" unicode="&#x170;" horiz-adv-x="675" d="M341 -13 C504 -13 619 85 652 258 L736 695 L595 695 L511 259 C493 169 439 121 361 121 C277 121 233 178 252 279 L332 695 L190 695 L110 278 C78 113 162 -13 341 -13 L341 -13 Z M273 800 L347 738 L518 916 L435 987 L273 800 Z M499 800 L573 738 L745 916 L661 987 L499 800 Z " />
<glyph glyph-name="uhungarumlaut" unicode="&#x171;" horiz-adv-x="598" d="M244 -13 C309 -13 367 16 409 58 L398 0 L531 0 L633 527 L492 527 L434 226 C421 158 370 113 311 113 C254 113 217 151 232 229 L289 527 L148 527 L86 203 C60 73 131 -13 244 -13 L244 -13 Z M205 638 L279 575 L449 746 L365 818 L205 638 Z M428 638 L502 575 L672 746 L588 818 L428 638 Z " />
<glyph glyph-name="Uogonek" unicode="&#x172;" horiz-adv-x="675" d="M360 -224 C406 -224 444 -208 469 -183 L433 -118 C422 -130 408 -136 394 -136 C375 -136 363 -126 363 -106 C363 -81 382 -61 406 -40 L466 10 C562 48 628 134 652 258 L736 695 L595 695 L511 259 C493 169 439 121 361 121 C277 121 233 178 252 279 L332 695 L190 695 L110 278 C79 116 159 -8 331 -13 C284 -50 255 -90 255 -136 C255 -192 298 -224 360 -224 L360 -224 Z " />
<glyph glyph-name="uogonek" unicode="&#x173;" horiz-adv-x="598" d="M244 -13 C309 -13 367 16 409 58 L398 0 L429 0 L421 -5 C357 -47 317 -94 317 -148 C317 -204 360 -236 422 -236 C468 -236 506 -220 531 -195 L495 -130 C484 -142 470 -148 456 -148 C437 -148 425 -138 425 -118 C425 -93 444 -73 468 -52 L531 0 L633 527 L492 527 L434 226 C421 158 370 113 311 113 C254 113 217 151 232 229 L289 527 L148 527 L86 203 C60 73 131 -13 244 -13 L244 -13 Z " />
<glyph glyph-name="Wcircumflex" unicode="&#x174;" horiz-adv-x="914" d="M166 0 L331 0 L545 497 L565 0 L730 0 L1022 695 L877 695 L673 166 L656 695 L502 695 L280 168 L281 695 L144 695 L166 0 Z M382 760 L516 760 L607 845 L661 760 L778 760 L675 937 L560 937 L382 760 Z " />
<glyph glyph-name="wcircumflex" unicode="&#x175;" horiz-adv-x="809" d="M139 0 L304 0 L464 369 L485 0 L649 0 L884 527 L739 527 L585 137 L563 527 L414 527 L253 137 L239 527 L106 527 L139 0 Z M297 602 L424 602 L518 704 L573 602 L684 602 L586 793 L472 793 L297 602 Z " />
<glyph glyph-name="Ycircumflex" unicode="&#x176;" horiz-adv-x="650" d="M245 0 L386 0 L440 281 L769 695 L601 695 L389 407 L275 695 L132 695 L300 284 L245 0 Z M240 760 L374 760 L465 845 L519 760 L636 760 L533 937 L418 937 L240 760 Z " />
<glyph glyph-name="ycircumflex" unicode="&#x177;" horiz-adv-x="565" d="M191 0 L221 0 L116 -179 L256 -179 L356 0 L648 527 L491 527 L299 136 L244 527 L103 527 L191 0 Z M176 602 L303 602 L397 704 L452 602 L563 602 L465 793 L351 793 L176 602 Z " />
<glyph glyph-name="Ydieresis" unicode="&#x178;" horiz-adv-x="650" d="M245 0 L386 0 L440 281 L769 695 L601 695 L389 407 L275 695 L132 695 L300 284 L245 0 Z M247 839 C247 789 282 758 329 758 C384 758 432 802 432 859 C432 906 401 940 351 940 C294 940 247 896 247 839 L247 839 Z M483 839 C483 789 518 758 565 758 C620 758 669 802 669 859 C669 906 638 940 588 940 C530 940 483 896 483 839 L483 839 Z " />
<glyph glyph-name="Zacute" unicode="&#x179;" horiz-adv-x="566" d="M26 0 L539 0 L561 127 L274 127 L668 695 L168 695 L144 572 L422 572 L26 0 Z M266 851 L297 754 L601 841 L569 952 L266 851 Z " />
<glyph glyph-name="zacute" unicode="&#x17a;" horiz-adv-x="535" d="M24 0 L508 0 L530 114 L283 114 L609 527 L139 527 L116 413 L355 413 L24 0 Z M202 664 L252 581 L517 720 L463 817 L202 664 Z " />
<glyph glyph-name="Zdotaccent" unicode="&#x17b;" horiz-adv-x="566" d="M26 0 L539 0 L561 127 L274 127 L668 695 L168 695 L144 572 L422 572 L26 0 Z M343 839 C343 791 381 758 427 758 C480 758 530 802 530 858 C530 905 496 939 447 939 C390 939 343 894 343 839 L343 839 Z " />
<glyph glyph-name="zdotaccent" unicode="&#x17c;" horiz-adv-x="535" d="M24 0 L508 0 L530 114 L283 114 L609 527 L139 527 L116 413 L355 413 L24 0 Z M265 686 C265 639 301 606 349 606 C408 606 455 654 455 708 C455 755 419 788 371 788 C312 788 265 740 265 686 L265 686 Z " />
<glyph glyph-name="Zcaron" unicode="&#x17d;" horiz-adv-x="566" d="M26 0 L539 0 L561 127 L274 127 L668 695 L168 695 L144 572 L422 572 L26 0 Z M263 937 L366 760 L481 760 L659 937 L524 937 L434 854 L380 937 L263 937 Z " />
<glyph glyph-name="zcaron" unicode="&#x17e;" horiz-adv-x="535" d="M24 0 L508 0 L530 114 L283 114 L609 527 L139 527 L116 413 L355 413 L24 0 Z M185 792 L283 601 L397 601 L573 792 L445 792 L351 689 L296 792 L185 792 Z " />
<glyph glyph-name="florin" unicode="&#x192;" horiz-adv-x="628" d="M195 353 L307 353 L228 104 C210 48 180 16 125 16 L62 16 L40 -100 L133 -100 C265 -100 333 -32 368 79 L454 353 L584 353 L609 479 L493 479 L497 491 C515 548 545 579 600 579 L664 579 L686 695 L593 695 C461 695 394 627 358 516 L346 479 L220 479 L195 353 Z " />
<glyph glyph-name="uni01EA" unicode="&#x1ea;" horiz-adv-x="792" d="M424 121 C311 121 237 200 237 318 C237 457 343 574 480 574 C593 574 667 496 667 379 C667 240 562 121 424 121 L424 121 Z M91 309 C91 126 216 -8 403 -13 C351 -51 319 -94 319 -142 C319 -198 362 -230 424 -230 C470 -230 508 -214 533 -189 L497 -124 C486 -136 472 -142 458 -142 C439 -142 427 -132 427 -112 C427 -87 446 -67 470 -46 L531 4 C694 54 813 205 813 388 C813 579 682 708 491 708 C265 708 91 526 91 309 L91 309 Z " />
<glyph glyph-name="uni01EB" unicode="&#x1eb;" horiz-adv-x="626" d="M338 113 C263 113 217 166 217 241 C217 331 283 414 376 414 C449 414 496 362 496 287 C496 199 432 113 338 113 L338 113 Z M72 225 C72 85 167 -3 298 -12 C245 -51 213 -94 213 -142 C213 -198 256 -230 318 -230 C364 -230 402 -214 427 -189 L391 -124 C380 -136 366 -142 352 -142 C333 -142 321 -132 321 -112 C321 -87 340 -67 364 -46 L424 3 C553 46 640 168 640 302 C640 453 528 539 391 539 C214 539 72 396 72 225 L72 225 Z " />
<glyph glyph-name="AEacute" unicode="&#x1fc;" horiz-adv-x="948" d="M-16 0 L139 0 L237 149 L459 149 L430 0 L889 0 L913 123 L597 123 L629 293 L904 293 L929 416 L653 416 L683 572 L994 572 L1018 695 L440 695 L-16 0 Z M317 270 L517 572 L541 572 L482 270 L317 270 Z M582 851 L613 754 L917 841 L885 952 L582 851 Z " />
<glyph glyph-name="aeacute" unicode="&#x1fd;" horiz-adv-x="1040" d="M284 -13 C352 -13 409 15 454 59 L443 0 L574 0 L589 79 C621 18 687 -13 763 -13 C858 -13 927 24 983 79 L899 163 C863 118 822 100 771 100 C696 100 645 143 640 224 L1028 224 C1037 245 1046 290 1046 324 C1046 440 961 539 830 539 C766 539 709 512 664 463 L676 527 L545 527 L533 459 C502 510 448 539 373 539 C203 539 72 389 72 220 C72 82 159 -13 284 -13 L284 -13 Z M215 241 C215 334 285 414 374 414 C445 414 492 363 492 288 C492 194 424 112 335 112 C264 112 215 166 215 241 L215 241 Z M470 665 L520 582 L785 721 L731 818 L470 665 Z M651 307 C673 379 729 436 812 436 C883 436 921 392 921 322 C921 317 921 312 920 307 L651 307 Z " />
<glyph glyph-name="Oslashacute" unicode="&#x1fe;" horiz-adv-x="795" d="M414 -13 C635 -13 813 164 813 388 C813 454 798 512 769 560 L861 642 L794 721 L702 639 C647 683 575 708 491 708 C265 708 91 526 91 309 C91 243 107 183 137 134 L44 51 L111 -27 L204 56 C259 12 330 -13 414 -13 L414 -13 Z M237 318 C237 457 343 574 480 574 C524 574 562 562 592 541 L251 236 C242 260 237 288 237 318 L237 318 Z M313 153 L654 457 C663 434 667 408 667 379 C667 240 562 121 424 121 C381 121 343 133 313 153 L313 153 Z M354 851 L385 754 L689 841 L657 952 L354 851 Z " />
<glyph glyph-name="oslashacute" unicode="&#x1ff;" horiz-adv-x="648" d="M328 -13 C512 -13 647 135 647 302 C647 341 640 375 626 405 L703 463 L653 538 L573 478 C528 518 466 539 398 539 C221 539 79 396 79 225 C79 186 87 150 100 120 L19 58 L71 -16 L154 47 C198 8 259 -13 328 -13 L328 -13 Z M224 241 C224 331 290 414 383 414 C456 414 503 362 503 287 C503 199 439 113 345 113 C270 113 224 166 224 241 L224 241 Z M260 664 L310 581 L575 720 L521 817 L260 664 Z " />
<glyph glyph-name="uni0218" unicode="&#x218;" horiz-adv-x="572" d="M303 -13 C469 -13 579 77 579 212 C579 432 291 392 291 510 C291 556 331 587 394 587 C456 587 508 559 539 514 L637 612 C594 663 512 708 407 708 C250 708 145 619 145 492 C145 282 432 326 432 195 C432 143 392 110 326 110 C249 110 194 143 152 198 L41 101 C87 35 176 -13 303 -13 L303 -13 Z M191 -254 L243 -287 L296 -221 C331 -177 356 -144 356 -109 C356 -71 326 -48 291 -48 C246 -48 209 -84 209 -128 C209 -155 222 -174 242 -182 L191 -254 Z " />
<glyph glyph-name="uni0219" unicode="&#x219;" horiz-adv-x="482" d="M260 -13 C395 -13 494 58 494 166 C494 333 254 301 254 382 C254 412 287 432 331 432 C374 432 413 415 445 379 L532 465 C495 507 426 539 334 539 C203 539 112 469 112 370 C112 206 351 242 351 153 C351 118 312 99 271 99 C224 99 176 114 127 170 L32 75 C75 27 149 -13 260 -13 L260 -13 Z M142 -254 L194 -287 L247 -221 C282 -177 307 -144 307 -109 C307 -71 277 -48 242 -48 C197 -48 160 -84 160 -128 C160 -155 173 -174 193 -182 L142 -254 Z " />
<glyph glyph-name="uni021A" unicode="&#x21a;" horiz-adv-x="585" d="M212 0 L354 0 L465 569 L666 569 L691 695 L146 695 L121 569 L323 569 L212 0 Z M172 -254 L224 -287 L277 -221 C312 -177 337 -144 337 -109 C337 -71 307 -48 272 -48 C227 -48 190 -84 190 -128 C190 -155 203 -174 223 -182 L172 -254 Z " />
<glyph glyph-name="uni021B" unicode="&#x21b;" horiz-adv-x="403" d="M302 0 L375 0 L399 123 L355 123 C297 123 268 156 281 222 L317 406 L449 406 L473 527 L346 527 L373 665 L235 665 L220 583 C212 546 191 527 156 527 L112 527 L88 406 L176 406 L137 205 C113 79 172 0 302 0 L302 0 Z M147 -245 L199 -278 L252 -212 C287 -168 312 -135 312 -100 C312 -62 282 -39 247 -39 C202 -39 165 -75 165 -119 C165 -146 178 -165 198 -173 L147 -245 Z " />
<glyph glyph-name="uni0237" unicode="&#x237;" horiz-adv-x="250" d="M-75 -185 L-47 -185 C77 -185 174 -112 201 27 L298 527 L157 527 L60 25 C49 -31 11 -63 -34 -63 L-52 -63 L-75 -185 Z " />
<glyph glyph-name="circumflex" unicode="&#x2c6;" horiz-adv-x="383" d="M146 602 L273 602 L367 704 L422 602 L533 602 L435 793 L321 793 L146 602 Z " />
<glyph glyph-name="caron" unicode="&#x2c7;" horiz-adv-x="448" d="M280 602 L394 602 L570 793 L442 793 L348 690 L293 793 L182 793 L280 602 Z " />
<glyph glyph-name="breve" unicode="&#x2d8;" horiz-adv-x="394" d="M338 602 C460 602 521 683 542 793 L431 793 C423 742 393 706 347 706 C304 706 281 739 291 793 L182 793 C161 685 232 602 338 602 L338 602 Z " />
<glyph glyph-name="dotaccent" unicode="&#x2d9;" horiz-adv-x="206" d="M245 607 C304 607 351 655 351 709 C351 756 315 789 267 789 C208 789 161 741 161 687 C161 640 197 607 245 607 L245 607 Z " />
<glyph glyph-name="ring" unicode="&#x2da;" horiz-adv-x="282" d="M276 570 C357 570 423 633 423 708 C423 772 377 818 308 818 C227 818 161 755 161 680 C161 615 208 570 276 570 L276 570 Z M245 689 C245 717 268 739 297 739 C322 739 339 723 339 699 C339 670 314 648 286 648 C261 648 245 665 245 689 L245 689 Z " />
<glyph glyph-name="ogonek" unicode="&#x2db;" horiz-adv-x="292" d="M105 -235 C151 -235 189 -219 214 -194 L178 -129 C167 -141 153 -147 139 -147 C120 -147 108 -137 108 -117 C108 -92 127 -72 151 -51 L214 1 L170 40 L104 -4 C40 -46 0 -93 0 -147 C0 -203 43 -235 105 -235 L105 -235 Z " />
<glyph glyph-name="tilde" unicode="&#x2dc;" horiz-adv-x="467" d="M422 615 C491 615 539 670 560 733 L471 774 C462 746 445 731 420 731 C373 731 358 780 294 780 C226 780 178 724 156 662 L246 621 C255 649 272 664 296 664 C342 664 358 615 422 615 L422 615 Z " />
<glyph glyph-name="hungarumlaut" unicode="&#x2dd;" horiz-adv-x="411" d="M447 575 L617 746 L533 818 L373 638 L447 575 Z M150 638 L224 575 L394 746 L310 818 L150 638 Z " />
<glyph glyph-name="gravecomb" unicode="&#x300;" d="M397 572 L453 655 L211 815 L150 720 L397 572 Z " />
<glyph glyph-name="acutecomb" unicode="&#x301;" d="M201 582 L466 721 L412 818 L151 665 L201 582 Z " />
<glyph glyph-name="uni0302" unicode="&#x302;" d="M146 602 L273 602 L367 704 L422 602 L533 602 L435 793 L321 793 L146 602 Z " />
<glyph glyph-name="tildecomb" unicode="&#x303;" d="M422 615 C491 615 539 670 560 733 L471 774 C462 746 445 731 420 731 C373 731 358 780 294 780 C226 780 178 724 156 662 L246 621 C255 649 272 664 296 664 C342 664 358 615 422 615 L422 615 Z " />
<glyph glyph-name="uni0304" unicode="&#x304;" d="M153 642 L477 642 L497 747 L174 747 L153 642 Z " />
<glyph glyph-name="uni0306" unicode="&#x306;" d="M338 602 C460 602 521 683 542 793 L431 793 C423 742 393 706 347 706 C304 706 281 739 291 793 L182 793 C161 685 232 602 338 602 L338 602 Z " />
<glyph glyph-name="uni0307" unicode="&#x307;" d="M245 607 C304 607 351 655 351 709 C351 756 315 789 267 789 C208 789 161 741 161 687 C161 640 197 607 245 607 L245 607 Z " />
<glyph glyph-name="uni0308" unicode="&#x308;" d="M469 609 C524 609 571 655 571 705 C571 755 539 785 492 785 C438 785 391 740 391 690 C391 640 423 609 469 609 L469 609 Z M162 690 C162 640 195 609 241 609 C295 609 342 655 342 705 C342 755 310 785 264 785 C210 785 162 740 162 690 L162 690 Z " />
<glyph glyph-name="uni030A" unicode="&#x30a;" d="M276 570 C357 570 423 633 423 708 C423 772 377 818 308 818 C227 818 161 755 161 680 C161 615 208 570 276 570 L276 570 Z M245 689 C245 717 268 739 297 739 C322 739 339 723 339 699 C339 670 314 648 286 648 C261 648 245 665 245 689 L245 689 Z " />
<glyph glyph-name="uni030B" unicode="&#x30b;" d="M449 575 L619 746 L535 818 L375 638 L449 575 Z M152 638 L226 575 L396 746 L312 818 L152 638 Z " />
<glyph glyph-name="uni030C" unicode="&#x30c;" d="M280 602 L394 602 L570 793 L442 793 L348 690 L293 793 L182 793 L280 602 Z " />
<glyph glyph-name="uni0326" unicode="&#x326;" d="M37 -287 L90 -221 C125 -177 150 -144 150 -109 C150 -71 120 -48 85 -48 C40 -48 3 -84 3 -128 C3 -155 16 -174 36 -182 L-15 -254 L37 -287 Z " />
<glyph glyph-name="uni0327" unicode="&#x327;" d="M112 -242 C192 -242 250 -192 250 -130 C250 -91 226 -58 190 -48 L224 16 L139 16 L92 -70 L100 -82 L109 -82 C135 -82 150 -100 150 -123 C150 -147 130 -166 99 -166 C71 -166 57 -152 48 -137 L-7 -191 C12 -219 56 -242 112 -242 L112 -242 Z " />
<glyph glyph-name="uni0328" unicode="&#x328;" d="M105 -235 C151 -235 189 -219 214 -194 L178 -129 C167 -141 153 -147 139 -147 C120 -147 108 -137 108 -117 C108 -92 127 -72 151 -51 L214 1 L170 40 L104 -4 C40 -46 0 -93 0 -147 C0 -203 43 -235 105 -235 L105 -235 Z " />
<glyph glyph-name="uni0335" unicode="&#x335;" d="M73 230 L421 230 L440 328 L92 328 L73 230 Z " />
<glyph glyph-name="uni0336" unicode="&#x336;" d="M81 268 L750 268 L772 378 L102 378 L81 268 Z " />
<glyph glyph-name="uni0337" unicode="&#x337;" d="M133 175 L476 349 L433 434 L91 260 L133 175 Z " />
<glyph glyph-name="uni0338" unicode="&#x338;" d="M250 112 L198 186 L42 68 L94 -6 L250 112 Z M510 423 L563 350 L726 473 L676 548 L510 423 Z " />
<glyph glyph-name="Wgrave" unicode="&#x1e80;" horiz-adv-x="914" d="M166 0 L331 0 L545 497 L565 0 L730 0 L1022 695 L877 695 L673 166 L656 695 L502 695 L280 168 L281 695 L144 695 L166 0 Z M436 845 L730 751 L766 846 L474 955 L436 845 Z " />
<glyph glyph-name="wgrave" unicode="&#x1e81;" horiz-adv-x="809" d="M139 0 L304 0 L464 369 L485 0 L649 0 L884 527 L739 527 L585 137 L563 527 L414 527 L253 137 L239 527 L106 527 L139 0 Z M362 720 L609 572 L665 655 L423 815 L362 720 Z " />
<glyph glyph-name="Wacute" unicode="&#x1e82;" horiz-adv-x="914" d="M166 0 L331 0 L545 497 L565 0 L730 0 L1022 695 L877 695 L673 166 L656 695 L502 695 L280 168 L281 695 L144 695 L166 0 Z M416 851 L447 754 L751 841 L719 952 L416 851 Z " />
<glyph glyph-name="wacute" unicode="&#x1e83;" horiz-adv-x="809" d="M139 0 L304 0 L464 369 L485 0 L649 0 L884 527 L739 527 L585 137 L563 527 L414 527 L253 137 L239 527 L106 527 L139 0 Z M344 665 L394 582 L659 721 L605 818 L344 665 Z " />
<glyph glyph-name="Wdieresis" unicode="&#x1e84;" horiz-adv-x="914" d="M166 0 L331 0 L545 497 L565 0 L730 0 L1022 695 L877 695 L673 166 L656 695 L502 695 L280 168 L281 695 L144 695 L166 0 Z M393 839 C393 789 428 758 475 758 C530 758 578 802 578 859 C578 906 547 940 497 940 C440 940 393 896 393 839 L393 839 Z M629 839 C629 789 664 758 711 758 C766 758 815 802 815 859 C815 906 784 940 734 940 C676 940 629 896 629 839 L629 839 Z " />
<glyph glyph-name="wdieresis" unicode="&#x1e85;" horiz-adv-x="809" d="M139 0 L304 0 L464 369 L485 0 L649 0 L884 527 L739 527 L585 137 L563 527 L414 527 L253 137 L239 527 L106 527 L139 0 Z M313 690 C313 640 346 609 392 609 C446 609 493 655 493 705 C493 755 461 785 415 785 C361 785 313 740 313 690 L313 690 Z M542 690 C542 640 574 609 620 609 C675 609 722 655 722 705 C722 755 690 785 643 785 C589 785 542 740 542 690 L542 690 Z " />
<glyph glyph-name="uni1E9E" unicode="&#x1e9e;" horiz-adv-x="637" d="M145 457 L56 0 L198 0 L287 456 C302 536 356 585 438 585 C489 585 521 567 539 536 L392 377 L377 297 L410 297 C468 297 506 263 502 205 C497 143 453 101 390 101 C358 101 328 114 304 133 L245 26 C272 4 317 -13 383 -13 C521 -13 626 66 642 193 C653 284 608 353 526 375 L686 545 C668 644 591 708 457 708 C299 708 175 612 145 457 L145 457 Z " />
<glyph glyph-name="Ygrave" unicode="&#x1ef2;" horiz-adv-x="650" d="M245 0 L386 0 L440 281 L769 695 L601 695 L389 407 L275 695 L132 695 L300 284 L245 0 Z M300 845 L594 751 L630 846 L338 955 L300 845 Z " />
<glyph glyph-name="ygrave" unicode="&#x1ef3;" horiz-adv-x="565" d="M191 0 L221 0 L116 -179 L256 -179 L356 0 L648 527 L491 527 L299 136 L244 527 L103 527 L191 0 Z M241 720 L488 572 L544 655 L302 815 L241 720 Z " />
<glyph glyph-name="uni1EF8" unicode="&#x1ef8;" horiz-adv-x="650" d="M245 0 L386 0 L440 281 L769 695 L601 695 L389 407 L275 695 L132 695 L300 284 L245 0 Z M240 806 L329 765 C338 793 355 808 383 808 C432 808 451 760 519 760 C591 760 640 815 660 878 L572 919 C562 891 545 876 517 876 C467 876 448 924 381 924 C309 924 261 869 240 806 L240 806 Z " />
<glyph glyph-name="uni1EF9" unicode="&#x1ef9;" horiz-adv-x="565" d="M191 0 L221 0 L116 -179 L256 -179 L356 0 L648 527 L491 527 L299 136 L244 527 L103 527 L191 0 Z M190 662 L280 621 C289 649 306 664 330 664 C376 664 392 615 456 615 C525 615 573 670 594 733 L505 774 C496 746 479 731 454 731 C407 731 392 780 328 780 C260 780 212 724 190 662 L190 662 Z " />
<glyph glyph-name="endash" unicode="&#x2013;" horiz-adv-x="496" d="M102 271 L497 271 L520 386 L124 386 L102 271 Z " />
<glyph glyph-name="emdash" unicode="&#x2014;" horiz-adv-x="740" d="M102 271 L741 271 L764 386 L124 386 L102 271 Z " />
<glyph glyph-name="quoteleft" unicode="&#x2018;" horiz-adv-x="221" d="M197 431 C243 431 287 468 287 519 C287 554 267 578 239 585 L323 713 L244 713 L165 598 C139 559 125 534 125 500 C125 462 154 431 197 431 L197 431 Z " />
<glyph glyph-name="quoteright" unicode="&#x2019;" horiz-adv-x="222" d="M122 439 L201 439 L279 554 C306 593 319 618 319 652 C319 690 291 721 247 721 C201 721 157 684 157 633 C157 598 177 574 205 567 L122 439 Z " />
<glyph glyph-name="quotesinglbase" unicode="&#x201a;" horiz-adv-x="223" d="M8 -137 L87 -137 L165 -22 C192 17 205 42 205 76 C205 114 177 145 133 145 C87 145 43 109 43 58 C43 23 64 -1 92 -9 L8 -137 Z " />
<glyph glyph-name="quotedblleft" unicode="&#x201c;" horiz-adv-x="411" d="M387 431 C433 431 477 468 477 519 C477 554 457 578 429 585 L513 713 L434 713 L355 598 C329 559 315 534 315 500 C315 462 344 431 387 431 L387 431 Z M125 500 C125 462 154 431 197 431 C243 431 287 468 287 519 C287 554 267 578 239 585 L323 713 L244 713 L165 598 C139 559 125 534 125 500 L125 500 Z " />
<glyph glyph-name="quotedblright" unicode="&#x201d;" horiz-adv-x="412" d="M312 439 L391 439 L469 554 C496 593 509 618 509 652 C509 690 481 721 437 721 C391 721 347 684 347 633 C347 598 367 574 395 567 L312 439 Z M122 439 L201 439 L279 554 C306 593 319 618 319 652 C319 690 291 721 247 721 C201 721 157 684 157 633 C157 598 177 574 205 567 L122 439 Z " />
<glyph glyph-name="quotedblbase" unicode="&#x201e;" horiz-adv-x="413" d="M198 -137 L277 -137 L355 -22 C382 17 395 42 395 76 C395 114 367 145 323 145 C277 145 233 109 233 58 C233 23 254 -1 282 -9 L198 -137 Z M8 -137 L87 -137 L165 -22 C192 17 205 42 205 76 C205 114 177 145 133 145 C87 145 43 109 43 58 C43 23 64 -1 92 -9 L8 -137 Z " />
<glyph glyph-name="dagger" unicode="&#x2020;" horiz-adv-x="370" d="M184 280 L289 280 L337 521 L432 521 L451 618 L356 618 L378 731 L273 731 L251 618 L155 618 L136 521 L232 521 L184 280 Z " />
<glyph glyph-name="daggerdbl" unicode="&#x2021;" horiz-adv-x="393" d="M196 280 L301 280 L317 360 L412 360 L432 458 L336 458 L354 553 L450 553 L470 651 L373 651 L389 731 L284 731 L268 651 L173 651 L154 553 L249 553 L231 458 L135 458 L117 360 L212 360 L196 280 Z " />
<glyph glyph-name="bullet" unicode="&#x2022;" horiz-adv-x="382" d="M240 206 C326 206 391 279 391 357 C391 426 342 474 272 474 C185 474 121 401 121 323 C121 253 169 206 240 206 L240 206 Z " />
<glyph glyph-name="ellipsis" unicode="&#x2026;" horiz-adv-x="636" d="M526 -10 C579 -10 618 34 618 82 C618 121 591 152 546 152 C494 152 455 108 455 60 C455 19 484 -10 526 -10 L526 -10 Z M43 60 C43 19 72 -10 115 -10 C167 -10 206 34 206 82 C206 121 179 152 134 152 C82 152 43 108 43 60 L43 60 Z M249 60 C249 19 278 -10 321 -10 C373 -10 412 34 412 82 C412 121 385 152 340 152 C288 152 249 108 249 60 L249 60 Z " />
<glyph glyph-name="perthousand" unicode="&#x2030;" horiz-adv-x="1078" d="M119 0 L227 1 L750 696 L641 695 L119 0 Z M126 522 C126 440 186 380 268 380 C371 380 447 472 447 565 C447 645 386 703 305 703 C205 703 126 617 126 522 L126 522 Z M219 530 C219 573 252 615 296 615 C330 615 353 589 353 553 C353 512 322 468 277 468 C243 468 219 494 219 530 L219 530 Z M425 134 C425 52 484 -8 567 -8 C670 -8 745 84 745 177 C745 257 685 315 604 315 C504 315 425 229 425 134 L425 134 Z M518 142 C518 185 551 227 595 227 C629 227 652 201 652 165 C652 124 621 80 575 80 C541 80 518 106 518 142 L518 142 Z M766 134 C766 52 825 -8 908 -8 C1011 -8 1086 84 1086 177 C1086 257 1026 315 945 315 C845 315 766 229 766 134 L766 134 Z M859 142 C859 185 891 227 936 227 C970 227 993 201 993 165 C993 124 962 80 916 80 C882 80 859 106 859 142 L859 142 Z " />
<glyph glyph-name="guilsinglleft" unicode="&#x2039;" horiz-adv-x="311" d="M151 74 L271 74 L196 235 L349 415 L217 415 L72 244 L151 74 Z " />
<glyph glyph-name="guilsinglright" unicode="&#x203a;" horiz-adv-x="311" d="M53 74 L186 74 L332 244 L253 415 L132 415 L208 252 L53 74 Z " />
<glyph glyph-name="fraction" unicode="&#x2044;" horiz-adv-x="406" d="M-16 0 L86 0 L559 695 L456 695 L-16 0 Z " />
<glyph glyph-name="uni2074" unicode="&#x2074;" horiz-adv-x="325" d="M238 347 L327 347 L340 415 L373 415 L385 478 L353 478 L395 695 L307 695 L115 481 L102 415 L251 415 L238 347 Z M185 478 L288 593 L266 478 L185 478 Z " />
<glyph glyph-name="colonmonetary" unicode="&#x20a1;" horiz-adv-x="628" d="M622 104 L529 197 C494 151 445 121 389 121 C297 121 238 199 238 312 C238 455 319 574 437 574 C506 574 557 538 585 495 L689 599 C675 619 656 637 634 653 L688 794 L561 794 L525 699 C512 702 499 704 486 706 L520 794 L393 794 L355 695 C199 650 92 489 92 301 C92 231 108 170 136 120 L51 -99 L179 -99 L227 26 C238 19 249 13 261 8 L220 -99 L348 -99 L381 -13 C481 -10 564 31 622 104 L622 104 Z " />
<glyph glyph-name="franc" unicode="&#x20a3;" horiz-adv-x="628" d="M123 0 L265 0 L282 89 L481 89 L505 212 L306 212 L322 294 L579 294 L604 416 L345 416 L375 572 L671 572 L695 695 L258 695 L164 212 L89 212 L66 89 L140 89 L123 0 Z " />
<glyph glyph-name="lira" unicode="&#x20a4;" horiz-adv-x="628" d="M121 0 L544 0 L570 129 L296 129 L311 208 L475 208 L493 301 L329 301 L338 348 L502 348 L521 441 L356 441 L363 477 C375 539 419 579 479 579 C530 579 558 551 573 525 L680 632 C647 673 582 708 492 708 C342 708 243 625 215 478 L208 441 L135 441 L117 348 L189 348 L180 301 L108 301 L89 208 L162 208 L121 0 Z " />
<glyph glyph-name="peseta" unicode="&#x20a7;" horiz-adv-x="628" d="M84 0 L225 0 L276 261 L380 261 C502 261 597 319 637 409 L700 409 L725 538 L654 538 C639 635 563 695 446 695 L219 695 L189 538 L115 538 L90 409 L163 409 L84 0 Z M300 385 L337 572 L418 572 C477 572 509 540 509 487 C509 428 463 385 392 385 L300 385 Z " />
<glyph glyph-name="Euro" unicode="&#x20ac;" horiz-adv-x="628" d="M409 -13 C504 -13 586 21 644 98 L554 190 C521 147 476 121 426 121 C354 121 305 163 284 232 L404 232 L428 325 L273 325 C274 341 275 357 277 372 L435 372 L463 466 L309 466 C344 532 403 574 475 574 C536 574 589 541 616 495 L717 599 C673 666 578 708 477 708 C331 708 210 609 157 466 L102 466 L77 372 L133 372 C131 357 129 341 128 325 L70 325 L46 232 L134 232 C158 83 260 -13 409 -13 L409 -13 Z " />
<glyph glyph-name="uni20B1" unicode="&#x20b1;" horiz-adv-x="628" d="M84 0 L225 0 L276 261 L380 261 C459 261 527 285 575 327 L685 327 L710 456 L651 456 C654 469 655 482 656 496 L718 496 L743 625 L617 625 C581 670 522 695 446 695 L219 695 L205 625 L132 625 L107 496 L180 496 L173 456 L99 456 L74 327 L148 327 L84 0 Z M300 385 L337 572 L418 572 C477 572 509 540 509 487 C509 428 463 385 392 385 L300 385 Z " />
<glyph glyph-name="uni20B5" unicode="&#x20b5;" horiz-adv-x="628" d="M622 104 L529 197 C494 151 445 121 389 121 C297 121 238 199 238 312 C238 455 320 574 437 574 C506 574 557 538 585 495 L689 599 C656 647 597 684 523 700 L542 794 L427 794 L410 706 C226 686 92 510 92 301 C92 148 168 35 286 -1 L267 -99 L381 -99 L398 -12 C491 -5 568 35 622 104 L622 104 Z " />
<glyph glyph-name="uni20B9" unicode="&#x20b9;" horiz-adv-x="615" d="M89 265 L306 0 L511 0 L283 265 L340 265 C448 265 535 311 580 383 L653 383 L678 512 L615 512 C614 531 612 549 607 566 L688 566 L713 695 L173 695 L147 566 L377 566 C437 566 468 536 468 488 C468 432 423 389 351 389 L112 389 L89 265 Z " />
<glyph glyph-name="uni20BD" unicode="&#x20bd;" horiz-adv-x="628" d="M113 0 L254 0 L272 94 L479 94 L503 215 L296 215 L305 261 L409 261 C570 261 685 363 685 504 C685 621 605 695 475 695 L248 695 L188 385 L113 385 L89 261 L164 261 L155 215 L80 215 L57 94 L131 94 L113 0 Z M329 385 L365 572 L447 572 C506 572 538 540 538 487 C538 428 492 385 421 385 L329 385 Z " />
<glyph glyph-name="trademark" unicode="&#x2122;" horiz-adv-x="633" d="M478 430 L540 430 L613 566 L595 422 L664 422 L696 679 L610 679 L527 521 L508 679 L423 679 L350 422 L419 422 L461 570 L478 430 Z M143 613 L220 613 L183 422 L256 422 L293 613 L370 613 L383 679 L156 679 L143 613 Z " />
<glyph glyph-name="minus" unicode="&#x2212;" horiz-adv-x="466" d="M78 267 L490 267 L513 386 L102 386 L78 267 Z " />
<glyph glyph-name="infinity" unicode="&#x221e;" horiz-adv-x="2952" d="M151 -175 L286 -175 L286 62 C323 14 379 -17 457 -17 C598 -17 715 105 715 263 C715 419 598 540 457 540 C379 540 323 512 286 464 L286 527 L151 527 L151 -175 Z M286 263 C286 352 349 412 431 412 C515 412 577 352 577 263 C577 175 515 115 431 115 C349 115 286 175 286 263 L286 263 Z M745 263 C745 105 861 -17 999 -17 C1075 -17 1133 15 1171 62 L1171 -1 L1222 -1 L1306 81 L1306 527 L1171 527 L1171 464 C1133 512 1075 540 999 540 C861 540 745 419 745 263 L745 263 Z M880 263 C880 352 942 412 1024 412 C1109 412 1171 352 1171 263 C1171 175 1109 115 1024 115 C942 115 880 175 880 263 L880 263 Z M1293 -1 L2007 -1 C1965 30 1932 75 1913 127 L1611 127 L2001 527 L1385 527 L1385 396 L1687 396 L1293 -1 Z M1943 263 C1943 105 2056 -17 2230 -17 C2332 -17 2411 26 2460 97 L2351 162 C2327 130 2286 108 2233 108 C2163 108 2105 138 2086 206 L2480 206 C2484 224 2485 243 2485 263 C2485 419 2377 540 2221 540 C2057 540 1943 419 1943 263 L1943 263 Z M2084 311 C2099 381 2149 419 2221 419 C2277 419 2334 388 2351 311 L2084 311 Z M2525 384 C2525 286 2599 211 2699 211 C2797 211 2872 286 2872 384 C2872 484 2797 558 2699 558 C2599 558 2525 484 2525 384 L2525 384 Z M2562 384 C2562 465 2618 523 2699 523 C2779 523 2836 465 2836 384 C2836 304 2779 245 2699 245 C2618 245 2562 304 2562 384 L2562 384 Z M2632 286 L2666 286 L2666 369 L2693 369 L2747 286 L2785 286 L2727 370 C2751 372 2780 389 2780 429 C2780 469 2745 485 2709 485 L2632 485 L2632 286 Z M2666 397 L2666 457 L2703 457 C2725 457 2745 451 2745 429 C2745 401 2725 397 2703 397 L2666 397 Z " />
<glyph glyph-name="approxequal" unicode="&#x2248;" horiz-adv-x="524" d="M430 338 C487 338 529 364 564 409 L509 491 C486 464 460 452 432 452 C366 452 342 504 255 504 C198 504 156 478 121 434 L177 351 C200 379 226 390 253 390 C320 390 343 338 430 338 L430 338 Z M77 208 L133 125 C155 153 181 164 208 164 C275 164 299 112 386 112 C442 112 485 138 520 183 L464 265 C442 238 415 226 388 226 C321 226 297 279 211 279 C154 279 112 252 77 208 L77 208 Z " />
<glyph glyph-name="notequal" unicode="&#x2260;" horiz-adv-x="467" d="M98 44 L230 44 L273 133 L464 133 L487 252 L330 252 L384 365 L509 365 L533 484 L442 484 L484 572 L352 572 L310 484 L121 484 L98 365 L252 365 L198 252 L76 252 L52 133 L141 133 L98 44 Z " />
<glyph glyph-name="lozenge" unicode="&#x25ca;" horiz-adv-x="630" d="M474 430 L536 430 L610 567 L592 422 L661 422 L692 679 L607 679 L523 521 L505 679 L419 679 L346 422 L415 422 L457 572 L474 430 Z M112 455 C131 432 168 416 220 416 C284 416 333 450 333 502 C333 589 224 571 224 609 C224 622 238 630 258 630 C281 630 300 621 312 608 L356 651 C338 670 305 685 262 685 C198 685 155 652 155 605 C155 513 265 534 265 497 C265 481 252 471 230 471 C200 471 176 483 159 503 L112 455 Z " />
<glyph glyph-name="uniF8FF" unicode="&#xf8ff;" horiz-adv-x="2592" d="M1171 263 C1171 352 1109 412 1024 412 C942 412 880 352 880 263 C880 175 942 115 1024 115 C1109 115 1171 175 1171 263 L1171 263 Z M151 -175 L286 -175 L286 62 C323 14 379 -17 457 -17 C598 -17 715 105 715 263 C715 419 598 540 457 540 C379 540 323 512 286 464 L286 527 L151 527 L151 -175 Z M286 263 C286 352 349 412 431 412 C515 412 577 352 577 263 C577 175 515 115 431 115 C349 115 286 175 286 263 L286 263 Z M745 263 C745 419 861 540 999 540 C1075 540 1133 512 1171 464 L1171 527 L1306 527 L1306 81 L1222 -1 L1171 -1 L1171 62 C1133 15 1075 -17 999 -17 C861 -17 745 105 745 263 L745 263 Z M1293 -1 L1687 396 L1385 396 L1385 527 L2001 527 L1611 127 L1913 127 C1932 75 1965 30 2007 -1 L1293 -1 Z M1943 263 C1943 105 2056 -17 2230 -17 C2332 -17 2411 26 2460 97 L2351 162 C2327 130 2286 108 2233 108 C2163 108 2105 138 2086 206 L2480 206 C2484 224 2485 243 2485 263 C2485 419 2377 540 2221 540 C2057 540 1943 419 1943 263 L1943 263 Z M2084 311 C2099 381 2149 419 2221 419 C2277 419 2334 388 2351 311 L2084 311 Z " />
</font>
</svg>
