<?xml version="1.0" encoding="UTF-8"?>
<svg xmlns="http://www.w3.org/2000/svg" xmlns:xlink="http://www.w3.org/1999/xlink" version="1.2" >
<font id="Paze Sans Black">
<font-face  font-family="Paze Sans" units-per-em="1000" ascent="1040" descent="-345" font-style="normal" font-weight="900" font-stretch="normal" cap-height="695" x-height="527" underline-position="-100" underline-thickness="50" />
<missing-glyph  horiz-adv-x="630" d="M100 0 L530 0 L530 730 L100 730 L100 0 Z M140 73 L140 657 L293 365 L140 73 Z M165 35 L315 322 L465 35 L165 35 Z M165 695 L465 695 L315 408 L165 695 Z M338 365 L490 657 L490 73 L338 365 Z " />
<glyph glyph-name="NULL" d="" />
<glyph glyph-name="CR" unicode="&#xd;" horiz-adv-x="250" d="" />
<glyph glyph-name="space" unicode="&#x20;" horiz-adv-x="180" d="" />
<glyph glyph-name="exclam" unicode="&#x21;" horiz-adv-x="286" d="M70 260 L214 260 L247 731 L40 731 L70 260 Z M47 85 C47 32 89 -10 144 -10 C199 -10 241 32 241 85 C241 142 199 184 144 184 C89 184 47 142 47 85 L47 85 Z " />
<glyph glyph-name="quotedbl" unicode="&#x22;" horiz-adv-x="426" d="M249 425 L377 425 L390 715 L236 715 L249 425 Z M36 715 L49 425 L179 425 L194 715 L36 715 Z " />
<glyph glyph-name="numbersign" unicode="&#x23;" horiz-adv-x="708" d="M300 -31 L449 -31 L499 152 L614 152 L614 289 L536 289 L573 427 L683 427 L683 564 L610 564 L654 725 L506 725 L462 564 L363 564 L407 725 L261 725 L217 564 L96 564 L96 427 L180 427 L142 289 L27 289 L27 152 L105 152 L55 -31 L202 -31 L252 152 L350 152 L300 -31 Z M289 289 L326 427 L425 427 L387 289 L289 289 Z " />
<glyph glyph-name="dollar" unicode="&#x24;" horiz-adv-x="641" d="M265 -100 L411 -100 L411 -4 C529 22 598 98 598 198 C598 464 252 398 252 504 C252 534 281 554 333 554 C381 554 427 531 459 485 L584 611 C546 657 485 690 411 702 L411 795 L266 795 L266 701 C140 678 70 599 70 493 C70 242 413 309 413 195 C413 162 382 143 331 143 C264 143 206 184 167 234 L41 108 C85 54 165 4 265 -9 L265 -100 Z " />
<glyph glyph-name="percent" unicode="&#x25;" horiz-adv-x="789" d="M131 0 L268 1 L662 696 L522 695 L131 0 Z M21 540 C21 450 91 377 185 377 C280 377 349 450 349 540 C349 631 280 704 185 704 C91 704 21 631 21 540 L21 540 Z M136 541 C136 570 156 593 185 593 C214 593 233 570 233 541 C233 511 214 488 185 488 C157 488 136 511 136 541 L136 541 Z M440 154 C440 64 510 -9 604 -9 C699 -9 768 64 768 154 C768 245 699 318 604 318 C510 318 440 245 440 154 L440 154 Z M556 155 C556 184 575 207 604 207 C634 207 653 184 653 155 C653 125 633 102 604 102 C576 102 556 125 556 155 L556 155 Z " />
<glyph glyph-name="ampersand" unicode="&#x26;" horiz-adv-x="718" d="M33 189 C33 91 116 -13 269 -13 C365 -13 426 18 472 58 L525 0 L722 0 L584 152 C619 182 655 224 676 259 L562 373 C534 329 514 301 479 267 L410 342 C503 386 561 451 561 535 C561 644 456 708 342 708 C204 708 113 625 113 528 C113 469 129 434 171 384 C95 346 33 294 33 189 L33 189 Z M216 209 C216 240 237 261 269 277 L360 178 C336 157 310 146 281 146 C241 146 216 176 216 209 L216 209 Z M277 512 C277 545 301 569 340 569 C373 569 402 549 402 515 C402 478 360 455 321 439 C299 463 277 487 277 512 L277 512 Z " />
<glyph glyph-name="quotesingle" unicode="&#x27;" horiz-adv-x="229" d="M49 425 L179 425 L194 715 L36 715 L49 425 Z " />
<glyph glyph-name="parenleft" unicode="&#x28;" horiz-adv-x="360" d="M200 344 C200 484 241 593 361 706 L244 824 C99 705 28 541 28 344 C28 146 99 -17 244 -136 L361 -19 C241 94 200 204 200 344 L200 344 Z " />
<glyph glyph-name="parenright" unicode="&#x29;" horiz-adv-x="360" d="M160 342 C160 202 119 93 -1 -20 L116 -138 C261 -19 332 145 332 342 C332 540 261 703 116 822 L-1 705 C119 592 160 482 160 342 L160 342 Z " />
<glyph glyph-name="asterisk" unicode="&#x2a;" horiz-adv-x="424" d="M151 363 L273 363 L263 452 L334 397 L397 509 L312 547 L397 584 L334 695 L264 641 L274 731 L150 731 L160 641 L89 695 L27 584 L111 547 L27 509 L89 397 L160 452 L151 363 Z " />
<glyph glyph-name="plus" unicode="&#x2b;" horiz-adv-x="499" d="M170 103 L329 103 L329 260 L472 260 L472 412 L329 412 L329 576 L170 576 L170 412 L27 412 L27 260 L170 260 L170 103 Z " />
<glyph glyph-name="comma" unicode="&#x2c;" horiz-adv-x="245" d="M29 -133 L127 -133 L190 -8 C209 29 218 58 218 86 C218 144 174 185 122 185 C69 185 25 144 25 89 C25 38 55 8 96 -1 L29 -133 Z " />
<glyph glyph-name="hyphen" unicode="&#x2d;" horiz-adv-x="393" d="M47 262 L347 262 L347 408 L47 408 L47 262 Z " />
<glyph glyph-name="period" unicode="&#x2e;" horiz-adv-x="245" d="M122 -10 C177 -10 219 32 219 85 C219 142 177 184 122 184 C68 184 26 142 26 85 C26 32 68 -10 122 -10 L122 -10 Z " />
<glyph glyph-name="slash" unicode="&#x2f;" horiz-adv-x="393" d="M22 -50 L179 -50 L369 711 L213 711 L22 -50 Z " />
<glyph glyph-name="zero" unicode="0" horiz-adv-x="641" d="M321 -13 C495 -13 612 125 612 349 C612 579 497 708 321 708 C144 708 29 579 29 349 C29 125 144 -13 321 -13 L321 -13 Z M214 348 C214 472 257 536 321 536 C384 536 427 472 427 348 C427 223 384 158 321 158 C257 158 214 223 214 348 L214 348 Z " />
<glyph glyph-name="one" unicode="1" horiz-adv-x="641" d="M81 0 L572 0 L572 150 L419 150 L419 695 L238 695 L238 655 C238 615 219 594 181 594 L83 594 L83 444 L238 444 L238 150 L81 150 L81 0 Z " />
<glyph glyph-name="two" unicode="2" horiz-adv-x="641" d="M49 0 L581 0 L581 150 L317 150 L427 250 C524 336 566 401 566 494 C566 623 460 708 306 708 C177 708 94 646 44 581 L154 471 C204 530 242 554 298 554 C355 554 381 521 381 479 C381 427 346 388 285 334 L49 120 L49 0 Z " />
<glyph glyph-name="three" unicode="3" horiz-adv-x="641" d="M308 -13 C471 -13 589 82 589 210 C589 322 511 405 398 419 L544 554 L544 695 L71 695 L71 554 L337 554 L181 421 L181 304 L311 304 C362 304 400 272 400 223 C400 175 369 141 307 141 C246 141 203 171 161 221 L40 101 C92 33 186 -13 308 -13 L308 -13 Z " />
<glyph glyph-name="four" unicode="4" horiz-adv-x="641" d="M27 135 L350 135 L350 0 L531 0 L531 135 L600 135 L600 276 L531 276 L531 694 L352 694 L27 268 L27 135 Z M211 276 L352 462 L352 276 L211 276 Z " />
<glyph glyph-name="five" unicode="5" horiz-adv-x="641" d="M292 -13 C477 -13 582 87 582 226 C582 369 502 455 335 455 L242 455 L248 545 L527 545 L527 695 L104 695 L83 314 L302 314 C362 314 397 277 397 228 C397 179 366 140 299 140 C247 140 198 172 163 222 L45 103 C106 27 196 -13 292 -13 L292 -13 Z " />
<glyph glyph-name="six" unicode="6" horiz-adv-x="641" d="M325 -13 C480 -13 600 83 600 235 C600 373 502 457 362 469 L529 695 L320 695 L115 415 C87 377 48 316 48 233 C48 83 169 -13 325 -13 L325 -13 Z M233 233 C233 287 273 325 325 325 C376 325 415 288 415 233 C415 181 376 141 325 141 C273 141 233 181 233 233 L233 233 Z " />
<glyph glyph-name="seven" unicode="7" horiz-adv-x="641" d="M127 0 L329 0 L579 558 L579 694 L55 694 L55 544 L389 544 L127 0 Z " />
<glyph glyph-name="eight" unicode="8" horiz-adv-x="641" d="M320 -13 C477 -13 591 67 591 191 C591 269 540 335 461 364 C521 391 562 443 562 519 C562 626 479 708 320 708 C161 708 78 626 78 519 C78 444 119 392 174 365 C97 336 50 270 50 191 C50 67 164 -13 320 -13 L320 -13 Z M231 214 C231 259 266 293 320 293 C374 293 410 259 410 214 C410 166 375 132 320 132 C266 132 231 166 231 214 L231 214 Z M250 495 C250 537 279 562 320 562 C362 562 390 537 390 495 C390 454 362 427 320 427 C279 427 250 454 250 495 L250 495 Z " />
<glyph glyph-name="nine" unicode="9" horiz-adv-x="641" d="M111 0 L321 0 L526 280 C554 318 593 379 593 462 C593 612 472 708 316 708 C161 708 41 612 41 460 C41 322 139 238 279 226 L111 0 Z M226 462 C226 514 265 554 316 554 C368 554 408 514 408 462 C408 408 368 370 316 370 C265 370 226 407 226 462 L226 462 Z " />
<glyph glyph-name="colon" unicode="&#x3a;" horiz-adv-x="269" d="M134 278 C190 278 231 320 231 374 C231 431 190 472 134 472 C80 472 38 431 38 374 C38 320 80 278 134 278 L134 278 Z M38 85 C38 32 80 -10 134 -10 C190 -10 231 32 231 85 C231 142 190 184 134 184 C80 184 38 142 38 85 L38 85 Z " />
<glyph glyph-name="semicolon" unicode="&#x3b;" horiz-adv-x="270" d="M42 -133 L140 -133 L203 -8 C222 29 231 58 231 86 C231 144 187 185 135 185 C82 185 39 144 39 89 C39 38 68 8 109 -1 L42 -133 Z M38 376 C38 321 80 279 134 279 C190 279 231 321 231 376 C231 432 190 473 134 473 C80 473 38 432 38 376 L38 376 Z " />
<glyph glyph-name="less" unicode="&#x3c;" horiz-adv-x="445" d="M397 81 L397 243 L215 324 L397 404 L397 566 L22 377 L22 272 L397 81 Z " />
<glyph glyph-name="equal" unicode="&#x3d;" horiz-adv-x="526" d="M51 357 L475 357 L475 509 L51 509 L51 357 Z M51 126 L475 126 L475 278 L51 278 L51 126 Z " />
<glyph glyph-name="greater" unicode="&#x3e;" horiz-adv-x="445" d="M49 81 L423 272 L423 377 L49 566 L49 404 L231 324 L49 243 L49 81 Z " />
<glyph glyph-name="question" unicode="&#x3f;" horiz-adv-x="505" d="M150 294 L150 260 L304 260 L304 281 C304 371 477 387 477 548 C477 669 390 741 253 741 C142 741 66 689 23 627 L136 514 C167 550 197 567 232 567 C267 567 289 550 289 523 C289 454 150 427 150 294 L150 294 Z M131 85 C131 32 173 -10 227 -10 C282 -10 324 32 324 87 C324 142 283 184 227 184 C173 184 131 142 131 85 L131 85 Z " />
<glyph glyph-name="at" unicode="&#x40;" horiz-adv-x="943" d="M455 -135 C561 -135 646 -110 708 -53 L605 50 C575 24 524 7 455 7 C269 7 162 132 162 306 C162 466 276 612 469 612 C673 612 774 497 774 337 C774 265 754 228 720 228 C694 228 679 245 679 276 L679 496 L567 496 L567 454 C536 491 493 513 438 513 C306 513 238 418 238 298 C238 182 323 84 447 84 C513 84 559 110 586 152 C611 111 656 85 720 85 C852 85 923 202 923 337 C923 581 749 754 469 754 C191 754 13 549 13 306 C13 50 186 -135 455 -135 L455 -135 Z M379 300 C379 349 413 384 460 384 C506 384 540 349 540 300 C540 249 506 213 460 213 C412 213 379 250 379 300 L379 300 Z " />
<glyph glyph-name="A" unicode="A" horiz-adv-x="668" d="M-1 0 L178 0 L216 122 L453 122 L491 0 L669 0 L445 695 L223 695 L-1 0 Z M262 270 L334 503 L407 270 L262 270 Z " />
<glyph glyph-name="B" unicode="B" horiz-adv-x="635" d="M55 0 L376 0 C525 0 608 82 608 199 C608 275 567 338 495 371 C550 405 584 462 584 526 C584 631 506 695 390 695 L55 695 L55 0 Z M235 146 L235 282 L348 282 C395 282 426 258 426 214 C426 170 398 146 349 146 L235 146 Z M235 427 L235 549 L333 549 C379 549 402 526 402 489 C402 451 376 427 332 427 L235 427 Z " />
<glyph glyph-name="C" unicode="C" horiz-adv-x="696" d="M394 -13 C529 -13 624 51 676 117 L549 244 C517 199 468 158 395 158 C290 158 214 234 214 347 C214 461 290 537 395 537 C467 537 517 496 549 451 L675 578 C623 644 528 708 393 708 C183 708 29 557 29 347 C29 138 183 -13 394 -13 L394 -13 Z " />
<glyph glyph-name="D" unicode="D" horiz-adv-x="727" d="M55 0 L335 0 C550 0 697 135 697 348 C697 561 550 695 335 695 L55 695 L55 0 Z M237 161 L237 534 L329 534 C440 534 512 470 512 345 C512 225 440 161 329 161 L237 161 Z " />
<glyph glyph-name="E" unicode="E" horiz-adv-x="578" d="M55 0 L543 0 L543 158 L237 158 L237 272 L500 272 L500 430 L237 430 L237 537 L538 537 L538 695 L55 695 L55 0 Z " />
<glyph glyph-name="F" unicode="F" horiz-adv-x="556" d="M55 0 L237 0 L237 263 L494 263 L494 421 L237 421 L237 537 L533 537 L533 695 L55 695 L55 0 Z " />
<glyph glyph-name="G" unicode="G" horiz-adv-x="777" d="M396 -13 C597 -13 754 122 754 380 L391 380 L391 243 L566 243 C537 184 479 150 404 150 C289 150 214 224 214 344 C214 461 285 537 392 537 C458 537 515 507 543 466 L674 597 C628 646 535 708 396 708 C186 708 29 555 29 347 C29 139 184 -13 396 -13 L396 -13 Z " />
<glyph glyph-name="H" unicode="H" horiz-adv-x="693" d="M456 0 L638 0 L638 695 L456 695 L456 432 L237 432 L237 695 L55 695 L55 0 L237 0 L237 270 L456 270 L456 0 Z " />
<glyph glyph-name="I" unicode="I" horiz-adv-x="292" d="M55 0 L237 0 L237 695 L55 695 L55 0 Z " />
<glyph glyph-name="J" unicode="J" horiz-adv-x="356" d="M23 0 L75 0 C230 0 307 90 307 226 L307 695 L124 695 L124 229 C124 187 104 162 60 162 L23 162 L23 0 Z " />
<glyph glyph-name="K" unicode="K" horiz-adv-x="663" d="M462 0 L669 0 L413 353 L670 695 L462 695 L237 395 L237 695 L55 695 L55 0 L237 0 L237 312 L462 0 Z " />
<glyph glyph-name="L" unicode="L" horiz-adv-x="551" d="M55 0 L538 0 L538 162 L237 162 L237 695 L55 695 L55 0 Z " />
<glyph glyph-name="M" unicode="M" horiz-adv-x="868" d="M359 21 L510 21 L633 423 L665 0 L834 0 L780 695 L569 695 L434 254 L300 695 L87 695 L35 0 L203 0 L236 423 L359 21 Z " />
<glyph glyph-name="N" unicode="N" horiz-adv-x="694" d="M489 0 L639 0 L639 695 L458 695 L458 311 L206 695 L55 695 L55 0 L236 0 L236 381 L489 0 Z " />
<glyph glyph-name="O" unicode="O" horiz-adv-x="794" d="M397 -13 C603 -13 766 145 766 347 C766 551 603 708 397 708 C191 708 28 551 28 347 C28 145 191 -13 397 -13 L397 -13 Z M213 348 C213 457 283 537 397 537 C511 537 581 457 581 348 C581 237 509 158 397 158 C286 158 213 237 213 348 L213 348 Z " />
<glyph glyph-name="P" unicode="P" horiz-adv-x="620" d="M55 0 L237 0 L237 240 L353 240 C505 240 604 330 604 467 C604 606 507 695 353 695 L55 695 L55 0 Z M237 399 L237 536 L342 536 C395 536 419 507 419 467 C419 428 395 399 342 399 L237 399 Z " />
<glyph glyph-name="Q" unicode="Q" horiz-adv-x="794" d="M626 -181 L754 -53 L627 64 C712 129 766 231 766 347 C766 551 603 708 397 708 C191 708 28 551 28 347 C28 145 191 -13 397 -13 C413 -13 429 -12 444 -10 L626 -181 Z M213 348 C213 457 283 537 397 537 C511 537 581 457 581 348 C581 237 509 158 397 158 C286 158 213 237 213 348 L213 348 Z " />
<glyph glyph-name="R" unicode="R" horiz-adv-x="638" d="M55 0 L235 0 L235 271 L245 271 L419 0 L620 0 L433 280 C539 306 604 384 604 483 C604 606 507 695 353 695 L55 695 L55 0 Z M235 399 L235 536 L348 536 C397 536 426 510 426 467 C426 425 397 399 348 399 L235 399 Z " />
<glyph glyph-name="S" unicode="S" horiz-adv-x="605" d="M295 -13 C469 -13 576 74 576 198 C576 464 230 397 230 502 C230 534 261 554 312 554 C370 554 414 528 447 494 L563 610 C518 660 436 708 324 708 C150 708 49 619 49 492 C49 240 392 310 392 195 C392 162 359 143 308 143 C238 143 182 176 140 224 L17 101 C69 37 165 -13 295 -13 L295 -13 Z " />
<glyph glyph-name="T" unicode="T" horiz-adv-x="603" d="M211 0 L393 0 L393 533 L591 533 L591 695 L12 695 L12 533 L211 533 L211 0 Z " />
<glyph glyph-name="U" unicode="U" horiz-adv-x="677" d="M339 -13 C533 -13 629 118 629 276 L629 695 L447 695 L447 276 C447 205 412 158 339 158 C267 158 231 205 231 276 L231 695 L48 695 L48 276 C48 118 145 -13 339 -13 L339 -13 Z " />
<glyph glyph-name="V" unicode="V" horiz-adv-x="678" d="M227 0 L452 0 L681 695 L492 695 L339 215 L186 695 L-3 695 L227 0 Z " />
<glyph glyph-name="W" unicode="W" horiz-adv-x="936" d="M158 0 L372 0 L469 439 L564 0 L779 0 L935 695 L755 695 L669 213 L567 695 L370 695 L269 215 L181 695 L2 695 L158 0 Z " />
<glyph glyph-name="X" unicode="X" horiz-adv-x="690" d="M489 0 L698 0 L455 351 L687 695 L479 695 L353 498 L217 695 L8 695 L239 361 L-10 0 L198 0 L339 217 L489 0 Z " />
<glyph glyph-name="Y" unicode="Y" horiz-adv-x="669" d="M244 0 L426 0 L426 284 L677 695 L473 695 L335 444 L196 695 L-7 695 L244 283 L244 0 Z " />
<glyph glyph-name="Z" unicode="Z" horiz-adv-x="600" d="M30 0 L571 0 L571 163 L300 163 L567 695 L36 695 L36 536 L297 536 L30 0 Z " />
<glyph glyph-name="bracketleft" unicode="&#x5b;" horiz-adv-x="342" d="M54 -133 L313 -133 L313 15 L223 15 L223 671 L313 671 L313 820 L54 820 L54 -133 Z " />
<glyph glyph-name="backslash" unicode="&#x5c;" horiz-adv-x="395" d="M218 -50 L375 -50 L178 711 L22 711 L218 -50 Z " />
<glyph glyph-name="bracketright" unicode="&#x5d;" horiz-adv-x="342" d="M29 -133 L288 -133 L288 820 L29 820 L29 671 L118 671 L118 15 L29 15 L29 -133 Z " />
<glyph glyph-name="asciicircum" unicode="&#x5e;" horiz-adv-x="569" d="M22 347 L198 347 L285 497 L371 347 L547 347 L335 688 L229 688 L22 347 Z " />
<glyph glyph-name="underscore" unicode="&#x5f;" horiz-adv-x="595" d="M27 -166 L569 -166 L569 -20 L27 -20 L27 -166 Z " />
<glyph glyph-name="grave" unicode="&#x60;" horiz-adv-x="355" d="M293 560 L366 676 L111 843 L30 710 L293 560 Z " />
<glyph glyph-name="a" unicode="a" horiz-adv-x="642" d="M287 -13 C348 -13 396 7 431 41 L431 0 L598 0 L598 527 L431 527 L431 485 C396 520 348 540 287 540 C143 540 24 427 24 268 C24 109 134 -13 287 -13 L287 -13 Z M204 264 C204 332 250 380 314 380 C379 380 424 332 424 264 C424 194 379 146 314 146 C250 146 204 194 204 264 L204 264 Z " />
<glyph glyph-name="b" unicode="b" horiz-adv-x="642" d="M355 -13 C508 -13 618 105 618 263 C618 421 512 540 359 540 C306 540 261 525 225 498 L225 731 L44 731 L44 0 L211 0 L211 38 C248 5 296 -13 355 -13 L355 -13 Z M217 263 C217 332 261 380 328 380 C392 380 438 331 438 263 C438 195 392 146 328 146 C262 146 217 194 217 263 L217 263 Z " />
<glyph glyph-name="c" unicode="c" horiz-adv-x="539" d="M308 -13 C421 -13 492 36 531 78 L416 193 C398 171 366 148 320 148 C255 148 205 191 205 263 C205 336 255 378 320 378 C366 378 398 355 416 333 L531 448 C492 490 421 540 307 540 C142 540 23 417 23 263 C23 109 142 -13 308 -13 L308 -13 Z " />
<glyph glyph-name="d" unicode="d" horiz-adv-x="642" d="M287 -13 C346 -13 394 5 431 38 L431 0 L598 0 L598 731 L417 731 L417 498 C381 525 336 540 283 540 C129 540 24 421 24 263 C24 105 134 -13 287 -13 L287 -13 Z M204 263 C204 331 250 380 314 380 C380 380 425 332 425 263 C425 194 380 146 314 146 C250 146 204 195 204 263 L204 263 Z " />
<glyph glyph-name="e" unicode="e" horiz-adv-x="595" d="M309 -14 C430 -14 499 30 546 75 L440 181 C410 150 376 131 316 131 C257 131 215 158 198 211 L570 211 C572 225 574 246 574 274 C574 402 472 540 298 540 C145 540 22 415 22 263 C22 106 133 -14 309 -14 L309 -14 Z M195 319 C208 377 245 406 302 406 C358 406 394 373 407 319 L195 319 Z " />
<glyph glyph-name="f" unicode="f" horiz-adv-x="388" d="M19 373 L92 373 L92 0 L273 0 L273 373 L373 373 L373 527 L273 527 L273 535 C273 576 297 602 343 602 L374 602 L374 744 L335 744 C178 744 96 659 92 527 L19 527 L19 373 Z " />
<glyph glyph-name="g" unicode="g" horiz-adv-x="640" d="M286 26 C347 26 395 46 430 79 L430 68 C430 3 378 -42 290 -42 C238 -42 187 -24 157 10 L43 -105 C93 -162 174 -192 298 -192 C494 -192 597 -78 597 86 L597 527 L430 527 L430 487 C395 520 347 540 286 540 C133 540 23 421 23 281 C23 140 133 26 286 26 L286 26 Z M204 272 C204 332 249 380 311 380 C375 380 419 333 419 272 C419 210 374 163 310 163 C249 163 204 212 204 272 L204 272 Z " />
<glyph glyph-name="h" unicode="h" horiz-adv-x="604" d="M383 301 L383 0 L565 0 L565 336 C565 455 484 540 362 540 C307 540 260 524 225 498 L225 731 L44 731 L44 0 L225 0 L225 304 C226 348 262 378 305 378 C348 378 383 350 383 301 L383 301 Z " />
<glyph glyph-name="i" unicode="i" horiz-adv-x="269" d="M44 0 L225 0 L225 527 L44 527 L44 0 Z M24 702 C24 638 73 594 136 594 C198 594 247 638 247 702 C247 765 198 812 136 812 C73 812 24 765 24 702 L24 702 Z " />
<glyph glyph-name="j" unicode="j" horiz-adv-x="273" d="M-34 -186 L-1 -186 C129 -186 229 -100 229 51 L229 527 L47 527 L47 48 C47 -2 18 -31 -25 -31 L-35 -31 L-34 -186 Z M31 703 C31 639 80 595 143 595 C205 595 254 639 254 703 C254 766 205 813 143 813 C80 813 31 766 31 703 L31 703 Z " />
<glyph glyph-name="k" unicode="k" horiz-adv-x="561" d="M44 0 L225 0 L225 226 L377 0 L572 0 L385 285 L572 527 L371 527 L225 331 L225 731 L44 731 L44 0 Z " />
<glyph glyph-name="l" unicode="l" horiz-adv-x="269" d="M44 0 L225 0 L225 731 L44 731 L44 0 Z " />
<glyph glyph-name="m" unicode="m" horiz-adv-x="907" d="M687 294 L687 0 L868 0 L868 329 C868 442 802 540 670 540 C592 540 537 514 506 476 C477 517 429 540 356 540 C296 540 248 520 215 488 L215 527 L44 527 L44 0 L225 0 L225 304 C226 339 245 378 297 378 C345 378 366 337 366 294 L366 0 L547 0 L547 304 C547 338 566 378 619 378 C667 378 687 337 687 294 L687 294 Z " />
<glyph glyph-name="n" unicode="n" horiz-adv-x="604" d="M383 301 L383 0 L565 0 L565 336 C565 455 484 540 362 540 C301 540 251 520 215 490 L215 527 L44 527 L44 0 L225 0 L225 304 C226 348 262 378 305 378 C348 378 383 350 383 301 L383 301 Z " />
<glyph glyph-name="o" unicode="o" horiz-adv-x="627" d="M313 -13 C483 -13 604 106 604 263 C604 421 483 540 313 540 C143 540 23 421 23 263 C23 106 143 -13 313 -13 L313 -13 Z M205 263 C205 331 248 378 315 378 C380 378 422 331 422 264 C422 195 379 148 315 148 C248 148 205 196 205 263 L205 263 Z " />
<glyph glyph-name="p" unicode="p" horiz-adv-x="642" d="M355 -13 C508 -13 618 105 618 263 C618 421 513 540 359 540 C299 540 249 521 211 486 L211 527 L44 527 L44 -179 L225 -179 L225 27 C260 1 303 -13 355 -13 L355 -13 Z M217 263 C217 332 262 380 328 380 C392 380 438 331 438 263 C438 195 392 146 328 146 C261 146 217 194 217 263 L217 263 Z " />
<glyph glyph-name="q" unicode="q" horiz-adv-x="642" d="M287 -13 C339 -13 382 1 417 27 L417 -179 L598 -179 L598 527 L431 527 L431 486 C393 521 343 540 283 540 C129 540 24 421 24 263 C24 105 134 -13 287 -13 L287 -13 Z M204 263 C204 331 250 380 314 380 C380 380 425 332 425 263 C425 194 380 146 314 146 C250 146 204 195 204 263 L204 263 Z " />
<glyph glyph-name="r" unicode="r" horiz-adv-x="372" d="M44 0 L225 0 L225 275 C225 342 270 370 357 370 L357 540 C300 540 251 519 215 486 L215 527 L44 527 L44 0 Z " />
<glyph glyph-name="s" unicode="s" horiz-adv-x="513" d="M252 -13 C398 -13 491 54 491 165 C491 278 396 308 320 328 C254 344 215 352 215 379 C215 400 239 409 270 409 C308 409 348 399 385 352 L485 453 C439 506 365 540 269 540 C128 540 42 461 42 371 C42 269 121 232 191 216 C282 194 318 187 318 156 C318 131 293 119 250 119 C205 119 157 138 121 185 L13 78 C67 16 152 -13 252 -13 L252 -13 Z " />
<glyph glyph-name="t" unicode="t" horiz-adv-x="421" d="M308 0 L400 0 L400 158 L347 158 C303 158 278 182 278 230 L278 373 L398 373 L398 527 L284 527 L284 668 L108 668 L108 588 C108 548 88 527 50 527 L10 527 L10 373 L97 373 L97 208 C97 83 167 0 308 0 L308 0 Z " />
<glyph glyph-name="u" unicode="u" horiz-adv-x="596" d="M241 -13 C296 -13 345 7 382 38 L382 0 L552 0 L552 527 L371 527 L371 220 C370 175 341 148 296 148 C249 148 221 180 221 222 L221 527 L39 527 L39 197 C39 79 106 -13 241 -13 L241 -13 Z " />
<glyph glyph-name="v" unicode="v" horiz-adv-x="574" d="M181 0 L393 0 L575 527 L388 527 L287 181 L186 527 L-1 527 L181 0 Z " />
<glyph glyph-name="w" unicode="w" horiz-adv-x="834" d="M137 0 L352 0 L417 313 L486 0 L700 0 L832 527 L647 527 L583 189 L518 527 L316 527 L252 187 L187 527 L3 527 L137 0 Z " />
<glyph glyph-name="x" unicode="x" horiz-adv-x="579" d="M389 0 L589 0 L394 264 L587 527 L394 527 L298 395 L200 527 L0 527 L188 273 L-15 0 L177 0 L284 143 L389 0 Z " />
<glyph glyph-name="y" unicode="y" horiz-adv-x="576" d="M162 0 L225 0 L156 -179 L334 -179 L578 527 L391 527 L280 144 L188 527 L1 527 L162 0 Z " />
<glyph glyph-name="z" unicode="z" horiz-adv-x="550" d="M19 0 L520 0 L520 146 L294 146 L531 527 L46 527 L46 381 L258 381 L19 0 Z " />
<glyph glyph-name="braceleft" unicode="&#x7b;" horiz-adv-x="368" d="M290 -133 L338 -133 L338 15 L315 15 C279 15 259 36 259 74 L259 223 C259 278 246 313 192 343 C246 373 259 407 259 463 L259 611 C259 649 279 670 315 670 L338 670 L338 819 L290 819 C157 819 90 738 90 613 L90 459 C90 429 73 420 48 420 L19 420 L19 266 L48 266 C73 266 90 256 90 226 L90 73 C90 -53 157 -133 290 -133 L290 -133 Z " />
<glyph glyph-name="bar" unicode="&#x7c;" horiz-adv-x="240" d="M54 -97 L187 -97 L187 722 L54 722 L54 -97 Z " />
<glyph glyph-name="braceright" unicode="&#x7d;" horiz-adv-x="368" d="M30 -133 L78 -133 C211 -133 278 -53 278 73 L278 226 C278 256 296 266 321 266 L349 266 L349 420 L321 420 C296 420 278 429 278 459 L278 613 C278 738 211 819 78 819 L30 819 L30 670 L53 670 C90 670 109 649 109 611 L109 463 C109 407 122 373 176 343 C122 313 109 278 109 223 L109 74 C109 36 90 15 53 15 L30 15 L30 -133 Z " />
<glyph glyph-name="asciitilde" unicode="&#x7e;" horiz-adv-x="523" d="M357 238 C412 238 463 268 497 324 L413 422 C394 394 365 384 334 384 C272 384 250 435 167 435 C112 435 61 405 27 349 L112 251 C130 279 160 289 190 289 C252 289 274 238 357 238 L357 238 Z " />
<glyph glyph-name="uni00A0" unicode="&#xa0;" horiz-adv-x="180" d="" />
<glyph glyph-name="exclamdown" unicode="&#xa1;" horiz-adv-x="279" d="M37 -179 L243 -179 L210 261 L67 261 L37 -179 Z M43 436 C43 379 85 338 139 338 C195 338 236 379 236 436 C236 490 195 532 139 532 C85 532 43 490 43 436 L43 436 Z " />
<glyph glyph-name="cent" unicode="&#xa2;" horiz-adv-x="641" d="M255 0 L401 0 L401 96 C497 122 551 195 565 244 L409 305 C401 272 374 246 331 246 C289 246 254 276 254 330 C254 386 289 416 332 416 C375 416 398 390 407 354 L563 416 C548 466 495 539 401 564 L401 661 L255 661 L255 564 C150 534 82 441 82 329 C82 218 152 126 255 97 L255 0 Z " />
<glyph glyph-name="sterling" unicode="&#xa3;" horiz-adv-x="641" d="M116 0 L585 0 L585 158 L298 158 L298 262 L480 262 L480 420 L298 420 L298 470 C298 515 325 551 385 551 C429 551 457 522 473 498 L604 608 C569 658 495 708 376 708 C222 708 116 603 116 470 L116 420 L45 420 L45 262 L116 262 L116 0 Z " />
<glyph glyph-name="currency" unicode="&#xa4;" horiz-adv-x="641" d="M330 109 C366 109 400 116 429 129 L481 77 L585 180 L537 228 C553 259 562 294 562 331 C562 368 553 403 537 434 L585 482 L481 585 L429 534 C400 547 366 554 330 554 C293 554 260 547 230 533 L179 585 L76 482 L123 435 C107 403 98 368 98 331 C98 294 107 259 123 228 L76 181 L179 77 L231 129 C261 116 294 109 330 109 L330 109 Z M255 331 C255 376 285 408 330 408 C375 408 405 376 405 331 C405 285 375 255 330 255 C286 255 255 285 255 331 L255 331 Z " />
<glyph glyph-name="yen" unicode="&#xa5;" horiz-adv-x="641" d="M230 0 L410 0 L410 75 L535 75 L535 188 L410 188 L410 213 L535 213 L535 326 L436 326 L634 695 L440 695 L321 435 L200 695 L6 695 L203 326 L105 326 L105 213 L230 213 L230 188 L105 188 L105 75 L230 75 L230 0 Z " />
<glyph glyph-name="brokenbar" unicode="&#xa6;" horiz-adv-x="240" d="M54 392 L187 392 L187 722 L54 722 L54 392 Z M54 -97 L187 -97 L187 233 L54 233 L54 -97 Z " />
<glyph glyph-name="section" unicode="&#xa7;" horiz-adv-x="539" d="M266 -146 C397 -146 493 -78 493 41 C493 93 472 128 442 153 C484 185 509 231 509 290 C509 492 227 441 227 533 C227 556 249 572 283 572 C319 572 353 558 383 526 L484 628 C441 672 370 700 280 700 C146 700 55 636 55 524 C55 469 76 434 107 408 C62 378 35 333 35 275 C35 77 321 115 321 23 C321 -5 298 -21 264 -21 C209 -21 163 8 131 44 L30 -57 C71 -105 153 -146 266 -146 L266 -146 Z M207 290 C207 314 220 336 261 340 C304 325 337 309 337 275 C337 246 318 228 291 222 C244 238 207 255 207 290 L207 290 Z " />
<glyph glyph-name="dieresis" unicode="&#xa8;" horiz-adv-x="487" d="M392 597 C453 597 500 640 500 701 C500 763 454 808 395 808 C334 808 286 767 286 704 C286 640 334 597 392 597 L392 597 Z M30 704 C30 640 78 597 135 597 C196 597 243 640 243 701 C243 763 198 808 139 808 C78 808 30 767 30 704 L30 704 Z " />
<glyph glyph-name="copyright" unicode="&#xa9;" horiz-adv-x="762" d="M382 -14 C593 -14 731 129 731 329 C731 525 593 675 382 675 C171 675 31 525 31 329 C31 129 171 -14 382 -14 L382 -14 Z M146 329 C146 461 243 564 382 564 C518 564 616 461 616 329 C616 191 518 97 382 97 C243 97 146 191 146 329 L146 329 Z M196 332 C196 229 275 147 385 147 C459 147 507 178 534 208 L447 292 C436 279 418 267 394 267 C358 267 330 291 330 332 C330 373 358 397 394 397 C418 397 436 385 447 372 L534 456 C507 487 459 518 385 518 C275 518 196 435 196 332 L196 332 Z " />
<glyph glyph-name="ordfeminine" unicode="&#xaa;" horiz-adv-x="397" d="M166 515 C210 515 242 531 265 557 L265 525 L358 525 L358 823 L265 823 L265 793 C243 817 211 831 166 831 C84 831 18 769 18 673 C18 581 84 515 166 515 L166 515 Z M142 674 C142 699 158 718 188 718 C219 718 236 698 236 674 C236 650 219 629 188 629 C159 629 142 650 142 674 L142 674 Z " />
<glyph glyph-name="guillemotleft" unicode="&#xab;" horiz-adv-x="551" d="M349 67 L516 67 L398 240 L516 414 L349 414 L230 240 L349 67 Z M19 240 L137 67 L305 67 L187 240 L305 414 L137 414 L19 240 Z " />
<glyph glyph-name="logicalnot" unicode="&#xac;" horiz-adv-x="514" d="M39 255 L293 255 L293 122 L462 122 L462 407 L39 407 L39 255 Z " />
<glyph glyph-name="registered" unicode="&#xae;" horiz-adv-x="527" d="M265 249 C392 249 494 347 494 478 C494 608 393 708 265 708 C132 708 34 608 34 478 C34 348 132 249 265 249 L265 249 Z M104 478 C104 572 174 638 265 638 C355 638 423 569 423 478 C423 383 355 318 265 318 C174 318 104 383 104 478 L104 478 Z M185 374 L249 374 L249 453 L257 453 L296 374 L365 374 L320 463 C340 474 354 494 354 521 C354 564 320 590 279 590 L185 590 L185 374 Z M249 503 L249 540 L267 540 C282 540 289 533 289 521 C289 510 282 503 267 503 L249 503 Z " />
<glyph glyph-name="macron" unicode="&#xaf;" horiz-adv-x="375" d="M30 632 L385 632 L385 775 L30 775 L30 632 Z " />
<glyph glyph-name="degree" unicode="&#xb0;" horiz-adv-x="405" d="M202 349 C309 349 383 421 383 525 C383 625 308 699 203 699 C99 699 21 625 21 524 C21 423 97 349 202 349 L202 349 Z M135 524 C135 562 165 593 202 593 C240 593 269 563 269 524 C269 483 242 455 202 455 C164 455 135 483 135 524 L135 524 Z " />
<glyph glyph-name="plusminus" unicode="&#xb1;" horiz-adv-x="516" d="M179 221 L338 221 L338 355 L472 355 L472 507 L338 507 L338 650 L179 650 L179 507 L44 507 L44 355 L179 355 L179 221 Z M44 18 L472 18 L472 170 L44 170 L44 18 Z " />
<glyph glyph-name="uni00B2" unicode="&#xb2;" horiz-adv-x="350" d="M38 347 L312 347 L312 440 L205 440 L234 466 C291 515 306 552 306 592 C306 656 258 702 171 702 C98 702 54 666 30 636 L100 566 C120 595 138 606 161 606 C181 606 191 594 191 580 C191 563 179 547 146 518 L38 422 L38 347 Z " />
<glyph glyph-name="uni00B3" unicode="&#xb3;" horiz-adv-x="325" d="M152 339 C242 339 300 389 300 454 C300 506 267 546 219 558 L276 607 L276 695 L39 695 L39 607 L151 607 L90 561 L90 488 L155 488 C174 488 185 478 185 463 C185 448 174 436 147 436 C130 436 112 446 98 459 L22 383 C45 359 88 339 152 339 L152 339 Z " />
<glyph glyph-name="acute" unicode="&#xb4;" horiz-adv-x="371" d="M102 560 L366 710 L284 843 L30 676 L102 560 Z " />
<glyph glyph-name="uni00B5" unicode="&#xb5;" horiz-adv-x="3133" d="M406 540 C328 540 272 512 235 464 L235 527 L100 527 L100 -175 L235 -175 L235 62 C272 14 328 -17 406 -17 C547 -17 664 105 664 263 C664 419 547 540 406 540 L406 540 Z M235 263 C235 352 298 412 380 412 C464 412 526 352 526 263 C526 175 464 115 380 115 C298 115 235 175 235 263 L235 263 Z M694 263 C694 419 810 540 948 540 C1024 540 1082 512 1120 464 L1120 527 L1255 527 L1255 81 L1171 -1 L1120 -1 L1120 62 C1082 15 1024 -17 948 -17 C810 -17 694 105 694 263 L694 263 Z M829 263 C829 175 891 115 973 115 C1058 115 1120 175 1120 263 C1120 352 1058 412 973 412 C891 412 829 352 829 263 L829 263 Z M1242 -1 L1636 396 L1334 396 L1334 527 L1950 527 L1560 127 L1862 127 C1881 75 1914 30 1956 -1 L1242 -1 Z M1892 263 C1892 105 2005 -17 2179 -17 C2281 -17 2360 26 2409 97 L2300 162 C2276 130 2235 108 2182 108 C2112 108 2054 138 2035 206 L2429 206 C2433 224 2434 243 2434 263 C2434 419 2326 540 2170 540 C2006 540 1892 419 1892 263 L1892 263 Z M2033 311 C2048 381 2098 419 2170 419 C2226 419 2283 388 2300 311 L2033 311 Z M2482 293 C2502 262 2539 241 2589 241 C2651 241 2692 273 2692 321 C2692 428 2546 398 2546 457 C2546 475 2564 487 2592 487 C2616 487 2636 476 2651 453 L2687 490 C2671 516 2635 532 2594 532 C2533 532 2494 501 2494 453 C2494 353 2640 384 2640 320 C2640 299 2621 284 2591 284 C2559 284 2535 302 2517 329 L2482 293 Z M2733 247 L2782 247 L2796 450 L2862 258 L2905 258 L2971 450 L2986 247 L3033 247 L3014 524 L2955 524 L2884 317 L2812 524 L2754 524 L2733 247 Z " />
<glyph glyph-name="paragraph" unicode="&#xb6;" horiz-adv-x="665" d="M272 240 L340 240 L340 545 L378 545 L378 -100 L470 -100 L470 545 L508 545 L508 -100 L601 -100 L601 695 L272 695 C118 695 21 606 21 467 C21 330 120 240 272 240 L272 240 Z " />
<glyph glyph-name="periodcentered" unicode="&#xb7;" horiz-adv-x="252" d="M126 245 C181 245 223 286 223 341 C223 397 181 439 126 439 C71 439 29 397 29 341 C29 286 71 245 126 245 L126 245 Z " />
<glyph glyph-name="cedilla" unicode="&#xb8;" horiz-adv-x="284" d="M161 -242 C243 -242 300 -199 300 -132 C300 -82 268 -44 229 -38 L249 20 L142 20 L110 -76 L118 -83 L133 -83 C159 -83 172 -98 172 -115 C172 -133 158 -145 135 -145 C114 -145 99 -136 88 -122 L30 -195 C55 -222 104 -242 161 -242 L161 -242 Z " />
<glyph glyph-name="uni00B9" unicode="&#xb9;" horiz-adv-x="300" d="M40 347 L271 347 L271 447 L227 447 L227 695 L106 695 L106 664 C106 650 100 642 84 642 L41 642 L41 542 L106 542 L106 447 L40 447 L40 347 Z " />
<glyph glyph-name="ordmasculine" unicode="&#xba;" horiz-adv-x="368" d="M183 514 C282 514 351 584 351 674 C351 765 282 835 183 835 C85 835 17 765 17 674 C17 584 85 514 183 514 L183 514 Z M139 674 C139 702 153 721 184 721 C214 721 228 702 228 674 C228 647 214 628 184 628 C153 628 139 647 139 674 L139 674 Z " />
<glyph glyph-name="guillemotright" unicode="&#xbb;" horiz-adv-x="551" d="M246 67 L413 67 L531 240 L413 414 L246 414 L364 240 L246 67 Z M35 67 L202 67 L320 240 L202 414 L35 414 L153 240 L35 67 Z " />
<glyph glyph-name="onequarter" unicode="&#xbc;" horiz-adv-x="700" d="M29 347 L260 347 L260 447 L216 447 L216 695 L95 695 L95 664 C95 650 89 642 73 642 L30 642 L30 542 L95 542 L95 447 L29 447 L29 347 Z M138 0 L267 0 L593 695 L463 695 L138 0 Z M389 60 L535 60 L535 0 L647 0 L647 60 L675 60 L675 139 L647 139 L647 348 L536 348 L389 144 L389 60 Z M475 139 L536 225 L536 139 L475 139 Z " />
<glyph glyph-name="onehalf" unicode="&#xbd;" horiz-adv-x="737" d="M29 347 L260 347 L260 447 L216 447 L216 695 L95 695 L95 664 C95 650 89 642 73 642 L30 642 L30 542 L95 542 L95 447 L29 447 L29 347 Z M138 0 L267 0 L593 695 L463 695 L138 0 Z M431 289 L501 219 C521 248 539 259 562 259 C582 259 592 247 592 233 C592 216 580 200 547 171 L439 75 L439 0 L713 0 L713 93 L606 93 L635 119 C692 168 707 205 707 245 C707 309 659 355 572 355 C499 355 455 319 431 289 L431 289 Z " />
<glyph glyph-name="threequarters" unicode="&#xbe;" horiz-adv-x="725" d="M153 339 C243 339 301 389 301 454 C301 506 268 546 220 558 L277 607 L277 695 L40 695 L40 607 L152 607 L91 561 L91 488 L156 488 C175 488 186 478 186 463 C186 448 175 436 148 436 C131 436 113 446 99 459 L23 383 C46 359 89 339 153 339 L153 339 Z M161 0 L290 0 L616 695 L486 695 L161 0 Z M409 60 L555 60 L555 0 L667 0 L667 60 L695 60 L695 139 L667 139 L667 348 L556 348 L409 144 L409 60 Z M495 139 L556 225 L556 139 L495 139 Z " />
<glyph glyph-name="questiondown" unicode="&#xbf;" horiz-adv-x="499" d="M276 337 C330 337 372 379 372 436 C372 489 330 531 276 531 C221 531 179 489 179 434 C179 379 220 337 276 337 L276 337 Z M26 -2 C26 -117 115 -189 253 -189 C363 -189 440 -137 482 -75 L369 38 C334 0 306 -15 272 -15 C237 -15 214 3 214 31 C214 99 353 113 353 237 L353 261 L199 261 L199 250 C199 169 26 157 26 -2 L26 -2 Z " />
<glyph glyph-name="Agrave" unicode="&#xc0;" horiz-adv-x="668" d="M-1 0 L178 0 L216 122 L453 122 L491 0 L669 0 L445 695 L223 695 L-1 0 Z M155 827 L475 740 L515 870 L199 976 L155 827 Z M262 270 L334 503 L407 270 L262 270 Z " />
<glyph glyph-name="Aacute" unicode="&#xc1;" horiz-adv-x="668" d="M-1 0 L178 0 L216 122 L453 122 L491 0 L669 0 L445 695 L223 695 L-1 0 Z M165 870 L205 740 L525 827 L480 976 L165 870 Z M262 270 L334 503 L407 270 L262 270 Z " />
<glyph glyph-name="Acircumflex" unicode="&#xc2;" horiz-adv-x="668" d="M-1 0 L178 0 L216 122 L453 122 L491 0 L669 0 L445 695 L223 695 L-1 0 Z M108 755 L268 755 L334 836 L399 755 L559 755 L410 956 L262 956 L108 755 Z M262 270 L334 503 L407 270 L262 270 Z " />
<glyph glyph-name="Atilde" unicode="&#xc3;" horiz-adv-x="668" d="M-1 0 L178 0 L216 122 L453 122 L491 0 L669 0 L445 695 L223 695 L-1 0 Z M116 810 L239 758 C246 785 262 798 286 798 C330 798 352 751 421 751 C507 751 554 819 573 887 L449 939 C442 912 426 899 404 899 C362 899 337 946 268 946 C180 946 132 873 116 810 L116 810 Z M262 270 L334 503 L407 270 L262 270 Z " />
<glyph glyph-name="Adieresis" unicode="&#xc4;" horiz-adv-x="668" d="M-1 0 L178 0 L216 122 L453 122 L491 0 L669 0 L445 695 L223 695 L-1 0 Z M90 858 C90 791 140 746 200 746 C263 746 312 791 312 854 C312 919 264 965 203 965 C140 965 90 922 90 858 L90 858 Z M262 270 L334 503 L407 270 L262 270 Z M355 858 C355 791 405 746 466 746 C529 746 578 791 578 854 C578 919 530 965 468 965 C405 965 355 922 355 858 L355 858 Z " />
<glyph glyph-name="Aring" unicode="&#xc5;" horiz-adv-x="668" d="M-1 0 L178 0 L216 122 L453 122 L491 0 L669 0 L445 695 L403 695 C451 717 481 763 481 822 C481 903 421 962 334 962 C248 962 186 903 186 822 C186 763 217 717 265 695 L223 695 L-1 0 Z M262 270 L334 503 L407 270 L262 270 Z M290 822 C290 846 308 863 334 863 C359 863 377 846 377 822 C377 797 359 780 334 780 C308 780 290 797 290 822 L290 822 Z " />
<glyph glyph-name="AE" unicode="&#xc6;" horiz-adv-x="961" d="M-18 0 L172 0 L222 116 L438 116 L438 0 L926 0 L926 158 L620 158 L620 272 L882 272 L882 430 L620 430 L620 537 L921 537 L921 695 L286 695 L-18 0 Z M288 270 L403 537 L438 537 L438 270 L288 270 Z " />
<glyph glyph-name="Ccedilla" unicode="&#xc7;" horiz-adv-x="696" d="M372 -242 C454 -242 511 -199 511 -132 C511 -82 479 -44 440 -38 L450 -9 C556 6 632 61 676 117 L549 244 C517 199 468 158 395 158 C290 158 214 234 214 347 C214 461 290 537 395 537 C467 537 517 496 549 451 L675 578 C623 644 528 708 393 708 C183 708 29 557 29 347 C29 155 159 12 343 -10 L321 -76 L329 -83 L344 -83 C370 -83 383 -98 383 -115 C383 -133 369 -145 346 -145 C325 -145 310 -136 299 -122 L241 -195 C266 -222 315 -242 372 -242 L372 -242 Z " />
<glyph glyph-name="Egrave" unicode="&#xc8;" horiz-adv-x="578" d="M55 0 L543 0 L543 158 L237 158 L237 272 L500 272 L500 430 L237 430 L237 537 L538 537 L538 695 L55 695 L55 0 Z M117 827 L437 740 L477 870 L161 976 L117 827 Z " />
<glyph glyph-name="Eacute" unicode="&#xc9;" horiz-adv-x="578" d="M55 0 L543 0 L543 158 L237 158 L237 272 L500 272 L500 430 L237 430 L237 537 L538 537 L538 695 L55 695 L55 0 Z M127 870 L167 740 L487 827 L442 976 L127 870 Z " />
<glyph glyph-name="Ecircumflex" unicode="&#xca;" horiz-adv-x="578" d="M55 0 L543 0 L543 158 L237 158 L237 272 L500 272 L500 430 L237 430 L237 537 L538 537 L538 695 L55 695 L55 0 Z M71 755 L231 755 L297 836 L362 755 L522 755 L373 956 L225 956 L71 755 Z " />
<glyph glyph-name="Edieresis" unicode="&#xcb;" horiz-adv-x="578" d="M55 0 L543 0 L543 158 L237 158 L237 272 L500 272 L500 430 L237 430 L237 537 L538 537 L538 695 L55 695 L55 0 Z M52 858 C52 791 102 746 162 746 C225 746 274 791 274 854 C274 919 226 965 165 965 C102 965 52 922 52 858 L52 858 Z M317 858 C317 791 367 746 428 746 C491 746 540 791 540 854 C540 919 492 965 430 965 C367 965 317 922 317 858 L317 858 Z " />
<glyph glyph-name="Igrave" unicode="&#xcc;" horiz-adv-x="292" d="M55 0 L237 0 L237 695 L55 695 L55 0 Z M-33 827 L287 740 L327 870 L11 976 L-33 827 Z " />
<glyph glyph-name="Iacute" unicode="&#xcd;" horiz-adv-x="292" d="M55 0 L237 0 L237 695 L55 695 L55 0 Z M-23 870 L17 740 L337 827 L292 976 L-23 870 Z " />
<glyph glyph-name="Icircumflex" unicode="&#xce;" horiz-adv-x="292" d="M55 0 L237 0 L237 695 L55 695 L55 0 Z M-79 755 L81 755 L147 836 L212 755 L372 755 L223 956 L75 956 L-79 755 Z " />
<glyph glyph-name="Idieresis" unicode="&#xcf;" horiz-adv-x="292" d="M55 0 L237 0 L237 695 L55 695 L55 0 Z M-98 858 C-98 791 -48 746 12 746 C75 746 124 791 124 854 C124 919 76 965 15 965 C-48 965 -98 922 -98 858 L-98 858 Z M167 858 C167 791 217 746 278 746 C341 746 390 791 390 854 C390 919 342 965 280 965 C217 965 167 922 167 858 L167 858 Z " />
<glyph glyph-name="Eth" unicode="&#xd0;" horiz-adv-x="740" d="M69 0 L349 0 C564 0 711 135 711 348 C711 561 564 695 349 695 L69 695 L69 413 L16 413 L16 289 L69 289 L69 0 Z M251 161 L251 289 L398 289 L398 413 L251 413 L251 534 L343 534 C454 534 526 470 526 345 C526 225 454 161 343 161 L251 161 Z " />
<glyph glyph-name="Ntilde" unicode="&#xd1;" horiz-adv-x="694" d="M489 0 L639 0 L639 695 L458 695 L458 311 L206 695 L55 695 L55 0 L236 0 L236 381 L489 0 Z M113 810 L236 758 C243 785 259 798 283 798 C327 798 349 751 418 751 C504 751 551 819 570 887 L446 939 C439 912 423 899 401 899 C359 899 334 946 265 946 C177 946 129 873 113 810 L113 810 Z " />
<glyph glyph-name="Ograve" unicode="&#xd2;" horiz-adv-x="794" d="M397 -13 C603 -13 766 145 766 347 C766 551 603 708 397 708 C191 708 28 551 28 347 C28 145 191 -13 397 -13 L397 -13 Z M213 348 C213 457 283 537 397 537 C511 537 581 457 581 348 C581 237 509 158 397 158 C286 158 213 237 213 348 L213 348 Z M217 827 L537 740 L577 870 L261 976 L217 827 Z " />
<glyph glyph-name="Oacute" unicode="&#xd3;" horiz-adv-x="794" d="M397 -13 C603 -13 766 145 766 347 C766 551 603 708 397 708 C191 708 28 551 28 347 C28 145 191 -13 397 -13 L397 -13 Z M213 348 C213 457 283 537 397 537 C511 537 581 457 581 348 C581 237 509 158 397 158 C286 158 213 237 213 348 L213 348 Z M227 870 L267 740 L587 827 L542 976 L227 870 Z " />
<glyph glyph-name="Ocircumflex" unicode="&#xd4;" horiz-adv-x="794" d="M397 -13 C603 -13 766 145 766 347 C766 551 603 708 397 708 C191 708 28 551 28 347 C28 145 191 -13 397 -13 L397 -13 Z M171 755 L331 755 L397 836 L462 755 L622 755 L473 956 L325 956 L171 755 Z M213 348 C213 457 283 537 397 537 C511 537 581 457 581 348 C581 237 509 158 397 158 C286 158 213 237 213 348 L213 348 Z " />
<glyph glyph-name="Otilde" unicode="&#xd5;" horiz-adv-x="794" d="M397 -13 C603 -13 766 145 766 347 C766 551 603 708 397 708 C191 708 28 551 28 347 C28 145 191 -13 397 -13 L397 -13 Z M178 810 L301 758 C308 785 324 798 348 798 C392 798 414 751 483 751 C569 751 616 819 635 887 L511 939 C504 912 488 899 466 899 C424 899 399 946 330 946 C242 946 194 873 178 810 L178 810 Z M213 348 C213 457 283 537 397 537 C511 537 581 457 581 348 C581 237 509 158 397 158 C286 158 213 237 213 348 L213 348 Z " />
<glyph glyph-name="Odieresis" unicode="&#xd6;" horiz-adv-x="794" d="M397 -13 C603 -13 766 145 766 347 C766 551 603 708 397 708 C191 708 28 551 28 347 C28 145 191 -13 397 -13 L397 -13 Z M153 858 C153 791 203 746 263 746 C326 746 375 791 375 854 C375 919 327 965 266 965 C203 965 153 922 153 858 L153 858 Z M213 348 C213 457 283 537 397 537 C511 537 581 457 581 348 C581 237 509 158 397 158 C286 158 213 237 213 348 L213 348 Z M418 858 C418 791 468 746 529 746 C592 746 641 791 641 854 C641 919 593 965 531 965 C468 965 418 922 418 858 L418 858 Z " />
<glyph glyph-name="multiply" unicode="&#xd7;" horiz-adv-x="514" d="M372 112 L484 224 L369 338 L484 452 L371 565 L257 451 L142 565 L30 453 L145 338 L30 223 L142 112 L257 226 L372 112 Z " />
<glyph glyph-name="Oslash" unicode="&#xd8;" horiz-adv-x="797" d="M398 -13 C604 -13 767 145 767 347 C767 425 743 497 702 555 L772 628 L668 729 L595 654 C538 688 471 708 398 708 C192 708 29 551 29 347 C29 269 54 197 96 138 L25 65 L130 -34 L202 41 C259 7 326 -13 398 -13 L398 -13 Z M214 348 C214 457 284 537 398 537 C512 537 582 457 582 348 C582 237 510 158 398 158 C287 158 214 237 214 348 L214 348 Z " />
<glyph glyph-name="Ugrave" unicode="&#xd9;" horiz-adv-x="677" d="M339 -13 C533 -13 629 118 629 276 L629 695 L447 695 L447 276 C447 205 412 158 339 158 C267 158 231 205 231 276 L231 695 L48 695 L48 276 C48 118 145 -13 339 -13 L339 -13 Z M159 827 L479 740 L519 870 L203 976 L159 827 Z " />
<glyph glyph-name="Uacute" unicode="&#xda;" horiz-adv-x="677" d="M339 -13 C533 -13 629 118 629 276 L629 695 L447 695 L447 276 C447 205 412 158 339 158 C267 158 231 205 231 276 L231 695 L48 695 L48 276 C48 118 145 -13 339 -13 L339 -13 Z M169 870 L209 740 L529 827 L484 976 L169 870 Z " />
<glyph glyph-name="Ucircumflex" unicode="&#xdb;" horiz-adv-x="677" d="M339 -13 C533 -13 629 118 629 276 L629 695 L447 695 L447 276 C447 205 412 158 339 158 C267 158 231 205 231 276 L231 695 L48 695 L48 276 C48 118 145 -13 339 -13 L339 -13 Z M113 755 L273 755 L339 836 L404 755 L564 755 L415 956 L267 956 L113 755 Z " />
<glyph glyph-name="Udieresis" unicode="&#xdc;" horiz-adv-x="677" d="M339 -13 C533 -13 629 118 629 276 L629 695 L447 695 L447 276 C447 205 412 158 339 158 C267 158 231 205 231 276 L231 695 L48 695 L48 276 C48 118 145 -13 339 -13 L339 -13 Z M95 858 C95 791 145 746 205 746 C268 746 317 791 317 854 C317 919 269 965 208 965 C145 965 95 922 95 858 L95 858 Z M360 858 C360 791 410 746 471 746 C534 746 583 791 583 854 C583 919 535 965 473 965 C410 965 360 922 360 858 L360 858 Z " />
<glyph glyph-name="Yacute" unicode="&#xdd;" horiz-adv-x="669" d="M244 0 L426 0 L426 284 L677 695 L473 695 L335 444 L196 695 L-7 695 L244 283 L244 0 Z M166 870 L206 740 L526 827 L481 976 L166 870 Z " />
<glyph glyph-name="Thorn" unicode="&#xde;" horiz-adv-x="630" d="M55 0 L237 0 L237 123 L353 123 C505 123 604 213 604 351 C604 489 507 578 353 578 L237 578 L237 695 L55 695 L55 0 Z M237 282 L237 420 L342 420 C395 420 419 390 419 351 C419 311 395 282 342 282 L237 282 Z " />
<glyph glyph-name="germandbls" unicode="&#xdf;" horiz-adv-x="636" d="M374 -13 C513 -13 612 66 612 205 C612 293 567 359 505 387 C552 416 587 473 587 539 C587 656 491 744 333 744 C149 744 44 642 44 473 L44 0 L225 0 L225 483 C225 557 259 594 321 594 C368 594 403 565 403 519 C403 474 372 443 323 443 L323 305 C394 305 427 268 427 223 C427 171 394 143 346 143 C317 143 293 150 263 168 L263 4 C292 -7 325 -13 374 -13 L374 -13 Z " />
<glyph glyph-name="agrave" unicode="&#xe0;" horiz-adv-x="642" d="M287 -13 C348 -13 396 7 431 41 L431 0 L598 0 L598 527 L431 527 L431 485 C396 520 348 540 287 540 C143 540 24 427 24 268 C24 109 134 -13 287 -13 L287 -13 Z M154 710 L417 560 L490 676 L235 843 L154 710 Z M204 264 C204 332 250 380 314 380 C379 380 424 332 424 264 C424 194 379 146 314 146 C250 146 204 194 204 264 L204 264 Z " />
<glyph glyph-name="aacute" unicode="&#xe1;" horiz-adv-x="642" d="M287 -13 C348 -13 396 7 431 41 L431 0 L598 0 L598 527 L431 527 L431 485 C396 520 348 540 287 540 C143 540 24 427 24 268 C24 109 134 -13 287 -13 L287 -13 Z M159 676 L231 560 L495 710 L413 843 L159 676 Z M204 264 C204 332 250 380 314 380 C379 380 424 332 424 264 C424 194 379 146 314 146 C250 146 204 194 204 264 L204 264 Z " />
<glyph glyph-name="acircumflex" unicode="&#xe2;" horiz-adv-x="642" d="M287 -13 C348 -13 396 7 431 41 L431 0 L598 0 L598 527 L431 527 L431 485 C396 520 348 540 287 540 C143 540 24 427 24 268 C24 109 134 -13 287 -13 L287 -13 Z M112 597 L268 597 L329 692 L392 597 L547 597 L410 810 L254 810 L112 597 Z M204 264 C204 332 250 380 314 380 C379 380 424 332 424 264 C424 194 379 146 314 146 C250 146 204 194 204 264 L204 264 Z " />
<glyph glyph-name="atilde" unicode="&#xe3;" horiz-adv-x="642" d="M287 -13 C348 -13 396 7 431 41 L431 0 L598 0 L598 527 L431 527 L431 485 C396 520 348 540 287 540 C143 540 24 427 24 268 C24 109 134 -13 287 -13 L287 -13 Z M112 665 L234 613 C241 640 259 653 279 653 C320 653 346 606 410 606 C493 606 529 674 547 742 L424 794 C417 767 400 754 381 754 C337 754 313 801 249 801 C166 801 128 730 112 665 L112 665 Z M204 264 C204 332 250 380 314 380 C379 380 424 332 424 264 C424 194 379 146 314 146 C250 146 204 194 204 264 L204 264 Z " />
<glyph glyph-name="adieresis" unicode="&#xe4;" horiz-adv-x="642" d="M287 -13 C348 -13 396 7 431 41 L431 0 L598 0 L598 527 L431 527 L431 485 C396 520 348 540 287 540 C143 540 24 427 24 268 C24 109 134 -13 287 -13 L287 -13 Z M95 704 C95 640 143 597 200 597 C261 597 308 640 308 701 C308 763 263 808 204 808 C143 808 95 767 95 704 L95 704 Z M204 264 C204 332 250 380 314 380 C379 380 424 332 424 264 C424 194 379 146 314 146 C250 146 204 194 204 264 L204 264 Z M351 704 C351 640 399 597 457 597 C518 597 565 640 565 701 C565 763 519 808 460 808 C399 808 351 767 351 704 L351 704 Z " />
<glyph glyph-name="aring" unicode="&#xe5;" horiz-adv-x="642" d="M287 -13 C348 -13 396 7 431 41 L431 0 L598 0 L598 527 L431 527 L431 485 C396 520 348 540 287 540 C143 540 24 427 24 268 C24 109 134 -13 287 -13 L287 -13 Z M182 703 C182 619 244 562 330 562 C417 562 477 619 477 703 C477 784 417 843 330 843 C244 843 182 784 182 703 L182 703 Z M204 264 C204 332 250 380 314 380 C379 380 424 332 424 264 C424 194 379 146 314 146 C250 146 204 194 204 264 L204 264 Z M286 703 C286 727 304 744 330 744 C355 744 373 727 373 703 C373 678 355 661 330 661 C304 661 286 678 286 703 L286 703 Z " />
<glyph glyph-name="ae" unicode="&#xe6;" horiz-adv-x="1029" d="M287 -13 C348 -13 396 7 431 41 L431 0 L598 0 L598 51 C640 8 699 -13 769 -13 C877 -13 938 29 981 73 L874 179 C844 148 810 129 750 129 C689 129 647 157 630 212 L1002 212 C1004 227 1006 246 1006 274 C1006 403 921 540 747 540 C685 540 635 516 598 475 L598 527 L431 527 L431 485 C396 520 348 540 287 540 C134 540 24 421 24 263 C24 105 134 -13 287 -13 L287 -13 Z M204 263 C204 331 250 380 314 380 C380 380 424 332 424 263 C424 194 379 146 314 146 C250 146 204 195 204 263 L204 263 Z M627 317 C639 376 676 408 735 408 C793 408 829 373 842 317 L627 317 Z " />
<glyph glyph-name="ccedilla" unicode="&#xe7;" horiz-adv-x="576" d="M293 -242 C375 -242 432 -199 432 -132 C432 -82 400 -44 361 -38 L372 -7 C448 7 500 45 531 78 L416 193 C398 171 366 148 320 148 C255 148 205 191 205 263 C205 336 255 378 320 378 C366 378 398 355 416 333 L531 448 C492 490 421 540 307 540 C142 540 23 417 23 263 C23 123 121 9 264 -10 L242 -76 L250 -83 L265 -83 C291 -83 304 -98 304 -115 C304 -133 290 -145 267 -145 C246 -145 231 -136 220 -122 L162 -195 C187 -222 236 -242 293 -242 L293 -242 Z " />
<glyph glyph-name="egrave" unicode="&#xe8;" horiz-adv-x="595" d="M309 -14 C430 -14 499 30 546 75 L440 181 C410 150 376 131 316 131 C257 131 215 158 198 211 L570 211 C572 225 574 246 574 274 C574 402 472 540 298 540 C145 540 22 415 22 263 C22 106 133 -14 309 -14 L309 -14 Z M124 709 L387 559 L460 675 L205 842 L124 709 Z M195 319 C208 377 245 406 302 406 C358 406 394 373 407 319 L195 319 Z " />
<glyph glyph-name="eacute" unicode="&#xe9;" horiz-adv-x="595" d="M309 -14 C430 -14 499 30 546 75 L440 181 C410 150 376 131 316 131 C257 131 215 158 198 211 L570 211 C572 225 574 246 574 274 C574 402 472 540 298 540 C145 540 22 415 22 263 C22 106 133 -14 309 -14 L309 -14 Z M129 675 L201 559 L465 709 L383 842 L129 675 Z M195 319 C208 377 245 406 302 406 C358 406 394 373 407 319 L195 319 Z " />
<glyph glyph-name="ecircumflex" unicode="&#xea;" horiz-adv-x="595" d="M309 -14 C430 -14 499 30 546 75 L440 181 C410 150 376 131 316 131 C257 131 215 158 198 211 L570 211 C572 225 574 246 574 274 C574 402 472 540 298 540 C145 540 22 415 22 263 C22 106 133 -14 309 -14 L309 -14 Z M82 596 L238 596 L299 691 L362 596 L517 596 L380 809 L224 809 L82 596 Z M195 319 C208 377 245 406 302 406 C358 406 394 373 407 319 L195 319 Z " />
<glyph glyph-name="edieresis" unicode="&#xeb;" horiz-adv-x="595" d="M309 -14 C430 -14 499 30 546 75 L440 181 C410 150 376 131 316 131 C257 131 215 158 198 211 L570 211 C572 225 574 246 574 274 C574 402 472 540 298 540 C145 540 22 415 22 263 C22 106 133 -14 309 -14 L309 -14 Z M64 703 C64 639 112 596 169 596 C230 596 277 639 277 700 C277 762 232 807 173 807 C112 807 64 766 64 703 L64 703 Z M195 319 C208 377 245 406 302 406 C358 406 394 373 407 319 L195 319 Z M320 703 C320 639 368 596 426 596 C487 596 534 639 534 700 C534 762 488 807 429 807 C368 807 320 766 320 703 L320 703 Z " />
<glyph glyph-name="igrave" unicode="&#xec;" horiz-adv-x="269" d="M44 0 L225 0 L225 527 L44 527 L44 0 Z M-41 709 L222 559 L295 675 L40 842 L-41 709 Z " />
<glyph glyph-name="iacute" unicode="&#xed;" horiz-adv-x="269" d="M44 0 L225 0 L225 527 L44 527 L44 0 Z M-36 675 L36 559 L300 709 L218 842 L-36 675 Z " />
<glyph glyph-name="icircumflex" unicode="&#xee;" horiz-adv-x="269" d="M44 0 L225 0 L225 527 L44 527 L44 0 Z M-83 596 L73 596 L134 691 L197 596 L352 596 L215 809 L59 809 L-83 596 Z " />
<glyph glyph-name="idieresis" unicode="&#xef;" horiz-adv-x="269" d="M44 0 L225 0 L225 527 L44 527 L44 0 Z M-100 703 C-100 639 -52 596 5 596 C66 596 113 639 113 700 C113 762 68 807 9 807 C-52 807 -100 766 -100 703 L-100 703 Z M156 703 C156 639 204 596 262 596 C323 596 370 639 370 700 C370 762 324 807 265 807 C204 807 156 766 156 703 L156 703 Z " />
<glyph glyph-name="eth" unicode="&#xf0;" horiz-adv-x="631" d="M313 -13 C483 -13 604 96 604 303 C604 471 516 633 370 727 L407 764 L319 852 L251 784 C197 802 137 812 74 812 L5 666 C44 666 83 662 121 655 L76 610 L163 520 L253 610 C302 586 343 555 372 519 C352 525 331 528 307 528 C145 528 23 411 23 257 C23 106 143 -13 313 -13 L313 -13 Z M205 257 C205 320 248 367 315 367 C380 367 422 320 422 259 C422 194 379 148 315 148 C248 148 205 196 205 257 L205 257 Z " />
<glyph glyph-name="ntilde" unicode="&#xf1;" horiz-adv-x="604" d="M383 301 L383 0 L565 0 L565 336 C565 455 484 540 362 540 C301 540 251 520 215 490 L215 527 L44 527 L44 0 L225 0 L225 304 C226 348 262 378 305 378 C348 378 383 350 383 301 L383 301 Z M94 664 L216 612 C223 639 241 652 261 652 C302 652 328 605 392 605 C475 605 511 673 529 741 L406 793 C399 766 382 753 363 753 C319 753 295 800 231 800 C148 800 110 729 94 664 L94 664 Z " />
<glyph glyph-name="ograve" unicode="&#xf2;" horiz-adv-x="627" d="M313 -13 C483 -13 604 106 604 263 C604 421 483 540 313 540 C143 540 23 421 23 263 C23 106 143 -13 313 -13 L313 -13 Z M141 709 L404 559 L477 675 L222 842 L141 709 Z M205 263 C205 331 248 378 315 378 C380 378 422 331 422 264 C422 195 379 148 315 148 C248 148 205 196 205 263 L205 263 Z " />
<glyph glyph-name="oacute" unicode="&#xf3;" horiz-adv-x="627" d="M313 -13 C483 -13 604 106 604 263 C604 421 483 540 313 540 C143 540 23 421 23 263 C23 106 143 -13 313 -13 L313 -13 Z M146 675 L218 559 L482 709 L400 842 L146 675 Z M205 263 C205 331 248 378 315 378 C380 378 422 331 422 264 C422 195 379 148 315 148 C248 148 205 196 205 263 L205 263 Z " />
<glyph glyph-name="ocircumflex" unicode="&#xf4;" horiz-adv-x="627" d="M313 -13 C483 -13 604 106 604 263 C604 421 483 540 313 540 C143 540 23 421 23 263 C23 106 143 -13 313 -13 L313 -13 Z M99 596 L255 596 L316 691 L379 596 L534 596 L397 809 L241 809 L99 596 Z M205 263 C205 331 248 378 315 378 C380 378 422 331 422 264 C422 195 379 148 315 148 C248 148 205 196 205 263 L205 263 Z " />
<glyph glyph-name="otilde" unicode="&#xf5;" horiz-adv-x="627" d="M313 -13 C483 -13 604 106 604 263 C604 421 483 540 313 540 C143 540 23 421 23 263 C23 106 143 -13 313 -13 L313 -13 Z M99 664 L221 612 C228 639 246 652 266 652 C307 652 333 605 397 605 C480 605 516 673 534 741 L411 793 C404 766 387 753 368 753 C324 753 300 800 236 800 C153 800 115 729 99 664 L99 664 Z M205 263 C205 331 248 378 315 378 C380 378 422 331 422 264 C422 195 379 148 315 148 C248 148 205 196 205 263 L205 263 Z " />
<glyph glyph-name="odieresis" unicode="&#xf6;" horiz-adv-x="627" d="M313 -13 C483 -13 604 106 604 263 C604 421 483 540 313 540 C143 540 23 421 23 263 C23 106 143 -13 313 -13 L313 -13 Z M82 703 C82 639 130 596 187 596 C248 596 295 639 295 700 C295 762 250 807 191 807 C130 807 82 766 82 703 L82 703 Z M205 263 C205 331 248 378 315 378 C380 378 422 331 422 264 C422 195 379 148 315 148 C248 148 205 196 205 263 L205 263 Z M338 703 C338 639 386 596 444 596 C505 596 552 639 552 700 C552 762 506 807 447 807 C386 807 338 766 338 703 L338 703 Z " />
<glyph glyph-name="divide" unicode="&#xf7;" horiz-adv-x="486" d="M31 261 L455 261 L455 413 L31 413 L31 261 Z M147 121 C147 68 189 26 244 26 C299 26 341 68 341 121 C341 178 299 220 244 220 C189 220 147 178 147 121 L147 121 Z M147 550 C147 496 189 455 243 455 C299 455 340 496 340 550 C340 607 299 649 243 649 C189 649 147 607 147 550 L147 550 Z " />
<glyph glyph-name="oslash" unicode="&#xf8;" horiz-adv-x="651" d="M323 -13 C493 -13 614 106 614 263 C614 313 602 358 580 398 L645 454 L563 549 L495 490 C448 522 389 540 323 540 C153 540 33 421 33 263 C33 211 46 164 70 123 L5 68 L90 -27 L158 32 C204 3 260 -13 323 -13 L323 -13 Z M215 263 C215 331 258 378 325 378 C390 378 432 331 432 264 C432 195 389 148 325 148 C258 148 215 196 215 263 L215 263 Z " />
<glyph glyph-name="ugrave" unicode="&#xf9;" horiz-adv-x="596" d="M241 -13 C296 -13 345 7 382 38 L382 0 L552 0 L552 527 L371 527 L371 220 C370 175 341 148 296 148 C249 148 221 180 221 222 L221 527 L39 527 L39 197 C39 79 106 -13 241 -13 L241 -13 Z M118 710 L381 560 L454 676 L199 843 L118 710 Z " />
<glyph glyph-name="uacute" unicode="&#xfa;" horiz-adv-x="596" d="M241 -13 C296 -13 345 7 382 38 L382 0 L552 0 L552 527 L371 527 L371 220 C370 175 341 148 296 148 C249 148 221 180 221 222 L221 527 L39 527 L39 197 C39 79 106 -13 241 -13 L241 -13 Z M123 676 L195 560 L459 710 L377 843 L123 676 Z " />
<glyph glyph-name="ucircumflex" unicode="&#xfb;" horiz-adv-x="596" d="M241 -13 C296 -13 345 7 382 38 L382 0 L552 0 L552 527 L371 527 L371 220 C370 175 341 148 296 148 C249 148 221 180 221 222 L221 527 L39 527 L39 197 C39 79 106 -13 241 -13 L241 -13 Z M76 597 L232 597 L293 692 L356 597 L511 597 L374 810 L218 810 L76 597 Z " />
<glyph glyph-name="udieresis" unicode="&#xfc;" horiz-adv-x="596" d="M241 -13 C296 -13 345 7 382 38 L382 0 L552 0 L552 527 L371 527 L371 220 C370 175 341 148 296 148 C249 148 221 180 221 222 L221 527 L39 527 L39 197 C39 79 106 -13 241 -13 L241 -13 Z M58 704 C58 640 106 597 163 597 C224 597 271 640 271 701 C271 763 226 808 167 808 C106 808 58 767 58 704 L58 704 Z M314 704 C314 640 362 597 420 597 C481 597 528 640 528 701 C528 763 482 808 423 808 C362 808 314 767 314 704 L314 704 Z " />
<glyph glyph-name="yacute" unicode="&#xfd;" horiz-adv-x="576" d="M162 0 L225 0 L156 -179 L334 -179 L578 527 L391 527 L280 144 L188 527 L1 527 L162 0 Z M118 676 L190 560 L454 710 L372 843 L118 676 Z " />
<glyph glyph-name="thorn" unicode="&#xfe;" horiz-adv-x="642" d="M355 -13 C508 -13 618 105 618 263 C618 421 513 540 359 540 C306 540 261 525 225 498 L225 731 L44 731 L44 -179 L225 -179 L225 27 C260 1 303 -13 355 -13 L355 -13 Z M219 263 C219 331 262 378 328 378 C391 378 436 330 436 263 C436 196 391 148 328 148 C262 148 219 195 219 263 L219 263 Z " />
<glyph glyph-name="ydieresis" unicode="&#xff;" horiz-adv-x="576" d="M162 0 L225 0 L156 -179 L334 -179 L578 527 L391 527 L280 144 L188 527 L1 527 L162 0 Z M53 704 C53 640 101 597 158 597 C219 597 266 640 266 701 C266 763 221 808 162 808 C101 808 53 767 53 704 L53 704 Z M309 704 C309 640 357 597 415 597 C476 597 523 640 523 701 C523 763 477 808 418 808 C357 808 309 767 309 704 L309 704 Z " />
<glyph glyph-name="Amacron" unicode="&#x100;" horiz-adv-x="668" d="M-1 0 L178 0 L216 122 L453 122 L491 0 L669 0 L445 695 L223 695 L-1 0 Z M138 783 L529 783 L529 930 L138 930 L138 783 Z M262 270 L334 503 L407 270 L262 270 Z " />
<glyph glyph-name="amacron" unicode="&#x101;" horiz-adv-x="642" d="M287 -13 C348 -13 396 7 431 41 L431 0 L598 0 L598 527 L431 527 L431 485 C396 520 348 540 287 540 C143 540 24 427 24 268 C24 109 134 -13 287 -13 L287 -13 Z M152 632 L507 632 L507 775 L152 775 L152 632 Z M204 264 C204 332 250 380 314 380 C379 380 424 332 424 264 C424 194 379 146 314 146 C250 146 204 194 204 264 L204 264 Z " />
<glyph glyph-name="Abreve" unicode="&#x102;" horiz-adv-x="668" d="M-1 0 L178 0 L216 122 L453 122 L491 0 L669 0 L445 695 L223 695 L-1 0 Z M131 956 C131 838 209 755 333 755 C458 755 536 838 536 956 L388 956 C388 915 367 888 333 888 C299 888 278 915 278 956 L131 956 Z M262 270 L334 503 L407 270 L262 270 Z " />
<glyph glyph-name="abreve" unicode="&#x103;" horiz-adv-x="642" d="M287 -13 C348 -13 396 7 431 41 L431 0 L598 0 L598 527 L431 527 L431 485 C396 520 348 540 287 540 C143 540 24 427 24 268 C24 109 134 -13 287 -13 L287 -13 Z M127 810 C127 680 203 597 330 597 C458 597 533 680 533 810 L392 810 C392 754 366 729 330 729 C295 729 268 754 268 810 L127 810 Z M204 264 C204 332 250 380 314 380 C379 380 424 332 424 264 C424 194 379 146 314 146 C250 146 204 194 204 264 L204 264 Z " />
<glyph glyph-name="Aogonek" unicode="&#x104;" horiz-adv-x="668" d="M-1 0 L178 0 L216 122 L453 122 L491 0 L538 0 C484 -41 457 -84 457 -130 C457 -197 510 -241 589 -241 C641 -241 686 -224 711 -198 L648 -114 C639 -124 629 -127 618 -127 C603 -127 592 -117 592 -100 C592 -83 600 -69 627 -42 L670 0 L669 1 L445 695 L223 695 L-1 0 Z M262 270 L334 503 L407 270 L262 270 Z " />
<glyph glyph-name="aogonek" unicode="&#x105;" horiz-adv-x="642" d="M287 -13 C348 -13 396 7 431 41 L431 0 L466 0 C412 -41 385 -84 385 -130 C385 -197 438 -241 517 -241 C569 -241 614 -224 639 -198 L576 -114 C567 -124 557 -127 546 -127 C531 -127 520 -117 520 -100 C520 -83 528 -69 555 -42 L598 0 L598 527 L431 527 L431 485 C396 520 348 540 287 540 C143 540 24 427 24 268 C24 109 134 -13 287 -13 L287 -13 Z M204 264 C204 332 250 380 314 380 C379 380 424 332 424 264 C424 194 379 146 314 146 C250 146 204 194 204 264 L204 264 Z " />
<glyph glyph-name="Cacute" unicode="&#x106;" horiz-adv-x="696" d="M394 -13 C529 -13 624 51 676 117 L549 244 C517 199 468 158 395 158 C290 158 214 234 214 347 C214 461 290 537 395 537 C467 537 517 496 549 451 L675 578 C623 644 528 708 393 708 C183 708 29 557 29 347 C29 138 183 -13 394 -13 L394 -13 Z M218 870 L258 740 L578 827 L533 976 L218 870 Z " />
<glyph glyph-name="cacute" unicode="&#x107;" horiz-adv-x="576" d="M308 -13 C421 -13 492 36 531 78 L416 193 C398 171 366 148 320 148 C255 148 205 191 205 263 C205 336 255 378 320 378 C366 378 398 355 416 333 L531 448 C492 490 421 540 307 540 C142 540 23 417 23 263 C23 109 142 -13 308 -13 L308 -13 Z M134 676 L206 560 L470 710 L388 843 L134 676 Z " />
<glyph glyph-name="Cdotaccent" unicode="&#x10a;" horiz-adv-x="696" d="M394 -13 C529 -13 624 51 676 117 L549 244 C517 199 468 158 395 158 C290 158 214 234 214 347 C214 461 290 537 395 537 C467 537 517 496 549 451 L675 578 C623 644 528 708 393 708 C183 708 29 557 29 347 C29 138 183 -13 394 -13 L394 -13 Z M277 858 C277 792 327 746 387 746 C450 746 499 792 499 854 C499 920 451 965 390 965 C327 965 277 922 277 858 L277 858 Z " />
<glyph glyph-name="cdotaccent" unicode="&#x10b;" horiz-adv-x="576" d="M308 -13 C421 -13 492 36 531 78 L416 193 C398 171 366 148 320 148 C255 148 205 191 205 263 C205 336 255 378 320 378 C366 378 398 355 416 333 L531 448 C492 490 421 540 307 540 C142 540 23 417 23 263 C23 109 142 -13 308 -13 L308 -13 Z M193 703 C193 639 242 595 305 595 C367 595 416 639 416 703 C416 766 367 813 305 813 C242 813 193 766 193 703 L193 703 Z " />
<glyph glyph-name="Ccaron" unicode="&#x10c;" horiz-adv-x="696" d="M394 -13 C529 -13 624 51 676 117 L549 244 C517 199 468 158 395 158 C290 158 214 234 214 347 C214 461 290 537 395 537 C467 537 517 496 549 451 L675 578 C623 644 528 708 393 708 C183 708 29 557 29 347 C29 138 183 -13 394 -13 L394 -13 Z M162 956 L316 755 L464 755 L613 956 L453 956 L388 876 L322 956 L162 956 Z " />
<glyph glyph-name="ccaron" unicode="&#x10d;" horiz-adv-x="576" d="M308 -13 C421 -13 492 36 531 78 L416 193 C398 171 366 148 320 148 C255 148 205 191 205 263 C205 336 255 378 320 378 C366 378 398 355 416 333 L531 448 C492 490 421 540 307 540 C142 540 23 417 23 263 C23 109 142 -13 308 -13 L308 -13 Z M87 810 L229 597 L385 597 L522 810 L367 810 L304 714 L243 810 L87 810 Z " />
<glyph glyph-name="Dcaron" unicode="&#x10e;" horiz-adv-x="727" d="M55 0 L335 0 C550 0 697 135 697 348 C697 561 550 695 335 695 L55 695 L55 0 Z M113 955 L267 754 L415 754 L564 955 L404 955 L339 875 L273 955 L113 955 Z M237 161 L237 534 L329 534 C440 534 512 470 512 345 C512 225 440 161 329 161 L237 161 Z " />
<glyph glyph-name="dcaron" unicode="&#x10f;" horiz-adv-x="761" d="M287 -13 C346 -13 394 5 431 38 L431 0 L598 0 L598 731 L417 731 L417 498 C381 525 336 540 283 540 C129 540 24 421 24 263 C24 105 134 -13 287 -13 L287 -13 Z M204 263 C204 331 250 380 314 380 C380 380 425 332 425 263 C425 194 380 146 314 146 C250 146 204 195 204 263 L204 263 Z M643 467 L759 467 L791 732 L663 732 L643 467 Z " />
<glyph glyph-name="Dcroat" unicode="&#x110;" horiz-adv-x="740" d="M69 0 L349 0 C564 0 711 135 711 348 C711 561 564 695 349 695 L69 695 L69 413 L16 413 L16 289 L69 289 L69 0 Z M251 161 L251 289 L398 289 L398 413 L251 413 L251 534 L343 534 C454 534 526 470 526 345 C526 225 454 161 343 161 L251 161 Z " />
<glyph glyph-name="dcroat" unicode="&#x111;" horiz-adv-x="642" d="M287 -13 C346 -13 394 5 431 38 L431 0 L598 0 L598 568 L658 568 L658 692 L598 692 L598 731 L417 731 L417 692 L276 692 L276 568 L417 568 L417 498 C381 525 336 540 283 540 C129 540 24 421 24 263 C24 105 134 -13 287 -13 L287 -13 Z M204 263 C204 331 250 380 314 380 C380 380 425 332 425 263 C425 194 380 146 314 146 C250 146 204 195 204 263 L204 263 Z " />
<glyph glyph-name="Emacron" unicode="&#x112;" horiz-adv-x="578" d="M55 0 L543 0 L543 158 L237 158 L237 272 L500 272 L500 430 L237 430 L237 537 L538 537 L538 695 L55 695 L55 0 Z M100 783 L491 783 L491 930 L100 930 L100 783 Z " />
<glyph glyph-name="emacron" unicode="&#x113;" horiz-adv-x="595" d="M309 -14 C430 -14 499 30 546 75 L440 181 C410 150 376 131 316 131 C257 131 215 158 198 211 L570 211 C572 225 574 246 574 274 C574 402 472 540 298 540 C145 540 22 415 22 263 C22 106 133 -14 309 -14 L309 -14 Z M122 631 L477 631 L477 774 L122 774 L122 631 Z M195 319 C208 377 245 406 302 406 C358 406 394 373 407 319 L195 319 Z " />
<glyph glyph-name="Edotaccent" unicode="&#x116;" horiz-adv-x="578" d="M55 0 L543 0 L543 158 L237 158 L237 272 L500 272 L500 430 L237 430 L237 537 L538 537 L538 695 L55 695 L55 0 Z M185 858 C185 792 235 746 295 746 C358 746 407 792 407 854 C407 920 359 965 298 965 C235 965 185 922 185 858 L185 858 Z " />
<glyph glyph-name="edotaccent" unicode="&#x117;" horiz-adv-x="595" d="M309 -14 C430 -14 499 30 546 75 L440 181 C410 150 376 131 316 131 C257 131 215 158 198 211 L570 211 C572 225 574 246 574 274 C574 402 472 540 298 540 C145 540 22 415 22 263 C22 106 133 -14 309 -14 L309 -14 Z M188 702 C188 638 237 594 300 594 C362 594 411 638 411 702 C411 765 362 812 300 812 C237 812 188 765 188 702 L188 702 Z M195 319 C208 377 245 406 302 406 C358 406 394 373 407 319 L195 319 Z " />
<glyph glyph-name="Eogonek" unicode="&#x118;" horiz-adv-x="578" d="M55 0 L412 0 C358 -41 331 -84 331 -130 C331 -197 384 -241 463 -241 C515 -241 560 -224 585 -198 L522 -114 C513 -124 503 -127 492 -127 C477 -127 466 -117 466 -100 C466 -83 474 -69 501 -42 L544 0 L543 1 L543 158 L237 158 L237 272 L500 272 L500 430 L237 430 L237 537 L538 537 L538 695 L55 695 L55 0 Z " />
<glyph glyph-name="eogonek" unicode="&#x119;" horiz-adv-x="595" d="M379 -220 C431 -220 476 -203 501 -177 L438 -93 C429 -103 419 -106 408 -106 C393 -106 382 -96 382 -79 C382 -62 390 -48 417 -21 L450 12 C491 28 521 52 546 75 L440 181 C410 150 376 131 316 131 C257 131 215 158 198 211 L570 211 C572 225 574 246 574 274 C574 402 472 540 298 540 C145 540 22 415 22 263 C22 112 125 -5 290 -14 C261 -44 247 -76 247 -109 C247 -176 300 -220 379 -220 L379 -220 Z M195 319 C208 377 245 406 302 406 C358 406 394 373 407 319 L195 319 Z " />
<glyph glyph-name="Ecaron" unicode="&#x11a;" horiz-adv-x="578" d="M55 0 L543 0 L543 158 L237 158 L237 272 L500 272 L500 430 L237 430 L237 537 L538 537 L538 695 L55 695 L55 0 Z M71 956 L225 755 L373 755 L522 956 L362 956 L297 876 L231 956 L71 956 Z " />
<glyph glyph-name="ecaron" unicode="&#x11b;" horiz-adv-x="595" d="M309 -14 C430 -14 499 30 546 75 L440 181 C410 150 376 131 316 131 C257 131 215 158 198 211 L570 211 C572 225 574 246 574 274 C574 402 472 540 298 540 C145 540 22 415 22 263 C22 106 133 -14 309 -14 L309 -14 Z M82 809 L224 596 L380 596 L517 809 L362 809 L299 713 L238 809 L82 809 Z M195 319 C208 377 245 406 302 406 C358 406 394 373 407 319 L195 319 Z " />
<glyph glyph-name="Gbreve" unicode="&#x11e;" horiz-adv-x="777" d="M396 -13 C597 -13 754 122 754 380 L391 380 L391 243 L566 243 C537 184 479 150 404 150 C289 150 214 224 214 344 C214 461 285 537 392 537 C458 537 515 507 543 466 L674 597 C628 646 535 708 396 708 C186 708 29 555 29 347 C29 139 184 -13 396 -13 L396 -13 Z M189 956 C189 838 267 755 391 755 C516 755 594 838 594 956 L446 956 C446 915 425 888 391 888 C357 888 336 915 336 956 L189 956 Z " />
<glyph glyph-name="gbreve" unicode="&#x11f;" horiz-adv-x="640" d="M286 26 C347 26 395 46 430 79 L430 68 C430 3 378 -42 290 -42 C238 -42 187 -24 157 10 L43 -105 C93 -162 174 -192 298 -192 C494 -192 597 -78 597 86 L597 527 L430 527 L430 487 C395 520 347 540 286 540 C133 540 23 421 23 281 C23 140 133 26 286 26 L286 26 Z M107 810 C107 680 183 597 310 597 C438 597 513 680 513 810 L372 810 C372 754 346 729 310 729 C275 729 248 754 248 810 L107 810 Z M204 272 C204 332 249 380 311 380 C375 380 419 333 419 272 C419 210 374 163 310 163 C249 163 204 212 204 272 L204 272 Z " />
<glyph glyph-name="Gdotaccent" unicode="&#x120;" horiz-adv-x="777" d="M396 -13 C597 -13 754 122 754 380 L391 380 L391 243 L566 243 C537 184 479 150 404 150 C289 150 214 224 214 344 C214 461 285 537 392 537 C458 537 515 507 543 466 L674 597 C628 646 535 708 396 708 C186 708 29 555 29 347 C29 139 184 -13 396 -13 L396 -13 Z M281 858 C281 792 331 746 391 746 C454 746 503 792 503 854 C503 920 455 965 394 965 C331 965 281 922 281 858 L281 858 Z " />
<glyph glyph-name="gdotaccent" unicode="&#x121;" horiz-adv-x="640" d="M286 26 C347 26 395 46 430 79 L430 68 C430 3 378 -42 290 -42 C238 -42 187 -24 157 10 L43 -105 C93 -162 174 -192 298 -192 C494 -192 597 -78 597 86 L597 527 L430 527 L430 487 C395 520 347 540 286 540 C133 540 23 421 23 281 C23 140 133 26 286 26 L286 26 Z M199 703 C199 639 248 595 311 595 C373 595 422 639 422 703 C422 766 373 813 311 813 C248 813 199 766 199 703 L199 703 Z M204 272 C204 332 249 380 311 380 C375 380 419 333 419 272 C419 210 374 163 310 163 C249 163 204 212 204 272 L204 272 Z " />
<glyph glyph-name="uni0122" unicode="&#x122;" horiz-adv-x="777" d="M396 -13 C597 -13 754 122 754 380 L391 380 L391 243 L566 243 C537 184 479 150 404 150 C289 150 214 224 214 344 C214 461 285 537 392 537 C458 537 515 507 543 466 L674 597 C628 646 535 708 396 708 C186 708 29 555 29 347 C29 139 184 -13 396 -13 L396 -13 Z M304 -130 C304 -167 324 -195 352 -208 L344 -223 L310 -279 L391 -310 L424 -259 C463 -200 476 -170 476 -132 C476 -81 439 -47 391 -47 C342 -47 304 -80 304 -130 L304 -130 Z " />
<glyph glyph-name="uni0123" unicode="&#x123;" horiz-adv-x="640" d="M286 26 C347 26 395 46 430 79 L430 68 C430 3 378 -42 290 -42 C238 -42 187 -24 157 10 L43 -105 C93 -162 174 -192 298 -192 C494 -192 597 -78 597 86 L597 527 L430 527 L430 487 C395 520 347 540 286 540 C133 540 23 421 23 281 C23 140 133 26 286 26 L286 26 Z M204 272 C204 332 249 380 311 380 C375 380 419 333 419 272 C419 210 374 163 310 163 C249 163 204 212 204 272 L204 272 Z M226 672 C226 621 263 587 311 587 C360 587 398 620 398 670 C398 707 378 735 350 748 L358 763 L392 819 L311 850 L278 799 C239 740 226 710 226 672 L226 672 Z " />
<glyph glyph-name="Hbar" unicode="&#x126;" horiz-adv-x="745" d="M482 0 L664 0 L664 495 L725 495 L725 637 L664 637 L664 695 L482 695 L482 637 L263 637 L263 695 L81 695 L81 637 L20 637 L20 495 L81 495 L81 0 L263 0 L263 270 L482 270 L482 0 Z M263 432 L263 495 L482 495 L482 432 L263 432 Z " />
<glyph glyph-name="hbar" unicode="&#x127;" horiz-adv-x="604" d="M383 301 L383 0 L565 0 L565 336 C565 455 484 540 362 540 C307 540 260 524 225 498 L225 568 L366 568 L366 692 L225 692 L225 731 L44 731 L44 692 L-16 692 L-16 568 L44 568 L44 0 L225 0 L225 304 C226 348 262 378 305 378 C348 378 383 350 383 301 L383 301 Z " />
<glyph glyph-name="Itilde" unicode="&#x128;" horiz-adv-x="292" d="M55 0 L237 0 L237 695 L55 695 L55 0 Z M-79 810 L46 758 C53 785 69 798 94 798 C139 798 161 751 232 751 C319 751 367 819 387 887 L260 939 C253 912 237 899 214 899 C171 899 146 946 76 946 C-14 946 -63 873 -79 810 L-79 810 Z " />
<glyph glyph-name="itilde" unicode="&#x129;" horiz-adv-x="269" d="M44 0 L225 0 L225 527 L44 527 L44 0 Z M-51 664 L53 612 C59 639 74 652 92 652 C127 652 149 605 204 605 C274 605 305 673 321 741 L215 793 C210 766 195 753 179 753 C141 753 121 800 66 800 C-5 800 -37 729 -51 664 L-51 664 Z " />
<glyph glyph-name="Imacron" unicode="&#x12a;" horiz-adv-x="292" d="M55 0 L237 0 L237 695 L55 695 L55 0 Z M7 783 L288 783 L288 930 L7 930 L7 783 Z " />
<glyph glyph-name="imacron" unicode="&#x12b;" horiz-adv-x="269" d="M44 0 L225 0 L225 527 L44 527 L44 0 Z M-7 631 L277 631 L277 774 L-7 774 L-7 631 Z " />
<glyph glyph-name="Iogonek" unicode="&#x12e;" horiz-adv-x="292" d="M55 0 L105 0 C51 -41 24 -84 24 -130 C24 -197 77 -241 156 -241 C208 -241 253 -224 278 -198 L215 -114 C206 -124 196 -127 185 -127 C170 -127 159 -117 159 -100 C159 -83 167 -69 194 -42 L237 0 L237 695 L55 695 L55 0 Z " />
<glyph glyph-name="iogonek" unicode="&#x12f;" horiz-adv-x="269" d="M44 0 L90 0 C36 -41 9 -84 9 -130 C9 -197 62 -241 141 -241 C193 -241 238 -224 263 -198 L200 -114 C191 -124 181 -127 170 -127 C155 -127 144 -117 144 -100 C144 -83 152 -69 179 -42 L222 0 L225 0 L225 527 L44 527 L44 0 Z M24 702 C24 638 73 594 136 594 C198 594 247 638 247 702 C247 765 198 812 136 812 C73 812 24 765 24 702 L24 702 Z " />
<glyph glyph-name="Idotaccent" unicode="&#x130;" horiz-adv-x="292" d="M55 0 L237 0 L237 695 L55 695 L55 0 Z M35 858 C35 792 85 746 145 746 C208 746 257 792 257 854 C257 920 209 965 148 965 C85 965 35 922 35 858 L35 858 Z " />
<glyph glyph-name="dotlessi" unicode="&#x131;" horiz-adv-x="269" d="M44 0 L225 0 L225 527 L44 527 L44 0 Z " />
<glyph glyph-name="IJ" unicode="&#x132;" horiz-adv-x="641" d="M55 0 L237 0 L237 695 L55 695 L55 0 Z M307 0 L359 0 C514 0 591 90 591 226 L591 695 L408 695 L408 229 C408 187 388 162 344 162 L307 162 L307 0 Z " />
<glyph glyph-name="ij" unicode="&#x133;" horiz-adv-x="565" d="M44 0 L225 0 L225 527 L44 527 L44 0 Z M24 702 C24 638 73 594 136 594 C198 594 247 638 247 702 C247 765 198 812 136 812 C73 812 24 765 24 702 L24 702 Z M257 -31 L258 -186 L291 -186 C421 -186 521 -100 521 51 L521 527 L339 527 L339 48 C339 -2 310 -31 267 -31 L257 -31 Z M323 703 C323 639 372 595 435 595 C497 595 546 639 546 703 C546 766 497 813 435 813 C372 813 323 766 323 703 L323 703 Z " />
<glyph glyph-name="uni0136" unicode="&#x136;" horiz-adv-x="663" d="M462 0 L669 0 L413 353 L670 695 L462 695 L237 395 L237 695 L55 695 L55 0 L237 0 L237 312 L462 0 Z M272 -130 C272 -167 292 -195 320 -208 L312 -223 L278 -279 L359 -310 L392 -259 C431 -200 444 -170 444 -132 C444 -81 407 -47 359 -47 C310 -47 272 -80 272 -130 L272 -130 Z " />
<glyph glyph-name="uni0137" unicode="&#x137;" horiz-adv-x="561" d="M44 0 L225 0 L225 226 L377 0 L572 0 L385 285 L572 527 L371 527 L225 331 L225 731 L44 731 L44 0 Z M186 -130 C186 -167 206 -195 234 -208 L226 -223 L192 -279 L273 -310 L306 -259 C345 -200 358 -170 358 -132 C358 -81 321 -47 273 -47 C224 -47 186 -80 186 -130 L186 -130 Z " />
<glyph glyph-name="kgreenlandic" unicode="&#x138;" horiz-adv-x="561" d="M44 0 L225 0 L225 215 L377 0 L572 0 L382 279 L572 527 L371 527 L225 320 L225 527 L44 527 L44 0 Z " />
<glyph glyph-name="Lacute" unicode="&#x139;" horiz-adv-x="551" d="M55 0 L538 0 L538 162 L237 162 L237 695 L55 695 L55 0 Z M-23 870 L17 740 L337 827 L292 976 L-23 870 Z " />
<glyph glyph-name="lacute" unicode="&#x13a;" horiz-adv-x="269" d="M44 0 L225 0 L225 731 L44 731 L44 0 Z M-35 906 L5 776 L325 863 L280 1012 L-35 906 Z " />
<glyph glyph-name="uni013B" unicode="&#x13b;" horiz-adv-x="551" d="M55 0 L538 0 L538 162 L237 162 L237 695 L55 695 L55 0 Z M210 -130 C210 -167 230 -195 258 -208 L250 -223 L216 -279 L297 -310 L330 -259 C369 -200 382 -170 382 -132 C382 -81 345 -47 297 -47 C248 -47 210 -80 210 -130 L210 -130 Z " />
<glyph glyph-name="uni013C" unicode="&#x13c;" horiz-adv-x="269" d="M44 0 L225 0 L225 731 L44 731 L44 0 Z M45 -130 C45 -167 65 -195 93 -208 L85 -223 L51 -279 L132 -310 L165 -259 C204 -200 217 -170 217 -132 C217 -81 180 -47 132 -47 C83 -47 45 -80 45 -130 L45 -130 Z " />
<glyph glyph-name="Lcaron" unicode="&#x13d;" horiz-adv-x="556" d="M55 0 L538 0 L538 162 L237 162 L237 695 L55 695 L55 0 Z M354 441 L470 441 L502 706 L374 706 L354 441 Z " />
<glyph glyph-name="lcaron" unicode="&#x13e;" horiz-adv-x="388" d="M44 0 L225 0 L225 731 L44 731 L44 0 Z M270 467 L386 467 L418 732 L290 732 L270 467 Z " />
<glyph glyph-name="Ldot" unicode="&#x13f;" horiz-adv-x="568" d="M55 0 L538 0 L538 162 L237 162 L237 695 L55 695 L55 0 Z M346 433 C346 378 388 337 443 337 C498 337 540 378 540 433 C540 489 498 531 443 531 C388 531 346 489 346 433 L346 433 Z " />
<glyph glyph-name="ldot" unicode="&#x140;" horiz-adv-x="438" d="M44 0 L225 0 L225 731 L44 731 L44 0 Z M257 372 C257 317 299 276 354 276 C409 276 451 317 451 372 C451 428 409 470 354 470 C299 470 257 428 257 372 L257 372 Z " />
<glyph glyph-name="Lslash" unicode="&#x141;" horiz-adv-x="612" d="M117 0 L600 0 L600 162 L299 162 L299 339 L419 380 L383 493 L299 464 L299 695 L117 695 L117 402 L13 367 L50 253 L117 276 L117 0 Z " />
<glyph glyph-name="lslash" unicode="&#x142;" horiz-adv-x="402" d="M112 0 L293 0 L293 340 L408 404 L341 517 L293 491 L293 731 L112 731 L112 391 L-2 328 L65 214 L112 240 L112 0 Z " />
<glyph glyph-name="Nacute" unicode="&#x143;" horiz-adv-x="694" d="M489 0 L639 0 L639 695 L458 695 L458 311 L206 695 L55 695 L55 0 L236 0 L236 381 L489 0 Z M162 870 L202 740 L522 827 L477 976 L162 870 Z " />
<glyph glyph-name="nacute" unicode="&#x144;" horiz-adv-x="604" d="M383 301 L383 0 L565 0 L565 336 C565 455 484 540 362 540 C301 540 251 520 215 490 L215 527 L44 527 L44 0 L225 0 L225 304 C226 348 262 378 305 378 C348 378 383 350 383 301 L383 301 Z M141 675 L213 559 L477 709 L395 842 L141 675 Z " />
<glyph glyph-name="uni0145" unicode="&#x145;" horiz-adv-x="694" d="M489 0 L639 0 L639 695 L458 695 L458 311 L206 695 L55 695 L55 0 L236 0 L236 381 L489 0 Z M273 -130 C273 -167 293 -195 321 -208 L313 -223 L279 -279 L360 -310 L393 -259 C432 -200 445 -170 445 -132 C445 -81 408 -47 360 -47 C311 -47 273 -80 273 -130 L273 -130 Z " />
<glyph glyph-name="uni0146" unicode="&#x146;" horiz-adv-x="604" d="M383 301 L383 0 L565 0 L565 336 C565 455 484 540 362 540 C301 540 251 520 215 490 L215 527 L44 527 L44 0 L225 0 L225 304 C226 348 262 378 305 378 C348 378 383 350 383 301 L383 301 Z M211 -130 C211 -167 231 -195 259 -208 L251 -223 L217 -279 L298 -310 L331 -259 C370 -200 383 -170 383 -132 C383 -81 346 -47 298 -47 C249 -47 211 -80 211 -130 L211 -130 Z " />
<glyph glyph-name="Ncaron" unicode="&#x147;" horiz-adv-x="694" d="M489 0 L639 0 L639 695 L458 695 L458 311 L206 695 L55 695 L55 0 L236 0 L236 381 L489 0 Z M105 956 L259 755 L407 755 L556 956 L396 956 L331 876 L265 956 L105 956 Z " />
<glyph glyph-name="ncaron" unicode="&#x148;" horiz-adv-x="604" d="M383 301 L383 0 L565 0 L565 336 C565 455 484 540 362 540 C301 540 251 520 215 490 L215 527 L44 527 L44 0 L225 0 L225 304 C226 348 262 378 305 378 C348 378 383 350 383 301 L383 301 Z M94 809 L236 596 L392 596 L529 809 L374 809 L311 713 L250 809 L94 809 Z " />
<glyph glyph-name="napostrophe" unicode="&#x149;" horiz-adv-x="739" d="M518 301 L518 0 L700 0 L700 336 C700 455 619 540 497 540 C436 540 386 520 350 490 L350 527 L179 527 L179 0 L360 0 L360 304 C361 348 397 378 440 378 C483 378 518 350 518 301 L518 301 Z M9 506 L125 506 L157 771 L29 771 L9 506 Z " />
<glyph glyph-name="Eng" unicode="&#x14a;" horiz-adv-x="694" d="M391 -235 L419 -235 C563 -235 639 -145 639 -8 L639 695 L458 695 L458 311 L206 695 L55 695 L55 0 L236 0 L236 381 L487 3 L487 -6 C487 -47 466 -73 422 -73 L391 -73 L391 -235 Z " />
<glyph glyph-name="eng" unicode="&#x14b;" horiz-adv-x="604" d="M383 301 L383 39 C383 -5 360 -31 323 -31 L313 -31 L313 -186 L339 -186 C465 -186 565 -100 565 42 L565 336 C565 455 484 540 362 540 C301 540 251 520 215 490 L215 527 L44 527 L44 0 L225 0 L225 304 C226 348 262 378 305 378 C348 378 383 350 383 301 L383 301 Z " />
<glyph glyph-name="Omacron" unicode="&#x14c;" horiz-adv-x="794" d="M397 -13 C603 -13 766 145 766 347 C766 551 603 708 397 708 C191 708 28 551 28 347 C28 145 191 -13 397 -13 L397 -13 Z M201 783 L592 783 L592 930 L201 930 L201 783 Z M213 348 C213 457 283 537 397 537 C511 537 581 457 581 348 C581 237 509 158 397 158 C286 158 213 237 213 348 L213 348 Z " />
<glyph glyph-name="omacron" unicode="&#x14d;" horiz-adv-x="627" d="M313 -13 C483 -13 604 106 604 263 C604 421 483 540 313 540 C143 540 23 421 23 263 C23 106 143 -13 313 -13 L313 -13 Z M139 631 L494 631 L494 774 L139 774 L139 631 Z M205 263 C205 331 248 378 315 378 C380 378 422 331 422 264 C422 195 379 148 315 148 C248 148 205 196 205 263 L205 263 Z " />
<glyph glyph-name="Ohungarumlaut" unicode="&#x150;" horiz-adv-x="794" d="M397 -13 C603 -13 766 145 766 347 C766 551 603 708 397 708 C191 708 28 551 28 347 C28 145 191 -13 397 -13 L397 -13 Z M156 814 L266 734 L418 921 L293 1012 L156 814 Z M213 348 C213 457 283 537 397 537 C511 537 581 457 581 348 C581 237 509 158 397 158 C286 158 213 237 213 348 L213 348 Z M409 814 L519 734 L670 921 L546 1012 L409 814 Z " />
<glyph glyph-name="ohungarumlaut" unicode="&#x151;" horiz-adv-x="627" d="M313 -13 C483 -13 604 106 604 263 C604 421 483 540 313 540 C143 540 23 421 23 263 C23 106 143 -13 313 -13 L313 -13 Z M81 639 L191 559 L343 743 L218 835 L81 639 Z M205 263 C205 331 248 378 315 378 C380 378 422 331 422 264 C422 195 379 148 315 148 C248 148 205 196 205 263 L205 263 Z M332 639 L443 559 L594 743 L470 835 L332 639 Z " />
<glyph glyph-name="OE" unicode="&#x152;" horiz-adv-x="1104" d="M397 -13 C469 -13 531 6 581 39 L581 0 L1069 0 L1069 158 L763 158 L763 272 L1025 272 L1025 430 L763 430 L763 537 L1064 537 L1064 695 L581 695 L581 656 C531 689 469 708 397 708 C191 708 28 551 28 347 C28 145 191 -13 397 -13 L397 -13 Z M213 348 C213 457 283 537 397 537 C511 537 581 457 581 348 C581 237 509 158 397 158 C286 158 213 237 213 348 L213 348 Z " />
<glyph glyph-name="oe" unicode="&#x153;" horiz-adv-x="999" d="M313 -13 C393 -13 462 13 512 57 C562 13 630 -14 713 -14 C834 -14 903 30 950 75 L844 181 C814 150 780 131 720 131 C661 131 619 158 602 211 L974 211 C976 225 978 246 978 274 C978 402 876 540 702 540 C630 540 565 512 515 467 C464 513 394 540 313 540 C143 540 23 421 23 263 C23 106 143 -13 313 -13 L313 -13 Z M205 263 C205 331 248 378 315 378 C380 378 422 331 422 264 C422 195 379 148 315 148 C248 148 205 196 205 263 L205 263 Z M599 319 C612 377 649 406 706 406 C762 406 798 373 811 319 L599 319 Z " />
<glyph glyph-name="Racute" unicode="&#x154;" horiz-adv-x="638" d="M55 0 L235 0 L235 271 L245 271 L419 0 L620 0 L433 280 C539 306 604 384 604 483 C604 606 507 695 353 695 L55 695 L55 0 Z M141 870 L181 740 L501 827 L456 976 L141 870 Z M235 399 L235 536 L348 536 C397 536 426 510 426 467 C426 425 397 399 348 399 L235 399 Z " />
<glyph glyph-name="racute" unicode="&#x155;" horiz-adv-x="372" d="M44 0 L225 0 L225 275 C225 342 270 370 357 370 L357 540 C300 540 251 519 215 486 L215 527 L44 527 L44 0 Z M26 675 L98 559 L362 709 L280 842 L26 675 Z " />
<glyph glyph-name="uni0156" unicode="&#x156;" horiz-adv-x="638" d="M55 0 L235 0 L235 271 L245 271 L419 0 L620 0 L433 280 C539 306 604 384 604 483 C604 606 507 695 353 695 L55 695 L55 0 Z M231 -130 C231 -167 251 -195 279 -208 L271 -223 L237 -279 L318 -310 L351 -259 C390 -200 403 -170 403 -132 C403 -81 366 -47 318 -47 C269 -47 231 -80 231 -130 L231 -130 Z M235 399 L235 536 L348 536 C397 536 426 510 426 467 C426 425 397 399 348 399 L235 399 Z " />
<glyph glyph-name="uni0157" unicode="&#x157;" horiz-adv-x="372" d="M44 0 L225 0 L225 275 C225 342 270 370 357 370 L357 540 C300 540 251 519 215 486 L215 527 L44 527 L44 0 Z M45 -130 C45 -167 65 -195 93 -208 L85 -223 L51 -279 L132 -310 L165 -259 C204 -200 217 -170 217 -132 C217 -81 180 -47 132 -47 C83 -47 45 -80 45 -130 L45 -130 Z " />
<glyph glyph-name="Rcaron" unicode="&#x158;" horiz-adv-x="638" d="M55 0 L235 0 L235 271 L245 271 L419 0 L620 0 L433 280 C539 306 604 384 604 483 C604 606 507 695 353 695 L55 695 L55 0 Z M85 956 L239 755 L387 755 L536 956 L376 956 L311 876 L245 956 L85 956 Z M235 399 L235 536 L348 536 C397 536 426 510 426 467 C426 425 397 399 348 399 L235 399 Z " />
<glyph glyph-name="rcaron" unicode="&#x159;" horiz-adv-x="372" d="M44 0 L225 0 L225 275 C225 342 270 370 357 370 L357 540 C300 540 251 519 215 486 L215 527 L44 527 L44 0 Z M-20 809 L122 596 L278 596 L415 809 L260 809 L197 713 L136 809 L-20 809 Z " />
<glyph glyph-name="Sacute" unicode="&#x15a;" horiz-adv-x="605" d="M295 -13 C469 -13 576 74 576 198 C576 464 230 397 230 502 C230 534 261 554 312 554 C370 554 414 528 447 494 L563 610 C518 660 436 708 324 708 C150 708 49 619 49 492 C49 240 392 310 392 195 C392 162 359 143 308 143 C238 143 182 176 140 224 L17 101 C69 37 165 -13 295 -13 L295 -13 Z M138 870 L178 740 L498 827 L453 976 L138 870 Z " />
<glyph glyph-name="sacute" unicode="&#x15b;" horiz-adv-x="510" d="M252 -13 C398 -13 491 54 491 165 C491 278 396 308 320 328 C254 344 215 352 215 379 C215 400 239 409 270 409 C308 409 348 399 385 352 L485 453 C439 506 365 540 269 540 C128 540 42 461 42 371 C42 269 121 232 191 216 C282 194 318 187 318 156 C318 131 293 119 250 119 C205 119 157 138 121 185 L13 78 C67 16 152 -13 252 -13 L252 -13 Z M89 675 L161 559 L425 709 L343 842 L89 675 Z " />
<glyph glyph-name="Scedilla" unicode="&#x15e;" horiz-adv-x="605" d="M297 -242 C379 -242 436 -199 436 -132 C436 -82 404 -44 365 -38 L376 -6 C502 17 576 95 576 198 C576 464 230 397 230 502 C230 534 261 554 312 554 C370 554 414 528 447 494 L563 610 C518 660 436 708 324 708 C150 708 49 619 49 492 C49 240 392 310 392 195 C392 162 359 143 308 143 C238 143 182 176 140 224 L17 101 C65 42 151 -6 267 -12 L246 -76 L254 -83 L269 -83 C295 -83 308 -98 308 -115 C308 -133 294 -145 271 -145 C250 -145 235 -136 224 -122 L166 -195 C191 -222 240 -242 297 -242 L297 -242 Z " />
<glyph glyph-name="scedilla" unicode="&#x15f;" horiz-adv-x="510" d="M239 -242 C321 -242 378 -199 378 -132 C378 -82 346 -44 307 -38 L317 -8 C425 9 491 72 491 165 C491 278 396 308 320 328 C254 344 215 352 215 379 C215 400 239 409 270 409 C308 409 348 399 385 352 L485 453 C439 506 365 540 269 540 C128 540 42 461 42 371 C42 269 121 232 191 216 C282 194 318 187 318 156 C318 131 293 119 250 119 C205 119 157 138 121 185 L13 78 C59 25 128 -4 210 -11 L188 -76 L196 -83 L211 -83 C237 -83 250 -98 250 -115 C250 -133 236 -145 213 -145 C192 -145 177 -136 166 -122 L108 -195 C133 -222 182 -242 239 -242 L239 -242 Z " />
<glyph glyph-name="Scaron" unicode="&#x160;" horiz-adv-x="605" d="M295 -13 C469 -13 576 74 576 198 C576 464 230 397 230 502 C230 534 261 554 312 554 C370 554 414 528 447 494 L563 610 C518 660 436 708 324 708 C150 708 49 619 49 492 C49 240 392 310 392 195 C392 162 359 143 308 143 C238 143 182 176 140 224 L17 101 C69 37 165 -13 295 -13 L295 -13 Z M84 956 L238 755 L386 755 L535 956 L375 956 L310 876 L244 956 L84 956 Z " />
<glyph glyph-name="scaron" unicode="&#x161;" horiz-adv-x="510" d="M252 -13 C398 -13 491 54 491 165 C491 278 396 308 320 328 C254 344 215 352 215 379 C215 400 239 409 270 409 C308 409 348 399 385 352 L485 453 C439 506 365 540 269 540 C128 540 42 461 42 371 C42 269 121 232 191 216 C282 194 318 187 318 156 C318 131 293 119 250 119 C205 119 157 138 121 185 L13 78 C67 16 152 -13 252 -13 L252 -13 Z M42 809 L184 596 L340 596 L477 809 L322 809 L259 713 L198 809 L42 809 Z " />
<glyph glyph-name="uni0162" unicode="&#x162;" horiz-adv-x="603" d="M211 0 L253 0 L227 -77 L235 -84 L250 -84 C276 -84 289 -99 289 -116 C289 -134 275 -146 252 -146 C231 -146 216 -137 205 -123 L147 -196 C172 -223 221 -243 278 -243 C360 -243 417 -200 417 -133 C417 -83 385 -45 346 -39 L359 0 L393 0 L393 533 L591 533 L591 695 L12 695 L12 533 L211 533 L211 0 Z " />
<glyph glyph-name="uni0163" unicode="&#x163;" horiz-adv-x="421" d="M308 0 L400 0 L400 158 L347 158 C303 158 278 182 278 230 L278 373 L398 373 L398 527 L284 527 L284 668 L108 668 L108 588 C108 548 88 527 50 527 L10 527 L10 373 L97 373 L97 208 C97 118 133 50 206 19 L178 -66 L186 -73 L201 -73 C227 -73 240 -88 240 -105 C240 -123 226 -135 203 -135 C182 -135 167 -126 156 -112 L98 -185 C123 -212 172 -232 229 -232 C311 -232 368 -189 368 -122 C368 -72 336 -34 297 -28 L307 0 L308 0 Z " />
<glyph glyph-name="Tcaron" unicode="&#x164;" horiz-adv-x="603" d="M211 0 L393 0 L393 533 L591 533 L591 695 L12 695 L12 533 L211 533 L211 0 Z M76 956 L230 755 L378 755 L527 956 L367 956 L302 876 L236 956 L76 956 Z " />
<glyph glyph-name="tcaron" unicode="&#x165;" horiz-adv-x="421" d="M308 0 L400 0 L400 158 L347 158 C303 158 278 182 278 230 L278 373 L398 373 L398 527 L284 527 L284 668 L108 668 L108 588 C108 548 88 527 50 527 L10 527 L10 373 L97 373 L97 208 C97 83 167 0 308 0 L308 0 Z M321 548 L437 548 L469 813 L341 813 L321 548 Z " />
<glyph glyph-name="Tbar" unicode="&#x166;" horiz-adv-x="612" d="M215 0 L397 0 L397 232 L497 232 L497 356 L397 356 L397 533 L595 533 L595 695 L16 695 L16 533 L215 533 L215 356 L115 356 L115 232 L215 232 L215 0 Z " />
<glyph glyph-name="tbar" unicode="&#x167;" horiz-adv-x="425" d="M311 0 L403 0 L403 158 L350 158 C314 158 291 174 283 206 L379 206 L379 330 L281 330 L281 373 L401 373 L401 527 L287 527 L287 668 L111 668 L111 588 C111 548 91 527 53 527 L13 527 L13 373 L100 373 L100 330 L34 330 L34 206 L100 206 C101 82 171 0 311 0 L311 0 Z " />
<glyph glyph-name="Utilde" unicode="&#x168;" horiz-adv-x="677" d="M339 -13 C533 -13 629 118 629 276 L629 695 L447 695 L447 276 C447 205 412 158 339 158 C267 158 231 205 231 276 L231 695 L48 695 L48 276 C48 118 145 -13 339 -13 L339 -13 Z M120 810 L243 758 C250 785 266 798 290 798 C334 798 356 751 425 751 C511 751 558 819 577 887 L453 939 C446 912 430 899 408 899 C366 899 341 946 272 946 C184 946 136 873 120 810 L120 810 Z " />
<glyph glyph-name="utilde" unicode="&#x169;" horiz-adv-x="596" d="M241 -13 C296 -13 345 7 382 38 L382 0 L552 0 L552 527 L371 527 L371 220 C370 175 341 148 296 148 C249 148 221 180 221 222 L221 527 L39 527 L39 197 C39 79 106 -13 241 -13 L241 -13 Z M76 665 L198 613 C205 640 223 653 243 653 C284 653 310 606 374 606 C457 606 493 674 511 742 L388 794 C381 767 364 754 345 754 C301 754 277 801 213 801 C130 801 92 730 76 665 L76 665 Z " />
<glyph glyph-name="Umacron" unicode="&#x16a;" horiz-adv-x="677" d="M339 -13 C533 -13 629 118 629 276 L629 695 L447 695 L447 276 C447 205 412 158 339 158 C267 158 231 205 231 276 L231 695 L48 695 L48 276 C48 118 145 -13 339 -13 L339 -13 Z M143 783 L534 783 L534 930 L143 930 L143 783 Z " />
<glyph glyph-name="umacron" unicode="&#x16b;" horiz-adv-x="596" d="M241 -13 C296 -13 345 7 382 38 L382 0 L552 0 L552 527 L371 527 L371 220 C370 175 341 148 296 148 C249 148 221 180 221 222 L221 527 L39 527 L39 197 C39 79 106 -13 241 -13 L241 -13 Z M116 632 L471 632 L471 775 L116 775 L116 632 Z " />
<glyph glyph-name="Uring" unicode="&#x16e;" horiz-adv-x="677" d="M339 -13 C533 -13 629 118 629 276 L629 695 L447 695 L447 276 C447 205 412 158 339 158 C267 158 231 205 231 276 L231 695 L48 695 L48 276 C48 118 145 -13 339 -13 L339 -13 Z M191 822 C191 738 253 681 339 681 C426 681 486 738 486 822 C486 903 426 962 339 962 C253 962 191 903 191 822 L191 822 Z M295 822 C295 846 313 863 339 863 C364 863 382 846 382 822 C382 797 364 780 339 780 C313 780 295 797 295 822 L295 822 Z " />
<glyph glyph-name="uring" unicode="&#x16f;" horiz-adv-x="596" d="M241 -13 C296 -13 345 7 382 38 L382 0 L552 0 L552 527 L371 527 L371 220 C370 175 341 148 296 148 C249 148 221 180 221 222 L221 527 L39 527 L39 197 C39 79 106 -13 241 -13 L241 -13 Z M146 703 C146 619 208 562 294 562 C381 562 441 619 441 703 C441 784 381 843 294 843 C208 843 146 784 146 703 L146 703 Z M250 703 C250 727 268 744 294 744 C319 744 337 727 337 703 C337 678 319 661 294 661 C268 661 250 678 250 703 L250 703 Z " />
<glyph glyph-name="Uhungarumlaut" unicode="&#x170;" horiz-adv-x="677" d="M339 -13 C533 -13 629 118 629 276 L629 695 L447 695 L447 276 C447 205 412 158 339 158 C267 158 231 205 231 276 L231 695 L48 695 L48 276 C48 118 145 -13 339 -13 L339 -13 Z M98 814 L208 734 L360 921 L235 1012 L98 814 Z M351 814 L461 734 L612 921 L488 1012 L351 814 Z " />
<glyph glyph-name="uhungarumlaut" unicode="&#x171;" horiz-adv-x="596" d="M241 -13 C296 -13 345 7 382 38 L382 0 L552 0 L552 527 L371 527 L371 220 C370 175 341 148 296 148 C249 148 221 180 221 222 L221 527 L39 527 L39 197 C39 79 106 -13 241 -13 L241 -13 Z M58 640 L168 560 L320 744 L195 836 L58 640 Z M309 640 L420 560 L571 744 L447 836 L309 640 Z " />
<glyph glyph-name="Uogonek" unicode="&#x172;" horiz-adv-x="677" d="M48 276 C48 127 135 1 308 -12 C273 -46 255 -81 255 -118 C255 -185 308 -229 387 -229 C439 -229 484 -212 509 -186 L446 -102 C437 -112 427 -115 416 -115 C401 -115 390 -105 390 -88 C390 -71 398 -57 425 -30 L466 10 C575 54 629 157 629 276 L629 695 L447 695 L447 276 C447 205 412 158 339 158 C267 158 231 205 231 276 L231 695 L48 695 L48 276 Z " />
<glyph glyph-name="uogonek" unicode="&#x173;" horiz-adv-x="596" d="M241 -13 C296 -13 345 7 382 38 L382 0 L421 0 C367 -41 340 -84 340 -130 C340 -197 393 -241 472 -241 C524 -241 569 -224 594 -198 L531 -114 C522 -124 512 -127 501 -127 C486 -127 475 -117 475 -100 C475 -83 483 -69 510 -42 L553 0 L552 1 L552 527 L371 527 L371 220 C370 175 341 148 296 148 C249 148 221 180 221 222 L221 527 L39 527 L39 197 C39 79 106 -13 241 -13 L241 -13 Z " />
<glyph glyph-name="Wcircumflex" unicode="&#x174;" horiz-adv-x="936" d="M158 0 L372 0 L469 439 L564 0 L779 0 L935 695 L755 695 L669 213 L567 695 L370 695 L269 215 L181 695 L2 695 L158 0 Z M242 755 L402 755 L468 836 L533 755 L693 755 L544 956 L396 956 L242 755 Z " />
<glyph glyph-name="wcircumflex" unicode="&#x175;" horiz-adv-x="827" d="M137 0 L352 0 L417 313 L486 0 L700 0 L832 527 L647 527 L583 189 L518 527 L316 527 L252 187 L187 527 L3 527 L137 0 Z M195 597 L351 597 L412 692 L475 597 L630 597 L493 810 L337 810 L195 597 Z " />
<glyph glyph-name="Ycircumflex" unicode="&#x176;" horiz-adv-x="669" d="M244 0 L426 0 L426 284 L677 695 L473 695 L335 444 L196 695 L-7 695 L244 283 L244 0 Z M110 755 L270 755 L336 836 L401 755 L561 755 L412 956 L264 956 L110 755 Z " />
<glyph glyph-name="ycircumflex" unicode="&#x177;" horiz-adv-x="576" d="M162 0 L225 0 L156 -179 L334 -179 L578 527 L391 527 L280 144 L188 527 L1 527 L162 0 Z M71 597 L227 597 L288 692 L351 597 L506 597 L369 810 L213 810 L71 597 Z " />
<glyph glyph-name="Ydieresis" unicode="&#x178;" horiz-adv-x="669" d="M244 0 L426 0 L426 284 L677 695 L473 695 L335 444 L196 695 L-7 695 L244 283 L244 0 Z M92 858 C92 791 142 746 202 746 C265 746 314 791 314 854 C314 919 266 965 205 965 C142 965 92 922 92 858 L92 858 Z M357 858 C357 791 407 746 468 746 C531 746 580 791 580 854 C580 919 532 965 470 965 C407 965 357 922 357 858 L357 858 Z " />
<glyph glyph-name="Zacute" unicode="&#x179;" horiz-adv-x="600" d="M30 0 L571 0 L571 163 L300 163 L567 695 L36 695 L36 536 L297 536 L30 0 Z M131 870 L171 740 L491 827 L446 976 L131 870 Z " />
<glyph glyph-name="zacute" unicode="&#x17a;" horiz-adv-x="550" d="M19 0 L520 0 L520 146 L294 146 L531 527 L46 527 L46 381 L258 381 L19 0 Z M79 675 L151 559 L415 709 L333 842 L79 675 Z " />
<glyph glyph-name="Zdotaccent" unicode="&#x17b;" horiz-adv-x="600" d="M30 0 L571 0 L571 163 L300 163 L567 695 L36 695 L36 536 L297 536 L30 0 Z M189 858 C189 792 239 746 299 746 C362 746 411 792 411 854 C411 920 363 965 302 965 C239 965 189 922 189 858 L189 858 Z " />
<glyph glyph-name="zdotaccent" unicode="&#x17c;" horiz-adv-x="550" d="M19 0 L520 0 L520 146 L294 146 L531 527 L46 527 L46 381 L258 381 L19 0 Z M139 702 C139 638 188 594 251 594 C313 594 362 638 362 702 C362 765 313 812 251 812 C188 812 139 765 139 702 L139 702 Z " />
<glyph glyph-name="Zcaron" unicode="&#x17d;" horiz-adv-x="600" d="M30 0 L571 0 L571 163 L300 163 L567 695 L36 695 L36 536 L297 536 L30 0 Z M75 956 L229 755 L377 755 L526 956 L366 956 L301 876 L235 956 L75 956 Z " />
<glyph glyph-name="zcaron" unicode="&#x17e;" horiz-adv-x="550" d="M19 0 L520 0 L520 146 L294 146 L531 527 L46 527 L46 381 L258 381 L19 0 Z M33 809 L175 596 L331 596 L468 809 L313 809 L250 713 L189 809 L33 809 Z " />
<glyph glyph-name="florin" unicode="&#x192;" horiz-adv-x="641" d="M132 324 L236 324 L211 113 C206 69 184 41 134 41 L71 41 L71 -100 L172 -100 C311 -100 371 -17 382 81 L410 324 L535 324 L535 478 L429 478 L429 482 C434 527 457 554 505 554 L569 554 L569 695 L467 695 C340 695 270 613 259 514 L255 478 L132 478 L132 324 Z " />
<glyph glyph-name="uni01EA" unicode="&#x1ea;" horiz-adv-x="794" d="M397 158 C286 158 213 237 213 348 C213 457 283 537 397 537 C511 537 581 457 581 348 C581 237 509 158 397 158 L397 158 Z M28 347 C28 156 174 4 364 -12 C324 -48 304 -85 304 -124 C304 -191 357 -235 436 -235 C488 -235 533 -218 558 -192 L495 -108 C486 -118 476 -121 465 -121 C450 -121 439 -111 439 -94 C439 -77 447 -63 474 -36 L517 6 C663 53 766 186 766 347 C766 551 603 708 397 708 C191 708 28 551 28 347 L28 347 Z " />
<glyph glyph-name="uni01EB" unicode="&#x1eb;" horiz-adv-x="627" d="M315 148 C248 148 205 196 205 263 C205 331 248 378 315 378 C380 378 422 331 422 264 C422 195 379 148 315 148 L315 148 Z M23 263 C23 118 125 6 274 -11 C234 -47 214 -84 214 -123 C214 -190 267 -234 346 -234 C398 -234 443 -217 468 -191 L405 -107 C396 -117 386 -120 375 -120 C360 -120 349 -110 349 -93 C349 -76 357 -62 384 -35 L427 7 C534 47 604 144 604 263 C604 421 483 540 313 540 C143 540 23 421 23 263 L23 263 Z " />
<glyph glyph-name="AEacute" unicode="&#x1fc;" horiz-adv-x="961" d="M-18 0 L172 0 L222 116 L438 116 L438 0 L926 0 L926 158 L620 158 L620 272 L882 272 L882 430 L620 430 L620 537 L921 537 L921 695 L286 695 L-18 0 Z M288 270 L403 537 L438 537 L438 270 L288 270 Z M413 870 L453 740 L773 827 L728 976 L413 870 Z " />
<glyph glyph-name="aeacute" unicode="&#x1fd;" horiz-adv-x="1029" d="M287 -13 C348 -13 396 7 431 41 L431 0 L598 0 L598 51 C640 8 699 -13 769 -13 C877 -13 938 29 981 73 L874 179 C844 148 810 129 750 129 C689 129 647 157 630 212 L1002 212 C1004 227 1006 246 1006 274 C1006 403 921 540 747 540 C685 540 635 516 598 475 L598 527 L431 527 L431 485 C396 520 348 540 287 540 C134 540 24 421 24 263 C24 105 134 -13 287 -13 L287 -13 Z M204 263 C204 331 250 380 314 380 C380 380 424 332 424 263 C424 194 379 146 314 146 C250 146 204 195 204 263 L204 263 Z M345 676 L417 560 L681 710 L599 843 L345 676 Z M627 317 C639 376 676 408 735 408 C793 408 829 373 842 317 L627 317 Z " />
<glyph glyph-name="Oslashacute" unicode="&#x1fe;" horiz-adv-x="797" d="M398 -13 C604 -13 767 145 767 347 C767 425 743 497 702 555 L772 628 L668 729 L595 654 C538 688 471 708 398 708 C192 708 29 551 29 347 C29 269 54 197 96 138 L25 65 L130 -34 L202 41 C259 7 326 -13 398 -13 L398 -13 Z M214 348 C214 457 284 537 398 537 C512 537 582 457 582 348 C582 237 510 158 398 158 C287 158 214 237 214 348 L214 348 Z M229 870 L269 740 L589 827 L544 976 L229 870 Z " />
<glyph glyph-name="oslashacute" unicode="&#x1ff;" horiz-adv-x="651" d="M323 -13 C493 -13 614 106 614 263 C614 313 602 358 580 398 L645 454 L563 549 L495 490 C448 522 389 540 323 540 C153 540 33 421 33 263 C33 211 46 164 70 123 L5 68 L90 -27 L158 32 C204 3 260 -13 323 -13 L323 -13 Z M157 675 L229 559 L493 709 L411 842 L157 675 Z M215 263 C215 331 258 378 325 378 C390 378 432 331 432 264 C432 195 389 148 325 148 C258 148 215 196 215 263 L215 263 Z " />
<glyph glyph-name="uni0218" unicode="&#x218;" horiz-adv-x="605" d="M295 -13 C469 -13 576 74 576 198 C576 464 230 397 230 502 C230 534 261 554 312 554 C370 554 414 528 447 494 L563 610 C518 660 436 708 324 708 C150 708 49 619 49 492 C49 240 392 310 392 195 C392 162 359 143 308 143 C238 143 182 176 140 224 L17 101 C69 37 165 -13 295 -13 L295 -13 Z M215 -130 C215 -167 235 -195 263 -208 L255 -223 L221 -279 L302 -310 L335 -259 C374 -200 387 -170 387 -132 C387 -81 350 -47 302 -47 C253 -47 215 -80 215 -130 L215 -130 Z " />
<glyph glyph-name="uni0219" unicode="&#x219;" horiz-adv-x="510" d="M252 -13 C398 -13 491 54 491 165 C491 278 396 308 320 328 C254 344 215 352 215 379 C215 400 239 409 270 409 C308 409 348 399 385 352 L485 453 C439 506 365 540 269 540 C128 540 42 461 42 371 C42 269 121 232 191 216 C282 194 318 187 318 156 C318 131 293 119 250 119 C205 119 157 138 121 185 L13 78 C67 16 152 -13 252 -13 L252 -13 Z M181 -130 C181 -167 201 -195 229 -208 L221 -223 L187 -279 L268 -310 L301 -259 C340 -200 353 -170 353 -132 C353 -81 316 -47 268 -47 C219 -47 181 -80 181 -130 L181 -130 Z " />
<glyph glyph-name="uni021A" unicode="&#x21a;" horiz-adv-x="603" d="M211 0 L393 0 L393 533 L591 533 L591 695 L12 695 L12 533 L211 533 L211 0 Z M215 -130 C215 -167 235 -195 263 -208 L255 -223 L221 -279 L302 -310 L335 -259 C374 -200 387 -170 387 -132 C387 -81 350 -47 302 -47 C253 -47 215 -80 215 -130 L215 -130 Z " />
<glyph glyph-name="uni021B" unicode="&#x21b;" horiz-adv-x="421" d="M308 0 L400 0 L400 158 L347 158 C303 158 278 182 278 230 L278 373 L398 373 L398 527 L284 527 L284 668 L108 668 L108 588 C108 548 88 527 50 527 L10 527 L10 373 L97 373 L97 208 C97 83 167 0 308 0 L308 0 Z M170 -120 C170 -157 190 -185 218 -198 L210 -213 L176 -269 L257 -300 L290 -249 C329 -190 342 -160 342 -122 C342 -71 305 -37 257 -37 C208 -37 170 -70 170 -120 L170 -120 Z " />
<glyph glyph-name="uni0237" unicode="&#x237;" horiz-adv-x="273" d="M-34 -186 L-1 -186 C129 -186 229 -100 229 51 L229 527 L47 527 L47 48 C47 -2 18 -31 -25 -31 L-35 -31 L-34 -186 Z " />
<glyph glyph-name="circumflex" unicode="&#x2c6;" horiz-adv-x="407" d="M30 597 L186 597 L247 692 L310 597 L465 597 L328 810 L172 810 L30 597 Z " />
<glyph glyph-name="caron" unicode="&#x2c7;" horiz-adv-x="489" d="M172 597 L328 597 L465 810 L310 810 L247 714 L186 810 L30 810 L172 597 Z " />
<glyph glyph-name="breve" unicode="&#x2d8;" horiz-adv-x="428" d="M233 597 C361 597 436 680 436 810 L295 810 C295 754 269 729 233 729 C198 729 171 754 171 810 L30 810 C30 680 106 597 233 597 L233 597 Z " />
<glyph glyph-name="dotaccent" unicode="&#x2d9;" horiz-adv-x="236" d="M142 595 C204 595 253 639 253 703 C253 766 204 813 142 813 C79 813 30 766 30 703 C30 639 79 595 142 595 L142 595 Z " />
<glyph glyph-name="ring" unicode="&#x2da;" horiz-adv-x="313" d="M178 562 C265 562 325 619 325 703 C325 784 265 843 178 843 C92 843 30 784 30 703 C30 619 92 562 178 562 L178 562 Z M134 703 C134 727 152 744 178 744 C203 744 221 727 221 703 C221 678 203 661 178 661 C152 661 134 678 134 703 L134 703 Z " />
<glyph glyph-name="ogonek" unicode="&#x2db;" horiz-adv-x="314" d="M162 -240 C214 -240 259 -223 284 -197 L221 -113 C212 -123 202 -126 191 -126 C176 -126 165 -116 165 -99 C165 -82 173 -68 200 -41 L243 1 L179 49 L127 13 C63 -32 30 -79 30 -129 C30 -196 83 -240 162 -240 L162 -240 Z " />
<glyph glyph-name="tilde" unicode="&#x2dc;" horiz-adv-x="498" d="M328 606 C411 606 447 674 465 742 L342 794 C335 767 318 754 299 754 C255 754 231 801 167 801 C84 801 46 730 30 665 L152 613 C159 640 177 653 197 653 C238 653 264 606 328 606 L328 606 Z " />
<glyph glyph-name="hungarumlaut" unicode="&#x2dd;" horiz-adv-x="453" d="M393 560 L544 744 L420 836 L282 640 L393 560 Z M31 640 L141 560 L293 744 L168 836 L31 640 Z " />
<glyph glyph-name="gravecomb" unicode="&#x300;" d="M293 560 L366 676 L111 843 L30 710 L293 560 Z " />
<glyph glyph-name="acutecomb" unicode="&#x301;" d="M102 560 L366 710 L284 843 L30 676 L102 560 Z " />
<glyph glyph-name="uni0302" unicode="&#x302;" d="M30 597 L186 597 L247 692 L310 597 L465 597 L328 810 L172 810 L30 597 Z " />
<glyph glyph-name="tildecomb" unicode="&#x303;" d="M328 606 C411 606 447 674 465 742 L342 794 C335 767 318 754 299 754 C255 754 231 801 167 801 C84 801 46 730 30 665 L152 613 C159 640 177 653 197 653 C238 653 264 606 328 606 L328 606 Z " />
<glyph glyph-name="uni0304" unicode="&#x304;" d="M30 632 L385 632 L385 775 L30 775 L30 632 Z " />
<glyph glyph-name="uni0306" unicode="&#x306;" d="M233 597 C361 597 436 680 436 810 L295 810 C295 754 269 729 233 729 C198 729 171 754 171 810 L30 810 C30 680 106 597 233 597 L233 597 Z " />
<glyph glyph-name="uni0307" unicode="&#x307;" d="M142 595 C204 595 253 639 253 703 C253 766 204 813 142 813 C79 813 30 766 30 703 C30 639 79 595 142 595 L142 595 Z " />
<glyph glyph-name="uni0308" unicode="&#x308;" d="M392 597 C453 597 500 640 500 701 C500 763 454 808 395 808 C334 808 286 767 286 704 C286 640 334 597 392 597 L392 597 Z M30 704 C30 640 78 597 135 597 C196 597 243 640 243 701 C243 763 198 808 139 808 C78 808 30 767 30 704 L30 704 Z " />
<glyph glyph-name="uni030A" unicode="&#x30a;" d="M178 562 C265 562 325 619 325 703 C325 784 265 843 178 843 C92 843 30 784 30 703 C30 619 92 562 178 562 L178 562 Z M134 703 C134 727 152 744 178 744 C203 744 221 727 221 703 C221 678 203 661 178 661 C152 661 134 678 134 703 L134 703 Z " />
<glyph glyph-name="uni030B" unicode="&#x30b;" d="M392 560 L543 744 L419 836 L281 640 L392 560 Z M30 640 L140 560 L292 744 L167 836 L30 640 Z " />
<glyph glyph-name="uni030C" unicode="&#x30c;" d="M172 597 L328 597 L465 810 L310 810 L247 714 L186 810 L30 810 L172 597 Z " />
<glyph glyph-name="uni0326" unicode="&#x326;" d="M117 -310 L150 -259 C189 -200 202 -170 202 -132 C202 -81 165 -47 117 -47 C68 -47 30 -80 30 -130 C30 -167 50 -195 78 -208 L70 -223 L36 -279 L117 -310 Z " />
<glyph glyph-name="uni0327" unicode="&#x327;" d="M161 -242 C243 -242 300 -199 300 -132 C300 -82 268 -44 229 -38 L249 20 L142 20 L110 -76 L118 -83 L133 -83 C159 -83 172 -98 172 -115 C172 -133 158 -145 135 -145 C114 -145 99 -136 88 -122 L30 -195 C55 -222 104 -242 161 -242 L161 -242 Z " />
<glyph glyph-name="uni0328" unicode="&#x328;" d="M162 -240 C214 -240 259 -223 284 -197 L221 -113 C212 -123 202 -126 191 -126 C176 -126 165 -116 165 -99 C165 -82 173 -68 200 -41 L243 1 L179 49 L127 13 C63 -32 30 -79 30 -129 C30 -196 83 -240 162 -240 L162 -240 Z " />
<glyph glyph-name="uni0335" unicode="&#x335;" d="M30 222 L412 222 L412 346 L30 346 L30 222 Z " />
<glyph glyph-name="uni0336" unicode="&#x336;" d="M30 260 L735 260 L735 402 L30 402 L30 260 Z " />
<glyph glyph-name="uni0337" unicode="&#x337;" d="M108 168 L451 358 L384 471 L41 282 L108 168 Z " />
<glyph glyph-name="uni0338" unicode="&#x338;" d="M154 192 L30 86 L115 -9 L236 96 L154 192 Z M451 448 L533 353 L670 472 L588 567 L451 448 Z " />
<glyph glyph-name="Wgrave" unicode="&#x1e80;" horiz-adv-x="936" d="M158 0 L372 0 L469 439 L564 0 L779 0 L935 695 L755 695 L669 213 L567 695 L370 695 L269 215 L181 695 L2 695 L158 0 Z M288 827 L608 740 L648 870 L332 976 L288 827 Z " />
<glyph glyph-name="wgrave" unicode="&#x1e81;" horiz-adv-x="827" d="M137 0 L352 0 L417 313 L486 0 L700 0 L832 527 L647 527 L583 189 L518 527 L316 527 L252 187 L187 527 L3 527 L137 0 Z M237 710 L500 560 L573 676 L318 843 L237 710 Z " />
<glyph glyph-name="Wacute" unicode="&#x1e82;" horiz-adv-x="936" d="M158 0 L372 0 L469 439 L564 0 L779 0 L935 695 L755 695 L669 213 L567 695 L370 695 L269 215 L181 695 L2 695 L158 0 Z M298 870 L338 740 L658 827 L613 976 L298 870 Z " />
<glyph glyph-name="wacute" unicode="&#x1e83;" horiz-adv-x="827" d="M137 0 L352 0 L417 313 L486 0 L700 0 L832 527 L647 527 L583 189 L518 527 L316 527 L252 187 L187 527 L3 527 L137 0 Z M242 676 L314 560 L578 710 L496 843 L242 676 Z " />
<glyph glyph-name="Wdieresis" unicode="&#x1e84;" horiz-adv-x="936" d="M158 0 L372 0 L469 439 L564 0 L779 0 L935 695 L755 695 L669 213 L567 695 L370 695 L269 215 L181 695 L2 695 L158 0 Z M223 858 C223 791 273 746 333 746 C396 746 445 791 445 854 C445 919 397 965 336 965 C273 965 223 922 223 858 L223 858 Z M488 858 C488 791 538 746 599 746 C662 746 711 791 711 854 C711 919 663 965 601 965 C538 965 488 922 488 858 L488 858 Z " />
<glyph glyph-name="wdieresis" unicode="&#x1e85;" horiz-adv-x="827" d="M137 0 L352 0 L417 313 L486 0 L700 0 L832 527 L647 527 L583 189 L518 527 L316 527 L252 187 L187 527 L3 527 L137 0 Z M178 704 C178 640 226 597 283 597 C344 597 391 640 391 701 C391 763 346 808 287 808 C226 808 178 767 178 704 L178 704 Z M434 704 C434 640 482 597 540 597 C601 597 648 640 648 701 C648 763 602 808 543 808 C482 808 434 767 434 704 L434 704 Z " />
<glyph glyph-name="uni1E9E" unicode="&#x1e9e;" horiz-adv-x="659" d="M394 -13 C540 -13 632 61 632 187 C632 281 575 350 491 375 L608 541 C570 641 481 708 333 708 C164 708 49 609 49 454 L49 0 L231 0 L231 454 C231 514 267 552 336 552 C376 552 403 541 422 523 L325 380 L325 277 L361 277 C417 277 450 251 450 204 C450 159 421 132 367 132 C333 132 298 140 264 158 L264 8 C299 -4 336 -13 394 -13 L394 -13 Z " />
<glyph glyph-name="Ygrave" unicode="&#x1ef2;" horiz-adv-x="669" d="M244 0 L426 0 L426 284 L677 695 L473 695 L335 444 L196 695 L-7 695 L244 283 L244 0 Z M156 827 L476 740 L516 870 L200 976 L156 827 Z " />
<glyph glyph-name="ygrave" unicode="&#x1ef3;" horiz-adv-x="576" d="M162 0 L225 0 L156 -179 L334 -179 L578 527 L391 527 L280 144 L188 527 L1 527 L162 0 Z M112 710 L375 560 L448 676 L193 843 L112 710 Z " />
<glyph glyph-name="uni1EF8" unicode="&#x1ef8;" horiz-adv-x="669" d="M244 0 L426 0 L426 284 L677 695 L473 695 L335 444 L196 695 L-7 695 L244 283 L244 0 Z M117 810 L240 758 C247 785 263 798 287 798 C331 798 353 751 422 751 C508 751 555 819 574 887 L450 939 C443 912 427 899 405 899 C363 899 338 946 269 946 C181 946 133 873 117 810 L117 810 Z " />
<glyph glyph-name="uni1EF9" unicode="&#x1ef9;" horiz-adv-x="576" d="M162 0 L225 0 L156 -179 L334 -179 L578 527 L391 527 L280 144 L188 527 L1 527 L162 0 Z M71 665 L193 613 C200 640 218 653 238 653 C279 653 305 606 369 606 C452 606 488 674 506 742 L383 794 C376 767 359 754 340 754 C296 754 272 801 208 801 C125 801 87 730 71 665 L71 665 Z " />
<glyph glyph-name="endash" unicode="&#x2013;" horiz-adv-x="502" d="M47 262 L456 262 L456 408 L47 408 L47 262 Z " />
<glyph glyph-name="emdash" unicode="&#x2014;" horiz-adv-x="742" d="M47 263 L696 263 L696 409 L47 409 L47 263 Z " />
<glyph glyph-name="quoteleft" unicode="&#x2018;" horiz-adv-x="238" d="M118 385 C170 385 214 425 214 481 C214 532 183 562 141 570 L207 715 L109 715 L46 578 C29 541 21 512 21 483 C21 425 65 385 118 385 L118 385 Z " />
<glyph glyph-name="quoteright" unicode="&#x2019;" horiz-adv-x="241" d="M37 393 L135 393 L198 531 C215 567 223 596 223 625 C223 683 179 724 127 724 C74 724 30 683 30 627 C30 577 61 546 103 538 L37 393 Z " />
<glyph glyph-name="quotesinglbase" unicode="&#x201a;" horiz-adv-x="244" d="M32 -154 L130 -154 L193 -17 C210 20 218 49 218 77 C218 136 174 176 121 176 C69 176 25 136 25 80 C25 29 56 -2 98 -10 L32 -154 Z " />
<glyph glyph-name="quotedblleft" unicode="&#x201c;" horiz-adv-x="461" d="M340 385 C393 385 436 425 436 481 C436 532 406 562 364 570 L430 715 L332 715 L268 578 C252 541 244 512 244 483 C244 425 288 385 340 385 L340 385 Z M21 483 C21 425 65 385 118 385 C170 385 214 425 214 481 C214 532 183 562 141 570 L207 715 L109 715 L46 578 C29 541 21 512 21 483 L21 483 Z " />
<glyph glyph-name="quotedblright" unicode="&#x201d;" horiz-adv-x="464" d="M259 393 L358 393 L421 531 C438 567 445 596 445 625 C445 683 402 724 349 724 C297 724 253 683 253 627 C253 576 284 546 326 538 L259 393 Z M30 627 C30 577 61 546 103 538 L37 393 L135 393 L198 531 C215 567 223 596 223 625 C223 683 179 724 127 724 C74 724 30 683 30 627 L30 627 Z " />
<glyph glyph-name="quotedblbase" unicode="&#x201e;" horiz-adv-x="467" d="M254 -154 L353 -154 L416 -17 C433 20 440 49 440 77 C440 136 397 176 344 176 C291 176 248 136 248 80 C248 29 279 -2 321 -10 L254 -154 Z M25 80 C25 29 56 -2 98 -10 L32 -154 L130 -154 L193 -17 C210 20 218 49 218 77 C218 136 174 176 121 176 C69 176 25 136 25 80 L25 80 Z " />
<glyph glyph-name="dagger" unicode="&#x2020;" horiz-adv-x="400" d="M133 264 L266 264 L266 489 L367 489 L367 613 L266 613 L266 731 L133 731 L133 613 L34 613 L34 489 L133 489 L133 264 Z " />
<glyph glyph-name="daggerdbl" unicode="&#x2021;" horiz-adv-x="426" d="M146 264 L279 264 L279 338 L380 338 L380 462 L279 462 L279 533 L380 533 L380 657 L279 657 L279 731 L146 731 L146 657 L47 657 L47 533 L146 533 L146 462 L47 462 L47 338 L146 338 L146 264 Z " />
<glyph glyph-name="bullet" unicode="&#x2022;" horiz-adv-x="412" d="M206 183 C294 183 361 249 361 337 C361 428 294 495 206 495 C118 495 50 428 50 337 C50 249 118 183 206 183 L206 183 Z " />
<glyph glyph-name="ellipsis" unicode="&#x2026;" horiz-adv-x="697" d="M574 -10 C630 -10 671 32 671 85 C671 142 630 184 574 184 C521 184 479 142 479 85 C479 32 521 -10 574 -10 L574 -10 Z M26 85 C26 32 68 -10 122 -10 C177 -10 219 32 219 85 C219 142 177 184 122 184 C68 184 26 142 26 85 L26 85 Z M252 85 C252 32 294 -10 349 -10 C404 -10 446 32 446 85 C446 142 404 184 349 184 C294 184 252 142 252 85 L252 85 Z " />
<glyph glyph-name="perthousand" unicode="&#x2030;" horiz-adv-x="1099" d="M115 0 L251 1 L645 696 L506 695 L115 0 Z M22 540 C22 450 92 377 186 377 C281 377 350 450 350 540 C350 631 281 704 186 704 C92 704 22 631 22 540 L22 540 Z M137 541 C137 570 157 593 186 593 C215 593 234 570 234 541 C234 511 214 488 186 488 C157 488 137 511 137 541 L137 541 Z M407 154 C407 64 477 -9 571 -9 C666 -9 735 64 735 154 C735 245 666 318 571 318 C477 318 407 245 407 154 L407 154 Z M522 155 C522 184 542 207 571 207 C600 207 619 184 619 155 C619 125 599 102 571 102 C542 102 522 125 522 155 L522 155 Z M751 154 C751 64 821 -9 915 -9 C1010 -9 1079 64 1079 154 C1079 245 1010 318 915 318 C821 318 751 245 751 154 L751 154 Z M867 155 C867 184 886 207 915 207 C945 207 964 184 964 155 C964 125 944 102 915 102 C887 102 867 125 867 155 L867 155 Z " />
<glyph glyph-name="guilsinglleft" unicode="&#x2039;" horiz-adv-x="340" d="M137 67 L305 67 L187 240 L305 414 L137 414 L19 240 L137 67 Z " />
<glyph glyph-name="guilsinglright" unicode="&#x203a;" horiz-adv-x="340" d="M35 67 L202 67 L320 240 L202 414 L35 414 L153 240 L35 67 Z " />
<glyph glyph-name="fraction" unicode="&#x2044;" horiz-adv-x="416" d="M-18 0 L111 0 L437 695 L307 695 L-18 0 Z " />
<glyph glyph-name="uni2074" unicode="&#x2074;" horiz-adv-x="337" d="M21 407 L167 407 L167 347 L279 347 L279 407 L307 407 L307 486 L279 486 L279 695 L168 695 L21 491 L21 407 Z M107 486 L168 572 L168 486 L107 486 Z " />
<glyph glyph-name="colonmonetary" unicode="&#x20a1;" horiz-adv-x="661" d="M82 -100 L237 -100 L257 4 C264 2 271 -1 279 -3 L260 -100 L416 -100 L434 -4 C518 16 572 72 610 145 L467 232 C449 200 421 158 363 158 C288 158 235 232 235 347 C235 462 286 537 364 537 C424 537 453 498 466 463 L608 550 C595 578 577 605 554 629 L586 795 L432 795 L414 703 C406 705 399 706 391 707 L408 795 L253 795 L231 679 C120 626 50 503 50 347 C50 252 76 170 121 107 L82 -100 Z " />
<glyph glyph-name="franc" unicode="&#x20a3;" horiz-adv-x="641" d="M126 0 L308 0 L308 66 L491 66 L491 215 L308 215 L308 275 L545 275 L545 433 L308 433 L308 537 L583 537 L583 695 L126 695 L126 215 L55 215 L55 66 L126 66 L126 0 Z " />
<glyph glyph-name="lira" unicode="&#x20a4;" horiz-adv-x="641" d="M116 0 L602 0 L602 158 L298 158 L298 201 L438 201 L438 314 L298 314 L298 339 L438 339 L438 453 L298 453 L298 470 C298 515 325 551 385 551 C429 551 457 522 472 498 L604 608 C569 658 495 708 376 708 C222 708 116 603 116 470 L116 453 L45 453 L45 339 L116 339 L116 314 L45 314 L45 201 L116 201 L116 0 Z " />
<glyph glyph-name="peseta" unicode="&#x20a7;" horiz-adv-x="661" d="M90 0 L272 0 L272 240 L334 240 C454 240 541 296 573 386 L643 386 L643 543 L575 543 C545 638 458 695 334 695 L90 695 L90 543 L19 543 L19 386 L90 386 L90 0 Z M272 399 L272 536 L324 536 C376 536 401 507 401 467 C401 428 376 399 324 399 L272 399 Z " />
<glyph glyph-name="Euro" unicode="&#x20ac;" horiz-adv-x="641" d="M378 -13 C490 -13 562 29 612 94 L490 212 C469 183 438 158 381 158 C334 158 295 174 273 223 L377 223 L385 336 L253 336 C253 340 253 343 253 347 L253 361 L389 361 L397 475 L274 475 C296 522 334 537 382 537 C430 537 472 515 491 489 L609 608 C562 665 485 708 379 708 C235 708 126 616 85 475 L36 475 L27 361 L68 361 C68 356 68 352 68 347 L68 336 L25 336 L16 223 L84 223 C124 81 234 -13 378 -13 L378 -13 Z " />
<glyph glyph-name="uni20B1" unicode="&#x20b1;" horiz-adv-x="661" d="M90 0 L272 0 L272 240 L334 240 C407 240 468 261 511 297 L643 297 L643 455 L586 455 C586 459 586 463 586 467 L586 480 L643 480 L643 638 L512 638 C469 675 408 695 334 695 L90 695 L90 638 L19 638 L19 480 L90 480 L90 455 L19 455 L19 297 L90 297 L90 0 Z M272 399 L272 536 L324 536 C376 536 401 507 401 467 C401 428 376 399 324 399 L272 399 Z " />
<glyph glyph-name="uni20B5" unicode="&#x20b5;" horiz-adv-x="641" d="M277 -100 L422 -100 L422 -6 C503 9 558 52 601 97 L479 218 C450 182 416 158 358 158 C275 158 228 232 228 347 C228 463 281 537 360 537 C415 537 446 510 473 475 L594 596 C552 649 493 687 421 702 L421 795 L275 795 L275 698 C135 661 43 525 43 347 C43 168 136 32 277 -4 L277 -100 Z " />
<glyph glyph-name="uni20B9" unicode="&#x20b9;" horiz-adv-x="661" d="M53 241 L287 0 L539 0 L296 241 L300 241 C403 241 482 282 522 351 L609 351 L609 509 L549 509 L543 537 L609 537 L609 695 L53 695 L53 537 L290 537 C342 537 367 507 367 468 C367 430 342 400 290 400 L53 400 L53 241 Z " />
<glyph glyph-name="uni20BD" unicode="&#x20bd;" horiz-adv-x="641" d="M114 0 L296 0 L296 67 L478 67 L478 214 L296 214 L296 240 L367 240 C519 240 618 330 618 467 C618 606 521 695 367 695 L114 695 L114 399 L43 399 L43 240 L114 240 L114 214 L43 214 L43 67 L114 67 L114 0 Z M296 399 L296 536 L356 536 C409 536 433 507 433 467 C433 428 409 399 356 399 L296 399 Z " />
<glyph glyph-name="trademark" unicode="&#x2122;" horiz-adv-x="626" d="M390 428 L461 428 L493 541 L502 421 L583 421 L561 679 L462 679 L426 546 L390 679 L289 679 L269 421 L349 421 L359 543 L390 428 Z M24 602 L94 602 L94 421 L179 421 L179 602 L250 602 L250 679 L24 679 L24 602 Z " />
<glyph glyph-name="minus" unicode="&#x2212;" horiz-adv-x="525" d="M51 260 L475 260 L475 412 L51 412 L51 260 Z " />
<glyph glyph-name="infinity" unicode="&#x221e;" horiz-adv-x="2938" d="M100 -175 L235 -175 L235 62 C272 14 328 -17 406 -17 C547 -17 664 105 664 263 C664 419 547 540 406 540 C328 540 272 512 235 464 L235 527 L100 527 L100 -175 Z M235 263 C235 352 298 412 380 412 C464 412 526 352 526 263 C526 175 464 115 380 115 C298 115 235 175 235 263 L235 263 Z M694 263 C694 105 810 -17 948 -17 C1024 -17 1082 15 1120 62 L1120 -1 L1171 -1 L1255 81 L1255 527 L1120 527 L1120 464 C1082 512 1024 540 948 540 C810 540 694 419 694 263 L694 263 Z M829 263 C829 352 891 412 973 412 C1058 412 1120 352 1120 263 C1120 175 1058 115 973 115 C891 115 829 175 829 263 L829 263 Z M1242 -1 L1956 -1 C1914 30 1881 75 1862 127 L1560 127 L1950 527 L1334 527 L1334 396 L1636 396 L1242 -1 Z M1892 263 C1892 105 2005 -17 2179 -17 C2281 -17 2360 26 2409 97 L2300 162 C2276 130 2235 108 2182 108 C2112 108 2054 138 2035 206 L2429 206 C2433 224 2434 243 2434 263 C2434 419 2326 540 2170 540 C2006 540 1892 419 1892 263 L1892 263 Z M2033 311 C2048 381 2098 419 2170 419 C2226 419 2283 388 2300 311 L2033 311 Z M2474 375 C2474 273 2552 194 2657 194 C2759 194 2838 273 2838 375 C2838 480 2759 558 2657 558 C2552 558 2474 480 2474 375 L2474 375 Z M2513 375 C2513 460 2572 521 2657 521 C2741 521 2800 460 2800 375 C2800 291 2741 230 2657 230 C2572 230 2513 291 2513 375 L2513 375 Z M2586 273 L2623 273 L2623 359 L2650 359 L2707 273 L2747 273 L2686 360 C2711 363 2742 380 2742 423 C2742 465 2705 481 2667 481 L2586 481 L2586 273 Z M2623 389 L2623 452 L2661 452 C2684 452 2704 445 2704 423 C2704 394 2684 389 2661 389 L2623 389 Z " />
<glyph glyph-name="approxequal" unicode="&#x2248;" horiz-adv-x="540" d="M365 336 C420 336 471 366 505 422 L421 520 C403 492 373 482 342 482 C280 482 258 533 175 533 C120 533 69 503 35 447 L120 349 C138 377 168 387 198 387 C261 387 282 336 365 336 L365 336 Z M35 215 L120 117 C138 145 168 155 198 155 C260 155 282 104 365 104 C420 104 471 134 505 190 L421 288 C402 260 373 250 342 250 C280 250 258 301 175 301 C120 301 69 271 35 215 L35 215 Z " />
<glyph glyph-name="notequal" unicode="&#x2260;" horiz-adv-x="526" d="M93 45 L260 45 L285 126 L475 126 L475 278 L333 278 L358 357 L475 357 L475 509 L406 509 L431 590 L265 590 L239 509 L51 509 L51 357 L191 357 L167 278 L51 278 L51 126 L119 126 L93 45 Z " />
<glyph glyph-name="lozenge" unicode="&#x25ca;" horiz-adv-x="631" d="M395 428 L466 428 L498 542 L508 421 L588 421 L567 679 L467 679 L431 547 L395 679 L295 679 L274 421 L354 421 L364 543 L395 428 Z M24 456 C46 433 86 416 141 416 C211 416 254 448 254 498 C254 596 121 575 121 605 C121 617 134 620 148 620 C169 620 186 612 197 601 L248 651 C230 669 197 685 153 685 C82 685 40 652 40 605 C40 506 174 530 174 496 C174 486 161 481 146 481 C121 481 95 491 77 508 L24 456 Z " />
<glyph glyph-name="uniF8FF" unicode="&#xf8ff;" horiz-adv-x="2534" d="M1120 263 C1120 352 1058 412 973 412 C891 412 829 352 829 263 C829 175 891 115 973 115 C1058 115 1120 175 1120 263 L1120 263 Z M100 -175 L235 -175 L235 62 C272 14 328 -17 406 -17 C547 -17 664 105 664 263 C664 419 547 540 406 540 C328 540 272 512 235 464 L235 527 L100 527 L100 -175 Z M235 263 C235 352 298 412 380 412 C464 412 526 352 526 263 C526 175 464 115 380 115 C298 115 235 175 235 263 L235 263 Z M694 263 C694 419 810 540 948 540 C1024 540 1082 512 1120 464 L1120 527 L1255 527 L1255 81 L1171 -1 L1120 -1 L1120 62 C1082 15 1024 -17 948 -17 C810 -17 694 105 694 263 L694 263 Z M1242 -1 L1636 396 L1334 396 L1334 527 L1950 527 L1560 127 L1862 127 C1881 75 1914 30 1956 -1 L1242 -1 Z M1892 263 C1892 105 2005 -17 2179 -17 C2281 -17 2360 26 2409 97 L2300 162 C2276 130 2235 108 2182 108 C2112 108 2054 138 2035 206 L2429 206 C2433 224 2434 243 2434 263 C2434 419 2326 540 2170 540 C2006 540 1892 419 1892 263 L1892 263 Z M2033 311 C2048 381 2098 419 2170 419 C2226 419 2283 388 2300 311 L2033 311 Z " />
</font>
</svg>
